<?xml version="1.0" encoding="utf-8"?>
<svg xmlns="http://www.w3.org/2000/svg" xmlns:xlink="http://www.w3.org/1999/xlink" width="600" height="400" viewBox="0 0 2400 1600">
<defs>
  <clipPath id="clip230">
    <rect x="0" y="0" width="2400" height="1600"/>
  </clipPath>
</defs>
<path clip-path="url(#clip230)" d="M0 1600 L2400 1600 L2400 8.88178e-14 L0 8.88178e-14  Z" fill="#ffffff" fill-rule="evenodd" fill-opacity="1"/>
<defs>
  <clipPath id="clip231">
    <rect x="480" y="0" width="1681" height="1600"/>
  </clipPath>
</defs>
<path clip-path="url(#clip230)" d="M219.38 1423.18 L2352.76 1423.18 L2352.76 47.2441 L219.38 47.2441  Z" fill="#ffffff" fill-rule="evenodd" fill-opacity="1"/>
<defs>
  <clipPath id="clip232">
    <rect x="219" y="47" width="2134" height="1377"/>
  </clipPath>
</defs>
<polyline clip-path="url(#clip232)" style="stroke:#000000; stroke-linecap:round; stroke-linejoin:round; stroke-width:2; stroke-opacity:0.1; fill:none" points="398.148,1423.18 398.148,47.2441 "/>
<polyline clip-path="url(#clip232)" style="stroke:#000000; stroke-linecap:round; stroke-linejoin:round; stroke-width:2; stroke-opacity:0.1; fill:none" points="871.705,1423.18 871.705,47.2441 "/>
<polyline clip-path="url(#clip232)" style="stroke:#000000; stroke-linecap:round; stroke-linejoin:round; stroke-width:2; stroke-opacity:0.1; fill:none" points="1345.26,1423.18 1345.26,47.2441 "/>
<polyline clip-path="url(#clip232)" style="stroke:#000000; stroke-linecap:round; stroke-linejoin:round; stroke-width:2; stroke-opacity:0.1; fill:none" points="1818.82,1423.18 1818.82,47.2441 "/>
<polyline clip-path="url(#clip232)" style="stroke:#000000; stroke-linecap:round; stroke-linejoin:round; stroke-width:2; stroke-opacity:0.1; fill:none" points="2292.38,1423.18 2292.38,47.2441 "/>
<polyline clip-path="url(#clip230)" style="stroke:#000000; stroke-linecap:round; stroke-linejoin:round; stroke-width:4; stroke-opacity:1; fill:none" points="219.38,1423.18 2352.76,1423.18 "/>
<polyline clip-path="url(#clip230)" style="stroke:#000000; stroke-linecap:round; stroke-linejoin:round; stroke-width:4; stroke-opacity:1; fill:none" points="398.148,1423.18 398.148,1404.28 "/>
<polyline clip-path="url(#clip230)" style="stroke:#000000; stroke-linecap:round; stroke-linejoin:round; stroke-width:4; stroke-opacity:1; fill:none" points="871.705,1423.18 871.705,1404.28 "/>
<polyline clip-path="url(#clip230)" style="stroke:#000000; stroke-linecap:round; stroke-linejoin:round; stroke-width:4; stroke-opacity:1; fill:none" points="1345.26,1423.18 1345.26,1404.28 "/>
<polyline clip-path="url(#clip230)" style="stroke:#000000; stroke-linecap:round; stroke-linejoin:round; stroke-width:4; stroke-opacity:1; fill:none" points="1818.82,1423.18 1818.82,1404.28 "/>
<polyline clip-path="url(#clip230)" style="stroke:#000000; stroke-linecap:round; stroke-linejoin:round; stroke-width:4; stroke-opacity:1; fill:none" points="2292.38,1423.18 2292.38,1404.28 "/>
<path clip-path="url(#clip230)" d="M392.801 1481.64 L409.12 1481.64 L409.12 1485.58 L387.176 1485.58 L387.176 1481.64 Q389.838 1478.89 394.421 1474.26 Q399.028 1469.61 400.208 1468.27 Q402.454 1465.74 403.333 1464.01 Q404.236 1462.25 404.236 1460.56 Q404.236 1457.8 402.292 1456.07 Q400.37 1454.33 397.268 1454.33 Q395.069 1454.33 392.616 1455.09 Q390.185 1455.86 387.407 1457.41 L387.407 1452.69 Q390.231 1451.55 392.685 1450.97 Q395.139 1450.39 397.176 1450.39 Q402.546 1450.39 405.741 1453.08 Q408.935 1455.77 408.935 1460.26 Q408.935 1462.39 408.125 1464.31 Q407.338 1466.2 405.231 1468.8 Q404.653 1469.47 401.551 1472.69 Q398.449 1475.88 392.801 1481.64 Z" fill="#000000" fill-rule="nonzero" fill-opacity="1" /><path clip-path="url(#clip230)" d="M874.715 1455.09 L862.909 1473.54 L874.715 1473.54 L874.715 1455.09 M873.488 1451.02 L879.367 1451.02 L879.367 1473.54 L884.298 1473.54 L884.298 1477.43 L879.367 1477.43 L879.367 1485.58 L874.715 1485.58 L874.715 1477.43 L859.113 1477.43 L859.113 1472.92 L873.488 1451.02 Z" fill="#000000" fill-rule="nonzero" fill-opacity="1" /><path clip-path="url(#clip230)" d="M1345.67 1466.44 Q1342.52 1466.44 1340.67 1468.59 Q1338.84 1470.74 1338.84 1474.49 Q1338.84 1478.22 1340.67 1480.39 Q1342.52 1482.55 1345.67 1482.55 Q1348.82 1482.55 1350.64 1480.39 Q1352.5 1478.22 1352.5 1474.49 Q1352.5 1470.74 1350.64 1468.59 Q1348.82 1466.44 1345.67 1466.44 M1354.95 1451.78 L1354.95 1456.04 Q1353.19 1455.21 1351.39 1454.77 Q1349.6 1454.33 1347.84 1454.33 Q1343.21 1454.33 1340.76 1457.45 Q1338.33 1460.58 1337.98 1466.9 Q1339.35 1464.89 1341.41 1463.82 Q1343.47 1462.73 1345.95 1462.73 Q1351.15 1462.73 1354.16 1465.9 Q1357.2 1469.05 1357.2 1474.49 Q1357.2 1479.82 1354.05 1483.03 Q1350.9 1486.25 1345.67 1486.25 Q1339.67 1486.25 1336.5 1481.67 Q1333.33 1477.06 1333.33 1468.33 Q1333.33 1460.14 1337.22 1455.28 Q1341.11 1450.39 1347.66 1450.39 Q1349.42 1450.39 1351.2 1450.74 Q1353.01 1451.09 1354.95 1451.78 Z" fill="#000000" fill-rule="nonzero" fill-opacity="1" /><path clip-path="url(#clip230)" d="M1818.82 1469.17 Q1815.49 1469.17 1813.57 1470.95 Q1811.67 1472.73 1811.67 1475.86 Q1811.67 1478.98 1813.57 1480.77 Q1815.49 1482.55 1818.82 1482.55 Q1822.15 1482.55 1824.07 1480.77 Q1826 1478.96 1826 1475.86 Q1826 1472.73 1824.07 1470.95 Q1822.18 1469.17 1818.82 1469.17 M1814.14 1467.18 Q1811.13 1466.44 1809.45 1464.38 Q1807.78 1462.32 1807.78 1459.35 Q1807.78 1455.21 1810.72 1452.8 Q1813.68 1450.39 1818.82 1450.39 Q1823.98 1450.39 1826.92 1452.8 Q1829.86 1455.21 1829.86 1459.35 Q1829.86 1462.32 1828.17 1464.38 Q1826.51 1466.44 1823.52 1467.18 Q1826.9 1467.96 1828.77 1470.26 Q1830.67 1472.55 1830.67 1475.86 Q1830.67 1480.88 1827.59 1483.57 Q1824.54 1486.25 1818.82 1486.25 Q1813.1 1486.25 1810.02 1483.57 Q1806.97 1480.88 1806.97 1475.86 Q1806.97 1472.55 1808.87 1470.26 Q1810.76 1467.96 1814.14 1467.18 M1812.43 1459.79 Q1812.43 1462.48 1814.1 1463.98 Q1815.79 1465.49 1818.82 1465.49 Q1821.83 1465.49 1823.52 1463.98 Q1825.23 1462.48 1825.23 1459.79 Q1825.23 1457.11 1823.52 1455.6 Q1821.83 1454.1 1818.82 1454.1 Q1815.79 1454.1 1814.1 1455.6 Q1812.43 1457.11 1812.43 1459.79 Z" fill="#000000" fill-rule="nonzero" fill-opacity="1" /><path clip-path="url(#clip230)" d="M2267.06 1481.64 L2274.7 1481.64 L2274.7 1455.28 L2266.39 1456.95 L2266.39 1452.69 L2274.66 1451.02 L2279.33 1451.02 L2279.33 1481.64 L2286.97 1481.64 L2286.97 1485.58 L2267.06 1485.58 L2267.06 1481.64 Z" fill="#000000" fill-rule="nonzero" fill-opacity="1" /><path clip-path="url(#clip230)" d="M2306.42 1454.1 Q2302.81 1454.1 2300.98 1457.66 Q2299.17 1461.2 2299.17 1468.33 Q2299.17 1475.44 2300.98 1479.01 Q2302.81 1482.55 2306.42 1482.55 Q2310.05 1482.55 2311.86 1479.01 Q2313.69 1475.44 2313.69 1468.33 Q2313.69 1461.2 2311.86 1457.66 Q2310.05 1454.1 2306.42 1454.1 M2306.42 1450.39 Q2312.23 1450.39 2315.28 1455 Q2318.36 1459.58 2318.36 1468.33 Q2318.36 1477.06 2315.28 1481.67 Q2312.23 1486.25 2306.42 1486.25 Q2300.61 1486.25 2297.53 1481.67 Q2294.47 1477.06 2294.47 1468.33 Q2294.47 1459.58 2297.53 1455 Q2300.61 1450.39 2306.42 1450.39 Z" fill="#000000" fill-rule="nonzero" fill-opacity="1" /><path clip-path="url(#clip230)" d="M1302.68 1532.4 L1289.79 1549.74 L1303.35 1568.04 L1296.44 1568.04 L1286.07 1554.04 L1275.69 1568.04 L1268.79 1568.04 L1282.63 1549.39 L1269.96 1532.4 L1276.87 1532.4 L1286.32 1545.1 L1295.78 1532.4 L1302.68 1532.4 Z" fill="#000000" fill-rule="nonzero" fill-opacity="1" /><polyline clip-path="url(#clip232)" style="stroke:#000000; stroke-linecap:round; stroke-linejoin:round; stroke-width:2; stroke-opacity:0.1; fill:none" points="219.38,1384.24 2352.76,1384.24 "/>
<polyline clip-path="url(#clip232)" style="stroke:#000000; stroke-linecap:round; stroke-linejoin:round; stroke-width:2; stroke-opacity:0.1; fill:none" points="219.38,1059.73 2352.76,1059.73 "/>
<polyline clip-path="url(#clip232)" style="stroke:#000000; stroke-linecap:round; stroke-linejoin:round; stroke-width:2; stroke-opacity:0.1; fill:none" points="219.38,735.212 2352.76,735.212 "/>
<polyline clip-path="url(#clip232)" style="stroke:#000000; stroke-linecap:round; stroke-linejoin:round; stroke-width:2; stroke-opacity:0.1; fill:none" points="219.38,410.699 2352.76,410.699 "/>
<polyline clip-path="url(#clip232)" style="stroke:#000000; stroke-linecap:round; stroke-linejoin:round; stroke-width:2; stroke-opacity:0.1; fill:none" points="219.38,86.1857 2352.76,86.1857 "/>
<polyline clip-path="url(#clip230)" style="stroke:#000000; stroke-linecap:round; stroke-linejoin:round; stroke-width:4; stroke-opacity:1; fill:none" points="219.38,1423.18 219.38,47.2441 "/>
<polyline clip-path="url(#clip230)" style="stroke:#000000; stroke-linecap:round; stroke-linejoin:round; stroke-width:4; stroke-opacity:1; fill:none" points="219.38,1384.24 238.278,1384.24 "/>
<polyline clip-path="url(#clip230)" style="stroke:#000000; stroke-linecap:round; stroke-linejoin:round; stroke-width:4; stroke-opacity:1; fill:none" points="219.38,1059.73 238.278,1059.73 "/>
<polyline clip-path="url(#clip230)" style="stroke:#000000; stroke-linecap:round; stroke-linejoin:round; stroke-width:4; stroke-opacity:1; fill:none" points="219.38,735.212 238.278,735.212 "/>
<polyline clip-path="url(#clip230)" style="stroke:#000000; stroke-linecap:round; stroke-linejoin:round; stroke-width:4; stroke-opacity:1; fill:none" points="219.38,410.699 238.278,410.699 "/>
<polyline clip-path="url(#clip230)" style="stroke:#000000; stroke-linecap:round; stroke-linejoin:round; stroke-width:4; stroke-opacity:1; fill:none" points="219.38,86.1857 238.278,86.1857 "/>
<path clip-path="url(#clip230)" d="M126.205 1370.04 Q122.593 1370.04 120.765 1373.6 Q118.959 1377.14 118.959 1384.27 Q118.959 1391.38 120.765 1394.94 Q122.593 1398.49 126.205 1398.49 Q129.839 1398.49 131.644 1394.94 Q133.473 1391.38 133.473 1384.27 Q133.473 1377.14 131.644 1373.6 Q129.839 1370.04 126.205 1370.04 M126.205 1366.33 Q132.015 1366.33 135.07 1370.94 Q138.149 1375.52 138.149 1384.27 Q138.149 1393 135.07 1397.61 Q132.015 1402.19 126.205 1402.19 Q120.394 1402.19 117.316 1397.61 Q114.26 1393 114.26 1384.27 Q114.26 1375.52 117.316 1370.94 Q120.394 1366.33 126.205 1366.33 Z" fill="#000000" fill-rule="nonzero" fill-opacity="1" /><path clip-path="url(#clip230)" d="M146.366 1395.64 L151.251 1395.64 L151.251 1401.52 L146.366 1401.52 L146.366 1395.64 Z" fill="#000000" fill-rule="nonzero" fill-opacity="1" /><path clip-path="url(#clip230)" d="M171.436 1370.04 Q167.825 1370.04 165.996 1373.6 Q164.19 1377.14 164.19 1384.27 Q164.19 1391.38 165.996 1394.94 Q167.825 1398.49 171.436 1398.49 Q175.07 1398.49 176.876 1394.94 Q178.704 1391.38 178.704 1384.27 Q178.704 1377.14 176.876 1373.6 Q175.07 1370.04 171.436 1370.04 M171.436 1366.33 Q177.246 1366.33 180.301 1370.94 Q183.38 1375.52 183.38 1384.27 Q183.38 1393 180.301 1397.61 Q177.246 1402.19 171.436 1402.19 Q165.626 1402.19 162.547 1397.61 Q159.491 1393 159.491 1384.27 Q159.491 1375.52 162.547 1370.94 Q165.626 1366.33 171.436 1366.33 Z" fill="#000000" fill-rule="nonzero" fill-opacity="1" /><path clip-path="url(#clip230)" d="M127.2 1045.52 Q123.589 1045.52 121.76 1049.09 Q119.955 1052.63 119.955 1059.76 Q119.955 1066.87 121.76 1070.43 Q123.589 1073.97 127.2 1073.97 Q130.834 1073.97 132.64 1070.43 Q134.468 1066.87 134.468 1059.76 Q134.468 1052.63 132.64 1049.09 Q130.834 1045.52 127.2 1045.52 M127.2 1041.82 Q133.01 1041.82 136.066 1046.43 Q139.144 1051.01 139.144 1059.76 Q139.144 1068.49 136.066 1073.09 Q133.01 1077.68 127.2 1077.68 Q121.39 1077.68 118.311 1073.09 Q115.256 1068.49 115.256 1059.76 Q115.256 1051.01 118.311 1046.43 Q121.39 1041.82 127.2 1041.82 Z" fill="#000000" fill-rule="nonzero" fill-opacity="1" /><path clip-path="url(#clip230)" d="M147.362 1071.13 L152.246 1071.13 L152.246 1077.01 L147.362 1077.01 L147.362 1071.13 Z" fill="#000000" fill-rule="nonzero" fill-opacity="1" /><path clip-path="url(#clip230)" d="M162.477 1042.45 L180.834 1042.45 L180.834 1046.38 L166.76 1046.38 L166.76 1054.85 Q167.778 1054.51 168.797 1054.34 Q169.815 1054.16 170.834 1054.16 Q176.621 1054.16 180.001 1057.33 Q183.38 1060.5 183.38 1065.92 Q183.38 1071.5 179.908 1074.6 Q176.436 1077.68 170.116 1077.68 Q167.94 1077.68 165.672 1077.31 Q163.427 1076.94 161.019 1076.19 L161.019 1071.5 Q163.102 1072.63 165.325 1073.19 Q167.547 1073.74 170.024 1073.74 Q174.028 1073.74 176.366 1071.63 Q178.704 1069.53 178.704 1065.92 Q178.704 1062.31 176.366 1060.2 Q174.028 1058.09 170.024 1058.09 Q168.149 1058.09 166.274 1058.51 Q164.422 1058.93 162.477 1059.81 L162.477 1042.45 Z" fill="#000000" fill-rule="nonzero" fill-opacity="1" /><path clip-path="url(#clip230)" d="M117.015 748.557 L124.654 748.557 L124.654 722.191 L116.343 723.858 L116.343 719.599 L124.607 717.932 L129.283 717.932 L129.283 748.557 L136.922 748.557 L136.922 752.492 L117.015 752.492 L117.015 748.557 Z" fill="#000000" fill-rule="nonzero" fill-opacity="1" /><path clip-path="url(#clip230)" d="M146.366 746.612 L151.251 746.612 L151.251 752.492 L146.366 752.492 L146.366 746.612 Z" fill="#000000" fill-rule="nonzero" fill-opacity="1" /><path clip-path="url(#clip230)" d="M171.436 721.011 Q167.825 721.011 165.996 724.575 Q164.19 728.117 164.19 735.247 Q164.19 742.353 165.996 745.918 Q167.825 749.46 171.436 749.46 Q175.07 749.46 176.876 745.918 Q178.704 742.353 178.704 735.247 Q178.704 728.117 176.876 724.575 Q175.07 721.011 171.436 721.011 M171.436 717.307 Q177.246 717.307 180.301 721.913 Q183.38 726.497 183.38 735.247 Q183.38 743.973 180.301 748.58 Q177.246 753.163 171.436 753.163 Q165.626 753.163 162.547 748.58 Q159.491 743.973 159.491 735.247 Q159.491 726.497 162.547 721.913 Q165.626 717.307 171.436 717.307 Z" fill="#000000" fill-rule="nonzero" fill-opacity="1" /><path clip-path="url(#clip230)" d="M118.01 424.044 L125.649 424.044 L125.649 397.678 L117.339 399.345 L117.339 395.085 L125.603 393.419 L130.279 393.419 L130.279 424.044 L137.917 424.044 L137.917 427.979 L118.01 427.979 L118.01 424.044 Z" fill="#000000" fill-rule="nonzero" fill-opacity="1" /><path clip-path="url(#clip230)" d="M147.362 422.099 L152.246 422.099 L152.246 427.979 L147.362 427.979 L147.362 422.099 Z" fill="#000000" fill-rule="nonzero" fill-opacity="1" /><path clip-path="url(#clip230)" d="M162.477 393.419 L180.834 393.419 L180.834 397.354 L166.76 397.354 L166.76 405.826 Q167.778 405.479 168.797 405.317 Q169.815 405.132 170.834 405.132 Q176.621 405.132 180.001 408.303 Q183.38 411.474 183.38 416.891 Q183.38 422.47 179.908 425.571 Q176.436 428.65 170.116 428.65 Q167.94 428.65 165.672 428.28 Q163.427 427.909 161.019 427.169 L161.019 422.47 Q163.102 423.604 165.325 424.159 Q167.547 424.715 170.024 424.715 Q174.028 424.715 176.366 422.608 Q178.704 420.502 178.704 416.891 Q178.704 413.28 176.366 411.173 Q174.028 409.067 170.024 409.067 Q168.149 409.067 166.274 409.484 Q164.422 409.9 162.477 410.78 L162.477 393.419 Z" fill="#000000" fill-rule="nonzero" fill-opacity="1" /><path clip-path="url(#clip230)" d="M120.232 99.5305 L136.552 99.5305 L136.552 103.466 L114.607 103.466 L114.607 99.5305 Q117.269 96.7759 121.853 92.1463 Q126.459 87.4935 127.64 86.151 Q129.885 83.6278 130.765 81.8917 Q131.667 80.1325 131.667 78.4427 Q131.667 75.688 129.723 73.9519 Q127.802 72.2158 124.7 72.2158 Q122.501 72.2158 120.047 72.9797 Q117.617 73.7436 114.839 75.2945 L114.839 70.5723 Q117.663 69.4381 120.117 68.8594 Q122.57 68.2807 124.607 68.2807 Q129.978 68.2807 133.172 70.9658 Q136.367 73.651 136.367 78.1417 Q136.367 80.2714 135.556 82.1926 Q134.769 84.0908 132.663 86.6834 Q132.084 87.3546 128.982 90.5722 Q125.88 93.7667 120.232 99.5305 Z" fill="#000000" fill-rule="nonzero" fill-opacity="1" /><path clip-path="url(#clip230)" d="M146.366 97.5861 L151.251 97.5861 L151.251 103.466 L146.366 103.466 L146.366 97.5861 Z" fill="#000000" fill-rule="nonzero" fill-opacity="1" /><path clip-path="url(#clip230)" d="M171.436 71.9844 Q167.825 71.9844 165.996 75.5492 Q164.19 79.0908 164.19 86.2204 Q164.19 93.3268 165.996 96.8916 Q167.825 100.433 171.436 100.433 Q175.07 100.433 176.876 96.8916 Q178.704 93.3268 178.704 86.2204 Q178.704 79.0908 176.876 75.5492 Q175.07 71.9844 171.436 71.9844 M171.436 68.2807 Q177.246 68.2807 180.301 72.8871 Q183.38 77.4704 183.38 86.2204 Q183.38 94.9472 180.301 99.5537 Q177.246 104.137 171.436 104.137 Q165.626 104.137 162.547 99.5537 Q159.491 94.9472 159.491 86.2204 Q159.491 77.4704 162.547 72.8871 Q165.626 68.2807 171.436 68.2807 Z" fill="#000000" fill-rule="nonzero" fill-opacity="1" /><path clip-path="url(#clip230)" d="M67.3143 733.525 Q73.68 736.008 75.6216 738.363 Q77.5631 740.718 77.5631 744.665 L77.5631 749.344 L72.6615 749.344 L72.6615 745.906 Q72.6615 743.487 71.5157 742.151 Q70.3699 740.814 66.1048 739.191 L63.4312 738.14 L28.3562 752.559 L28.3562 746.352 L56.238 735.212 L28.3562 724.072 L28.3562 717.865 L67.3143 733.525 Z" fill="#000000" fill-rule="nonzero" fill-opacity="1" /><path clip-path="url(#clip232)" d="M398.148 735.212 L401.231 739.41 L404.314 743.554 L407.397 747.646 L410.481 751.685 L424.734 769.713 L438.988 786.741 L453.242 802.851 L467.496 818.116 L481.75 832.599 L496.004 846.359 L510.258 859.45 L524.512 871.919 L541.644 886.143 L558.776 899.599 L575.908 912.347 L593.04 924.441 L607.525 934.193 L622.01 943.54 L636.495 952.507 L650.98 961.116 L666.715 970.087 L682.449 978.686 L698.184 986.935 L713.919 994.855 L742.931 1008.66 L771.943 1021.52 L803.046 1034.36 L834.15 1046.33 L870.187 1059.2 L906.224 1071.14 L938.25 1081.03 L970.275 1090.31 L998.358 1098 L1026.44 1105.3 L1057.06 1112.84 L1087.68 1119.98 L1118.48 1126.8 L1149.28 1133.28 L1217.39 1146.5 L1282.19 1157.84 L1349.57 1168.55 L1406.29 1176.81 L1475.54 1186.07 L1538.97 1193.85 L1597.56 1200.52 L1656.91 1206.82 L1723.42 1213.38 L1783.69 1218.92 L1852.69 1224.83 L1916.59 1229.95 L1979.58 1234.67 L2040.74 1239 L2103.43 1243.18 L2172.12 1247.49 L2271.91 1253.3 L2292.38 1254.43 L2292.38 1384.24 L2271.91 1384.24 L2172.12 1384.24 L2103.43 1384.24 L2040.74 1384.24 L1979.58 1384.24 L1916.59 1384.24 L1852.69 1384.24 L1783.69 1384.24 L1723.42 1384.24 L1656.91 1384.24 L1597.56 1384.24 L1538.97 1384.24 L1475.54 1384.24 L1406.29 1384.24 L1349.57 1384.24 L1282.19 1384.24 L1217.39 1384.24 L1149.28 1384.24 L1118.48 1384.24 L1087.68 1384.24 L1057.06 1384.24 L1026.44 1384.24 L998.358 1384.24 L970.275 1384.24 L938.25 1384.24 L906.224 1384.24 L870.187 1384.24 L834.15 1384.24 L803.046 1384.24 L771.943 1384.24 L742.931 1384.24 L713.919 1384.24 L698.184 1384.24 L682.449 1384.24 L666.715 1384.24 L650.98 1384.24 L636.495 1384.24 L622.01 1384.24 L607.525 1384.24 L593.04 1384.24 L575.908 1384.24 L558.776 1384.24 L541.644 1384.24 L524.512 1384.24 L510.258 1384.24 L496.004 1384.24 L481.75 1384.24 L467.496 1384.24 L453.242 1384.24 L438.988 1384.24 L424.734 1384.24 L410.481 1384.24 L407.397 1384.24 L404.314 1384.24 L401.231 1384.24 L398.148 1384.24  Z" fill="#add8e6" fill-rule="evenodd" fill-opacity="1"/>
<polyline clip-path="url(#clip232)" style="stroke:#009af9; stroke-linecap:round; stroke-linejoin:round; stroke-width:4; stroke-opacity:1; fill:none" points="398.148,735.212 401.231,739.41 404.314,743.554 407.397,747.646 410.481,751.685 424.734,769.713 438.988,786.741 453.242,802.851 467.496,818.116 481.75,832.599 496.004,846.359 510.258,859.45 524.512,871.919 541.644,886.143 558.776,899.599 575.908,912.347 593.04,924.441 607.525,934.193 622.01,943.54 636.495,952.507 650.98,961.116 666.715,970.087 682.449,978.686 698.184,986.935 713.919,994.855 742.931,1008.66 771.943,1021.52 803.046,1034.36 834.15,1046.33 870.187,1059.2 906.224,1071.14 938.25,1081.03 970.275,1090.31 998.358,1098 1026.44,1105.3 1057.06,1112.84 1087.68,1119.98 1118.48,1126.8 1149.28,1133.28 1217.39,1146.5 1282.19,1157.84 1349.57,1168.55 1406.29,1176.81 1475.54,1186.07 1538.97,1193.85 1597.56,1200.52 1656.91,1206.82 1723.42,1213.38 1783.69,1218.92 1852.69,1224.83 1916.59,1229.95 1979.58,1234.67 2040.74,1239 2103.43,1243.18 2172.12,1247.49 2271.91,1253.3 2292.38,1254.43 "/>
<polyline clip-path="url(#clip232)" style="stroke:#e26f46; stroke-linecap:round; stroke-linejoin:round; stroke-width:12; stroke-opacity:1; fill:none" points="279.759,86.1857 281.397,103.899 283.035,121.135 284.672,137.914 286.31,154.253 287.948,170.168 289.586,185.678 291.224,200.795 292.862,215.537 296.648,248.246 300.434,279.175 304.221,308.464 308.007,336.241 311.793,362.619 315.579,387.702 319.365,411.583 323.152,434.346 326.938,456.068 330.724,476.819 334.51,496.662 338.296,515.656 345.869,551.306 353.441,584.144 361.014,614.491 368.586,642.62 376.158,668.766 383.731,693.131 391.303,715.891 398.876,737.2 406.448,757.192 414.02,775.986 423.122,797.135 432.223,816.864 441.325,835.309 450.426,852.593 459.527,868.822 468.629,884.089 477.73,898.478 486.832,912.062 502.222,933.382 517.612,952.859 533.002,970.724 548.392,987.167 565.111,1003.61 581.829,1018.74 598.547,1032.72 615.265,1045.67 646.09,1067.2 676.915,1086.16 709.963,1104.11 743.011,1120.03 781.3,1136.35 819.59,1150.77 853.617,1162.24 887.643,1172.64 917.482,1180.99 947.321,1188.71 1012.38,1203.66 1077.84,1216.56 1150.2,1228.83 1219.05,1238.94 1290.64,1248.15 1350.91,1255.05 1424.48,1262.57 1491.88,1268.74 1554.13,1273.9 1617.19,1278.68 1687.86,1283.57 1751.9,1287.62 1825.21,1291.88 1893.1,1295.5 1960.03,1298.8 2025.01,1301.78 2091.62,1304.62 2164.61,1307.52 2270.63,1311.38 2292.38,1312.12 "/>
<path clip-path="url(#clip230)" d="M1919.14 248.629 L2281.64 248.629 L2281.64 93.1086 L1919.14 93.1086  Z" fill="#ffffff" fill-rule="evenodd" fill-opacity="1"/>
<polyline clip-path="url(#clip230)" style="stroke:#000000; stroke-linecap:round; stroke-linejoin:round; stroke-width:4; stroke-opacity:1; fill:none" points="1919.14,248.629 2281.64,248.629 2281.64,93.1086 1919.14,93.1086 1919.14,248.629 "/>
<path clip-path="url(#clip230)" d="M1942.84 165.685 L2085.07 165.685 L2085.07 124.213 L1942.84 124.213 L1942.84 165.685  Z" fill="#add8e6" fill-rule="evenodd" fill-opacity="1"/>
<polyline clip-path="url(#clip230)" style="stroke:#009af9; stroke-linecap:round; stroke-linejoin:round; stroke-width:4; stroke-opacity:1; fill:none" points="1942.84,124.213 2085.07,124.213 "/>
<path clip-path="url(#clip230)" d="M2114.4 158.293 L2130.72 158.293 L2130.72 162.229 L2108.77 162.229 L2108.77 158.293 Q2111.44 155.539 2116.02 150.909 Q2120.63 146.256 2121.81 144.914 Q2124.05 142.391 2124.93 140.655 Q2125.83 138.895 2125.83 137.206 Q2125.83 134.451 2123.89 132.715 Q2121.97 130.979 2118.87 130.979 Q2116.67 130.979 2114.21 131.743 Q2111.78 132.507 2109 134.057 L2109 129.335 Q2111.83 128.201 2114.28 127.622 Q2116.74 127.044 2118.77 127.044 Q2124.14 127.044 2127.34 129.729 Q2130.53 132.414 2130.53 136.905 Q2130.53 139.034 2129.72 140.956 Q2128.94 142.854 2126.83 145.446 Q2126.25 146.118 2123.15 149.335 Q2120.05 152.53 2114.4 158.293 Z" fill="#000000" fill-rule="nonzero" fill-opacity="1" /><path clip-path="url(#clip230)" d="M2147.5 127.669 L2151.44 127.669 L2139.4 166.627 L2135.46 166.627 L2147.5 127.669 Z" fill="#000000" fill-rule="nonzero" fill-opacity="1" /><path clip-path="url(#clip230)" d="M2177.45 136.303 L2168.08 148.919 L2177.94 162.229 L2172.92 162.229 L2165.37 152.043 L2157.82 162.229 L2152.8 162.229 L2162.87 148.664 L2153.66 136.303 L2158.68 136.303 L2165.56 145.539 L2172.43 136.303 L2177.45 136.303 Z" fill="#000000" fill-rule="nonzero" fill-opacity="1" /><polyline clip-path="url(#clip230)" style="stroke:#e26f46; stroke-linecap:round; stroke-linejoin:round; stroke-width:12; stroke-opacity:1; fill:none" points="1942.84,196.789 2085.07,196.789 "/>
<path clip-path="url(#clip230)" d="M2109.44 210.133 L2117.08 210.133 L2117.08 183.768 L2108.77 185.435 L2108.77 181.175 L2117.04 179.509 L2121.71 179.509 L2121.71 210.133 L2129.35 210.133 L2129.35 214.069 L2109.44 214.069 L2109.44 210.133 Z" fill="#000000" fill-rule="nonzero" fill-opacity="1" /><path clip-path="url(#clip230)" d="M2145.76 179.509 L2149.7 179.509 L2137.66 218.467 L2133.73 218.467 L2145.76 179.509 Z" fill="#000000" fill-rule="nonzero" fill-opacity="1" /><path clip-path="url(#clip230)" d="M2164.4 178.097 Q2161.3 183.421 2159.79 188.629 Q2158.29 193.837 2158.29 199.184 Q2158.29 204.532 2159.79 209.786 Q2161.32 215.018 2164.4 220.319 L2160.69 220.319 Q2157.22 214.879 2155.49 209.624 Q2153.77 204.37 2153.77 199.184 Q2153.77 194.022 2155.49 188.791 Q2157.2 183.56 2160.69 178.097 L2164.4 178.097 Z" fill="#000000" fill-rule="nonzero" fill-opacity="1" /><path clip-path="url(#clip230)" d="M2194.21 188.143 L2184.84 200.759 L2194.7 214.069 L2189.68 214.069 L2182.13 203.883 L2174.58 214.069 L2169.56 214.069 L2179.63 200.504 L2170.42 188.143 L2175.44 188.143 L2182.31 197.379 L2189.19 188.143 L2194.21 188.143 Z" fill="#000000" fill-rule="nonzero" fill-opacity="1" /><path clip-path="url(#clip230)" d="M2198.56 199.184 L2211.04 199.184 L2211.04 202.981 L2198.56 202.981 L2198.56 199.184 Z" fill="#000000" fill-rule="nonzero" fill-opacity="1" /><path clip-path="url(#clip230)" d="M2219.24 210.133 L2226.87 210.133 L2226.87 183.768 L2218.56 185.435 L2218.56 181.175 L2226.83 179.509 L2231.5 179.509 L2231.5 210.133 L2239.14 210.133 L2239.14 214.069 L2219.24 214.069 L2219.24 210.133 Z" fill="#000000" fill-rule="nonzero" fill-opacity="1" /><path clip-path="url(#clip230)" d="M2247.31 178.097 L2251.02 178.097 Q2254.49 183.56 2256.2 188.791 Q2257.94 194.022 2257.94 199.184 Q2257.94 204.37 2256.2 209.624 Q2254.49 214.879 2251.02 220.319 L2247.31 220.319 Q2250.39 215.018 2251.9 209.786 Q2253.43 204.532 2253.43 199.184 Q2253.43 193.837 2251.9 188.629 Q2250.39 183.421 2247.31 178.097 Z" fill="#000000" fill-rule="nonzero" fill-opacity="1" /></svg>