<?xml version="1.0" encoding="utf-8"?>
<svg xmlns="http://www.w3.org/2000/svg" xmlns:xlink="http://www.w3.org/1999/xlink" width="600" height="400" viewBox="0 0 2400 1600">
<defs>
  <clipPath id="clip010">
    <rect x="0" y="0" width="2400" height="1600"/>
  </clipPath>
</defs>
<path clip-path="url(#clip010)" d="M0 1600 L2400 1600 L2400 0 L0 0  Z" fill="#ffffff" fill-rule="evenodd" fill-opacity="1"/>
<defs>
  <clipPath id="clip011">
    <rect x="480" y="0" width="1681" height="1600"/>
  </clipPath>
</defs>
<path clip-path="url(#clip010)" d="M193.936 1423.18 L2352.76 1423.18 L2352.76 47.2441 L193.936 47.2441  Z" fill="#ffffff" fill-rule="evenodd" fill-opacity="1"/>
<defs>
  <clipPath id="clip012">
    <rect x="193" y="47" width="2160" height="1377"/>
  </clipPath>
</defs>
<polyline clip-path="url(#clip012)" style="stroke:#000000; stroke-linecap:round; stroke-linejoin:round; stroke-width:2; stroke-opacity:0.1; fill:none" points="193.936,1423.18 193.936,47.2441 "/>
<polyline clip-path="url(#clip012)" style="stroke:#000000; stroke-linecap:round; stroke-linejoin:round; stroke-width:2; stroke-opacity:0.1; fill:none" points="881.11,1423.18 881.11,47.2441 "/>
<polyline clip-path="url(#clip012)" style="stroke:#000000; stroke-linecap:round; stroke-linejoin:round; stroke-width:2; stroke-opacity:0.1; fill:none" points="1568.28,1423.18 1568.28,47.2441 "/>
<polyline clip-path="url(#clip012)" style="stroke:#000000; stroke-linecap:round; stroke-linejoin:round; stroke-width:2; stroke-opacity:0.1; fill:none" points="2255.46,1423.18 2255.46,47.2441 "/>
<polyline clip-path="url(#clip010)" style="stroke:#000000; stroke-linecap:round; stroke-linejoin:round; stroke-width:4; stroke-opacity:1; fill:none" points="193.936,1423.18 2352.76,1423.18 "/>
<polyline clip-path="url(#clip010)" style="stroke:#000000; stroke-linecap:round; stroke-linejoin:round; stroke-width:4; stroke-opacity:1; fill:none" points="193.936,1423.18 193.936,1404.28 "/>
<polyline clip-path="url(#clip010)" style="stroke:#000000; stroke-linecap:round; stroke-linejoin:round; stroke-width:4; stroke-opacity:1; fill:none" points="881.11,1423.18 881.11,1404.28 "/>
<polyline clip-path="url(#clip010)" style="stroke:#000000; stroke-linecap:round; stroke-linejoin:round; stroke-width:4; stroke-opacity:1; fill:none" points="1568.28,1423.18 1568.28,1404.28 "/>
<polyline clip-path="url(#clip010)" style="stroke:#000000; stroke-linecap:round; stroke-linejoin:round; stroke-width:4; stroke-opacity:1; fill:none" points="2255.46,1423.18 2255.46,1404.28 "/>
<path clip-path="url(#clip010)" d="M193.936 1454.1 Q190.325 1454.1 188.496 1457.66 Q186.691 1461.2 186.691 1468.33 Q186.691 1475.44 188.496 1479.01 Q190.325 1482.55 193.936 1482.55 Q197.57 1482.55 199.376 1479.01 Q201.204 1475.44 201.204 1468.33 Q201.204 1461.2 199.376 1457.66 Q197.57 1454.1 193.936 1454.1 M193.936 1450.39 Q199.746 1450.39 202.802 1455 Q205.88 1459.58 205.88 1468.33 Q205.88 1477.06 202.802 1481.67 Q199.746 1486.25 193.936 1486.25 Q188.126 1486.25 185.047 1481.67 Q181.992 1477.06 181.992 1468.33 Q181.992 1459.58 185.047 1455 Q188.126 1450.39 193.936 1450.39 Z" fill="#000000" fill-rule="nonzero" fill-opacity="1" /><path clip-path="url(#clip010)" d="M855.797 1481.64 L863.436 1481.64 L863.436 1455.28 L855.126 1456.95 L855.126 1452.69 L863.39 1451.02 L868.066 1451.02 L868.066 1481.64 L875.705 1481.64 L875.705 1485.58 L855.797 1485.58 L855.797 1481.64 Z" fill="#000000" fill-rule="nonzero" fill-opacity="1" /><path clip-path="url(#clip010)" d="M895.149 1454.1 Q891.538 1454.1 889.709 1457.66 Q887.904 1461.2 887.904 1468.33 Q887.904 1475.44 889.709 1479.01 Q891.538 1482.55 895.149 1482.55 Q898.783 1482.55 900.589 1479.01 Q902.417 1475.44 902.417 1468.33 Q902.417 1461.2 900.589 1457.66 Q898.783 1454.1 895.149 1454.1 M895.149 1450.39 Q900.959 1450.39 904.015 1455 Q907.093 1459.58 907.093 1468.33 Q907.093 1477.06 904.015 1481.67 Q900.959 1486.25 895.149 1486.25 Q889.339 1486.25 886.26 1481.67 Q883.205 1477.06 883.205 1468.33 Q883.205 1459.58 886.26 1455 Q889.339 1450.39 895.149 1450.39 Z" fill="#000000" fill-rule="nonzero" fill-opacity="1" /><path clip-path="url(#clip010)" d="M1547.06 1481.64 L1563.38 1481.64 L1563.38 1485.58 L1541.43 1485.58 L1541.43 1481.64 Q1544.09 1478.89 1548.68 1474.26 Q1553.28 1469.61 1554.46 1468.27 Q1556.71 1465.74 1557.59 1464.01 Q1558.49 1462.25 1558.49 1460.56 Q1558.49 1457.8 1556.55 1456.07 Q1554.63 1454.33 1551.52 1454.33 Q1549.33 1454.33 1546.87 1455.09 Q1544.44 1455.86 1541.66 1457.41 L1541.66 1452.69 Q1544.49 1451.55 1546.94 1450.97 Q1549.39 1450.39 1551.43 1450.39 Q1556.8 1450.39 1560 1453.08 Q1563.19 1455.77 1563.19 1460.26 Q1563.19 1462.39 1562.38 1464.31 Q1561.59 1466.2 1559.49 1468.8 Q1558.91 1469.47 1555.81 1472.69 Q1552.7 1475.88 1547.06 1481.64 Z" fill="#000000" fill-rule="nonzero" fill-opacity="1" /><path clip-path="url(#clip010)" d="M1583.19 1454.1 Q1579.58 1454.1 1577.75 1457.66 Q1575.95 1461.2 1575.95 1468.33 Q1575.95 1475.44 1577.75 1479.01 Q1579.58 1482.55 1583.19 1482.55 Q1586.83 1482.55 1588.63 1479.01 Q1590.46 1475.44 1590.46 1468.33 Q1590.46 1461.2 1588.63 1457.66 Q1586.83 1454.1 1583.19 1454.1 M1583.19 1450.39 Q1589 1450.39 1592.06 1455 Q1595.14 1459.58 1595.14 1468.33 Q1595.14 1477.06 1592.06 1481.67 Q1589 1486.25 1583.19 1486.25 Q1577.38 1486.25 1574.3 1481.67 Q1571.25 1477.06 1571.25 1468.33 Q1571.25 1459.58 1574.3 1455 Q1577.38 1450.39 1583.19 1450.39 Z" fill="#000000" fill-rule="nonzero" fill-opacity="1" /><path clip-path="url(#clip010)" d="M2244.3 1466.95 Q2247.66 1467.66 2249.53 1469.93 Q2251.43 1472.2 2251.43 1475.53 Q2251.43 1480.65 2247.91 1483.45 Q2244.39 1486.25 2237.91 1486.25 Q2235.74 1486.25 2233.42 1485.81 Q2231.13 1485.39 2228.67 1484.54 L2228.67 1480.02 Q2230.62 1481.16 2232.93 1481.74 Q2235.25 1482.32 2237.77 1482.32 Q2242.17 1482.32 2244.46 1480.58 Q2246.78 1478.84 2246.78 1475.53 Q2246.78 1472.48 2244.62 1470.77 Q2242.49 1469.03 2238.67 1469.03 L2234.65 1469.03 L2234.65 1465.19 L2238.86 1465.19 Q2242.31 1465.19 2244.14 1463.82 Q2245.97 1462.43 2245.97 1459.84 Q2245.97 1457.18 2244.07 1455.77 Q2242.19 1454.33 2238.67 1454.33 Q2236.75 1454.33 2234.55 1454.75 Q2232.36 1455.16 2229.72 1456.04 L2229.72 1451.88 Q2232.38 1451.14 2234.69 1450.77 Q2237.03 1450.39 2239.09 1450.39 Q2244.42 1450.39 2247.52 1452.83 Q2250.62 1455.23 2250.62 1459.35 Q2250.62 1462.22 2248.98 1464.21 Q2247.33 1466.18 2244.3 1466.95 Z" fill="#000000" fill-rule="nonzero" fill-opacity="1" /><path clip-path="url(#clip010)" d="M2270.3 1454.1 Q2266.68 1454.1 2264.86 1457.66 Q2263.05 1461.2 2263.05 1468.33 Q2263.05 1475.44 2264.86 1479.01 Q2266.68 1482.55 2270.3 1482.55 Q2273.93 1482.55 2275.73 1479.01 Q2277.56 1475.44 2277.56 1468.33 Q2277.56 1461.2 2275.73 1457.66 Q2273.93 1454.1 2270.3 1454.1 M2270.3 1450.39 Q2276.11 1450.39 2279.16 1455 Q2282.24 1459.58 2282.24 1468.33 Q2282.24 1477.06 2279.16 1481.67 Q2276.11 1486.25 2270.3 1486.25 Q2264.48 1486.25 2261.41 1481.67 Q2258.35 1477.06 2258.35 1468.33 Q2258.35 1459.58 2261.41 1455 Q2264.48 1450.39 2270.3 1450.39 Z" fill="#000000" fill-rule="nonzero" fill-opacity="1" /><path clip-path="url(#clip010)" d="M1272.41 1522.27 L1272.41 1532.4 L1284.47 1532.4 L1284.47 1536.95 L1272.41 1536.95 L1272.41 1556.3 Q1272.41 1560.66 1273.58 1561.9 Q1274.79 1563.14 1278.45 1563.14 L1284.47 1563.14 L1284.47 1568.04 L1278.45 1568.04 Q1271.67 1568.04 1269.1 1565.53 Q1266.52 1562.98 1266.52 1556.3 L1266.52 1536.95 L1262.22 1536.95 L1262.22 1532.4 L1266.52 1532.4 L1266.52 1522.27 L1272.41 1522.27 Z" fill="#000000" fill-rule="nonzero" fill-opacity="1" /><polyline clip-path="url(#clip012)" style="stroke:#000000; stroke-linecap:round; stroke-linejoin:round; stroke-width:2; stroke-opacity:0.1; fill:none" points="193.936,1354.38 2352.76,1354.38 "/>
<polyline clip-path="url(#clip012)" style="stroke:#000000; stroke-linecap:round; stroke-linejoin:round; stroke-width:2; stroke-opacity:0.1; fill:none" points="193.936,1147.94 2352.76,1147.94 "/>
<polyline clip-path="url(#clip012)" style="stroke:#000000; stroke-linecap:round; stroke-linejoin:round; stroke-width:2; stroke-opacity:0.1; fill:none" points="193.936,941.496 2352.76,941.496 "/>
<polyline clip-path="url(#clip012)" style="stroke:#000000; stroke-linecap:round; stroke-linejoin:round; stroke-width:2; stroke-opacity:0.1; fill:none" points="193.936,735.056 2352.76,735.056 "/>
<polyline clip-path="url(#clip012)" style="stroke:#000000; stroke-linecap:round; stroke-linejoin:round; stroke-width:2; stroke-opacity:0.1; fill:none" points="193.936,528.615 2352.76,528.615 "/>
<polyline clip-path="url(#clip012)" style="stroke:#000000; stroke-linecap:round; stroke-linejoin:round; stroke-width:2; stroke-opacity:0.1; fill:none" points="193.936,322.174 2352.76,322.174 "/>
<polyline clip-path="url(#clip012)" style="stroke:#000000; stroke-linecap:round; stroke-linejoin:round; stroke-width:2; stroke-opacity:0.1; fill:none" points="193.936,115.734 2352.76,115.734 "/>
<polyline clip-path="url(#clip010)" style="stroke:#000000; stroke-linecap:round; stroke-linejoin:round; stroke-width:4; stroke-opacity:1; fill:none" points="193.936,1423.18 193.936,47.2441 "/>
<polyline clip-path="url(#clip010)" style="stroke:#000000; stroke-linecap:round; stroke-linejoin:round; stroke-width:4; stroke-opacity:1; fill:none" points="193.936,1354.38 212.834,1354.38 "/>
<polyline clip-path="url(#clip010)" style="stroke:#000000; stroke-linecap:round; stroke-linejoin:round; stroke-width:4; stroke-opacity:1; fill:none" points="193.936,1147.94 212.834,1147.94 "/>
<polyline clip-path="url(#clip010)" style="stroke:#000000; stroke-linecap:round; stroke-linejoin:round; stroke-width:4; stroke-opacity:1; fill:none" points="193.936,941.496 212.834,941.496 "/>
<polyline clip-path="url(#clip010)" style="stroke:#000000; stroke-linecap:round; stroke-linejoin:round; stroke-width:4; stroke-opacity:1; fill:none" points="193.936,735.056 212.834,735.056 "/>
<polyline clip-path="url(#clip010)" style="stroke:#000000; stroke-linecap:round; stroke-linejoin:round; stroke-width:4; stroke-opacity:1; fill:none" points="193.936,528.615 212.834,528.615 "/>
<polyline clip-path="url(#clip010)" style="stroke:#000000; stroke-linecap:round; stroke-linejoin:round; stroke-width:4; stroke-opacity:1; fill:none" points="193.936,322.174 212.834,322.174 "/>
<polyline clip-path="url(#clip010)" style="stroke:#000000; stroke-linecap:round; stroke-linejoin:round; stroke-width:4; stroke-opacity:1; fill:none" points="193.936,115.734 212.834,115.734 "/>
<path clip-path="url(#clip010)" d="M51.9875 1354.83 L81.6633 1354.83 L81.6633 1358.76 L51.9875 1358.76 L51.9875 1354.83 Z" fill="#000000" fill-rule="nonzero" fill-opacity="1" /><path clip-path="url(#clip010)" d="M92.566 1367.72 L100.205 1367.72 L100.205 1341.36 L91.8947 1343.02 L91.8947 1338.76 L100.159 1337.1 L104.834 1337.1 L104.834 1367.72 L112.473 1367.72 L112.473 1371.66 L92.566 1371.66 L92.566 1367.72 Z" fill="#000000" fill-rule="nonzero" fill-opacity="1" /><path clip-path="url(#clip010)" d="M121.918 1365.78 L126.802 1365.78 L126.802 1371.66 L121.918 1371.66 L121.918 1365.78 Z" fill="#000000" fill-rule="nonzero" fill-opacity="1" /><path clip-path="url(#clip010)" d="M137.033 1337.1 L155.39 1337.1 L155.39 1341.03 L141.316 1341.03 L141.316 1349.5 Q142.334 1349.16 143.353 1349 Q144.371 1348.81 145.39 1348.81 Q151.177 1348.81 154.556 1351.98 Q157.936 1355.15 157.936 1360.57 Q157.936 1366.15 154.464 1369.25 Q150.992 1372.33 144.672 1372.33 Q142.496 1372.33 140.228 1371.96 Q137.982 1371.59 135.575 1370.85 L135.575 1366.15 Q137.658 1367.28 139.881 1367.84 Q142.103 1368.39 144.58 1368.39 Q148.584 1368.39 150.922 1366.29 Q153.26 1364.18 153.26 1360.57 Q153.26 1356.96 150.922 1354.85 Q148.584 1352.75 144.58 1352.75 Q142.705 1352.75 140.83 1353.16 Q138.978 1353.58 137.033 1354.46 L137.033 1337.1 Z" fill="#000000" fill-rule="nonzero" fill-opacity="1" /><path clip-path="url(#clip010)" d="M50.9921 1148.39 L80.6679 1148.39 L80.6679 1152.32 L50.9921 1152.32 L50.9921 1148.39 Z" fill="#000000" fill-rule="nonzero" fill-opacity="1" /><path clip-path="url(#clip010)" d="M91.5706 1161.28 L99.2095 1161.28 L99.2095 1134.92 L90.8993 1136.58 L90.8993 1132.32 L99.1632 1130.66 L103.839 1130.66 L103.839 1161.28 L111.478 1161.28 L111.478 1165.22 L91.5706 1165.22 L91.5706 1161.28 Z" fill="#000000" fill-rule="nonzero" fill-opacity="1" /><path clip-path="url(#clip010)" d="M120.922 1159.34 L125.807 1159.34 L125.807 1165.22 L120.922 1165.22 L120.922 1159.34 Z" fill="#000000" fill-rule="nonzero" fill-opacity="1" /><path clip-path="url(#clip010)" d="M145.992 1133.74 Q142.381 1133.74 140.552 1137.3 Q138.746 1140.84 138.746 1147.97 Q138.746 1155.08 140.552 1158.64 Q142.381 1162.18 145.992 1162.18 Q149.626 1162.18 151.431 1158.64 Q153.26 1155.08 153.26 1147.97 Q153.26 1140.84 151.431 1137.3 Q149.626 1133.74 145.992 1133.74 M145.992 1130.03 Q151.802 1130.03 154.857 1134.64 Q157.936 1139.22 157.936 1147.97 Q157.936 1156.7 154.857 1161.3 Q151.802 1165.89 145.992 1165.89 Q140.181 1165.89 137.103 1161.3 Q134.047 1156.7 134.047 1147.97 Q134.047 1139.22 137.103 1134.64 Q140.181 1130.03 145.992 1130.03 Z" fill="#000000" fill-rule="nonzero" fill-opacity="1" /><path clip-path="url(#clip010)" d="M51.9875 941.948 L81.6633 941.948 L81.6633 945.883 L51.9875 945.883 L51.9875 941.948 Z" fill="#000000" fill-rule="nonzero" fill-opacity="1" /><path clip-path="url(#clip010)" d="M101.756 927.295 Q98.1447 927.295 96.316 930.86 Q94.5104 934.401 94.5104 941.531 Q94.5104 948.637 96.316 952.202 Q98.1447 955.744 101.756 955.744 Q105.39 955.744 107.196 952.202 Q109.024 948.637 109.024 941.531 Q109.024 934.401 107.196 930.86 Q105.39 927.295 101.756 927.295 M101.756 923.591 Q107.566 923.591 110.621 928.198 Q113.7 932.781 113.7 941.531 Q113.7 950.258 110.621 954.864 Q107.566 959.448 101.756 959.448 Q95.9456 959.448 92.8669 954.864 Q89.8114 950.258 89.8114 941.531 Q89.8114 932.781 92.8669 928.198 Q95.9456 923.591 101.756 923.591 Z" fill="#000000" fill-rule="nonzero" fill-opacity="1" /><path clip-path="url(#clip010)" d="M121.918 952.897 L126.802 952.897 L126.802 958.776 L121.918 958.776 L121.918 952.897 Z" fill="#000000" fill-rule="nonzero" fill-opacity="1" /><path clip-path="url(#clip010)" d="M137.033 924.216 L155.39 924.216 L155.39 928.151 L141.316 928.151 L141.316 936.624 Q142.334 936.276 143.353 936.114 Q144.371 935.929 145.39 935.929 Q151.177 935.929 154.556 939.1 Q157.936 942.272 157.936 947.688 Q157.936 953.267 154.464 956.369 Q150.992 959.448 144.672 959.448 Q142.496 959.448 140.228 959.077 Q137.982 958.707 135.575 957.966 L135.575 953.267 Q137.658 954.401 139.881 954.957 Q142.103 955.512 144.58 955.512 Q148.584 955.512 150.922 953.406 Q153.26 951.299 153.26 947.688 Q153.26 944.077 150.922 941.971 Q148.584 939.864 144.58 939.864 Q142.705 939.864 140.83 940.281 Q138.978 940.698 137.033 941.577 L137.033 924.216 Z" fill="#000000" fill-rule="nonzero" fill-opacity="1" /><path clip-path="url(#clip010)" d="M100.76 720.854 Q97.1493 720.854 95.3206 724.419 Q93.515 727.961 93.515 735.09 Q93.515 742.197 95.3206 745.762 Q97.1493 749.303 100.76 749.303 Q104.395 749.303 106.2 745.762 Q108.029 742.197 108.029 735.09 Q108.029 727.961 106.2 724.419 Q104.395 720.854 100.76 720.854 M100.76 717.151 Q106.571 717.151 109.626 721.757 Q112.705 726.34 112.705 735.09 Q112.705 743.817 109.626 748.424 Q106.571 753.007 100.76 753.007 Q94.9502 753.007 91.8715 748.424 Q88.816 743.817 88.816 735.09 Q88.816 726.34 91.8715 721.757 Q94.9502 717.151 100.76 717.151 Z" fill="#000000" fill-rule="nonzero" fill-opacity="1" /><path clip-path="url(#clip010)" d="M120.922 746.456 L125.807 746.456 L125.807 752.336 L120.922 752.336 L120.922 746.456 Z" fill="#000000" fill-rule="nonzero" fill-opacity="1" /><path clip-path="url(#clip010)" d="M145.992 720.854 Q142.381 720.854 140.552 724.419 Q138.746 727.961 138.746 735.09 Q138.746 742.197 140.552 745.762 Q142.381 749.303 145.992 749.303 Q149.626 749.303 151.431 745.762 Q153.26 742.197 153.26 735.09 Q153.26 727.961 151.431 724.419 Q149.626 720.854 145.992 720.854 M145.992 717.151 Q151.802 717.151 154.857 721.757 Q157.936 726.34 157.936 735.09 Q157.936 743.817 154.857 748.424 Q151.802 753.007 145.992 753.007 Q140.181 753.007 137.103 748.424 Q134.047 743.817 134.047 735.09 Q134.047 726.34 137.103 721.757 Q140.181 717.151 145.992 717.151 Z" fill="#000000" fill-rule="nonzero" fill-opacity="1" /><path clip-path="url(#clip010)" d="M101.756 514.414 Q98.1447 514.414 96.316 517.978 Q94.5104 521.52 94.5104 528.65 Q94.5104 535.756 96.316 539.321 Q98.1447 542.863 101.756 542.863 Q105.39 542.863 107.196 539.321 Q109.024 535.756 109.024 528.65 Q109.024 521.52 107.196 517.978 Q105.39 514.414 101.756 514.414 M101.756 510.71 Q107.566 510.71 110.621 515.316 Q113.7 519.9 113.7 528.65 Q113.7 537.376 110.621 541.983 Q107.566 546.566 101.756 546.566 Q95.9456 546.566 92.8669 541.983 Q89.8114 537.376 89.8114 528.65 Q89.8114 519.9 92.8669 515.316 Q95.9456 510.71 101.756 510.71 Z" fill="#000000" fill-rule="nonzero" fill-opacity="1" /><path clip-path="url(#clip010)" d="M121.918 540.015 L126.802 540.015 L126.802 545.895 L121.918 545.895 L121.918 540.015 Z" fill="#000000" fill-rule="nonzero" fill-opacity="1" /><path clip-path="url(#clip010)" d="M137.033 511.335 L155.39 511.335 L155.39 515.27 L141.316 515.27 L141.316 523.742 Q142.334 523.395 143.353 523.233 Q144.371 523.048 145.39 523.048 Q151.177 523.048 154.556 526.219 Q157.936 529.39 157.936 534.807 Q157.936 540.386 154.464 543.488 Q150.992 546.566 144.672 546.566 Q142.496 546.566 140.228 546.196 Q137.982 545.825 135.575 545.085 L135.575 540.386 Q137.658 541.52 139.881 542.075 Q142.103 542.631 144.58 542.631 Q148.584 542.631 150.922 540.525 Q153.26 538.418 153.26 534.807 Q153.26 531.196 150.922 529.089 Q148.584 526.983 144.58 526.983 Q142.705 526.983 140.83 527.4 Q138.978 527.816 137.033 528.696 L137.033 511.335 Z" fill="#000000" fill-rule="nonzero" fill-opacity="1" /><path clip-path="url(#clip010)" d="M91.5706 335.519 L99.2095 335.519 L99.2095 309.153 L90.8993 310.82 L90.8993 306.561 L99.1632 304.894 L103.839 304.894 L103.839 335.519 L111.478 335.519 L111.478 339.454 L91.5706 339.454 L91.5706 335.519 Z" fill="#000000" fill-rule="nonzero" fill-opacity="1" /><path clip-path="url(#clip010)" d="M120.922 333.575 L125.807 333.575 L125.807 339.454 L120.922 339.454 L120.922 333.575 Z" fill="#000000" fill-rule="nonzero" fill-opacity="1" /><path clip-path="url(#clip010)" d="M145.992 307.973 Q142.381 307.973 140.552 311.538 Q138.746 315.079 138.746 322.209 Q138.746 329.315 140.552 332.88 Q142.381 336.422 145.992 336.422 Q149.626 336.422 151.431 332.88 Q153.26 329.315 153.26 322.209 Q153.26 315.079 151.431 311.538 Q149.626 307.973 145.992 307.973 M145.992 304.269 Q151.802 304.269 154.857 308.876 Q157.936 313.459 157.936 322.209 Q157.936 330.936 154.857 335.542 Q151.802 340.126 145.992 340.126 Q140.181 340.126 137.103 335.542 Q134.047 330.936 134.047 322.209 Q134.047 313.459 137.103 308.876 Q140.181 304.269 145.992 304.269 Z" fill="#000000" fill-rule="nonzero" fill-opacity="1" /><path clip-path="url(#clip010)" d="M92.566 129.078 L100.205 129.078 L100.205 102.713 L91.8947 104.379 L91.8947 100.12 L100.159 98.4536 L104.834 98.4536 L104.834 129.078 L112.473 129.078 L112.473 133.014 L92.566 133.014 L92.566 129.078 Z" fill="#000000" fill-rule="nonzero" fill-opacity="1" /><path clip-path="url(#clip010)" d="M121.918 127.134 L126.802 127.134 L126.802 133.014 L121.918 133.014 L121.918 127.134 Z" fill="#000000" fill-rule="nonzero" fill-opacity="1" /><path clip-path="url(#clip010)" d="M137.033 98.4536 L155.39 98.4536 L155.39 102.389 L141.316 102.389 L141.316 110.861 Q142.334 110.514 143.353 110.352 Q144.371 110.166 145.39 110.166 Q151.177 110.166 154.556 113.338 Q157.936 116.509 157.936 121.926 Q157.936 127.504 154.464 130.606 Q150.992 133.685 144.672 133.685 Q142.496 133.685 140.228 133.314 Q137.982 132.944 135.575 132.203 L135.575 127.504 Q137.658 128.639 139.881 129.194 Q142.103 129.75 144.58 129.75 Q148.584 129.75 150.922 127.643 Q153.26 125.537 153.26 121.926 Q153.26 118.315 150.922 116.208 Q148.584 114.102 144.58 114.102 Q142.705 114.102 140.83 114.518 Q138.978 114.935 137.033 115.815 L137.033 98.4536 Z" fill="#000000" fill-rule="nonzero" fill-opacity="1" /><polyline clip-path="url(#clip012)" style="stroke:#009af9; stroke-linecap:round; stroke-linejoin:round; stroke-width:4; stroke-opacity:1; fill:none" points="193.936,86.5031 196.097,86.7072 198.258,87.3197 200.419,88.3405 202.58,89.7696 204.741,91.607 206.902,93.8526 209.063,96.5066 211.224,99.5687 213.385,103.039 215.546,106.917 217.707,111.203 219.868,115.897 222.029,120.997 224.19,126.505 226.351,132.419 228.512,138.739 230.673,145.464 232.834,152.594 234.995,160.126 237.156,168.06 239.317,176.394 241.478,185.127 243.639,194.256 245.8,203.78 247.961,213.696 250.122,224.001 252.282,234.692 254.443,245.766 256.604,257.218 258.765,269.044 260.926,281.239 263.087,293.797 265.248,306.713 267.409,319.98 269.57,333.592 271.731,347.541 273.892,361.82 276.053,376.421 278.214,391.333 280.375,406.547 282.536,422.053 284.697,437.839 286.858,453.894 289.019,470.206 291.18,486.762 293.341,503.548 295.502,520.552 297.663,537.758 299.824,555.152 301.985,572.719 304.146,590.443 306.307,608.308 308.468,626.295 310.629,644.389 312.79,662.572 314.951,680.825 317.112,699.133 319.273,717.475 321.434,735.834 323.595,754.191 325.756,772.529 327.917,790.83 330.078,809.076 332.239,827.249 334.4,845.333 336.561,863.31 338.722,881.164 340.883,898.877 343.044,916.433 345.205,933.816 347.366,951.009 349.527,967.996 351.688,984.763 353.849,1001.3 356.01,1017.59 358.171,1033.62 360.332,1049.38 362.493,1064.86 364.653,1080.05 366.814,1094.93 368.975,1109.51 371.136,1123.76 373.297,1137.68 375.458,1151.26 377.619,1164.5 379.78,1177.39 381.941,1189.92 384.102,1202.08 386.263,1213.88 388.424,1225.29 390.585,1236.33 392.746,1246.99 394.907,1257.26 397.068,1267.14 399.229,1276.64 401.39,1285.73 403.551,1294.43 405.712,1302.74 407.873,1310.64 410.034,1318.14 412.195,1325.23 414.356,1331.93 416.517,1338.21 418.678,1344.09 420.839,1349.56 423,1354.63 425.161,1359.28 427.322,1363.53 429.483,1367.37 431.644,1370.81 433.805,1373.84 435.966,1376.46 438.127,1378.67 440.288,1380.47 442.449,1381.87 444.61,1382.86 446.771,1383.44 448.932,1383.61 451.093,1383.38 453.254,1382.73 455.415,1381.68 457.576,1380.21 459.737,1378.34 461.898,1376.06 464.059,1373.37 466.22,1370.27 468.381,1366.76 470.542,1362.84 472.703,1358.52 474.864,1353.79 477.024,1348.65 479.185,1343.11 481.346,1337.16 483.507,1330.81 485.668,1324.05 487.829,1316.88 489.99,1309.32 492.151,1301.35 494.312,1292.98 496.473,1284.22 498.634,1275.06 500.795,1265.5 502.956,1255.56 505.117,1245.22 507.278,1234.49 509.439,1223.39 511.6,1211.9 513.761,1200.04 515.922,1187.81 518.083,1175.21 520.244,1162.26 522.405,1148.96 524.566,1135.32 526.727,1121.34 528.888,1107.03 531.049,1092.4 533.21,1077.47 535.371,1062.23 537.532,1046.7 539.693,1030.9 541.854,1014.82 544.015,998.494 546.176,981.92 548.337,965.115 550.498,948.093 552.659,930.869 554.82,913.46 556.981,895.883 559.142,878.154 561.303,860.29 563.464,842.308 565.625,824.225 567.786,806.057 569.947,787.822 572.108,769.536 574.269,751.215 576.43,732.878 578.591,714.54 580.752,696.219 582.913,677.931 585.074,659.694 587.235,641.524 589.396,623.439 591.556,605.455 593.717,587.589 595.878,569.859 598.039,552.281 600.2,534.873 602.361,517.651 604.522,500.633 606.683,483.836 608.844,467.276 611.005,450.972 613.166,434.941 615.327,419.197 617.488,403.743 619.649,388.584 621.81,373.729 623.971,359.187 626.132,344.967 628.293,331.078 630.454,317.526 632.615,304.319 634.776,291.465 636.937,278.968 639.098,266.837 641.259,255.074 643.42,243.687 645.581,232.679 647.742,222.055 649.903,211.818 652.064,201.972 654.225,192.518 656.386,183.461 658.547,174.8 660.708,166.539 662.869,158.677 665.03,151.217 667.191,144.158 669.352,137.502 671.513,131.25 673.674,125.402 675.835,119.96 677.996,114.924 680.157,110.294 682.318,106.072 684.479,102.258 686.64,98.8521 688.801,95.855 690.962,93.2671 693.123,91.0886 695.284,89.3197 697.445,87.9608 699.606,87.0118 701.767,86.473 703.927,86.3443 706.088,86.6256 708.249,87.3169 710.41,88.418 712.571,89.9287 714.732,91.8487 716.893,94.1778 719.054,96.9155 721.215,100.061 723.376,103.615 725.537,107.575 727.698,111.942 729.859,116.715 732.02,121.893 734.181,127.476 736.342,133.461 738.503,139.85 740.664,146.642 742.825,153.838 744.986,161.438 747.147,169.439 749.308,177.843 751.469,186.646 753.63,195.847 755.791,205.444 757.952,215.433 760.113,225.812 762.274,236.577 764.435,247.724 766.596,259.248 768.757,271.144 770.918,283.408 773.079,296.033 775.24,309.014 777.401,322.343 779.562,336.014 781.723,350.02 783.884,364.353 786.045,379.004 788.206,393.965 790.367,409.227 792.528,424.78 794.689,440.614 796.85,456.717 799.011,473.074 801.172,489.67 803.333,506.491 805.494,523.522 807.655,540.749 809.816,558.155 811.977,575.726 814.138,593.448 816.298,611.303 818.459,629.276 820.62,647.352 822.781,665.515 824.942,683.748 827.103,702.035 829.264,720.36 831.425,738.705 833.586,757.055 835.747,775.393 837.908,793.7 840.069,811.96 842.23,830.156 844.391,848.269 846.552,866.283 848.713,884.179 850.874,901.939 853.035,919.545 855.196,936.979 857.357,954.221 859.518,971.255 861.679,988.059 863.84,1004.62 866.001,1020.91 868.162,1036.91 870.323,1052.63 872.484,1068.06 874.645,1083.2 876.806,1098.03 878.967,1112.54 881.128,1126.74 883.289,1140.6 885.45,1154.13 887.611,1167.31 889.772,1180.13 891.933,1192.6 894.094,1204.7 896.255,1216.43 898.416,1227.79 900.577,1238.76 902.738,1249.36 904.899,1259.56 907.06,1269.37 909.221,1278.79 911.382,1287.81 913.543,1296.44 915.704,1304.66 917.865,1312.49 920.026,1319.91 922.187,1326.93 924.348,1333.56 926.509,1339.78 928.669,1345.59 930.83,1351 932.991,1356.01 935.152,1360.61 937.313,1364.81 939.474,1368.59 941.635,1371.97 943.796,1374.94 945.957,1377.5 948.118,1379.65 950.279,1381.39 952.44,1382.72 954.601,1383.64 956.762,1384.14 958.923,1384.24 961.084,1383.92 963.245,1383.2 965.406,1382.06 967.567,1380.51 969.728,1378.55 971.889,1376.18 974.05,1373.4 976.211,1370.22 978.372,1366.62 980.533,1362.61 982.694,1358.2 984.855,1353.38 987.016,1348.15 989.177,1342.52 991.338,1336.48 993.499,1330.04 995.66,1323.2 997.821,1315.96 999.982,1308.32 1002.14,1300.28 1004.3,1291.84 1006.46,1283 1008.63,1273.77 1010.79,1264.14 1012.95,1254.12 1015.11,1243.71 1017.27,1232.92 1019.43,1221.74 1021.59,1210.18 1023.75,1198.25 1025.91,1185.96 1028.07,1173.3 1030.24,1160.28 1032.4,1146.91 1034.56,1133.2 1036.72,1119.16 1038.88,1104.79 1041.04,1090.1 1043.2,1075.1 1045.36,1059.81 1047.52,1044.22 1049.68,1028.37 1051.85,1012.24 1054.01,995.862 1056.17,979.242 1058.33,962.394 1060.49,945.331 1062.65,928.068 1064.81,910.62 1066.97,893.006 1069.13,875.243 1071.29,857.349 1073.46,839.341 1075.62,821.236 1077.78,803.053 1079.94,784.807 1082.1,766.516 1084.26,748.196 1086.42,729.865 1088.58,711.54 1090.74,693.237 1092.9,674.972 1095.07,656.762 1097.23,638.624 1099.39,620.573 1101.55,602.627 1103.71,584.8 1105.87,567.109 1108.03,549.57 1110.19,532.199 1112.35,515.012 1114.51,498.023 1116.67,481.249 1118.84,464.706 1121,448.407 1123.16,432.369 1125.32,416.608 1127.48,401.137 1129.64,385.972 1131.8,371.127 1133.96,356.619 1136.12,342.452 1138.28,328.62 1140.45,315.129 1142.61,301.984 1144.77,289.194 1146.93,276.762 1149.09,264.696 1151.25,252.999 1153.41,241.676 1155.57,230.733 1157.73,220.173 1159.89,210 1162.06,200.217 1164.22,190.827 1166.38,181.834 1168.54,173.239 1170.7,165.044 1172.86,157.252 1175.02,149.863 1177.18,142.879 1179.34,136.299 1181.5,130.126 1183.67,124.357 1185.83,118.994 1187.99,114.035 1190.15,109.478 1192.31,105.324 1194.47,101.576 1196.63,98.2326 1198.79,95.2961 1200.95,92.7671 1203.11,90.6463 1205.28,88.9344 1207.44,87.6319 1209.6,86.7393 1211.76,86.2572 1213.92,86.1857 1216.08,86.5251 1218.24,87.2756 1220.4,88.4373 1222.56,90.0101 1224.72,91.994 1226.88,94.3887 1229.05,97.194 1231.21,100.41 1233.37,104.035 1235.53,108.069 1237.69,112.513 1239.85,117.364 1242.01,122.622 1244.17,128.287 1246.33,134.357 1248.49,140.832 1250.66,147.709 1252.82,154.989 1254.98,162.669 1257.14,170.749 1259.3,179.226 1261.46,188.1 1263.62,197.369 1265.78,207.03 1267.94,217.083 1270.1,227.525 1272.27,238.352 1274.43,249.561 1276.59,261.147 1278.75,273.106 1280.91,285.433 1283.07,298.122 1285.23,311.168 1287.39,324.564 1289.55,338.301 1291.71,352.373 1293.88,366.772 1296.04,381.487 1298.2,396.511 1300.36,411.832 1302.52,427.441 1304.68,443.326 1306.84,459.476 1309,475.878 1311.16,492.519 1313.32,509.387 1315.49,526.468 1317.65,543.747 1319.81,561.209 1321.97,578.839 1324.13,596.621 1326.29,614.538 1328.45,632.573 1330.61,650.708 1332.77,668.925 1334.93,687.206 1337.09,705.532 1339.26,723.887 1341.42,742.251 1343.58,760.605 1345.74,778.93 1347.9,797.208 1350.06,815.42 1352.22,833.548 1354.38,851.576 1356.54,869.487 1358.7,887.264 1360.87,904.892 1363.03,922.355 1365.19,939.638 1367.35,956.727 1369.51,973.608 1371.67,990.267 1373.83,1006.69 1375.99,1022.87 1378.15,1038.78 1380.31,1054.43 1382.48,1069.79 1384.64,1084.86 1386.8,1099.62 1388.96,1114.07 1391.12,1128.2 1393.28,1141.99 1395.44,1155.44 1397.6,1168.55 1399.76,1181.29 1401.92,1193.67 1404.09,1205.68 1406.25,1217.31 1408.41,1228.55 1410.57,1239.41 1412.73,1249.88 1414.89,1259.95 1417.05,1269.64 1419.21,1278.93 1421.37,1287.83 1423.53,1296.33 1425.7,1304.44 1427.86,1312.14 1430.02,1319.44 1432.18,1326.34 1434.34,1332.84 1436.5,1338.93 1438.66,1344.62 1440.82,1349.9 1442.98,1354.77 1445.14,1359.23 1447.3,1363.28 1449.47,1366.92 1451.63,1370.16 1453.79,1372.98 1455.95,1375.39 1458.11,1377.4 1460.27,1378.99 1462.43,1380.18 1464.59,1380.95 1466.75,1381.32 1468.91,1381.28 1471.08,1380.84 1473.24,1379.99 1475.4,1378.73 1477.56,1377.07 1479.72,1375.01 1481.88,1372.54 1484.04,1369.67 1486.2,1366.38 1488.36,1362.69 1490.52,1358.59 1492.69,1354.07 1494.85,1349.15 1497.01,1343.82 1499.17,1338.08 1501.33,1331.93 1503.49,1325.37 1505.65,1318.41 1507.81,1311.04 1509.97,1303.27 1512.13,1295.09 1514.3,1286.52 1516.46,1277.55 1518.62,1268.19 1520.78,1258.44 1522.94,1248.3 1525.1,1237.77 1527.26,1226.87 1529.42,1215.58 1531.58,1203.93 1533.74,1191.91 1535.91,1179.52 1538.07,1166.78 1540.23,1153.69 1542.39,1140.24 1544.55,1126.46 1546.71,1112.34 1548.87,1097.89 1551.03,1083.13 1553.19,1068.06 1555.35,1052.69 1557.51,1037.05 1559.68,1021.13 1561.84,1004.96 1564,988.54 1566.16,971.892 1568.32,955.025 1570.48,937.955 1572.64,920.694 1574.8,903.258 1576.96,885.661 1579.12,867.917 1581.29,850.043 1583.45,832.053 1585.61,813.964 1587.77,795.792 1589.93,777.553 1592.09,759.265 1594.25,740.943 1596.41,722.606 1598.57,704.271 1600.73,685.956 1602.9,667.681 1605.06,649.462 1607.22,631.319 1609.38,613.272 1611.54,595.34 1613.7,577.543 1615.86,559.901 1618.02,542.434 1620.18,525.163 1622.34,508.11 1624.51,491.294 1626.67,474.714 1628.83,458.377 1630.99,442.295 1633.15,426.478 1635.31,410.939 1637.47,395.689 1639.63,380.737 1641.79,366.093 1643.95,351.766 1646.12,337.766 1648.28,324.099 1650.44,310.775 1652.6,297.801 1654.76,285.182 1656.92,272.926 1659.08,261.038 1661.24,249.523 1663.4,238.387 1665.56,227.633 1667.72,217.265 1669.89,207.287 1672.05,197.702 1674.21,188.511 1676.37,179.716 1678.53,171.32 1680.69,163.322 1682.85,155.724 1685.01,148.52 1687.17,141.71 1689.33,135.294 1691.5,129.275 1693.66,123.655 1695.82,118.436 1697.98,113.621 1700.14,109.21 1702.3,105.205 1704.46,101.608 1706.62,98.42 1708.78,95.6424 1710.94,93.2762 1713.11,91.3224 1715.27,89.7819 1717.43,88.6553 1719.59,87.9433 1721.75,87.6464 1723.91,87.7648 1726.07,88.2988 1728.23,89.2485 1730.39,90.6139 1732.55,92.3948 1734.72,94.591 1736.88,97.2019 1739.04,100.227 1741.2,103.666 1743.36,107.518 1745.52,111.782 1747.68,116.456 1749.84,121.541 1752,127.033 1754.16,132.933 1756.33,139.239 1758.49,145.948 1760.65,153.059 1762.81,160.571 1764.97,168.48 1767.13,176.786 1769.29,185.485 1771.45,194.576 1773.61,204.055 1775.77,213.921 1777.93,224.169 1780.1,234.798 1782.26,245.805 1784.42,257.186 1786.58,268.943 1788.74,281.068 1790.9,293.558 1793.06,306.406 1795.22,319.607 1797.38,333.152 1799.54,347.035 1801.71,361.248 1803.87,375.782 1806.03,390.627 1808.19,405.775 1810.35,421.214 1812.51,436.934 1814.67,452.924 1816.83,469.171 1818.99,485.663 1821.15,502.387 1823.32,519.33 1825.48,536.476 1827.64,553.812 1829.8,571.322 1831.96,588.99 1834.12,606.799 1836.28,624.733 1838.44,642.774 1840.6,660.905 1842.76,679.109 1844.93,697.367 1847.09,715.658 1849.25,733.963 1851.41,752.265 1853.57,770.543 1855.73,788.781 1857.89,806.959 1860.05,825.062 1862.21,843.072 1864.37,860.973 1866.54,878.749 1868.7,896.383 1870.86,913.861 1873.02,931.168 1875.18,948.289 1877.34,965.21 1879.5,981.918 1881.66,998.399 1883.82,1014.64 1885.98,1030.63 1888.15,1046.35 1890.31,1061.8 1892.47,1076.96 1894.63,1091.83 1896.79,1106.38 1898.95,1120.62 1901.11,1134.52 1903.27,1148.09 1905.43,1161.31 1907.59,1174.18 1909.75,1186.69 1911.92,1198.82 1914.08,1210.57 1916.24,1221.94 1918.4,1232.92 1920.56,1243.5 1922.72,1253.69 1924.88,1263.48 1927.04,1272.89 1929.2,1281.91 1931.36,1290.53 1933.53,1298.75 1935.69,1306.57 1937.85,1314 1940.01,1321.02 1942.17,1327.63 1944.33,1333.85 1946.49,1339.66 1948.65,1345.06 1950.81,1350.05 1952.97,1354.64 1955.14,1358.82 1957.3,1362.59 1959.46,1365.95 1961.62,1368.9 1963.78,1371.44 1965.94,1373.57 1968.1,1375.29 1970.26,1376.61 1972.42,1377.51 1974.58,1378.01 1976.75,1378.1 1978.91,1377.79 1981.07,1377.07 1983.23,1375.94 1985.39,1374.42 1987.55,1372.49 1989.71,1370.15 1991.87,1367.4 1994.03,1364.25 1996.19,1360.68 1998.36,1356.7 2000.52,1352.32 2002.68,1347.52 2004.84,1342.32 2007,1336.7 2009.16,1330.68 2011.32,1324.25 2013.48,1317.41 2015.64,1310.17 2017.8,1302.52 2019.96,1294.48 2022.13,1286.03 2024.29,1277.19 2026.45,1267.96 2028.61,1258.34 2030.77,1248.32 2032.93,1237.93 2035.09,1227.15 2037.25,1216 2039.41,1204.47 2041.57,1192.58 2043.74,1180.33 2045.9,1167.71 2048.06,1154.75 2050.22,1141.43 2052.38,1127.77 2054.54,1113.78 2056.7,1099.46 2058.86,1084.82 2061.02,1069.87 2063.18,1054.63 2065.35,1039.1 2067.51,1023.3 2069.67,1007.24 2071.83,990.936 2073.99,974.398 2076.15,957.64 2078.31,940.675 2080.47,923.518 2082.63,906.182 2084.79,888.683 2086.96,871.035 2089.12,853.253 2091.28,835.353 2093.44,817.35 2095.6,799.262 2097.76,781.103 2099.92,762.892 2102.08,744.645 2104.24,726.38 2106.4,708.114 2108.57,689.865 2110.73,671.652 2112.89,653.493 2115.05,635.407 2117.21,617.414 2119.37,599.533 2121.53,581.785 2123.69,564.188 2125.85,546.765 2128.01,529.535 2130.17,512.52 2132.34,495.734 2134.5,479.174 2136.66,462.852 2138.82,446.781 2140.98,430.973 2143.14,415.439 2145.3,400.19 2147.46,385.236 2149.62,370.588 2151.78,356.255 2153.95,342.245 2156.11,328.567 2158.27,315.228 2160.43,302.237 2162.59,289.6 2164.75,277.324 2166.91,265.413 2169.07,253.875 2171.23,242.713 2173.39,231.932 2175.56,221.536 2177.72,211.528 2179.88,201.911 2182.04,192.688 2184.2,183.86 2186.36,175.429 2188.52,167.395 2190.68,159.76 2192.84,152.518 2195,145.669 2197.17,139.216 2199.33,133.16 2201.49,127.504 2203.65,122.249 2205.81,117.398 2207.97,112.951 2210.13,108.911 2212.29,105.279 2214.45,102.056 2216.61,99.2434 2218.78,96.8421 2220.94,94.8532 2223.1,93.2774 2225.26,92.1153 2227.42,91.3676 2229.58,91.0346 2231.74,91.1167 2233.9,91.614 2236.06,92.5266 2238.22,93.8545 2240.38,95.5973 2242.55,97.7548 2244.71,100.327 2246.87,103.312 2249.03,106.711 2251.19,110.521 2253.35,114.743 2255.51,119.375 2257.67,124.416 2259.83,129.865 2261.99,135.72 2264.16,141.98 2266.32,148.643 2268.48,155.707 2270.64,163.17 2272.8,171.031 2274.96,179.286 2277.12,187.934 2279.28,196.973 2281.44,206.399 2283.6,216.211 2285.77,226.405 2287.93,236.978 2290.09,247.93 2292.25,259.261 2294.41,270.964 2296.57,283.037 2298.73,295.472 2300.89,308.266 2303.05,321.41 2305.21,334.899 2307.38,348.724 2309.54,362.878 2311.7,377.352 2313.86,392.136 2316.02,407.222 2318.18,422.599 2320.34,438.255 2322.5,454.18 2324.66,470.361 2326.82,486.787 2328.99,503.443 2331.15,520.316 2333.31,537.393 2335.47,554.658 2337.63,572.096 2339.79,589.69 2341.95,607.426 2344.11,625.285 2346.27,643.252 2348.43,661.308 2350.59,679.437 2352.76,697.621 "/>
<polyline clip-path="url(#clip012)" style="stroke:#e26f46; stroke-linecap:round; stroke-linejoin:round; stroke-width:4; stroke-opacity:1; fill:none" points="193.936,735.056 196.097,748.04 198.258,761.024 200.419,774.008 202.58,786.991 204.741,799.975 206.902,812.957 209.063,825.938 211.224,838.918 213.385,851.893 215.546,864.864 217.707,877.829 219.868,890.785 222.029,903.73 224.19,916.661 226.351,929.575 228.512,942.467 230.673,955.334 232.834,968.17 234.995,980.969 237.156,993.724 239.317,1006.43 241.478,1019.08 243.639,1031.66 245.8,1044.16 247.961,1056.58 250.122,1068.9 252.282,1081.12 254.443,1093.21 256.604,1105.17 258.765,1116.99 260.926,1128.64 263.087,1140.11 265.248,1151.4 267.409,1162.47 269.57,1173.32 271.731,1183.92 273.892,1194.26 276.053,1204.33 278.214,1214.09 280.375,1223.54 282.536,1232.65 284.697,1241.4 286.858,1249.77 289.019,1257.74 291.18,1265.29 293.341,1272.41 295.502,1279.08 297.663,1285.29 299.824,1291.01 301.985,1296.23 304.146,1300.95 306.307,1305.14 308.468,1308.79 310.629,1311.9 312.79,1314.45 314.951,1316.44 317.112,1317.85 319.273,1318.69 321.434,1318.96 323.595,1318.65 325.756,1317.76 327.917,1316.31 330.078,1314.28 332.239,1311.68 334.4,1308.53 336.561,1304.83 338.722,1300.6 340.883,1295.83 343.044,1290.56 345.205,1284.78 347.366,1278.53 349.527,1271.81 351.688,1264.64 353.849,1257.05 356.01,1249.03 358.171,1240.63 360.332,1231.85 362.493,1222.72 364.653,1213.26 366.814,1203.47 368.975,1193.39 371.136,1183.03 373.297,1172.41 375.458,1161.55 377.619,1150.45 379.78,1139.15 381.941,1127.66 384.102,1115.99 386.263,1104.16 388.424,1092.19 390.585,1080.08 392.746,1067.86 394.907,1055.53 397.068,1043.1 399.229,1030.59 401.39,1018 403.551,1005.35 405.712,992.637 407.873,979.875 410.034,967.07 412.195,954.229 414.356,941.358 416.517,928.462 418.678,915.546 420.839,902.614 423,889.669 425.161,876.715 427.322,863.753 429.483,850.784 431.644,837.811 433.805,824.833 435.966,811.856 438.127,798.882 440.288,785.908 442.449,772.933 444.61,759.957 446.771,746.978 448.932,733.997 451.093,721.012 453.254,708.025 455.415,695.036 457.576,682.044 459.737,669.052 461.898,656.059 464.059,643.067 466.22,630.078 468.381,617.094 470.542,604.116 472.703,591.146 474.864,578.188 477.024,565.243 479.185,552.315 481.346,539.408 483.507,526.524 485.668,513.667 487.829,500.841 489.99,488.051 492.151,475.3 494.312,462.595 496.473,449.946 498.634,437.362 500.795,424.854 502.956,412.433 505.117,400.113 507.278,387.904 509.439,375.819 511.6,363.873 513.761,352.078 515.922,340.449 518.083,329.001 520.244,317.748 522.405,306.708 524.566,295.895 526.727,285.327 528.888,275.02 531.049,264.994 533.21,255.264 535.371,245.852 537.532,236.775 539.693,228.053 541.854,219.706 544.015,211.756 546.176,204.223 548.337,197.128 550.498,190.487 552.659,184.304 554.82,178.599 556.981,173.389 559.142,168.689 561.303,164.515 563.464,160.878 565.625,157.79 567.786,155.259 569.947,153.294 572.108,151.9 574.269,151.082 576.43,150.842 578.591,151.183 580.752,152.103 582.913,153.6 585.074,155.671 587.235,158.311 589.396,161.512 591.556,165.266 593.717,169.564 595.878,174.393 598.039,179.74 600.2,185.59 602.361,191.926 604.522,198.731 606.683,205.984 608.844,213.664 611.005,221.748 613.166,230.212 615.327,239.03 617.488,248.199 619.649,257.706 621.81,267.529 623.971,277.648 626.132,288.044 628.293,298.697 630.454,309.589 632.615,320.704 634.776,332.024 636.937,343.532 639.098,355.214 641.259,367.055 643.42,379.04 645.581,391.156 647.742,403.391 649.903,415.732 652.064,428.168 654.225,440.688 656.386,453.283 658.547,465.943 660.708,478.659 662.869,491.423 665.03,504.226 667.191,517.057 669.352,529.915 671.513,542.796 673.674,555.698 675.835,568.619 677.996,581.557 680.157,594.51 682.318,607.475 684.479,620.452 686.64,633.437 688.801,646.43 690.962,659.428 693.123,672.431 695.284,685.437 697.445,698.444 699.606,711.451 701.767,724.457 703.927,737.462 706.088,750.464 708.249,763.461 710.41,776.455 712.571,789.443 714.732,802.425 716.893,815.401 719.054,828.37 721.215,841.333 723.376,854.288 725.537,867.235 727.698,880.176 729.859,893.109 732.02,906.035 734.181,918.954 736.342,931.863 738.503,944.752 740.664,957.615 742.825,970.446 744.986,983.24 747.147,995.989 749.308,1008.69 751.469,1021.32 753.63,1033.89 755.791,1046.38 757.952,1058.78 760.113,1071.08 762.274,1083.27 764.435,1095.34 766.596,1107.27 768.757,1119.05 770.918,1130.67 773.079,1142.11 775.24,1153.36 777.401,1164.39 779.562,1175.2 781.723,1185.76 783.884,1196.06 786.045,1206.07 788.206,1215.79 790.367,1225.18 792.528,1234.22 794.689,1242.91 796.85,1251.23 799.011,1259.18 801.172,1266.72 803.333,1273.83 805.494,1280.49 807.655,1286.68 809.816,1292.38 811.977,1297.58 814.138,1302.26 816.298,1306.41 818.459,1310.01 820.62,1313.05 822.781,1315.54 824.942,1317.45 827.103,1318.78 829.264,1319.54 831.425,1319.71 833.586,1319.3 835.747,1318.3 837.908,1316.73 840.069,1314.59 842.23,1311.87 844.391,1308.6 846.552,1304.77 848.713,1300.4 850.874,1295.5 853.035,1290.08 855.196,1284.17 857.357,1277.78 859.518,1270.92 861.679,1263.62 863.84,1255.89 866.001,1247.77 868.162,1239.28 870.323,1230.43 872.484,1221.22 874.645,1211.67 876.806,1201.81 878.967,1191.65 881.128,1181.23 883.289,1170.54 885.45,1159.62 887.611,1148.48 889.772,1137.14 891.933,1125.6 894.094,1113.9 896.255,1102.04 898.416,1090.04 900.577,1077.91 902.738,1065.66 904.899,1053.31 907.06,1040.86 909.221,1028.33 911.382,1015.73 913.543,1003.06 915.704,990.337 917.865,977.566 920.026,964.754 922.187,951.913 924.348,939.053 926.509,926.176 928.669,913.282 930.83,900.372 932.991,887.446 935.152,874.507 937.313,861.555 939.474,848.59 941.635,835.615 943.796,822.629 945.957,809.635 948.118,796.634 950.279,783.625 952.44,770.612 954.601,757.594 956.762,744.574 958.923,731.552 961.084,718.53 963.245,705.509 965.406,692.49 967.567,679.475 969.728,666.465 971.889,653.462 974.05,640.468 976.211,627.482 978.372,614.508 980.533,601.547 982.694,588.599 984.855,575.668 987.016,562.754 989.177,549.859 991.338,536.985 993.499,524.133 995.66,511.306 997.821,498.504 999.982,485.731 1002.14,472.988 1004.3,460.288 1006.46,447.643 1008.63,435.064 1010.79,422.563 1012.95,410.151 1015.11,397.841 1017.27,385.646 1019.43,373.578 1021.59,361.651 1023.75,349.88 1025.91,338.278 1028.07,326.861 1030.24,315.643 1032.4,304.642 1034.56,293.871 1036.72,283.35 1038.88,273.093 1041.04,263.119 1043.2,253.445 1045.36,244.091 1047.52,235.074 1049.68,226.413 1051.85,218.128 1054.01,210.24 1056.17,202.768 1058.33,195.734 1060.49,189.158 1062.65,183.062 1064.81,177.455 1066.97,172.348 1069.13,167.755 1071.29,163.688 1073.46,160.159 1075.62,157.177 1077.78,154.75 1079.94,152.886 1082.1,151.588 1084.26,150.862 1086.42,150.71 1088.58,151.133 1090.74,152.13 1092.9,153.7 1095.07,155.839 1097.23,158.543 1099.39,161.805 1101.55,165.619 1103.71,169.974 1105.87,174.86 1108.03,180.266 1110.19,186.178 1112.35,192.582 1114.51,199.461 1116.67,206.797 1118.84,214.572 1121,222.765 1123.16,231.354 1125.32,240.316 1127.48,249.626 1129.64,259.257 1131.8,269.182 1133.96,279.372 1136.12,289.811 1138.28,300.507 1140.45,311.442 1142.61,322.598 1144.77,333.957 1146.93,345.504 1149.09,357.222 1151.25,369.096 1153.41,381.111 1155.57,393.255 1157.73,405.514 1159.89,417.876 1162.06,430.331 1164.22,442.866 1166.38,455.474 1168.54,468.144 1170.7,480.868 1172.86,493.639 1175.02,506.45 1177.18,519.294 1179.34,532.168 1181.5,545.065 1183.67,557.983 1185.83,570.919 1187.99,583.863 1190.15,596.804 1192.31,609.743 1194.47,622.682 1196.63,635.622 1198.79,648.566 1200.95,661.515 1203.11,674.47 1205.28,687.432 1207.44,700.402 1209.6,713.38 1211.76,726.366 1213.92,739.36 1216.08,752.361 1218.24,765.37 1220.4,778.384 1222.56,791.404 1224.72,804.426 1226.88,817.45 1229.05,830.474 1231.21,843.494 1233.37,856.51 1235.53,869.518 1237.69,882.514 1239.85,895.496 1242.01,908.46 1244.17,921.402 1246.33,934.318 1248.49,947.204 1250.66,960.056 1252.82,972.867 1254.98,985.633 1257.14,998.349 1259.3,1011.01 1261.46,1023.61 1263.62,1036.14 1265.78,1048.59 1267.94,1060.96 1270.1,1073.25 1272.27,1085.44 1274.43,1097.53 1276.59,1109.48 1278.75,1121.29 1280.91,1132.93 1283.07,1144.38 1285.23,1155.63 1287.39,1166.65 1289.55,1177.43 1291.71,1187.95 1293.88,1198.18 1296.04,1208.12 1298.2,1217.74 1300.36,1227.03 1302.52,1235.97 1304.68,1244.54 1306.84,1252.72 1309,1260.51 1311.16,1267.88 1313.32,1274.82 1315.49,1281.31 1317.65,1287.34 1319.81,1292.89 1321.97,1297.95 1324.13,1302.5 1326.29,1306.53 1328.45,1310.02 1330.61,1312.96 1332.77,1315.34 1334.93,1317.14 1337.09,1318.35 1339.26,1318.95 1341.42,1318.96 1343.58,1318.39 1345.74,1317.23 1347.9,1315.5 1350.06,1313.21 1352.22,1310.36 1354.38,1306.97 1356.54,1303.05 1358.7,1298.6 1360.87,1293.64 1363.03,1288.19 1365.19,1282.24 1367.35,1275.83 1369.51,1268.96 1371.67,1261.64 1373.83,1253.9 1375.99,1245.74 1378.15,1237.18 1380.31,1228.25 1382.48,1218.95 1384.64,1209.3 1386.8,1199.33 1388.96,1189.05 1391.12,1178.48 1393.28,1167.65 1395.44,1156.56 1397.6,1145.25 1399.76,1133.74 1401.92,1122.04 1404.09,1110.19 1406.25,1098.2 1408.41,1086.1 1410.57,1073.91 1412.73,1061.65 1414.89,1049.29 1417.05,1036.85 1419.21,1024.32 1421.37,1011.72 1423.53,999.056 1425.7,986.334 1427.86,973.563 1430.02,960.748 1432.18,947.896 1434.34,935.013 1436.5,922.104 1438.66,909.173 1440.82,896.226 1442.98,883.266 1445.14,870.296 1447.3,857.321 1449.47,844.341 1451.63,831.361 1453.79,818.38 1455.95,805.401 1458.11,792.424 1460.27,779.45 1462.43,766.479 1464.59,753.51 1466.75,740.542 1468.91,727.573 1471.08,714.602 1473.24,701.627 1475.4,688.646 1477.56,675.671 1479.72,662.703 1481.88,649.741 1484.04,636.781 1486.2,623.825 1488.36,610.872 1490.52,597.922 1492.69,584.978 1494.85,572.04 1497.01,559.112 1499.17,546.198 1501.33,533.3 1503.49,520.425 1505.65,507.577 1507.81,494.762 1509.97,481.987 1512.13,469.259 1514.3,456.587 1516.46,443.98 1518.62,431.446 1520.78,418.995 1522.94,406.64 1525.1,394.389 1527.26,382.257 1529.42,370.256 1531.58,358.399 1533.74,346.7 1535.91,335.174 1538.07,323.836 1540.23,312.703 1542.39,301.791 1544.55,291.118 1546.71,280.701 1548.87,270.556 1551.03,260.671 1553.19,251.072 1555.35,241.785 1557.51,232.839 1559.68,224.259 1561.84,216.07 1564,208.294 1566.16,200.953 1568.32,194.066 1570.48,187.652 1572.64,181.728 1574.8,176.308 1576.96,171.408 1579.12,167.039 1581.29,163.211 1583.45,159.936 1585.61,157.22 1587.77,155.069 1589.93,153.489 1592.09,152.484 1594.25,152.054 1596.41,152.202 1598.57,152.925 1600.73,154.221 1602.9,156.086 1605.06,158.514 1607.22,161.499 1609.38,165.033 1611.54,169.104 1613.7,173.703 1615.86,178.815 1618.02,184.427 1620.18,190.522 1622.34,197.083 1624.51,204.093 1626.67,211.546 1628.83,219.427 1630.99,227.713 1633.15,236.38 1635.31,245.41 1637.47,254.779 1639.63,264.469 1641.79,274.459 1643.95,284.731 1646.12,295.266 1648.28,306.047 1650.44,317.056 1652.6,328.277 1654.76,339.694 1656.92,351.291 1659.08,363.054 1661.24,374.968 1663.4,387.02 1665.56,399.197 1667.72,411.487 1669.89,423.878 1672.05,436.359 1674.21,448.919 1676.37,461.548 1678.53,474.237 1680.69,486.977 1682.85,499.76 1685.01,512.57 1687.17,525.392 1689.33,538.227 1691.5,551.076 1693.66,563.94 1695.82,576.819 1697.98,589.715 1700.14,602.627 1702.3,615.555 1704.46,628.499 1706.62,641.459 1708.78,654.435 1710.94,667.426 1713.11,680.431 1715.27,693.449 1717.43,706.48 1719.59,719.522 1721.75,732.573 1723.91,745.633 1726.07,758.699 1728.23,771.769 1730.39,784.841 1732.55,797.914 1734.72,810.985 1736.88,824.05 1739.04,837.108 1741.2,850.156 1743.36,863.19 1745.52,876.207 1747.68,889.204 1749.84,902.178 1752,915.124 1754.16,928.038 1756.33,940.917 1758.49,953.757 1760.65,966.552 1762.81,979.299 1764.97,991.992 1767.13,1004.63 1769.29,1017.2 1771.45,1029.7 1773.61,1042.13 1775.77,1054.48 1777.93,1066.75 1780.1,1078.92 1782.26,1091 1784.42,1102.96 1786.58,1114.8 1788.74,1126.47 1790.9,1137.98 1793.06,1149.29 1795.22,1160.39 1797.38,1171.26 1799.54,1181.88 1801.71,1192.23 1803.87,1202.3 1806.03,1212.06 1808.19,1221.5 1810.35,1230.59 1812.51,1239.33 1814.67,1247.7 1816.83,1255.67 1818.99,1263.23 1821.15,1270.37 1823.32,1277.07 1825.48,1283.31 1827.64,1289.07 1829.8,1294.34 1831.96,1299.11 1834.12,1303.36 1836.28,1307.08 1838.44,1310.24 1840.6,1312.83 1842.76,1314.84 1844.93,1316.27 1847.09,1317.1 1849.25,1317.36 1851.41,1317.04 1853.57,1316.15 1855.73,1314.7 1857.89,1312.68 1860.05,1310.11 1862.21,1306.99 1864.37,1303.34 1866.54,1299.16 1868.7,1294.46 1870.86,1289.25 1873.02,1283.55 1875.18,1277.36 1877.34,1270.71 1879.5,1263.59 1881.66,1256.03 1883.82,1248.05 1885.98,1239.65 1888.15,1230.86 1890.31,1221.69 1892.47,1212.16 1894.63,1202.29 1896.79,1192.1 1898.95,1181.6 1901.11,1170.83 1903.27,1159.8 1905.43,1148.54 1907.59,1137.06 1909.75,1125.4 1911.92,1113.57 1914.08,1101.61 1916.24,1089.53 1918.4,1077.37 1920.56,1065.16 1922.72,1052.86 1924.88,1040.47 1927.04,1028 1929.2,1015.45 1931.36,1002.82 1933.53,990.141 1935.69,977.404 1937.85,964.62 1940.01,951.796 1942.17,938.938 1944.33,926.05 1946.49,913.14 1948.65,900.21 1950.81,887.265 1952.97,874.308 1955.14,861.344 1957.3,848.374 1959.46,835.401 1961.62,822.427 1963.78,809.452 1965.94,796.479 1968.1,783.507 1970.26,770.535 1972.42,757.565 1974.58,744.594 1976.75,731.621 1978.91,718.644 1981.07,705.664 1983.23,692.692 1985.39,679.728 1987.55,666.769 1989.71,653.814 1991.87,640.86 1994.03,627.909 1996.19,614.96 1998.36,602.013 2000.52,589.071 2002.68,576.136 2004.84,563.21 2007,550.297 2009.16,537.401 2011.32,524.527 2013.48,511.679 2015.64,498.865 2017.8,486.091 2019.96,473.364 2022.13,460.693 2024.29,448.085 2026.45,435.55 2028.61,423.098 2030.77,410.74 2032.93,398.488 2035.09,386.351 2037.25,374.345 2039.41,362.481 2041.57,350.773 2043.74,339.236 2045.9,327.886 2048.06,316.737 2050.22,305.807 2052.38,295.112 2054.54,284.67 2056.7,274.496 2058.86,264.582 2061.02,254.949 2063.18,245.624 2065.35,236.636 2067.51,228.01 2069.67,219.77 2071.83,211.939 2073.99,204.537 2076.15,197.586 2078.31,191.103 2080.47,185.104 2082.63,179.606 2084.79,174.623 2086.96,170.166 2089.12,166.247 2091.28,162.875 2093.44,160.058 2095.6,157.803 2097.76,156.115 2099.92,154.998 2102.08,154.454 2104.24,154.484 2106.4,155.086 2108.57,156.259 2110.73,157.999 2112.89,160.301 2115.05,163.159 2117.21,166.564 2119.37,170.506 2121.53,174.976 2123.69,179.959 2125.85,185.443 2128.01,191.413 2130.17,197.85 2132.34,204.744 2134.5,212.089 2136.66,219.862 2138.82,228.041 2140.98,236.605 2143.14,245.533 2145.3,254.804 2147.46,264.399 2149.62,274.297 2151.78,284.481 2153.95,294.932 2156.11,305.633 2158.27,316.566 2160.43,327.715 2162.59,339.065 2164.75,350.599 2166.91,362.303 2169.07,374.162 2171.23,386.164 2173.39,398.295 2175.56,410.542 2177.72,422.894 2179.88,435.339 2182.04,447.867 2184.2,460.466 2186.36,473.128 2188.52,485.843 2190.68,498.603 2192.84,511.389 2195,524.193 2197.17,537.015 2199.33,549.857 2201.49,562.717 2203.65,575.596 2205.81,588.493 2207.97,601.409 2210.13,614.343 2212.29,627.294 2214.45,640.261 2216.61,653.244 2218.78,666.241 2220.94,679.252 2223.1,692.275 2225.26,705.309 2227.42,718.353 2229.58,731.404 2231.74,744.462 2233.9,757.523 2236.06,770.587 2238.22,783.651 2240.38,796.712 2242.55,809.769 2244.71,822.819 2246.87,835.859 2249.03,848.886 2251.19,861.898 2253.35,874.892 2255.51,887.864 2257.67,900.811 2259.83,913.729 2261.99,926.616 2264.16,939.467 2266.32,952.279 2268.48,965.047 2270.64,977.768 2272.8,990.438 2274.96,1003.05 2277.12,1015.6 2279.28,1028.09 2281.44,1040.51 2283.6,1052.86 2285.77,1065.12 2287.93,1077.3 2290.09,1089.38 2292.25,1101.33 2294.41,1113.14 2296.57,1124.79 2298.73,1136.26 2300.89,1147.53 2303.05,1158.59 2305.21,1169.42 2307.38,1180 2309.54,1190.31 2311.7,1200.33 2313.86,1210.06 2316.02,1219.46 2318.18,1228.52 2320.34,1237.24 2322.5,1245.57 2324.66,1253.52 2326.82,1261.07 2328.99,1268.19 2331.15,1274.87 2333.31,1281.09 2335.47,1286.84 2337.63,1292.1 2339.79,1296.85 2341.95,1301.07 2344.11,1304.76 2346.27,1307.9 2348.43,1310.48 2350.59,1312.51 2352.76,1313.97 "/>
<path clip-path="url(#clip010)" d="M2039.68 1377.32 L2280.8 1377.32 L2280.8 1221.8 L2039.68 1221.8  Z" fill="#ffffff" fill-rule="evenodd" fill-opacity="1"/>
<polyline clip-path="url(#clip010)" style="stroke:#000000; stroke-linecap:round; stroke-linejoin:round; stroke-width:4; stroke-opacity:1; fill:none" points="2039.68,1377.32 2280.8,1377.32 2280.8,1221.8 2039.68,1221.8 2039.68,1377.32 "/>
<polyline clip-path="url(#clip010)" style="stroke:#009af9; stroke-linecap:round; stroke-linejoin:round; stroke-width:4; stroke-opacity:1; fill:none" points="2063.67,1273.64 2207.59,1273.64 "/>
<path clip-path="url(#clip010)" d="M2250.84 1274.48 L2236.09 1274.48 Q2236.44 1281.4 2238.04 1284.34 Q2240.03 1287.95 2243.48 1287.95 Q2246.95 1287.95 2248.87 1284.32 Q2250.56 1281.12 2250.84 1274.48 M2250.77 1270.55 Q2250.12 1263.97 2248.87 1261.66 Q2246.88 1258 2243.48 1258 Q2239.93 1258 2238.06 1261.61 Q2236.58 1264.53 2236.14 1270.55 L2250.77 1270.55 M2243.48 1254.53 Q2249.03 1254.53 2252.2 1259.43 Q2255.37 1264.32 2255.37 1272.98 Q2255.37 1281.61 2252.2 1286.52 Q2249.03 1291.45 2243.48 1291.45 Q2237.9 1291.45 2234.75 1286.52 Q2231.58 1281.61 2231.58 1272.98 Q2231.58 1264.32 2234.75 1259.43 Q2237.9 1254.53 2243.48 1254.53 Z" fill="#000000" fill-rule="nonzero" fill-opacity="1" /><polyline clip-path="url(#clip010)" style="stroke:#e26f46; stroke-linecap:round; stroke-linejoin:round; stroke-width:4; stroke-opacity:1; fill:none" points="2063.67,1325.48 2207.59,1325.48 "/>
<path clip-path="url(#clip010)" d="M2231.58 1316.83 L2236.09 1316.83 L2244.19 1338.59 L2252.29 1316.83 L2256.81 1316.83 L2247.09 1342.76 L2241.3 1342.76 L2231.58 1316.83 Z" fill="#000000" fill-rule="nonzero" fill-opacity="1" /></svg>