<?xml version="1.0" encoding="utf-8"?>
<svg xmlns="http://www.w3.org/2000/svg" xmlns:xlink="http://www.w3.org/1999/xlink" width="600" height="400" viewBox="0 0 2400 1600">
<defs>
  <clipPath id="clip650">
    <rect x="0" y="0" width="2400" height="1600"/>
  </clipPath>
</defs>
<path clip-path="url(#clip650)" d="M0 1600 L2400 1600 L2400 0 L0 0  Z" fill="#ffffff" fill-rule="evenodd" fill-opacity="1"/>
<defs>
  <clipPath id="clip651">
    <rect x="480" y="0" width="1681" height="1600"/>
  </clipPath>
</defs>
<path clip-path="url(#clip650)" d="M360.71 1423.18 L2352.76 1423.18 L2352.76 47.2441 L360.71 47.2441  Z" fill="#ffffff" fill-rule="evenodd" fill-opacity="1"/>
<defs>
  <clipPath id="clip652">
    <rect x="360" y="47" width="1993" height="1377"/>
  </clipPath>
</defs>
<polyline clip-path="url(#clip652)" style="stroke:#000000; stroke-linecap:round; stroke-linejoin:round; stroke-width:2; stroke-opacity:0.1; fill:none" points="416.337,1423.18 416.337,47.2441 "/>
<polyline clip-path="url(#clip652)" style="stroke:#000000; stroke-linecap:round; stroke-linejoin:round; stroke-width:2; stroke-opacity:0.1; fill:none" points="886.347,1423.18 886.347,47.2441 "/>
<polyline clip-path="url(#clip652)" style="stroke:#000000; stroke-linecap:round; stroke-linejoin:round; stroke-width:2; stroke-opacity:0.1; fill:none" points="1356.36,1423.18 1356.36,47.2441 "/>
<polyline clip-path="url(#clip652)" style="stroke:#000000; stroke-linecap:round; stroke-linejoin:round; stroke-width:2; stroke-opacity:0.1; fill:none" points="1826.37,1423.18 1826.37,47.2441 "/>
<polyline clip-path="url(#clip652)" style="stroke:#000000; stroke-linecap:round; stroke-linejoin:round; stroke-width:2; stroke-opacity:0.1; fill:none" points="2296.38,1423.18 2296.38,47.2441 "/>
<polyline clip-path="url(#clip650)" style="stroke:#000000; stroke-linecap:round; stroke-linejoin:round; stroke-width:4; stroke-opacity:1; fill:none" points="360.71,1423.18 2352.76,1423.18 "/>
<polyline clip-path="url(#clip650)" style="stroke:#000000; stroke-linecap:round; stroke-linejoin:round; stroke-width:4; stroke-opacity:1; fill:none" points="416.337,1423.18 416.337,1404.28 "/>
<polyline clip-path="url(#clip650)" style="stroke:#000000; stroke-linecap:round; stroke-linejoin:round; stroke-width:4; stroke-opacity:1; fill:none" points="886.347,1423.18 886.347,1404.28 "/>
<polyline clip-path="url(#clip650)" style="stroke:#000000; stroke-linecap:round; stroke-linejoin:round; stroke-width:4; stroke-opacity:1; fill:none" points="1356.36,1423.18 1356.36,1404.28 "/>
<polyline clip-path="url(#clip650)" style="stroke:#000000; stroke-linecap:round; stroke-linejoin:round; stroke-width:4; stroke-opacity:1; fill:none" points="1826.37,1423.18 1826.37,1404.28 "/>
<polyline clip-path="url(#clip650)" style="stroke:#000000; stroke-linecap:round; stroke-linejoin:round; stroke-width:4; stroke-opacity:1; fill:none" points="2296.38,1423.18 2296.38,1404.28 "/>
<path clip-path="url(#clip650)" d="M378.64 1454.1 Q375.029 1454.1 373.2 1457.66 Q371.395 1461.2 371.395 1468.33 Q371.395 1475.44 373.2 1479.01 Q375.029 1482.55 378.64 1482.55 Q382.274 1482.55 384.08 1479.01 Q385.908 1475.44 385.908 1468.33 Q385.908 1461.2 384.08 1457.66 Q382.274 1454.1 378.64 1454.1 M378.64 1450.39 Q384.45 1450.39 387.506 1455 Q390.584 1459.58 390.584 1468.33 Q390.584 1477.06 387.506 1481.67 Q384.45 1486.25 378.64 1486.25 Q372.83 1486.25 369.751 1481.67 Q366.696 1477.06 366.696 1468.33 Q366.696 1459.58 369.751 1455 Q372.83 1450.39 378.64 1450.39 Z" fill="#000000" fill-rule="nonzero" fill-opacity="1" /><path clip-path="url(#clip650)" d="M398.802 1479.7 L403.686 1479.7 L403.686 1485.58 L398.802 1485.58 L398.802 1479.7 Z" fill="#000000" fill-rule="nonzero" fill-opacity="1" /><path clip-path="url(#clip650)" d="M423.871 1454.1 Q420.26 1454.1 418.431 1457.66 Q416.626 1461.2 416.626 1468.33 Q416.626 1475.44 418.431 1479.01 Q420.26 1482.55 423.871 1482.55 Q427.505 1482.55 429.311 1479.01 Q431.14 1475.44 431.14 1468.33 Q431.14 1461.2 429.311 1457.66 Q427.505 1454.1 423.871 1454.1 M423.871 1450.39 Q429.681 1450.39 432.737 1455 Q435.816 1459.58 435.816 1468.33 Q435.816 1477.06 432.737 1481.67 Q429.681 1486.25 423.871 1486.25 Q418.061 1486.25 414.982 1481.67 Q411.927 1477.06 411.927 1468.33 Q411.927 1459.58 414.982 1455 Q418.061 1450.39 423.871 1450.39 Z" fill="#000000" fill-rule="nonzero" fill-opacity="1" /><path clip-path="url(#clip650)" d="M454.033 1454.1 Q450.422 1454.1 448.593 1457.66 Q446.788 1461.2 446.788 1468.33 Q446.788 1475.44 448.593 1479.01 Q450.422 1482.55 454.033 1482.55 Q457.667 1482.55 459.473 1479.01 Q461.302 1475.44 461.302 1468.33 Q461.302 1461.2 459.473 1457.66 Q457.667 1454.1 454.033 1454.1 M454.033 1450.39 Q459.843 1450.39 462.899 1455 Q465.977 1459.58 465.977 1468.33 Q465.977 1477.06 462.899 1481.67 Q459.843 1486.25 454.033 1486.25 Q448.223 1486.25 445.144 1481.67 Q442.089 1477.06 442.089 1468.33 Q442.089 1459.58 445.144 1455 Q448.223 1450.39 454.033 1450.39 Z" fill="#000000" fill-rule="nonzero" fill-opacity="1" /><path clip-path="url(#clip650)" d="M849.148 1454.1 Q845.537 1454.1 843.708 1457.66 Q841.902 1461.2 841.902 1468.33 Q841.902 1475.44 843.708 1479.01 Q845.537 1482.55 849.148 1482.55 Q852.782 1482.55 854.588 1479.01 Q856.416 1475.44 856.416 1468.33 Q856.416 1461.2 854.588 1457.66 Q852.782 1454.1 849.148 1454.1 M849.148 1450.39 Q854.958 1450.39 858.014 1455 Q861.092 1459.58 861.092 1468.33 Q861.092 1477.06 858.014 1481.67 Q854.958 1486.25 849.148 1486.25 Q843.338 1486.25 840.259 1481.67 Q837.203 1477.06 837.203 1468.33 Q837.203 1459.58 840.259 1455 Q843.338 1450.39 849.148 1450.39 Z" fill="#000000" fill-rule="nonzero" fill-opacity="1" /><path clip-path="url(#clip650)" d="M869.31 1479.7 L874.194 1479.7 L874.194 1485.58 L869.31 1485.58 L869.31 1479.7 Z" fill="#000000" fill-rule="nonzero" fill-opacity="1" /><path clip-path="url(#clip650)" d="M888.407 1481.64 L904.726 1481.64 L904.726 1485.58 L882.782 1485.58 L882.782 1481.64 Q885.444 1478.89 890.027 1474.26 Q894.634 1469.61 895.814 1468.27 Q898.06 1465.74 898.939 1464.01 Q899.842 1462.25 899.842 1460.56 Q899.842 1457.8 897.898 1456.07 Q895.976 1454.33 892.874 1454.33 Q890.675 1454.33 888.222 1455.09 Q885.791 1455.86 883.013 1457.41 L883.013 1452.69 Q885.837 1451.55 888.291 1450.97 Q890.745 1450.39 892.782 1450.39 Q898.152 1450.39 901.347 1453.08 Q904.541 1455.77 904.541 1460.26 Q904.541 1462.39 903.731 1464.31 Q902.944 1466.2 900.837 1468.8 Q900.259 1469.47 897.157 1472.69 Q894.055 1475.88 888.407 1481.64 Z" fill="#000000" fill-rule="nonzero" fill-opacity="1" /><path clip-path="url(#clip650)" d="M914.587 1451.02 L932.944 1451.02 L932.944 1454.96 L918.87 1454.96 L918.87 1463.43 Q919.888 1463.08 920.907 1462.92 Q921.925 1462.73 922.944 1462.73 Q928.731 1462.73 932.11 1465.9 Q935.49 1469.08 935.49 1474.49 Q935.49 1480.07 932.018 1483.17 Q928.546 1486.25 922.226 1486.25 Q920.05 1486.25 917.782 1485.88 Q915.536 1485.51 913.129 1484.77 L913.129 1480.07 Q915.212 1481.2 917.434 1481.76 Q919.657 1482.32 922.134 1482.32 Q926.138 1482.32 928.476 1480.21 Q930.814 1478.1 930.814 1474.49 Q930.814 1470.88 928.476 1468.77 Q926.138 1466.67 922.134 1466.67 Q920.259 1466.67 918.384 1467.08 Q916.532 1467.5 914.587 1468.38 L914.587 1451.02 Z" fill="#000000" fill-rule="nonzero" fill-opacity="1" /><path clip-path="url(#clip650)" d="M1318.66 1454.1 Q1315.05 1454.1 1313.22 1457.66 Q1311.41 1461.2 1311.41 1468.33 Q1311.41 1475.44 1313.22 1479.01 Q1315.05 1482.55 1318.66 1482.55 Q1322.29 1482.55 1324.1 1479.01 Q1325.93 1475.44 1325.93 1468.33 Q1325.93 1461.2 1324.1 1457.66 Q1322.29 1454.1 1318.66 1454.1 M1318.66 1450.39 Q1324.47 1450.39 1327.53 1455 Q1330.6 1459.58 1330.6 1468.33 Q1330.6 1477.06 1327.53 1481.67 Q1324.47 1486.25 1318.66 1486.25 Q1312.85 1486.25 1309.77 1481.67 Q1306.72 1477.06 1306.72 1468.33 Q1306.72 1459.58 1309.77 1455 Q1312.85 1450.39 1318.66 1450.39 Z" fill="#000000" fill-rule="nonzero" fill-opacity="1" /><path clip-path="url(#clip650)" d="M1338.82 1479.7 L1343.71 1479.7 L1343.71 1485.58 L1338.82 1485.58 L1338.82 1479.7 Z" fill="#000000" fill-rule="nonzero" fill-opacity="1" /><path clip-path="url(#clip650)" d="M1353.94 1451.02 L1372.29 1451.02 L1372.29 1454.96 L1358.22 1454.96 L1358.22 1463.43 Q1359.24 1463.08 1360.26 1462.92 Q1361.28 1462.73 1362.29 1462.73 Q1368.08 1462.73 1371.46 1465.9 Q1374.84 1469.08 1374.84 1474.49 Q1374.84 1480.07 1371.37 1483.17 Q1367.9 1486.25 1361.58 1486.25 Q1359.4 1486.25 1357.13 1485.88 Q1354.89 1485.51 1352.48 1484.77 L1352.48 1480.07 Q1354.56 1481.2 1356.79 1481.76 Q1359.01 1482.32 1361.48 1482.32 Q1365.49 1482.32 1367.83 1480.21 Q1370.16 1478.1 1370.16 1474.49 Q1370.16 1470.88 1367.83 1468.77 Q1365.49 1466.67 1361.48 1466.67 Q1359.61 1466.67 1357.73 1467.08 Q1355.88 1467.5 1353.94 1468.38 L1353.94 1451.02 Z" fill="#000000" fill-rule="nonzero" fill-opacity="1" /><path clip-path="url(#clip650)" d="M1394.05 1454.1 Q1390.44 1454.1 1388.61 1457.66 Q1386.81 1461.2 1386.81 1468.33 Q1386.81 1475.44 1388.61 1479.01 Q1390.44 1482.55 1394.05 1482.55 Q1397.69 1482.55 1399.49 1479.01 Q1401.32 1475.44 1401.32 1468.33 Q1401.32 1461.2 1399.49 1457.66 Q1397.69 1454.1 1394.05 1454.1 M1394.05 1450.39 Q1399.86 1450.39 1402.92 1455 Q1406 1459.58 1406 1468.33 Q1406 1477.06 1402.92 1481.67 Q1399.86 1486.25 1394.05 1486.25 Q1388.24 1486.25 1385.16 1481.67 Q1382.11 1477.06 1382.11 1468.33 Q1382.11 1459.58 1385.16 1455 Q1388.24 1450.39 1394.05 1450.39 Z" fill="#000000" fill-rule="nonzero" fill-opacity="1" /><path clip-path="url(#clip650)" d="M1789.17 1454.1 Q1785.56 1454.1 1783.73 1457.66 Q1781.92 1461.2 1781.92 1468.33 Q1781.92 1475.44 1783.73 1479.01 Q1785.56 1482.55 1789.17 1482.55 Q1792.8 1482.55 1794.61 1479.01 Q1796.44 1475.44 1796.44 1468.33 Q1796.44 1461.2 1794.61 1457.66 Q1792.8 1454.1 1789.17 1454.1 M1789.17 1450.39 Q1794.98 1450.39 1798.03 1455 Q1801.11 1459.58 1801.11 1468.33 Q1801.11 1477.06 1798.03 1481.67 Q1794.98 1486.25 1789.17 1486.25 Q1783.36 1486.25 1780.28 1481.67 Q1777.22 1477.06 1777.22 1468.33 Q1777.22 1459.58 1780.28 1455 Q1783.36 1450.39 1789.17 1450.39 Z" fill="#000000" fill-rule="nonzero" fill-opacity="1" /><path clip-path="url(#clip650)" d="M1809.33 1479.7 L1814.21 1479.7 L1814.21 1485.58 L1809.33 1485.58 L1809.33 1479.7 Z" fill="#000000" fill-rule="nonzero" fill-opacity="1" /><path clip-path="url(#clip650)" d="M1823.22 1451.02 L1845.44 1451.02 L1845.44 1453.01 L1832.89 1485.58 L1828.01 1485.58 L1839.82 1454.96 L1823.22 1454.96 L1823.22 1451.02 Z" fill="#000000" fill-rule="nonzero" fill-opacity="1" /><path clip-path="url(#clip650)" d="M1854.61 1451.02 L1872.96 1451.02 L1872.96 1454.96 L1858.89 1454.96 L1858.89 1463.43 Q1859.91 1463.08 1860.93 1462.92 Q1861.95 1462.73 1862.96 1462.73 Q1868.75 1462.73 1872.13 1465.9 Q1875.51 1469.08 1875.51 1474.49 Q1875.51 1480.07 1872.04 1483.17 Q1868.57 1486.25 1862.25 1486.25 Q1860.07 1486.25 1857.8 1485.88 Q1855.56 1485.51 1853.15 1484.77 L1853.15 1480.07 Q1855.23 1481.2 1857.45 1481.76 Q1859.68 1482.32 1862.15 1482.32 Q1866.16 1482.32 1868.5 1480.21 Q1870.83 1478.1 1870.83 1474.49 Q1870.83 1470.88 1868.5 1468.77 Q1866.16 1466.67 1862.15 1466.67 Q1860.28 1466.67 1858.4 1467.08 Q1856.55 1467.5 1854.61 1468.38 L1854.61 1451.02 Z" fill="#000000" fill-rule="nonzero" fill-opacity="1" /><path clip-path="url(#clip650)" d="M2248.45 1481.64 L2256.09 1481.64 L2256.09 1455.28 L2247.78 1456.95 L2247.78 1452.69 L2256.04 1451.02 L2260.72 1451.02 L2260.72 1481.64 L2268.36 1481.64 L2268.36 1485.58 L2248.45 1485.58 L2248.45 1481.64 Z" fill="#000000" fill-rule="nonzero" fill-opacity="1" /><path clip-path="url(#clip650)" d="M2277.8 1479.7 L2282.69 1479.7 L2282.69 1485.58 L2277.8 1485.58 L2277.8 1479.7 Z" fill="#000000" fill-rule="nonzero" fill-opacity="1" /><path clip-path="url(#clip650)" d="M2302.87 1454.1 Q2299.26 1454.1 2297.43 1457.66 Q2295.62 1461.2 2295.62 1468.33 Q2295.62 1475.44 2297.43 1479.01 Q2299.26 1482.55 2302.87 1482.55 Q2306.5 1482.55 2308.31 1479.01 Q2310.14 1475.44 2310.14 1468.33 Q2310.14 1461.2 2308.31 1457.66 Q2306.5 1454.1 2302.87 1454.1 M2302.87 1450.39 Q2308.68 1450.39 2311.74 1455 Q2314.81 1459.58 2314.81 1468.33 Q2314.81 1477.06 2311.74 1481.67 Q2308.68 1486.25 2302.87 1486.25 Q2297.06 1486.25 2293.98 1481.67 Q2290.93 1477.06 2290.93 1468.33 Q2290.93 1459.58 2293.98 1455 Q2297.06 1450.39 2302.87 1450.39 Z" fill="#000000" fill-rule="nonzero" fill-opacity="1" /><path clip-path="url(#clip650)" d="M2333.03 1454.1 Q2329.42 1454.1 2327.59 1457.66 Q2325.79 1461.2 2325.79 1468.33 Q2325.79 1475.44 2327.59 1479.01 Q2329.42 1482.55 2333.03 1482.55 Q2336.67 1482.55 2338.47 1479.01 Q2340.3 1475.44 2340.3 1468.33 Q2340.3 1461.2 2338.47 1457.66 Q2336.67 1454.1 2333.03 1454.1 M2333.03 1450.39 Q2338.84 1450.39 2341.9 1455 Q2344.98 1459.58 2344.98 1468.33 Q2344.98 1477.06 2341.9 1481.67 Q2338.84 1486.25 2333.03 1486.25 Q2327.22 1486.25 2324.14 1481.67 Q2321.09 1477.06 2321.09 1468.33 Q2321.09 1459.58 2324.14 1455 Q2327.22 1450.39 2333.03 1450.39 Z" fill="#000000" fill-rule="nonzero" fill-opacity="1" /><path clip-path="url(#clip650)" d="M1297.85 1562.63 L1308.35 1562.63 L1308.35 1526.38 L1296.93 1528.67 L1296.93 1522.82 L1308.29 1520.52 L1314.72 1520.52 L1314.72 1562.63 L1325.22 1562.63 L1325.22 1568.04 L1297.85 1568.04 L1297.85 1562.63 Z" fill="#000000" fill-rule="nonzero" fill-opacity="1" /><path clip-path="url(#clip650)" d="M1347.79 1520.52 L1353.2 1520.52 L1336.65 1574.09 L1331.24 1574.09 L1347.79 1520.52 Z" fill="#000000" fill-rule="nonzero" fill-opacity="1" /><path clip-path="url(#clip650)" d="M1388.98 1546.53 L1388.98 1568.04 L1383.12 1568.04 L1383.12 1546.72 Q1383.12 1541.66 1381.15 1539.14 Q1379.17 1536.63 1375.23 1536.63 Q1370.48 1536.63 1367.75 1539.65 Q1365.01 1542.68 1365.01 1547.9 L1365.01 1568.04 L1359.12 1568.04 L1359.12 1532.4 L1365.01 1532.4 L1365.01 1537.93 Q1367.11 1534.72 1369.94 1533.13 Q1372.81 1531.54 1376.53 1531.54 Q1382.67 1531.54 1385.82 1535.36 Q1388.98 1539.14 1388.98 1546.53 Z" fill="#000000" fill-rule="nonzero" fill-opacity="1" /><path clip-path="url(#clip650)" d="M1403.04 1543.15 L1416.54 1543.15 L1416.54 1546.78 L1397.51 1546.78 L1397.51 1543.28 Q1398.59 1542.29 1400.59 1540.51 Q1411.54 1530.8 1411.54 1527.81 Q1411.54 1525.71 1409.89 1524.44 Q1408.23 1523.13 1405.53 1523.13 Q1403.87 1523.13 1401.93 1523.71 Q1399.99 1524.25 1397.7 1525.36 L1397.7 1521.45 Q1400.15 1520.56 1402.25 1520.11 Q1404.38 1519.66 1406.19 1519.66 Q1410.81 1519.66 1413.58 1521.77 Q1416.35 1523.87 1416.35 1527.3 Q1416.35 1531.73 1405.81 1540.77 Q1404.03 1542.29 1403.04 1543.15 Z" fill="#000000" fill-rule="nonzero" fill-opacity="1" /><polyline clip-path="url(#clip652)" style="stroke:#000000; stroke-linecap:round; stroke-linejoin:round; stroke-width:2; stroke-opacity:0.1; fill:none" points="360.71,1332.3 2352.76,1332.3 "/>
<polyline clip-path="url(#clip652)" style="stroke:#000000; stroke-linecap:round; stroke-linejoin:round; stroke-width:2; stroke-opacity:0.1; fill:none" points="360.71,1124.52 2352.76,1124.52 "/>
<polyline clip-path="url(#clip652)" style="stroke:#000000; stroke-linecap:round; stroke-linejoin:round; stroke-width:2; stroke-opacity:0.1; fill:none" points="360.71,916.752 2352.76,916.752 "/>
<polyline clip-path="url(#clip652)" style="stroke:#000000; stroke-linecap:round; stroke-linejoin:round; stroke-width:2; stroke-opacity:0.1; fill:none" points="360.71,708.981 2352.76,708.981 "/>
<polyline clip-path="url(#clip652)" style="stroke:#000000; stroke-linecap:round; stroke-linejoin:round; stroke-width:2; stroke-opacity:0.1; fill:none" points="360.71,501.209 2352.76,501.209 "/>
<polyline clip-path="url(#clip652)" style="stroke:#000000; stroke-linecap:round; stroke-linejoin:round; stroke-width:2; stroke-opacity:0.1; fill:none" points="360.71,293.438 2352.76,293.438 "/>
<polyline clip-path="url(#clip652)" style="stroke:#000000; stroke-linecap:round; stroke-linejoin:round; stroke-width:2; stroke-opacity:0.1; fill:none" points="360.71,85.6662 2352.76,85.6662 "/>
<polyline clip-path="url(#clip650)" style="stroke:#000000; stroke-linecap:round; stroke-linejoin:round; stroke-width:4; stroke-opacity:1; fill:none" points="360.71,1423.18 360.71,47.2441 "/>
<polyline clip-path="url(#clip650)" style="stroke:#000000; stroke-linecap:round; stroke-linejoin:round; stroke-width:4; stroke-opacity:1; fill:none" points="360.71,1332.3 379.608,1332.3 "/>
<polyline clip-path="url(#clip650)" style="stroke:#000000; stroke-linecap:round; stroke-linejoin:round; stroke-width:4; stroke-opacity:1; fill:none" points="360.71,1124.52 379.608,1124.52 "/>
<polyline clip-path="url(#clip650)" style="stroke:#000000; stroke-linecap:round; stroke-linejoin:round; stroke-width:4; stroke-opacity:1; fill:none" points="360.71,916.752 379.608,916.752 "/>
<polyline clip-path="url(#clip650)" style="stroke:#000000; stroke-linecap:round; stroke-linejoin:round; stroke-width:4; stroke-opacity:1; fill:none" points="360.71,708.981 379.608,708.981 "/>
<polyline clip-path="url(#clip650)" style="stroke:#000000; stroke-linecap:round; stroke-linejoin:round; stroke-width:4; stroke-opacity:1; fill:none" points="360.71,501.209 379.608,501.209 "/>
<polyline clip-path="url(#clip650)" style="stroke:#000000; stroke-linecap:round; stroke-linejoin:round; stroke-width:4; stroke-opacity:1; fill:none" points="360.71,293.438 379.608,293.438 "/>
<polyline clip-path="url(#clip650)" style="stroke:#000000; stroke-linecap:round; stroke-linejoin:round; stroke-width:4; stroke-opacity:1; fill:none" points="360.71,85.6662 379.608,85.6662 "/>
<path clip-path="url(#clip650)" d="M189.201 1332.75 L218.877 1332.75 L218.877 1336.68 L189.201 1336.68 L189.201 1332.75 Z" fill="#000000" fill-rule="nonzero" fill-opacity="1" /><path clip-path="url(#clip650)" d="M238.97 1318.09 Q235.359 1318.09 233.53 1321.66 Q231.724 1325.2 231.724 1332.33 Q231.724 1339.44 233.53 1343 Q235.359 1346.54 238.97 1346.54 Q242.604 1346.54 244.409 1343 Q246.238 1339.44 246.238 1332.33 Q246.238 1325.2 244.409 1321.66 Q242.604 1318.09 238.97 1318.09 M238.97 1314.39 Q244.78 1314.39 247.835 1319 Q250.914 1323.58 250.914 1332.33 Q250.914 1341.06 247.835 1345.66 Q244.78 1350.25 238.97 1350.25 Q233.159 1350.25 230.081 1345.66 Q227.025 1341.06 227.025 1332.33 Q227.025 1323.58 230.081 1319 Q233.159 1314.39 238.97 1314.39 Z" fill="#000000" fill-rule="nonzero" fill-opacity="1" /><path clip-path="url(#clip650)" d="M259.132 1343.7 L264.016 1343.7 L264.016 1349.58 L259.132 1349.58 L259.132 1343.7 Z" fill="#000000" fill-rule="nonzero" fill-opacity="1" /><path clip-path="url(#clip650)" d="M275.011 1345.64 L282.65 1345.64 L282.65 1319.27 L274.34 1320.94 L274.34 1316.68 L282.604 1315.02 L287.28 1315.02 L287.28 1345.64 L294.918 1345.64 L294.918 1349.58 L275.011 1349.58 L275.011 1345.64 Z" fill="#000000" fill-rule="nonzero" fill-opacity="1" /><path clip-path="url(#clip650)" d="M308.391 1345.64 L324.71 1345.64 L324.71 1349.58 L302.766 1349.58 L302.766 1345.64 Q305.428 1342.89 310.011 1338.26 Q314.617 1333.6 315.798 1332.26 Q318.043 1329.74 318.923 1328 Q319.826 1326.24 319.826 1324.55 Q319.826 1321.8 317.881 1320.06 Q315.96 1318.33 312.858 1318.33 Q310.659 1318.33 308.205 1319.09 Q305.775 1319.85 302.997 1321.4 L302.997 1316.68 Q305.821 1315.55 308.275 1314.97 Q310.728 1314.39 312.765 1314.39 Q318.136 1314.39 321.33 1317.08 Q324.525 1319.76 324.525 1324.25 Q324.525 1326.38 323.715 1328.3 Q322.927 1330.2 320.821 1332.79 Q320.242 1333.46 317.14 1336.68 Q314.039 1339.88 308.391 1345.64 Z" fill="#000000" fill-rule="nonzero" fill-opacity="1" /><path clip-path="url(#clip650)" d="M187.604 1124.98 L217.28 1124.98 L217.28 1128.91 L187.604 1128.91 L187.604 1124.98 Z" fill="#000000" fill-rule="nonzero" fill-opacity="1" /><path clip-path="url(#clip650)" d="M237.372 1110.32 Q233.761 1110.32 231.933 1113.89 Q230.127 1117.43 230.127 1124.56 Q230.127 1131.67 231.933 1135.23 Q233.761 1138.77 237.372 1138.77 Q241.007 1138.77 242.812 1135.23 Q244.641 1131.67 244.641 1124.56 Q244.641 1117.43 242.812 1113.89 Q241.007 1110.32 237.372 1110.32 M237.372 1106.62 Q243.183 1106.62 246.238 1111.23 Q249.317 1115.81 249.317 1124.56 Q249.317 1133.29 246.238 1137.89 Q243.183 1142.48 237.372 1142.48 Q231.562 1142.48 228.484 1137.89 Q225.428 1133.29 225.428 1124.56 Q225.428 1115.81 228.484 1111.23 Q231.562 1106.62 237.372 1106.62 Z" fill="#000000" fill-rule="nonzero" fill-opacity="1" /><path clip-path="url(#clip650)" d="M257.534 1135.92 L262.419 1135.92 L262.419 1141.8 L257.534 1141.8 L257.534 1135.92 Z" fill="#000000" fill-rule="nonzero" fill-opacity="1" /><path clip-path="url(#clip650)" d="M273.414 1137.87 L281.053 1137.87 L281.053 1111.5 L272.743 1113.17 L272.743 1108.91 L281.006 1107.24 L285.682 1107.24 L285.682 1137.87 L293.321 1137.87 L293.321 1141.8 L273.414 1141.8 L273.414 1137.87 Z" fill="#000000" fill-rule="nonzero" fill-opacity="1" /><path clip-path="url(#clip650)" d="M312.765 1110.32 Q309.154 1110.32 307.326 1113.89 Q305.52 1117.43 305.52 1124.56 Q305.52 1131.67 307.326 1135.23 Q309.154 1138.77 312.765 1138.77 Q316.4 1138.77 318.205 1135.23 Q320.034 1131.67 320.034 1124.56 Q320.034 1117.43 318.205 1113.89 Q316.4 1110.32 312.765 1110.32 M312.765 1106.62 Q318.576 1106.62 321.631 1111.23 Q324.71 1115.81 324.71 1124.56 Q324.71 1133.29 321.631 1137.89 Q318.576 1142.48 312.765 1142.48 Q306.955 1142.48 303.877 1137.89 Q300.821 1133.29 300.821 1124.56 Q300.821 1115.81 303.877 1111.23 Q306.955 1106.62 312.765 1106.62 Z" fill="#000000" fill-rule="nonzero" fill-opacity="1" /><path clip-path="url(#clip650)" d="M187.697 917.204 L217.372 917.204 L217.372 921.139 L187.697 921.139 L187.697 917.204 Z" fill="#000000" fill-rule="nonzero" fill-opacity="1" /><path clip-path="url(#clip650)" d="M237.465 902.551 Q233.854 902.551 232.025 906.116 Q230.22 909.657 230.22 916.787 Q230.22 923.894 232.025 927.458 Q233.854 931 237.465 931 Q241.099 931 242.905 927.458 Q244.733 923.894 244.733 916.787 Q244.733 909.657 242.905 906.116 Q241.099 902.551 237.465 902.551 M237.465 898.847 Q243.275 898.847 246.331 903.454 Q249.409 908.037 249.409 916.787 Q249.409 925.514 246.331 930.12 Q243.275 934.704 237.465 934.704 Q231.655 934.704 228.576 930.12 Q225.521 925.514 225.521 916.787 Q225.521 908.037 228.576 903.454 Q231.655 898.847 237.465 898.847 Z" fill="#000000" fill-rule="nonzero" fill-opacity="1" /><path clip-path="url(#clip650)" d="M257.627 928.153 L262.511 928.153 L262.511 934.032 L257.627 934.032 L257.627 928.153 Z" fill="#000000" fill-rule="nonzero" fill-opacity="1" /><path clip-path="url(#clip650)" d="M282.696 902.551 Q279.085 902.551 277.256 906.116 Q275.451 909.657 275.451 916.787 Q275.451 923.894 277.256 927.458 Q279.085 931 282.696 931 Q286.33 931 288.136 927.458 Q289.965 923.894 289.965 916.787 Q289.965 909.657 288.136 906.116 Q286.33 902.551 282.696 902.551 M282.696 898.847 Q288.506 898.847 291.562 903.454 Q294.641 908.037 294.641 916.787 Q294.641 925.514 291.562 930.12 Q288.506 934.704 282.696 934.704 Q276.886 934.704 273.807 930.12 Q270.752 925.514 270.752 916.787 Q270.752 908.037 273.807 903.454 Q276.886 898.847 282.696 898.847 Z" fill="#000000" fill-rule="nonzero" fill-opacity="1" /><path clip-path="url(#clip650)" d="M312.858 917.62 Q309.525 917.62 307.603 919.403 Q305.705 921.185 305.705 924.31 Q305.705 927.435 307.603 929.218 Q309.525 931 312.858 931 Q316.191 931 318.113 929.218 Q320.034 927.412 320.034 924.31 Q320.034 921.185 318.113 919.403 Q316.215 917.62 312.858 917.62 M308.182 915.63 Q305.173 914.889 303.483 912.829 Q301.816 910.769 301.816 907.806 Q301.816 903.662 304.756 901.255 Q307.719 898.847 312.858 898.847 Q318.02 898.847 320.96 901.255 Q323.9 903.662 323.9 907.806 Q323.9 910.769 322.21 912.829 Q320.543 914.889 317.557 915.63 Q320.937 916.417 322.812 918.708 Q324.71 921 324.71 924.31 Q324.71 929.333 321.631 932.018 Q318.576 934.704 312.858 934.704 Q307.141 934.704 304.062 932.018 Q301.006 929.333 301.006 924.31 Q301.006 921 302.904 918.708 Q304.803 916.417 308.182 915.63 M306.469 908.245 Q306.469 910.931 308.136 912.435 Q309.826 913.94 312.858 913.94 Q315.867 913.94 317.557 912.435 Q319.27 910.931 319.27 908.245 Q319.27 905.56 317.557 904.056 Q315.867 902.551 312.858 902.551 Q309.826 902.551 308.136 904.056 Q306.469 905.56 306.469 908.245 Z" fill="#000000" fill-rule="nonzero" fill-opacity="1" /><path clip-path="url(#clip650)" d="M187.442 709.432 L217.118 709.432 L217.118 713.367 L187.442 713.367 L187.442 709.432 Z" fill="#000000" fill-rule="nonzero" fill-opacity="1" /><path clip-path="url(#clip650)" d="M237.21 694.78 Q233.599 694.78 231.771 698.344 Q229.965 701.886 229.965 709.016 Q229.965 716.122 231.771 719.687 Q233.599 723.228 237.21 723.228 Q240.845 723.228 242.65 719.687 Q244.479 716.122 244.479 709.016 Q244.479 701.886 242.65 698.344 Q240.845 694.78 237.21 694.78 M237.21 691.076 Q243.021 691.076 246.076 695.682 Q249.155 700.266 249.155 709.016 Q249.155 717.742 246.076 722.349 Q243.021 726.932 237.21 726.932 Q231.4 726.932 228.322 722.349 Q225.266 717.742 225.266 709.016 Q225.266 700.266 228.322 695.682 Q231.4 691.076 237.21 691.076 Z" fill="#000000" fill-rule="nonzero" fill-opacity="1" /><path clip-path="url(#clip650)" d="M257.372 720.381 L262.257 720.381 L262.257 726.261 L257.372 726.261 L257.372 720.381 Z" fill="#000000" fill-rule="nonzero" fill-opacity="1" /><path clip-path="url(#clip650)" d="M282.442 694.78 Q278.83 694.78 277.002 698.344 Q275.196 701.886 275.196 709.016 Q275.196 716.122 277.002 719.687 Q278.83 723.228 282.442 723.228 Q286.076 723.228 287.881 719.687 Q289.71 716.122 289.71 709.016 Q289.71 701.886 287.881 698.344 Q286.076 694.78 282.442 694.78 M282.442 691.076 Q288.252 691.076 291.307 695.682 Q294.386 700.266 294.386 709.016 Q294.386 717.742 291.307 722.349 Q288.252 726.932 282.442 726.932 Q276.631 726.932 273.553 722.349 Q270.497 717.742 270.497 709.016 Q270.497 700.266 273.553 695.682 Q276.631 691.076 282.442 691.076 Z" fill="#000000" fill-rule="nonzero" fill-opacity="1" /><path clip-path="url(#clip650)" d="M313.182 707.117 Q310.034 707.117 308.182 709.27 Q306.353 711.423 306.353 715.173 Q306.353 718.9 308.182 721.076 Q310.034 723.228 313.182 723.228 Q316.33 723.228 318.159 721.076 Q320.011 718.9 320.011 715.173 Q320.011 711.423 318.159 709.27 Q316.33 707.117 313.182 707.117 M322.465 692.465 L322.465 696.724 Q320.705 695.891 318.9 695.451 Q317.117 695.011 315.358 695.011 Q310.728 695.011 308.275 698.136 Q305.844 701.261 305.497 707.58 Q306.863 705.566 308.923 704.502 Q310.983 703.414 313.46 703.414 Q318.668 703.414 321.677 706.585 Q324.71 709.733 324.71 715.173 Q324.71 720.497 321.562 723.715 Q318.414 726.932 313.182 726.932 Q307.187 726.932 304.016 722.349 Q300.844 717.742 300.844 709.016 Q300.844 700.821 304.733 695.96 Q308.622 691.076 315.173 691.076 Q316.932 691.076 318.715 691.423 Q320.52 691.77 322.465 692.465 Z" fill="#000000" fill-rule="nonzero" fill-opacity="1" /><path clip-path="url(#clip650)" d="M187.118 501.661 L216.794 501.661 L216.794 505.596 L187.118 505.596 L187.118 501.661 Z" fill="#000000" fill-rule="nonzero" fill-opacity="1" /><path clip-path="url(#clip650)" d="M236.886 487.008 Q233.275 487.008 231.446 490.573 Q229.641 494.114 229.641 501.244 Q229.641 508.35 231.446 511.915 Q233.275 515.457 236.886 515.457 Q240.521 515.457 242.326 511.915 Q244.155 508.35 244.155 501.244 Q244.155 494.114 242.326 490.573 Q240.521 487.008 236.886 487.008 M236.886 483.304 Q242.696 483.304 245.752 487.911 Q248.831 492.494 248.831 501.244 Q248.831 509.971 245.752 514.577 Q242.696 519.161 236.886 519.161 Q231.076 519.161 227.997 514.577 Q224.942 509.971 224.942 501.244 Q224.942 492.494 227.997 487.911 Q231.076 483.304 236.886 483.304 Z" fill="#000000" fill-rule="nonzero" fill-opacity="1" /><path clip-path="url(#clip650)" d="M257.048 512.61 L261.932 512.61 L261.932 518.489 L257.048 518.489 L257.048 512.61 Z" fill="#000000" fill-rule="nonzero" fill-opacity="1" /><path clip-path="url(#clip650)" d="M282.118 487.008 Q278.506 487.008 276.678 490.573 Q274.872 494.114 274.872 501.244 Q274.872 508.35 276.678 511.915 Q278.506 515.457 282.118 515.457 Q285.752 515.457 287.557 511.915 Q289.386 508.35 289.386 501.244 Q289.386 494.114 287.557 490.573 Q285.752 487.008 282.118 487.008 M282.118 483.304 Q287.928 483.304 290.983 487.911 Q294.062 492.494 294.062 501.244 Q294.062 509.971 290.983 514.577 Q287.928 519.161 282.118 519.161 Q276.307 519.161 273.229 514.577 Q270.173 509.971 270.173 501.244 Q270.173 492.494 273.229 487.911 Q276.307 483.304 282.118 483.304 Z" fill="#000000" fill-rule="nonzero" fill-opacity="1" /><path clip-path="url(#clip650)" d="M315.127 488.003 L303.321 506.452 L315.127 506.452 L315.127 488.003 M313.9 483.929 L319.779 483.929 L319.779 506.452 L324.71 506.452 L324.71 510.341 L319.779 510.341 L319.779 518.489 L315.127 518.489 L315.127 510.341 L299.525 510.341 L299.525 505.827 L313.9 483.929 Z" fill="#000000" fill-rule="nonzero" fill-opacity="1" /><path clip-path="url(#clip650)" d="M189.201 293.889 L218.877 293.889 L218.877 297.824 L189.201 297.824 L189.201 293.889 Z" fill="#000000" fill-rule="nonzero" fill-opacity="1" /><path clip-path="url(#clip650)" d="M238.97 279.236 Q235.359 279.236 233.53 282.801 Q231.724 286.343 231.724 293.472 Q231.724 300.579 233.53 304.144 Q235.359 307.685 238.97 307.685 Q242.604 307.685 244.409 304.144 Q246.238 300.579 246.238 293.472 Q246.238 286.343 244.409 282.801 Q242.604 279.236 238.97 279.236 M238.97 275.533 Q244.78 275.533 247.835 280.139 Q250.914 284.723 250.914 293.472 Q250.914 302.199 247.835 306.806 Q244.78 311.389 238.97 311.389 Q233.159 311.389 230.081 306.806 Q227.025 302.199 227.025 293.472 Q227.025 284.723 230.081 280.139 Q233.159 275.533 238.97 275.533 Z" fill="#000000" fill-rule="nonzero" fill-opacity="1" /><path clip-path="url(#clip650)" d="M259.132 304.838 L264.016 304.838 L264.016 310.718 L259.132 310.718 L259.132 304.838 Z" fill="#000000" fill-rule="nonzero" fill-opacity="1" /><path clip-path="url(#clip650)" d="M284.201 279.236 Q280.59 279.236 278.761 282.801 Q276.956 286.343 276.956 293.472 Q276.956 300.579 278.761 304.144 Q280.59 307.685 284.201 307.685 Q287.835 307.685 289.641 304.144 Q291.469 300.579 291.469 293.472 Q291.469 286.343 289.641 282.801 Q287.835 279.236 284.201 279.236 M284.201 275.533 Q290.011 275.533 293.067 280.139 Q296.145 284.723 296.145 293.472 Q296.145 302.199 293.067 306.806 Q290.011 311.389 284.201 311.389 Q278.391 311.389 275.312 306.806 Q272.256 302.199 272.256 293.472 Q272.256 284.723 275.312 280.139 Q278.391 275.533 284.201 275.533 Z" fill="#000000" fill-rule="nonzero" fill-opacity="1" /><path clip-path="url(#clip650)" d="M308.391 306.783 L324.71 306.783 L324.71 310.718 L302.766 310.718 L302.766 306.783 Q305.428 304.028 310.011 299.398 Q314.617 294.746 315.798 293.403 Q318.043 290.88 318.923 289.144 Q319.826 287.385 319.826 285.695 Q319.826 282.94 317.881 281.204 Q315.96 279.468 312.858 279.468 Q310.659 279.468 308.205 280.232 Q305.775 280.996 302.997 282.547 L302.997 277.824 Q305.821 276.69 308.275 276.111 Q310.728 275.533 312.765 275.533 Q318.136 275.533 321.33 278.218 Q324.525 280.903 324.525 285.394 Q324.525 287.523 323.715 289.445 Q322.927 291.343 320.821 293.935 Q320.242 294.607 317.14 297.824 Q314.039 301.019 308.391 306.783 Z" fill="#000000" fill-rule="nonzero" fill-opacity="1" /><path clip-path="url(#clip650)" d="M237.372 71.4649 Q233.761 71.4649 231.933 75.0297 Q230.127 78.5714 230.127 85.701 Q230.127 92.8074 231.933 96.3722 Q233.761 99.9139 237.372 99.9139 Q241.007 99.9139 242.812 96.3722 Q244.641 92.8074 244.641 85.701 Q244.641 78.5714 242.812 75.0297 Q241.007 71.4649 237.372 71.4649 M237.372 67.7612 Q243.183 67.7612 246.238 72.3677 Q249.317 76.951 249.317 85.701 Q249.317 94.4278 246.238 99.0342 Q243.183 103.618 237.372 103.618 Q231.562 103.618 228.484 99.0342 Q225.428 94.4278 225.428 85.701 Q225.428 76.951 228.484 72.3677 Q231.562 67.7612 237.372 67.7612 Z" fill="#000000" fill-rule="nonzero" fill-opacity="1" /><path clip-path="url(#clip650)" d="M257.534 97.0666 L262.419 97.0666 L262.419 102.946 L257.534 102.946 L257.534 97.0666 Z" fill="#000000" fill-rule="nonzero" fill-opacity="1" /><path clip-path="url(#clip650)" d="M282.604 71.4649 Q278.993 71.4649 277.164 75.0297 Q275.358 78.5714 275.358 85.701 Q275.358 92.8074 277.164 96.3722 Q278.993 99.9139 282.604 99.9139 Q286.238 99.9139 288.043 96.3722 Q289.872 92.8074 289.872 85.701 Q289.872 78.5714 288.043 75.0297 Q286.238 71.4649 282.604 71.4649 M282.604 67.7612 Q288.414 67.7612 291.469 72.3677 Q294.548 76.951 294.548 85.701 Q294.548 94.4278 291.469 99.0342 Q288.414 103.618 282.604 103.618 Q276.793 103.618 273.715 99.0342 Q270.659 94.4278 270.659 85.701 Q270.659 76.951 273.715 72.3677 Q276.793 67.7612 282.604 67.7612 Z" fill="#000000" fill-rule="nonzero" fill-opacity="1" /><path clip-path="url(#clip650)" d="M312.765 71.4649 Q309.154 71.4649 307.326 75.0297 Q305.52 78.5714 305.52 85.701 Q305.52 92.8074 307.326 96.3722 Q309.154 99.9139 312.765 99.9139 Q316.4 99.9139 318.205 96.3722 Q320.034 92.8074 320.034 85.701 Q320.034 78.5714 318.205 75.0297 Q316.4 71.4649 312.765 71.4649 M312.765 67.7612 Q318.576 67.7612 321.631 72.3677 Q324.71 76.951 324.71 85.701 Q324.71 94.4278 321.631 99.0342 Q318.576 103.618 312.765 103.618 Q306.955 103.618 303.877 99.0342 Q300.821 94.4278 300.821 85.701 Q300.821 76.951 303.877 72.3677 Q306.955 67.7612 312.765 67.7612 Z" fill="#000000" fill-rule="nonzero" fill-opacity="1" /><path clip-path="url(#clip650)" d="M31.6865 865.756 Q33.4175 865.756 34.3434 866.802 Q35.2291 867.849 35.2291 869.218 Q35.2291 870.546 34.3434 871.593 Q33.4175 872.599 31.767 872.599 Q30.6398 872.599 29.6333 871.875 Q28.5866 871.15 28.3854 869.54 Q26.6543 871.553 26.6543 874.733 Q26.6543 876.303 27.2582 877.39 Q27.8218 878.437 29.5528 879.483 Q31.2839 880.53 34.8265 881.255 Q38.3692 881.939 43.8844 882.382 L64.4157 883.952 Q71.3802 884.435 85.0677 886.166 Q98.7149 887.857 101.855 888.662 Q104.834 889.387 107.29 890.474 Q109.745 891.56 111.879 893.171 Q114.053 894.781 115.261 897.116 Q116.468 899.451 116.468 902.269 Q116.468 906.013 114.496 908.67 Q112.563 911.327 109.625 911.327 Q107.894 911.327 106.968 910.28 Q106.082 909.233 106.082 907.865 Q106.082 906.536 106.968 905.53 Q107.894 904.483 109.544 904.483 Q110.671 904.483 111.678 905.208 Q112.724 905.932 112.926 907.543 Q114.657 905.53 114.657 902.269 Q114.657 899.773 113.208 898.122 Q111.758 896.472 107.894 895.264 Q104.029 894.056 97.4267 893.533 L76.8954 891.963 Q69.6491 891.44 56.1629 889.749 Q42.6767 888.018 39.1341 887.253 Q24.8427 884.032 24.8427 874.813 Q24.8427 871.069 26.8153 868.412 Q28.7477 865.756 31.6865 865.756 Z" fill="#000000" fill-rule="nonzero" fill-opacity="1" /><path clip-path="url(#clip650)" d="M153.402 902.954 Q146.616 902.954 142.919 901.24 Q137.418 898.851 137.418 893.215 Q137.418 892.02 137.756 890.78 Q138.072 889.517 139.312 887.939 Q140.552 886.339 142.581 885.369 Q146.504 883.521 153.402 883.521 Q160.143 883.521 163.817 885.234 Q169.183 887.736 169.183 893.26 Q169.183 895.334 168.123 897.453 Q167.064 899.55 164.516 900.88 Q160.706 902.954 153.402 902.954 M152.838 899.121 Q159.805 899.121 162.578 898.625 Q165.576 898.062 166.883 896.529 Q168.168 894.973 168.168 893.26 Q168.168 891.411 166.793 889.878 Q165.396 888.323 162.397 887.849 Q159.444 887.331 152.838 887.353 Q146.413 887.353 143.843 887.804 Q140.845 888.413 139.65 890.036 Q138.433 891.637 138.433 893.26 Q138.433 893.868 138.613 894.522 Q138.793 895.153 139.312 896.078 Q139.831 897.002 141.116 897.723 Q142.401 898.422 144.339 898.76 Q146.842 899.121 152.838 899.121 Z" fill="#000000" fill-rule="nonzero" fill-opacity="1" /><path clip-path="url(#clip650)" d="M-7.28521 900.881 L-8.72804 900.881 Q-8.72804 895.335 -11.6813 892.472 Q-11.6813 891.683 -11.501 891.548 Q-11.3206 891.413 -10.4865 891.413 L15.4167 891.413 Q16.7919 891.413 17.2202 890.736 Q17.6486 890.06 17.6486 887.107 L17.6486 885.641 L19.0688 885.641 Q18.9336 887.264 18.9336 893.126 Q18.9336 898.987 19.0688 900.588 L17.6486 900.588 L17.6486 899.123 Q17.6486 896.214 17.2428 895.516 Q16.8144 894.817 15.4167 894.817 L-8.5026 894.817 Q-7.28521 897.229 -7.28521 900.881 Z" fill="#000000" fill-rule="nonzero" fill-opacity="1" /><path clip-path="url(#clip650)" d="M66.4285 819.272 Q68.2321 819.272 69.2626 820.399 Q70.261 821.526 70.261 822.814 Q70.261 824.038 69.5525 824.682 Q68.844 825.327 67.9422 825.327 Q66.7184 825.327 65.6556 824.425 Q64.5928 823.523 64.3674 822.17 Q63.53 823.491 63.53 825.455 Q63.53 826.744 64.2063 827.871 Q64.8827 828.966 65.7522 829.642 Q66.6218 830.286 67.8778 830.866 Q69.1016 831.413 69.8424 831.639 Q70.5509 831.832 71.3238 831.993 L80.3415 834.248 Q84.6248 835.343 86.1385 835.343 Q88.0065 835.343 89.2625 834.441 Q90.4863 833.539 90.4863 831.735 Q90.4863 831.027 90.2931 830.222 Q90.0676 829.417 89.4879 828.386 Q88.876 827.323 87.9743 826.389 Q87.0403 825.423 85.4622 824.489 Q83.8841 823.555 81.8551 822.943 Q81.1466 822.75 81.1466 822.106 Q81.1466 821.301 81.7907 821.301 Q82.3382 821.301 83.4976 821.752 Q84.6248 822.17 86.1063 823.104 Q87.5556 824.006 88.876 825.198 Q90.1643 826.389 91.066 828.161 Q91.9678 829.932 91.9678 831.864 Q91.9678 834.634 90.4863 836.47 Q89.0048 838.305 86.9437 838.982 Q87.2335 839.143 87.62 839.368 Q88.0065 839.594 88.876 840.27 Q89.7134 840.914 90.3575 841.655 Q90.9694 842.396 91.4525 843.555 Q91.9678 844.682 91.9678 845.906 Q91.9678 847.452 91.5169 848.837 Q91.066 850.189 90.0354 851.156 Q89.0048 852.122 87.5878 852.122 Q86.0097 852.122 84.9147 851.059 Q83.7875 849.964 83.7875 848.483 Q83.7875 847.549 84.335 846.808 Q84.8825 846.035 86.0741 846.035 Q87.3945 846.035 88.3929 846.937 Q89.3913 847.838 89.649 849.127 Q90.4863 847.806 90.4863 845.842 Q90.4863 843.716 88.6184 842.041 Q86.7504 840.367 83.6265 839.562 Q76.1225 837.565 72.7731 836.792 Q69.3915 836.019 67.9422 836.019 Q66.5896 836.019 65.6556 836.373 Q64.7216 836.727 64.3029 837.339 Q63.8521 837.919 63.691 838.467 Q63.53 838.982 63.53 839.562 Q63.53 840.528 63.9165 841.623 Q64.3029 842.685 65.2047 843.974 Q66.0743 845.23 67.8778 846.421 Q69.6813 847.613 72.1612 848.418 Q72.9019 848.579 72.9019 849.288 Q72.8697 850.061 72.2256 850.061 Q71.6781 850.061 70.5509 849.642 Q69.3915 849.191 67.9422 848.289 Q66.4929 847.355 65.2047 846.164 Q63.8843 844.94 62.9825 843.169 Q62.0807 841.365 62.0807 839.433 Q62.0807 838.563 62.274 837.726 Q62.435 836.856 62.9181 835.826 Q63.4012 834.763 64.464 833.829 Q65.5268 832.895 67.0726 832.315 Q66.3319 831.929 65.6234 831.413 Q64.9149 830.866 64.0453 830.029 Q63.1435 829.159 62.6282 827.967 Q62.0807 826.744 62.0807 825.391 Q62.0807 824.07 62.435 822.782 Q62.7571 821.494 63.8199 820.399 Q64.8504 819.272 66.4285 819.272 Z" fill="#000000" fill-rule="nonzero" fill-opacity="1" /><path clip-path="url(#clip650)" d="M64.2619 812.551 Q62.8867 812.551 62.2329 811.762 Q61.5792 810.972 61.5792 809.958 Q61.5792 808.898 62.278 808.154 Q62.9543 807.388 64.1492 807.388 Q65.4342 807.388 66.1556 808.29 Q66.877 809.169 66.6967 810.431 Q68.5453 809.327 69.3794 807.298 Q70.2135 805.246 70.2135 803.353 Q70.2135 801.369 68.5002 799.768 Q66.7868 798.145 62.5936 798.145 Q59.0317 798.145 56.9802 799.543 Q54.9286 800.918 54.9286 803.646 L54.9286 805.675 Q54.9286 806.373 54.861 806.576 Q54.7934 806.779 54.4101 806.779 Q53.9592 806.779 53.8691 806.08 Q53.8691 805.382 53.7338 804.277 Q53.6436 801.594 51.3216 800.174 Q49.1574 798.889 46.0688 798.889 Q43.2508 798.889 42.0785 800.241 Q40.8837 801.572 40.8837 803.307 Q40.8837 804.931 41.56 806.712 Q42.2363 808.493 43.7468 809.462 Q43.7468 806.599 46.0688 806.599 Q47.0833 806.599 47.7596 807.253 Q48.4134 807.884 48.4134 808.943 Q48.4134 809.958 47.7822 810.634 Q47.1284 811.311 46.0237 811.311 Q43.3861 811.311 41.56 808.966 Q39.7339 806.599 39.7339 803.127 Q39.7339 799.7 41.5374 797.175 Q43.341 794.628 46.1139 794.628 Q48.8417 794.628 51.0736 796.432 Q53.3055 798.235 54.2298 801.098 Q54.9286 797.581 57.3183 795.485 Q59.6855 793.388 62.5936 793.388 Q66.2007 793.388 68.8609 796.229 Q71.4986 799.069 71.4986 803.217 Q71.4986 807.05 69.4245 809.8 Q67.3504 812.551 64.2619 812.551 Z" fill="#000000" fill-rule="nonzero" fill-opacity="1" /><path clip-path="url(#clip650)" d="M46.171 755.133 L84.3028 764.634 Q86.0097 765.02 87.459 765.02 Q90.4863 765.02 90.4863 763.056 Q90.4863 762.09 89.8744 761.317 Q89.2625 760.544 87.9743 759.932 Q86.686 759.32 85.4944 758.934 Q84.2706 758.547 82.3382 758.032 Q81.5653 757.871 81.3721 757.742 Q81.1466 757.581 81.1466 757.13 Q81.1466 756.325 81.7907 756.325 Q85.9453 757.194 88.3285 758.322 Q91.9678 760.125 91.9678 763.185 Q91.9678 765.504 90.5507 767.146 Q89.1337 768.789 87.0081 769.175 Q91.9678 773.394 91.9678 777.774 Q91.9678 781.639 89.037 784.086 Q86.0741 786.534 81.4043 786.534 Q76.7022 786.534 72.1934 784.215 Q67.6846 781.864 64.8827 778.16 Q62.0807 774.457 62.0807 770.656 Q62.0807 766.631 66.2997 764.57 L50.6477 760.608 L49.3594 760.415 Q48.973 760.415 48.7797 760.576 Q48.5543 760.705 48.3932 761.478 Q48.2322 762.219 48.2322 763.7 Q48.2322 764.312 48.2 764.602 Q48.1678 764.859 48.0068 765.085 Q47.8135 765.31 47.4271 765.31 Q46.2999 765.31 46.171 764.376 Q45.4625 758.193 45.4625 756.003 Q45.4625 755.616 45.6558 755.391 Q45.8168 755.165 46.01 755.165 L46.171 755.133 M69.3271 765.375 Q69.0372 765.375 68.2321 765.6 Q67.4269 765.826 66.2997 766.341 Q65.1725 766.856 64.3674 767.983 Q63.53 769.078 63.53 770.56 Q63.53 772.557 65.2369 774.65 Q66.9438 776.711 69.8424 778.225 Q72.1612 779.384 77.0243 780.64 Q81.8873 781.864 84.3028 781.864 Q85.7843 781.864 87.1047 781.542 Q88.3929 781.188 89.4557 780.189 Q90.4863 779.191 90.4863 777.645 Q90.4863 773.877 85.8165 770.173 Q85.0113 769.465 84.6893 769.304 Q84.335 769.111 83.3688 768.853 L70.4543 765.568 Q69.4881 765.375 69.3271 765.375 Z" fill="#000000" fill-rule="nonzero" fill-opacity="1" /><path clip-path="url(#clip650)" d="M66.4285 720.8 Q68.2321 720.8 69.2626 721.927 Q70.261 723.054 70.261 724.343 Q70.261 725.566 69.5525 726.211 Q68.844 726.855 67.9422 726.855 Q66.7184 726.855 65.6556 725.953 Q64.5928 725.051 64.3674 723.699 Q63.53 725.019 63.53 726.984 Q63.53 728.272 64.2063 729.399 Q64.8827 730.494 65.7522 731.17 Q66.6218 731.814 67.8778 732.394 Q69.1016 732.942 69.8424 733.167 Q70.5509 733.36 71.3238 733.521 L80.3415 735.776 Q84.6248 736.871 86.1385 736.871 Q88.0065 736.871 89.2625 735.969 Q90.4863 735.067 90.4863 733.264 Q90.4863 732.555 90.2931 731.75 Q90.0676 730.945 89.4879 729.914 Q88.876 728.851 87.9743 727.917 Q87.0403 726.951 85.4622 726.017 Q83.8841 725.083 81.8551 724.471 Q81.1466 724.278 81.1466 723.634 Q81.1466 722.829 81.7907 722.829 Q82.3382 722.829 83.4976 723.28 Q84.6248 723.699 86.1063 724.632 Q87.5556 725.534 88.876 726.726 Q90.1643 727.917 91.066 729.689 Q91.9678 731.46 91.9678 733.392 Q91.9678 736.162 90.4863 737.998 Q89.0048 739.834 86.9437 740.51 Q87.2335 740.671 87.62 740.896 Q88.0065 741.122 88.876 741.798 Q89.7134 742.442 90.3575 743.183 Q90.9694 743.924 91.4525 745.083 Q91.9678 746.21 91.9678 747.434 Q91.9678 748.98 91.5169 750.365 Q91.066 751.718 90.0354 752.684 Q89.0048 753.65 87.5878 753.65 Q86.0097 753.65 84.9147 752.587 Q83.7875 751.492 83.7875 750.011 Q83.7875 749.077 84.335 748.336 Q84.8825 747.563 86.0741 747.563 Q87.3945 747.563 88.3929 748.465 Q89.3913 749.367 89.649 750.655 Q90.4863 749.334 90.4863 747.37 Q90.4863 745.244 88.6184 743.57 Q86.7504 741.895 83.6265 741.09 Q76.1225 739.093 72.7731 738.32 Q69.3915 737.547 67.9422 737.547 Q66.5896 737.547 65.6556 737.901 Q64.7216 738.256 64.3029 738.867 Q63.8521 739.447 63.691 739.995 Q63.53 740.51 63.53 741.09 Q63.53 742.056 63.9165 743.151 Q64.3029 744.214 65.2047 745.502 Q66.0743 746.758 67.8778 747.95 Q69.6813 749.141 72.1612 749.946 Q72.9019 750.107 72.9019 750.816 Q72.8697 751.589 72.2256 751.589 Q71.6781 751.589 70.5509 751.17 Q69.3915 750.719 67.9422 749.817 Q66.4929 748.884 65.2047 747.692 Q63.8843 746.468 62.9825 744.697 Q62.0807 742.893 62.0807 740.961 Q62.0807 740.091 62.274 739.254 Q62.435 738.384 62.9181 737.354 Q63.4012 736.291 64.464 735.357 Q65.5268 734.423 67.0726 733.843 Q66.3319 733.457 65.6234 732.942 Q64.9149 732.394 64.0453 731.557 Q63.1435 730.687 62.6282 729.496 Q62.0807 728.272 62.0807 726.919 Q62.0807 725.599 62.435 724.31 Q62.7571 723.022 63.8199 721.927 Q64.8504 720.8 66.4285 720.8 Z" fill="#000000" fill-rule="nonzero" fill-opacity="1" /><path clip-path="url(#clip650)" d="M70.7613 716.297 L70.7613 699.141 L75.9812 699.141 L75.9812 716.297 L70.7613 716.297 Z" fill="#000000" fill-rule="nonzero" fill-opacity="1" /><path clip-path="url(#clip650)" d="M47.9402 675.238 Q47.9402 680.203 52.8418 682.718 Q57.7116 685.2 67.5148 685.2 Q77.2861 685.2 82.1877 682.718 Q87.0575 680.203 87.0575 675.238 Q87.0575 670.241 82.1877 667.758 Q77.2861 665.244 67.5148 665.244 Q57.7116 665.244 52.8418 667.758 Q47.9402 670.241 47.9402 675.238 M42.8477 675.238 Q42.8477 667.249 49.1816 663.048 Q55.4836 658.815 67.5148 658.815 Q79.5141 658.815 85.848 663.048 Q92.1501 667.249 92.1501 675.238 Q92.1501 683.227 85.848 687.46 Q79.5141 691.662 67.5148 691.662 Q55.4836 691.662 49.1816 687.46 Q42.8477 683.227 42.8477 675.238 Z" fill="#000000" fill-rule="nonzero" fill-opacity="1" /><path clip-path="url(#clip650)" d="M83.1426 647.515 L83.1426 640.8 L91.227 640.8 L91.227 647.515 L83.1426 647.515 Z" fill="#000000" fill-rule="nonzero" fill-opacity="1" /><path clip-path="url(#clip650)" d="M85.8162 621.257 L85.8162 598.818 L91.227 598.818 L91.227 628.991 L85.8162 628.991 Q82.0286 625.331 75.6629 619.029 Q69.2654 612.695 67.4193 611.072 Q63.95 607.984 61.5629 606.775 Q59.1439 605.534 56.8204 605.534 Q53.0328 605.534 50.6457 608.207 Q48.2585 610.849 48.2585 615.114 Q48.2585 618.138 49.3089 621.511 Q50.3592 624.853 52.4917 628.673 L45.9987 628.673 Q44.4391 624.79 43.6434 621.416 Q42.8477 618.042 42.8477 615.241 Q42.8477 607.857 46.5398 603.465 Q50.2319 599.072 56.4066 599.072 Q59.3349 599.072 61.9766 600.186 Q64.5866 601.269 68.1514 604.165 Q69.0744 604.961 73.4986 609.226 Q77.8909 613.491 85.8162 621.257 Z" fill="#000000" fill-rule="nonzero" fill-opacity="1" /><path clip-path="url(#clip650)" d="M43.707 585.259 L43.707 560.019 L49.1179 560.019 L49.1179 579.37 L60.7671 579.37 Q60.2897 577.97 60.0669 576.57 Q59.8123 575.169 59.8123 573.769 Q59.8123 565.812 64.1728 561.165 Q68.5333 556.518 75.9812 556.518 Q83.6519 556.518 87.9169 561.292 Q92.1501 566.066 92.1501 574.755 Q92.1501 577.747 91.6408 580.866 Q91.1316 583.954 90.113 587.264 L83.6519 587.264 Q85.2115 584.399 85.9753 581.344 Q86.7392 578.288 86.7392 574.883 Q86.7392 569.376 83.8428 566.162 Q80.9464 562.947 75.9812 562.947 Q71.0159 562.947 68.1195 566.162 Q65.2231 569.376 65.2231 574.883 Q65.2231 577.461 65.796 580.039 Q66.369 582.585 67.5784 585.259 L43.707 585.259 Z" fill="#000000" fill-rule="nonzero" fill-opacity="1" /><polyline clip-path="url(#clip652)" style="stroke:#009af9; stroke-linecap:round; stroke-linejoin:round; stroke-width:4; stroke-opacity:1; fill:none" points="2296.38,1384.24 886.347,410.309 625.23,229.952 533.839,166.827 491.538,137.609 468.56,121.738 454.705,112.168 445.712,105.956 439.547,101.698 435.137,98.652 431.874,96.3982 429.392,94.6841 427.461,93.3501 425.929,92.2916 424.692,91.4377 423.68,90.7388 422.842,90.1596 422.139,89.6742 421.544,89.2634 421.037,88.9127 420.6,88.6109 420.221,88.3492 419.89,88.121 419.6,87.9207 419.345,87.744 419.118,87.5872 418.915,87.4475 418.735,87.3226 418.572,87.2103 418.425,87.1091 418.293,87.0175 418.172,86.9344 418.063,86.8587 417.963,86.7896 417.871,86.7263 417.787,86.6682 417.71,86.6148 417.638,86.5655 417.573,86.52 417.512,86.4779 417.455,86.4387 417.402,86.4024 417.353,86.3686 417.308,86.337 417.265,86.3075 417.225,86.2799 417.188,86.2541 417.153,86.2299 417.12,86.2071 417.089,86.1857 "/>
<circle clip-path="url(#clip652)" cx="2296.38" cy="1384.24" r="14.4" fill="#e26f46" fill-rule="evenodd" fill-opacity="1" stroke="#000000" stroke-opacity="1" stroke-width="3.2"/>
<circle clip-path="url(#clip652)" cx="886.347" cy="410.309" r="14.4" fill="#e26f46" fill-rule="evenodd" fill-opacity="1" stroke="#000000" stroke-opacity="1" stroke-width="3.2"/>
<circle clip-path="url(#clip652)" cx="625.23" cy="229.952" r="14.4" fill="#e26f46" fill-rule="evenodd" fill-opacity="1" stroke="#000000" stroke-opacity="1" stroke-width="3.2"/>
<circle clip-path="url(#clip652)" cx="533.839" cy="166.827" r="14.4" fill="#e26f46" fill-rule="evenodd" fill-opacity="1" stroke="#000000" stroke-opacity="1" stroke-width="3.2"/>
<circle clip-path="url(#clip652)" cx="491.538" cy="137.609" r="14.4" fill="#e26f46" fill-rule="evenodd" fill-opacity="1" stroke="#000000" stroke-opacity="1" stroke-width="3.2"/>
<circle clip-path="url(#clip652)" cx="468.56" cy="121.738" r="14.4" fill="#e26f46" fill-rule="evenodd" fill-opacity="1" stroke="#000000" stroke-opacity="1" stroke-width="3.2"/>
<circle clip-path="url(#clip652)" cx="454.705" cy="112.168" r="14.4" fill="#e26f46" fill-rule="evenodd" fill-opacity="1" stroke="#000000" stroke-opacity="1" stroke-width="3.2"/>
<circle clip-path="url(#clip652)" cx="445.712" cy="105.956" r="14.4" fill="#e26f46" fill-rule="evenodd" fill-opacity="1" stroke="#000000" stroke-opacity="1" stroke-width="3.2"/>
<circle clip-path="url(#clip652)" cx="439.547" cy="101.698" r="14.4" fill="#e26f46" fill-rule="evenodd" fill-opacity="1" stroke="#000000" stroke-opacity="1" stroke-width="3.2"/>
<circle clip-path="url(#clip652)" cx="435.137" cy="98.652" r="14.4" fill="#e26f46" fill-rule="evenodd" fill-opacity="1" stroke="#000000" stroke-opacity="1" stroke-width="3.2"/>
<circle clip-path="url(#clip652)" cx="431.874" cy="96.3982" r="14.4" fill="#e26f46" fill-rule="evenodd" fill-opacity="1" stroke="#000000" stroke-opacity="1" stroke-width="3.2"/>
<circle clip-path="url(#clip652)" cx="429.392" cy="94.6841" r="14.4" fill="#e26f46" fill-rule="evenodd" fill-opacity="1" stroke="#000000" stroke-opacity="1" stroke-width="3.2"/>
<circle clip-path="url(#clip652)" cx="427.461" cy="93.3501" r="14.4" fill="#e26f46" fill-rule="evenodd" fill-opacity="1" stroke="#000000" stroke-opacity="1" stroke-width="3.2"/>
<circle clip-path="url(#clip652)" cx="425.929" cy="92.2916" r="14.4" fill="#e26f46" fill-rule="evenodd" fill-opacity="1" stroke="#000000" stroke-opacity="1" stroke-width="3.2"/>
<circle clip-path="url(#clip652)" cx="424.692" cy="91.4377" r="14.4" fill="#e26f46" fill-rule="evenodd" fill-opacity="1" stroke="#000000" stroke-opacity="1" stroke-width="3.2"/>
<circle clip-path="url(#clip652)" cx="423.68" cy="90.7388" r="14.4" fill="#e26f46" fill-rule="evenodd" fill-opacity="1" stroke="#000000" stroke-opacity="1" stroke-width="3.2"/>
<circle clip-path="url(#clip652)" cx="422.842" cy="90.1596" r="14.4" fill="#e26f46" fill-rule="evenodd" fill-opacity="1" stroke="#000000" stroke-opacity="1" stroke-width="3.2"/>
<circle clip-path="url(#clip652)" cx="422.139" cy="89.6742" r="14.4" fill="#e26f46" fill-rule="evenodd" fill-opacity="1" stroke="#000000" stroke-opacity="1" stroke-width="3.2"/>
<circle clip-path="url(#clip652)" cx="421.544" cy="89.2634" r="14.4" fill="#e26f46" fill-rule="evenodd" fill-opacity="1" stroke="#000000" stroke-opacity="1" stroke-width="3.2"/>
<circle clip-path="url(#clip652)" cx="421.037" cy="88.9127" r="14.4" fill="#e26f46" fill-rule="evenodd" fill-opacity="1" stroke="#000000" stroke-opacity="1" stroke-width="3.2"/>
<circle clip-path="url(#clip652)" cx="420.6" cy="88.6109" r="14.4" fill="#e26f46" fill-rule="evenodd" fill-opacity="1" stroke="#000000" stroke-opacity="1" stroke-width="3.2"/>
<circle clip-path="url(#clip652)" cx="420.221" cy="88.3492" r="14.4" fill="#e26f46" fill-rule="evenodd" fill-opacity="1" stroke="#000000" stroke-opacity="1" stroke-width="3.2"/>
<circle clip-path="url(#clip652)" cx="419.89" cy="88.121" r="14.4" fill="#e26f46" fill-rule="evenodd" fill-opacity="1" stroke="#000000" stroke-opacity="1" stroke-width="3.2"/>
<circle clip-path="url(#clip652)" cx="419.6" cy="87.9207" r="14.4" fill="#e26f46" fill-rule="evenodd" fill-opacity="1" stroke="#000000" stroke-opacity="1" stroke-width="3.2"/>
<circle clip-path="url(#clip652)" cx="419.345" cy="87.744" r="14.4" fill="#e26f46" fill-rule="evenodd" fill-opacity="1" stroke="#000000" stroke-opacity="1" stroke-width="3.2"/>
<circle clip-path="url(#clip652)" cx="419.118" cy="87.5872" r="14.4" fill="#e26f46" fill-rule="evenodd" fill-opacity="1" stroke="#000000" stroke-opacity="1" stroke-width="3.2"/>
<circle clip-path="url(#clip652)" cx="418.915" cy="87.4475" r="14.4" fill="#e26f46" fill-rule="evenodd" fill-opacity="1" stroke="#000000" stroke-opacity="1" stroke-width="3.2"/>
<circle clip-path="url(#clip652)" cx="418.735" cy="87.3226" r="14.4" fill="#e26f46" fill-rule="evenodd" fill-opacity="1" stroke="#000000" stroke-opacity="1" stroke-width="3.2"/>
<circle clip-path="url(#clip652)" cx="418.572" cy="87.2103" r="14.4" fill="#e26f46" fill-rule="evenodd" fill-opacity="1" stroke="#000000" stroke-opacity="1" stroke-width="3.2"/>
<circle clip-path="url(#clip652)" cx="418.425" cy="87.1091" r="14.4" fill="#e26f46" fill-rule="evenodd" fill-opacity="1" stroke="#000000" stroke-opacity="1" stroke-width="3.2"/>
<circle clip-path="url(#clip652)" cx="418.293" cy="87.0175" r="14.4" fill="#e26f46" fill-rule="evenodd" fill-opacity="1" stroke="#000000" stroke-opacity="1" stroke-width="3.2"/>
<circle clip-path="url(#clip652)" cx="418.172" cy="86.9344" r="14.4" fill="#e26f46" fill-rule="evenodd" fill-opacity="1" stroke="#000000" stroke-opacity="1" stroke-width="3.2"/>
<circle clip-path="url(#clip652)" cx="418.063" cy="86.8587" r="14.4" fill="#e26f46" fill-rule="evenodd" fill-opacity="1" stroke="#000000" stroke-opacity="1" stroke-width="3.2"/>
<circle clip-path="url(#clip652)" cx="417.963" cy="86.7896" r="14.4" fill="#e26f46" fill-rule="evenodd" fill-opacity="1" stroke="#000000" stroke-opacity="1" stroke-width="3.2"/>
<circle clip-path="url(#clip652)" cx="417.871" cy="86.7263" r="14.4" fill="#e26f46" fill-rule="evenodd" fill-opacity="1" stroke="#000000" stroke-opacity="1" stroke-width="3.2"/>
<circle clip-path="url(#clip652)" cx="417.787" cy="86.6682" r="14.4" fill="#e26f46" fill-rule="evenodd" fill-opacity="1" stroke="#000000" stroke-opacity="1" stroke-width="3.2"/>
<circle clip-path="url(#clip652)" cx="417.71" cy="86.6148" r="14.4" fill="#e26f46" fill-rule="evenodd" fill-opacity="1" stroke="#000000" stroke-opacity="1" stroke-width="3.2"/>
<circle clip-path="url(#clip652)" cx="417.638" cy="86.5655" r="14.4" fill="#e26f46" fill-rule="evenodd" fill-opacity="1" stroke="#000000" stroke-opacity="1" stroke-width="3.2"/>
<circle clip-path="url(#clip652)" cx="417.573" cy="86.52" r="14.4" fill="#e26f46" fill-rule="evenodd" fill-opacity="1" stroke="#000000" stroke-opacity="1" stroke-width="3.2"/>
<circle clip-path="url(#clip652)" cx="417.512" cy="86.4779" r="14.4" fill="#e26f46" fill-rule="evenodd" fill-opacity="1" stroke="#000000" stroke-opacity="1" stroke-width="3.2"/>
<circle clip-path="url(#clip652)" cx="417.455" cy="86.4387" r="14.4" fill="#e26f46" fill-rule="evenodd" fill-opacity="1" stroke="#000000" stroke-opacity="1" stroke-width="3.2"/>
<circle clip-path="url(#clip652)" cx="417.402" cy="86.4024" r="14.4" fill="#e26f46" fill-rule="evenodd" fill-opacity="1" stroke="#000000" stroke-opacity="1" stroke-width="3.2"/>
<circle clip-path="url(#clip652)" cx="417.353" cy="86.3686" r="14.4" fill="#e26f46" fill-rule="evenodd" fill-opacity="1" stroke="#000000" stroke-opacity="1" stroke-width="3.2"/>
<circle clip-path="url(#clip652)" cx="417.308" cy="86.337" r="14.4" fill="#e26f46" fill-rule="evenodd" fill-opacity="1" stroke="#000000" stroke-opacity="1" stroke-width="3.2"/>
<circle clip-path="url(#clip652)" cx="417.265" cy="86.3075" r="14.4" fill="#e26f46" fill-rule="evenodd" fill-opacity="1" stroke="#000000" stroke-opacity="1" stroke-width="3.2"/>
<circle clip-path="url(#clip652)" cx="417.225" cy="86.2799" r="14.4" fill="#e26f46" fill-rule="evenodd" fill-opacity="1" stroke="#000000" stroke-opacity="1" stroke-width="3.2"/>
<circle clip-path="url(#clip652)" cx="417.188" cy="86.2541" r="14.4" fill="#e26f46" fill-rule="evenodd" fill-opacity="1" stroke="#000000" stroke-opacity="1" stroke-width="3.2"/>
<circle clip-path="url(#clip652)" cx="417.153" cy="86.2299" r="14.4" fill="#e26f46" fill-rule="evenodd" fill-opacity="1" stroke="#000000" stroke-opacity="1" stroke-width="3.2"/>
<circle clip-path="url(#clip652)" cx="417.12" cy="86.2071" r="14.4" fill="#e26f46" fill-rule="evenodd" fill-opacity="1" stroke="#000000" stroke-opacity="1" stroke-width="3.2"/>
<circle clip-path="url(#clip652)" cx="417.089" cy="86.1857" r="14.4" fill="#e26f46" fill-rule="evenodd" fill-opacity="1" stroke="#000000" stroke-opacity="1" stroke-width="3.2"/>
</svg>