<?xml version="1.0" encoding="utf-8"?>
<svg xmlns="http://www.w3.org/2000/svg" xmlns:xlink="http://www.w3.org/1999/xlink" width="600" height="400" viewBox="0 0 2400 1600">
<defs>
  <clipPath id="clip600">
    <rect x="0" y="0" width="2400" height="1600"/>
  </clipPath>
</defs>
<path clip-path="url(#clip600)" d="M0 1600 L2400 1600 L2400 8.88178e-14 L0 8.88178e-14  Z" fill="#ffffff" fill-rule="evenodd" fill-opacity="1"/>
<defs>
  <clipPath id="clip601">
    <rect x="480" y="0" width="1681" height="1600"/>
  </clipPath>
</defs>
<path clip-path="url(#clip600)" d="M249.542 1423.18 L2352.76 1423.18 L2352.76 47.2441 L249.542 47.2441  Z" fill="#ffffff" fill-rule="evenodd" fill-opacity="1"/>
<defs>
  <clipPath id="clip602">
    <rect x="249" y="47" width="2104" height="1377"/>
  </clipPath>
</defs>
<polyline clip-path="url(#clip602)" style="stroke:#000000; stroke-linecap:round; stroke-linejoin:round; stroke-width:2; stroke-opacity:0.1; fill:none" points="577.729,1423.18 577.729,47.2441 "/>
<polyline clip-path="url(#clip602)" style="stroke:#000000; stroke-linecap:round; stroke-linejoin:round; stroke-width:2; stroke-opacity:0.1; fill:none" points="936.581,1423.18 936.581,47.2441 "/>
<polyline clip-path="url(#clip602)" style="stroke:#000000; stroke-linecap:round; stroke-linejoin:round; stroke-width:2; stroke-opacity:0.1; fill:none" points="1295.43,1423.18 1295.43,47.2441 "/>
<polyline clip-path="url(#clip602)" style="stroke:#000000; stroke-linecap:round; stroke-linejoin:round; stroke-width:2; stroke-opacity:0.1; fill:none" points="1654.28,1423.18 1654.28,47.2441 "/>
<polyline clip-path="url(#clip602)" style="stroke:#000000; stroke-linecap:round; stroke-linejoin:round; stroke-width:2; stroke-opacity:0.1; fill:none" points="2013.14,1423.18 2013.14,47.2441 "/>
<polyline clip-path="url(#clip600)" style="stroke:#000000; stroke-linecap:round; stroke-linejoin:round; stroke-width:4; stroke-opacity:1; fill:none" points="249.542,1423.18 2352.76,1423.18 "/>
<polyline clip-path="url(#clip600)" style="stroke:#000000; stroke-linecap:round; stroke-linejoin:round; stroke-width:4; stroke-opacity:1; fill:none" points="577.729,1423.18 577.729,1404.28 "/>
<polyline clip-path="url(#clip600)" style="stroke:#000000; stroke-linecap:round; stroke-linejoin:round; stroke-width:4; stroke-opacity:1; fill:none" points="936.581,1423.18 936.581,1404.28 "/>
<polyline clip-path="url(#clip600)" style="stroke:#000000; stroke-linecap:round; stroke-linejoin:round; stroke-width:4; stroke-opacity:1; fill:none" points="1295.43,1423.18 1295.43,1404.28 "/>
<polyline clip-path="url(#clip600)" style="stroke:#000000; stroke-linecap:round; stroke-linejoin:round; stroke-width:4; stroke-opacity:1; fill:none" points="1654.28,1423.18 1654.28,1404.28 "/>
<polyline clip-path="url(#clip600)" style="stroke:#000000; stroke-linecap:round; stroke-linejoin:round; stroke-width:4; stroke-opacity:1; fill:none" points="2013.14,1423.18 2013.14,1404.28 "/>
<path clip-path="url(#clip600)" d="M540.531 1454.1 Q536.919 1454.1 535.091 1457.66 Q533.285 1461.2 533.285 1468.33 Q533.285 1475.44 535.091 1479.01 Q536.919 1482.55 540.531 1482.55 Q544.165 1482.55 545.97 1479.01 Q547.799 1475.44 547.799 1468.33 Q547.799 1461.2 545.97 1457.66 Q544.165 1454.1 540.531 1454.1 M540.531 1450.39 Q546.341 1450.39 549.396 1455 Q552.475 1459.58 552.475 1468.33 Q552.475 1477.06 549.396 1481.67 Q546.341 1486.25 540.531 1486.25 Q534.72 1486.25 531.642 1481.67 Q528.586 1477.06 528.586 1468.33 Q528.586 1459.58 531.642 1455 Q534.72 1450.39 540.531 1450.39 Z" fill="#000000" fill-rule="nonzero" fill-opacity="1" /><path clip-path="url(#clip600)" d="M560.692 1479.7 L565.577 1479.7 L565.577 1485.58 L560.692 1485.58 L560.692 1479.7 Z" fill="#000000" fill-rule="nonzero" fill-opacity="1" /><path clip-path="url(#clip600)" d="M579.79 1481.64 L596.109 1481.64 L596.109 1485.58 L574.165 1485.58 L574.165 1481.64 Q576.827 1478.89 581.41 1474.26 Q586.016 1469.61 587.197 1468.27 Q589.442 1465.74 590.322 1464.01 Q591.225 1462.25 591.225 1460.56 Q591.225 1457.8 589.28 1456.07 Q587.359 1454.33 584.257 1454.33 Q582.058 1454.33 579.604 1455.09 Q577.174 1455.86 574.396 1457.41 L574.396 1452.69 Q577.22 1451.55 579.674 1450.97 Q582.128 1450.39 584.165 1450.39 Q589.535 1450.39 592.729 1453.08 Q595.924 1455.77 595.924 1460.26 Q595.924 1462.39 595.114 1464.31 Q594.327 1466.2 592.22 1468.8 Q591.641 1469.47 588.54 1472.69 Q585.438 1475.88 579.79 1481.64 Z" fill="#000000" fill-rule="nonzero" fill-opacity="1" /><path clip-path="url(#clip600)" d="M605.97 1451.02 L624.326 1451.02 L624.326 1454.96 L610.252 1454.96 L610.252 1463.43 Q611.271 1463.08 612.289 1462.92 Q613.308 1462.73 614.326 1462.73 Q620.113 1462.73 623.493 1465.9 Q626.873 1469.08 626.873 1474.49 Q626.873 1480.07 623.4 1483.17 Q619.928 1486.25 613.609 1486.25 Q611.433 1486.25 609.164 1485.88 Q606.919 1485.51 604.512 1484.77 L604.512 1480.07 Q606.595 1481.2 608.817 1481.76 Q611.039 1482.32 613.516 1482.32 Q617.521 1482.32 619.859 1480.21 Q622.197 1478.1 622.197 1474.49 Q622.197 1470.88 619.859 1468.77 Q617.521 1466.67 613.516 1466.67 Q611.641 1466.67 609.766 1467.08 Q607.914 1467.5 605.97 1468.38 L605.97 1451.02 Z" fill="#000000" fill-rule="nonzero" fill-opacity="1" /><path clip-path="url(#clip600)" d="M898.885 1454.1 Q895.273 1454.1 893.445 1457.66 Q891.639 1461.2 891.639 1468.33 Q891.639 1475.44 893.445 1479.01 Q895.273 1482.55 898.885 1482.55 Q902.519 1482.55 904.324 1479.01 Q906.153 1475.44 906.153 1468.33 Q906.153 1461.2 904.324 1457.66 Q902.519 1454.1 898.885 1454.1 M898.885 1450.39 Q904.695 1450.39 907.75 1455 Q910.829 1459.58 910.829 1468.33 Q910.829 1477.06 907.75 1481.67 Q904.695 1486.25 898.885 1486.25 Q893.074 1486.25 889.996 1481.67 Q886.94 1477.06 886.94 1468.33 Q886.94 1459.58 889.996 1455 Q893.074 1450.39 898.885 1450.39 Z" fill="#000000" fill-rule="nonzero" fill-opacity="1" /><path clip-path="url(#clip600)" d="M919.046 1479.7 L923.931 1479.7 L923.931 1485.58 L919.046 1485.58 L919.046 1479.7 Z" fill="#000000" fill-rule="nonzero" fill-opacity="1" /><path clip-path="url(#clip600)" d="M934.162 1451.02 L952.519 1451.02 L952.519 1454.96 L938.445 1454.96 L938.445 1463.43 Q939.463 1463.08 940.482 1462.92 Q941.5 1462.73 942.519 1462.73 Q948.306 1462.73 951.685 1465.9 Q955.065 1469.08 955.065 1474.49 Q955.065 1480.07 951.593 1483.17 Q948.12 1486.25 941.801 1486.25 Q939.625 1486.25 937.357 1485.88 Q935.111 1485.51 932.704 1484.77 L932.704 1480.07 Q934.787 1481.2 937.009 1481.76 Q939.232 1482.32 941.708 1482.32 Q945.713 1482.32 948.051 1480.21 Q950.389 1478.1 950.389 1474.49 Q950.389 1470.88 948.051 1468.77 Q945.713 1466.67 941.708 1466.67 Q939.833 1466.67 937.958 1467.08 Q936.107 1467.5 934.162 1468.38 L934.162 1451.02 Z" fill="#000000" fill-rule="nonzero" fill-opacity="1" /><path clip-path="url(#clip600)" d="M974.278 1454.1 Q970.667 1454.1 968.838 1457.66 Q967.032 1461.2 967.032 1468.33 Q967.032 1475.44 968.838 1479.01 Q970.667 1482.55 974.278 1482.55 Q977.912 1482.55 979.717 1479.01 Q981.546 1475.44 981.546 1468.33 Q981.546 1461.2 979.717 1457.66 Q977.912 1454.1 974.278 1454.1 M974.278 1450.39 Q980.088 1450.39 983.143 1455 Q986.222 1459.58 986.222 1468.33 Q986.222 1477.06 983.143 1481.67 Q980.088 1486.25 974.278 1486.25 Q968.468 1486.25 965.389 1481.67 Q962.333 1477.06 962.333 1468.33 Q962.333 1459.58 965.389 1455 Q968.468 1450.39 974.278 1450.39 Z" fill="#000000" fill-rule="nonzero" fill-opacity="1" /><path clip-path="url(#clip600)" d="M1258.23 1454.1 Q1254.62 1454.1 1252.79 1457.66 Q1250.99 1461.2 1250.99 1468.33 Q1250.99 1475.44 1252.79 1479.01 Q1254.62 1482.55 1258.23 1482.55 Q1261.87 1482.55 1263.67 1479.01 Q1265.5 1475.44 1265.5 1468.33 Q1265.5 1461.2 1263.67 1457.66 Q1261.87 1454.1 1258.23 1454.1 M1258.23 1450.39 Q1264.04 1450.39 1267.1 1455 Q1270.18 1459.58 1270.18 1468.33 Q1270.18 1477.06 1267.1 1481.67 Q1264.04 1486.25 1258.23 1486.25 Q1252.42 1486.25 1249.35 1481.67 Q1246.29 1477.06 1246.29 1468.33 Q1246.29 1459.58 1249.35 1455 Q1252.42 1450.39 1258.23 1450.39 Z" fill="#000000" fill-rule="nonzero" fill-opacity="1" /><path clip-path="url(#clip600)" d="M1278.4 1479.7 L1283.28 1479.7 L1283.28 1485.58 L1278.4 1485.58 L1278.4 1479.7 Z" fill="#000000" fill-rule="nonzero" fill-opacity="1" /><path clip-path="url(#clip600)" d="M1292.28 1451.02 L1314.51 1451.02 L1314.51 1453.01 L1301.96 1485.58 L1297.08 1485.58 L1308.88 1454.96 L1292.28 1454.96 L1292.28 1451.02 Z" fill="#000000" fill-rule="nonzero" fill-opacity="1" /><path clip-path="url(#clip600)" d="M1323.67 1451.02 L1342.03 1451.02 L1342.03 1454.96 L1327.96 1454.96 L1327.96 1463.43 Q1328.97 1463.08 1329.99 1462.92 Q1331.01 1462.73 1332.03 1462.73 Q1337.82 1462.73 1341.2 1465.9 Q1344.58 1469.08 1344.58 1474.49 Q1344.58 1480.07 1341.1 1483.17 Q1337.63 1486.25 1331.31 1486.25 Q1329.14 1486.25 1326.87 1485.88 Q1324.62 1485.51 1322.22 1484.77 L1322.22 1480.07 Q1324.3 1481.2 1326.52 1481.76 Q1328.74 1482.32 1331.22 1482.32 Q1335.22 1482.32 1337.56 1480.21 Q1339.9 1478.1 1339.9 1474.49 Q1339.9 1470.88 1337.56 1468.77 Q1335.22 1466.67 1331.22 1466.67 Q1329.34 1466.67 1327.47 1467.08 Q1325.62 1467.5 1323.67 1468.38 L1323.67 1451.02 Z" fill="#000000" fill-rule="nonzero" fill-opacity="1" /><path clip-path="url(#clip600)" d="M1606.36 1481.64 L1614 1481.64 L1614 1455.28 L1605.69 1456.95 L1605.69 1452.69 L1613.95 1451.02 L1618.63 1451.02 L1618.63 1481.64 L1626.26 1481.64 L1626.26 1485.58 L1606.36 1485.58 L1606.36 1481.64 Z" fill="#000000" fill-rule="nonzero" fill-opacity="1" /><path clip-path="url(#clip600)" d="M1635.71 1479.7 L1640.59 1479.7 L1640.59 1485.58 L1635.71 1485.58 L1635.71 1479.7 Z" fill="#000000" fill-rule="nonzero" fill-opacity="1" /><path clip-path="url(#clip600)" d="M1660.78 1454.1 Q1657.17 1454.1 1655.34 1457.66 Q1653.53 1461.2 1653.53 1468.33 Q1653.53 1475.44 1655.34 1479.01 Q1657.17 1482.55 1660.78 1482.55 Q1664.41 1482.55 1666.22 1479.01 Q1668.05 1475.44 1668.05 1468.33 Q1668.05 1461.2 1666.22 1457.66 Q1664.41 1454.1 1660.78 1454.1 M1660.78 1450.39 Q1666.59 1450.39 1669.64 1455 Q1672.72 1459.58 1672.72 1468.33 Q1672.72 1477.06 1669.64 1481.67 Q1666.59 1486.25 1660.78 1486.25 Q1654.97 1486.25 1651.89 1481.67 Q1648.83 1477.06 1648.83 1468.33 Q1648.83 1459.58 1651.89 1455 Q1654.97 1450.39 1660.78 1450.39 Z" fill="#000000" fill-rule="nonzero" fill-opacity="1" /><path clip-path="url(#clip600)" d="M1690.94 1454.1 Q1687.33 1454.1 1685.5 1457.66 Q1683.69 1461.2 1683.69 1468.33 Q1683.69 1475.44 1685.5 1479.01 Q1687.33 1482.55 1690.94 1482.55 Q1694.57 1482.55 1696.38 1479.01 Q1698.21 1475.44 1698.21 1468.33 Q1698.21 1461.2 1696.38 1457.66 Q1694.57 1454.1 1690.94 1454.1 M1690.94 1450.39 Q1696.75 1450.39 1699.81 1455 Q1702.88 1459.58 1702.88 1468.33 Q1702.88 1477.06 1699.81 1481.67 Q1696.75 1486.25 1690.94 1486.25 Q1685.13 1486.25 1682.05 1481.67 Q1679 1477.06 1679 1468.33 Q1679 1459.58 1682.05 1455 Q1685.13 1450.39 1690.94 1450.39 Z" fill="#000000" fill-rule="nonzero" fill-opacity="1" /><path clip-path="url(#clip600)" d="M1965.71 1481.64 L1973.34 1481.64 L1973.34 1455.28 L1965.03 1456.95 L1965.03 1452.69 L1973.3 1451.02 L1977.97 1451.02 L1977.97 1481.64 L1985.61 1481.64 L1985.61 1485.58 L1965.71 1485.58 L1965.71 1481.64 Z" fill="#000000" fill-rule="nonzero" fill-opacity="1" /><path clip-path="url(#clip600)" d="M1995.06 1479.7 L1999.94 1479.7 L1999.94 1485.58 L1995.06 1485.58 L1995.06 1479.7 Z" fill="#000000" fill-rule="nonzero" fill-opacity="1" /><path clip-path="url(#clip600)" d="M2014.15 1481.64 L2030.47 1481.64 L2030.47 1485.58 L2008.53 1485.58 L2008.53 1481.64 Q2011.19 1478.89 2015.78 1474.26 Q2020.38 1469.61 2021.56 1468.27 Q2023.81 1465.74 2024.69 1464.01 Q2025.59 1462.25 2025.59 1460.56 Q2025.59 1457.8 2023.65 1456.07 Q2021.72 1454.33 2018.62 1454.33 Q2016.42 1454.33 2013.97 1455.09 Q2011.54 1455.86 2008.76 1457.41 L2008.76 1452.69 Q2011.59 1451.55 2014.04 1450.97 Q2016.49 1450.39 2018.53 1450.39 Q2023.9 1450.39 2027.09 1453.08 Q2030.29 1455.77 2030.29 1460.26 Q2030.29 1462.39 2029.48 1464.31 Q2028.69 1466.2 2026.59 1468.8 Q2026.01 1469.47 2022.9 1472.69 Q2019.8 1475.88 2014.15 1481.64 Z" fill="#000000" fill-rule="nonzero" fill-opacity="1" /><path clip-path="url(#clip600)" d="M2040.34 1451.02 L2058.69 1451.02 L2058.69 1454.96 L2044.62 1454.96 L2044.62 1463.43 Q2045.64 1463.08 2046.65 1462.92 Q2047.67 1462.73 2048.69 1462.73 Q2054.48 1462.73 2057.86 1465.9 Q2061.24 1469.08 2061.24 1474.49 Q2061.24 1480.07 2057.77 1483.17 Q2054.29 1486.25 2047.97 1486.25 Q2045.8 1486.25 2043.53 1485.88 Q2041.28 1485.51 2038.88 1484.77 L2038.88 1480.07 Q2040.96 1481.2 2043.18 1481.76 Q2045.4 1482.32 2047.88 1482.32 Q2051.89 1482.32 2054.22 1480.21 Q2056.56 1478.1 2056.56 1474.49 Q2056.56 1470.88 2054.22 1468.77 Q2051.89 1466.67 2047.88 1466.67 Q2046.01 1466.67 2044.13 1467.08 Q2042.28 1467.5 2040.34 1468.38 L2040.34 1451.02 Z" fill="#000000" fill-rule="nonzero" fill-opacity="1" /><path clip-path="url(#clip600)" d="M1311.27 1545.45 L1291 1545.45 Q1291.47 1554.96 1293.67 1559 Q1296.41 1563.97 1301.15 1563.97 Q1305.92 1563.97 1308.57 1558.97 Q1310.89 1554.58 1311.27 1545.45 M1311.17 1540.03 Q1310.28 1531 1308.57 1527.81 Q1305.83 1522.78 1301.15 1522.78 Q1296.28 1522.78 1293.7 1527.75 Q1291.66 1531.76 1291.06 1540.03 L1311.17 1540.03 M1301.15 1518.01 Q1308.79 1518.01 1313.15 1524.76 Q1317.51 1531.47 1317.51 1543.38 Q1317.51 1555.25 1313.15 1562 Q1308.79 1568.78 1301.15 1568.78 Q1293.48 1568.78 1289.15 1562 Q1284.79 1555.25 1284.79 1543.38 Q1284.79 1531.47 1289.15 1524.76 Q1293.48 1518.01 1301.15 1518.01 Z" fill="#000000" fill-rule="nonzero" fill-opacity="1" /><polyline clip-path="url(#clip602)" style="stroke:#000000; stroke-linecap:round; stroke-linejoin:round; stroke-width:2; stroke-opacity:0.1; fill:none" points="249.542,1217.62 2352.76,1217.62 "/>
<polyline clip-path="url(#clip602)" style="stroke:#000000; stroke-linecap:round; stroke-linejoin:round; stroke-width:2; stroke-opacity:0.1; fill:none" points="249.542,939.372 2352.76,939.372 "/>
<polyline clip-path="url(#clip602)" style="stroke:#000000; stroke-linecap:round; stroke-linejoin:round; stroke-width:2; stroke-opacity:0.1; fill:none" points="249.542,661.127 2352.76,661.127 "/>
<polyline clip-path="url(#clip602)" style="stroke:#000000; stroke-linecap:round; stroke-linejoin:round; stroke-width:2; stroke-opacity:0.1; fill:none" points="249.542,382.881 2352.76,382.881 "/>
<polyline clip-path="url(#clip602)" style="stroke:#000000; stroke-linecap:round; stroke-linejoin:round; stroke-width:2; stroke-opacity:0.1; fill:none" points="249.542,104.635 2352.76,104.635 "/>
<polyline clip-path="url(#clip600)" style="stroke:#000000; stroke-linecap:round; stroke-linejoin:round; stroke-width:4; stroke-opacity:1; fill:none" points="249.542,1423.18 249.542,47.2441 "/>
<polyline clip-path="url(#clip600)" style="stroke:#000000; stroke-linecap:round; stroke-linejoin:round; stroke-width:4; stroke-opacity:1; fill:none" points="249.542,1217.62 268.44,1217.62 "/>
<polyline clip-path="url(#clip600)" style="stroke:#000000; stroke-linecap:round; stroke-linejoin:round; stroke-width:4; stroke-opacity:1; fill:none" points="249.542,939.372 268.44,939.372 "/>
<polyline clip-path="url(#clip600)" style="stroke:#000000; stroke-linecap:round; stroke-linejoin:round; stroke-width:4; stroke-opacity:1; fill:none" points="249.542,661.127 268.44,661.127 "/>
<polyline clip-path="url(#clip600)" style="stroke:#000000; stroke-linecap:round; stroke-linejoin:round; stroke-width:4; stroke-opacity:1; fill:none" points="249.542,382.881 268.44,382.881 "/>
<polyline clip-path="url(#clip600)" style="stroke:#000000; stroke-linecap:round; stroke-linejoin:round; stroke-width:4; stroke-opacity:1; fill:none" points="249.542,104.635 268.44,104.635 "/>
<path clip-path="url(#clip600)" d="M126.205 1203.42 Q122.593 1203.42 120.765 1206.98 Q118.959 1210.52 118.959 1217.65 Q118.959 1224.76 120.765 1228.32 Q122.593 1231.87 126.205 1231.87 Q129.839 1231.87 131.644 1228.32 Q133.473 1224.76 133.473 1217.65 Q133.473 1210.52 131.644 1206.98 Q129.839 1203.42 126.205 1203.42 M126.205 1199.71 Q132.015 1199.71 135.07 1204.32 Q138.149 1208.9 138.149 1217.65 Q138.149 1226.38 135.07 1230.99 Q132.015 1235.57 126.205 1235.57 Q120.394 1235.57 117.316 1230.99 Q114.26 1226.38 114.26 1217.65 Q114.26 1208.9 117.316 1204.32 Q120.394 1199.71 126.205 1199.71 Z" fill="#000000" fill-rule="nonzero" fill-opacity="1" /><path clip-path="url(#clip600)" d="M146.366 1229.02 L151.251 1229.02 L151.251 1234.9 L146.366 1234.9 L146.366 1229.02 Z" fill="#000000" fill-rule="nonzero" fill-opacity="1" /><path clip-path="url(#clip600)" d="M162.246 1230.96 L169.885 1230.96 L169.885 1204.6 L161.575 1206.26 L161.575 1202 L169.839 1200.34 L174.514 1200.34 L174.514 1230.96 L182.153 1230.96 L182.153 1234.9 L162.246 1234.9 L162.246 1230.96 Z" fill="#000000" fill-rule="nonzero" fill-opacity="1" /><path clip-path="url(#clip600)" d="M201.598 1203.42 Q197.987 1203.42 196.158 1206.98 Q194.352 1210.52 194.352 1217.65 Q194.352 1224.76 196.158 1228.32 Q197.987 1231.87 201.598 1231.87 Q205.232 1231.87 207.037 1228.32 Q208.866 1224.76 208.866 1217.65 Q208.866 1210.52 207.037 1206.98 Q205.232 1203.42 201.598 1203.42 M201.598 1199.71 Q207.408 1199.71 210.463 1204.32 Q213.542 1208.9 213.542 1217.65 Q213.542 1226.38 210.463 1230.99 Q207.408 1235.57 201.598 1235.57 Q195.787 1235.57 192.709 1230.99 Q189.653 1226.38 189.653 1217.65 Q189.653 1208.9 192.709 1204.32 Q195.787 1199.71 201.598 1199.71 Z" fill="#000000" fill-rule="nonzero" fill-opacity="1" /><path clip-path="url(#clip600)" d="M127.2 925.171 Q123.589 925.171 121.76 928.736 Q119.955 932.277 119.955 939.407 Q119.955 946.513 121.76 950.078 Q123.589 953.62 127.2 953.62 Q130.834 953.62 132.64 950.078 Q134.468 946.513 134.468 939.407 Q134.468 932.277 132.64 928.736 Q130.834 925.171 127.2 925.171 M127.2 921.467 Q133.01 921.467 136.066 926.074 Q139.144 930.657 139.144 939.407 Q139.144 948.134 136.066 952.74 Q133.01 957.324 127.2 957.324 Q121.39 957.324 118.311 952.74 Q115.256 948.134 115.256 939.407 Q115.256 930.657 118.311 926.074 Q121.39 921.467 127.2 921.467 Z" fill="#000000" fill-rule="nonzero" fill-opacity="1" /><path clip-path="url(#clip600)" d="M147.362 950.773 L152.246 950.773 L152.246 956.652 L147.362 956.652 L147.362 950.773 Z" fill="#000000" fill-rule="nonzero" fill-opacity="1" /><path clip-path="url(#clip600)" d="M163.241 952.717 L170.88 952.717 L170.88 926.352 L162.57 928.018 L162.57 923.759 L170.834 922.092 L175.51 922.092 L175.51 952.717 L183.149 952.717 L183.149 956.652 L163.241 956.652 L163.241 952.717 Z" fill="#000000" fill-rule="nonzero" fill-opacity="1" /><path clip-path="url(#clip600)" d="M192.639 922.092 L210.996 922.092 L210.996 926.027 L196.922 926.027 L196.922 934.5 Q197.94 934.152 198.959 933.99 Q199.977 933.805 200.996 933.805 Q206.783 933.805 210.162 936.977 Q213.542 940.148 213.542 945.564 Q213.542 951.143 210.07 954.245 Q206.598 957.324 200.278 957.324 Q198.102 957.324 195.834 956.953 Q193.588 956.583 191.181 955.842 L191.181 951.143 Q193.264 952.277 195.487 952.833 Q197.709 953.388 200.186 953.388 Q204.19 953.388 206.528 951.282 Q208.866 949.176 208.866 945.564 Q208.866 941.953 206.528 939.847 Q204.19 937.74 200.186 937.74 Q198.311 937.74 196.436 938.157 Q194.584 938.574 192.639 939.453 L192.639 922.092 Z" fill="#000000" fill-rule="nonzero" fill-opacity="1" /><path clip-path="url(#clip600)" d="M126.205 646.925 Q122.593 646.925 120.765 650.49 Q118.959 654.032 118.959 661.161 Q118.959 668.268 120.765 671.833 Q122.593 675.374 126.205 675.374 Q129.839 675.374 131.644 671.833 Q133.473 668.268 133.473 661.161 Q133.473 654.032 131.644 650.49 Q129.839 646.925 126.205 646.925 M126.205 643.222 Q132.015 643.222 135.07 647.828 Q138.149 652.411 138.149 661.161 Q138.149 669.888 135.07 674.495 Q132.015 679.078 126.205 679.078 Q120.394 679.078 117.316 674.495 Q114.26 669.888 114.26 661.161 Q114.26 652.411 117.316 647.828 Q120.394 643.222 126.205 643.222 Z" fill="#000000" fill-rule="nonzero" fill-opacity="1" /><path clip-path="url(#clip600)" d="M146.366 672.527 L151.251 672.527 L151.251 678.407 L146.366 678.407 L146.366 672.527 Z" fill="#000000" fill-rule="nonzero" fill-opacity="1" /><path clip-path="url(#clip600)" d="M165.464 674.471 L181.783 674.471 L181.783 678.407 L159.839 678.407 L159.839 674.471 Q162.501 671.717 167.084 667.087 Q171.69 662.434 172.871 661.092 Q175.116 658.569 175.996 656.833 Q176.899 655.073 176.899 653.384 Q176.899 650.629 174.954 648.893 Q173.033 647.157 169.931 647.157 Q167.732 647.157 165.278 647.921 Q162.848 648.685 160.07 650.235 L160.07 645.513 Q162.894 644.379 165.348 643.8 Q167.802 643.222 169.839 643.222 Q175.209 643.222 178.403 645.907 Q181.598 648.592 181.598 653.083 Q181.598 655.212 180.788 657.134 Q180.001 659.032 177.894 661.624 Q177.315 662.296 174.214 665.513 Q171.112 668.708 165.464 674.471 Z" fill="#000000" fill-rule="nonzero" fill-opacity="1" /><path clip-path="url(#clip600)" d="M201.598 646.925 Q197.987 646.925 196.158 650.49 Q194.352 654.032 194.352 661.161 Q194.352 668.268 196.158 671.833 Q197.987 675.374 201.598 675.374 Q205.232 675.374 207.037 671.833 Q208.866 668.268 208.866 661.161 Q208.866 654.032 207.037 650.49 Q205.232 646.925 201.598 646.925 M201.598 643.222 Q207.408 643.222 210.463 647.828 Q213.542 652.411 213.542 661.161 Q213.542 669.888 210.463 674.495 Q207.408 679.078 201.598 679.078 Q195.787 679.078 192.709 674.495 Q189.653 669.888 189.653 661.161 Q189.653 652.411 192.709 647.828 Q195.787 643.222 201.598 643.222 Z" fill="#000000" fill-rule="nonzero" fill-opacity="1" /><path clip-path="url(#clip600)" d="M127.2 368.68 Q123.589 368.68 121.76 372.244 Q119.955 375.786 119.955 382.916 Q119.955 390.022 121.76 393.587 Q123.589 397.128 127.2 397.128 Q130.834 397.128 132.64 393.587 Q134.468 390.022 134.468 382.916 Q134.468 375.786 132.64 372.244 Q130.834 368.68 127.2 368.68 M127.2 364.976 Q133.01 364.976 136.066 369.582 Q139.144 374.166 139.144 382.916 Q139.144 391.642 136.066 396.249 Q133.01 400.832 127.2 400.832 Q121.39 400.832 118.311 396.249 Q115.256 391.642 115.256 382.916 Q115.256 374.166 118.311 369.582 Q121.39 364.976 127.2 364.976 Z" fill="#000000" fill-rule="nonzero" fill-opacity="1" /><path clip-path="url(#clip600)" d="M147.362 394.281 L152.246 394.281 L152.246 400.161 L147.362 400.161 L147.362 394.281 Z" fill="#000000" fill-rule="nonzero" fill-opacity="1" /><path clip-path="url(#clip600)" d="M166.459 396.226 L182.778 396.226 L182.778 400.161 L160.834 400.161 L160.834 396.226 Q163.496 393.471 168.079 388.841 Q172.686 384.189 173.866 382.846 Q176.112 380.323 176.991 378.587 Q177.894 376.828 177.894 375.138 Q177.894 372.383 175.95 370.647 Q174.028 368.911 170.927 368.911 Q168.727 368.911 166.274 369.675 Q163.843 370.439 161.065 371.99 L161.065 367.268 Q163.89 366.133 166.343 365.555 Q168.797 364.976 170.834 364.976 Q176.204 364.976 179.399 367.661 Q182.593 370.346 182.593 374.837 Q182.593 376.967 181.783 378.888 Q180.996 380.786 178.889 383.379 Q178.311 384.05 175.209 387.267 Q172.107 390.462 166.459 396.226 Z" fill="#000000" fill-rule="nonzero" fill-opacity="1" /><path clip-path="url(#clip600)" d="M192.639 365.601 L210.996 365.601 L210.996 369.536 L196.922 369.536 L196.922 378.008 Q197.94 377.661 198.959 377.499 Q199.977 377.314 200.996 377.314 Q206.783 377.314 210.162 380.485 Q213.542 383.656 213.542 389.073 Q213.542 394.652 210.07 397.753 Q206.598 400.832 200.278 400.832 Q198.102 400.832 195.834 400.462 Q193.588 400.091 191.181 399.351 L191.181 394.652 Q193.264 395.786 195.487 396.341 Q197.709 396.897 200.186 396.897 Q204.19 396.897 206.528 394.791 Q208.866 392.684 208.866 389.073 Q208.866 385.462 206.528 383.355 Q204.19 381.249 200.186 381.249 Q198.311 381.249 196.436 381.666 Q194.584 382.082 192.639 382.962 L192.639 365.601 Z" fill="#000000" fill-rule="nonzero" fill-opacity="1" /><path clip-path="url(#clip600)" d="M126.205 90.4338 Q122.593 90.4338 120.765 93.9986 Q118.959 97.5403 118.959 104.67 Q118.959 111.776 120.765 115.341 Q122.593 118.883 126.205 118.883 Q129.839 118.883 131.644 115.341 Q133.473 111.776 133.473 104.67 Q133.473 97.5403 131.644 93.9986 Q129.839 90.4338 126.205 90.4338 M126.205 86.7302 Q132.015 86.7302 135.07 91.3366 Q138.149 95.9199 138.149 104.67 Q138.149 113.397 135.07 118.003 Q132.015 122.586 126.205 122.586 Q120.394 122.586 117.316 118.003 Q114.26 113.397 114.26 104.67 Q114.26 95.9199 117.316 91.3366 Q120.394 86.7302 126.205 86.7302 Z" fill="#000000" fill-rule="nonzero" fill-opacity="1" /><path clip-path="url(#clip600)" d="M146.366 116.036 L151.251 116.036 L151.251 121.915 L146.366 121.915 L146.366 116.036 Z" fill="#000000" fill-rule="nonzero" fill-opacity="1" /><path clip-path="url(#clip600)" d="M175.602 103.281 Q178.959 103.999 180.834 106.267 Q182.732 108.536 182.732 111.869 Q182.732 116.985 179.214 119.786 Q175.695 122.586 169.214 122.586 Q167.038 122.586 164.723 122.147 Q162.431 121.73 159.978 120.873 L159.978 116.36 Q161.922 117.494 164.237 118.073 Q166.552 118.651 169.075 118.651 Q173.473 118.651 175.764 116.915 Q178.079 115.179 178.079 111.869 Q178.079 108.813 175.926 107.1 Q173.797 105.364 169.977 105.364 L165.95 105.364 L165.95 101.522 L170.163 101.522 Q173.612 101.522 175.44 100.156 Q177.269 98.7671 177.269 96.1745 Q177.269 93.5125 175.371 92.1005 Q173.496 90.6653 169.977 90.6653 Q168.056 90.6653 165.857 91.082 Q163.658 91.4986 161.019 92.3783 L161.019 88.2116 Q163.681 87.4709 165.996 87.1005 Q168.334 86.7302 170.394 86.7302 Q175.718 86.7302 178.82 89.1607 Q181.922 91.5681 181.922 95.6884 Q181.922 98.5588 180.278 100.55 Q178.635 102.517 175.602 103.281 Z" fill="#000000" fill-rule="nonzero" fill-opacity="1" /><path clip-path="url(#clip600)" d="M201.598 90.4338 Q197.987 90.4338 196.158 93.9986 Q194.352 97.5403 194.352 104.67 Q194.352 111.776 196.158 115.341 Q197.987 118.883 201.598 118.883 Q205.232 118.883 207.037 115.341 Q208.866 111.776 208.866 104.67 Q208.866 97.5403 207.037 93.9986 Q205.232 90.4338 201.598 90.4338 M201.598 86.7302 Q207.408 86.7302 210.463 91.3366 Q213.542 95.9199 213.542 104.67 Q213.542 113.397 210.463 118.003 Q207.408 122.586 201.598 122.586 Q195.787 122.586 192.709 118.003 Q189.653 113.397 189.653 104.67 Q189.653 95.9199 192.709 91.3366 Q195.787 86.7302 201.598 86.7302 Z" fill="#000000" fill-rule="nonzero" fill-opacity="1" /><path clip-path="url(#clip600)" d="M33.7671 725.138 L14.479 725.138 L14.479 719.282 L64.0042 719.282 L64.0042 725.138 L58.657 725.138 Q61.8398 726.984 63.3994 729.817 Q64.9272 732.618 64.9272 736.565 Q64.9272 743.026 59.771 747.1 Q54.6147 751.142 46.212 751.142 Q37.8093 751.142 32.6531 747.1 Q27.4968 743.026 27.4968 736.565 Q27.4968 732.618 29.0564 729.817 Q30.5842 726.984 33.7671 725.138 M46.212 745.095 Q52.6732 745.095 56.3653 742.453 Q60.0256 739.779 60.0256 735.132 Q60.0256 730.485 56.3653 727.812 Q52.6732 725.138 46.212 725.138 Q39.7508 725.138 36.0905 727.812 Q32.3984 730.485 32.3984 735.132 Q32.3984 739.779 36.0905 742.453 Q39.7508 745.095 46.212 745.095 Z" fill="#000000" fill-rule="nonzero" fill-opacity="1" /><circle clip-path="url(#clip602)" cx="309.067" cy="1274.14" r="14.4" fill="#009af9" fill-rule="evenodd" fill-opacity="1" stroke="#000000" stroke-opacity="1" stroke-width="3.2"/>
<circle clip-path="url(#clip602)" cx="399.256" cy="923.4" r="14.4" fill="#009af9" fill-rule="evenodd" fill-opacity="1" stroke="#000000" stroke-opacity="1" stroke-width="3.2"/>
<circle clip-path="url(#clip602)" cx="489.446" cy="672.873" r="14.4" fill="#009af9" fill-rule="evenodd" fill-opacity="1" stroke="#000000" stroke-opacity="1" stroke-width="3.2"/>
<circle clip-path="url(#clip602)" cx="579.635" cy="489.71" r="14.4" fill="#009af9" fill-rule="evenodd" fill-opacity="1" stroke="#000000" stroke-opacity="1" stroke-width="3.2"/>
<circle clip-path="url(#clip602)" cx="669.824" cy="360.86" r="14.4" fill="#009af9" fill-rule="evenodd" fill-opacity="1" stroke="#000000" stroke-opacity="1" stroke-width="3.2"/>
<circle clip-path="url(#clip602)" cx="760.013" cy="258.471" r="14.4" fill="#009af9" fill-rule="evenodd" fill-opacity="1" stroke="#000000" stroke-opacity="1" stroke-width="3.2"/>
<circle clip-path="url(#clip602)" cx="850.203" cy="179.519" r="14.4" fill="#009af9" fill-rule="evenodd" fill-opacity="1" stroke="#000000" stroke-opacity="1" stroke-width="3.2"/>
<circle clip-path="url(#clip602)" cx="940.392" cy="128.583" r="14.4" fill="#009af9" fill-rule="evenodd" fill-opacity="1" stroke="#000000" stroke-opacity="1" stroke-width="3.2"/>
<circle clip-path="url(#clip602)" cx="1030.58" cy="100.411" r="14.4" fill="#009af9" fill-rule="evenodd" fill-opacity="1" stroke="#000000" stroke-opacity="1" stroke-width="3.2"/>
<circle clip-path="url(#clip602)" cx="1120.77" cy="86.1857" r="14.4" fill="#009af9" fill-rule="evenodd" fill-opacity="1" stroke="#000000" stroke-opacity="1" stroke-width="3.2"/>
<circle clip-path="url(#clip602)" cx="1210.96" cy="96.7257" r="14.4" fill="#009af9" fill-rule="evenodd" fill-opacity="1" stroke="#000000" stroke-opacity="1" stroke-width="3.2"/>
<circle clip-path="url(#clip602)" cx="1301.15" cy="119.308" r="14.4" fill="#009af9" fill-rule="evenodd" fill-opacity="1" stroke="#000000" stroke-opacity="1" stroke-width="3.2"/>
<circle clip-path="url(#clip602)" cx="1391.34" cy="161.725" r="14.4" fill="#009af9" fill-rule="evenodd" fill-opacity="1" stroke="#000000" stroke-opacity="1" stroke-width="3.2"/>
<circle clip-path="url(#clip602)" cx="1481.53" cy="216.704" r="14.4" fill="#009af9" fill-rule="evenodd" fill-opacity="1" stroke="#000000" stroke-opacity="1" stroke-width="3.2"/>
<circle clip-path="url(#clip602)" cx="1571.72" cy="290.348" r="14.4" fill="#009af9" fill-rule="evenodd" fill-opacity="1" stroke="#000000" stroke-opacity="1" stroke-width="3.2"/>
<circle clip-path="url(#clip602)" cx="1661.91" cy="376.302" r="14.4" fill="#009af9" fill-rule="evenodd" fill-opacity="1" stroke="#000000" stroke-opacity="1" stroke-width="3.2"/>
<circle clip-path="url(#clip602)" cx="1752.1" cy="479.062" r="14.4" fill="#009af9" fill-rule="evenodd" fill-opacity="1" stroke="#000000" stroke-opacity="1" stroke-width="3.2"/>
<circle clip-path="url(#clip602)" cx="1842.28" cy="595.956" r="14.4" fill="#009af9" fill-rule="evenodd" fill-opacity="1" stroke="#000000" stroke-opacity="1" stroke-width="3.2"/>
<circle clip-path="url(#clip602)" cx="1932.47" cy="726.259" r="14.4" fill="#009af9" fill-rule="evenodd" fill-opacity="1" stroke="#000000" stroke-opacity="1" stroke-width="3.2"/>
<circle clip-path="url(#clip602)" cx="2022.66" cy="871.452" r="14.4" fill="#009af9" fill-rule="evenodd" fill-opacity="1" stroke="#000000" stroke-opacity="1" stroke-width="3.2"/>
<circle clip-path="url(#clip602)" cx="2112.85" cy="1030.36" r="14.4" fill="#009af9" fill-rule="evenodd" fill-opacity="1" stroke="#000000" stroke-opacity="1" stroke-width="3.2"/>
<circle clip-path="url(#clip602)" cx="2203.04" cy="1201.64" r="14.4" fill="#009af9" fill-rule="evenodd" fill-opacity="1" stroke="#000000" stroke-opacity="1" stroke-width="3.2"/>
<circle clip-path="url(#clip602)" cx="2293.23" cy="1384.24" r="14.4" fill="#009af9" fill-rule="evenodd" fill-opacity="1" stroke="#000000" stroke-opacity="1" stroke-width="3.2"/>
<path clip-path="url(#clip600)" d="M1977.79 196.789 L2282.65 196.789 L2282.65 93.1086 L1977.79 93.1086  Z" fill="#ffffff" fill-rule="evenodd" fill-opacity="1"/>
<polyline clip-path="url(#clip600)" style="stroke:#000000; stroke-linecap:round; stroke-linejoin:round; stroke-width:4; stroke-opacity:1; fill:none" points="1977.79,196.789 2282.65,196.789 2282.65,93.1086 1977.79,93.1086 1977.79,196.789 "/>
<circle clip-path="url(#clip600)" cx="2071.27" cy="144.949" r="20.48" fill="#009af9" fill-rule="evenodd" fill-opacity="1" stroke="#000000" stroke-opacity="1" stroke-width="4.55111"/>
<path clip-path="url(#clip600)" d="M2172.36 140.377 L2178.03 156.395 L2186.13 136.303 L2190.65 136.303 L2180.16 162.229 L2180.16 172.09 L2175.9 172.09 L2175.9 162.229 L2169.1 142.877 Q2168.08 139.96 2165.88 139.96 L2164.74 139.96 L2164.74 136.303 L2166.36 136.303 Q2170.92 136.303 2172.36 140.377 Z" fill="#000000" fill-rule="nonzero" fill-opacity="1" /><path clip-path="url(#clip600)" d="M2197.08 140.701 L2226.76 140.701 L2226.76 144.59 L2197.08 144.59 L2197.08 140.701 M2197.08 150.145 L2226.76 150.145 L2226.76 154.081 L2197.08 154.081 L2197.08 150.145 Z" fill="#000000" fill-rule="nonzero" fill-opacity="1" /><path clip-path="url(#clip600)" d="M2249.7 131.743 L2237.89 150.192 L2249.7 150.192 L2249.7 131.743 M2248.47 127.669 L2254.35 127.669 L2254.35 150.192 L2259.28 150.192 L2259.28 154.081 L2254.35 154.081 L2254.35 162.229 L2249.7 162.229 L2249.7 154.081 L2234.09 154.081 L2234.09 149.567 L2248.47 127.669 Z" fill="#000000" fill-rule="nonzero" fill-opacity="1" /></svg>