<?xml version="1.0" encoding="utf-8"?>
<svg xmlns="http://www.w3.org/2000/svg" xmlns:xlink="http://www.w3.org/1999/xlink" width="600" height="400" viewBox="0 0 2400 1600">
<defs>
  <clipPath id="clip060">
    <rect x="0" y="0" width="2400" height="1600"/>
  </clipPath>
</defs>
<path clip-path="url(#clip060)" d="M0 1600 L2400 1600 L2400 8.88178e-14 L0 8.88178e-14  Z" fill="#ffffff" fill-rule="evenodd" fill-opacity="1"/>
<defs>
  <clipPath id="clip061">
    <rect x="480" y="0" width="1681" height="1600"/>
  </clipPath>
</defs>
<path clip-path="url(#clip060)" d="M219.38 1423.18 L2352.76 1423.18 L2352.76 47.2441 L219.38 47.2441  Z" fill="#ffffff" fill-rule="evenodd" fill-opacity="1"/>
<defs>
  <clipPath id="clip062">
    <rect x="219" y="47" width="2134" height="1377"/>
  </clipPath>
</defs>
<polyline clip-path="url(#clip062)" style="stroke:#000000; stroke-linecap:round; stroke-linejoin:round; stroke-width:2; stroke-opacity:0.1; fill:none" points="279.759,1423.18 279.759,47.2441 "/>
<polyline clip-path="url(#clip062)" style="stroke:#000000; stroke-linecap:round; stroke-linejoin:round; stroke-width:2; stroke-opacity:0.1; fill:none" points="758.954,1423.18 758.954,47.2441 "/>
<polyline clip-path="url(#clip062)" style="stroke:#000000; stroke-linecap:round; stroke-linejoin:round; stroke-width:2; stroke-opacity:0.1; fill:none" points="1238.15,1423.18 1238.15,47.2441 "/>
<polyline clip-path="url(#clip062)" style="stroke:#000000; stroke-linecap:round; stroke-linejoin:round; stroke-width:2; stroke-opacity:0.1; fill:none" points="1717.34,1423.18 1717.34,47.2441 "/>
<polyline clip-path="url(#clip062)" style="stroke:#000000; stroke-linecap:round; stroke-linejoin:round; stroke-width:2; stroke-opacity:0.1; fill:none" points="2196.54,1423.18 2196.54,47.2441 "/>
<polyline clip-path="url(#clip060)" style="stroke:#000000; stroke-linecap:round; stroke-linejoin:round; stroke-width:4; stroke-opacity:1; fill:none" points="219.38,1423.18 2352.76,1423.18 "/>
<polyline clip-path="url(#clip060)" style="stroke:#000000; stroke-linecap:round; stroke-linejoin:round; stroke-width:4; stroke-opacity:1; fill:none" points="279.759,1423.18 279.759,1404.28 "/>
<polyline clip-path="url(#clip060)" style="stroke:#000000; stroke-linecap:round; stroke-linejoin:round; stroke-width:4; stroke-opacity:1; fill:none" points="758.954,1423.18 758.954,1404.28 "/>
<polyline clip-path="url(#clip060)" style="stroke:#000000; stroke-linecap:round; stroke-linejoin:round; stroke-width:4; stroke-opacity:1; fill:none" points="1238.15,1423.18 1238.15,1404.28 "/>
<polyline clip-path="url(#clip060)" style="stroke:#000000; stroke-linecap:round; stroke-linejoin:round; stroke-width:4; stroke-opacity:1; fill:none" points="1717.34,1423.18 1717.34,1404.28 "/>
<polyline clip-path="url(#clip060)" style="stroke:#000000; stroke-linecap:round; stroke-linejoin:round; stroke-width:4; stroke-opacity:1; fill:none" points="2196.54,1423.18 2196.54,1404.28 "/>
<path clip-path="url(#clip060)" d="M279.759 1454.1 Q276.148 1454.1 274.319 1457.66 Q272.513 1461.2 272.513 1468.33 Q272.513 1475.44 274.319 1479.01 Q276.148 1482.55 279.759 1482.55 Q283.393 1482.55 285.199 1479.01 Q287.027 1475.44 287.027 1468.33 Q287.027 1461.2 285.199 1457.66 Q283.393 1454.1 279.759 1454.1 M279.759 1450.39 Q285.569 1450.39 288.624 1455 Q291.703 1459.58 291.703 1468.33 Q291.703 1477.06 288.624 1481.67 Q285.569 1486.25 279.759 1486.25 Q273.949 1486.25 270.87 1481.67 Q267.814 1477.06 267.814 1468.33 Q267.814 1459.58 270.87 1455 Q273.949 1450.39 279.759 1450.39 Z" fill="#000000" fill-rule="nonzero" fill-opacity="1" /><path clip-path="url(#clip060)" d="M749.336 1481.64 L756.974 1481.64 L756.974 1455.28 L748.664 1456.95 L748.664 1452.69 L756.928 1451.02 L761.604 1451.02 L761.604 1481.64 L769.243 1481.64 L769.243 1485.58 L749.336 1485.58 L749.336 1481.64 Z" fill="#000000" fill-rule="nonzero" fill-opacity="1" /><path clip-path="url(#clip060)" d="M1232.8 1481.64 L1249.12 1481.64 L1249.12 1485.58 L1227.18 1485.58 L1227.18 1481.64 Q1229.84 1478.89 1234.42 1474.26 Q1239.03 1469.61 1240.21 1468.27 Q1242.45 1465.74 1243.33 1464.01 Q1244.24 1462.25 1244.24 1460.56 Q1244.24 1457.8 1242.29 1456.07 Q1240.37 1454.33 1237.27 1454.33 Q1235.07 1454.33 1232.62 1455.09 Q1230.19 1455.86 1227.41 1457.41 L1227.41 1452.69 Q1230.23 1451.55 1232.69 1450.97 Q1235.14 1450.39 1237.18 1450.39 Q1242.55 1450.39 1245.74 1453.08 Q1248.94 1455.77 1248.94 1460.26 Q1248.94 1462.39 1248.13 1464.31 Q1247.34 1466.2 1245.23 1468.8 Q1244.65 1469.47 1241.55 1472.69 Q1238.45 1475.88 1232.8 1481.64 Z" fill="#000000" fill-rule="nonzero" fill-opacity="1" /><path clip-path="url(#clip060)" d="M1721.59 1466.95 Q1724.95 1467.66 1726.82 1469.93 Q1728.72 1472.2 1728.72 1475.53 Q1728.72 1480.65 1725.2 1483.45 Q1721.68 1486.25 1715.2 1486.25 Q1713.03 1486.25 1710.71 1485.81 Q1708.42 1485.39 1705.97 1484.54 L1705.97 1480.02 Q1707.91 1481.16 1710.23 1481.74 Q1712.54 1482.32 1715.06 1482.32 Q1719.46 1482.32 1721.75 1480.58 Q1724.07 1478.84 1724.07 1475.53 Q1724.07 1472.48 1721.92 1470.77 Q1719.79 1469.03 1715.97 1469.03 L1711.94 1469.03 L1711.94 1465.19 L1716.15 1465.19 Q1719.6 1465.19 1721.43 1463.82 Q1723.26 1462.43 1723.26 1459.84 Q1723.26 1457.18 1721.36 1455.77 Q1719.48 1454.33 1715.97 1454.33 Q1714.04 1454.33 1711.85 1454.75 Q1709.65 1455.16 1707.01 1456.04 L1707.01 1451.88 Q1709.67 1451.14 1711.98 1450.77 Q1714.32 1450.39 1716.38 1450.39 Q1721.71 1450.39 1724.81 1452.83 Q1727.91 1455.23 1727.91 1459.35 Q1727.91 1462.22 1726.27 1464.21 Q1724.62 1466.18 1721.59 1466.95 Z" fill="#000000" fill-rule="nonzero" fill-opacity="1" /><path clip-path="url(#clip060)" d="M2199.55 1455.09 L2187.74 1473.54 L2199.55 1473.54 L2199.55 1455.09 M2198.32 1451.02 L2204.2 1451.02 L2204.2 1473.54 L2209.13 1473.54 L2209.13 1477.43 L2204.2 1477.43 L2204.2 1485.58 L2199.55 1485.58 L2199.55 1477.43 L2183.95 1477.43 L2183.95 1472.92 L2198.32 1451.02 Z" fill="#000000" fill-rule="nonzero" fill-opacity="1" /><path clip-path="url(#clip060)" d="M1302.68 1532.4 L1289.79 1549.74 L1303.35 1568.04 L1296.44 1568.04 L1286.07 1554.04 L1275.69 1568.04 L1268.79 1568.04 L1282.63 1549.39 L1269.96 1532.4 L1276.87 1532.4 L1286.32 1545.1 L1295.78 1532.4 L1302.68 1532.4 Z" fill="#000000" fill-rule="nonzero" fill-opacity="1" /><polyline clip-path="url(#clip062)" style="stroke:#000000; stroke-linecap:round; stroke-linejoin:round; stroke-width:2; stroke-opacity:0.1; fill:none" points="219.38,1319.49 2352.76,1319.49 "/>
<polyline clip-path="url(#clip062)" style="stroke:#000000; stroke-linecap:round; stroke-linejoin:round; stroke-width:2; stroke-opacity:0.1; fill:none" points="219.38,1011.16 2352.76,1011.16 "/>
<polyline clip-path="url(#clip062)" style="stroke:#000000; stroke-linecap:round; stroke-linejoin:round; stroke-width:2; stroke-opacity:0.1; fill:none" points="219.38,702.838 2352.76,702.838 "/>
<polyline clip-path="url(#clip062)" style="stroke:#000000; stroke-linecap:round; stroke-linejoin:round; stroke-width:2; stroke-opacity:0.1; fill:none" points="219.38,394.512 2352.76,394.512 "/>
<polyline clip-path="url(#clip062)" style="stroke:#000000; stroke-linecap:round; stroke-linejoin:round; stroke-width:2; stroke-opacity:0.1; fill:none" points="219.38,86.1857 2352.76,86.1857 "/>
<polyline clip-path="url(#clip060)" style="stroke:#000000; stroke-linecap:round; stroke-linejoin:round; stroke-width:4; stroke-opacity:1; fill:none" points="219.38,1423.18 219.38,47.2441 "/>
<polyline clip-path="url(#clip060)" style="stroke:#000000; stroke-linecap:round; stroke-linejoin:round; stroke-width:4; stroke-opacity:1; fill:none" points="219.38,1319.49 238.278,1319.49 "/>
<polyline clip-path="url(#clip060)" style="stroke:#000000; stroke-linecap:round; stroke-linejoin:round; stroke-width:4; stroke-opacity:1; fill:none" points="219.38,1011.16 238.278,1011.16 "/>
<polyline clip-path="url(#clip060)" style="stroke:#000000; stroke-linecap:round; stroke-linejoin:round; stroke-width:4; stroke-opacity:1; fill:none" points="219.38,702.838 238.278,702.838 "/>
<polyline clip-path="url(#clip060)" style="stroke:#000000; stroke-linecap:round; stroke-linejoin:round; stroke-width:4; stroke-opacity:1; fill:none" points="219.38,394.512 238.278,394.512 "/>
<polyline clip-path="url(#clip060)" style="stroke:#000000; stroke-linecap:round; stroke-linejoin:round; stroke-width:4; stroke-opacity:1; fill:none" points="219.38,86.1857 238.278,86.1857 "/>
<path clip-path="url(#clip060)" d="M126.205 1305.29 Q122.593 1305.29 120.765 1308.85 Q118.959 1312.39 118.959 1319.52 Q118.959 1326.63 120.765 1330.2 Q122.593 1333.74 126.205 1333.74 Q129.839 1333.74 131.644 1330.2 Q133.473 1326.63 133.473 1319.52 Q133.473 1312.39 131.644 1308.85 Q129.839 1305.29 126.205 1305.29 M126.205 1301.58 Q132.015 1301.58 135.07 1306.19 Q138.149 1310.77 138.149 1319.52 Q138.149 1328.25 135.07 1332.86 Q132.015 1337.44 126.205 1337.44 Q120.394 1337.44 117.316 1332.86 Q114.26 1328.25 114.26 1319.52 Q114.26 1310.77 117.316 1306.19 Q120.394 1301.58 126.205 1301.58 Z" fill="#000000" fill-rule="nonzero" fill-opacity="1" /><path clip-path="url(#clip060)" d="M146.366 1330.89 L151.251 1330.89 L151.251 1336.77 L146.366 1336.77 L146.366 1330.89 Z" fill="#000000" fill-rule="nonzero" fill-opacity="1" /><path clip-path="url(#clip060)" d="M171.436 1305.29 Q167.825 1305.29 165.996 1308.85 Q164.19 1312.39 164.19 1319.52 Q164.19 1326.63 165.996 1330.2 Q167.825 1333.74 171.436 1333.74 Q175.07 1333.74 176.876 1330.2 Q178.704 1326.63 178.704 1319.52 Q178.704 1312.39 176.876 1308.85 Q175.07 1305.29 171.436 1305.29 M171.436 1301.58 Q177.246 1301.58 180.301 1306.19 Q183.38 1310.77 183.38 1319.52 Q183.38 1328.25 180.301 1332.86 Q177.246 1337.44 171.436 1337.44 Q165.626 1337.44 162.547 1332.86 Q159.491 1328.25 159.491 1319.52 Q159.491 1310.77 162.547 1306.19 Q165.626 1301.58 171.436 1301.58 Z" fill="#000000" fill-rule="nonzero" fill-opacity="1" /><path clip-path="url(#clip060)" d="M127.2 996.962 Q123.589 996.962 121.76 1000.53 Q119.955 1004.07 119.955 1011.2 Q119.955 1018.3 121.76 1021.87 Q123.589 1025.41 127.2 1025.41 Q130.834 1025.41 132.64 1021.87 Q134.468 1018.3 134.468 1011.2 Q134.468 1004.07 132.64 1000.53 Q130.834 996.962 127.2 996.962 M127.2 993.259 Q133.01 993.259 136.066 997.865 Q139.144 1002.45 139.144 1011.2 Q139.144 1019.93 136.066 1024.53 Q133.01 1029.12 127.2 1029.12 Q121.39 1029.12 118.311 1024.53 Q115.256 1019.93 115.256 1011.2 Q115.256 1002.45 118.311 997.865 Q121.39 993.259 127.2 993.259 Z" fill="#000000" fill-rule="nonzero" fill-opacity="1" /><path clip-path="url(#clip060)" d="M147.362 1022.56 L152.246 1022.56 L152.246 1028.44 L147.362 1028.44 L147.362 1022.56 Z" fill="#000000" fill-rule="nonzero" fill-opacity="1" /><path clip-path="url(#clip060)" d="M162.477 993.884 L180.834 993.884 L180.834 997.819 L166.76 997.819 L166.76 1006.29 Q167.778 1005.94 168.797 1005.78 Q169.815 1005.6 170.834 1005.6 Q176.621 1005.6 180.001 1008.77 Q183.38 1011.94 183.38 1017.36 Q183.38 1022.93 179.908 1026.04 Q176.436 1029.12 170.116 1029.12 Q167.94 1029.12 165.672 1028.74 Q163.427 1028.37 161.019 1027.63 L161.019 1022.93 Q163.102 1024.07 165.325 1024.62 Q167.547 1025.18 170.024 1025.18 Q174.028 1025.18 176.366 1023.07 Q178.704 1020.97 178.704 1017.36 Q178.704 1013.74 176.366 1011.64 Q174.028 1009.53 170.024 1009.53 Q168.149 1009.53 166.274 1009.95 Q164.422 1010.37 162.477 1011.24 L162.477 993.884 Z" fill="#000000" fill-rule="nonzero" fill-opacity="1" /><path clip-path="url(#clip060)" d="M117.015 716.183 L124.654 716.183 L124.654 689.817 L116.343 691.484 L116.343 687.224 L124.607 685.558 L129.283 685.558 L129.283 716.183 L136.922 716.183 L136.922 720.118 L117.015 720.118 L117.015 716.183 Z" fill="#000000" fill-rule="nonzero" fill-opacity="1" /><path clip-path="url(#clip060)" d="M146.366 714.238 L151.251 714.238 L151.251 720.118 L146.366 720.118 L146.366 714.238 Z" fill="#000000" fill-rule="nonzero" fill-opacity="1" /><path clip-path="url(#clip060)" d="M171.436 688.636 Q167.825 688.636 165.996 692.201 Q164.19 695.743 164.19 702.872 Q164.19 709.979 165.996 713.544 Q167.825 717.085 171.436 717.085 Q175.07 717.085 176.876 713.544 Q178.704 709.979 178.704 702.872 Q178.704 695.743 176.876 692.201 Q175.07 688.636 171.436 688.636 M171.436 684.933 Q177.246 684.933 180.301 689.539 Q183.38 694.123 183.38 702.872 Q183.38 711.599 180.301 716.206 Q177.246 720.789 171.436 720.789 Q165.626 720.789 162.547 716.206 Q159.491 711.599 159.491 702.872 Q159.491 694.123 162.547 689.539 Q165.626 684.933 171.436 684.933 Z" fill="#000000" fill-rule="nonzero" fill-opacity="1" /><path clip-path="url(#clip060)" d="M118.01 407.857 L125.649 407.857 L125.649 381.491 L117.339 383.158 L117.339 378.898 L125.603 377.232 L130.279 377.232 L130.279 407.857 L137.917 407.857 L137.917 411.792 L118.01 411.792 L118.01 407.857 Z" fill="#000000" fill-rule="nonzero" fill-opacity="1" /><path clip-path="url(#clip060)" d="M147.362 405.912 L152.246 405.912 L152.246 411.792 L147.362 411.792 L147.362 405.912 Z" fill="#000000" fill-rule="nonzero" fill-opacity="1" /><path clip-path="url(#clip060)" d="M162.477 377.232 L180.834 377.232 L180.834 381.167 L166.76 381.167 L166.76 389.639 Q167.778 389.292 168.797 389.13 Q169.815 388.945 170.834 388.945 Q176.621 388.945 180.001 392.116 Q183.38 395.287 183.38 400.704 Q183.38 406.282 179.908 409.384 Q176.436 412.463 170.116 412.463 Q167.94 412.463 165.672 412.093 Q163.427 411.722 161.019 410.982 L161.019 406.282 Q163.102 407.417 165.325 407.972 Q167.547 408.528 170.024 408.528 Q174.028 408.528 176.366 406.421 Q178.704 404.315 178.704 400.704 Q178.704 397.093 176.366 394.986 Q174.028 392.88 170.024 392.88 Q168.149 392.88 166.274 393.296 Q164.422 393.713 162.477 394.593 L162.477 377.232 Z" fill="#000000" fill-rule="nonzero" fill-opacity="1" /><path clip-path="url(#clip060)" d="M120.232 99.5305 L136.552 99.5305 L136.552 103.466 L114.607 103.466 L114.607 99.5305 Q117.269 96.7759 121.853 92.1463 Q126.459 87.4935 127.64 86.151 Q129.885 83.6278 130.765 81.8917 Q131.667 80.1325 131.667 78.4427 Q131.667 75.688 129.723 73.9519 Q127.802 72.2158 124.7 72.2158 Q122.501 72.2158 120.047 72.9797 Q117.617 73.7436 114.839 75.2945 L114.839 70.5723 Q117.663 69.4381 120.117 68.8594 Q122.57 68.2807 124.607 68.2807 Q129.978 68.2807 133.172 70.9658 Q136.367 73.651 136.367 78.1417 Q136.367 80.2714 135.556 82.1926 Q134.769 84.0908 132.663 86.6834 Q132.084 87.3546 128.982 90.5722 Q125.88 93.7667 120.232 99.5305 Z" fill="#000000" fill-rule="nonzero" fill-opacity="1" /><path clip-path="url(#clip060)" d="M146.366 97.5861 L151.251 97.5861 L151.251 103.466 L146.366 103.466 L146.366 97.5861 Z" fill="#000000" fill-rule="nonzero" fill-opacity="1" /><path clip-path="url(#clip060)" d="M171.436 71.9844 Q167.825 71.9844 165.996 75.5492 Q164.19 79.0908 164.19 86.2204 Q164.19 93.3268 165.996 96.8916 Q167.825 100.433 171.436 100.433 Q175.07 100.433 176.876 96.8916 Q178.704 93.3268 178.704 86.2204 Q178.704 79.0908 176.876 75.5492 Q175.07 71.9844 171.436 71.9844 M171.436 68.2807 Q177.246 68.2807 180.301 72.8871 Q183.38 77.4704 183.38 86.2204 Q183.38 94.9472 180.301 99.5537 Q177.246 104.137 171.436 104.137 Q165.626 104.137 162.547 99.5537 Q159.491 94.9472 159.491 86.2204 Q159.491 77.4704 162.547 72.8871 Q165.626 68.2807 171.436 68.2807 Z" fill="#000000" fill-rule="nonzero" fill-opacity="1" /><path clip-path="url(#clip060)" d="M67.3143 733.525 Q73.68 736.008 75.6216 738.363 Q77.5631 740.718 77.5631 744.665 L77.5631 749.344 L72.6615 749.344 L72.6615 745.906 Q72.6615 743.487 71.5157 742.151 Q70.3699 740.814 66.1048 739.191 L63.4312 738.14 L28.3562 752.559 L28.3562 746.352 L56.238 735.212 L28.3562 724.072 L28.3562 717.865 L67.3143 733.525 Z" fill="#000000" fill-rule="nonzero" fill-opacity="1" /><circle clip-path="url(#clip062)" cx="279.759" cy="1319.49" r="14.4" fill="#009af9" fill-rule="evenodd" fill-opacity="1" stroke="#000000" stroke-opacity="1" stroke-width="3.2"/>
<circle clip-path="url(#clip062)" cx="327.678" cy="1260.91" r="14.4" fill="#009af9" fill-rule="evenodd" fill-opacity="1" stroke="#000000" stroke-opacity="1" stroke-width="3.2"/>
<circle clip-path="url(#clip062)" cx="375.598" cy="1208.49" r="14.4" fill="#009af9" fill-rule="evenodd" fill-opacity="1" stroke="#000000" stroke-opacity="1" stroke-width="3.2"/>
<circle clip-path="url(#clip062)" cx="423.517" cy="1162.24" r="14.4" fill="#009af9" fill-rule="evenodd" fill-opacity="1" stroke="#000000" stroke-opacity="1" stroke-width="3.2"/>
<circle clip-path="url(#clip062)" cx="471.437" cy="1122.16" r="14.4" fill="#009af9" fill-rule="evenodd" fill-opacity="1" stroke="#000000" stroke-opacity="1" stroke-width="3.2"/>
<circle clip-path="url(#clip062)" cx="519.356" cy="1088.25" r="14.4" fill="#009af9" fill-rule="evenodd" fill-opacity="1" stroke="#000000" stroke-opacity="1" stroke-width="3.2"/>
<circle clip-path="url(#clip062)" cx="567.276" cy="1060.5" r="14.4" fill="#009af9" fill-rule="evenodd" fill-opacity="1" stroke="#000000" stroke-opacity="1" stroke-width="3.2"/>
<circle clip-path="url(#clip062)" cx="615.195" cy="1038.91" r="14.4" fill="#009af9" fill-rule="evenodd" fill-opacity="1" stroke="#000000" stroke-opacity="1" stroke-width="3.2"/>
<circle clip-path="url(#clip062)" cx="663.115" cy="1023.5" r="14.4" fill="#009af9" fill-rule="evenodd" fill-opacity="1" stroke="#000000" stroke-opacity="1" stroke-width="3.2"/>
<circle clip-path="url(#clip062)" cx="711.034" cy="1014.25" r="14.4" fill="#009af9" fill-rule="evenodd" fill-opacity="1" stroke="#000000" stroke-opacity="1" stroke-width="3.2"/>
<circle clip-path="url(#clip062)" cx="758.954" cy="1011.16" r="14.4" fill="#009af9" fill-rule="evenodd" fill-opacity="1" stroke="#000000" stroke-opacity="1" stroke-width="3.2"/>
<circle clip-path="url(#clip062)" cx="806.873" cy="1014.25" r="14.4" fill="#009af9" fill-rule="evenodd" fill-opacity="1" stroke="#000000" stroke-opacity="1" stroke-width="3.2"/>
<circle clip-path="url(#clip062)" cx="854.793" cy="1023.5" r="14.4" fill="#009af9" fill-rule="evenodd" fill-opacity="1" stroke="#000000" stroke-opacity="1" stroke-width="3.2"/>
<circle clip-path="url(#clip062)" cx="902.712" cy="1038.91" r="14.4" fill="#009af9" fill-rule="evenodd" fill-opacity="1" stroke="#000000" stroke-opacity="1" stroke-width="3.2"/>
<circle clip-path="url(#clip062)" cx="950.632" cy="1060.5" r="14.4" fill="#009af9" fill-rule="evenodd" fill-opacity="1" stroke="#000000" stroke-opacity="1" stroke-width="3.2"/>
<circle clip-path="url(#clip062)" cx="998.551" cy="1088.25" r="14.4" fill="#009af9" fill-rule="evenodd" fill-opacity="1" stroke="#000000" stroke-opacity="1" stroke-width="3.2"/>
<circle clip-path="url(#clip062)" cx="1046.47" cy="1122.16" r="14.4" fill="#009af9" fill-rule="evenodd" fill-opacity="1" stroke="#000000" stroke-opacity="1" stroke-width="3.2"/>
<circle clip-path="url(#clip062)" cx="1094.39" cy="1162.24" r="14.4" fill="#009af9" fill-rule="evenodd" fill-opacity="1" stroke="#000000" stroke-opacity="1" stroke-width="3.2"/>
<circle clip-path="url(#clip062)" cx="1142.31" cy="1208.49" r="14.4" fill="#009af9" fill-rule="evenodd" fill-opacity="1" stroke="#000000" stroke-opacity="1" stroke-width="3.2"/>
<circle clip-path="url(#clip062)" cx="1190.23" cy="1260.91" r="14.4" fill="#009af9" fill-rule="evenodd" fill-opacity="1" stroke="#000000" stroke-opacity="1" stroke-width="3.2"/>
<circle clip-path="url(#clip062)" cx="1238.15" cy="1319.49" r="14.4" fill="#009af9" fill-rule="evenodd" fill-opacity="1" stroke="#000000" stroke-opacity="1" stroke-width="3.2"/>
<circle clip-path="url(#clip062)" cx="1286.07" cy="1384.24" r="14.4" fill="#009af9" fill-rule="evenodd" fill-opacity="1" stroke="#000000" stroke-opacity="1" stroke-width="3.2"/>
<polyline clip-path="url(#clip062)" style="stroke:#e26f46; stroke-linecap:round; stroke-linejoin:round; stroke-width:4; stroke-opacity:1; fill:none" points="279.759,1319.49 281.319,1317.49 282.879,1315.49 284.438,1313.5 285.998,1311.51 300.422,1293.47 314.846,1275.99 329.269,1259.07 343.693,1242.7 361.029,1223.78 378.365,1205.65 393.022,1190.96 407.68,1176.85 423.602,1162.17 439.524,1148.17 454.202,1135.87 468.881,1124.14 484.618,1112.22 500.355,1100.96 509.472,1094.74 518.588,1088.74 527.705,1082.97 536.821,1077.42 553.024,1068.1 569.228,1059.5 583.436,1052.53 597.645,1046.1 613.137,1039.71 628.628,1033.97 644.212,1028.84 659.795,1024.37 677.025,1020.18 694.254,1016.78 710.648,1014.3 727.041,1012.53 744.087,1011.46 761.132,1011.17 775.481,1011.53 789.83,1012.44 798.589,1013.27 807.348,1014.31 816.107,1015.55 824.866,1017 840.913,1020.18 856.961,1024.06 871.782,1028.26 886.603,1033.04 901.617,1038.49 916.63,1044.55 933.456,1052.05 950.282,1060.32 965.529,1068.46 980.776,1077.23 989.504,1082.53 998.233,1088.04 1006.96,1093.75 1015.69,1099.67 1031.85,1111.16 1048.02,1123.36 1063.95,1136.07 1079.89,1149.46 1095.36,1163.12 1110.83,1177.42 1126.69,1192.74 1142.55,1208.74 1151.24,1217.79 1159.93,1227.05 1168.62,1236.5 1177.31,1246.16 1189.93,1260.56 1202.55,1275.38 1215.17,1290.63 1227.79,1306.31 1230.38,1309.57 1232.97,1312.86 1235.56,1316.17 1238.15,1319.49 "/>
<circle clip-path="url(#clip062)" cx="279.759" cy="1319.49" r="14.4" fill="#3da44d" fill-rule="evenodd" fill-opacity="1" stroke="#000000" stroke-opacity="1" stroke-width="3.2"/>
<circle clip-path="url(#clip062)" cx="375.598" cy="1260.91" r="14.4" fill="#3da44d" fill-rule="evenodd" fill-opacity="1" stroke="#000000" stroke-opacity="1" stroke-width="3.2"/>
<circle clip-path="url(#clip062)" cx="471.437" cy="1208.49" r="14.4" fill="#3da44d" fill-rule="evenodd" fill-opacity="1" stroke="#000000" stroke-opacity="1" stroke-width="3.2"/>
<circle clip-path="url(#clip062)" cx="567.276" cy="1162.24" r="14.4" fill="#3da44d" fill-rule="evenodd" fill-opacity="1" stroke="#000000" stroke-opacity="1" stroke-width="3.2"/>
<circle clip-path="url(#clip062)" cx="663.115" cy="1122.16" r="14.4" fill="#3da44d" fill-rule="evenodd" fill-opacity="1" stroke="#000000" stroke-opacity="1" stroke-width="3.2"/>
<circle clip-path="url(#clip062)" cx="758.954" cy="1088.25" r="14.4" fill="#3da44d" fill-rule="evenodd" fill-opacity="1" stroke="#000000" stroke-opacity="1" stroke-width="3.2"/>
<circle clip-path="url(#clip062)" cx="854.793" cy="1060.5" r="14.4" fill="#3da44d" fill-rule="evenodd" fill-opacity="1" stroke="#000000" stroke-opacity="1" stroke-width="3.2"/>
<circle clip-path="url(#clip062)" cx="950.632" cy="1038.91" r="14.4" fill="#3da44d" fill-rule="evenodd" fill-opacity="1" stroke="#000000" stroke-opacity="1" stroke-width="3.2"/>
<circle clip-path="url(#clip062)" cx="1046.47" cy="1023.5" r="14.4" fill="#3da44d" fill-rule="evenodd" fill-opacity="1" stroke="#000000" stroke-opacity="1" stroke-width="3.2"/>
<circle clip-path="url(#clip062)" cx="1142.31" cy="1014.25" r="14.4" fill="#3da44d" fill-rule="evenodd" fill-opacity="1" stroke="#000000" stroke-opacity="1" stroke-width="3.2"/>
<circle clip-path="url(#clip062)" cx="1238.15" cy="1011.16" r="14.4" fill="#3da44d" fill-rule="evenodd" fill-opacity="1" stroke="#000000" stroke-opacity="1" stroke-width="3.2"/>
<circle clip-path="url(#clip062)" cx="1333.99" cy="1014.25" r="14.4" fill="#3da44d" fill-rule="evenodd" fill-opacity="1" stroke="#000000" stroke-opacity="1" stroke-width="3.2"/>
<circle clip-path="url(#clip062)" cx="1429.83" cy="1023.5" r="14.4" fill="#3da44d" fill-rule="evenodd" fill-opacity="1" stroke="#000000" stroke-opacity="1" stroke-width="3.2"/>
<circle clip-path="url(#clip062)" cx="1525.67" cy="1038.91" r="14.4" fill="#3da44d" fill-rule="evenodd" fill-opacity="1" stroke="#000000" stroke-opacity="1" stroke-width="3.2"/>
<circle clip-path="url(#clip062)" cx="1621.5" cy="1060.5" r="14.4" fill="#3da44d" fill-rule="evenodd" fill-opacity="1" stroke="#000000" stroke-opacity="1" stroke-width="3.2"/>
<circle clip-path="url(#clip062)" cx="1717.34" cy="1088.25" r="14.4" fill="#3da44d" fill-rule="evenodd" fill-opacity="1" stroke="#000000" stroke-opacity="1" stroke-width="3.2"/>
<circle clip-path="url(#clip062)" cx="1813.18" cy="1122.16" r="14.4" fill="#3da44d" fill-rule="evenodd" fill-opacity="1" stroke="#000000" stroke-opacity="1" stroke-width="3.2"/>
<circle clip-path="url(#clip062)" cx="1909.02" cy="1162.24" r="14.4" fill="#3da44d" fill-rule="evenodd" fill-opacity="1" stroke="#000000" stroke-opacity="1" stroke-width="3.2"/>
<circle clip-path="url(#clip062)" cx="2004.86" cy="1208.49" r="14.4" fill="#3da44d" fill-rule="evenodd" fill-opacity="1" stroke="#000000" stroke-opacity="1" stroke-width="3.2"/>
<circle clip-path="url(#clip062)" cx="2100.7" cy="1260.91" r="14.4" fill="#3da44d" fill-rule="evenodd" fill-opacity="1" stroke="#000000" stroke-opacity="1" stroke-width="3.2"/>
<circle clip-path="url(#clip062)" cx="2196.54" cy="1319.49" r="14.4" fill="#3da44d" fill-rule="evenodd" fill-opacity="1" stroke="#000000" stroke-opacity="1" stroke-width="3.2"/>
<circle clip-path="url(#clip062)" cx="2292.38" cy="1384.24" r="14.4" fill="#3da44d" fill-rule="evenodd" fill-opacity="1" stroke="#000000" stroke-opacity="1" stroke-width="3.2"/>
<polyline clip-path="url(#clip062)" style="stroke:#c271d2; stroke-linecap:round; stroke-linejoin:round; stroke-width:4; stroke-opacity:1; fill:none" points="279.759,1319.49 282.879,1317.49 285.998,1315.49 289.118,1313.5 292.238,1311.51 321.085,1293.47 349.932,1275.99 378.78,1259.07 407.627,1242.7 442.299,1223.78 476.971,1205.65 506.286,1190.96 535.6,1176.85 567.444,1162.17 599.288,1148.17 628.646,1135.87 658.003,1124.14 689.477,1112.22 720.951,1100.96 739.184,1094.74 757.417,1088.74 775.65,1082.97 793.883,1077.42 826.29,1068.1 858.697,1059.5 887.114,1052.53 915.532,1046.1 946.515,1039.71 977.498,1033.97 1008.66,1028.84 1039.83,1024.37 1074.29,1020.18 1108.75,1016.78 1141.54,1014.3 1174.32,1012.53 1208.42,1011.46 1242.51,1011.17 1271.2,1011.53 1299.9,1012.44 1317.42,1013.27 1334.94,1014.31 1352.45,1015.55 1369.97,1017 1402.07,1020.18 1434.16,1024.06 1463.81,1028.26 1493.45,1033.04 1523.48,1038.49 1553.5,1044.55 1587.15,1052.05 1620.81,1060.32 1651.3,1068.46 1681.79,1077.23 1699.25,1082.53 1716.71,1088.04 1734.16,1093.75 1751.62,1099.67 1783.95,1111.16 1816.27,1123.36 1848.14,1136.07 1880.01,1149.46 1910.96,1163.12 1941.9,1177.42 1973.62,1192.74 2005.34,1208.74 2022.72,1217.79 2040.1,1227.05 2057.47,1236.5 2074.85,1246.16 2100.09,1260.56 2125.34,1275.38 2150.58,1290.63 2175.82,1306.31 2181,1309.57 2186.18,1312.86 2191.36,1316.17 2196.54,1319.49 "/>
<circle clip-path="url(#clip062)" cx="279.759" cy="1319.49" r="14.4" fill="#ac8d18" fill-rule="evenodd" fill-opacity="1" stroke="#000000" stroke-opacity="1" stroke-width="3.2"/>
<circle clip-path="url(#clip062)" cx="327.678" cy="1199.24" r="14.4" fill="#ac8d18" fill-rule="evenodd" fill-opacity="1" stroke="#000000" stroke-opacity="1" stroke-width="3.2"/>
<circle clip-path="url(#clip062)" cx="375.598" cy="1085.16" r="14.4" fill="#ac8d18" fill-rule="evenodd" fill-opacity="1" stroke="#000000" stroke-opacity="1" stroke-width="3.2"/>
<circle clip-path="url(#clip062)" cx="423.517" cy="977.248" r="14.4" fill="#ac8d18" fill-rule="evenodd" fill-opacity="1" stroke="#000000" stroke-opacity="1" stroke-width="3.2"/>
<circle clip-path="url(#clip062)" cx="471.437" cy="875.5" r="14.4" fill="#ac8d18" fill-rule="evenodd" fill-opacity="1" stroke="#000000" stroke-opacity="1" stroke-width="3.2"/>
<circle clip-path="url(#clip062)" cx="519.356" cy="779.919" r="14.4" fill="#ac8d18" fill-rule="evenodd" fill-opacity="1" stroke="#000000" stroke-opacity="1" stroke-width="3.2"/>
<circle clip-path="url(#clip062)" cx="567.276" cy="690.505" r="14.4" fill="#ac8d18" fill-rule="evenodd" fill-opacity="1" stroke="#000000" stroke-opacity="1" stroke-width="3.2"/>
<circle clip-path="url(#clip062)" cx="615.195" cy="607.257" r="14.4" fill="#ac8d18" fill-rule="evenodd" fill-opacity="1" stroke="#000000" stroke-opacity="1" stroke-width="3.2"/>
<circle clip-path="url(#clip062)" cx="663.115" cy="530.175" r="14.4" fill="#ac8d18" fill-rule="evenodd" fill-opacity="1" stroke="#000000" stroke-opacity="1" stroke-width="3.2"/>
<circle clip-path="url(#clip062)" cx="711.034" cy="459.26" r="14.4" fill="#ac8d18" fill-rule="evenodd" fill-opacity="1" stroke="#000000" stroke-opacity="1" stroke-width="3.2"/>
<circle clip-path="url(#clip062)" cx="758.954" cy="394.512" r="14.4" fill="#ac8d18" fill-rule="evenodd" fill-opacity="1" stroke="#000000" stroke-opacity="1" stroke-width="3.2"/>
<circle clip-path="url(#clip062)" cx="806.873" cy="335.93" r="14.4" fill="#ac8d18" fill-rule="evenodd" fill-opacity="1" stroke="#000000" stroke-opacity="1" stroke-width="3.2"/>
<circle clip-path="url(#clip062)" cx="854.793" cy="283.514" r="14.4" fill="#ac8d18" fill-rule="evenodd" fill-opacity="1" stroke="#000000" stroke-opacity="1" stroke-width="3.2"/>
<circle clip-path="url(#clip062)" cx="902.712" cy="237.265" r="14.4" fill="#ac8d18" fill-rule="evenodd" fill-opacity="1" stroke="#000000" stroke-opacity="1" stroke-width="3.2"/>
<circle clip-path="url(#clip062)" cx="950.632" cy="197.183" r="14.4" fill="#ac8d18" fill-rule="evenodd" fill-opacity="1" stroke="#000000" stroke-opacity="1" stroke-width="3.2"/>
<circle clip-path="url(#clip062)" cx="998.551" cy="163.267" r="14.4" fill="#ac8d18" fill-rule="evenodd" fill-opacity="1" stroke="#000000" stroke-opacity="1" stroke-width="3.2"/>
<circle clip-path="url(#clip062)" cx="1046.47" cy="135.518" r="14.4" fill="#ac8d18" fill-rule="evenodd" fill-opacity="1" stroke="#000000" stroke-opacity="1" stroke-width="3.2"/>
<circle clip-path="url(#clip062)" cx="1094.39" cy="113.935" r="14.4" fill="#ac8d18" fill-rule="evenodd" fill-opacity="1" stroke="#000000" stroke-opacity="1" stroke-width="3.2"/>
<circle clip-path="url(#clip062)" cx="1142.31" cy="98.5187" r="14.4" fill="#ac8d18" fill-rule="evenodd" fill-opacity="1" stroke="#000000" stroke-opacity="1" stroke-width="3.2"/>
<circle clip-path="url(#clip062)" cx="1190.23" cy="89.2689" r="14.4" fill="#ac8d18" fill-rule="evenodd" fill-opacity="1" stroke="#000000" stroke-opacity="1" stroke-width="3.2"/>
<circle clip-path="url(#clip062)" cx="1238.15" cy="86.1857" r="14.4" fill="#ac8d18" fill-rule="evenodd" fill-opacity="1" stroke="#000000" stroke-opacity="1" stroke-width="3.2"/>
<circle clip-path="url(#clip062)" cx="1286.07" cy="89.2689" r="14.4" fill="#ac8d18" fill-rule="evenodd" fill-opacity="1" stroke="#000000" stroke-opacity="1" stroke-width="3.2"/>
<circle clip-path="url(#clip062)" cx="1333.99" cy="98.5187" r="14.4" fill="#ac8d18" fill-rule="evenodd" fill-opacity="1" stroke="#000000" stroke-opacity="1" stroke-width="3.2"/>
<circle clip-path="url(#clip062)" cx="1381.91" cy="113.935" r="14.4" fill="#ac8d18" fill-rule="evenodd" fill-opacity="1" stroke="#000000" stroke-opacity="1" stroke-width="3.2"/>
<circle clip-path="url(#clip062)" cx="1429.83" cy="135.518" r="14.4" fill="#ac8d18" fill-rule="evenodd" fill-opacity="1" stroke="#000000" stroke-opacity="1" stroke-width="3.2"/>
<circle clip-path="url(#clip062)" cx="1477.75" cy="163.267" r="14.4" fill="#ac8d18" fill-rule="evenodd" fill-opacity="1" stroke="#000000" stroke-opacity="1" stroke-width="3.2"/>
<circle clip-path="url(#clip062)" cx="1525.67" cy="197.183" r="14.4" fill="#ac8d18" fill-rule="evenodd" fill-opacity="1" stroke="#000000" stroke-opacity="1" stroke-width="3.2"/>
<circle clip-path="url(#clip062)" cx="1573.58" cy="237.265" r="14.4" fill="#ac8d18" fill-rule="evenodd" fill-opacity="1" stroke="#000000" stroke-opacity="1" stroke-width="3.2"/>
<circle clip-path="url(#clip062)" cx="1621.5" cy="283.514" r="14.4" fill="#ac8d18" fill-rule="evenodd" fill-opacity="1" stroke="#000000" stroke-opacity="1" stroke-width="3.2"/>
<circle clip-path="url(#clip062)" cx="1669.42" cy="335.93" r="14.4" fill="#ac8d18" fill-rule="evenodd" fill-opacity="1" stroke="#000000" stroke-opacity="1" stroke-width="3.2"/>
<circle clip-path="url(#clip062)" cx="1717.34" cy="394.512" r="14.4" fill="#ac8d18" fill-rule="evenodd" fill-opacity="1" stroke="#000000" stroke-opacity="1" stroke-width="3.2"/>
<circle clip-path="url(#clip062)" cx="1765.26" cy="459.26" r="14.4" fill="#ac8d18" fill-rule="evenodd" fill-opacity="1" stroke="#000000" stroke-opacity="1" stroke-width="3.2"/>
<circle clip-path="url(#clip062)" cx="1813.18" cy="530.175" r="14.4" fill="#ac8d18" fill-rule="evenodd" fill-opacity="1" stroke="#000000" stroke-opacity="1" stroke-width="3.2"/>
<circle clip-path="url(#clip062)" cx="1861.1" cy="607.257" r="14.4" fill="#ac8d18" fill-rule="evenodd" fill-opacity="1" stroke="#000000" stroke-opacity="1" stroke-width="3.2"/>
<circle clip-path="url(#clip062)" cx="1909.02" cy="690.505" r="14.4" fill="#ac8d18" fill-rule="evenodd" fill-opacity="1" stroke="#000000" stroke-opacity="1" stroke-width="3.2"/>
<circle clip-path="url(#clip062)" cx="1956.94" cy="779.919" r="14.4" fill="#ac8d18" fill-rule="evenodd" fill-opacity="1" stroke="#000000" stroke-opacity="1" stroke-width="3.2"/>
<circle clip-path="url(#clip062)" cx="2004.86" cy="875.5" r="14.4" fill="#ac8d18" fill-rule="evenodd" fill-opacity="1" stroke="#000000" stroke-opacity="1" stroke-width="3.2"/>
<circle clip-path="url(#clip062)" cx="2052.78" cy="977.248" r="14.4" fill="#ac8d18" fill-rule="evenodd" fill-opacity="1" stroke="#000000" stroke-opacity="1" stroke-width="3.2"/>
<circle clip-path="url(#clip062)" cx="2100.7" cy="1085.16" r="14.4" fill="#ac8d18" fill-rule="evenodd" fill-opacity="1" stroke="#000000" stroke-opacity="1" stroke-width="3.2"/>
<circle clip-path="url(#clip062)" cx="2148.62" cy="1199.24" r="14.4" fill="#ac8d18" fill-rule="evenodd" fill-opacity="1" stroke="#000000" stroke-opacity="1" stroke-width="3.2"/>
<circle clip-path="url(#clip062)" cx="2196.54" cy="1319.49" r="14.4" fill="#ac8d18" fill-rule="evenodd" fill-opacity="1" stroke="#000000" stroke-opacity="1" stroke-width="3.2"/>
<polyline clip-path="url(#clip062)" style="stroke:#00a9ad; stroke-linecap:round; stroke-linejoin:round; stroke-width:4; stroke-opacity:1; fill:none" points="279.759,1319.49 282.879,1311.47 285.998,1303.48 289.118,1295.52 292.238,1287.58 321.085,1215.42 349.932,1145.5 378.78,1077.8 407.627,1012.35 442.299,936.634 476.971,864.147 506.286,805.378 535.6,748.918 567.444,690.201 599.288,634.207 628.646,584.998 658.003,538.104 689.477,490.399 720.951,445.354 739.184,420.476 757.417,396.492 775.65,373.4 793.883,351.201 826.29,313.948 858.697,279.516 887.114,251.643 915.532,225.938 946.515,200.384 977.498,177.409 1008.66,156.897 1039.83,138.994 1074.29,122.237 1108.75,108.668 1141.54,98.7183 1174.32,91.6553 1208.42,87.3727 1242.51,86.2112 1271.2,87.6527 1299.9,91.3059 1317.42,94.623 1334.94,98.7642 1352.45,103.73 1369.97,109.519 1402.07,122.264 1434.16,137.775 1463.81,154.559 1493.45,173.701 1523.48,195.498 1553.5,219.716 1587.15,249.735 1620.81,282.795 1651.3,315.38 1681.79,350.461 1699.25,371.668 1716.71,393.693 1734.16,416.537 1751.62,440.198 1783.95,486.177 1816.27,534.962 1848.14,585.805 1880.01,639.376 1910.96,693.999 1941.9,751.193 1973.62,812.493 2005.34,876.495 2022.72,912.702 2040.1,949.72 2057.47,987.548 2074.85,1026.19 2100.09,1083.76 2125.34,1143.05 2150.58,1204.04 2175.82,1266.75 2181,1279.83 2186.18,1292.98 2191.36,1306.2 2196.54,1319.49 "/>
<path clip-path="url(#clip060)" d="M1746.71 455.989 L2281.64 455.989 L2281.64 93.1086 L1746.71 93.1086  Z" fill="#ffffff" fill-rule="evenodd" fill-opacity="1"/>
<polyline clip-path="url(#clip060)" style="stroke:#000000; stroke-linecap:round; stroke-linejoin:round; stroke-width:4; stroke-opacity:1; fill:none" points="1746.71,455.989 2281.64,455.989 2281.64,93.1086 1746.71,93.1086 1746.71,455.989 "/>
<circle clip-path="url(#clip060)" cx="1841.53" cy="144.949" r="20.48" fill="#009af9" fill-rule="evenodd" fill-opacity="1" stroke="#000000" stroke-opacity="1" stroke-width="4.55111"/>
<path clip-path="url(#clip060)" d="M1936.34 136.303 L1940.86 136.303 L1948.96 158.062 L1957.06 136.303 L1961.58 136.303 L1951.85 162.229 L1946.07 162.229 L1936.34 136.303 Z" fill="#000000" fill-rule="nonzero" fill-opacity="1" /><path clip-path="url(#clip060)" d="M1989.01 136.303 L1979.63 148.919 L1989.49 162.229 L1984.47 162.229 L1976.92 152.043 L1969.38 162.229 L1964.35 162.229 L1974.42 148.664 L1965.21 136.303 L1970.23 136.303 L1977.11 145.539 L1983.98 136.303 L1989.01 136.303 Z" fill="#000000" fill-rule="nonzero" fill-opacity="1" /><path clip-path="url(#clip060)" d="M2006.11 130.747 Q2002.5 130.747 2000.67 134.312 Q1998.87 137.854 1998.87 144.983 Q1998.87 152.09 2000.67 155.655 Q2002.5 159.196 2006.11 159.196 Q2009.75 159.196 2011.55 155.655 Q2013.38 152.09 2013.38 144.983 Q2013.38 137.854 2011.55 134.312 Q2009.75 130.747 2006.11 130.747 M2006.11 127.044 Q2011.92 127.044 2014.98 131.65 Q2018.06 136.233 2018.06 144.983 Q2018.06 153.71 2014.98 158.317 Q2011.92 162.9 2006.11 162.9 Q2000.3 162.9 1997.22 158.317 Q1994.17 153.71 1994.17 144.983 Q1994.17 136.233 1997.22 131.65 Q2000.3 127.044 2006.11 127.044 Z" fill="#000000" fill-rule="nonzero" fill-opacity="1" /><path clip-path="url(#clip060)" d="M2026.23 140.701 L2055.9 140.701 L2055.9 144.59 L2026.23 144.59 L2026.23 140.701 M2026.23 150.145 L2055.9 150.145 L2055.9 154.081 L2026.23 154.081 L2026.23 150.145 Z" fill="#000000" fill-rule="nonzero" fill-opacity="1" /><path clip-path="url(#clip060)" d="M2066.81 158.293 L2074.44 158.293 L2074.44 131.928 L2066.13 133.595 L2066.13 129.335 L2074.4 127.669 L2079.07 127.669 L2079.07 158.293 L2086.71 158.293 L2086.71 162.229 L2066.81 162.229 L2066.81 158.293 Z" fill="#000000" fill-rule="nonzero" fill-opacity="1" /><path clip-path="url(#clip060)" d="M2096.64 156.349 L2101.53 156.349 L2101.53 160.33 L2097.73 167.738 L2094.75 167.738 L2096.64 160.33 L2096.64 156.349 Z" fill="#000000" fill-rule="nonzero" fill-opacity="1" /><path clip-path="url(#clip060)" d="M2107.57 136.303 L2112.08 136.303 L2120.19 158.062 L2128.29 136.303 L2132.8 136.303 L2123.08 162.229 L2117.29 162.229 L2107.57 136.303 Z" fill="#000000" fill-rule="nonzero" fill-opacity="1" /><path clip-path="url(#clip060)" d="M2149.47 164.636 Q2147.66 169.266 2145.95 170.678 Q2144.24 172.09 2141.37 172.09 L2137.96 172.09 L2137.96 168.525 L2140.46 168.525 Q2142.22 168.525 2143.19 167.692 Q2144.17 166.858 2145.35 163.756 L2146.11 161.812 L2135.63 136.303 L2140.14 136.303 L2148.24 156.581 L2156.34 136.303 L2160.86 136.303 L2149.47 164.636 Z" fill="#000000" fill-rule="nonzero" fill-opacity="1" /><path clip-path="url(#clip060)" d="M2177.34 130.747 Q2173.73 130.747 2171.9 134.312 Q2170.09 137.854 2170.09 144.983 Q2170.09 152.09 2171.9 155.655 Q2173.73 159.196 2177.34 159.196 Q2180.97 159.196 2182.78 155.655 Q2184.61 152.09 2184.61 144.983 Q2184.61 137.854 2182.78 134.312 Q2180.97 130.747 2177.34 130.747 M2177.34 127.044 Q2183.15 127.044 2186.2 131.65 Q2189.28 136.233 2189.28 144.983 Q2189.28 153.71 2186.2 158.317 Q2183.15 162.9 2177.34 162.9 Q2171.53 162.9 2168.45 158.317 Q2165.39 153.71 2165.39 144.983 Q2165.39 136.233 2168.45 131.65 Q2171.53 127.044 2177.34 127.044 Z" fill="#000000" fill-rule="nonzero" fill-opacity="1" /><path clip-path="url(#clip060)" d="M2197.45 140.701 L2227.13 140.701 L2227.13 144.59 L2197.45 144.59 L2197.45 140.701 M2197.45 150.145 L2227.13 150.145 L2227.13 154.081 L2197.45 154.081 L2197.45 150.145 Z" fill="#000000" fill-rule="nonzero" fill-opacity="1" /><path clip-path="url(#clip060)" d="M2238.03 158.293 L2245.67 158.293 L2245.67 131.928 L2237.36 133.595 L2237.36 129.335 L2245.62 127.669 L2250.3 127.669 L2250.3 158.293 L2257.94 158.293 L2257.94 162.229 L2238.03 162.229 L2238.03 158.293 Z" fill="#000000" fill-rule="nonzero" fill-opacity="1" /><polyline clip-path="url(#clip060)" style="stroke:#e26f46; stroke-linecap:round; stroke-linejoin:round; stroke-width:4; stroke-opacity:1; fill:none" points="1770.41,196.789 1912.64,196.789 "/>
<path clip-path="url(#clip060)" d="M1960.37 200.041 L1960.37 202.124 L1940.79 202.124 Q1941.07 206.522 1943.43 208.837 Q1945.81 211.129 1950.05 211.129 Q1952.5 211.129 1954.79 210.527 Q1957.11 209.925 1959.38 208.721 L1959.38 212.749 Q1957.08 213.721 1954.68 214.231 Q1952.27 214.74 1949.79 214.74 Q1943.59 214.74 1939.95 211.129 Q1936.34 207.518 1936.34 201.36 Q1936.34 194.995 1939.77 191.268 Q1943.22 187.518 1949.05 187.518 Q1954.28 187.518 1957.32 190.897 Q1960.37 194.254 1960.37 200.041 M1956.11 198.791 Q1956.07 195.296 1954.14 193.212 Q1952.25 191.129 1949.1 191.129 Q1945.53 191.129 1943.38 193.143 Q1941.25 195.157 1940.93 198.814 L1956.11 198.791 Z" fill="#000000" fill-rule="nonzero" fill-opacity="1" /><path clip-path="url(#clip060)" d="M1988.08 188.143 L1978.7 200.759 L1988.57 214.069 L1983.54 214.069 L1976 203.883 L1968.45 214.069 L1963.43 214.069 L1973.5 200.504 L1964.28 188.143 L1969.31 188.143 L1976.18 197.379 L1983.06 188.143 L1988.08 188.143 Z" fill="#000000" fill-rule="nonzero" fill-opacity="1" /><path clip-path="url(#clip060)" d="M2006.37 201.036 Q2001.2 201.036 1999.21 202.217 Q1997.22 203.397 1997.22 206.245 Q1997.22 208.513 1998.7 209.856 Q2000.21 211.175 2002.78 211.175 Q2006.32 211.175 2008.45 208.675 Q2010.6 206.152 2010.6 201.985 L2010.6 201.036 L2006.37 201.036 M2014.86 199.277 L2014.86 214.069 L2010.6 214.069 L2010.6 210.133 Q2009.14 212.495 2006.97 213.629 Q2004.79 214.74 2001.64 214.74 Q1997.66 214.74 1995.3 212.518 Q1992.96 210.272 1992.96 206.522 Q1992.96 202.147 1995.88 199.925 Q1998.82 197.703 2004.63 197.703 L2010.6 197.703 L2010.6 197.286 Q2010.6 194.347 2008.66 192.749 Q2006.74 191.129 2003.24 191.129 Q2001.02 191.129 1998.91 191.661 Q1996.81 192.194 1994.86 193.259 L1994.86 189.323 Q1997.2 188.421 1999.4 187.981 Q2001.6 187.518 2003.68 187.518 Q2009.31 187.518 2012.08 190.434 Q2014.86 193.351 2014.86 199.277 Z" fill="#000000" fill-rule="nonzero" fill-opacity="1" /><path clip-path="url(#clip060)" d="M2042.29 189.138 L2042.29 193.12 Q2040.49 192.124 2038.66 191.638 Q2036.85 191.129 2035 191.129 Q2030.86 191.129 2028.57 193.768 Q2026.27 196.384 2026.27 201.129 Q2026.27 205.874 2028.57 208.513 Q2030.86 211.129 2035 211.129 Q2036.85 211.129 2038.66 210.643 Q2040.49 210.133 2042.29 209.138 L2042.29 213.073 Q2040.51 213.907 2038.59 214.323 Q2036.69 214.74 2034.54 214.74 Q2028.68 214.74 2025.23 211.059 Q2021.78 207.379 2021.78 201.129 Q2021.78 194.786 2025.26 191.152 Q2028.75 187.518 2034.82 187.518 Q2036.78 187.518 2038.66 187.935 Q2040.53 188.328 2042.29 189.138 Z" fill="#000000" fill-rule="nonzero" fill-opacity="1" /><path clip-path="url(#clip060)" d="M2053.91 180.782 L2053.91 188.143 L2062.69 188.143 L2062.69 191.453 L2053.91 191.453 L2053.91 205.527 Q2053.91 208.698 2054.77 209.601 Q2055.65 210.504 2058.31 210.504 L2062.69 210.504 L2062.69 214.069 L2058.31 214.069 Q2053.38 214.069 2051.51 212.24 Q2049.63 210.388 2049.63 205.527 L2049.63 191.453 L2046.51 191.453 L2046.51 188.143 L2049.63 188.143 L2049.63 180.782 L2053.91 180.782 Z" fill="#000000" fill-rule="nonzero" fill-opacity="1" /><circle clip-path="url(#clip060)" cx="1841.53" cy="248.629" r="20.48" fill="#3da44d" fill-rule="evenodd" fill-opacity="1" stroke="#000000" stroke-opacity="1" stroke-width="4.55111"/>
<path clip-path="url(#clip060)" d="M1936.34 239.983 L1940.86 239.983 L1948.96 261.742 L1957.06 239.983 L1961.58 239.983 L1951.85 265.909 L1946.07 265.909 L1936.34 239.983 Z" fill="#000000" fill-rule="nonzero" fill-opacity="1" /><path clip-path="url(#clip060)" d="M1989.01 239.983 L1979.63 252.599 L1989.49 265.909 L1984.47 265.909 L1976.92 255.723 L1969.38 265.909 L1964.35 265.909 L1974.42 252.344 L1965.21 239.983 L1970.23 239.983 L1977.11 249.219 L1983.98 239.983 L1989.01 239.983 Z" fill="#000000" fill-rule="nonzero" fill-opacity="1" /><path clip-path="url(#clip060)" d="M2006.11 234.427 Q2002.5 234.427 2000.67 237.992 Q1998.87 241.534 1998.87 248.663 Q1998.87 255.77 2000.67 259.335 Q2002.5 262.876 2006.11 262.876 Q2009.75 262.876 2011.55 259.335 Q2013.38 255.77 2013.38 248.663 Q2013.38 241.534 2011.55 237.992 Q2009.75 234.427 2006.11 234.427 M2006.11 230.724 Q2011.92 230.724 2014.98 235.33 Q2018.06 239.913 2018.06 248.663 Q2018.06 257.39 2014.98 261.997 Q2011.92 266.58 2006.11 266.58 Q2000.3 266.58 1997.22 261.997 Q1994.17 257.39 1994.17 248.663 Q1994.17 239.913 1997.22 235.33 Q2000.3 230.724 2006.11 230.724 Z" fill="#000000" fill-rule="nonzero" fill-opacity="1" /><path clip-path="url(#clip060)" d="M2026.23 244.381 L2055.9 244.381 L2055.9 248.27 L2026.23 248.27 L2026.23 244.381 M2026.23 253.825 L2055.9 253.825 L2055.9 257.761 L2026.23 257.761 L2026.23 253.825 Z" fill="#000000" fill-rule="nonzero" fill-opacity="1" /><path clip-path="url(#clip060)" d="M2070.02 261.973 L2086.34 261.973 L2086.34 265.909 L2064.4 265.909 L2064.4 261.973 Q2067.06 259.219 2071.64 254.589 Q2076.25 249.936 2077.43 248.594 Q2079.68 246.071 2080.56 244.335 Q2081.46 242.575 2081.46 240.886 Q2081.46 238.131 2079.51 236.395 Q2077.59 234.659 2074.49 234.659 Q2072.29 234.659 2069.84 235.423 Q2067.41 236.187 2064.63 237.737 L2064.63 233.015 Q2067.45 231.881 2069.91 231.302 Q2072.36 230.724 2074.4 230.724 Q2079.77 230.724 2082.96 233.409 Q2086.16 236.094 2086.16 240.585 Q2086.16 242.714 2085.35 244.636 Q2084.56 246.534 2082.45 249.126 Q2081.88 249.798 2078.77 253.015 Q2075.67 256.21 2070.02 261.973 Z" fill="#000000" fill-rule="nonzero" fill-opacity="1" /><path clip-path="url(#clip060)" d="M2096.64 260.029 L2101.53 260.029 L2101.53 264.01 L2097.73 271.418 L2094.75 271.418 L2096.64 264.01 L2096.64 260.029 Z" fill="#000000" fill-rule="nonzero" fill-opacity="1" /><path clip-path="url(#clip060)" d="M2107.57 239.983 L2112.08 239.983 L2120.19 261.742 L2128.29 239.983 L2132.8 239.983 L2123.08 265.909 L2117.29 265.909 L2107.57 239.983 Z" fill="#000000" fill-rule="nonzero" fill-opacity="1" /><path clip-path="url(#clip060)" d="M2149.47 268.316 Q2147.66 272.946 2145.95 274.358 Q2144.24 275.77 2141.37 275.77 L2137.96 275.77 L2137.96 272.205 L2140.46 272.205 Q2142.22 272.205 2143.19 271.372 Q2144.17 270.538 2145.35 267.436 L2146.11 265.492 L2135.63 239.983 L2140.14 239.983 L2148.24 260.261 L2156.34 239.983 L2160.86 239.983 L2149.47 268.316 Z" fill="#000000" fill-rule="nonzero" fill-opacity="1" /><path clip-path="url(#clip060)" d="M2177.34 234.427 Q2173.73 234.427 2171.9 237.992 Q2170.09 241.534 2170.09 248.663 Q2170.09 255.77 2171.9 259.335 Q2173.73 262.876 2177.34 262.876 Q2180.97 262.876 2182.78 259.335 Q2184.61 255.77 2184.61 248.663 Q2184.61 241.534 2182.78 237.992 Q2180.97 234.427 2177.34 234.427 M2177.34 230.724 Q2183.15 230.724 2186.2 235.33 Q2189.28 239.913 2189.28 248.663 Q2189.28 257.39 2186.2 261.997 Q2183.15 266.58 2177.34 266.58 Q2171.53 266.58 2168.45 261.997 Q2165.39 257.39 2165.39 248.663 Q2165.39 239.913 2168.45 235.33 Q2171.53 230.724 2177.34 230.724 Z" fill="#000000" fill-rule="nonzero" fill-opacity="1" /><path clip-path="url(#clip060)" d="M2197.45 244.381 L2227.13 244.381 L2227.13 248.27 L2197.45 248.27 L2197.45 244.381 M2197.45 253.825 L2227.13 253.825 L2227.13 257.761 L2197.45 257.761 L2197.45 253.825 Z" fill="#000000" fill-rule="nonzero" fill-opacity="1" /><path clip-path="url(#clip060)" d="M2238.03 261.973 L2245.67 261.973 L2245.67 235.608 L2237.36 237.275 L2237.36 233.015 L2245.62 231.349 L2250.3 231.349 L2250.3 261.973 L2257.94 261.973 L2257.94 265.909 L2238.03 265.909 L2238.03 261.973 Z" fill="#000000" fill-rule="nonzero" fill-opacity="1" /><polyline clip-path="url(#clip060)" style="stroke:#c271d2; stroke-linecap:round; stroke-linejoin:round; stroke-width:4; stroke-opacity:1; fill:none" points="1770.41,300.469 1912.64,300.469 "/>
<path clip-path="url(#clip060)" d="M1960.37 303.721 L1960.37 305.804 L1940.79 305.804 Q1941.07 310.202 1943.43 312.517 Q1945.81 314.809 1950.05 314.809 Q1952.5 314.809 1954.79 314.207 Q1957.11 313.605 1959.38 312.401 L1959.38 316.429 Q1957.08 317.401 1954.68 317.911 Q1952.27 318.42 1949.79 318.42 Q1943.59 318.42 1939.95 314.809 Q1936.34 311.198 1936.34 305.04 Q1936.34 298.675 1939.77 294.948 Q1943.22 291.198 1949.05 291.198 Q1954.28 291.198 1957.32 294.577 Q1960.37 297.934 1960.37 303.721 M1956.11 302.471 Q1956.07 298.976 1954.14 296.892 Q1952.25 294.809 1949.1 294.809 Q1945.53 294.809 1943.38 296.823 Q1941.25 298.837 1940.93 302.494 L1956.11 302.471 Z" fill="#000000" fill-rule="nonzero" fill-opacity="1" /><path clip-path="url(#clip060)" d="M1988.08 291.823 L1978.7 304.439 L1988.57 317.749 L1983.54 317.749 L1976 307.563 L1968.45 317.749 L1963.43 317.749 L1973.5 304.184 L1964.28 291.823 L1969.31 291.823 L1976.18 301.059 L1983.06 291.823 L1988.08 291.823 Z" fill="#000000" fill-rule="nonzero" fill-opacity="1" /><path clip-path="url(#clip060)" d="M2006.37 304.716 Q2001.2 304.716 1999.21 305.897 Q1997.22 307.077 1997.22 309.925 Q1997.22 312.193 1998.7 313.536 Q2000.21 314.855 2002.78 314.855 Q2006.32 314.855 2008.45 312.355 Q2010.6 309.832 2010.6 305.665 L2010.6 304.716 L2006.37 304.716 M2014.86 302.957 L2014.86 317.749 L2010.6 317.749 L2010.6 313.813 Q2009.14 316.175 2006.97 317.309 Q2004.79 318.42 2001.64 318.42 Q1997.66 318.42 1995.3 316.198 Q1992.96 313.952 1992.96 310.202 Q1992.96 305.827 1995.88 303.605 Q1998.82 301.383 2004.63 301.383 L2010.6 301.383 L2010.6 300.966 Q2010.6 298.027 2008.66 296.429 Q2006.74 294.809 2003.24 294.809 Q2001.02 294.809 1998.91 295.341 Q1996.81 295.874 1994.86 296.939 L1994.86 293.003 Q1997.2 292.101 1999.4 291.661 Q2001.6 291.198 2003.68 291.198 Q2009.31 291.198 2012.08 294.114 Q2014.86 297.031 2014.86 302.957 Z" fill="#000000" fill-rule="nonzero" fill-opacity="1" /><path clip-path="url(#clip060)" d="M2042.29 292.818 L2042.29 296.8 Q2040.49 295.804 2038.66 295.318 Q2036.85 294.809 2035 294.809 Q2030.86 294.809 2028.57 297.448 Q2026.27 300.064 2026.27 304.809 Q2026.27 309.554 2028.57 312.193 Q2030.86 314.809 2035 314.809 Q2036.85 314.809 2038.66 314.323 Q2040.49 313.813 2042.29 312.818 L2042.29 316.753 Q2040.51 317.587 2038.59 318.003 Q2036.69 318.42 2034.54 318.42 Q2028.68 318.42 2025.23 314.739 Q2021.78 311.059 2021.78 304.809 Q2021.78 298.466 2025.26 294.832 Q2028.75 291.198 2034.82 291.198 Q2036.78 291.198 2038.66 291.615 Q2040.53 292.008 2042.29 292.818 Z" fill="#000000" fill-rule="nonzero" fill-opacity="1" /><path clip-path="url(#clip060)" d="M2053.91 284.462 L2053.91 291.823 L2062.69 291.823 L2062.69 295.133 L2053.91 295.133 L2053.91 309.207 Q2053.91 312.378 2054.77 313.281 Q2055.65 314.184 2058.31 314.184 L2062.69 314.184 L2062.69 317.749 L2058.31 317.749 Q2053.38 317.749 2051.51 315.92 Q2049.63 314.068 2049.63 309.207 L2049.63 295.133 L2046.51 295.133 L2046.51 291.823 L2049.63 291.823 L2049.63 284.462 L2053.91 284.462 Z" fill="#000000" fill-rule="nonzero" fill-opacity="1" /><circle clip-path="url(#clip060)" cx="1841.53" cy="352.309" r="20.48" fill="#ac8d18" fill-rule="evenodd" fill-opacity="1" stroke="#000000" stroke-opacity="1" stroke-width="4.55111"/>
<path clip-path="url(#clip060)" d="M1936.34 343.663 L1940.86 343.663 L1948.96 365.422 L1957.06 343.663 L1961.58 343.663 L1951.85 369.589 L1946.07 369.589 L1936.34 343.663 Z" fill="#000000" fill-rule="nonzero" fill-opacity="1" /><path clip-path="url(#clip060)" d="M1989.01 343.663 L1979.63 356.279 L1989.49 369.589 L1984.47 369.589 L1976.92 359.403 L1969.38 369.589 L1964.35 369.589 L1974.42 356.024 L1965.21 343.663 L1970.23 343.663 L1977.11 352.899 L1983.98 343.663 L1989.01 343.663 Z" fill="#000000" fill-rule="nonzero" fill-opacity="1" /><path clip-path="url(#clip060)" d="M2006.11 338.107 Q2002.5 338.107 2000.67 341.672 Q1998.87 345.214 1998.87 352.343 Q1998.87 359.45 2000.67 363.015 Q2002.5 366.556 2006.11 366.556 Q2009.75 366.556 2011.55 363.015 Q2013.38 359.45 2013.38 352.343 Q2013.38 345.214 2011.55 341.672 Q2009.75 338.107 2006.11 338.107 M2006.11 334.404 Q2011.92 334.404 2014.98 339.01 Q2018.06 343.593 2018.06 352.343 Q2018.06 361.07 2014.98 365.677 Q2011.92 370.26 2006.11 370.26 Q2000.3 370.26 1997.22 365.677 Q1994.17 361.07 1994.17 352.343 Q1994.17 343.593 1997.22 339.01 Q2000.3 334.404 2006.11 334.404 Z" fill="#000000" fill-rule="nonzero" fill-opacity="1" /><path clip-path="url(#clip060)" d="M2026.23 348.061 L2055.9 348.061 L2055.9 351.95 L2026.23 351.95 L2026.23 348.061 M2026.23 357.505 L2055.9 357.505 L2055.9 361.441 L2026.23 361.441 L2026.23 357.505 Z" fill="#000000" fill-rule="nonzero" fill-opacity="1" /><path clip-path="url(#clip060)" d="M2066.81 365.653 L2074.44 365.653 L2074.44 339.288 L2066.13 340.955 L2066.13 336.695 L2074.4 335.029 L2079.07 335.029 L2079.07 365.653 L2086.71 365.653 L2086.71 369.589 L2066.81 369.589 L2066.81 365.653 Z" fill="#000000" fill-rule="nonzero" fill-opacity="1" /><path clip-path="url(#clip060)" d="M2096.64 363.709 L2101.53 363.709 L2101.53 367.69 L2097.73 375.098 L2094.75 375.098 L2096.64 367.69 L2096.64 363.709 Z" fill="#000000" fill-rule="nonzero" fill-opacity="1" /><path clip-path="url(#clip060)" d="M2107.57 343.663 L2112.08 343.663 L2120.19 365.422 L2128.29 343.663 L2132.8 343.663 L2123.08 369.589 L2117.29 369.589 L2107.57 343.663 Z" fill="#000000" fill-rule="nonzero" fill-opacity="1" /><path clip-path="url(#clip060)" d="M2149.47 371.996 Q2147.66 376.626 2145.95 378.038 Q2144.24 379.45 2141.37 379.45 L2137.96 379.45 L2137.96 375.885 L2140.46 375.885 Q2142.22 375.885 2143.19 375.052 Q2144.17 374.218 2145.35 371.116 L2146.11 369.172 L2135.63 343.663 L2140.14 343.663 L2148.24 363.941 L2156.34 343.663 L2160.86 343.663 L2149.47 371.996 Z" fill="#000000" fill-rule="nonzero" fill-opacity="1" /><path clip-path="url(#clip060)" d="M2177.34 338.107 Q2173.73 338.107 2171.9 341.672 Q2170.09 345.214 2170.09 352.343 Q2170.09 359.45 2171.9 363.015 Q2173.73 366.556 2177.34 366.556 Q2180.97 366.556 2182.78 363.015 Q2184.61 359.45 2184.61 352.343 Q2184.61 345.214 2182.78 341.672 Q2180.97 338.107 2177.34 338.107 M2177.34 334.404 Q2183.15 334.404 2186.2 339.01 Q2189.28 343.593 2189.28 352.343 Q2189.28 361.07 2186.2 365.677 Q2183.15 370.26 2177.34 370.26 Q2171.53 370.26 2168.45 365.677 Q2165.39 361.07 2165.39 352.343 Q2165.39 343.593 2168.45 339.01 Q2171.53 334.404 2177.34 334.404 Z" fill="#000000" fill-rule="nonzero" fill-opacity="1" /><path clip-path="url(#clip060)" d="M2197.45 348.061 L2227.13 348.061 L2227.13 351.95 L2197.45 351.95 L2197.45 348.061 M2197.45 357.505 L2227.13 357.505 L2227.13 361.441 L2197.45 361.441 L2197.45 357.505 Z" fill="#000000" fill-rule="nonzero" fill-opacity="1" /><path clip-path="url(#clip060)" d="M2241.25 365.653 L2257.57 365.653 L2257.57 369.589 L2235.62 369.589 L2235.62 365.653 Q2238.29 362.899 2242.87 358.269 Q2247.48 353.616 2248.66 352.274 Q2250.9 349.751 2251.78 348.015 Q2252.68 346.255 2252.68 344.566 Q2252.68 341.811 2250.74 340.075 Q2248.82 338.339 2245.72 338.339 Q2243.52 338.339 2241.06 339.103 Q2238.63 339.867 2235.86 341.417 L2235.86 336.695 Q2238.68 335.561 2241.13 334.982 Q2243.59 334.404 2245.62 334.404 Q2250.99 334.404 2254.19 337.089 Q2257.38 339.774 2257.38 344.265 Q2257.38 346.394 2256.57 348.316 Q2255.79 350.214 2253.68 352.806 Q2253.1 353.478 2250 356.695 Q2246.9 359.89 2241.25 365.653 Z" fill="#000000" fill-rule="nonzero" fill-opacity="1" /><polyline clip-path="url(#clip060)" style="stroke:#00a9ad; stroke-linecap:round; stroke-linejoin:round; stroke-width:4; stroke-opacity:1; fill:none" points="1770.41,404.149 1912.64,404.149 "/>
<path clip-path="url(#clip060)" d="M1960.37 407.401 L1960.37 409.484 L1940.79 409.484 Q1941.07 413.882 1943.43 416.197 Q1945.81 418.489 1950.05 418.489 Q1952.5 418.489 1954.79 417.887 Q1957.11 417.285 1959.38 416.081 L1959.38 420.109 Q1957.08 421.081 1954.68 421.591 Q1952.27 422.1 1949.79 422.1 Q1943.59 422.1 1939.95 418.489 Q1936.34 414.878 1936.34 408.72 Q1936.34 402.355 1939.77 398.628 Q1943.22 394.878 1949.05 394.878 Q1954.28 394.878 1957.32 398.257 Q1960.37 401.614 1960.37 407.401 M1956.11 406.151 Q1956.07 402.656 1954.14 400.572 Q1952.25 398.489 1949.1 398.489 Q1945.53 398.489 1943.38 400.503 Q1941.25 402.517 1940.93 406.174 L1956.11 406.151 Z" fill="#000000" fill-rule="nonzero" fill-opacity="1" /><path clip-path="url(#clip060)" d="M1988.08 395.503 L1978.7 408.119 L1988.57 421.429 L1983.54 421.429 L1976 411.243 L1968.45 421.429 L1963.43 421.429 L1973.5 407.864 L1964.28 395.503 L1969.31 395.503 L1976.18 404.739 L1983.06 395.503 L1988.08 395.503 Z" fill="#000000" fill-rule="nonzero" fill-opacity="1" /><path clip-path="url(#clip060)" d="M2006.37 408.396 Q2001.2 408.396 1999.21 409.577 Q1997.22 410.757 1997.22 413.605 Q1997.22 415.873 1998.7 417.216 Q2000.21 418.535 2002.78 418.535 Q2006.32 418.535 2008.45 416.035 Q2010.6 413.512 2010.6 409.345 L2010.6 408.396 L2006.37 408.396 M2014.86 406.637 L2014.86 421.429 L2010.6 421.429 L2010.6 417.493 Q2009.14 419.855 2006.97 420.989 Q2004.79 422.1 2001.64 422.1 Q1997.66 422.1 1995.3 419.878 Q1992.96 417.632 1992.96 413.882 Q1992.96 409.507 1995.88 407.285 Q1998.82 405.063 2004.63 405.063 L2010.6 405.063 L2010.6 404.646 Q2010.6 401.707 2008.66 400.109 Q2006.74 398.489 2003.24 398.489 Q2001.02 398.489 1998.91 399.021 Q1996.81 399.554 1994.86 400.619 L1994.86 396.683 Q1997.2 395.781 1999.4 395.341 Q2001.6 394.878 2003.68 394.878 Q2009.31 394.878 2012.08 397.794 Q2014.86 400.711 2014.86 406.637 Z" fill="#000000" fill-rule="nonzero" fill-opacity="1" /><path clip-path="url(#clip060)" d="M2042.29 396.498 L2042.29 400.48 Q2040.49 399.484 2038.66 398.998 Q2036.85 398.489 2035 398.489 Q2030.86 398.489 2028.57 401.128 Q2026.27 403.744 2026.27 408.489 Q2026.27 413.234 2028.57 415.873 Q2030.86 418.489 2035 418.489 Q2036.85 418.489 2038.66 418.003 Q2040.49 417.493 2042.29 416.498 L2042.29 420.433 Q2040.51 421.267 2038.59 421.683 Q2036.69 422.1 2034.54 422.1 Q2028.68 422.1 2025.23 418.419 Q2021.78 414.739 2021.78 408.489 Q2021.78 402.146 2025.26 398.512 Q2028.75 394.878 2034.82 394.878 Q2036.78 394.878 2038.66 395.295 Q2040.53 395.688 2042.29 396.498 Z" fill="#000000" fill-rule="nonzero" fill-opacity="1" /><path clip-path="url(#clip060)" d="M2053.91 388.142 L2053.91 395.503 L2062.69 395.503 L2062.69 398.813 L2053.91 398.813 L2053.91 412.887 Q2053.91 416.058 2054.77 416.961 Q2055.65 417.864 2058.31 417.864 L2062.69 417.864 L2062.69 421.429 L2058.31 421.429 Q2053.38 421.429 2051.51 419.6 Q2049.63 417.748 2049.63 412.887 L2049.63 398.813 L2046.51 398.813 L2046.51 395.503 L2049.63 395.503 L2049.63 388.142 L2053.91 388.142 Z" fill="#000000" fill-rule="nonzero" fill-opacity="1" /></svg>