<?xml version="1.0" encoding="utf-8"?>
<svg xmlns="http://www.w3.org/2000/svg" xmlns:xlink="http://www.w3.org/1999/xlink" width="600" height="400" viewBox="0 0 2400 1600">
<defs>
  <clipPath id="clip520">
    <rect x="0" y="0" width="2400" height="1600"/>
  </clipPath>
</defs>
<path clip-path="url(#clip520)" d="M0 1600 L2400 1600 L2400 0 L0 0  Z" fill="#ffffff" fill-rule="evenodd" fill-opacity="1"/>
<defs>
  <clipPath id="clip521">
    <rect x="480" y="0" width="1681" height="1600"/>
  </clipPath>
</defs>
<path clip-path="url(#clip520)" d="M374.417 1486.45 L2352.76 1486.45 L2352.76 47.2441 L374.417 47.2441  Z" fill="#ffffff" fill-rule="evenodd" fill-opacity="1"/>
<defs>
  <clipPath id="clip522">
    <rect x="374" y="47" width="1979" height="1440"/>
  </clipPath>
</defs>
<polyline clip-path="url(#clip522)" style="stroke:#000000; stroke-linecap:round; stroke-linejoin:round; stroke-width:2; stroke-opacity:0.1; fill:none" points="430.408,1486.45 430.408,47.2441 "/>
<polyline clip-path="url(#clip522)" style="stroke:#000000; stroke-linecap:round; stroke-linejoin:round; stroke-width:2; stroke-opacity:0.1; fill:none" points="1024.79,1486.45 1024.79,47.2441 "/>
<polyline clip-path="url(#clip522)" style="stroke:#000000; stroke-linecap:round; stroke-linejoin:round; stroke-width:2; stroke-opacity:0.1; fill:none" points="1619.17,1486.45 1619.17,47.2441 "/>
<polyline clip-path="url(#clip522)" style="stroke:#000000; stroke-linecap:round; stroke-linejoin:round; stroke-width:2; stroke-opacity:0.1; fill:none" points="2213.55,1486.45 2213.55,47.2441 "/>
<polyline clip-path="url(#clip520)" style="stroke:#000000; stroke-linecap:round; stroke-linejoin:round; stroke-width:4; stroke-opacity:1; fill:none" points="374.417,1486.45 2352.76,1486.45 "/>
<polyline clip-path="url(#clip520)" style="stroke:#000000; stroke-linecap:round; stroke-linejoin:round; stroke-width:4; stroke-opacity:1; fill:none" points="430.408,1486.45 430.408,1467.55 "/>
<polyline clip-path="url(#clip520)" style="stroke:#000000; stroke-linecap:round; stroke-linejoin:round; stroke-width:4; stroke-opacity:1; fill:none" points="1024.79,1486.45 1024.79,1467.55 "/>
<polyline clip-path="url(#clip520)" style="stroke:#000000; stroke-linecap:round; stroke-linejoin:round; stroke-width:4; stroke-opacity:1; fill:none" points="1619.17,1486.45 1619.17,1467.55 "/>
<polyline clip-path="url(#clip520)" style="stroke:#000000; stroke-linecap:round; stroke-linejoin:round; stroke-width:4; stroke-opacity:1; fill:none" points="2213.55,1486.45 2213.55,1467.55 "/>
<path clip-path="url(#clip520)" d="M430.408 1517.37 Q426.796 1517.37 424.968 1520.93 Q423.162 1524.47 423.162 1531.6 Q423.162 1538.71 424.968 1542.27 Q426.796 1545.82 430.408 1545.82 Q434.042 1545.82 435.847 1542.27 Q437.676 1538.71 437.676 1531.6 Q437.676 1524.47 435.847 1520.93 Q434.042 1517.37 430.408 1517.37 M430.408 1513.66 Q436.218 1513.66 439.273 1518.27 Q442.352 1522.85 442.352 1531.6 Q442.352 1540.33 439.273 1544.94 Q436.218 1549.52 430.408 1549.52 Q424.597 1549.52 421.519 1544.94 Q418.463 1540.33 418.463 1531.6 Q418.463 1522.85 421.519 1518.27 Q424.597 1513.66 430.408 1513.66 Z" fill="#000000" fill-rule="nonzero" fill-opacity="1" /><path clip-path="url(#clip520)" d="M999.488 1514.29 L1017.84 1514.29 L1017.84 1518.22 L1003.77 1518.22 L1003.77 1526.7 Q1004.79 1526.35 1005.81 1526.19 Q1006.83 1526 1007.84 1526 Q1013.63 1526 1017.01 1529.17 Q1020.39 1532.34 1020.39 1537.76 Q1020.39 1543.34 1016.92 1546.44 Q1013.45 1549.52 1007.13 1549.52 Q1004.95 1549.52 1002.68 1549.15 Q1000.44 1548.78 998.03 1548.04 L998.03 1543.34 Q1000.11 1544.47 1002.34 1545.03 Q1004.56 1545.58 1007.03 1545.58 Q1011.04 1545.58 1013.38 1543.48 Q1015.71 1541.37 1015.71 1537.76 Q1015.71 1534.15 1013.38 1532.04 Q1011.04 1529.94 1007.03 1529.94 Q1005.16 1529.94 1003.28 1530.35 Q1001.43 1530.77 999.488 1531.65 L999.488 1514.29 Z" fill="#000000" fill-rule="nonzero" fill-opacity="1" /><path clip-path="url(#clip520)" d="M1039.6 1517.37 Q1035.99 1517.37 1034.16 1520.93 Q1032.36 1524.47 1032.36 1531.6 Q1032.36 1538.71 1034.16 1542.27 Q1035.99 1545.82 1039.6 1545.82 Q1043.24 1545.82 1045.04 1542.27 Q1046.87 1538.71 1046.87 1531.6 Q1046.87 1524.47 1045.04 1520.93 Q1043.24 1517.37 1039.6 1517.37 M1039.6 1513.66 Q1045.41 1513.66 1048.47 1518.27 Q1051.55 1522.85 1051.55 1531.6 Q1051.55 1540.33 1048.47 1544.94 Q1045.41 1549.52 1039.6 1549.52 Q1033.79 1549.52 1030.71 1544.94 Q1027.66 1540.33 1027.66 1531.6 Q1027.66 1522.85 1030.71 1518.27 Q1033.79 1513.66 1039.6 1513.66 Z" fill="#000000" fill-rule="nonzero" fill-opacity="1" /><path clip-path="url(#clip520)" d="M1578.78 1544.91 L1586.42 1544.91 L1586.42 1518.55 L1578.11 1520.21 L1578.11 1515.95 L1586.37 1514.29 L1591.05 1514.29 L1591.05 1544.91 L1598.68 1544.91 L1598.68 1548.85 L1578.78 1548.85 L1578.78 1544.91 Z" fill="#000000" fill-rule="nonzero" fill-opacity="1" /><path clip-path="url(#clip520)" d="M1618.13 1517.37 Q1614.52 1517.37 1612.69 1520.93 Q1610.88 1524.47 1610.88 1531.6 Q1610.88 1538.71 1612.69 1542.27 Q1614.52 1545.82 1618.13 1545.82 Q1621.76 1545.82 1623.57 1542.27 Q1625.4 1538.71 1625.4 1531.6 Q1625.4 1524.47 1623.57 1520.93 Q1621.76 1517.37 1618.13 1517.37 M1618.13 1513.66 Q1623.94 1513.66 1626.99 1518.27 Q1630.07 1522.85 1630.07 1531.6 Q1630.07 1540.33 1626.99 1544.94 Q1623.94 1549.52 1618.13 1549.52 Q1612.32 1549.52 1609.24 1544.94 Q1606.18 1540.33 1606.18 1531.6 Q1606.18 1522.85 1609.24 1518.27 Q1612.32 1513.66 1618.13 1513.66 Z" fill="#000000" fill-rule="nonzero" fill-opacity="1" /><path clip-path="url(#clip520)" d="M1648.29 1517.37 Q1644.68 1517.37 1642.85 1520.93 Q1641.05 1524.47 1641.05 1531.6 Q1641.05 1538.71 1642.85 1542.27 Q1644.68 1545.82 1648.29 1545.82 Q1651.92 1545.82 1653.73 1542.27 Q1655.56 1538.71 1655.56 1531.6 Q1655.56 1524.47 1653.73 1520.93 Q1651.92 1517.37 1648.29 1517.37 M1648.29 1513.66 Q1654.1 1513.66 1657.16 1518.27 Q1660.23 1522.85 1660.23 1531.6 Q1660.23 1540.33 1657.16 1544.94 Q1654.1 1549.52 1648.29 1549.52 Q1642.48 1549.52 1639.4 1544.94 Q1636.35 1540.33 1636.35 1531.6 Q1636.35 1522.85 1639.4 1518.27 Q1642.48 1513.66 1648.29 1513.66 Z" fill="#000000" fill-rule="nonzero" fill-opacity="1" /><path clip-path="url(#clip520)" d="M2173.16 1544.91 L2180.8 1544.91 L2180.8 1518.55 L2172.49 1520.21 L2172.49 1515.95 L2180.75 1514.29 L2185.43 1514.29 L2185.43 1544.91 L2193.07 1544.91 L2193.07 1548.85 L2173.16 1548.85 L2173.16 1544.91 Z" fill="#000000" fill-rule="nonzero" fill-opacity="1" /><path clip-path="url(#clip520)" d="M2202.56 1514.29 L2220.91 1514.29 L2220.91 1518.22 L2206.84 1518.22 L2206.84 1526.7 Q2207.86 1526.35 2208.88 1526.19 Q2209.89 1526 2210.91 1526 Q2216.7 1526 2220.08 1529.17 Q2223.46 1532.34 2223.46 1537.76 Q2223.46 1543.34 2219.99 1546.44 Q2216.51 1549.52 2210.2 1549.52 Q2208.02 1549.52 2205.75 1549.15 Q2203.51 1548.78 2201.1 1548.04 L2201.1 1543.34 Q2203.18 1544.47 2205.4 1545.03 Q2207.63 1545.58 2210.1 1545.58 Q2214.11 1545.58 2216.45 1543.48 Q2218.78 1541.37 2218.78 1537.76 Q2218.78 1534.15 2216.45 1532.04 Q2214.11 1529.94 2210.1 1529.94 Q2208.23 1529.94 2206.35 1530.35 Q2204.5 1530.77 2202.56 1531.65 L2202.56 1514.29 Z" fill="#000000" fill-rule="nonzero" fill-opacity="1" /><path clip-path="url(#clip520)" d="M2242.67 1517.37 Q2239.06 1517.37 2237.23 1520.93 Q2235.43 1524.47 2235.43 1531.6 Q2235.43 1538.71 2237.23 1542.27 Q2239.06 1545.82 2242.67 1545.82 Q2246.31 1545.82 2248.11 1542.27 Q2249.94 1538.71 2249.94 1531.6 Q2249.94 1524.47 2248.11 1520.93 Q2246.31 1517.37 2242.67 1517.37 M2242.67 1513.66 Q2248.48 1513.66 2251.54 1518.27 Q2254.62 1522.85 2254.62 1531.6 Q2254.62 1540.33 2251.54 1544.94 Q2248.48 1549.52 2242.67 1549.52 Q2236.86 1549.52 2233.78 1544.94 Q2230.73 1540.33 2230.73 1531.6 Q2230.73 1522.85 2233.78 1518.27 Q2236.86 1513.66 2242.67 1513.66 Z" fill="#000000" fill-rule="nonzero" fill-opacity="1" /><polyline clip-path="url(#clip522)" style="stroke:#000000; stroke-linecap:round; stroke-linejoin:round; stroke-width:2; stroke-opacity:0.1; fill:none" points="374.417,1372.3 2352.76,1372.3 "/>
<polyline clip-path="url(#clip522)" style="stroke:#000000; stroke-linecap:round; stroke-linejoin:round; stroke-width:2; stroke-opacity:0.1; fill:none" points="374.417,1160.59 2352.76,1160.59 "/>
<polyline clip-path="url(#clip522)" style="stroke:#000000; stroke-linecap:round; stroke-linejoin:round; stroke-width:2; stroke-opacity:0.1; fill:none" points="374.417,948.884 2352.76,948.884 "/>
<polyline clip-path="url(#clip522)" style="stroke:#000000; stroke-linecap:round; stroke-linejoin:round; stroke-width:2; stroke-opacity:0.1; fill:none" points="374.417,737.174 2352.76,737.174 "/>
<polyline clip-path="url(#clip522)" style="stroke:#000000; stroke-linecap:round; stroke-linejoin:round; stroke-width:2; stroke-opacity:0.1; fill:none" points="374.417,525.465 2352.76,525.465 "/>
<polyline clip-path="url(#clip522)" style="stroke:#000000; stroke-linecap:round; stroke-linejoin:round; stroke-width:2; stroke-opacity:0.1; fill:none" points="374.417,313.756 2352.76,313.756 "/>
<polyline clip-path="url(#clip522)" style="stroke:#000000; stroke-linecap:round; stroke-linejoin:round; stroke-width:2; stroke-opacity:0.1; fill:none" points="374.417,102.047 2352.76,102.047 "/>
<polyline clip-path="url(#clip520)" style="stroke:#000000; stroke-linecap:round; stroke-linejoin:round; stroke-width:4; stroke-opacity:1; fill:none" points="374.417,1486.45 374.417,47.2441 "/>
<polyline clip-path="url(#clip520)" style="stroke:#000000; stroke-linecap:round; stroke-linejoin:round; stroke-width:4; stroke-opacity:1; fill:none" points="374.417,1372.3 393.314,1372.3 "/>
<polyline clip-path="url(#clip520)" style="stroke:#000000; stroke-linecap:round; stroke-linejoin:round; stroke-width:4; stroke-opacity:1; fill:none" points="374.417,1160.59 393.314,1160.59 "/>
<polyline clip-path="url(#clip520)" style="stroke:#000000; stroke-linecap:round; stroke-linejoin:round; stroke-width:4; stroke-opacity:1; fill:none" points="374.417,948.884 393.314,948.884 "/>
<polyline clip-path="url(#clip520)" style="stroke:#000000; stroke-linecap:round; stroke-linejoin:round; stroke-width:4; stroke-opacity:1; fill:none" points="374.417,737.174 393.314,737.174 "/>
<polyline clip-path="url(#clip520)" style="stroke:#000000; stroke-linecap:round; stroke-linejoin:round; stroke-width:4; stroke-opacity:1; fill:none" points="374.417,525.465 393.314,525.465 "/>
<polyline clip-path="url(#clip520)" style="stroke:#000000; stroke-linecap:round; stroke-linejoin:round; stroke-width:4; stroke-opacity:1; fill:none" points="374.417,313.756 393.314,313.756 "/>
<polyline clip-path="url(#clip520)" style="stroke:#000000; stroke-linecap:round; stroke-linejoin:round; stroke-width:4; stroke-opacity:1; fill:none" points="374.417,102.047 393.314,102.047 "/>
<path clip-path="url(#clip520)" d="M51.9325 1379.2 L81.6083 1379.2 L81.6083 1383.14 L51.9325 1383.14 L51.9325 1379.2 Z" fill="#000000" fill-rule="nonzero" fill-opacity="1" /><path clip-path="url(#clip520)" d="M92.511 1392.09 L100.15 1392.09 L100.15 1365.73 L91.8397 1367.4 L91.8397 1363.14 L100.104 1361.47 L104.779 1361.47 L104.779 1392.09 L112.418 1392.09 L112.418 1396.03 L92.511 1396.03 L92.511 1392.09 Z" fill="#000000" fill-rule="nonzero" fill-opacity="1" /><path clip-path="url(#clip520)" d="M121.863 1390.15 L126.747 1390.15 L126.747 1396.03 L121.863 1396.03 L121.863 1390.15 Z" fill="#000000" fill-rule="nonzero" fill-opacity="1" /><path clip-path="url(#clip520)" d="M140.96 1392.09 L157.279 1392.09 L157.279 1396.03 L135.335 1396.03 L135.335 1392.09 Q137.997 1389.34 142.58 1384.71 Q147.187 1380.06 148.367 1378.71 Q150.613 1376.19 151.492 1374.46 Q152.395 1372.7 152.395 1371.01 Q152.395 1368.25 150.451 1366.52 Q148.529 1364.78 145.427 1364.78 Q143.228 1364.78 140.775 1365.54 Q138.344 1366.31 135.566 1367.86 L135.566 1363.14 Q138.39 1362 140.844 1361.42 Q143.298 1360.84 145.335 1360.84 Q150.705 1360.84 153.9 1363.53 Q157.094 1366.21 157.094 1370.71 Q157.094 1372.84 156.284 1374.76 Q155.497 1376.65 153.39 1379.25 Q152.812 1379.92 149.71 1383.14 Q146.608 1386.33 140.96 1392.09 Z" fill="#000000" fill-rule="nonzero" fill-opacity="1" /><path clip-path="url(#clip520)" d="M177.094 1364.55 Q173.483 1364.55 171.654 1368.11 Q169.849 1371.65 169.849 1378.78 Q169.849 1385.89 171.654 1389.46 Q173.483 1393 177.094 1393 Q180.728 1393 182.534 1389.46 Q184.362 1385.89 184.362 1378.78 Q184.362 1371.65 182.534 1368.11 Q180.728 1364.55 177.094 1364.55 M177.094 1360.84 Q182.904 1360.84 185.96 1365.45 Q189.038 1370.03 189.038 1378.78 Q189.038 1387.51 185.96 1392.12 Q182.904 1396.7 177.094 1396.7 Q171.284 1396.7 168.205 1392.12 Q165.15 1387.51 165.15 1378.78 Q165.15 1370.03 168.205 1365.45 Q171.284 1360.84 177.094 1360.84 Z" fill="#000000" fill-rule="nonzero" fill-opacity="1" /><path clip-path="url(#clip520)" d="M225.427 1370.57 L214.848 1381.19 L225.427 1391.77 L222.672 1394.57 L212.047 1383.95 L201.422 1394.57 L198.691 1391.77 L209.246 1381.19 L198.691 1370.57 L201.422 1367.77 L212.047 1378.39 L222.672 1367.77 L225.427 1370.57 Z" fill="#000000" fill-rule="nonzero" fill-opacity="1" /><path clip-path="url(#clip520)" d="M237.788 1392.09 L245.427 1392.09 L245.427 1365.73 L237.117 1367.4 L237.117 1363.14 L245.381 1361.47 L250.056 1361.47 L250.056 1392.09 L257.695 1392.09 L257.695 1396.03 L237.788 1396.03 L237.788 1392.09 Z" fill="#000000" fill-rule="nonzero" fill-opacity="1" /><path clip-path="url(#clip520)" d="M277.14 1364.55 Q273.529 1364.55 271.7 1368.11 Q269.894 1371.65 269.894 1378.78 Q269.894 1385.89 271.7 1389.46 Q273.529 1393 277.14 1393 Q280.774 1393 282.579 1389.46 Q284.408 1385.89 284.408 1378.78 Q284.408 1371.65 282.579 1368.11 Q280.774 1364.55 277.14 1364.55 M277.14 1360.84 Q282.95 1360.84 286.005 1365.45 Q289.084 1370.03 289.084 1378.78 Q289.084 1387.51 286.005 1392.12 Q282.95 1396.7 277.14 1396.7 Q271.329 1396.7 268.251 1392.12 Q265.195 1387.51 265.195 1378.78 Q265.195 1370.03 268.251 1365.45 Q271.329 1360.84 277.14 1360.84 Z" fill="#000000" fill-rule="nonzero" fill-opacity="1" /><path clip-path="url(#clip520)" d="M289.084 1354.95 L313.196 1354.95 L313.196 1358.14 L289.084 1358.14 L289.084 1354.95 Z" fill="#000000" fill-rule="nonzero" fill-opacity="1" /><path clip-path="url(#clip520)" d="M321.433 1340.54 L336.348 1340.54 L336.348 1343.74 L324.913 1343.74 L324.913 1350.62 Q325.74 1350.34 326.568 1350.21 Q327.395 1350.06 328.223 1350.06 Q332.925 1350.06 335.671 1352.63 Q338.417 1355.21 338.417 1359.61 Q338.417 1364.14 335.596 1366.66 Q332.774 1369.16 327.64 1369.16 Q325.872 1369.16 324.029 1368.86 Q322.205 1368.56 320.248 1367.96 L320.248 1364.14 Q321.941 1365.06 323.747 1365.52 Q325.552 1365.97 327.565 1365.97 Q330.818 1365.97 332.718 1364.26 Q334.618 1362.54 334.618 1359.61 Q334.618 1356.68 332.718 1354.96 Q330.818 1353.25 327.565 1353.25 Q326.041 1353.25 324.518 1353.59 Q323.013 1353.93 321.433 1354.65 L321.433 1340.54 Z" fill="#000000" fill-rule="nonzero" fill-opacity="1" /><path clip-path="url(#clip520)" d="M51.9325 1167.49 L81.6083 1167.49 L81.6083 1171.43 L51.9325 1171.43 L51.9325 1167.49 Z" fill="#000000" fill-rule="nonzero" fill-opacity="1" /><path clip-path="url(#clip520)" d="M92.511 1180.39 L100.15 1180.39 L100.15 1154.02 L91.8397 1155.69 L91.8397 1151.43 L100.104 1149.76 L104.779 1149.76 L104.779 1180.39 L112.418 1180.39 L112.418 1184.32 L92.511 1184.32 L92.511 1180.39 Z" fill="#000000" fill-rule="nonzero" fill-opacity="1" /><path clip-path="url(#clip520)" d="M121.863 1178.44 L126.747 1178.44 L126.747 1184.32 L121.863 1184.32 L121.863 1178.44 Z" fill="#000000" fill-rule="nonzero" fill-opacity="1" /><path clip-path="url(#clip520)" d="M146.932 1152.84 Q143.321 1152.84 141.492 1156.4 Q139.687 1159.95 139.687 1167.08 Q139.687 1174.18 141.492 1177.75 Q143.321 1181.29 146.932 1181.29 Q150.566 1181.29 152.372 1177.75 Q154.2 1174.18 154.2 1167.08 Q154.2 1159.95 152.372 1156.4 Q150.566 1152.84 146.932 1152.84 M146.932 1149.14 Q152.742 1149.14 155.798 1153.74 Q158.876 1158.33 158.876 1167.08 Q158.876 1175.8 155.798 1180.41 Q152.742 1184.99 146.932 1184.99 Q141.122 1184.99 138.043 1180.41 Q134.988 1175.8 134.988 1167.08 Q134.988 1158.33 138.043 1153.74 Q141.122 1149.14 146.932 1149.14 Z" fill="#000000" fill-rule="nonzero" fill-opacity="1" /><path clip-path="url(#clip520)" d="M177.094 1152.84 Q173.483 1152.84 171.654 1156.4 Q169.849 1159.95 169.849 1167.08 Q169.849 1174.18 171.654 1177.75 Q173.483 1181.29 177.094 1181.29 Q180.728 1181.29 182.534 1177.75 Q184.362 1174.18 184.362 1167.08 Q184.362 1159.95 182.534 1156.4 Q180.728 1152.84 177.094 1152.84 M177.094 1149.14 Q182.904 1149.14 185.96 1153.74 Q189.038 1158.33 189.038 1167.08 Q189.038 1175.8 185.96 1180.41 Q182.904 1184.99 177.094 1184.99 Q171.284 1184.99 168.205 1180.41 Q165.15 1175.8 165.15 1167.08 Q165.15 1158.33 168.205 1153.74 Q171.284 1149.14 177.094 1149.14 Z" fill="#000000" fill-rule="nonzero" fill-opacity="1" /><path clip-path="url(#clip520)" d="M225.427 1158.86 L214.848 1169.48 L225.427 1180.06 L222.672 1182.86 L212.047 1172.24 L201.422 1182.86 L198.691 1180.06 L209.246 1169.48 L198.691 1158.86 L201.422 1156.06 L212.047 1166.68 L222.672 1156.06 L225.427 1158.86 Z" fill="#000000" fill-rule="nonzero" fill-opacity="1" /><path clip-path="url(#clip520)" d="M237.788 1180.39 L245.427 1180.39 L245.427 1154.02 L237.117 1155.69 L237.117 1151.43 L245.381 1149.76 L250.056 1149.76 L250.056 1180.39 L257.695 1180.39 L257.695 1184.32 L237.788 1184.32 L237.788 1180.39 Z" fill="#000000" fill-rule="nonzero" fill-opacity="1" /><path clip-path="url(#clip520)" d="M277.14 1152.84 Q273.529 1152.84 271.7 1156.4 Q269.894 1159.95 269.894 1167.08 Q269.894 1174.18 271.7 1177.75 Q273.529 1181.29 277.14 1181.29 Q280.774 1181.29 282.579 1177.75 Q284.408 1174.18 284.408 1167.08 Q284.408 1159.95 282.579 1156.4 Q280.774 1152.84 277.14 1152.84 M277.14 1149.14 Q282.95 1149.14 286.005 1153.74 Q289.084 1158.33 289.084 1167.08 Q289.084 1175.8 286.005 1180.41 Q282.95 1184.99 277.14 1184.99 Q271.329 1184.99 268.251 1180.41 Q265.195 1175.8 265.195 1167.08 Q265.195 1158.33 268.251 1153.74 Q271.329 1149.14 277.14 1149.14 Z" fill="#000000" fill-rule="nonzero" fill-opacity="1" /><path clip-path="url(#clip520)" d="M289.084 1143.24 L313.196 1143.24 L313.196 1146.43 L289.084 1146.43 L289.084 1143.24 Z" fill="#000000" fill-rule="nonzero" fill-opacity="1" /><path clip-path="url(#clip520)" d="M321.433 1128.83 L336.348 1128.83 L336.348 1132.03 L324.913 1132.03 L324.913 1138.91 Q325.74 1138.63 326.568 1138.5 Q327.395 1138.35 328.223 1138.35 Q332.925 1138.35 335.671 1140.92 Q338.417 1143.5 338.417 1147.9 Q338.417 1152.43 335.596 1154.95 Q332.774 1157.46 327.64 1157.46 Q325.872 1157.46 324.029 1157.15 Q322.205 1156.85 320.248 1156.25 L320.248 1152.43 Q321.941 1153.36 323.747 1153.81 Q325.552 1154.26 327.565 1154.26 Q330.818 1154.26 332.718 1152.55 Q334.618 1150.84 334.618 1147.9 Q334.618 1144.97 332.718 1143.26 Q330.818 1141.54 327.565 1141.54 Q326.041 1141.54 324.518 1141.88 Q323.013 1142.22 321.433 1142.94 L321.433 1128.83 Z" fill="#000000" fill-rule="nonzero" fill-opacity="1" /><path clip-path="url(#clip520)" d="M50.9921 955.783 L80.6679 955.783 L80.6679 959.718 L50.9921 959.718 L50.9921 955.783 Z" fill="#000000" fill-rule="nonzero" fill-opacity="1" /><path clip-path="url(#clip520)" d="M100.76 956.199 Q97.4271 956.199 95.5058 957.982 Q93.6076 959.764 93.6076 962.889 Q93.6076 966.014 95.5058 967.796 Q97.4271 969.579 100.76 969.579 Q104.094 969.579 106.015 967.796 Q107.936 965.991 107.936 962.889 Q107.936 959.764 106.015 957.982 Q104.117 956.199 100.76 956.199 M96.0845 954.209 Q93.0752 953.468 91.3854 951.408 Q89.7188 949.347 89.7188 946.384 Q89.7188 942.241 92.6586 939.834 Q95.6215 937.426 100.76 937.426 Q105.922 937.426 108.862 939.834 Q111.802 942.241 111.802 946.384 Q111.802 949.347 110.112 951.408 Q108.446 953.468 105.459 954.209 Q108.839 954.996 110.714 957.287 Q112.612 959.579 112.612 962.889 Q112.612 967.912 109.533 970.597 Q106.478 973.282 100.76 973.282 Q95.0428 973.282 91.9641 970.597 Q88.9086 967.912 88.9086 962.889 Q88.9086 959.579 90.8067 957.287 Q92.7049 954.996 96.0845 954.209 M94.3715 946.824 Q94.3715 949.509 96.0382 951.014 Q97.728 952.519 100.76 952.519 Q103.77 952.519 105.459 951.014 Q107.172 949.509 107.172 946.824 Q107.172 944.139 105.459 942.635 Q103.77 941.13 100.76 941.13 Q97.728 941.13 96.0382 942.635 Q94.3715 944.139 94.3715 946.824 Z" fill="#000000" fill-rule="nonzero" fill-opacity="1" /><path clip-path="url(#clip520)" d="M120.922 966.732 L125.807 966.732 L125.807 972.611 L120.922 972.611 L120.922 966.732 Z" fill="#000000" fill-rule="nonzero" fill-opacity="1" /><path clip-path="url(#clip520)" d="M145.992 941.13 Q142.381 941.13 140.552 944.695 Q138.746 948.236 138.746 955.366 Q138.746 962.472 140.552 966.037 Q142.381 969.579 145.992 969.579 Q149.626 969.579 151.431 966.037 Q153.26 962.472 153.26 955.366 Q153.26 948.236 151.431 944.695 Q149.626 941.13 145.992 941.13 M145.992 937.426 Q151.802 937.426 154.857 942.033 Q157.936 946.616 157.936 955.366 Q157.936 964.093 154.857 968.699 Q151.802 973.282 145.992 973.282 Q140.181 973.282 137.103 968.699 Q134.047 964.093 134.047 955.366 Q134.047 946.616 137.103 942.033 Q140.181 937.426 145.992 937.426 Z" fill="#000000" fill-rule="nonzero" fill-opacity="1" /><path clip-path="url(#clip520)" d="M176.153 941.13 Q172.542 941.13 170.714 944.695 Q168.908 948.236 168.908 955.366 Q168.908 962.472 170.714 966.037 Q172.542 969.579 176.153 969.579 Q179.788 969.579 181.593 966.037 Q183.422 962.472 183.422 955.366 Q183.422 948.236 181.593 944.695 Q179.788 941.13 176.153 941.13 M176.153 937.426 Q181.964 937.426 185.019 942.033 Q188.098 946.616 188.098 955.366 Q188.098 964.093 185.019 968.699 Q181.964 973.282 176.153 973.282 Q170.343 973.282 167.265 968.699 Q164.209 964.093 164.209 955.366 Q164.209 946.616 167.265 942.033 Q170.343 937.426 176.153 937.426 Z" fill="#000000" fill-rule="nonzero" fill-opacity="1" /><path clip-path="url(#clip520)" d="M224.487 947.148 L213.908 957.773 L224.487 968.352 L221.732 971.153 L211.107 960.528 L200.482 971.153 L197.751 968.352 L208.306 957.773 L197.751 947.148 L200.482 944.347 L211.107 954.972 L221.732 944.347 L224.487 947.148 Z" fill="#000000" fill-rule="nonzero" fill-opacity="1" /><path clip-path="url(#clip520)" d="M236.848 968.676 L244.486 968.676 L244.486 942.31 L236.176 943.977 L236.176 939.718 L244.44 938.051 L249.116 938.051 L249.116 968.676 L256.755 968.676 L256.755 972.611 L236.848 972.611 L236.848 968.676 Z" fill="#000000" fill-rule="nonzero" fill-opacity="1" /><path clip-path="url(#clip520)" d="M276.199 941.13 Q272.588 941.13 270.759 944.695 Q268.954 948.236 268.954 955.366 Q268.954 962.472 270.759 966.037 Q272.588 969.579 276.199 969.579 Q279.833 969.579 281.639 966.037 Q283.468 962.472 283.468 955.366 Q283.468 948.236 281.639 944.695 Q279.833 941.13 276.199 941.13 M276.199 937.426 Q282.009 937.426 285.065 942.033 Q288.144 946.616 288.144 955.366 Q288.144 964.093 285.065 968.699 Q282.009 973.282 276.199 973.282 Q270.389 973.282 267.31 968.699 Q264.255 964.093 264.255 955.366 Q264.255 946.616 267.31 942.033 Q270.389 937.426 276.199 937.426 Z" fill="#000000" fill-rule="nonzero" fill-opacity="1" /><path clip-path="url(#clip520)" d="M288.144 931.528 L312.255 931.528 L312.255 934.725 L288.144 934.725 L288.144 931.528 Z" fill="#000000" fill-rule="nonzero" fill-opacity="1" /><path clip-path="url(#clip520)" d="M329.051 929.647 Q326.493 929.647 324.988 931.396 Q323.502 933.145 323.502 936.192 Q323.502 939.22 324.988 940.988 Q326.493 942.737 329.051 942.737 Q331.608 942.737 333.094 940.988 Q334.599 939.22 334.599 936.192 Q334.599 933.145 333.094 931.396 Q331.608 929.647 329.051 929.647 M336.592 917.741 L336.592 921.202 Q335.163 920.525 333.696 920.168 Q332.248 919.81 330.818 919.81 Q327.057 919.81 325.063 922.349 Q323.088 924.888 322.806 930.023 Q323.916 928.387 325.59 927.522 Q327.264 926.638 329.276 926.638 Q333.508 926.638 335.953 929.214 Q338.417 931.772 338.417 936.192 Q338.417 940.518 335.859 943.132 Q333.301 945.746 329.051 945.746 Q324.179 945.746 321.603 942.022 Q319.026 938.28 319.026 931.189 Q319.026 924.531 322.186 920.581 Q325.345 916.613 330.668 916.613 Q332.097 916.613 333.546 916.895 Q335.013 917.177 336.592 917.741 Z" fill="#000000" fill-rule="nonzero" fill-opacity="1" /><path clip-path="url(#clip520)" d="M50.9921 744.073 L80.6679 744.073 L80.6679 748.009 L50.9921 748.009 L50.9921 744.073 Z" fill="#000000" fill-rule="nonzero" fill-opacity="1" /><path clip-path="url(#clip520)" d="M101.339 741.759 Q98.1909 741.759 96.3391 743.911 Q94.5104 746.064 94.5104 749.814 Q94.5104 753.541 96.3391 755.717 Q98.1909 757.87 101.339 757.87 Q104.487 757.87 106.316 755.717 Q108.168 753.541 108.168 749.814 Q108.168 746.064 106.316 743.911 Q104.487 741.759 101.339 741.759 M110.621 727.106 L110.621 731.365 Q108.862 730.532 107.057 730.092 Q105.274 729.652 103.515 729.652 Q98.8854 729.652 96.4317 732.777 Q94.0012 735.902 93.6539 742.222 Q95.0197 740.208 97.0798 739.143 Q99.14 738.055 101.617 738.055 Q106.825 738.055 109.834 741.226 Q112.867 744.374 112.867 749.814 Q112.867 755.138 109.719 758.356 Q106.571 761.573 101.339 761.573 Q95.3437 761.573 92.1725 756.99 Q89.0012 752.384 89.0012 743.657 Q89.0012 735.462 92.89 730.601 Q96.7789 725.717 103.33 725.717 Q105.089 725.717 106.871 726.064 Q108.677 726.411 110.621 727.106 Z" fill="#000000" fill-rule="nonzero" fill-opacity="1" /><path clip-path="url(#clip520)" d="M120.922 755.022 L125.807 755.022 L125.807 760.902 L120.922 760.902 L120.922 755.022 Z" fill="#000000" fill-rule="nonzero" fill-opacity="1" /><path clip-path="url(#clip520)" d="M145.992 729.421 Q142.381 729.421 140.552 732.985 Q138.746 736.527 138.746 743.657 Q138.746 750.763 140.552 754.328 Q142.381 757.87 145.992 757.87 Q149.626 757.87 151.431 754.328 Q153.26 750.763 153.26 743.657 Q153.26 736.527 151.431 732.985 Q149.626 729.421 145.992 729.421 M145.992 725.717 Q151.802 725.717 154.857 730.323 Q157.936 734.907 157.936 743.657 Q157.936 752.384 154.857 756.99 Q151.802 761.573 145.992 761.573 Q140.181 761.573 137.103 756.99 Q134.047 752.384 134.047 743.657 Q134.047 734.907 137.103 730.323 Q140.181 725.717 145.992 725.717 Z" fill="#000000" fill-rule="nonzero" fill-opacity="1" /><path clip-path="url(#clip520)" d="M176.153 729.421 Q172.542 729.421 170.714 732.985 Q168.908 736.527 168.908 743.657 Q168.908 750.763 170.714 754.328 Q172.542 757.87 176.153 757.87 Q179.788 757.87 181.593 754.328 Q183.422 750.763 183.422 743.657 Q183.422 736.527 181.593 732.985 Q179.788 729.421 176.153 729.421 M176.153 725.717 Q181.964 725.717 185.019 730.323 Q188.098 734.907 188.098 743.657 Q188.098 752.384 185.019 756.99 Q181.964 761.573 176.153 761.573 Q170.343 761.573 167.265 756.99 Q164.209 752.384 164.209 743.657 Q164.209 734.907 167.265 730.323 Q170.343 725.717 176.153 725.717 Z" fill="#000000" fill-rule="nonzero" fill-opacity="1" /><path clip-path="url(#clip520)" d="M224.487 735.439 L213.908 746.064 L224.487 756.643 L221.732 759.444 L211.107 748.819 L200.482 759.444 L197.751 756.643 L208.306 746.064 L197.751 735.439 L200.482 732.638 L211.107 743.263 L221.732 732.638 L224.487 735.439 Z" fill="#000000" fill-rule="nonzero" fill-opacity="1" /><path clip-path="url(#clip520)" d="M236.848 756.967 L244.486 756.967 L244.486 730.601 L236.176 732.268 L236.176 728.009 L244.44 726.342 L249.116 726.342 L249.116 756.967 L256.755 756.967 L256.755 760.902 L236.848 760.902 L236.848 756.967 Z" fill="#000000" fill-rule="nonzero" fill-opacity="1" /><path clip-path="url(#clip520)" d="M276.199 729.421 Q272.588 729.421 270.759 732.985 Q268.954 736.527 268.954 743.657 Q268.954 750.763 270.759 754.328 Q272.588 757.87 276.199 757.87 Q279.833 757.87 281.639 754.328 Q283.468 750.763 283.468 743.657 Q283.468 736.527 281.639 732.985 Q279.833 729.421 276.199 729.421 M276.199 725.717 Q282.009 725.717 285.065 730.323 Q288.144 734.907 288.144 743.657 Q288.144 752.384 285.065 756.99 Q282.009 761.573 276.199 761.573 Q270.389 761.573 267.31 756.99 Q264.255 752.384 264.255 743.657 Q264.255 734.907 267.31 730.323 Q270.389 725.717 276.199 725.717 Z" fill="#000000" fill-rule="nonzero" fill-opacity="1" /><path clip-path="url(#clip520)" d="M288.144 719.818 L312.255 719.818 L312.255 723.016 L288.144 723.016 L288.144 719.818 Z" fill="#000000" fill-rule="nonzero" fill-opacity="1" /><path clip-path="url(#clip520)" d="M329.051 717.938 Q326.493 717.938 324.988 719.687 Q323.502 721.436 323.502 724.483 Q323.502 727.511 324.988 729.279 Q326.493 731.028 329.051 731.028 Q331.608 731.028 333.094 729.279 Q334.599 727.511 334.599 724.483 Q334.599 721.436 333.094 719.687 Q331.608 717.938 329.051 717.938 M336.592 706.032 L336.592 709.493 Q335.163 708.816 333.696 708.458 Q332.248 708.101 330.818 708.101 Q327.057 708.101 325.063 710.64 Q323.088 713.179 322.806 718.314 Q323.916 716.677 325.59 715.812 Q327.264 714.928 329.276 714.928 Q333.508 714.928 335.953 717.505 Q338.417 720.063 338.417 724.483 Q338.417 728.808 335.859 731.423 Q333.301 734.037 329.051 734.037 Q324.179 734.037 321.603 730.313 Q319.026 726.57 319.026 719.48 Q319.026 712.822 322.186 708.872 Q325.345 704.904 330.668 704.904 Q332.097 704.904 333.546 705.186 Q335.013 705.468 336.592 706.032 Z" fill="#000000" fill-rule="nonzero" fill-opacity="1" /><path clip-path="url(#clip520)" d="M50.9921 532.364 L80.6679 532.364 L80.6679 536.299 L50.9921 536.299 L50.9921 532.364 Z" fill="#000000" fill-rule="nonzero" fill-opacity="1" /><path clip-path="url(#clip520)" d="M103.608 518.707 L91.8021 537.156 L103.608 537.156 L103.608 518.707 M102.381 514.633 L108.26 514.633 L108.26 537.156 L113.191 537.156 L113.191 541.045 L108.26 541.045 L108.26 549.193 L103.608 549.193 L103.608 541.045 L88.0058 541.045 L88.0058 536.531 L102.381 514.633 Z" fill="#000000" fill-rule="nonzero" fill-opacity="1" /><path clip-path="url(#clip520)" d="M120.922 543.313 L125.807 543.313 L125.807 549.193 L120.922 549.193 L120.922 543.313 Z" fill="#000000" fill-rule="nonzero" fill-opacity="1" /><path clip-path="url(#clip520)" d="M145.992 517.711 Q142.381 517.711 140.552 521.276 Q138.746 524.818 138.746 531.948 Q138.746 539.054 140.552 542.619 Q142.381 546.16 145.992 546.16 Q149.626 546.16 151.431 542.619 Q153.26 539.054 153.26 531.948 Q153.26 524.818 151.431 521.276 Q149.626 517.711 145.992 517.711 M145.992 514.008 Q151.802 514.008 154.857 518.614 Q157.936 523.198 157.936 531.948 Q157.936 540.674 154.857 545.281 Q151.802 549.864 145.992 549.864 Q140.181 549.864 137.103 545.281 Q134.047 540.674 134.047 531.948 Q134.047 523.198 137.103 518.614 Q140.181 514.008 145.992 514.008 Z" fill="#000000" fill-rule="nonzero" fill-opacity="1" /><path clip-path="url(#clip520)" d="M176.153 517.711 Q172.542 517.711 170.714 521.276 Q168.908 524.818 168.908 531.948 Q168.908 539.054 170.714 542.619 Q172.542 546.16 176.153 546.16 Q179.788 546.16 181.593 542.619 Q183.422 539.054 183.422 531.948 Q183.422 524.818 181.593 521.276 Q179.788 517.711 176.153 517.711 M176.153 514.008 Q181.964 514.008 185.019 518.614 Q188.098 523.198 188.098 531.948 Q188.098 540.674 185.019 545.281 Q181.964 549.864 176.153 549.864 Q170.343 549.864 167.265 545.281 Q164.209 540.674 164.209 531.948 Q164.209 523.198 167.265 518.614 Q170.343 514.008 176.153 514.008 Z" fill="#000000" fill-rule="nonzero" fill-opacity="1" /><path clip-path="url(#clip520)" d="M224.487 523.73 L213.908 534.355 L224.487 544.934 L221.732 547.734 L211.107 537.11 L200.482 547.734 L197.751 544.934 L208.306 534.355 L197.751 523.73 L200.482 520.929 L211.107 531.554 L221.732 520.929 L224.487 523.73 Z" fill="#000000" fill-rule="nonzero" fill-opacity="1" /><path clip-path="url(#clip520)" d="M236.848 545.258 L244.486 545.258 L244.486 518.892 L236.176 520.559 L236.176 516.299 L244.44 514.633 L249.116 514.633 L249.116 545.258 L256.755 545.258 L256.755 549.193 L236.848 549.193 L236.848 545.258 Z" fill="#000000" fill-rule="nonzero" fill-opacity="1" /><path clip-path="url(#clip520)" d="M276.199 517.711 Q272.588 517.711 270.759 521.276 Q268.954 524.818 268.954 531.948 Q268.954 539.054 270.759 542.619 Q272.588 546.16 276.199 546.16 Q279.833 546.16 281.639 542.619 Q283.468 539.054 283.468 531.948 Q283.468 524.818 281.639 521.276 Q279.833 517.711 276.199 517.711 M276.199 514.008 Q282.009 514.008 285.065 518.614 Q288.144 523.198 288.144 531.948 Q288.144 540.674 285.065 545.281 Q282.009 549.864 276.199 549.864 Q270.389 549.864 267.31 545.281 Q264.255 540.674 264.255 531.948 Q264.255 523.198 267.31 518.614 Q270.389 514.008 276.199 514.008 Z" fill="#000000" fill-rule="nonzero" fill-opacity="1" /><path clip-path="url(#clip520)" d="M288.144 508.109 L312.255 508.109 L312.255 511.306 L288.144 511.306 L288.144 508.109 Z" fill="#000000" fill-rule="nonzero" fill-opacity="1" /><path clip-path="url(#clip520)" d="M329.051 506.228 Q326.493 506.228 324.988 507.977 Q323.502 509.727 323.502 512.773 Q323.502 515.802 324.988 517.569 Q326.493 519.319 329.051 519.319 Q331.608 519.319 333.094 517.569 Q334.599 515.802 334.599 512.773 Q334.599 509.727 333.094 507.977 Q331.608 506.228 329.051 506.228 M336.592 494.323 L336.592 497.784 Q335.163 497.107 333.696 496.749 Q332.248 496.392 330.818 496.392 Q327.057 496.392 325.063 498.931 Q323.088 501.47 322.806 506.605 Q323.916 504.968 325.59 504.103 Q327.264 503.219 329.276 503.219 Q333.508 503.219 335.953 505.796 Q338.417 508.354 338.417 512.773 Q338.417 517.099 335.859 519.714 Q333.301 522.328 329.051 522.328 Q324.179 522.328 321.603 518.604 Q319.026 514.861 319.026 507.771 Q319.026 501.113 322.186 497.163 Q325.345 493.195 330.668 493.195 Q332.097 493.195 333.546 493.477 Q335.013 493.759 336.592 494.323 Z" fill="#000000" fill-rule="nonzero" fill-opacity="1" /><path clip-path="url(#clip520)" d="M50.9921 320.655 L80.6679 320.655 L80.6679 324.59 L50.9921 324.59 L50.9921 320.655 Z" fill="#000000" fill-rule="nonzero" fill-opacity="1" /><path clip-path="url(#clip520)" d="M94.7882 333.548 L111.108 333.548 L111.108 337.484 L89.1632 337.484 L89.1632 333.548 Q91.8252 330.794 96.4085 326.164 Q101.015 321.511 102.196 320.169 Q104.441 317.646 105.321 315.91 Q106.223 314.15 106.223 312.461 Q106.223 309.706 104.279 307.97 Q102.358 306.234 99.2558 306.234 Q97.0567 306.234 94.603 306.998 Q92.1725 307.762 89.3947 309.312 L89.3947 304.59 Q92.2188 303.456 94.6724 302.877 Q97.1261 302.299 99.1632 302.299 Q104.534 302.299 107.728 304.984 Q110.922 307.669 110.922 312.16 Q110.922 314.289 110.112 316.211 Q109.325 318.109 107.219 320.701 Q106.64 321.373 103.538 324.59 Q100.436 327.785 94.7882 333.548 Z" fill="#000000" fill-rule="nonzero" fill-opacity="1" /><path clip-path="url(#clip520)" d="M120.922 331.604 L125.807 331.604 L125.807 337.484 L120.922 337.484 L120.922 331.604 Z" fill="#000000" fill-rule="nonzero" fill-opacity="1" /><path clip-path="url(#clip520)" d="M145.992 306.002 Q142.381 306.002 140.552 309.567 Q138.746 313.109 138.746 320.238 Q138.746 327.345 140.552 330.91 Q142.381 334.451 145.992 334.451 Q149.626 334.451 151.431 330.91 Q153.26 327.345 153.26 320.238 Q153.26 313.109 151.431 309.567 Q149.626 306.002 145.992 306.002 M145.992 302.299 Q151.802 302.299 154.857 306.905 Q157.936 311.488 157.936 320.238 Q157.936 328.965 154.857 333.572 Q151.802 338.155 145.992 338.155 Q140.181 338.155 137.103 333.572 Q134.047 328.965 134.047 320.238 Q134.047 311.488 137.103 306.905 Q140.181 302.299 145.992 302.299 Z" fill="#000000" fill-rule="nonzero" fill-opacity="1" /><path clip-path="url(#clip520)" d="M176.153 306.002 Q172.542 306.002 170.714 309.567 Q168.908 313.109 168.908 320.238 Q168.908 327.345 170.714 330.91 Q172.542 334.451 176.153 334.451 Q179.788 334.451 181.593 330.91 Q183.422 327.345 183.422 320.238 Q183.422 313.109 181.593 309.567 Q179.788 306.002 176.153 306.002 M176.153 302.299 Q181.964 302.299 185.019 306.905 Q188.098 311.488 188.098 320.238 Q188.098 328.965 185.019 333.572 Q181.964 338.155 176.153 338.155 Q170.343 338.155 167.265 333.572 Q164.209 328.965 164.209 320.238 Q164.209 311.488 167.265 306.905 Q170.343 302.299 176.153 302.299 Z" fill="#000000" fill-rule="nonzero" fill-opacity="1" /><path clip-path="url(#clip520)" d="M224.487 312.021 L213.908 322.646 L224.487 333.224 L221.732 336.025 L211.107 325.4 L200.482 336.025 L197.751 333.224 L208.306 322.646 L197.751 312.021 L200.482 309.22 L211.107 319.845 L221.732 309.22 L224.487 312.021 Z" fill="#000000" fill-rule="nonzero" fill-opacity="1" /><path clip-path="url(#clip520)" d="M236.848 333.548 L244.486 333.548 L244.486 307.183 L236.176 308.849 L236.176 304.59 L244.44 302.924 L249.116 302.924 L249.116 333.548 L256.755 333.548 L256.755 337.484 L236.848 337.484 L236.848 333.548 Z" fill="#000000" fill-rule="nonzero" fill-opacity="1" /><path clip-path="url(#clip520)" d="M276.199 306.002 Q272.588 306.002 270.759 309.567 Q268.954 313.109 268.954 320.238 Q268.954 327.345 270.759 330.91 Q272.588 334.451 276.199 334.451 Q279.833 334.451 281.639 330.91 Q283.468 327.345 283.468 320.238 Q283.468 313.109 281.639 309.567 Q279.833 306.002 276.199 306.002 M276.199 302.299 Q282.009 302.299 285.065 306.905 Q288.144 311.488 288.144 320.238 Q288.144 328.965 285.065 333.572 Q282.009 338.155 276.199 338.155 Q270.389 338.155 267.31 333.572 Q264.255 328.965 264.255 320.238 Q264.255 311.488 267.31 306.905 Q270.389 302.299 276.199 302.299 Z" fill="#000000" fill-rule="nonzero" fill-opacity="1" /><path clip-path="url(#clip520)" d="M288.144 296.4 L312.255 296.4 L312.255 299.597 L288.144 299.597 L288.144 296.4 Z" fill="#000000" fill-rule="nonzero" fill-opacity="1" /><path clip-path="url(#clip520)" d="M329.051 294.519 Q326.493 294.519 324.988 296.268 Q323.502 298.017 323.502 301.064 Q323.502 304.092 324.988 305.86 Q326.493 307.609 329.051 307.609 Q331.608 307.609 333.094 305.86 Q334.599 304.092 334.599 301.064 Q334.599 298.017 333.094 296.268 Q331.608 294.519 329.051 294.519 M336.592 282.614 L336.592 286.074 Q335.163 285.397 333.696 285.04 Q332.248 284.683 330.818 284.683 Q327.057 284.683 325.063 287.222 Q323.088 289.761 322.806 294.895 Q323.916 293.259 325.59 292.394 Q327.264 291.51 329.276 291.51 Q333.508 291.51 335.953 294.087 Q338.417 296.644 338.417 301.064 Q338.417 305.39 335.859 308.004 Q333.301 310.619 329.051 310.619 Q324.179 310.619 321.603 306.895 Q319.026 303.152 319.026 296.061 Q319.026 289.403 322.186 285.454 Q325.345 281.485 330.668 281.485 Q332.097 281.485 333.546 281.768 Q335.013 282.05 336.592 282.614 Z" fill="#000000" fill-rule="nonzero" fill-opacity="1" /><path clip-path="url(#clip520)" d="M326.472 87.8455 Q322.861 87.8455 321.033 91.4103 Q319.227 94.9519 319.227 102.082 Q319.227 109.188 321.033 112.753 Q322.861 116.294 326.472 116.294 Q330.107 116.294 331.912 112.753 Q333.741 109.188 333.741 102.082 Q333.741 94.9519 331.912 91.4103 Q330.107 87.8455 326.472 87.8455 M326.472 84.1418 Q332.283 84.1418 335.338 88.7483 Q338.417 93.3316 338.417 102.082 Q338.417 110.808 335.338 115.415 Q332.283 119.998 326.472 119.998 Q320.662 119.998 317.584 115.415 Q314.528 110.808 314.528 102.082 Q314.528 93.3316 317.584 88.7483 Q320.662 84.1418 326.472 84.1418 Z" fill="#000000" fill-rule="nonzero" fill-opacity="1" /><polyline clip-path="url(#clip522)" style="stroke:#009af9; stroke-linecap:round; stroke-linejoin:round; stroke-width:4; stroke-opacity:1; fill:none" points="430.408,102.047 431.596,102.598 432.785,104.252 433.974,106.999 435.163,110.807 436.351,115.58 437.54,121.119 438.729,127.074 439.918,132.906 441.106,137.88 442.295,141.113 443.484,141.703 444.673,138.942 445.861,132.58 447.05,123.08 448.239,111.738 449.428,100.573 450.616,91.947 451.805,87.9763 452.994,89.9217 454.183,97.7931 455.372,110.328 456.56,125.359 457.749,140.413 458.938,153.329 460.127,162.679 461.315,167.906 462.504,169.226 463.693,167.373 464.882,163.319 466.07,158.042 467.259,152.374 468.448,146.943 469.637,142.171 470.825,138.307 472.014,135.479 473.203,133.737 474.392,133.096 475.581,133.557 476.769,135.121 477.958,137.78 479.147,141.504 480.336,146.204 481.524,151.691 482.713,157.63 483.902,163.497 485.091,168.573 486.279,171.982 487.468,172.818 488.657,170.347 489.846,164.273 491.034,154.992 492.223,143.731 493.412,132.465 494.601,123.545 495.789,119.133 496.978,120.578 498.167,127.998 499.356,140.225 500.545,155.145 501.733,170.286 502.922,183.442 504.111,193.114 505.3,198.678 506.488,200.294 507.677,198.665 508.866,194.753 510.055,189.541 511.243,183.879 512.432,178.41 513.621,173.574 514.81,169.63 515.998,166.714 517.187,164.883 518.376,164.152 519.565,164.523 520.754,165.997 521.942,168.568 523.131,172.207 524.32,176.833 525.509,182.266 526.697,188.185 527.886,194.083 529.075,199.254 530.264,202.834 531.452,203.911 532.641,201.729 533.83,195.944 535.019,186.889 536.207,175.725 537.396,164.372 538.585,155.174 539.774,150.33 540.962,151.274 542.151,158.235 543.34,170.14 544.529,184.933 545.718,200.145 546.906,213.53 548.095,223.522 549.284,229.424 550.473,231.341 551.661,229.942 552.85,226.178 554.039,221.038 555.228,215.385 556.416,209.882 557.605,204.982 558.794,200.959 559.983,197.957 561.171,196.036 562.36,195.215 563.549,195.497 564.738,196.881 565.926,199.363 567.115,202.917 568.304,207.468 569.493,212.845 570.682,218.741 571.87,224.664 573.059,229.925 574.248,233.669 575.437,234.982 576.625,233.085 577.814,227.592 579.003,218.772 580.192,207.717 581.38,196.294 582.569,186.832 583.758,181.565 584.947,182.012 586.135,188.506 587.324,200.075 588.513,214.723 589.702,229.992 590.891,243.596 592.079,253.902 593.268,260.143 594.457,262.365 595.646,261.203 596.834,257.594 598.023,252.532 599.212,246.893 600.401,241.358 601.589,236.396 602.778,232.295 603.967,229.206 605.156,227.196 606.344,226.286 607.533,226.478 608.722,227.772 609.911,230.165 611.099,233.634 612.288,238.108 613.477,243.427 614.666,249.296 615.855,255.24 617.043,260.585 618.232,264.488 619.421,266.032 620.61,264.418 621.798,259.218 622.987,250.64 624.176,239.706 625.365,228.23 626.553,218.519 627.742,212.839 628.931,212.79 630.12,218.81 631.308,230.03 632.497,244.517 633.686,259.827 634.875,273.639 636.064,284.254 637.252,290.835 638.441,293.367 639.63,292.448 640.819,289.001 642.007,284.022 643.196,278.402 644.385,272.838 645.574,267.816 646.762,263.638 647.951,260.463 649.14,258.364 650.329,257.364 651.517,257.466 652.706,258.67 653.895,260.974 655.084,264.357 656.272,268.754 657.461,274.013 658.65,279.853 659.839,285.813 661.028,291.237 662.216,295.291 663.405,297.06 664.594,295.727 665.783,290.821 666.971,282.492 668.16,271.691 669.349,260.176 670.538,250.232 671.726,244.152 672.915,243.609 674.104,249.15 675.293,260.008 676.481,274.317 677.67,289.652 678.859,303.66 680.048,314.58 681.236,321.5 682.425,324.346 683.614,323.676 684.803,320.397 685.992,315.508 687.18,309.911 688.369,304.321 689.558,299.242 690.747,294.987 691.935,291.727 693.124,289.539 694.313,288.449 695.502,288.461 696.69,289.576 697.879,291.791 699.068,295.087 700.257,299.405 701.445,304.603 702.634,310.41 703.823,316.382 705.012,321.879 706.201,326.078 707.389,328.067 708.578,327.011 709.767,322.401 710.956,314.326 712.144,303.672 713.333,292.134 714.522,281.972 715.711,275.501 716.899,274.47 718.088,279.526 719.277,290.008 720.466,304.124 721.654,319.468 722.843,333.661 724.032,344.878 725.221,352.137 726.409,355.301 727.598,354.887 728.787,351.783 729.976,346.989 731.165,341.42 732.353,335.808 733.542,330.673 734.731,326.343 735.92,322.999 737.108,320.722 738.297,319.542 739.486,319.464 740.675,320.489 741.863,322.614 743.052,325.824 744.241,330.063 745.43,335.197 746.618,340.968 747.807,346.948 748.996,352.513 750.185,356.852 751.373,359.054 752.562,358.271 753.751,353.957 754.94,346.143 756.129,335.645 757.317,324.1 758.506,313.736 759.695,306.888 760.884,305.371 762.072,309.939 763.261,320.033 764.45,333.938 765.639,349.276 766.827,363.641 768.016,375.15 769.205,382.747 770.394,386.232 771.582,386.08 772.771,383.158 773.96,378.465 775.149,372.929 776.338,367.298 777.526,362.11 778.715,357.706 779.904,354.277 781.093,351.912 782.281,350.642 783.47,350.474 784.659,351.409 785.848,353.445 787.036,356.568 788.225,360.727 789.414,365.795 790.603,371.528 791.791,377.512 792.98,383.138 794.169,387.611 795.358,390.021 796.546,389.508 797.735,385.49 798.924,377.942 800.113,367.612 801.302,356.074 802.49,345.524 803.679,338.31 804.868,336.314 806.057,340.389 807.245,350.084 808.434,363.763 809.623,379.078 810.812,393.602 812,405.395 813.189,413.329 814.378,417.139 815.567,417.254 816.755,414.521 817.944,409.935 819.133,404.437 820.322,398.791 821.511,393.552 822.699,389.075 823.888,385.562 825.077,383.109 826.266,381.749 827.454,381.492 828.643,382.337 829.832,384.283 831.021,387.319 832.209,391.396 833.398,396.398 834.587,402.09 835.776,408.073 836.964,413.756 838.153,418.356 839.342,420.969 840.531,420.721 841.719,416.999 842.908,409.722 844.097,399.57 845.286,388.054 846.475,377.334 847.663,369.768 848.852,367.298 850.041,370.877 851.23,380.162 852.418,393.598 853.607,408.873 854.796,423.544 855.985,435.614 857.173,443.883 858.362,448.021 859.551,448.409 860.74,445.871 861.928,441.4 863.117,435.945 864.306,430.287 865.495,424.999 866.683,420.451 867.872,416.855 869.061,414.313 870.25,412.864 871.439,412.516 872.627,413.272 873.816,415.129 875.005,418.076 876.194,422.072 877.382,427.006 878.571,432.654 879.76,438.633 880.949,444.367 882.137,449.088 883.326,451.897 884.515,451.911 885.704,448.484 886.892,441.482 888.081,431.519 889.27,420.04 890.459,409.165 891.648,401.26 892.836,398.322 894.025,401.404 895.214,410.267 896.403,423.446 897.591,438.665 898.78,453.469 899.969,465.807 901.158,474.41 902.346,478.878 903.535,479.545 904.724,477.209 905.913,472.858 907.101,467.451 908.29,461.786 909.479,456.451 910.668,451.833 911.856,448.154 913.045,445.524 914.234,443.985 915.423,443.548 916.612,444.214 917.8,445.981 918.989,448.841 920.178,452.755 921.367,457.618 922.555,463.22 923.744,469.191 924.933,474.971 926.122,479.807 927.31,482.807 928.499,483.077 929.688,479.944 930.877,473.222 932.065,463.457 933.254,452.029 934.443,441.017 935.632,432.785 936.82,429.388 938.009,431.97 939.198,440.402 940.387,453.307 941.576,468.453 942.764,483.376 943.953,495.975 945.142,504.909 946.331,509.71 947.519,510.661 948.708,508.533 949.897,504.309 951.086,498.956 952.274,493.287 953.463,487.908 954.652,483.221 955.841,479.461 957.029,476.743 958.218,475.115 959.407,474.588 960.596,475.163 961.785,476.841 962.973,479.613 964.162,483.443 965.351,488.235 966.54,493.788 967.728,499.747 968.917,505.569 970.106,510.514 971.295,513.698 972.483,514.221 973.672,511.38 974.861,504.941 976.05,495.384 977.238,484.021 978.427,472.886 979.616,464.343 980.805,460.494 981.993,462.575 983.182,470.567 984.371,483.183 985.56,498.24 986.749,513.268 987.937,526.118 989.126,535.38 990.315,540.516 991.504,541.756 992.692,539.844 993.881,535.753 995.07,530.458 996.259,524.789 997.447,519.37 998.636,514.616 999.825,510.774 1001.01,507.969 1002.2,506.251 1003.39,505.634 1004.58,506.12 1005.77,507.708 1006.96,510.392 1008.15,514.138 1009.34,518.858 1010.52,524.36 1011.71,530.303 1012.9,536.161 1014.09,541.21 1015.28,544.572 1016.47,545.342 1017.66,542.792 1018.85,536.64 1020.03,527.298 1021.22,516.014 1022.41,504.774 1023.6,495.933 1024.79,491.64 1025.98,493.22 1027.17,500.763 1028.36,513.076 1029.54,528.027 1030.73,543.146 1031.92,556.237 1033.11,565.823 1034.3,571.295 1035.49,572.83 1036.68,571.14 1037.87,567.189 1039.05,561.959 1040.24,556.294 1041.43,550.836 1042.62,546.016 1043.81,542.094 1045,539.202 1046.19,537.395 1047.38,536.688 1048.56,537.084 1049.75,538.583 1050.94,541.178 1052.13,544.84 1053.32,549.486 1054.51,554.934 1055.7,560.859 1056.89,566.748 1058.07,571.894 1059.26,575.428 1060.45,576.441 1061.64,574.18 1062.83,568.316 1064.02,559.199 1065.21,548.008 1066.4,536.677 1067.58,527.553 1068.77,522.825 1069.96,523.906 1071.15,530.992 1072.34,542.986 1073.53,557.814 1074.72,573.009 1075.91,586.333 1077.09,596.238 1078.28,602.048 1079.47,603.883 1080.66,602.42 1081.85,598.616 1083.04,593.456 1084.23,587.8 1085.42,582.306 1086.6,577.423 1087.79,573.421 1088.98,570.443 1090.17,568.546 1091.36,567.75 1092.55,568.056 1093.74,569.464 1094.93,571.971 1096.11,575.548 1097.3,580.119 1098.49,585.512 1099.68,591.414 1100.87,597.331 1102.06,602.568 1103.25,606.268 1104.44,607.517 1105.62,605.543 1106.81,599.97 1108,591.086 1109.19,580 1110.38,568.595 1111.57,559.203 1112.76,554.05 1113.95,554.632 1115.13,561.253 1116.32,572.916 1117.51,587.604 1118.7,602.859 1119.89,616.405 1121.08,626.626 1122.27,632.774 1123.46,634.913 1124.65,633.686 1125.83,630.034 1127.02,624.95 1128.21,619.307 1129.4,613.781 1130.59,608.835 1131.78,604.755 1132.97,601.69 1134.16,599.705 1135.34,598.818 1136.53,599.035 1137.72,600.353 1138.91,602.771 1140.1,606.263 1141.29,610.758 1142.48,616.093 1143.67,621.97 1144.85,627.908 1146.04,633.231 1147.23,637.091 1148.42,638.573 1149.61,636.882 1150.8,631.602 1151.99,622.957 1153.18,611.989 1154.36,600.526 1155.55,590.881 1156.74,585.313 1157.93,585.399 1159.12,591.549 1160.31,602.866 1161.5,617.398 1162.69,632.698 1163.87,646.454 1165.06,656.986 1166.25,663.474 1167.44,665.921 1168.63,664.935 1169.82,661.443 1171.01,656.441 1172.2,650.815 1173.38,645.259 1174.57,640.254 1175.76,636.096 1176.95,632.945 1178.14,630.87 1179.33,629.894 1180.52,630.021 1181.71,631.25 1182.89,633.578 1184.08,636.984 1185.27,641.402 1186.46,646.678 1187.65,652.526 1188.84,658.482 1190.03,663.885 1191.22,667.898 1192.4,669.606 1193.59,668.197 1194.78,663.211 1195.97,654.813 1197.16,643.975 1198.35,632.469 1199.54,622.587 1200.73,616.615 1201.91,616.207 1203.1,621.88 1204.29,632.837 1205.48,647.196 1206.67,662.526 1207.86,676.482 1209.05,687.319 1210.24,694.146 1211.42,696.906 1212.61,696.168 1213.8,692.842 1214.99,687.928 1216.18,682.324 1217.37,676.741 1218.56,671.678 1219.75,667.444 1220.93,664.207 1222.12,662.043 1223.31,660.977 1224.5,661.014 1225.69,662.153 1226.88,664.392 1228.07,667.713 1229.26,672.052 1230.44,677.267 1231.63,683.083 1232.82,689.052 1234.01,694.53 1235.2,698.69 1236.39,700.619 1237.58,699.488 1238.77,694.797 1239.96,686.652 1241.14,675.956 1242.33,664.423 1243.52,654.319 1244.71,647.954 1245.9,647.056 1247.09,652.246 1248.28,662.831 1249.47,677.001 1250.65,692.345 1251.84,706.488 1253.03,717.625 1254.22,724.791 1255.41,727.868 1256.6,727.383 1257.79,724.231 1258.98,719.41 1260.16,713.833 1261.35,708.227 1262.54,703.107 1263.73,698.798 1264.92,695.476 1266.11,693.223 1267.3,692.068 1268.49,692.015 1269.67,693.064 1270.86,695.214 1272.05,698.448 1273.24,702.708 1274.43,707.86 1275.62,713.641 1276.81,719.62 1278,725.166 1279.18,729.467 1280.37,731.612 1281.56,730.754 1282.75,726.36 1283.94,718.474 1285.13,707.932 1286.32,696.387 1287.51,686.077 1288.69,679.331 1289.88,677.946 1291.07,682.649 1292.26,692.85 1293.45,706.814 1294.64,722.155 1295.83,736.474 1297.02,747.904 1298.2,755.408 1299.39,758.806 1300.58,758.581 1301.77,755.608 1302.96,750.887 1304.15,745.341 1305.34,739.716 1306.53,734.542 1307.71,730.158 1308.9,726.752 1310.09,724.411 1311.28,723.166 1312.47,723.023 1313.66,723.982 1314.85,726.043 1316.04,729.19 1317.22,733.37 1318.41,738.457 1319.6,744.201 1320.79,750.184 1321.98,755.793 1323.17,760.23 1324.36,762.584 1325.55,761.997 1326.73,757.898 1327.92,750.277 1329.11,739.9 1330.3,728.358 1331.49,717.858 1332.68,710.743 1333.87,708.878 1335.06,713.088 1336.24,722.894 1337.43,736.636 1338.62,751.959 1339.81,766.441 1341,778.156 1342.19,785.998 1343.38,789.719 1344.57,789.76 1345.75,786.974 1346.94,782.359 1348.13,776.85 1349.32,771.208 1350.51,765.982 1351.7,761.525 1352.89,758.035 1354.08,755.606 1355.27,754.271 1356.45,754.038 1357.64,754.908 1358.83,756.879 1360.02,759.939 1361.21,764.038 1362.4,769.059 1363.59,774.762 1364.78,780.746 1365.96,786.414 1367.15,790.979 1368.34,793.537 1369.53,793.217 1370.72,789.413 1371.91,782.062 1373.1,771.86 1374.29,760.337 1375.47,749.662 1376.66,742.191 1377.85,739.85 1379.04,743.566 1380.23,752.964 1381.42,766.469 1382.61,781.756 1383.8,796.388 1384.98,808.383 1386.17,816.56 1387.36,820.608 1388.55,820.92 1389.74,818.328 1390.93,813.825 1392.12,808.357 1393.31,802.703 1394.49,797.428 1395.68,792.899 1396.87,789.326 1398.06,786.808 1399.25,785.383 1400.44,785.061 1401.63,785.841 1402.82,787.722 1404,790.694 1405.19,794.713 1406.38,799.665 1407.57,805.325 1408.76,811.306 1409.95,817.026 1411.14,821.715 1412.33,824.471 1413.51,824.413 1414.7,820.904 1415.89,813.827 1417.08,803.811 1418.27,792.321 1419.46,781.487 1420.65,773.673 1421.84,770.864 1423.02,774.082 1424.21,783.062 1425.4,796.313 1426.59,811.549 1427.78,826.318 1428.97,838.583 1430.16,847.095 1431.35,851.472 1432.53,852.061 1433.72,849.669 1434.91,845.284 1436.1,839.864 1437.29,834.2 1438.48,828.878 1439.67,824.279 1440.86,820.623 1442.04,818.017 1443.23,816.503 1444.42,816.091 1445.61,816.781 1446.8,818.573 1447.99,821.457 1449.18,825.393 1450.37,830.276 1451.55,835.891 1452.74,841.864 1453.93,847.632 1455.12,852.437 1456.31,855.385 1457.5,855.585 1458.69,852.371 1459.88,845.572 1461.06,835.752 1462.25,824.308 1463.44,813.332 1464.63,805.189 1465.82,801.918 1467.01,804.637 1468.2,813.189 1469.39,826.171 1470.58,841.339 1471.76,856.23 1472.95,868.758 1474.14,877.601 1475.33,882.31 1476.52,883.182 1477.71,880.997 1478.9,876.737 1480.09,871.368 1481.27,865.7 1482.46,860.334 1483.65,855.666 1484.84,851.927 1486.03,849.234 1487.22,847.63 1488.41,847.128 1489.6,847.728 1490.78,849.431 1491.97,852.227 1493.16,856.08 1494.35,860.892 1495.54,866.458 1496.73,872.421 1497.92,878.232 1499.11,883.148 1500.29,886.282 1501.48,886.735 1502.67,883.814 1503.86,877.297 1505.05,867.681 1506.24,856.299 1507.43,845.197 1508.62,836.738 1509.8,833.012 1510.99,835.232 1512.18,843.346 1513.37,856.043 1514.56,871.126 1515.75,886.127 1516.94,898.909 1518.13,908.08 1519.31,913.123 1520.5,914.283 1521.69,912.311 1522.88,908.183 1524.07,902.871 1525.26,897.202 1526.45,891.794 1527.64,887.058 1528.82,883.239 1530.01,880.458 1531.2,878.765 1532.39,878.173 1533.58,878.683 1534.77,880.296 1535.96,883.004 1537.15,886.773 1538.33,891.513 1539.52,897.029 1540.71,902.977 1541.9,908.826 1543.09,913.846 1544.28,917.16 1545.47,917.862 1546.66,915.232 1547.84,909.001 1549.03,899.599 1550.22,888.292 1551.41,877.079 1552.6,868.319 1553.79,864.147 1554.98,865.866 1556.17,873.534 1557.35,885.931 1558.54,900.913 1559.73,916.008 1560.92,929.034 1562.11,938.53 1563.3,943.91 1564.49,945.363 1565.68,943.611 1566.86,939.621 1568.05,934.372 1569.24,928.706 1570.43,923.258 1571.62,918.457 1572.81,914.557 1574,911.689 1575.19,909.906 1576.37,909.224 1577.56,909.645 1578.75,911.168 1579.94,913.788 1581.13,917.473 1582.32,922.14 1583.51,927.603 1584.7,933.533 1585.89,939.415 1587.07,944.534 1588.26,948.021 1589.45,948.967 1590.64,946.627 1591.83,940.683 1593.02,931.503 1594.21,920.285 1595.4,908.977 1596.58,899.93 1597.77,895.322 1598.96,896.54 1600.15,903.753 1601.34,915.837 1602.53,930.701 1603.72,945.876 1604.91,959.136 1606.09,968.954 1607.28,974.67 1608.47,976.422 1609.66,974.896 1610.85,971.05 1612.04,965.87 1613.23,960.211 1614.42,954.727 1615.6,949.861 1616.79,945.882 1617.98,942.927 1619.17,941.055 1620.36,940.284 1621.55,940.615 1622.74,942.048 1623.93,944.579 1625.11,948.18 1626.3,952.771 1627.49,958.18 1628.68,964.089 1629.87,969.998 1631.06,975.21 1632.25,978.865 1633.44,980.05 1634.62,977.996 1635.81,972.343 1637,963.393 1638.19,952.277 1639.38,940.891 1640.57,931.572 1641.76,926.536 1642.95,927.255 1644.13,934.006 1645.32,945.762 1646.51,960.49 1647.7,975.73 1648.89,989.215 1650.08,999.349 1651.27,1005.4 1652.46,1007.46 1653.64,1006.17 1654.83,1002.47 1656.02,997.365 1657.21,991.718 1658.4,986.2 1659.59,981.272 1660.78,977.214 1661.97,974.172 1663.15,972.211 1664.34,971.35 1665.53,971.591 1666.72,972.935 1667.91,975.377 1669.1,978.893 1670.29,983.409 1671.48,988.76 1672.66,994.644 1673.85,1000.58 1675.04,1005.88 1676.23,1009.69 1677.42,1011.11 1678.61,1009.34 1679.8,1003.98 1680.99,995.269 1682.17,984.267 1683.36,972.818 1684.55,963.242 1685.74,957.788 1686.93,958.011 1688.12,964.292 1689.31,975.706 1690.5,990.283 1691.68,1005.57 1692.87,1019.27 1694.06,1029.72 1695.25,1036.11 1696.44,1038.47 1697.63,1037.42 1698.82,1033.88 1700.01,1028.86 1701.19,1023.23 1702.38,1017.68 1703.57,1012.69 1704.76,1008.55 1705.95,1005.42 1707.14,1003.37 1708.33,1002.42 1709.52,1002.58 1710.71,1003.83 1711.89,1006.18 1713.08,1009.61 1714.27,1014.05 1715.46,1019.34 1716.65,1025.2 1717.84,1031.15 1719.03,1036.53 1720.22,1040.5 1721.4,1042.15 1722.59,1040.66 1723.78,1035.6 1724.97,1027.13 1726.16,1016.25 1727.35,1004.76 1728.54,994.94 1729.73,989.079 1730.91,988.808 1732.1,994.613 1733.29,1005.67 1734.48,1020.08 1735.67,1035.4 1736.86,1049.3 1738.05,1060.06 1739.24,1066.79 1740.42,1069.46 1741.61,1068.66 1742.8,1065.28 1743.99,1060.34 1745.18,1054.73 1746.37,1049.16 1747.56,1044.11 1748.75,1039.9 1749.93,1036.68 1751.12,1034.55 1752.31,1033.5 1753.5,1033.57 1754.69,1034.73 1755.88,1036.99 1757.07,1040.34 1758.26,1044.7 1759.44,1049.93 1760.63,1055.76 1761.82,1061.72 1763.01,1067.18 1764.2,1071.3 1765.39,1073.17 1766.58,1071.96 1767.77,1067.19 1768.95,1058.97 1770.14,1048.24 1771.33,1036.71 1772.52,1026.66 1773.71,1020.41 1774.9,1019.65 1776.09,1024.97 1777.28,1035.66 1778.46,1049.88 1779.65,1065.23 1780.84,1079.32 1782.03,1090.37 1783.22,1097.44 1784.41,1100.43 1785.6,1099.88 1786.79,1096.67 1787.97,1091.83 1789.16,1086.24 1790.35,1080.64 1791.54,1075.54 1792.73,1071.25 1793.92,1067.95 1795.11,1065.72 1796.3,1064.59 1797.48,1064.57 1798.67,1065.64 1799.86,1067.81 1801.05,1071.07 1802.24,1075.35 1803.43,1080.52 1804.62,1086.31 1805.81,1092.29 1806.99,1097.82 1808.18,1102.08 1809.37,1104.17 1810.56,1103.23 1811.75,1098.76 1812.94,1090.8 1814.13,1080.21 1815.32,1068.67 1816.5,1058.41 1817.69,1051.77 1818.88,1050.52 1820.07,1055.36 1821.26,1065.67 1822.45,1079.69 1823.64,1095.04 1824.83,1109.31 1826.02,1120.66 1827.2,1128.07 1828.39,1131.38 1829.58,1131.08 1830.77,1128.06 1831.96,1123.31 1833.15,1117.75 1834.34,1112.13 1835.53,1106.97 1836.71,1102.61 1837.9,1099.23 1839.09,1096.91 1840.28,1095.69 1841.47,1095.57 1842.66,1096.56 1843.85,1098.64 1845.04,1101.81 1846.22,1106.01 1847.41,1111.12 1848.6,1116.87 1849.79,1122.86 1850.98,1128.45 1852.17,1132.85 1853.36,1135.14 1854.55,1134.48 1855.73,1130.3 1856.92,1122.61 1858.11,1112.18 1859.3,1100.64 1860.49,1090.19 1861.68,1083.18 1862.87,1081.44 1864.06,1085.79 1865.24,1095.71 1866.43,1109.51 1867.62,1124.84 1868.81,1139.28 1870,1150.92 1871.19,1158.67 1872.38,1162.3 1873.57,1162.26 1874.75,1159.42 1875.94,1154.78 1877.13,1149.26 1878.32,1143.62 1879.51,1138.41 1880.7,1133.97 1881.89,1130.51 1883.08,1128.1 1884.26,1126.79 1885.45,1126.58 1886.64,1127.48 1887.83,1129.48 1889.02,1132.56 1890.21,1136.68 1891.4,1141.72 1892.59,1147.43 1893.77,1153.42 1894.96,1159.07 1896.15,1163.6 1897.34,1166.1 1898.53,1165.71 1899.72,1161.82 1900.91,1154.4 1902.1,1144.14 1903.28,1132.61 1904.47,1121.99 1905.66,1114.61 1906.85,1112.4 1908.04,1116.26 1909.23,1125.77 1910.42,1139.34 1911.61,1154.64 1912.79,1169.23 1913.98,1181.15 1915.17,1189.24 1916.36,1193.19 1917.55,1193.43 1918.74,1190.78 1919.93,1186.25 1921.12,1180.77 1922.3,1175.12 1923.49,1169.85 1924.68,1165.35 1925.87,1161.79 1927.06,1159.3 1928.25,1157.9 1929.44,1157.6 1930.63,1158.41 1931.81,1160.32 1933,1163.31 1934.19,1167.35 1935.38,1172.33 1936.57,1178 1937.76,1183.98 1938.95,1189.69 1940.14,1194.34 1941.33,1197.04 1942.51,1196.91 1943.7,1193.32 1944.89,1186.17 1946.08,1176.1 1947.27,1164.6 1948.46,1153.81 1949.65,1146.09 1950.84,1143.41 1952.02,1146.76 1953.21,1155.86 1954.4,1169.19 1955.59,1184.44 1956.78,1199.17 1957.97,1211.36 1959.16,1219.78 1960.35,1224.06 1961.53,1224.57 1962.72,1222.13 1963.91,1217.71 1965.1,1212.27 1966.29,1206.61 1967.48,1201.3 1968.67,1196.72 1969.86,1193.09 1971.04,1190.51 1972.23,1189.02 1973.42,1188.63 1974.61,1189.35 1975.8,1191.16 1976.99,1194.07 1978.18,1198.03 1979.37,1202.94 1980.55,1208.56 1981.74,1214.54 1982.93,1220.29 1984.12,1225.07 1985.31,1227.96 1986.5,1228.09 1987.69,1224.79 1988.88,1217.92 1990.06,1208.04 1991.25,1196.58 1992.44,1185.64 1993.63,1177.59 1994.82,1174.45 1996.01,1177.31 1997.2,1185.98 1998.39,1199.04 1999.57,1214.23 2000.76,1229.09 2001.95,1241.54 2003.14,1250.29 2004.33,1254.91 2005.52,1255.7 2006.71,1253.46 2007.9,1249.16 2009.08,1243.78 2010.27,1238.11 2011.46,1232.76 2012.65,1228.11 2013.84,1224.39 2015.03,1221.72 2016.22,1220.14 2017.41,1219.67 2018.59,1220.29 2019.78,1222.02 2020.97,1224.84 2022.16,1228.72 2023.35,1233.55 2024.54,1239.13 2025.73,1245.1 2026.92,1250.9 2028.1,1255.78 2029.29,1258.86 2030.48,1259.25 2031.67,1256.24 2032.86,1249.65 2034.05,1239.97 2035.24,1228.57 2036.43,1217.5 2037.61,1209.13 2038.8,1205.53 2039.99,1207.89 2041.18,1216.13 2042.37,1228.91 2043.56,1244.02 2044.75,1258.99 2045.94,1271.7 2047.12,1280.78 2048.31,1285.73 2049.5,1286.81 2050.69,1284.77 2051.88,1280.61 2053.07,1275.28 2054.26,1269.61 2055.45,1264.21 2056.64,1259.5 2057.82,1255.7 2059.01,1252.94 2060.2,1251.28 2061.39,1250.71 2062.58,1251.25 2063.77,1252.88 2064.96,1255.62 2066.15,1259.41 2067.33,1264.17 2068.52,1269.7 2069.71,1275.65 2070.9,1281.49 2072.09,1286.48 2073.28,1289.75 2074.47,1290.38 2075.66,1287.67 2076.84,1281.36 2078.03,1271.89 2079.22,1260.56 2080.41,1249.38 2081.6,1240.7 2082.79,1236.66 2083.98,1238.52 2085.17,1246.31 2086.35,1258.79 2087.54,1273.8 2088.73,1288.87 2089.92,1301.83 2091.11,1311.24 2092.3,1316.52 2093.49,1317.89 2094.68,1316.08 2095.86,1312.05 2097.05,1306.78 2098.24,1301.12 2099.43,1295.68 2100.62,1290.89 2101.81,1287.02 2103,1284.17 2104.19,1282.42 2105.37,1281.76 2106.56,1282.21 2107.75,1283.75 2108.94,1286.4 2110.13,1290.11 2111.32,1294.79 2112.51,1300.27 2113.7,1306.21 2114.88,1312.08 2116.07,1317.17 2117.26,1320.61 2118.45,1321.49 2119.64,1319.07 2120.83,1313.04 2122.02,1303.8 2123.21,1292.56 2124.39,1281.27 2125.58,1272.31 2126.77,1267.82 2127.96,1269.18 2129.15,1276.52 2130.34,1288.69 2131.53,1303.59 2132.72,1318.75 2133.9,1331.94 2135.09,1341.67 2136.28,1347.29 2137.47,1348.96 2138.66,1347.37 2139.85,1343.48 2141.04,1338.28 2142.23,1332.62 2143.41,1327.15 2144.6,1322.3 2145.79,1318.34 2146.98,1315.41 2148.17,1313.56 2149.36,1312.82 2150.55,1313.17 2151.74,1314.63 2152.92,1317.19 2154.11,1320.81 2155.3,1325.42 2156.49,1330.85 2157.68,1336.76 2158.87,1342.67 2160.06,1347.85 2161.25,1351.46 2162.43,1352.58 2163.62,1350.45 2164.81,1344.71 2166,1335.69 2167.19,1324.55 2168.38,1313.18 2169.57,1303.94 2170.76,1299.02 2171.95,1299.88 2173.13,1306.76 2174.32,1318.61 2175.51,1333.38 2176.7,1348.6 2177.89,1362.03 2179.08,1372.07 2180.27,1378.03 2181.46,1380 2182.64,1378.64 2183.83,1374.9 2185.02,1369.78 2186.21,1364.13 2187.4,1358.62 2188.59,1353.71 2189.78,1349.67 2190.97,1346.65 2192.15,1344.72 2193.34,1343.88 2194.53,1344.15 2195.72,1345.52 2196.91,1347.98 2198.1,1351.52 2199.29,1356.06 2200.48,1361.43 2201.66,1367.32 2202.85,1373.25 2204.04,1378.52 2205.23,1382.29 2206.42,1383.65 2207.61,1381.8 2208.8,1376.35 2209.99,1367.57 2211.17,1356.54 2212.36,1345.11 2213.55,1335.6 2214.74,1330.26 2215.93,1330.63 2217.12,1337.04 2218.31,1348.55 2219.5,1363.17 2220.68,1378.45 2221.87,1392.09 2223.06,1402.45 2224.25,1408.75 2225.44,1411.02 2226.63,1409.9 2227.82,1406.32 2229.01,1401.27 2230.19,1395.63 2231.38,1390.09 2232.57,1385.12 2233.76,1381.01 2234.95,1377.9 2236.14,1375.88 2237.33,1374.95 2238.52,1375.13 2239.7,1376.41 2240.89,1378.79 2242.08,1382.24 2243.27,1386.7 2244.46,1392.01 2245.65,1397.88 2246.84,1403.82 2248.03,1409.18 2249.21,1413.11 2250.4,1414.69 2251.59,1413.13 2252.78,1407.97 2253.97,1399.44 2255.16,1388.53 2256.35,1377.04 2257.54,1367.29 2258.72,1361.54 2259.91,1361.41 2261.1,1367.35 2262.29,1378.51 2263.48,1392.97 2264.67,1408.28 2265.86,1422.13 2267.05,1432.8 2268.23,1439.43 2269.42,1442.02 2270.61,1441.14 2271.8,1437.72 2272.99,1432.76 2274.18,1427.14 2275.37,1421.57 2276.56,1416.54 2277.74,1412.35 2278.93,1409.16 2280.12,1407.05 2281.31,1406.03 2282.5,1406.12 2283.69,1407.31 2284.88,1409.6 2286.07,1412.97 2287.26,1417.35 2288.44,1422.6 2289.63,1428.43 2290.82,1434.39 2292.01,1439.83 2293.2,1443.91 2294.39,1445.72 2295.58,1444.43 2296.77,1439.57 "/>
<path clip-path="url(#clip520)" d="M2036.55 198.898 L2286.81 198.898 L2286.81 95.2176 L2036.55 95.2176  Z" fill="#ffffff" fill-rule="evenodd" fill-opacity="1"/>
<polyline clip-path="url(#clip520)" style="stroke:#000000; stroke-linecap:round; stroke-linejoin:round; stroke-width:4; stroke-opacity:1; fill:none" points="2036.55,198.898 2286.81,198.898 2286.81,95.2176 2036.55,95.2176 2036.55,198.898 "/>
<polyline clip-path="url(#clip520)" style="stroke:#009af9; stroke-linecap:round; stroke-linejoin:round; stroke-width:4; stroke-opacity:1; fill:none" points="2058.53,147.058 2190.42,147.058 "/>
<path clip-path="url(#clip520)" d="M2226.24 166.745 Q2224.44 171.375 2222.72 172.787 Q2221.01 174.199 2218.14 174.199 L2214.74 174.199 L2214.74 170.634 L2217.24 170.634 Q2219 170.634 2219.97 169.8 Q2220.94 168.967 2222.12 165.865 L2222.89 163.921 L2212.4 138.412 L2216.91 138.412 L2225.02 158.689 L2233.12 138.412 L2237.63 138.412 L2226.24 166.745 Z" fill="#000000" fill-rule="nonzero" fill-opacity="1" /><path clip-path="url(#clip520)" d="M2244.92 160.402 L2252.56 160.402 L2252.56 134.037 L2244.25 135.703 L2244.25 131.444 L2252.51 129.778 L2257.19 129.778 L2257.19 160.402 L2264.83 160.402 L2264.83 164.338 L2244.92 164.338 L2244.92 160.402 Z" fill="#000000" fill-rule="nonzero" fill-opacity="1" /></svg>