<?xml version="1.0" encoding="utf-8"?>
<svg xmlns="http://www.w3.org/2000/svg" xmlns:xlink="http://www.w3.org/1999/xlink" width="600" height="400" viewBox="0 0 2400 1600">
<defs>
  <clipPath id="clip150">
    <rect x="0" y="0" width="2400" height="1600"/>
  </clipPath>
</defs>
<path clip-path="url(#clip150)" d="M0 1600 L2400 1600 L2400 8.88178e-14 L0 8.88178e-14  Z" fill="#ffffff" fill-rule="evenodd" fill-opacity="1"/>
<defs>
  <clipPath id="clip151">
    <rect x="480" y="0" width="1681" height="1600"/>
  </clipPath>
</defs>
<path clip-path="url(#clip150)" d="M287.366 1423.18 L2352.76 1423.18 L2352.76 47.2441 L287.366 47.2441  Z" fill="#ffffff" fill-rule="evenodd" fill-opacity="1"/>
<defs>
  <clipPath id="clip152">
    <rect x="287" y="47" width="2066" height="1377"/>
  </clipPath>
</defs>
<polyline clip-path="url(#clip152)" style="stroke:#000000; stroke-linecap:round; stroke-linejoin:round; stroke-width:2; stroke-opacity:0.1; fill:none" points="345.82,1423.18 345.82,47.2441 "/>
<polyline clip-path="url(#clip152)" style="stroke:#000000; stroke-linecap:round; stroke-linejoin:round; stroke-width:2; stroke-opacity:0.1; fill:none" points="788.657,1423.18 788.657,47.2441 "/>
<polyline clip-path="url(#clip152)" style="stroke:#000000; stroke-linecap:round; stroke-linejoin:round; stroke-width:2; stroke-opacity:0.1; fill:none" points="1231.49,1423.18 1231.49,47.2441 "/>
<polyline clip-path="url(#clip152)" style="stroke:#000000; stroke-linecap:round; stroke-linejoin:round; stroke-width:2; stroke-opacity:0.1; fill:none" points="1674.33,1423.18 1674.33,47.2441 "/>
<polyline clip-path="url(#clip152)" style="stroke:#000000; stroke-linecap:round; stroke-linejoin:round; stroke-width:2; stroke-opacity:0.1; fill:none" points="2117.17,1423.18 2117.17,47.2441 "/>
<polyline clip-path="url(#clip150)" style="stroke:#000000; stroke-linecap:round; stroke-linejoin:round; stroke-width:4; stroke-opacity:1; fill:none" points="287.366,1423.18 2352.76,1423.18 "/>
<polyline clip-path="url(#clip150)" style="stroke:#000000; stroke-linecap:round; stroke-linejoin:round; stroke-width:4; stroke-opacity:1; fill:none" points="345.82,1423.18 345.82,1404.28 "/>
<polyline clip-path="url(#clip150)" style="stroke:#000000; stroke-linecap:round; stroke-linejoin:round; stroke-width:4; stroke-opacity:1; fill:none" points="788.657,1423.18 788.657,1404.28 "/>
<polyline clip-path="url(#clip150)" style="stroke:#000000; stroke-linecap:round; stroke-linejoin:round; stroke-width:4; stroke-opacity:1; fill:none" points="1231.49,1423.18 1231.49,1404.28 "/>
<polyline clip-path="url(#clip150)" style="stroke:#000000; stroke-linecap:round; stroke-linejoin:round; stroke-width:4; stroke-opacity:1; fill:none" points="1674.33,1423.18 1674.33,1404.28 "/>
<polyline clip-path="url(#clip150)" style="stroke:#000000; stroke-linecap:round; stroke-linejoin:round; stroke-width:4; stroke-opacity:1; fill:none" points="2117.17,1423.18 2117.17,1404.28 "/>
<path clip-path="url(#clip150)" d="M323.205 1454.1 Q319.594 1454.1 317.765 1457.66 Q315.959 1461.2 315.959 1468.33 Q315.959 1475.44 317.765 1479.01 Q319.594 1482.55 323.205 1482.55 Q326.839 1482.55 328.645 1479.01 Q330.473 1475.44 330.473 1468.33 Q330.473 1461.2 328.645 1457.66 Q326.839 1454.1 323.205 1454.1 M323.205 1450.39 Q329.015 1450.39 332.07 1455 Q335.149 1459.58 335.149 1468.33 Q335.149 1477.06 332.07 1481.67 Q329.015 1486.25 323.205 1486.25 Q317.395 1486.25 314.316 1481.67 Q311.26 1477.06 311.26 1468.33 Q311.26 1459.58 314.316 1455 Q317.395 1450.39 323.205 1450.39 Z" fill="#000000" fill-rule="nonzero" fill-opacity="1" /><path clip-path="url(#clip150)" d="M343.367 1479.7 L348.251 1479.7 L348.251 1485.58 L343.367 1485.58 L343.367 1479.7 Z" fill="#000000" fill-rule="nonzero" fill-opacity="1" /><path clip-path="url(#clip150)" d="M368.436 1454.1 Q364.825 1454.1 362.996 1457.66 Q361.191 1461.2 361.191 1468.33 Q361.191 1475.44 362.996 1479.01 Q364.825 1482.55 368.436 1482.55 Q372.07 1482.55 373.876 1479.01 Q375.704 1475.44 375.704 1468.33 Q375.704 1461.2 373.876 1457.66 Q372.07 1454.1 368.436 1454.1 M368.436 1450.39 Q374.246 1450.39 377.302 1455 Q380.38 1459.58 380.38 1468.33 Q380.38 1477.06 377.302 1481.67 Q374.246 1486.25 368.436 1486.25 Q362.626 1486.25 359.547 1481.67 Q356.492 1477.06 356.492 1468.33 Q356.492 1459.58 359.547 1455 Q362.626 1450.39 368.436 1450.39 Z" fill="#000000" fill-rule="nonzero" fill-opacity="1" /><path clip-path="url(#clip150)" d="M760.393 1481.64 L776.713 1481.64 L776.713 1485.58 L754.768 1485.58 L754.768 1481.64 Q757.43 1478.89 762.014 1474.26 Q766.62 1469.61 767.801 1468.27 Q770.046 1465.74 770.926 1464.01 Q771.828 1462.25 771.828 1460.56 Q771.828 1457.8 769.884 1456.07 Q767.963 1454.33 764.861 1454.33 Q762.662 1454.33 760.208 1455.09 Q757.777 1455.86 755 1457.41 L755 1452.69 Q757.824 1451.55 760.277 1450.97 Q762.731 1450.39 764.768 1450.39 Q770.139 1450.39 773.333 1453.08 Q776.527 1455.77 776.527 1460.26 Q776.527 1462.39 775.717 1464.31 Q774.93 1466.2 772.824 1468.8 Q772.245 1469.47 769.143 1472.69 Q766.041 1475.88 760.393 1481.64 Z" fill="#000000" fill-rule="nonzero" fill-opacity="1" /><path clip-path="url(#clip150)" d="M786.527 1479.7 L791.412 1479.7 L791.412 1485.58 L786.527 1485.58 L786.527 1479.7 Z" fill="#000000" fill-rule="nonzero" fill-opacity="1" /><path clip-path="url(#clip150)" d="M801.643 1451.02 L819.999 1451.02 L819.999 1454.96 L805.925 1454.96 L805.925 1463.43 Q806.944 1463.08 807.962 1462.92 Q808.981 1462.73 809.999 1462.73 Q815.786 1462.73 819.166 1465.9 Q822.546 1469.08 822.546 1474.49 Q822.546 1480.07 819.073 1483.17 Q815.601 1486.25 809.282 1486.25 Q807.106 1486.25 804.837 1485.88 Q802.592 1485.51 800.185 1484.77 L800.185 1480.07 Q802.268 1481.2 804.49 1481.76 Q806.712 1482.32 809.189 1482.32 Q813.194 1482.32 815.532 1480.21 Q817.87 1478.1 817.87 1474.49 Q817.87 1470.88 815.532 1468.77 Q813.194 1466.67 809.189 1466.67 Q807.314 1466.67 805.439 1467.08 Q803.587 1467.5 801.643 1468.38 L801.643 1451.02 Z" fill="#000000" fill-rule="nonzero" fill-opacity="1" /><path clip-path="url(#clip150)" d="M1198.66 1451.02 L1217.01 1451.02 L1217.01 1454.96 L1202.94 1454.96 L1202.94 1463.43 Q1203.96 1463.08 1204.98 1462.92 Q1206 1462.73 1207.01 1462.73 Q1212.8 1462.73 1216.18 1465.9 Q1219.56 1469.08 1219.56 1474.49 Q1219.56 1480.07 1216.09 1483.17 Q1212.62 1486.25 1206.3 1486.25 Q1204.12 1486.25 1201.85 1485.88 Q1199.61 1485.51 1197.2 1484.77 L1197.2 1480.07 Q1199.28 1481.2 1201.51 1481.76 Q1203.73 1482.32 1206.2 1482.32 Q1210.21 1482.32 1212.55 1480.21 Q1214.88 1478.1 1214.88 1474.49 Q1214.88 1470.88 1212.55 1468.77 Q1210.21 1466.67 1206.2 1466.67 Q1204.33 1466.67 1202.45 1467.08 Q1200.6 1467.5 1198.66 1468.38 L1198.66 1451.02 Z" fill="#000000" fill-rule="nonzero" fill-opacity="1" /><path clip-path="url(#clip150)" d="M1228.77 1479.7 L1233.66 1479.7 L1233.66 1485.58 L1228.77 1485.58 L1228.77 1479.7 Z" fill="#000000" fill-rule="nonzero" fill-opacity="1" /><path clip-path="url(#clip150)" d="M1253.84 1454.1 Q1250.23 1454.1 1248.4 1457.66 Q1246.6 1461.2 1246.6 1468.33 Q1246.6 1475.44 1248.4 1479.01 Q1250.23 1482.55 1253.84 1482.55 Q1257.48 1482.55 1259.28 1479.01 Q1261.11 1475.44 1261.11 1468.33 Q1261.11 1461.2 1259.28 1457.66 Q1257.48 1454.1 1253.84 1454.1 M1253.84 1450.39 Q1259.65 1450.39 1262.71 1455 Q1265.79 1459.58 1265.79 1468.33 Q1265.79 1477.06 1262.71 1481.67 Q1259.65 1486.25 1253.84 1486.25 Q1248.03 1486.25 1244.95 1481.67 Q1241.9 1477.06 1241.9 1468.33 Q1241.9 1459.58 1244.95 1455 Q1248.03 1450.39 1253.84 1450.39 Z" fill="#000000" fill-rule="nonzero" fill-opacity="1" /><path clip-path="url(#clip150)" d="M1640.65 1451.02 L1662.87 1451.02 L1662.87 1453.01 L1650.33 1485.58 L1645.44 1485.58 L1657.25 1454.96 L1640.65 1454.96 L1640.65 1451.02 Z" fill="#000000" fill-rule="nonzero" fill-opacity="1" /><path clip-path="url(#clip150)" d="M1671.99 1479.7 L1676.88 1479.7 L1676.88 1485.58 L1671.99 1485.58 L1671.99 1479.7 Z" fill="#000000" fill-rule="nonzero" fill-opacity="1" /><path clip-path="url(#clip150)" d="M1687.11 1451.02 L1705.46 1451.02 L1705.46 1454.96 L1691.39 1454.96 L1691.39 1463.43 Q1692.41 1463.08 1693.43 1462.92 Q1694.45 1462.73 1695.46 1462.73 Q1701.25 1462.73 1704.63 1465.9 Q1708.01 1469.08 1708.01 1474.49 Q1708.01 1480.07 1704.54 1483.17 Q1701.07 1486.25 1694.75 1486.25 Q1692.57 1486.25 1690.3 1485.88 Q1688.06 1485.51 1685.65 1484.77 L1685.65 1480.07 Q1687.73 1481.2 1689.96 1481.76 Q1692.18 1482.32 1694.65 1482.32 Q1698.66 1482.32 1701 1480.21 Q1703.33 1478.1 1703.33 1474.49 Q1703.33 1470.88 1701 1468.77 Q1698.66 1466.67 1694.65 1466.67 Q1692.78 1466.67 1690.9 1467.08 Q1689.05 1467.5 1687.11 1468.38 L1687.11 1451.02 Z" fill="#000000" fill-rule="nonzero" fill-opacity="1" /><path clip-path="url(#clip150)" d="M2069.24 1481.64 L2076.88 1481.64 L2076.88 1455.28 L2068.57 1456.95 L2068.57 1452.69 L2076.83 1451.02 L2081.51 1451.02 L2081.51 1481.64 L2089.15 1481.64 L2089.15 1485.58 L2069.24 1485.58 L2069.24 1481.64 Z" fill="#000000" fill-rule="nonzero" fill-opacity="1" /><path clip-path="url(#clip150)" d="M2108.59 1454.1 Q2104.98 1454.1 2103.15 1457.66 Q2101.35 1461.2 2101.35 1468.33 Q2101.35 1475.44 2103.15 1479.01 Q2104.98 1482.55 2108.59 1482.55 Q2112.22 1482.55 2114.03 1479.01 Q2115.86 1475.44 2115.86 1468.33 Q2115.86 1461.2 2114.03 1457.66 Q2112.22 1454.1 2108.59 1454.1 M2108.59 1450.39 Q2114.4 1450.39 2117.46 1455 Q2120.53 1459.58 2120.53 1468.33 Q2120.53 1477.06 2117.46 1481.67 Q2114.4 1486.25 2108.59 1486.25 Q2102.78 1486.25 2099.7 1481.67 Q2096.65 1477.06 2096.65 1468.33 Q2096.65 1459.58 2099.7 1455 Q2102.78 1450.39 2108.59 1450.39 Z" fill="#000000" fill-rule="nonzero" fill-opacity="1" /><path clip-path="url(#clip150)" d="M2128.75 1479.7 L2133.64 1479.7 L2133.64 1485.58 L2128.75 1485.58 L2128.75 1479.7 Z" fill="#000000" fill-rule="nonzero" fill-opacity="1" /><path clip-path="url(#clip150)" d="M2153.82 1454.1 Q2150.21 1454.1 2148.38 1457.66 Q2146.58 1461.2 2146.58 1468.33 Q2146.58 1475.44 2148.38 1479.01 Q2150.21 1482.55 2153.82 1482.55 Q2157.46 1482.55 2159.26 1479.01 Q2161.09 1475.44 2161.09 1468.33 Q2161.09 1461.2 2159.26 1457.66 Q2157.46 1454.1 2153.82 1454.1 M2153.82 1450.39 Q2159.63 1450.39 2162.69 1455 Q2165.77 1459.58 2165.77 1468.33 Q2165.77 1477.06 2162.69 1481.67 Q2159.63 1486.25 2153.82 1486.25 Q2148.01 1486.25 2144.93 1481.67 Q2141.88 1477.06 2141.88 1468.33 Q2141.88 1459.58 2144.93 1455 Q2148.01 1450.39 2153.82 1450.39 Z" fill="#000000" fill-rule="nonzero" fill-opacity="1" /><path clip-path="url(#clip150)" d="M1319.12 1522.27 L1319.12 1532.4 L1331.18 1532.4 L1331.18 1536.95 L1319.12 1536.95 L1319.12 1556.3 Q1319.12 1560.66 1320.3 1561.9 Q1321.51 1563.14 1325.17 1563.14 L1331.18 1563.14 L1331.18 1568.04 L1325.17 1568.04 Q1318.39 1568.04 1315.81 1565.53 Q1313.23 1562.98 1313.23 1556.3 L1313.23 1536.95 L1308.94 1536.95 L1308.94 1532.4 L1313.23 1532.4 L1313.23 1522.27 L1319.12 1522.27 Z" fill="#000000" fill-rule="nonzero" fill-opacity="1" /><polyline clip-path="url(#clip152)" style="stroke:#000000; stroke-linecap:round; stroke-linejoin:round; stroke-width:2; stroke-opacity:0.1; fill:none" points="287.366,1384.26 2352.76,1384.26 "/>
<polyline clip-path="url(#clip152)" style="stroke:#000000; stroke-linecap:round; stroke-linejoin:round; stroke-width:2; stroke-opacity:0.1; fill:none" points="287.366,1059.74 2352.76,1059.74 "/>
<polyline clip-path="url(#clip152)" style="stroke:#000000; stroke-linecap:round; stroke-linejoin:round; stroke-width:2; stroke-opacity:0.1; fill:none" points="287.366,735.223 2352.76,735.223 "/>
<polyline clip-path="url(#clip152)" style="stroke:#000000; stroke-linecap:round; stroke-linejoin:round; stroke-width:2; stroke-opacity:0.1; fill:none" points="287.366,410.704 2352.76,410.704 "/>
<polyline clip-path="url(#clip152)" style="stroke:#000000; stroke-linecap:round; stroke-linejoin:round; stroke-width:2; stroke-opacity:0.1; fill:none" points="287.366,86.1857 2352.76,86.1857 "/>
<polyline clip-path="url(#clip150)" style="stroke:#000000; stroke-linecap:round; stroke-linejoin:round; stroke-width:4; stroke-opacity:1; fill:none" points="287.366,1423.18 287.366,47.2441 "/>
<polyline clip-path="url(#clip150)" style="stroke:#000000; stroke-linecap:round; stroke-linejoin:round; stroke-width:4; stroke-opacity:1; fill:none" points="287.366,1384.26 306.264,1384.26 "/>
<polyline clip-path="url(#clip150)" style="stroke:#000000; stroke-linecap:round; stroke-linejoin:round; stroke-width:4; stroke-opacity:1; fill:none" points="287.366,1059.74 306.264,1059.74 "/>
<polyline clip-path="url(#clip150)" style="stroke:#000000; stroke-linecap:round; stroke-linejoin:round; stroke-width:4; stroke-opacity:1; fill:none" points="287.366,735.223 306.264,735.223 "/>
<polyline clip-path="url(#clip150)" style="stroke:#000000; stroke-linecap:round; stroke-linejoin:round; stroke-width:4; stroke-opacity:1; fill:none" points="287.366,410.704 306.264,410.704 "/>
<polyline clip-path="url(#clip150)" style="stroke:#000000; stroke-linecap:round; stroke-linejoin:round; stroke-width:4; stroke-opacity:1; fill:none" points="287.366,86.1857 306.264,86.1857 "/>
<path clip-path="url(#clip150)" d="M114.26 1384.71 L143.936 1384.71 L143.936 1388.65 L114.26 1388.65 L114.26 1384.71 Z" fill="#000000" fill-rule="nonzero" fill-opacity="1" /><path clip-path="url(#clip150)" d="M154.839 1397.6 L162.477 1397.6 L162.477 1371.24 L154.167 1372.91 L154.167 1368.65 L162.431 1366.98 L167.107 1366.98 L167.107 1397.6 L174.746 1397.6 L174.746 1401.54 L154.839 1401.54 L154.839 1397.6 Z" fill="#000000" fill-rule="nonzero" fill-opacity="1" /><path clip-path="url(#clip150)" d="M184.19 1395.66 L189.075 1395.66 L189.075 1401.54 L184.19 1401.54 L184.19 1395.66 Z" fill="#000000" fill-rule="nonzero" fill-opacity="1" /><path clip-path="url(#clip150)" d="M209.26 1370.06 Q205.649 1370.06 203.82 1373.62 Q202.014 1377.17 202.014 1384.29 Q202.014 1391.4 203.82 1394.97 Q205.649 1398.51 209.26 1398.51 Q212.894 1398.51 214.699 1394.97 Q216.528 1391.4 216.528 1384.29 Q216.528 1377.17 214.699 1373.62 Q212.894 1370.06 209.26 1370.06 M209.26 1366.35 Q215.07 1366.35 218.125 1370.96 Q221.204 1375.54 221.204 1384.29 Q221.204 1393.02 218.125 1397.63 Q215.07 1402.21 209.26 1402.21 Q203.449 1402.21 200.371 1397.63 Q197.315 1393.02 197.315 1384.29 Q197.315 1375.54 200.371 1370.96 Q203.449 1366.35 209.26 1366.35 Z" fill="#000000" fill-rule="nonzero" fill-opacity="1" /><path clip-path="url(#clip150)" d="M239.422 1370.06 Q235.81 1370.06 233.982 1373.62 Q232.176 1377.17 232.176 1384.29 Q232.176 1391.4 233.982 1394.97 Q235.81 1398.51 239.422 1398.51 Q243.056 1398.51 244.861 1394.97 Q246.69 1391.4 246.69 1384.29 Q246.69 1377.17 244.861 1373.62 Q243.056 1370.06 239.422 1370.06 M239.422 1366.35 Q245.232 1366.35 248.287 1370.96 Q251.366 1375.54 251.366 1384.29 Q251.366 1393.02 248.287 1397.63 Q245.232 1402.21 239.422 1402.21 Q233.611 1402.21 230.533 1397.63 Q227.477 1393.02 227.477 1384.29 Q227.477 1375.54 230.533 1370.96 Q233.611 1366.35 239.422 1366.35 Z" fill="#000000" fill-rule="nonzero" fill-opacity="1" /><path clip-path="url(#clip150)" d="M115.256 1060.19 L144.931 1060.19 L144.931 1064.13 L115.256 1064.13 L115.256 1060.19 Z" fill="#000000" fill-rule="nonzero" fill-opacity="1" /><path clip-path="url(#clip150)" d="M165.024 1045.54 Q161.413 1045.54 159.584 1049.1 Q157.778 1052.65 157.778 1059.78 Q157.778 1066.88 159.584 1070.45 Q161.413 1073.99 165.024 1073.99 Q168.658 1073.99 170.464 1070.45 Q172.292 1066.88 172.292 1059.78 Q172.292 1052.65 170.464 1049.1 Q168.658 1045.54 165.024 1045.54 M165.024 1041.84 Q170.834 1041.84 173.889 1046.44 Q176.968 1051.03 176.968 1059.78 Q176.968 1068.5 173.889 1073.11 Q170.834 1077.69 165.024 1077.69 Q159.214 1077.69 156.135 1073.11 Q153.079 1068.5 153.079 1059.78 Q153.079 1051.03 156.135 1046.44 Q159.214 1041.84 165.024 1041.84 Z" fill="#000000" fill-rule="nonzero" fill-opacity="1" /><path clip-path="url(#clip150)" d="M185.186 1071.14 L190.07 1071.14 L190.07 1077.02 L185.186 1077.02 L185.186 1071.14 Z" fill="#000000" fill-rule="nonzero" fill-opacity="1" /><path clip-path="url(#clip150)" d="M199.075 1042.46 L221.297 1042.46 L221.297 1044.45 L208.75 1077.02 L203.866 1077.02 L215.672 1046.4 L199.075 1046.4 L199.075 1042.46 Z" fill="#000000" fill-rule="nonzero" fill-opacity="1" /><path clip-path="url(#clip150)" d="M230.463 1042.46 L248.82 1042.46 L248.82 1046.4 L234.746 1046.4 L234.746 1054.87 Q235.764 1054.52 236.783 1054.36 Q237.801 1054.17 238.82 1054.17 Q244.607 1054.17 247.986 1057.35 Q251.366 1060.52 251.366 1065.93 Q251.366 1071.51 247.894 1074.61 Q244.421 1077.69 238.102 1077.69 Q235.926 1077.69 233.658 1077.32 Q231.412 1076.95 229.005 1076.21 L229.005 1071.51 Q231.088 1072.65 233.31 1073.2 Q235.533 1073.76 238.009 1073.76 Q242.014 1073.76 244.352 1071.65 Q246.69 1069.54 246.69 1065.93 Q246.69 1062.32 244.352 1060.22 Q242.014 1058.11 238.009 1058.11 Q236.135 1058.11 234.26 1058.53 Q232.408 1058.94 230.463 1059.82 L230.463 1042.46 Z" fill="#000000" fill-rule="nonzero" fill-opacity="1" /><path clip-path="url(#clip150)" d="M114.26 735.674 L143.936 735.674 L143.936 739.609 L114.26 739.609 L114.26 735.674 Z" fill="#000000" fill-rule="nonzero" fill-opacity="1" /><path clip-path="url(#clip150)" d="M164.028 721.021 Q160.417 721.021 158.589 724.586 Q156.783 728.128 156.783 735.258 Q156.783 742.364 158.589 745.929 Q160.417 749.47 164.028 749.47 Q167.663 749.47 169.468 745.929 Q171.297 742.364 171.297 735.258 Q171.297 728.128 169.468 724.586 Q167.663 721.021 164.028 721.021 M164.028 717.318 Q169.839 717.318 172.894 721.924 Q175.973 726.508 175.973 735.258 Q175.973 743.984 172.894 748.591 Q169.839 753.174 164.028 753.174 Q158.218 753.174 155.14 748.591 Q152.084 743.984 152.084 735.258 Q152.084 726.508 155.14 721.924 Q158.218 717.318 164.028 717.318 Z" fill="#000000" fill-rule="nonzero" fill-opacity="1" /><path clip-path="url(#clip150)" d="M184.19 746.623 L189.075 746.623 L189.075 752.503 L184.19 752.503 L184.19 746.623 Z" fill="#000000" fill-rule="nonzero" fill-opacity="1" /><path clip-path="url(#clip150)" d="M199.306 717.943 L217.662 717.943 L217.662 721.878 L203.588 721.878 L203.588 730.35 Q204.607 730.003 205.625 729.841 Q206.644 729.656 207.662 729.656 Q213.449 729.656 216.829 732.827 Q220.209 735.998 220.209 741.415 Q220.209 746.994 216.736 750.095 Q213.264 753.174 206.945 753.174 Q204.769 753.174 202.5 752.804 Q200.255 752.433 197.848 751.693 L197.848 746.994 Q199.931 748.128 202.153 748.683 Q204.375 749.239 206.852 749.239 Q210.857 749.239 213.195 747.132 Q215.533 745.026 215.533 741.415 Q215.533 737.804 213.195 735.697 Q210.857 733.591 206.852 733.591 Q204.977 733.591 203.102 734.008 Q201.25 734.424 199.306 735.304 L199.306 717.943 Z" fill="#000000" fill-rule="nonzero" fill-opacity="1" /><path clip-path="url(#clip150)" d="M239.422 721.021 Q235.81 721.021 233.982 724.586 Q232.176 728.128 232.176 735.258 Q232.176 742.364 233.982 745.929 Q235.81 749.47 239.422 749.47 Q243.056 749.47 244.861 745.929 Q246.69 742.364 246.69 735.258 Q246.69 728.128 244.861 724.586 Q243.056 721.021 239.422 721.021 M239.422 717.318 Q245.232 717.318 248.287 721.924 Q251.366 726.508 251.366 735.258 Q251.366 743.984 248.287 748.591 Q245.232 753.174 239.422 753.174 Q233.611 753.174 230.533 748.591 Q227.477 743.984 227.477 735.258 Q227.477 726.508 230.533 721.924 Q233.611 717.318 239.422 717.318 Z" fill="#000000" fill-rule="nonzero" fill-opacity="1" /><path clip-path="url(#clip150)" d="M115.256 411.156 L144.931 411.156 L144.931 415.091 L115.256 415.091 L115.256 411.156 Z" fill="#000000" fill-rule="nonzero" fill-opacity="1" /><path clip-path="url(#clip150)" d="M165.024 396.503 Q161.413 396.503 159.584 400.068 Q157.778 403.609 157.778 410.739 Q157.778 417.845 159.584 421.41 Q161.413 424.952 165.024 424.952 Q168.658 424.952 170.464 421.41 Q172.292 417.845 172.292 410.739 Q172.292 403.609 170.464 400.068 Q168.658 396.503 165.024 396.503 M165.024 392.799 Q170.834 392.799 173.889 397.406 Q176.968 401.989 176.968 410.739 Q176.968 419.466 173.889 424.072 Q170.834 428.656 165.024 428.656 Q159.214 428.656 156.135 424.072 Q153.079 419.466 153.079 410.739 Q153.079 401.989 156.135 397.406 Q159.214 392.799 165.024 392.799 Z" fill="#000000" fill-rule="nonzero" fill-opacity="1" /><path clip-path="url(#clip150)" d="M185.186 422.105 L190.07 422.105 L190.07 427.984 L185.186 427.984 L185.186 422.105 Z" fill="#000000" fill-rule="nonzero" fill-opacity="1" /><path clip-path="url(#clip150)" d="M204.283 424.049 L220.602 424.049 L220.602 427.984 L198.658 427.984 L198.658 424.049 Q201.32 421.294 205.903 416.665 Q210.51 412.012 211.69 410.67 Q213.936 408.146 214.815 406.41 Q215.718 404.651 215.718 402.961 Q215.718 400.207 213.774 398.471 Q211.852 396.734 208.75 396.734 Q206.551 396.734 204.098 397.498 Q201.667 398.262 198.889 399.813 L198.889 395.091 Q201.713 393.957 204.167 393.378 Q206.621 392.799 208.658 392.799 Q214.028 392.799 217.223 395.484 Q220.417 398.17 220.417 402.66 Q220.417 404.79 219.607 406.711 Q218.82 408.609 216.713 411.202 Q216.135 411.873 213.033 415.091 Q209.931 418.285 204.283 424.049 Z" fill="#000000" fill-rule="nonzero" fill-opacity="1" /><path clip-path="url(#clip150)" d="M230.463 393.424 L248.82 393.424 L248.82 397.359 L234.746 397.359 L234.746 405.832 Q235.764 405.484 236.783 405.322 Q237.801 405.137 238.82 405.137 Q244.607 405.137 247.986 408.308 Q251.366 411.48 251.366 416.896 Q251.366 422.475 247.894 425.577 Q244.421 428.656 238.102 428.656 Q235.926 428.656 233.658 428.285 Q231.412 427.915 229.005 427.174 L229.005 422.475 Q231.088 423.609 233.31 424.165 Q235.533 424.72 238.009 424.72 Q242.014 424.72 244.352 422.614 Q246.69 420.507 246.69 416.896 Q246.69 413.285 244.352 411.179 Q242.014 409.072 238.009 409.072 Q236.135 409.072 234.26 409.489 Q232.408 409.906 230.463 410.785 L230.463 393.424 Z" fill="#000000" fill-rule="nonzero" fill-opacity="1" /><path clip-path="url(#clip150)" d="M164.028 71.9844 Q160.417 71.9844 158.589 75.5492 Q156.783 79.0908 156.783 86.2204 Q156.783 93.3268 158.589 96.8916 Q160.417 100.433 164.028 100.433 Q167.663 100.433 169.468 96.8916 Q171.297 93.3268 171.297 86.2204 Q171.297 79.0908 169.468 75.5492 Q167.663 71.9844 164.028 71.9844 M164.028 68.2807 Q169.839 68.2807 172.894 72.8871 Q175.973 77.4704 175.973 86.2204 Q175.973 94.9472 172.894 99.5537 Q169.839 104.137 164.028 104.137 Q158.218 104.137 155.14 99.5537 Q152.084 94.9472 152.084 86.2204 Q152.084 77.4704 155.14 72.8871 Q158.218 68.2807 164.028 68.2807 Z" fill="#000000" fill-rule="nonzero" fill-opacity="1" /><path clip-path="url(#clip150)" d="M184.19 97.5861 L189.075 97.5861 L189.075 103.466 L184.19 103.466 L184.19 97.5861 Z" fill="#000000" fill-rule="nonzero" fill-opacity="1" /><path clip-path="url(#clip150)" d="M209.26 71.9844 Q205.649 71.9844 203.82 75.5492 Q202.014 79.0908 202.014 86.2204 Q202.014 93.3268 203.82 96.8916 Q205.649 100.433 209.26 100.433 Q212.894 100.433 214.699 96.8916 Q216.528 93.3268 216.528 86.2204 Q216.528 79.0908 214.699 75.5492 Q212.894 71.9844 209.26 71.9844 M209.26 68.2807 Q215.07 68.2807 218.125 72.8871 Q221.204 77.4704 221.204 86.2204 Q221.204 94.9472 218.125 99.5537 Q215.07 104.137 209.26 104.137 Q203.449 104.137 200.371 99.5537 Q197.315 94.9472 197.315 86.2204 Q197.315 77.4704 200.371 72.8871 Q203.449 68.2807 209.26 68.2807 Z" fill="#000000" fill-rule="nonzero" fill-opacity="1" /><path clip-path="url(#clip150)" d="M239.422 71.9844 Q235.81 71.9844 233.982 75.5492 Q232.176 79.0908 232.176 86.2204 Q232.176 93.3268 233.982 96.8916 Q235.81 100.433 239.422 100.433 Q243.056 100.433 244.861 96.8916 Q246.69 93.3268 246.69 86.2204 Q246.69 79.0908 244.861 75.5492 Q243.056 71.9844 239.422 71.9844 M239.422 68.2807 Q245.232 68.2807 248.287 72.8871 Q251.366 77.4704 251.366 86.2204 Q251.366 94.9472 248.287 99.5537 Q245.232 104.137 239.422 104.137 Q233.611 104.137 230.533 99.5537 Q227.477 94.9472 227.477 86.2204 Q227.477 77.4704 230.533 72.8871 Q233.611 68.2807 239.422 68.2807 Z" fill="#000000" fill-rule="nonzero" fill-opacity="1" /><path clip-path="url(#clip150)" d="M28.3562 771.847 L28.3562 765.64 L58.275 754.5 L28.3562 743.36 L28.3562 737.154 L64.0042 750.521 L64.0042 758.479 L28.3562 771.847 Z" fill="#000000" fill-rule="nonzero" fill-opacity="1" /><path clip-path="url(#clip150)" d="M67.3143 714.237 Q73.68 716.72 75.6216 719.075 Q77.5631 721.43 77.5631 725.377 L77.5631 730.056 L72.6615 730.056 L72.6615 726.618 Q72.6615 724.199 71.5157 722.862 Q70.3699 721.526 66.1048 719.902 L63.4312 718.852 L28.3562 733.27 L28.3562 727.064 L56.238 715.924 L28.3562 704.784 L28.3562 698.577 L67.3143 714.237 Z" fill="#000000" fill-rule="nonzero" fill-opacity="1" /><circle clip-path="url(#clip152)" cx="345.82" cy="86.1857" r="14.4" fill="#009af9" fill-rule="evenodd" fill-opacity="1" stroke="#000000" stroke-opacity="1" stroke-width="3.2"/>
<circle clip-path="url(#clip152)" cx="363.534" cy="209.714" r="14.4" fill="#009af9" fill-rule="evenodd" fill-opacity="1" stroke="#000000" stroke-opacity="1" stroke-width="3.2"/>
<circle clip-path="url(#clip152)" cx="381.247" cy="321.486" r="14.4" fill="#009af9" fill-rule="evenodd" fill-opacity="1" stroke="#000000" stroke-opacity="1" stroke-width="3.2"/>
<circle clip-path="url(#clip152)" cx="398.961" cy="422.623" r="14.4" fill="#009af9" fill-rule="evenodd" fill-opacity="1" stroke="#000000" stroke-opacity="1" stroke-width="3.2"/>
<circle clip-path="url(#clip152)" cx="416.674" cy="514.134" r="14.4" fill="#009af9" fill-rule="evenodd" fill-opacity="1" stroke="#000000" stroke-opacity="1" stroke-width="3.2"/>
<circle clip-path="url(#clip152)" cx="434.388" cy="596.938" r="14.4" fill="#009af9" fill-rule="evenodd" fill-opacity="1" stroke="#000000" stroke-opacity="1" stroke-width="3.2"/>
<circle clip-path="url(#clip152)" cx="452.101" cy="671.861" r="14.4" fill="#009af9" fill-rule="evenodd" fill-opacity="1" stroke="#000000" stroke-opacity="1" stroke-width="3.2"/>
<circle clip-path="url(#clip152)" cx="469.815" cy="739.655" r="14.4" fill="#009af9" fill-rule="evenodd" fill-opacity="1" stroke="#000000" stroke-opacity="1" stroke-width="3.2"/>
<circle clip-path="url(#clip152)" cx="487.528" cy="800.997" r="14.4" fill="#009af9" fill-rule="evenodd" fill-opacity="1" stroke="#000000" stroke-opacity="1" stroke-width="3.2"/>
<circle clip-path="url(#clip152)" cx="505.242" cy="856.502" r="14.4" fill="#009af9" fill-rule="evenodd" fill-opacity="1" stroke="#000000" stroke-opacity="1" stroke-width="3.2"/>
<circle clip-path="url(#clip152)" cx="522.955" cy="906.725" r="14.4" fill="#009af9" fill-rule="evenodd" fill-opacity="1" stroke="#000000" stroke-opacity="1" stroke-width="3.2"/>
<circle clip-path="url(#clip152)" cx="540.668" cy="952.168" r="14.4" fill="#009af9" fill-rule="evenodd" fill-opacity="1" stroke="#000000" stroke-opacity="1" stroke-width="3.2"/>
<circle clip-path="url(#clip152)" cx="558.382" cy="993.287" r="14.4" fill="#009af9" fill-rule="evenodd" fill-opacity="1" stroke="#000000" stroke-opacity="1" stroke-width="3.2"/>
<circle clip-path="url(#clip152)" cx="576.095" cy="1030.49" r="14.4" fill="#009af9" fill-rule="evenodd" fill-opacity="1" stroke="#000000" stroke-opacity="1" stroke-width="3.2"/>
<circle clip-path="url(#clip152)" cx="593.809" cy="1064.16" r="14.4" fill="#009af9" fill-rule="evenodd" fill-opacity="1" stroke="#000000" stroke-opacity="1" stroke-width="3.2"/>
<circle clip-path="url(#clip152)" cx="611.522" cy="1094.62" r="14.4" fill="#009af9" fill-rule="evenodd" fill-opacity="1" stroke="#000000" stroke-opacity="1" stroke-width="3.2"/>
<circle clip-path="url(#clip152)" cx="629.236" cy="1122.18" r="14.4" fill="#009af9" fill-rule="evenodd" fill-opacity="1" stroke="#000000" stroke-opacity="1" stroke-width="3.2"/>
<circle clip-path="url(#clip152)" cx="646.949" cy="1147.12" r="14.4" fill="#009af9" fill-rule="evenodd" fill-opacity="1" stroke="#000000" stroke-opacity="1" stroke-width="3.2"/>
<circle clip-path="url(#clip152)" cx="664.663" cy="1169.69" r="14.4" fill="#009af9" fill-rule="evenodd" fill-opacity="1" stroke="#000000" stroke-opacity="1" stroke-width="3.2"/>
<circle clip-path="url(#clip152)" cx="682.376" cy="1190.11" r="14.4" fill="#009af9" fill-rule="evenodd" fill-opacity="1" stroke="#000000" stroke-opacity="1" stroke-width="3.2"/>
<circle clip-path="url(#clip152)" cx="700.09" cy="1208.58" r="14.4" fill="#009af9" fill-rule="evenodd" fill-opacity="1" stroke="#000000" stroke-opacity="1" stroke-width="3.2"/>
<circle clip-path="url(#clip152)" cx="717.803" cy="1225.3" r="14.4" fill="#009af9" fill-rule="evenodd" fill-opacity="1" stroke="#000000" stroke-opacity="1" stroke-width="3.2"/>
<circle clip-path="url(#clip152)" cx="735.517" cy="1240.43" r="14.4" fill="#009af9" fill-rule="evenodd" fill-opacity="1" stroke="#000000" stroke-opacity="1" stroke-width="3.2"/>
<circle clip-path="url(#clip152)" cx="753.23" cy="1254.12" r="14.4" fill="#009af9" fill-rule="evenodd" fill-opacity="1" stroke="#000000" stroke-opacity="1" stroke-width="3.2"/>
<circle clip-path="url(#clip152)" cx="770.943" cy="1266.5" r="14.4" fill="#009af9" fill-rule="evenodd" fill-opacity="1" stroke="#000000" stroke-opacity="1" stroke-width="3.2"/>
<circle clip-path="url(#clip152)" cx="788.657" cy="1277.71" r="14.4" fill="#009af9" fill-rule="evenodd" fill-opacity="1" stroke="#000000" stroke-opacity="1" stroke-width="3.2"/>
<circle clip-path="url(#clip152)" cx="806.37" cy="1287.85" r="14.4" fill="#009af9" fill-rule="evenodd" fill-opacity="1" stroke="#000000" stroke-opacity="1" stroke-width="3.2"/>
<circle clip-path="url(#clip152)" cx="824.084" cy="1297.02" r="14.4" fill="#009af9" fill-rule="evenodd" fill-opacity="1" stroke="#000000" stroke-opacity="1" stroke-width="3.2"/>
<circle clip-path="url(#clip152)" cx="841.797" cy="1305.32" r="14.4" fill="#009af9" fill-rule="evenodd" fill-opacity="1" stroke="#000000" stroke-opacity="1" stroke-width="3.2"/>
<circle clip-path="url(#clip152)" cx="859.511" cy="1312.84" r="14.4" fill="#009af9" fill-rule="evenodd" fill-opacity="1" stroke="#000000" stroke-opacity="1" stroke-width="3.2"/>
<circle clip-path="url(#clip152)" cx="877.224" cy="1319.63" r="14.4" fill="#009af9" fill-rule="evenodd" fill-opacity="1" stroke="#000000" stroke-opacity="1" stroke-width="3.2"/>
<circle clip-path="url(#clip152)" cx="894.938" cy="1325.78" r="14.4" fill="#009af9" fill-rule="evenodd" fill-opacity="1" stroke="#000000" stroke-opacity="1" stroke-width="3.2"/>
<circle clip-path="url(#clip152)" cx="912.651" cy="1331.35" r="14.4" fill="#009af9" fill-rule="evenodd" fill-opacity="1" stroke="#000000" stroke-opacity="1" stroke-width="3.2"/>
<circle clip-path="url(#clip152)" cx="930.365" cy="1336.38" r="14.4" fill="#009af9" fill-rule="evenodd" fill-opacity="1" stroke="#000000" stroke-opacity="1" stroke-width="3.2"/>
<circle clip-path="url(#clip152)" cx="948.078" cy="1340.94" r="14.4" fill="#009af9" fill-rule="evenodd" fill-opacity="1" stroke="#000000" stroke-opacity="1" stroke-width="3.2"/>
<circle clip-path="url(#clip152)" cx="965.792" cy="1345.06" r="14.4" fill="#009af9" fill-rule="evenodd" fill-opacity="1" stroke="#000000" stroke-opacity="1" stroke-width="3.2"/>
<circle clip-path="url(#clip152)" cx="983.505" cy="1348.79" r="14.4" fill="#009af9" fill-rule="evenodd" fill-opacity="1" stroke="#000000" stroke-opacity="1" stroke-width="3.2"/>
<circle clip-path="url(#clip152)" cx="1001.22" cy="1352.17" r="14.4" fill="#009af9" fill-rule="evenodd" fill-opacity="1" stroke="#000000" stroke-opacity="1" stroke-width="3.2"/>
<circle clip-path="url(#clip152)" cx="1018.93" cy="1355.22" r="14.4" fill="#009af9" fill-rule="evenodd" fill-opacity="1" stroke="#000000" stroke-opacity="1" stroke-width="3.2"/>
<circle clip-path="url(#clip152)" cx="1036.65" cy="1357.98" r="14.4" fill="#009af9" fill-rule="evenodd" fill-opacity="1" stroke="#000000" stroke-opacity="1" stroke-width="3.2"/>
<circle clip-path="url(#clip152)" cx="1054.36" cy="1360.48" r="14.4" fill="#009af9" fill-rule="evenodd" fill-opacity="1" stroke="#000000" stroke-opacity="1" stroke-width="3.2"/>
<circle clip-path="url(#clip152)" cx="1072.07" cy="1362.75" r="14.4" fill="#009af9" fill-rule="evenodd" fill-opacity="1" stroke="#000000" stroke-opacity="1" stroke-width="3.2"/>
<circle clip-path="url(#clip152)" cx="1089.79" cy="1364.79" r="14.4" fill="#009af9" fill-rule="evenodd" fill-opacity="1" stroke="#000000" stroke-opacity="1" stroke-width="3.2"/>
<circle clip-path="url(#clip152)" cx="1107.5" cy="1366.65" r="14.4" fill="#009af9" fill-rule="evenodd" fill-opacity="1" stroke="#000000" stroke-opacity="1" stroke-width="3.2"/>
<circle clip-path="url(#clip152)" cx="1125.21" cy="1368.32" r="14.4" fill="#009af9" fill-rule="evenodd" fill-opacity="1" stroke="#000000" stroke-opacity="1" stroke-width="3.2"/>
<circle clip-path="url(#clip152)" cx="1142.93" cy="1369.84" r="14.4" fill="#009af9" fill-rule="evenodd" fill-opacity="1" stroke="#000000" stroke-opacity="1" stroke-width="3.2"/>
<circle clip-path="url(#clip152)" cx="1160.64" cy="1371.21" r="14.4" fill="#009af9" fill-rule="evenodd" fill-opacity="1" stroke="#000000" stroke-opacity="1" stroke-width="3.2"/>
<circle clip-path="url(#clip152)" cx="1178.35" cy="1372.45" r="14.4" fill="#009af9" fill-rule="evenodd" fill-opacity="1" stroke="#000000" stroke-opacity="1" stroke-width="3.2"/>
<circle clip-path="url(#clip152)" cx="1196.07" cy="1373.58" r="14.4" fill="#009af9" fill-rule="evenodd" fill-opacity="1" stroke="#000000" stroke-opacity="1" stroke-width="3.2"/>
<circle clip-path="url(#clip152)" cx="1213.78" cy="1374.59" r="14.4" fill="#009af9" fill-rule="evenodd" fill-opacity="1" stroke="#000000" stroke-opacity="1" stroke-width="3.2"/>
<circle clip-path="url(#clip152)" cx="1231.49" cy="1375.51" r="14.4" fill="#009af9" fill-rule="evenodd" fill-opacity="1" stroke="#000000" stroke-opacity="1" stroke-width="3.2"/>
<circle clip-path="url(#clip152)" cx="1249.21" cy="1376.35" r="14.4" fill="#009af9" fill-rule="evenodd" fill-opacity="1" stroke="#000000" stroke-opacity="1" stroke-width="3.2"/>
<circle clip-path="url(#clip152)" cx="1266.92" cy="1377.1" r="14.4" fill="#009af9" fill-rule="evenodd" fill-opacity="1" stroke="#000000" stroke-opacity="1" stroke-width="3.2"/>
<circle clip-path="url(#clip152)" cx="1284.63" cy="1377.78" r="14.4" fill="#009af9" fill-rule="evenodd" fill-opacity="1" stroke="#000000" stroke-opacity="1" stroke-width="3.2"/>
<circle clip-path="url(#clip152)" cx="1302.35" cy="1378.4" r="14.4" fill="#009af9" fill-rule="evenodd" fill-opacity="1" stroke="#000000" stroke-opacity="1" stroke-width="3.2"/>
<circle clip-path="url(#clip152)" cx="1320.06" cy="1378.95" r="14.4" fill="#009af9" fill-rule="evenodd" fill-opacity="1" stroke="#000000" stroke-opacity="1" stroke-width="3.2"/>
<circle clip-path="url(#clip152)" cx="1337.77" cy="1379.46" r="14.4" fill="#009af9" fill-rule="evenodd" fill-opacity="1" stroke="#000000" stroke-opacity="1" stroke-width="3.2"/>
<circle clip-path="url(#clip152)" cx="1355.49" cy="1379.92" r="14.4" fill="#009af9" fill-rule="evenodd" fill-opacity="1" stroke="#000000" stroke-opacity="1" stroke-width="3.2"/>
<circle clip-path="url(#clip152)" cx="1373.2" cy="1380.33" r="14.4" fill="#009af9" fill-rule="evenodd" fill-opacity="1" stroke="#000000" stroke-opacity="1" stroke-width="3.2"/>
<circle clip-path="url(#clip152)" cx="1390.91" cy="1380.7" r="14.4" fill="#009af9" fill-rule="evenodd" fill-opacity="1" stroke="#000000" stroke-opacity="1" stroke-width="3.2"/>
<circle clip-path="url(#clip152)" cx="1408.63" cy="1381.04" r="14.4" fill="#009af9" fill-rule="evenodd" fill-opacity="1" stroke="#000000" stroke-opacity="1" stroke-width="3.2"/>
<circle clip-path="url(#clip152)" cx="1426.34" cy="1381.35" r="14.4" fill="#009af9" fill-rule="evenodd" fill-opacity="1" stroke="#000000" stroke-opacity="1" stroke-width="3.2"/>
<circle clip-path="url(#clip152)" cx="1444.06" cy="1381.63" r="14.4" fill="#009af9" fill-rule="evenodd" fill-opacity="1" stroke="#000000" stroke-opacity="1" stroke-width="3.2"/>
<circle clip-path="url(#clip152)" cx="1461.77" cy="1381.88" r="14.4" fill="#009af9" fill-rule="evenodd" fill-opacity="1" stroke="#000000" stroke-opacity="1" stroke-width="3.2"/>
<circle clip-path="url(#clip152)" cx="1479.48" cy="1382.1" r="14.4" fill="#009af9" fill-rule="evenodd" fill-opacity="1" stroke="#000000" stroke-opacity="1" stroke-width="3.2"/>
<circle clip-path="url(#clip152)" cx="1497.2" cy="1382.31" r="14.4" fill="#009af9" fill-rule="evenodd" fill-opacity="1" stroke="#000000" stroke-opacity="1" stroke-width="3.2"/>
<circle clip-path="url(#clip152)" cx="1514.91" cy="1382.49" r="14.4" fill="#009af9" fill-rule="evenodd" fill-opacity="1" stroke="#000000" stroke-opacity="1" stroke-width="3.2"/>
<circle clip-path="url(#clip152)" cx="1532.62" cy="1382.66" r="14.4" fill="#009af9" fill-rule="evenodd" fill-opacity="1" stroke="#000000" stroke-opacity="1" stroke-width="3.2"/>
<circle clip-path="url(#clip152)" cx="1550.34" cy="1382.81" r="14.4" fill="#009af9" fill-rule="evenodd" fill-opacity="1" stroke="#000000" stroke-opacity="1" stroke-width="3.2"/>
<circle clip-path="url(#clip152)" cx="1568.05" cy="1382.95" r="14.4" fill="#009af9" fill-rule="evenodd" fill-opacity="1" stroke="#000000" stroke-opacity="1" stroke-width="3.2"/>
<circle clip-path="url(#clip152)" cx="1585.76" cy="1383.08" r="14.4" fill="#009af9" fill-rule="evenodd" fill-opacity="1" stroke="#000000" stroke-opacity="1" stroke-width="3.2"/>
<circle clip-path="url(#clip152)" cx="1603.48" cy="1383.19" r="14.4" fill="#009af9" fill-rule="evenodd" fill-opacity="1" stroke="#000000" stroke-opacity="1" stroke-width="3.2"/>
<circle clip-path="url(#clip152)" cx="1621.19" cy="1383.29" r="14.4" fill="#009af9" fill-rule="evenodd" fill-opacity="1" stroke="#000000" stroke-opacity="1" stroke-width="3.2"/>
<circle clip-path="url(#clip152)" cx="1638.9" cy="1383.38" r="14.4" fill="#009af9" fill-rule="evenodd" fill-opacity="1" stroke="#000000" stroke-opacity="1" stroke-width="3.2"/>
<circle clip-path="url(#clip152)" cx="1656.62" cy="1383.47" r="14.4" fill="#009af9" fill-rule="evenodd" fill-opacity="1" stroke="#000000" stroke-opacity="1" stroke-width="3.2"/>
<circle clip-path="url(#clip152)" cx="1674.33" cy="1383.54" r="14.4" fill="#009af9" fill-rule="evenodd" fill-opacity="1" stroke="#000000" stroke-opacity="1" stroke-width="3.2"/>
<circle clip-path="url(#clip152)" cx="1692.04" cy="1383.61" r="14.4" fill="#009af9" fill-rule="evenodd" fill-opacity="1" stroke="#000000" stroke-opacity="1" stroke-width="3.2"/>
<circle clip-path="url(#clip152)" cx="1709.76" cy="1383.67" r="14.4" fill="#009af9" fill-rule="evenodd" fill-opacity="1" stroke="#000000" stroke-opacity="1" stroke-width="3.2"/>
<circle clip-path="url(#clip152)" cx="1727.47" cy="1383.73" r="14.4" fill="#009af9" fill-rule="evenodd" fill-opacity="1" stroke="#000000" stroke-opacity="1" stroke-width="3.2"/>
<circle clip-path="url(#clip152)" cx="1745.18" cy="1383.78" r="14.4" fill="#009af9" fill-rule="evenodd" fill-opacity="1" stroke="#000000" stroke-opacity="1" stroke-width="3.2"/>
<circle clip-path="url(#clip152)" cx="1762.9" cy="1383.82" r="14.4" fill="#009af9" fill-rule="evenodd" fill-opacity="1" stroke="#000000" stroke-opacity="1" stroke-width="3.2"/>
<circle clip-path="url(#clip152)" cx="1780.61" cy="1383.87" r="14.4" fill="#009af9" fill-rule="evenodd" fill-opacity="1" stroke="#000000" stroke-opacity="1" stroke-width="3.2"/>
<circle clip-path="url(#clip152)" cx="1798.32" cy="1383.9" r="14.4" fill="#009af9" fill-rule="evenodd" fill-opacity="1" stroke="#000000" stroke-opacity="1" stroke-width="3.2"/>
<circle clip-path="url(#clip152)" cx="1816.04" cy="1383.94" r="14.4" fill="#009af9" fill-rule="evenodd" fill-opacity="1" stroke="#000000" stroke-opacity="1" stroke-width="3.2"/>
<circle clip-path="url(#clip152)" cx="1833.75" cy="1383.97" r="14.4" fill="#009af9" fill-rule="evenodd" fill-opacity="1" stroke="#000000" stroke-opacity="1" stroke-width="3.2"/>
<circle clip-path="url(#clip152)" cx="1851.46" cy="1384" r="14.4" fill="#009af9" fill-rule="evenodd" fill-opacity="1" stroke="#000000" stroke-opacity="1" stroke-width="3.2"/>
<circle clip-path="url(#clip152)" cx="1869.18" cy="1384.02" r="14.4" fill="#009af9" fill-rule="evenodd" fill-opacity="1" stroke="#000000" stroke-opacity="1" stroke-width="3.2"/>
<circle clip-path="url(#clip152)" cx="1886.89" cy="1384.04" r="14.4" fill="#009af9" fill-rule="evenodd" fill-opacity="1" stroke="#000000" stroke-opacity="1" stroke-width="3.2"/>
<circle clip-path="url(#clip152)" cx="1904.61" cy="1384.06" r="14.4" fill="#009af9" fill-rule="evenodd" fill-opacity="1" stroke="#000000" stroke-opacity="1" stroke-width="3.2"/>
<circle clip-path="url(#clip152)" cx="1922.32" cy="1384.08" r="14.4" fill="#009af9" fill-rule="evenodd" fill-opacity="1" stroke="#000000" stroke-opacity="1" stroke-width="3.2"/>
<circle clip-path="url(#clip152)" cx="1940.03" cy="1384.1" r="14.4" fill="#009af9" fill-rule="evenodd" fill-opacity="1" stroke="#000000" stroke-opacity="1" stroke-width="3.2"/>
<circle clip-path="url(#clip152)" cx="1957.75" cy="1384.11" r="14.4" fill="#009af9" fill-rule="evenodd" fill-opacity="1" stroke="#000000" stroke-opacity="1" stroke-width="3.2"/>
<circle clip-path="url(#clip152)" cx="1975.46" cy="1384.13" r="14.4" fill="#009af9" fill-rule="evenodd" fill-opacity="1" stroke="#000000" stroke-opacity="1" stroke-width="3.2"/>
<circle clip-path="url(#clip152)" cx="1993.17" cy="1384.14" r="14.4" fill="#009af9" fill-rule="evenodd" fill-opacity="1" stroke="#000000" stroke-opacity="1" stroke-width="3.2"/>
<circle clip-path="url(#clip152)" cx="2010.89" cy="1384.15" r="14.4" fill="#009af9" fill-rule="evenodd" fill-opacity="1" stroke="#000000" stroke-opacity="1" stroke-width="3.2"/>
<circle clip-path="url(#clip152)" cx="2028.6" cy="1384.16" r="14.4" fill="#009af9" fill-rule="evenodd" fill-opacity="1" stroke="#000000" stroke-opacity="1" stroke-width="3.2"/>
<circle clip-path="url(#clip152)" cx="2046.31" cy="1384.17" r="14.4" fill="#009af9" fill-rule="evenodd" fill-opacity="1" stroke="#000000" stroke-opacity="1" stroke-width="3.2"/>
<circle clip-path="url(#clip152)" cx="2064.03" cy="1384.18" r="14.4" fill="#009af9" fill-rule="evenodd" fill-opacity="1" stroke="#000000" stroke-opacity="1" stroke-width="3.2"/>
<circle clip-path="url(#clip152)" cx="2081.74" cy="1384.19" r="14.4" fill="#009af9" fill-rule="evenodd" fill-opacity="1" stroke="#000000" stroke-opacity="1" stroke-width="3.2"/>
<circle clip-path="url(#clip152)" cx="2099.45" cy="1384.19" r="14.4" fill="#009af9" fill-rule="evenodd" fill-opacity="1" stroke="#000000" stroke-opacity="1" stroke-width="3.2"/>
<circle clip-path="url(#clip152)" cx="2117.17" cy="1384.2" r="14.4" fill="#009af9" fill-rule="evenodd" fill-opacity="1" stroke="#000000" stroke-opacity="1" stroke-width="3.2"/>
<circle clip-path="url(#clip152)" cx="2134.88" cy="1384.21" r="14.4" fill="#009af9" fill-rule="evenodd" fill-opacity="1" stroke="#000000" stroke-opacity="1" stroke-width="3.2"/>
<circle clip-path="url(#clip152)" cx="2152.59" cy="1384.21" r="14.4" fill="#009af9" fill-rule="evenodd" fill-opacity="1" stroke="#000000" stroke-opacity="1" stroke-width="3.2"/>
<circle clip-path="url(#clip152)" cx="2170.31" cy="1384.22" r="14.4" fill="#009af9" fill-rule="evenodd" fill-opacity="1" stroke="#000000" stroke-opacity="1" stroke-width="3.2"/>
<circle clip-path="url(#clip152)" cx="2188.02" cy="1384.22" r="14.4" fill="#009af9" fill-rule="evenodd" fill-opacity="1" stroke="#000000" stroke-opacity="1" stroke-width="3.2"/>
<circle clip-path="url(#clip152)" cx="2205.73" cy="1384.22" r="14.4" fill="#009af9" fill-rule="evenodd" fill-opacity="1" stroke="#000000" stroke-opacity="1" stroke-width="3.2"/>
<circle clip-path="url(#clip152)" cx="2223.45" cy="1384.23" r="14.4" fill="#009af9" fill-rule="evenodd" fill-opacity="1" stroke="#000000" stroke-opacity="1" stroke-width="3.2"/>
<circle clip-path="url(#clip152)" cx="2241.16" cy="1384.23" r="14.4" fill="#009af9" fill-rule="evenodd" fill-opacity="1" stroke="#000000" stroke-opacity="1" stroke-width="3.2"/>
<circle clip-path="url(#clip152)" cx="2258.87" cy="1384.23" r="14.4" fill="#009af9" fill-rule="evenodd" fill-opacity="1" stroke="#000000" stroke-opacity="1" stroke-width="3.2"/>
<circle clip-path="url(#clip152)" cx="2276.59" cy="1384.24" r="14.4" fill="#009af9" fill-rule="evenodd" fill-opacity="1" stroke="#000000" stroke-opacity="1" stroke-width="3.2"/>
<circle clip-path="url(#clip152)" cx="2294.3" cy="1384.24" r="14.4" fill="#009af9" fill-rule="evenodd" fill-opacity="1" stroke="#000000" stroke-opacity="1" stroke-width="3.2"/>
<polyline clip-path="url(#clip152)" style="stroke:#e26f46; stroke-linecap:round; stroke-linejoin:round; stroke-width:4; stroke-opacity:1; fill:none" points="345.82,86.1857 348.703,107.143 351.587,127.761 354.47,148.047 357.353,168.005 364.017,212.916 370.682,256.169 377.347,297.824 384.011,337.941 390.676,376.577 397.341,413.787 404.005,449.622 410.67,484.134 417.334,517.372 423.999,549.382 430.664,580.21 437.328,609.9 443.993,638.494 450.658,666.032 457.322,692.553 463.987,718.095 471.997,747.549 480.007,775.701 488.018,802.608 496.028,828.325 504.038,852.905 512.049,876.399 520.059,898.854 528.069,920.316 541.615,954.47 555.16,986.111 568.705,1015.42 582.25,1042.57 596.964,1069.81 611.678,1094.88 626.392,1117.94 641.106,1139.17 654.671,1157.24 668.236,1173.97 681.801,1189.48 695.366,1203.84 709.909,1218.06 724.452,1231.16 738.995,1243.23 753.538,1254.34 770.388,1266.13 787.237,1276.85 804.087,1286.6 820.936,1295.46 850.884,1309.27 880.832,1320.94 907.094,1329.66 933.355,1337.18 961.987,1344.21 990.619,1350.19 1019.42,1355.3 1048.22,1359.65 1111.91,1367.08 1172.51,1372.06 1235.52,1375.71 1288.56,1377.92 1353.32,1379.86 1412.64,1381.11 1467.42,1381.95 1522.92,1382.57 1585.12,1383.07 1641.48,1383.4 1706.01,1383.66 1765.75,1383.83 1824.66,1383.95 1881.85,1384.04 1940.48,1384.1 2004.71,1384.15 2098.02,1384.19 2117.17,1384.2 "/>
<path clip-path="url(#clip150)" d="M1828.25 248.629 L2283.91 248.629 L2283.91 93.1086 L1828.25 93.1086  Z" fill="#ffffff" fill-rule="evenodd" fill-opacity="1"/>
<polyline clip-path="url(#clip150)" style="stroke:#000000; stroke-linecap:round; stroke-linejoin:round; stroke-width:4; stroke-opacity:1; fill:none" points="1828.25,248.629 2283.91,248.629 2283.91,93.1086 1828.25,93.1086 1828.25,248.629 "/>
<circle clip-path="url(#clip150)" cx="1920.05" cy="144.949" r="20.48" fill="#009af9" fill-rule="evenodd" fill-opacity="1" stroke="#000000" stroke-opacity="1" stroke-width="4.55111"/>
<path clip-path="url(#clip150)" d="M2011.84 126.21 L2016.1 126.21 L2016.1 162.229 L2011.84 162.229 L2011.84 126.21 Z" fill="#000000" fill-rule="nonzero" fill-opacity="1" /><path clip-path="url(#clip150)" d="M2025.01 136.303 L2029.27 136.303 L2029.27 162.229 L2025.01 162.229 L2025.01 136.303 M2025.01 126.21 L2029.27 126.21 L2029.27 131.604 L2025.01 131.604 L2025.01 126.21 Z" fill="#000000" fill-rule="nonzero" fill-opacity="1" /><path clip-path="url(#clip150)" d="M2059.74 146.581 L2059.74 162.229 L2055.48 162.229 L2055.48 146.719 Q2055.48 143.039 2054.04 141.21 Q2052.61 139.382 2049.74 139.382 Q2046.29 139.382 2044.3 141.581 Q2042.3 143.78 2042.3 147.576 L2042.3 162.229 L2038.02 162.229 L2038.02 136.303 L2042.3 136.303 L2042.3 140.331 Q2043.83 137.993 2045.89 136.835 Q2047.98 135.678 2050.68 135.678 Q2055.15 135.678 2057.44 138.456 Q2059.74 141.21 2059.74 146.581 Z" fill="#000000" fill-rule="nonzero" fill-opacity="1" /><path clip-path="url(#clip150)" d="M2090.41 148.201 L2090.41 150.284 L2070.82 150.284 Q2071.1 154.682 2073.46 156.997 Q2075.85 159.289 2080.08 159.289 Q2082.54 159.289 2084.83 158.687 Q2087.14 158.085 2089.41 156.881 L2089.41 160.909 Q2087.12 161.881 2084.71 162.391 Q2082.3 162.9 2079.83 162.9 Q2073.62 162.9 2069.99 159.289 Q2066.38 155.678 2066.38 149.52 Q2066.38 143.155 2069.8 139.428 Q2073.25 135.678 2079.09 135.678 Q2084.32 135.678 2087.35 139.057 Q2090.41 142.414 2090.41 148.201 M2086.15 146.951 Q2086.1 143.456 2084.18 141.372 Q2082.28 139.289 2079.13 139.289 Q2075.57 139.289 2073.42 141.303 Q2071.29 143.317 2070.96 146.974 L2086.15 146.951 Z" fill="#000000" fill-rule="nonzero" fill-opacity="1" /><path clip-path="url(#clip150)" d="M2109.18 149.196 Q2104.02 149.196 2102.03 150.377 Q2100.04 151.557 2100.04 154.405 Q2100.04 156.673 2101.52 158.016 Q2103.02 159.335 2105.59 159.335 Q2109.13 159.335 2111.26 156.835 Q2113.42 154.312 2113.42 150.145 L2113.42 149.196 L2109.18 149.196 M2117.67 147.437 L2117.67 162.229 L2113.42 162.229 L2113.42 158.293 Q2111.96 160.655 2109.78 161.789 Q2107.61 162.9 2104.46 162.9 Q2100.48 162.9 2098.11 160.678 Q2095.78 158.432 2095.78 154.682 Q2095.78 150.307 2098.69 148.085 Q2101.63 145.863 2107.44 145.863 L2113.42 145.863 L2113.42 145.446 Q2113.42 142.507 2111.47 140.909 Q2109.55 139.289 2106.05 139.289 Q2103.83 139.289 2101.73 139.821 Q2099.62 140.354 2097.67 141.419 L2097.67 137.483 Q2100.01 136.581 2102.21 136.141 Q2104.41 135.678 2106.49 135.678 Q2112.12 135.678 2114.9 138.594 Q2117.67 141.511 2117.67 147.437 Z" fill="#000000" fill-rule="nonzero" fill-opacity="1" /><path clip-path="url(#clip150)" d="M2141.47 140.284 Q2140.75 139.868 2139.9 139.682 Q2139.06 139.474 2138.04 139.474 Q2134.43 139.474 2132.49 141.835 Q2130.57 144.173 2130.57 148.571 L2130.57 162.229 L2126.29 162.229 L2126.29 136.303 L2130.57 136.303 L2130.57 140.331 Q2131.91 137.969 2134.06 136.835 Q2136.22 135.678 2139.29 135.678 Q2139.73 135.678 2140.27 135.747 Q2140.8 135.794 2141.45 135.909 L2141.47 140.284 Z" fill="#000000" fill-rule="nonzero" fill-opacity="1" /><path clip-path="url(#clip150)" d="M2178.07 140.238 L2178.07 126.21 L2182.33 126.21 L2182.33 162.229 L2178.07 162.229 L2178.07 158.34 Q2176.73 160.655 2174.66 161.789 Q2172.63 162.9 2169.76 162.9 Q2165.06 162.9 2162.1 159.15 Q2159.16 155.4 2159.16 149.289 Q2159.16 143.178 2162.1 139.428 Q2165.06 135.678 2169.76 135.678 Q2172.63 135.678 2174.66 136.812 Q2176.73 137.923 2178.07 140.238 M2163.55 149.289 Q2163.55 153.988 2165.48 156.673 Q2167.42 159.335 2170.8 159.335 Q2174.18 159.335 2176.12 156.673 Q2178.07 153.988 2178.07 149.289 Q2178.07 144.59 2176.12 141.928 Q2174.18 139.243 2170.8 139.243 Q2167.42 139.243 2165.48 141.928 Q2163.55 144.59 2163.55 149.289 Z" fill="#000000" fill-rule="nonzero" fill-opacity="1" /><path clip-path="url(#clip150)" d="M2206.12 140.284 Q2205.41 139.868 2204.55 139.682 Q2203.72 139.474 2202.7 139.474 Q2199.09 139.474 2197.14 141.835 Q2195.22 144.173 2195.22 148.571 L2195.22 162.229 L2190.94 162.229 L2190.94 136.303 L2195.22 136.303 L2195.22 140.331 Q2196.56 137.969 2198.72 136.835 Q2200.87 135.678 2203.95 135.678 Q2204.39 135.678 2204.92 135.747 Q2205.45 135.794 2206.1 135.909 L2206.12 140.284 Z" fill="#000000" fill-rule="nonzero" fill-opacity="1" /><path clip-path="url(#clip150)" d="M2222.37 149.196 Q2217.21 149.196 2215.22 150.377 Q2213.23 151.557 2213.23 154.405 Q2213.23 156.673 2214.71 158.016 Q2216.22 159.335 2218.79 159.335 Q2222.33 159.335 2224.46 156.835 Q2226.61 154.312 2226.61 150.145 L2226.61 149.196 L2222.37 149.196 M2230.87 147.437 L2230.87 162.229 L2226.61 162.229 L2226.61 158.293 Q2225.15 160.655 2222.97 161.789 Q2220.8 162.9 2217.65 162.9 Q2213.67 162.9 2211.31 160.678 Q2208.97 158.432 2208.97 154.682 Q2208.97 150.307 2211.89 148.085 Q2214.83 145.863 2220.64 145.863 L2226.61 145.863 L2226.61 145.446 Q2226.61 142.507 2224.66 140.909 Q2222.74 139.289 2219.25 139.289 Q2217.03 139.289 2214.92 139.821 Q2212.81 140.354 2210.87 141.419 L2210.87 137.483 Q2213.21 136.581 2215.41 136.141 Q2217.6 135.678 2219.69 135.678 Q2225.31 135.678 2228.09 138.594 Q2230.87 141.511 2230.87 147.437 Z" fill="#000000" fill-rule="nonzero" fill-opacity="1" /><path clip-path="url(#clip150)" d="M2256.7 148.965 Q2256.7 144.335 2254.78 141.789 Q2252.88 139.243 2249.43 139.243 Q2246.01 139.243 2244.09 141.789 Q2242.19 144.335 2242.19 148.965 Q2242.19 153.571 2244.09 156.118 Q2246.01 158.664 2249.43 158.664 Q2252.88 158.664 2254.78 156.118 Q2256.7 153.571 2256.7 148.965 M2260.96 159.011 Q2260.96 165.631 2258.02 168.849 Q2255.08 172.09 2249.02 172.09 Q2246.77 172.09 2244.78 171.742 Q2242.79 171.418 2240.91 170.724 L2240.91 166.58 Q2242.79 167.599 2244.62 168.085 Q2246.45 168.571 2248.35 168.571 Q2252.53 168.571 2254.62 166.372 Q2256.7 164.196 2256.7 159.775 L2256.7 157.668 Q2255.38 159.96 2253.32 161.094 Q2251.26 162.229 2248.39 162.229 Q2243.62 162.229 2240.71 158.594 Q2237.79 154.96 2237.79 148.965 Q2237.79 142.946 2240.71 139.312 Q2243.62 135.678 2248.39 135.678 Q2251.26 135.678 2253.32 136.812 Q2255.38 137.946 2256.7 140.238 L2256.7 136.303 L2260.96 136.303 L2260.96 159.011 Z" fill="#000000" fill-rule="nonzero" fill-opacity="1" /><polyline clip-path="url(#clip150)" style="stroke:#e26f46; stroke-linecap:round; stroke-linejoin:round; stroke-width:4; stroke-opacity:1; fill:none" points="1851.2,196.789 1988.89,196.789 "/>
<path clip-path="url(#clip150)" d="M2035.87 200.041 L2035.87 202.124 L2016.29 202.124 Q2016.56 206.522 2018.93 208.837 Q2021.31 211.129 2025.55 211.129 Q2028 211.129 2030.29 210.527 Q2032.61 209.925 2034.87 208.721 L2034.87 212.749 Q2032.58 213.721 2030.17 214.231 Q2027.77 214.74 2025.29 214.74 Q2019.09 214.74 2015.45 211.129 Q2011.84 207.518 2011.84 201.36 Q2011.84 194.995 2015.27 191.268 Q2018.72 187.518 2024.55 187.518 Q2029.78 187.518 2032.81 190.897 Q2035.87 194.254 2035.87 200.041 M2031.61 198.791 Q2031.56 195.296 2029.64 193.212 Q2027.74 191.129 2024.6 191.129 Q2021.03 191.129 2018.88 193.143 Q2016.75 195.157 2016.43 198.814 L2031.61 198.791 Z" fill="#000000" fill-rule="nonzero" fill-opacity="1" /><path clip-path="url(#clip150)" d="M2063.58 188.143 L2054.2 200.759 L2064.06 214.069 L2059.04 214.069 L2051.49 203.883 L2043.95 214.069 L2038.92 214.069 L2048.99 200.504 L2039.78 188.143 L2044.8 188.143 L2051.68 197.379 L2058.55 188.143 L2063.58 188.143 Z" fill="#000000" fill-rule="nonzero" fill-opacity="1" /><path clip-path="url(#clip150)" d="M2081.86 201.036 Q2076.7 201.036 2074.71 202.217 Q2072.72 203.397 2072.72 206.245 Q2072.72 208.513 2074.2 209.856 Q2075.71 211.175 2078.28 211.175 Q2081.82 211.175 2083.95 208.675 Q2086.1 206.152 2086.1 201.985 L2086.1 201.036 L2081.86 201.036 M2090.36 199.277 L2090.36 214.069 L2086.1 214.069 L2086.1 210.133 Q2084.64 212.495 2082.47 213.629 Q2080.29 214.74 2077.14 214.74 Q2073.16 214.74 2070.8 212.518 Q2068.46 210.272 2068.46 206.522 Q2068.46 202.147 2071.38 199.925 Q2074.32 197.703 2080.13 197.703 L2086.1 197.703 L2086.1 197.286 Q2086.1 194.347 2084.16 192.749 Q2082.23 191.129 2078.74 191.129 Q2076.52 191.129 2074.41 191.661 Q2072.3 192.194 2070.36 193.259 L2070.36 189.323 Q2072.7 188.421 2074.9 187.981 Q2077.1 187.518 2079.18 187.518 Q2084.8 187.518 2087.58 190.434 Q2090.36 193.351 2090.36 199.277 Z" fill="#000000" fill-rule="nonzero" fill-opacity="1" /><path clip-path="url(#clip150)" d="M2117.79 189.138 L2117.79 193.12 Q2115.98 192.124 2114.16 191.638 Q2112.35 191.129 2110.5 191.129 Q2106.36 191.129 2104.06 193.768 Q2101.77 196.384 2101.77 201.129 Q2101.77 205.874 2104.06 208.513 Q2106.36 211.129 2110.5 211.129 Q2112.35 211.129 2114.16 210.643 Q2115.98 210.133 2117.79 209.138 L2117.79 213.073 Q2116.01 213.907 2114.09 214.323 Q2112.19 214.74 2110.04 214.74 Q2104.18 214.74 2100.73 211.059 Q2097.28 207.379 2097.28 201.129 Q2097.28 194.786 2100.75 191.152 Q2104.25 187.518 2110.31 187.518 Q2112.28 187.518 2114.16 187.935 Q2116.03 188.328 2117.79 189.138 Z" fill="#000000" fill-rule="nonzero" fill-opacity="1" /><path clip-path="url(#clip150)" d="M2129.41 180.782 L2129.41 188.143 L2138.18 188.143 L2138.18 191.453 L2129.41 191.453 L2129.41 205.527 Q2129.41 208.698 2130.27 209.601 Q2131.15 210.504 2133.81 210.504 L2138.18 210.504 L2138.18 214.069 L2133.81 214.069 Q2128.88 214.069 2127 212.24 Q2125.13 210.388 2125.13 205.527 L2125.13 191.453 L2122 191.453 L2122 188.143 L2125.13 188.143 L2125.13 180.782 L2129.41 180.782 Z" fill="#000000" fill-rule="nonzero" fill-opacity="1" /></svg>