<?xml version="1.0" encoding="utf-8"?>
<svg xmlns="http://www.w3.org/2000/svg" xmlns:xlink="http://www.w3.org/1999/xlink" width="600" height="400" viewBox="0 0 2400 1600">
<defs>
  <clipPath id="clip670">
    <rect x="0" y="0" width="2400" height="1600"/>
  </clipPath>
</defs>
<path clip-path="url(#clip670)" d="M0 1600 L2400 1600 L2400 8.88178e-14 L0 8.88178e-14  Z" fill="#ffffff" fill-rule="evenodd" fill-opacity="1"/>
<defs>
  <clipPath id="clip671">
    <rect x="480" y="0" width="1681" height="1600"/>
  </clipPath>
</defs>
<path clip-path="url(#clip670)" d="M147.108 1486.45 L2352.76 1486.45 L2352.76 47.2441 L147.108 47.2441  Z" fill="#ffffff" fill-rule="evenodd" fill-opacity="1"/>
<defs>
  <clipPath id="clip672">
    <rect x="147" y="47" width="2207" height="1440"/>
  </clipPath>
</defs>
<polyline clip-path="url(#clip672)" style="stroke:#000000; stroke-linecap:round; stroke-linejoin:round; stroke-width:2; stroke-opacity:0.1; fill:none" points="490.721,1486.45 490.721,47.2441 "/>
<polyline clip-path="url(#clip672)" style="stroke:#000000; stroke-linecap:round; stroke-linejoin:round; stroke-width:2; stroke-opacity:0.1; fill:none" points="1053.1,1486.45 1053.1,47.2441 "/>
<polyline clip-path="url(#clip672)" style="stroke:#000000; stroke-linecap:round; stroke-linejoin:round; stroke-width:2; stroke-opacity:0.1; fill:none" points="1615.48,1486.45 1615.48,47.2441 "/>
<polyline clip-path="url(#clip672)" style="stroke:#000000; stroke-linecap:round; stroke-linejoin:round; stroke-width:2; stroke-opacity:0.1; fill:none" points="2177.86,1486.45 2177.86,47.2441 "/>
<polyline clip-path="url(#clip670)" style="stroke:#000000; stroke-linecap:round; stroke-linejoin:round; stroke-width:4; stroke-opacity:1; fill:none" points="147.108,1486.45 2352.76,1486.45 "/>
<polyline clip-path="url(#clip670)" style="stroke:#000000; stroke-linecap:round; stroke-linejoin:round; stroke-width:4; stroke-opacity:1; fill:none" points="490.721,1486.45 490.721,1467.55 "/>
<polyline clip-path="url(#clip670)" style="stroke:#000000; stroke-linecap:round; stroke-linejoin:round; stroke-width:4; stroke-opacity:1; fill:none" points="1053.1,1486.45 1053.1,1467.55 "/>
<polyline clip-path="url(#clip670)" style="stroke:#000000; stroke-linecap:round; stroke-linejoin:round; stroke-width:4; stroke-opacity:1; fill:none" points="1615.48,1486.45 1615.48,1467.55 "/>
<polyline clip-path="url(#clip670)" style="stroke:#000000; stroke-linecap:round; stroke-linejoin:round; stroke-width:4; stroke-opacity:1; fill:none" points="2177.86,1486.45 2177.86,1467.55 "/>
<path clip-path="url(#clip670)" d="M460.478 1532.02 L490.154 1532.02 L490.154 1535.95 L460.478 1535.95 L460.478 1532.02 Z" fill="#000000" fill-rule="nonzero" fill-opacity="1" /><path clip-path="url(#clip670)" d="M501.056 1544.91 L508.695 1544.91 L508.695 1518.55 L500.385 1520.21 L500.385 1515.95 L508.649 1514.29 L513.325 1514.29 L513.325 1544.91 L520.964 1544.91 L520.964 1548.85 L501.056 1548.85 L501.056 1544.91 Z" fill="#000000" fill-rule="nonzero" fill-opacity="1" /><path clip-path="url(#clip670)" d="M1053.1 1517.37 Q1049.49 1517.37 1047.66 1520.93 Q1045.85 1524.47 1045.85 1531.6 Q1045.85 1538.71 1047.66 1542.27 Q1049.49 1545.82 1053.1 1545.82 Q1056.73 1545.82 1058.54 1542.27 Q1060.37 1538.71 1060.37 1531.6 Q1060.37 1524.47 1058.54 1520.93 Q1056.73 1517.37 1053.1 1517.37 M1053.1 1513.66 Q1058.91 1513.66 1061.96 1518.27 Q1065.04 1522.85 1065.04 1531.6 Q1065.04 1540.33 1061.96 1544.94 Q1058.91 1549.52 1053.1 1549.52 Q1047.29 1549.52 1044.21 1544.94 Q1041.15 1540.33 1041.15 1531.6 Q1041.15 1522.85 1044.21 1518.27 Q1047.29 1513.66 1053.1 1513.66 Z" fill="#000000" fill-rule="nonzero" fill-opacity="1" /><path clip-path="url(#clip670)" d="M1605.86 1544.91 L1613.5 1544.91 L1613.5 1518.55 L1605.19 1520.21 L1605.19 1515.95 L1613.45 1514.29 L1618.13 1514.29 L1618.13 1544.91 L1625.77 1544.91 L1625.77 1548.85 L1605.86 1548.85 L1605.86 1544.91 Z" fill="#000000" fill-rule="nonzero" fill-opacity="1" /><path clip-path="url(#clip670)" d="M2172.51 1544.91 L2188.83 1544.91 L2188.83 1548.85 L2166.88 1548.85 L2166.88 1544.91 Q2169.55 1542.16 2174.13 1537.53 Q2178.74 1532.88 2179.92 1531.53 Q2182.16 1529.01 2183.04 1527.27 Q2183.94 1525.51 2183.94 1523.82 Q2183.94 1521.07 2182 1519.33 Q2180.08 1517.6 2176.98 1517.6 Q2174.78 1517.6 2172.32 1518.36 Q2169.89 1519.13 2167.12 1520.68 L2167.12 1515.95 Q2169.94 1514.82 2172.39 1514.24 Q2174.85 1513.66 2176.88 1513.66 Q2182.25 1513.66 2185.45 1516.35 Q2188.64 1519.03 2188.64 1523.52 Q2188.64 1525.65 2187.83 1527.57 Q2187.05 1529.47 2184.94 1532.07 Q2184.36 1532.74 2181.26 1535.95 Q2178.16 1539.15 2172.51 1544.91 Z" fill="#000000" fill-rule="nonzero" fill-opacity="1" /><polyline clip-path="url(#clip672)" style="stroke:#000000; stroke-linecap:round; stroke-linejoin:round; stroke-width:2; stroke-opacity:0.1; fill:none" points="147.108,1347.33 2352.76,1347.33 "/>
<polyline clip-path="url(#clip672)" style="stroke:#000000; stroke-linecap:round; stroke-linejoin:round; stroke-width:2; stroke-opacity:0.1; fill:none" points="147.108,1032.49 2352.76,1032.49 "/>
<polyline clip-path="url(#clip672)" style="stroke:#000000; stroke-linecap:round; stroke-linejoin:round; stroke-width:2; stroke-opacity:0.1; fill:none" points="147.108,717.653 2352.76,717.653 "/>
<polyline clip-path="url(#clip672)" style="stroke:#000000; stroke-linecap:round; stroke-linejoin:round; stroke-width:2; stroke-opacity:0.1; fill:none" points="147.108,402.814 2352.76,402.814 "/>
<polyline clip-path="url(#clip672)" style="stroke:#000000; stroke-linecap:round; stroke-linejoin:round; stroke-width:2; stroke-opacity:0.1; fill:none" points="147.108,87.9763 2352.76,87.9763 "/>
<polyline clip-path="url(#clip670)" style="stroke:#000000; stroke-linecap:round; stroke-linejoin:round; stroke-width:4; stroke-opacity:1; fill:none" points="147.108,1486.45 147.108,47.2441 "/>
<polyline clip-path="url(#clip670)" style="stroke:#000000; stroke-linecap:round; stroke-linejoin:round; stroke-width:4; stroke-opacity:1; fill:none" points="147.108,1347.33 166.005,1347.33 "/>
<polyline clip-path="url(#clip670)" style="stroke:#000000; stroke-linecap:round; stroke-linejoin:round; stroke-width:4; stroke-opacity:1; fill:none" points="147.108,1032.49 166.005,1032.49 "/>
<polyline clip-path="url(#clip670)" style="stroke:#000000; stroke-linecap:round; stroke-linejoin:round; stroke-width:4; stroke-opacity:1; fill:none" points="147.108,717.653 166.005,717.653 "/>
<polyline clip-path="url(#clip670)" style="stroke:#000000; stroke-linecap:round; stroke-linejoin:round; stroke-width:4; stroke-opacity:1; fill:none" points="147.108,402.814 166.005,402.814 "/>
<polyline clip-path="url(#clip670)" style="stroke:#000000; stroke-linecap:round; stroke-linejoin:round; stroke-width:4; stroke-opacity:1; fill:none" points="147.108,87.9763 166.005,87.9763 "/>
<path clip-path="url(#clip670)" d="M50.9921 1347.78 L80.6679 1347.78 L80.6679 1351.72 L50.9921 1351.72 L50.9921 1347.78 Z" fill="#000000" fill-rule="nonzero" fill-opacity="1" /><path clip-path="url(#clip670)" d="M94.7882 1360.67 L111.108 1360.67 L111.108 1364.61 L89.1632 1364.61 L89.1632 1360.67 Q91.8252 1357.92 96.4085 1353.29 Q101.015 1348.64 102.196 1347.29 Q104.441 1344.77 105.321 1343.03 Q106.223 1341.28 106.223 1339.59 Q106.223 1336.83 104.279 1335.1 Q102.358 1333.36 99.2558 1333.36 Q97.0567 1333.36 94.603 1334.12 Q92.1725 1334.89 89.3947 1336.44 L89.3947 1331.72 Q92.2188 1330.58 94.6724 1330 Q97.1261 1329.42 99.1632 1329.42 Q104.534 1329.42 107.728 1332.11 Q110.922 1334.79 110.922 1339.28 Q110.922 1341.41 110.112 1343.34 Q109.325 1345.23 107.219 1347.83 Q106.64 1348.5 103.538 1351.72 Q100.436 1354.91 94.7882 1360.67 Z" fill="#000000" fill-rule="nonzero" fill-opacity="1" /><path clip-path="url(#clip670)" d="M99.1632 1018.29 Q95.5521 1018.29 93.7234 1021.85 Q91.9178 1025.4 91.9178 1032.53 Q91.9178 1039.63 93.7234 1043.2 Q95.5521 1046.74 99.1632 1046.74 Q102.797 1046.74 104.603 1043.2 Q106.432 1039.63 106.432 1032.53 Q106.432 1025.4 104.603 1021.85 Q102.797 1018.29 99.1632 1018.29 M99.1632 1014.59 Q104.973 1014.59 108.029 1019.19 Q111.108 1023.78 111.108 1032.53 Q111.108 1041.25 108.029 1045.86 Q104.973 1050.44 99.1632 1050.44 Q93.353 1050.44 90.2743 1045.86 Q87.2188 1041.25 87.2188 1032.53 Q87.2188 1023.78 90.2743 1019.19 Q93.353 1014.59 99.1632 1014.59 Z" fill="#000000" fill-rule="nonzero" fill-opacity="1" /><path clip-path="url(#clip670)" d="M94.7882 730.997 L111.108 730.997 L111.108 734.933 L89.1632 734.933 L89.1632 730.997 Q91.8252 728.243 96.4085 723.613 Q101.015 718.96 102.196 717.618 Q104.441 715.095 105.321 713.359 Q106.223 711.599 106.223 709.91 Q106.223 707.155 104.279 705.419 Q102.358 703.683 99.2558 703.683 Q97.0567 703.683 94.603 704.447 Q92.1725 705.21 89.3947 706.761 L89.3947 702.039 Q92.2188 700.905 94.6724 700.326 Q97.1261 699.748 99.1632 699.748 Q104.534 699.748 107.728 702.433 Q110.922 705.118 110.922 709.609 Q110.922 711.738 110.112 713.659 Q109.325 715.558 107.219 718.15 Q106.64 718.822 103.538 722.039 Q100.436 725.234 94.7882 730.997 Z" fill="#000000" fill-rule="nonzero" fill-opacity="1" /><path clip-path="url(#clip670)" d="M101.524 389.608 L89.7188 408.057 L101.524 408.057 L101.524 389.608 M100.297 385.534 L106.177 385.534 L106.177 408.057 L111.108 408.057 L111.108 411.946 L106.177 411.946 L106.177 420.094 L101.524 420.094 L101.524 411.946 L85.9225 411.946 L85.9225 407.432 L100.297 385.534 Z" fill="#000000" fill-rule="nonzero" fill-opacity="1" /><path clip-path="url(#clip670)" d="M99.5798 86.1129 Q96.4317 86.1129 94.5799 88.2656 Q92.7512 90.4184 92.7512 94.1684 Q92.7512 97.8952 94.5799 100.071 Q96.4317 102.224 99.5798 102.224 Q102.728 102.224 104.557 100.071 Q106.408 97.8952 106.408 94.1684 Q106.408 90.4184 104.557 88.2656 Q102.728 86.1129 99.5798 86.1129 M108.862 71.4602 L108.862 75.7194 Q107.103 74.8861 105.297 74.4463 Q103.515 74.0064 101.756 74.0064 Q97.1261 74.0064 94.6724 77.1314 Q92.2419 80.2564 91.8947 86.5758 Q93.2604 84.5619 95.3206 83.4971 Q97.3808 82.4092 99.8576 82.4092 Q105.066 82.4092 108.075 85.5805 Q111.108 88.7286 111.108 94.1684 Q111.108 99.4924 107.959 102.71 Q104.811 105.928 99.5798 105.928 Q93.5845 105.928 90.4132 101.344 Q87.2419 96.7378 87.2419 88.011 Q87.2419 79.8166 91.1308 74.9555 Q95.0197 70.0713 101.571 70.0713 Q103.33 70.0713 105.112 70.4185 Q106.918 70.7657 108.862 71.4602 Z" fill="#000000" fill-rule="nonzero" fill-opacity="1" /><polyline clip-path="url(#clip672)" style="stroke:#009af9; stroke-linecap:round; stroke-linejoin:round; stroke-width:4; stroke-opacity:1; fill:none" points="209.532,1445.72 212.918,1438.4 216.305,1431.15 219.692,1423.96 223.079,1416.83 238.737,1384.67 254.394,1353.82 270.052,1324.26 285.71,1295.95 301.368,1268.89 317.026,1243.06 332.684,1218.42 348.342,1194.97 367.161,1168.32 385.981,1143.3 404.8,1119.9 423.619,1098.07 439.531,1080.81 455.443,1064.63 471.354,1049.51 487.266,1035.42 504.55,1021.26 521.835,1008.26 539.119,996.411 556.404,985.672 572.338,976.734 588.273,968.696 604.208,961.538 620.143,955.238 637.226,949.413 654.31,944.523 671.394,940.541 688.478,937.441 708.271,934.918 728.064,933.502 747.857,933.153 767.65,933.828 785.24,935.256 802.83,937.431 820.42,940.326 838.01,943.91 853.434,947.599 868.859,951.777 884.284,956.425 899.709,961.523 916.526,967.571 933.343,974.105 950.16,981.101 966.977,988.534 1000.81,1004.71 1034.64,1022.33 1072.05,1043.27 1109.46,1065.47 1145.05,1087.49 1180.65,1110.16 1254.66,1158.31 1316.97,1198.61 1355,1222.52 1393.04,1245.55 1427.88,1265.63 1462.72,1284.49 1494.9,1300.65 1527.08,1315.42 1543.38,1322.3 1559.67,1328.76 1575.97,1334.77 1592.27,1340.31 1610.54,1345.92 1628.8,1350.88 1647.07,1355.15 1665.33,1358.7 1681.88,1361.27 1698.44,1363.19 1714.99,1364.45 1731.54,1365.02 1750.49,1364.8 1769.44,1363.6 1788.39,1361.39 1807.34,1358.14 1824.89,1354.16 1842.43,1349.23 1859.98,1343.32 1877.53,1336.39 1894.83,1328.55 1912.13,1319.66 1929.42,1309.7 1946.72,1298.66 1963.52,1286.85 1980.31,1273.97 1997.11,1259.98 2013.91,1244.85 2031.12,1228.14 2048.34,1210.19 2065.56,1190.96 2082.78,1170.44 2092.21,1158.64 2101.64,1146.43 2111.07,1133.82 2120.5,1120.79 2129.94,1107.35 2139.37,1093.49 2148.8,1079.21 2158.23,1064.5 2171.93,1042.35 2185.64,1019.27 2199.34,995.257 2213.04,970.283 2226.74,944.34 2240.44,917.414 2254.14,889.49 2267.84,860.557 2273.47,848.39 2279.09,836.049 2284.71,823.535 2290.33,810.845 "/>
<polyline clip-path="url(#clip672)" style="stroke:#e26f46; stroke-linecap:round; stroke-linejoin:round; stroke-width:4; stroke-opacity:1; fill:none" points="490.721,560.233 493.467,566.372 496.213,572.487 498.959,578.58 501.705,584.651 527.096,639.714 552.487,692.852 577.878,744.065 603.27,793.353 633.788,850.044 664.306,903.955 690.108,947.365 715.911,988.787 743.94,1031.53 771.968,1071.93 797.809,1107.09 823.649,1140.26 851.352,1173.61 879.055,1204.66 911.152,1237.78 943.25,1267.81 971.774,1291.92 1000.3,1313.61 1025.31,1330.62 1050.32,1345.76 1077.59,1360.15 1104.87,1372.31 1132.3,1382.3 1159.73,1390.05 1190.06,1395.99 1220.39,1399.19 1249.25,1399.69 1278.11,1397.7 1308.12,1392.99 1338.12,1385.59 1363.38,1377.28 1388.64,1367.06 1419.48,1352 1450.32,1334.1 1478.57,1315.21 1506.82,1293.94 1532.91,1272.18 1559,1248.38 1585.43,1222.2 1611.86,1193.94 1641.48,1159.79 1671.1,1123.01 1697.94,1087.42 1724.78,1049.69 1755.51,1003.84 1786.24,955.167 1814.7,907.589 1843.15,857.593 1871.2,805.935 1899.25,751.928 1926.49,697.243 1953.73,640.342 1981.65,579.712 2009.57,516.754 2040.16,445.103 2070.75,370.658 2092.97,314.834 2115.19,257.536 2137.4,198.764 2159.62,138.517 2164.18,125.975 2168.74,113.371 2173.3,100.704 2177.86,87.9763 "/>
<path clip-path="url(#clip670)" d="M220.629 250.738 L599.689 250.738 L599.689 95.2176 L220.629 95.2176  Z" fill="#ffffff" fill-rule="evenodd" fill-opacity="1"/>
<polyline clip-path="url(#clip670)" style="stroke:#000000; stroke-linecap:round; stroke-linejoin:round; stroke-width:4; stroke-opacity:1; fill:none" points="220.629,250.738 599.689,250.738 599.689,95.2176 220.629,95.2176 220.629,250.738 "/>
<polyline clip-path="url(#clip670)" style="stroke:#009af9; stroke-linecap:round; stroke-linejoin:round; stroke-width:4; stroke-opacity:1; fill:none" points="245.136,147.058 392.18,147.058 "/>
<path clip-path="url(#clip670)" d="M433.191 128.319 L433.191 131.861 L429.117 131.861 Q426.826 131.861 425.923 132.787 Q425.043 133.713 425.043 136.12 L425.043 138.412 L432.057 138.412 L432.057 141.722 L425.043 141.722 L425.043 164.338 L420.761 164.338 L420.761 141.722 L416.687 141.722 L416.687 138.412 L420.761 138.412 L420.761 136.606 Q420.761 132.278 422.775 130.31 Q424.789 128.319 429.164 128.319 L433.191 128.319 Z" fill="#000000" fill-rule="nonzero" fill-opacity="1" /><path clip-path="url(#clip670)" d="M436.316 154.106 L436.316 138.412 L440.576 138.412 L440.576 153.944 Q440.576 157.625 442.011 159.476 Q443.446 161.305 446.316 161.305 Q449.765 161.305 451.756 159.106 Q453.77 156.907 453.77 153.111 L453.77 138.412 L458.029 138.412 L458.029 164.338 L453.77 164.338 L453.77 160.356 Q452.219 162.717 450.159 163.875 Q448.122 165.009 445.413 165.009 Q440.946 165.009 438.631 162.231 Q436.316 159.453 436.316 154.106 M447.034 137.787 L447.034 137.787 Z" fill="#000000" fill-rule="nonzero" fill-opacity="1" /><path clip-path="url(#clip670)" d="M485.46 139.407 L485.46 143.389 Q483.654 142.393 481.825 141.907 Q480.02 141.398 478.168 141.398 Q474.024 141.398 471.733 144.037 Q469.441 146.652 469.441 151.398 Q469.441 156.143 471.733 158.782 Q474.024 161.398 478.168 161.398 Q480.02 161.398 481.825 160.912 Q483.654 160.402 485.46 159.407 L485.46 163.342 Q483.677 164.176 481.756 164.592 Q479.858 165.009 477.705 165.009 Q471.849 165.009 468.399 161.328 Q464.95 157.648 464.95 151.398 Q464.95 145.055 468.423 141.421 Q471.918 137.787 477.983 137.787 Q479.95 137.787 481.825 138.203 Q483.7 138.597 485.46 139.407 Z" fill="#000000" fill-rule="nonzero" fill-opacity="1" /><path clip-path="url(#clip670)" d="M497.08 131.051 L497.08 138.412 L505.853 138.412 L505.853 141.722 L497.08 141.722 L497.08 155.796 Q497.08 158.967 497.936 159.87 Q498.816 160.773 501.478 160.773 L505.853 160.773 L505.853 164.338 L501.478 164.338 Q496.547 164.338 494.672 162.509 Q492.797 160.657 492.797 155.796 L492.797 141.722 L489.673 141.722 L489.673 138.412 L492.797 138.412 L492.797 131.051 L497.08 131.051 Z" fill="#000000" fill-rule="nonzero" fill-opacity="1" /><path clip-path="url(#clip670)" d="M511.455 138.412 L515.714 138.412 L515.714 164.338 L511.455 164.338 L511.455 138.412 M511.455 128.319 L515.714 128.319 L515.714 133.713 L511.455 133.713 L511.455 128.319 Z" fill="#000000" fill-rule="nonzero" fill-opacity="1" /><path clip-path="url(#clip670)" d="M534.672 141.398 Q531.246 141.398 529.256 144.083 Q527.265 146.745 527.265 151.398 Q527.265 156.051 529.232 158.736 Q531.223 161.398 534.672 161.398 Q538.075 161.398 540.066 158.713 Q542.056 156.027 542.056 151.398 Q542.056 146.791 540.066 144.106 Q538.075 141.398 534.672 141.398 M534.672 137.787 Q540.228 137.787 543.399 141.398 Q546.57 145.009 546.57 151.398 Q546.57 157.764 543.399 161.398 Q540.228 165.009 534.672 165.009 Q529.094 165.009 525.922 161.398 Q522.774 157.764 522.774 151.398 Q522.774 145.009 525.922 141.398 Q529.094 137.787 534.672 137.787 Z" fill="#000000" fill-rule="nonzero" fill-opacity="1" /><path clip-path="url(#clip670)" d="M575.181 148.689 L575.181 164.338 L570.922 164.338 L570.922 148.828 Q570.922 145.148 569.487 143.319 Q568.052 141.49 565.181 141.49 Q561.732 141.49 559.742 143.69 Q557.751 145.889 557.751 149.685 L557.751 164.338 L553.468 164.338 L553.468 138.412 L557.751 138.412 L557.751 142.44 Q559.279 140.102 561.339 138.944 Q563.422 137.787 566.13 137.787 Q570.598 137.787 572.89 140.565 Q575.181 143.319 575.181 148.689 Z" fill="#000000" fill-rule="nonzero" fill-opacity="1" /><polyline clip-path="url(#clip670)" style="stroke:#e26f46; stroke-linecap:round; stroke-linejoin:round; stroke-width:4; stroke-opacity:1; fill:none" points="245.136,198.898 392.18,198.898 "/>
<path clip-path="url(#clip670)" d="M435.113 191.016 L435.113 195.043 Q433.307 194.117 431.363 193.655 Q429.418 193.192 427.335 193.192 Q424.164 193.192 422.566 194.164 Q420.992 195.136 420.992 197.08 Q420.992 198.562 422.127 199.418 Q423.261 200.252 426.687 201.016 L428.145 201.34 Q432.682 202.312 434.58 204.094 Q436.501 205.854 436.501 209.025 Q436.501 212.636 433.631 214.742 Q430.784 216.849 425.784 216.849 Q423.701 216.849 421.432 216.432 Q419.187 216.039 416.687 215.228 L416.687 210.83 Q419.048 212.057 421.34 212.682 Q423.631 213.284 425.877 213.284 Q428.886 213.284 430.506 212.266 Q432.127 211.224 432.127 209.349 Q432.127 207.613 430.946 206.687 Q429.789 205.761 425.83 204.904 L424.349 204.557 Q420.39 203.724 418.631 202.011 Q416.872 200.275 416.872 197.266 Q416.872 193.608 419.465 191.618 Q422.057 189.627 426.826 189.627 Q429.187 189.627 431.27 189.974 Q433.353 190.321 435.113 191.016 Z" fill="#000000" fill-rule="nonzero" fill-opacity="1" /><path clip-path="url(#clip670)" d="M443.284 180.159 L447.543 180.159 L447.543 216.178 L443.284 216.178 L443.284 180.159 Z" fill="#000000" fill-rule="nonzero" fill-opacity="1" /><path clip-path="url(#clip670)" d="M466.501 193.238 Q463.075 193.238 461.085 195.923 Q459.094 198.585 459.094 203.238 Q459.094 207.891 461.062 210.576 Q463.052 213.238 466.501 213.238 Q469.904 213.238 471.895 210.553 Q473.886 207.867 473.886 203.238 Q473.886 198.631 471.895 195.946 Q469.904 193.238 466.501 193.238 M466.501 189.627 Q472.057 189.627 475.228 193.238 Q478.399 196.849 478.399 203.238 Q478.399 209.604 475.228 213.238 Q472.057 216.849 466.501 216.849 Q460.923 216.849 457.751 213.238 Q454.603 209.604 454.603 203.238 Q454.603 196.849 457.751 193.238 Q460.923 189.627 466.501 189.627 Z" fill="#000000" fill-rule="nonzero" fill-opacity="1" /><path clip-path="url(#clip670)" d="M489.58 212.289 L489.58 226.039 L485.298 226.039 L485.298 190.252 L489.58 190.252 L489.58 194.187 Q490.923 191.872 492.96 190.761 Q495.02 189.627 497.867 189.627 Q502.589 189.627 505.529 193.377 Q508.492 197.127 508.492 203.238 Q508.492 209.349 505.529 213.099 Q502.589 216.849 497.867 216.849 Q495.02 216.849 492.96 215.738 Q490.923 214.603 489.58 212.289 M504.071 203.238 Q504.071 198.539 502.126 195.877 Q500.205 193.192 496.825 193.192 Q493.446 193.192 491.501 195.877 Q489.58 198.539 489.58 203.238 Q489.58 207.937 491.501 210.622 Q493.446 213.284 496.825 213.284 Q500.205 213.284 502.126 210.622 Q504.071 207.937 504.071 203.238 Z" fill="#000000" fill-rule="nonzero" fill-opacity="1" /><path clip-path="url(#clip670)" d="M537.728 202.15 L537.728 204.233 L518.145 204.233 Q518.422 208.631 520.783 210.946 Q523.168 213.238 527.404 213.238 Q529.857 213.238 532.149 212.636 Q534.464 212.034 536.732 210.83 L536.732 214.858 Q534.441 215.83 532.033 216.34 Q529.626 216.849 527.149 216.849 Q520.945 216.849 517.311 213.238 Q513.7 209.627 513.7 203.469 Q513.7 197.104 517.126 193.377 Q520.575 189.627 526.408 189.627 Q531.64 189.627 534.672 193.006 Q537.728 196.363 537.728 202.15 M533.469 200.9 Q533.422 197.405 531.501 195.321 Q529.603 193.238 526.455 193.238 Q522.89 193.238 520.737 195.252 Q518.608 197.266 518.283 200.923 L533.469 200.9 Z" fill="#000000" fill-rule="nonzero" fill-opacity="1" /></svg>