<?xml version="1.0" encoding="utf-8"?>
<svg xmlns="http://www.w3.org/2000/svg" xmlns:xlink="http://www.w3.org/1999/xlink" width="600" height="400" viewBox="0 0 2400 1600">
<defs>
  <clipPath id="clip550">
    <rect x="0" y="0" width="2400" height="1600"/>
  </clipPath>
</defs>
<path clip-path="url(#clip550)" d="M0 1600 L2400 1600 L2400 0 L0 0  Z" fill="#ffffff" fill-rule="evenodd" fill-opacity="1"/>
<defs>
  <clipPath id="clip551">
    <rect x="480" y="0" width="1681" height="1600"/>
  </clipPath>
</defs>
<path clip-path="url(#clip550)" d="M203.964 1423.18 L2352.76 1423.18 L2352.76 47.2441 L203.964 47.2441  Z" fill="#ffffff" fill-rule="evenodd" fill-opacity="1"/>
<defs>
  <clipPath id="clip552">
    <rect x="203" y="47" width="2150" height="1377"/>
  </clipPath>
</defs>
<polyline clip-path="url(#clip552)" style="stroke:#000000; stroke-linecap:round; stroke-linejoin:round; stroke-width:2; stroke-opacity:0.1; fill:none" points="246.516,1423.18 246.516,47.2441 "/>
<polyline clip-path="url(#clip552)" style="stroke:#000000; stroke-linecap:round; stroke-linejoin:round; stroke-width:2; stroke-opacity:0.1; fill:none" points="703.084,1423.18 703.084,47.2441 "/>
<polyline clip-path="url(#clip552)" style="stroke:#000000; stroke-linecap:round; stroke-linejoin:round; stroke-width:2; stroke-opacity:0.1; fill:none" points="1159.65,1423.18 1159.65,47.2441 "/>
<polyline clip-path="url(#clip552)" style="stroke:#000000; stroke-linecap:round; stroke-linejoin:round; stroke-width:2; stroke-opacity:0.1; fill:none" points="1616.22,1423.18 1616.22,47.2441 "/>
<polyline clip-path="url(#clip552)" style="stroke:#000000; stroke-linecap:round; stroke-linejoin:round; stroke-width:2; stroke-opacity:0.1; fill:none" points="2072.79,1423.18 2072.79,47.2441 "/>
<polyline clip-path="url(#clip550)" style="stroke:#000000; stroke-linecap:round; stroke-linejoin:round; stroke-width:4; stroke-opacity:1; fill:none" points="203.964,1423.18 2352.76,1423.18 "/>
<polyline clip-path="url(#clip550)" style="stroke:#000000; stroke-linecap:round; stroke-linejoin:round; stroke-width:4; stroke-opacity:1; fill:none" points="246.516,1423.18 246.516,1404.28 "/>
<polyline clip-path="url(#clip550)" style="stroke:#000000; stroke-linecap:round; stroke-linejoin:round; stroke-width:4; stroke-opacity:1; fill:none" points="703.084,1423.18 703.084,1404.28 "/>
<polyline clip-path="url(#clip550)" style="stroke:#000000; stroke-linecap:round; stroke-linejoin:round; stroke-width:4; stroke-opacity:1; fill:none" points="1159.65,1423.18 1159.65,1404.28 "/>
<polyline clip-path="url(#clip550)" style="stroke:#000000; stroke-linecap:round; stroke-linejoin:round; stroke-width:4; stroke-opacity:1; fill:none" points="1616.22,1423.18 1616.22,1404.28 "/>
<polyline clip-path="url(#clip550)" style="stroke:#000000; stroke-linecap:round; stroke-linejoin:round; stroke-width:4; stroke-opacity:1; fill:none" points="2072.79,1423.18 2072.79,1404.28 "/>
<path clip-path="url(#clip550)" d="M246.516 1454.1 Q242.905 1454.1 241.076 1457.66 Q239.27 1461.2 239.27 1468.33 Q239.27 1475.44 241.076 1479.01 Q242.905 1482.55 246.516 1482.55 Q250.15 1482.55 251.956 1479.01 Q253.784 1475.44 253.784 1468.33 Q253.784 1461.2 251.956 1457.66 Q250.15 1454.1 246.516 1454.1 M246.516 1450.39 Q252.326 1450.39 255.381 1455 Q258.46 1459.58 258.46 1468.33 Q258.46 1477.06 255.381 1481.67 Q252.326 1486.25 246.516 1486.25 Q240.706 1486.25 237.627 1481.67 Q234.571 1477.06 234.571 1468.33 Q234.571 1459.58 237.627 1455 Q240.706 1450.39 246.516 1450.39 Z" fill="#000000" fill-rule="nonzero" fill-opacity="1" /><path clip-path="url(#clip550)" d="M682.355 1481.64 L698.674 1481.64 L698.674 1485.58 L676.73 1485.58 L676.73 1481.64 Q679.392 1478.89 683.975 1474.26 Q688.582 1469.61 689.762 1468.27 Q692.008 1465.74 692.887 1464.01 Q693.79 1462.25 693.79 1460.56 Q693.79 1457.8 691.846 1456.07 Q689.924 1454.33 686.822 1454.33 Q684.623 1454.33 682.17 1455.09 Q679.739 1455.86 676.961 1457.41 L676.961 1452.69 Q679.785 1451.55 682.239 1450.97 Q684.693 1450.39 686.73 1450.39 Q692.1 1450.39 695.295 1453.08 Q698.489 1455.77 698.489 1460.26 Q698.489 1462.39 697.679 1464.31 Q696.892 1466.2 694.785 1468.8 Q694.207 1469.47 691.105 1472.69 Q688.003 1475.88 682.355 1481.64 Z" fill="#000000" fill-rule="nonzero" fill-opacity="1" /><path clip-path="url(#clip550)" d="M708.535 1451.02 L726.892 1451.02 L726.892 1454.96 L712.818 1454.96 L712.818 1463.43 Q713.836 1463.08 714.855 1462.92 Q715.873 1462.73 716.892 1462.73 Q722.679 1462.73 726.058 1465.9 Q729.438 1469.08 729.438 1474.49 Q729.438 1480.07 725.966 1483.17 Q722.493 1486.25 716.174 1486.25 Q713.998 1486.25 711.73 1485.88 Q709.484 1485.51 707.077 1484.77 L707.077 1480.07 Q709.16 1481.2 711.382 1481.76 Q713.605 1482.32 716.081 1482.32 Q720.086 1482.32 722.424 1480.21 Q724.762 1478.1 724.762 1474.49 Q724.762 1470.88 722.424 1468.77 Q720.086 1466.67 716.081 1466.67 Q714.206 1466.67 712.332 1467.08 Q710.48 1467.5 708.535 1468.38 L708.535 1451.02 Z" fill="#000000" fill-rule="nonzero" fill-opacity="1" /><path clip-path="url(#clip550)" d="M1134.35 1451.02 L1152.71 1451.02 L1152.71 1454.96 L1138.63 1454.96 L1138.63 1463.43 Q1139.65 1463.08 1140.67 1462.92 Q1141.69 1462.73 1142.71 1462.73 Q1148.49 1462.73 1151.87 1465.9 Q1155.25 1469.08 1155.25 1474.49 Q1155.25 1480.07 1151.78 1483.17 Q1148.31 1486.25 1141.99 1486.25 Q1139.81 1486.25 1137.55 1485.88 Q1135.3 1485.51 1132.89 1484.77 L1132.89 1480.07 Q1134.98 1481.2 1137.2 1481.76 Q1139.42 1482.32 1141.9 1482.32 Q1145.9 1482.32 1148.24 1480.21 Q1150.58 1478.1 1150.58 1474.49 Q1150.58 1470.88 1148.24 1468.77 Q1145.9 1466.67 1141.9 1466.67 Q1140.02 1466.67 1138.15 1467.08 Q1136.3 1467.5 1134.35 1468.38 L1134.35 1451.02 Z" fill="#000000" fill-rule="nonzero" fill-opacity="1" /><path clip-path="url(#clip550)" d="M1174.47 1454.1 Q1170.86 1454.1 1169.03 1457.66 Q1167.22 1461.2 1167.22 1468.33 Q1167.22 1475.44 1169.03 1479.01 Q1170.86 1482.55 1174.47 1482.55 Q1178.1 1482.55 1179.91 1479.01 Q1181.74 1475.44 1181.74 1468.33 Q1181.74 1461.2 1179.91 1457.66 Q1178.1 1454.1 1174.47 1454.1 M1174.47 1450.39 Q1180.28 1450.39 1183.33 1455 Q1186.41 1459.58 1186.41 1468.33 Q1186.41 1477.06 1183.33 1481.67 Q1180.28 1486.25 1174.47 1486.25 Q1168.66 1486.25 1165.58 1481.67 Q1162.52 1477.06 1162.52 1468.33 Q1162.52 1459.58 1165.58 1455 Q1168.66 1450.39 1174.47 1450.39 Z" fill="#000000" fill-rule="nonzero" fill-opacity="1" /><path clip-path="url(#clip550)" d="M1590.07 1451.02 L1612.3 1451.02 L1612.3 1453.01 L1599.75 1485.58 L1594.87 1485.58 L1606.67 1454.96 L1590.07 1454.96 L1590.07 1451.02 Z" fill="#000000" fill-rule="nonzero" fill-opacity="1" /><path clip-path="url(#clip550)" d="M1621.46 1451.02 L1639.82 1451.02 L1639.82 1454.96 L1625.75 1454.96 L1625.75 1463.43 Q1626.76 1463.08 1627.78 1462.92 Q1628.8 1462.73 1629.82 1462.73 Q1635.61 1462.73 1638.99 1465.9 Q1642.37 1469.08 1642.37 1474.49 Q1642.37 1480.07 1638.89 1483.17 Q1635.42 1486.25 1629.1 1486.25 Q1626.93 1486.25 1624.66 1485.88 Q1622.41 1485.51 1620 1484.77 L1620 1480.07 Q1622.09 1481.2 1624.31 1481.76 Q1626.53 1482.32 1629.01 1482.32 Q1633.01 1482.32 1635.35 1480.21 Q1637.69 1478.1 1637.69 1474.49 Q1637.69 1470.88 1635.35 1468.77 Q1633.01 1466.67 1629.01 1466.67 Q1627.13 1466.67 1625.26 1467.08 Q1623.41 1467.5 1621.46 1468.38 L1621.46 1451.02 Z" fill="#000000" fill-rule="nonzero" fill-opacity="1" /><path clip-path="url(#clip550)" d="M2032.4 1481.64 L2040.03 1481.64 L2040.03 1455.28 L2031.72 1456.95 L2031.72 1452.69 L2039.99 1451.02 L2044.66 1451.02 L2044.66 1481.64 L2052.3 1481.64 L2052.3 1485.58 L2032.4 1485.58 L2032.4 1481.64 Z" fill="#000000" fill-rule="nonzero" fill-opacity="1" /><path clip-path="url(#clip550)" d="M2071.75 1454.1 Q2068.14 1454.1 2066.31 1457.66 Q2064.5 1461.2 2064.5 1468.33 Q2064.5 1475.44 2066.31 1479.01 Q2068.14 1482.55 2071.75 1482.55 Q2075.38 1482.55 2077.19 1479.01 Q2079.02 1475.44 2079.02 1468.33 Q2079.02 1461.2 2077.19 1457.66 Q2075.38 1454.1 2071.75 1454.1 M2071.75 1450.39 Q2077.56 1450.39 2080.61 1455 Q2083.69 1459.58 2083.69 1468.33 Q2083.69 1477.06 2080.61 1481.67 Q2077.56 1486.25 2071.75 1486.25 Q2065.94 1486.25 2062.86 1481.67 Q2059.8 1477.06 2059.8 1468.33 Q2059.8 1459.58 2062.86 1455 Q2065.94 1450.39 2071.75 1450.39 Z" fill="#000000" fill-rule="nonzero" fill-opacity="1" /><path clip-path="url(#clip550)" d="M2101.91 1454.1 Q2098.3 1454.1 2096.47 1457.66 Q2094.66 1461.2 2094.66 1468.33 Q2094.66 1475.44 2096.47 1479.01 Q2098.3 1482.55 2101.91 1482.55 Q2105.54 1482.55 2107.35 1479.01 Q2109.18 1475.44 2109.18 1468.33 Q2109.18 1461.2 2107.35 1457.66 Q2105.54 1454.1 2101.91 1454.1 M2101.91 1450.39 Q2107.72 1450.39 2110.77 1455 Q2113.85 1459.58 2113.85 1468.33 Q2113.85 1477.06 2110.77 1481.67 Q2107.72 1486.25 2101.91 1486.25 Q2096.1 1486.25 2093.02 1481.67 Q2089.96 1477.06 2089.96 1468.33 Q2089.96 1459.58 2093.02 1455 Q2096.1 1450.39 2101.91 1450.39 Z" fill="#000000" fill-rule="nonzero" fill-opacity="1" /><path clip-path="url(#clip550)" d="M1279.09 1532.4 L1284.95 1532.4 L1284.95 1568.68 Q1284.95 1575.49 1282.34 1578.55 Q1279.76 1581.6 1274 1581.6 L1271.77 1581.6 L1271.77 1576.64 L1273.33 1576.64 Q1276.67 1576.64 1277.88 1575.08 Q1279.09 1573.55 1279.09 1568.68 L1279.09 1532.4 M1279.09 1518.52 L1284.95 1518.52 L1284.95 1525.93 L1279.09 1525.93 L1279.09 1518.52 Z" fill="#000000" fill-rule="nonzero" fill-opacity="1" /><polyline clip-path="url(#clip552)" style="stroke:#000000; stroke-linecap:round; stroke-linejoin:round; stroke-width:2; stroke-opacity:0.1; fill:none" points="203.964,1384.24 2352.76,1384.24 "/>
<polyline clip-path="url(#clip552)" style="stroke:#000000; stroke-linecap:round; stroke-linejoin:round; stroke-width:2; stroke-opacity:0.1; fill:none" points="203.964,971.055 2352.76,971.055 "/>
<polyline clip-path="url(#clip552)" style="stroke:#000000; stroke-linecap:round; stroke-linejoin:round; stroke-width:2; stroke-opacity:0.1; fill:none" points="203.964,557.872 2352.76,557.872 "/>
<polyline clip-path="url(#clip552)" style="stroke:#000000; stroke-linecap:round; stroke-linejoin:round; stroke-width:2; stroke-opacity:0.1; fill:none" points="203.964,144.689 2352.76,144.689 "/>
<polyline clip-path="url(#clip550)" style="stroke:#000000; stroke-linecap:round; stroke-linejoin:round; stroke-width:4; stroke-opacity:1; fill:none" points="203.964,1423.18 203.964,47.2441 "/>
<polyline clip-path="url(#clip550)" style="stroke:#000000; stroke-linecap:round; stroke-linejoin:round; stroke-width:4; stroke-opacity:1; fill:none" points="203.964,1384.24 222.861,1384.24 "/>
<polyline clip-path="url(#clip550)" style="stroke:#000000; stroke-linecap:round; stroke-linejoin:round; stroke-width:4; stroke-opacity:1; fill:none" points="203.964,971.055 222.861,971.055 "/>
<polyline clip-path="url(#clip550)" style="stroke:#000000; stroke-linecap:round; stroke-linejoin:round; stroke-width:4; stroke-opacity:1; fill:none" points="203.964,557.872 222.861,557.872 "/>
<polyline clip-path="url(#clip550)" style="stroke:#000000; stroke-linecap:round; stroke-linejoin:round; stroke-width:4; stroke-opacity:1; fill:none" points="203.964,144.689 222.861,144.689 "/>
<path clip-path="url(#clip550)" d="M156.019 1370.04 Q152.408 1370.04 150.579 1373.6 Q148.774 1377.14 148.774 1384.27 Q148.774 1391.38 150.579 1394.94 Q152.408 1398.49 156.019 1398.49 Q159.653 1398.49 161.459 1394.94 Q163.288 1391.38 163.288 1384.27 Q163.288 1377.14 161.459 1373.6 Q159.653 1370.04 156.019 1370.04 M156.019 1366.33 Q161.829 1366.33 164.885 1370.94 Q167.964 1375.52 167.964 1384.27 Q167.964 1393 164.885 1397.61 Q161.829 1402.19 156.019 1402.19 Q150.209 1402.19 147.13 1397.61 Q144.075 1393 144.075 1384.27 Q144.075 1375.52 147.13 1370.94 Q150.209 1366.33 156.019 1366.33 Z" fill="#000000" fill-rule="nonzero" fill-opacity="1" /><path clip-path="url(#clip550)" d="M116.668 984.4 L124.306 984.4 L124.306 958.035 L115.996 959.701 L115.996 955.442 L124.26 953.775 L128.936 953.775 L128.936 984.4 L136.575 984.4 L136.575 988.335 L116.668 988.335 L116.668 984.4 Z" fill="#000000" fill-rule="nonzero" fill-opacity="1" /><path clip-path="url(#clip550)" d="M156.019 956.854 Q152.408 956.854 150.579 960.419 Q148.774 963.96 148.774 971.09 Q148.774 978.196 150.579 981.761 Q152.408 985.303 156.019 985.303 Q159.653 985.303 161.459 981.761 Q163.288 978.196 163.288 971.09 Q163.288 963.96 161.459 960.419 Q159.653 956.854 156.019 956.854 M156.019 953.15 Q161.829 953.15 164.885 957.757 Q167.964 962.34 167.964 971.09 Q167.964 979.817 164.885 984.423 Q161.829 989.007 156.019 989.007 Q150.209 989.007 147.13 984.423 Q144.075 979.817 144.075 971.09 Q144.075 962.34 147.13 957.757 Q150.209 953.15 156.019 953.15 Z" fill="#000000" fill-rule="nonzero" fill-opacity="1" /><path clip-path="url(#clip550)" d="M119.885 571.217 L136.204 571.217 L136.204 575.152 L114.26 575.152 L114.26 571.217 Q116.922 568.463 121.505 563.833 Q126.112 559.18 127.292 557.838 Q129.538 555.314 130.417 553.578 Q131.32 551.819 131.32 550.129 Q131.32 547.375 129.376 545.639 Q127.455 543.902 124.353 543.902 Q122.154 543.902 119.7 544.666 Q117.269 545.43 114.492 546.981 L114.492 542.259 Q117.316 541.125 119.769 540.546 Q122.223 539.967 124.26 539.967 Q129.63 539.967 132.825 542.652 Q136.019 545.338 136.019 549.828 Q136.019 551.958 135.209 553.879 Q134.422 555.777 132.316 558.37 Q131.737 559.041 128.635 562.259 Q125.533 565.453 119.885 571.217 Z" fill="#000000" fill-rule="nonzero" fill-opacity="1" /><path clip-path="url(#clip550)" d="M156.019 543.671 Q152.408 543.671 150.579 547.236 Q148.774 550.777 148.774 557.907 Q148.774 565.013 150.579 568.578 Q152.408 572.12 156.019 572.12 Q159.653 572.12 161.459 568.578 Q163.288 565.013 163.288 557.907 Q163.288 550.777 161.459 547.236 Q159.653 543.671 156.019 543.671 M156.019 539.967 Q161.829 539.967 164.885 544.574 Q167.964 549.157 167.964 557.907 Q167.964 566.634 164.885 571.24 Q161.829 575.824 156.019 575.824 Q150.209 575.824 147.13 571.24 Q144.075 566.634 144.075 557.907 Q144.075 549.157 147.13 544.574 Q150.209 539.967 156.019 539.967 Z" fill="#000000" fill-rule="nonzero" fill-opacity="1" /><path clip-path="url(#clip550)" d="M130.024 143.335 Q133.38 144.053 135.255 146.321 Q137.154 148.59 137.154 151.923 Q137.154 157.039 133.635 159.84 Q130.117 162.641 123.635 162.641 Q121.459 162.641 119.144 162.201 Q116.853 161.784 114.399 160.928 L114.399 156.414 Q116.343 157.548 118.658 158.127 Q120.973 158.705 123.496 158.705 Q127.894 158.705 130.186 156.969 Q132.501 155.233 132.501 151.923 Q132.501 148.868 130.348 147.155 Q128.218 145.419 124.399 145.419 L120.371 145.419 L120.371 141.576 L124.584 141.576 Q128.033 141.576 129.862 140.21 Q131.691 138.821 131.691 136.229 Q131.691 133.567 129.792 132.155 Q127.917 130.72 124.399 130.72 Q122.478 130.72 120.279 131.136 Q118.08 131.553 115.441 132.432 L115.441 128.266 Q118.103 127.525 120.418 127.155 Q122.755 126.784 124.816 126.784 Q130.14 126.784 133.242 129.215 Q136.343 131.622 136.343 135.743 Q136.343 138.613 134.7 140.604 Q133.056 142.571 130.024 143.335 Z" fill="#000000" fill-rule="nonzero" fill-opacity="1" /><path clip-path="url(#clip550)" d="M156.019 130.488 Q152.408 130.488 150.579 134.053 Q148.774 137.594 148.774 144.724 Q148.774 151.831 150.579 155.395 Q152.408 158.937 156.019 158.937 Q159.653 158.937 161.459 155.395 Q163.288 151.831 163.288 144.724 Q163.288 137.594 161.459 134.053 Q159.653 130.488 156.019 130.488 M156.019 126.784 Q161.829 126.784 164.885 131.391 Q167.964 135.974 167.964 144.724 Q167.964 153.451 164.885 158.057 Q161.829 162.641 156.019 162.641 Q150.209 162.641 147.13 158.057 Q144.075 153.451 144.075 144.724 Q144.075 135.974 147.13 131.391 Q150.209 126.784 156.019 126.784 Z" fill="#000000" fill-rule="nonzero" fill-opacity="1" /><path clip-path="url(#clip550)" d="M18.2347 740.718 L28.3562 740.718 L28.3562 728.655 L32.9077 728.655 L32.9077 740.718 L52.2594 740.718 Q56.6199 740.718 57.8613 739.541 Q59.1026 738.331 59.1026 734.671 L59.1026 728.655 L64.0042 728.655 L64.0042 734.671 Q64.0042 741.45 61.4897 744.028 Q58.9434 746.607 52.2594 746.607 L32.9077 746.607 L32.9077 750.903 L28.3562 750.903 L28.3562 746.607 L18.2347 746.607 L18.2347 740.718 Z" fill="#000000" fill-rule="nonzero" fill-opacity="1" /><path clip-path="url(#clip550)" d="M44.0477 723.213 L44.0477 719.521 L64.3543 719.521 Q68.1737 719.521 69.8924 721.176 Q71.6112 722.799 71.6112 726.427 L71.6112 727.828 L68.8103 727.828 L68.8103 726.841 Q68.8103 724.74 67.9509 723.976 Q67.0915 723.213 64.3543 723.213 L44.0477 723.213 M36.2815 723.213 L36.2815 719.521 L40.4192 719.521 L40.4192 723.213 L36.2815 723.213 Z" fill="#000000" fill-rule="nonzero" fill-opacity="1" /><circle clip-path="url(#clip552)" cx="264.778" cy="1384.24" r="14.4" fill="#009af9" fill-rule="evenodd" fill-opacity="1" stroke="#000000" stroke-opacity="1" stroke-width="3.2"/>
<circle clip-path="url(#clip552)" cx="283.041" cy="1384.2" r="14.4" fill="#009af9" fill-rule="evenodd" fill-opacity="1" stroke="#000000" stroke-opacity="1" stroke-width="3.2"/>
<circle clip-path="url(#clip552)" cx="301.304" cy="1383.78" r="14.4" fill="#009af9" fill-rule="evenodd" fill-opacity="1" stroke="#000000" stroke-opacity="1" stroke-width="3.2"/>
<circle clip-path="url(#clip552)" cx="319.567" cy="1381.69" r="14.4" fill="#009af9" fill-rule="evenodd" fill-opacity="1" stroke="#000000" stroke-opacity="1" stroke-width="3.2"/>
<circle clip-path="url(#clip552)" cx="337.829" cy="1378.35" r="14.4" fill="#009af9" fill-rule="evenodd" fill-opacity="1" stroke="#000000" stroke-opacity="1" stroke-width="3.2"/>
<circle clip-path="url(#clip552)" cx="356.092" cy="1374.29" r="14.4" fill="#009af9" fill-rule="evenodd" fill-opacity="1" stroke="#000000" stroke-opacity="1" stroke-width="3.2"/>
<circle clip-path="url(#clip552)" cx="374.355" cy="1369.09" r="14.4" fill="#009af9" fill-rule="evenodd" fill-opacity="1" stroke="#000000" stroke-opacity="1" stroke-width="3.2"/>
<circle clip-path="url(#clip552)" cx="392.618" cy="1363.03" r="14.4" fill="#009af9" fill-rule="evenodd" fill-opacity="1" stroke="#000000" stroke-opacity="1" stroke-width="3.2"/>
<circle clip-path="url(#clip552)" cx="410.88" cy="1356.02" r="14.4" fill="#009af9" fill-rule="evenodd" fill-opacity="1" stroke="#000000" stroke-opacity="1" stroke-width="3.2"/>
<circle clip-path="url(#clip552)" cx="429.143" cy="1348.18" r="14.4" fill="#009af9" fill-rule="evenodd" fill-opacity="1" stroke="#000000" stroke-opacity="1" stroke-width="3.2"/>
<circle clip-path="url(#clip552)" cx="447.406" cy="1339.47" r="14.4" fill="#009af9" fill-rule="evenodd" fill-opacity="1" stroke="#000000" stroke-opacity="1" stroke-width="3.2"/>
<circle clip-path="url(#clip552)" cx="465.668" cy="1329.77" r="14.4" fill="#009af9" fill-rule="evenodd" fill-opacity="1" stroke="#000000" stroke-opacity="1" stroke-width="3.2"/>
<circle clip-path="url(#clip552)" cx="483.931" cy="1319.25" r="14.4" fill="#009af9" fill-rule="evenodd" fill-opacity="1" stroke="#000000" stroke-opacity="1" stroke-width="3.2"/>
<circle clip-path="url(#clip552)" cx="502.194" cy="1309.03" r="14.4" fill="#009af9" fill-rule="evenodd" fill-opacity="1" stroke="#000000" stroke-opacity="1" stroke-width="3.2"/>
<circle clip-path="url(#clip552)" cx="520.457" cy="1298.71" r="14.4" fill="#009af9" fill-rule="evenodd" fill-opacity="1" stroke="#000000" stroke-opacity="1" stroke-width="3.2"/>
<circle clip-path="url(#clip552)" cx="538.719" cy="1288.22" r="14.4" fill="#009af9" fill-rule="evenodd" fill-opacity="1" stroke="#000000" stroke-opacity="1" stroke-width="3.2"/>
<circle clip-path="url(#clip552)" cx="556.982" cy="1277.16" r="14.4" fill="#009af9" fill-rule="evenodd" fill-opacity="1" stroke="#000000" stroke-opacity="1" stroke-width="3.2"/>
<circle clip-path="url(#clip552)" cx="575.245" cy="1264.97" r="14.4" fill="#009af9" fill-rule="evenodd" fill-opacity="1" stroke="#000000" stroke-opacity="1" stroke-width="3.2"/>
<circle clip-path="url(#clip552)" cx="593.508" cy="1253.02" r="14.4" fill="#009af9" fill-rule="evenodd" fill-opacity="1" stroke="#000000" stroke-opacity="1" stroke-width="3.2"/>
<circle clip-path="url(#clip552)" cx="611.77" cy="1241.15" r="14.4" fill="#009af9" fill-rule="evenodd" fill-opacity="1" stroke="#000000" stroke-opacity="1" stroke-width="3.2"/>
<circle clip-path="url(#clip552)" cx="630.033" cy="1229.21" r="14.4" fill="#009af9" fill-rule="evenodd" fill-opacity="1" stroke="#000000" stroke-opacity="1" stroke-width="3.2"/>
<circle clip-path="url(#clip552)" cx="648.296" cy="1216.88" r="14.4" fill="#009af9" fill-rule="evenodd" fill-opacity="1" stroke="#000000" stroke-opacity="1" stroke-width="3.2"/>
<circle clip-path="url(#clip552)" cx="666.558" cy="1204.76" r="14.4" fill="#009af9" fill-rule="evenodd" fill-opacity="1" stroke="#000000" stroke-opacity="1" stroke-width="3.2"/>
<circle clip-path="url(#clip552)" cx="684.821" cy="1192.61" r="14.4" fill="#009af9" fill-rule="evenodd" fill-opacity="1" stroke="#000000" stroke-opacity="1" stroke-width="3.2"/>
<circle clip-path="url(#clip552)" cx="703.084" cy="1180.18" r="14.4" fill="#009af9" fill-rule="evenodd" fill-opacity="1" stroke="#000000" stroke-opacity="1" stroke-width="3.2"/>
<circle clip-path="url(#clip552)" cx="721.347" cy="1167" r="14.4" fill="#009af9" fill-rule="evenodd" fill-opacity="1" stroke="#000000" stroke-opacity="1" stroke-width="3.2"/>
<circle clip-path="url(#clip552)" cx="739.609" cy="1154.6" r="14.4" fill="#009af9" fill-rule="evenodd" fill-opacity="1" stroke="#000000" stroke-opacity="1" stroke-width="3.2"/>
<circle clip-path="url(#clip552)" cx="757.872" cy="1142.76" r="14.4" fill="#009af9" fill-rule="evenodd" fill-opacity="1" stroke="#000000" stroke-opacity="1" stroke-width="3.2"/>
<circle clip-path="url(#clip552)" cx="776.135" cy="1130.97" r="14.4" fill="#009af9" fill-rule="evenodd" fill-opacity="1" stroke="#000000" stroke-opacity="1" stroke-width="3.2"/>
<circle clip-path="url(#clip552)" cx="794.398" cy="1118.53" r="14.4" fill="#009af9" fill-rule="evenodd" fill-opacity="1" stroke="#000000" stroke-opacity="1" stroke-width="3.2"/>
<circle clip-path="url(#clip552)" cx="812.66" cy="1105.29" r="14.4" fill="#009af9" fill-rule="evenodd" fill-opacity="1" stroke="#000000" stroke-opacity="1" stroke-width="3.2"/>
<circle clip-path="url(#clip552)" cx="830.923" cy="1092.88" r="14.4" fill="#009af9" fill-rule="evenodd" fill-opacity="1" stroke="#000000" stroke-opacity="1" stroke-width="3.2"/>
<circle clip-path="url(#clip552)" cx="849.186" cy="1080.42" r="14.4" fill="#009af9" fill-rule="evenodd" fill-opacity="1" stroke="#000000" stroke-opacity="1" stroke-width="3.2"/>
<circle clip-path="url(#clip552)" cx="867.448" cy="1067.92" r="14.4" fill="#009af9" fill-rule="evenodd" fill-opacity="1" stroke="#000000" stroke-opacity="1" stroke-width="3.2"/>
<circle clip-path="url(#clip552)" cx="885.711" cy="1055.2" r="14.4" fill="#009af9" fill-rule="evenodd" fill-opacity="1" stroke="#000000" stroke-opacity="1" stroke-width="3.2"/>
<circle clip-path="url(#clip552)" cx="903.974" cy="1042.91" r="14.4" fill="#009af9" fill-rule="evenodd" fill-opacity="1" stroke="#000000" stroke-opacity="1" stroke-width="3.2"/>
<circle clip-path="url(#clip552)" cx="922.237" cy="1030.34" r="14.4" fill="#009af9" fill-rule="evenodd" fill-opacity="1" stroke="#000000" stroke-opacity="1" stroke-width="3.2"/>
<circle clip-path="url(#clip552)" cx="940.499" cy="1017.23" r="14.4" fill="#009af9" fill-rule="evenodd" fill-opacity="1" stroke="#000000" stroke-opacity="1" stroke-width="3.2"/>
<circle clip-path="url(#clip552)" cx="958.762" cy="1004.25" r="14.4" fill="#009af9" fill-rule="evenodd" fill-opacity="1" stroke="#000000" stroke-opacity="1" stroke-width="3.2"/>
<circle clip-path="url(#clip552)" cx="977.025" cy="992.358" r="14.4" fill="#009af9" fill-rule="evenodd" fill-opacity="1" stroke="#000000" stroke-opacity="1" stroke-width="3.2"/>
<circle clip-path="url(#clip552)" cx="995.287" cy="980.404" r="14.4" fill="#009af9" fill-rule="evenodd" fill-opacity="1" stroke="#000000" stroke-opacity="1" stroke-width="3.2"/>
<circle clip-path="url(#clip552)" cx="1013.55" cy="968.182" r="14.4" fill="#009af9" fill-rule="evenodd" fill-opacity="1" stroke="#000000" stroke-opacity="1" stroke-width="3.2"/>
<circle clip-path="url(#clip552)" cx="1031.81" cy="954.792" r="14.4" fill="#009af9" fill-rule="evenodd" fill-opacity="1" stroke="#000000" stroke-opacity="1" stroke-width="3.2"/>
<circle clip-path="url(#clip552)" cx="1050.08" cy="942.229" r="14.4" fill="#009af9" fill-rule="evenodd" fill-opacity="1" stroke="#000000" stroke-opacity="1" stroke-width="3.2"/>
<circle clip-path="url(#clip552)" cx="1068.34" cy="929.732" r="14.4" fill="#009af9" fill-rule="evenodd" fill-opacity="1" stroke="#000000" stroke-opacity="1" stroke-width="3.2"/>
<circle clip-path="url(#clip552)" cx="1086.6" cy="917.243" r="14.4" fill="#009af9" fill-rule="evenodd" fill-opacity="1" stroke="#000000" stroke-opacity="1" stroke-width="3.2"/>
<circle clip-path="url(#clip552)" cx="1104.86" cy="904.163" r="14.4" fill="#009af9" fill-rule="evenodd" fill-opacity="1" stroke="#000000" stroke-opacity="1" stroke-width="3.2"/>
<circle clip-path="url(#clip552)" cx="1123.13" cy="891.922" r="14.4" fill="#009af9" fill-rule="evenodd" fill-opacity="1" stroke="#000000" stroke-opacity="1" stroke-width="3.2"/>
<circle clip-path="url(#clip552)" cx="1141.39" cy="879.298" r="14.4" fill="#009af9" fill-rule="evenodd" fill-opacity="1" stroke="#000000" stroke-opacity="1" stroke-width="3.2"/>
<circle clip-path="url(#clip552)" cx="1159.65" cy="866.32" r="14.4" fill="#009af9" fill-rule="evenodd" fill-opacity="1" stroke="#000000" stroke-opacity="1" stroke-width="3.2"/>
<circle clip-path="url(#clip552)" cx="1177.91" cy="853.034" r="14.4" fill="#009af9" fill-rule="evenodd" fill-opacity="1" stroke="#000000" stroke-opacity="1" stroke-width="3.2"/>
<circle clip-path="url(#clip552)" cx="1196.18" cy="841.094" r="14.4" fill="#009af9" fill-rule="evenodd" fill-opacity="1" stroke="#000000" stroke-opacity="1" stroke-width="3.2"/>
<circle clip-path="url(#clip552)" cx="1214.44" cy="829.027" r="14.4" fill="#009af9" fill-rule="evenodd" fill-opacity="1" stroke="#000000" stroke-opacity="1" stroke-width="3.2"/>
<circle clip-path="url(#clip552)" cx="1232.7" cy="816.951" r="14.4" fill="#009af9" fill-rule="evenodd" fill-opacity="1" stroke="#000000" stroke-opacity="1" stroke-width="3.2"/>
<circle clip-path="url(#clip552)" cx="1250.97" cy="803.626" r="14.4" fill="#009af9" fill-rule="evenodd" fill-opacity="1" stroke="#000000" stroke-opacity="1" stroke-width="3.2"/>
<circle clip-path="url(#clip552)" cx="1269.23" cy="790.95" r="14.4" fill="#009af9" fill-rule="evenodd" fill-opacity="1" stroke="#000000" stroke-opacity="1" stroke-width="3.2"/>
<circle clip-path="url(#clip552)" cx="1287.49" cy="778.459" r="14.4" fill="#009af9" fill-rule="evenodd" fill-opacity="1" stroke="#000000" stroke-opacity="1" stroke-width="3.2"/>
<circle clip-path="url(#clip552)" cx="1305.75" cy="765.98" r="14.4" fill="#009af9" fill-rule="evenodd" fill-opacity="1" stroke="#000000" stroke-opacity="1" stroke-width="3.2"/>
<circle clip-path="url(#clip552)" cx="1324.02" cy="752.841" r="14.4" fill="#009af9" fill-rule="evenodd" fill-opacity="1" stroke="#000000" stroke-opacity="1" stroke-width="3.2"/>
<circle clip-path="url(#clip552)" cx="1342.28" cy="740.582" r="14.4" fill="#009af9" fill-rule="evenodd" fill-opacity="1" stroke="#000000" stroke-opacity="1" stroke-width="3.2"/>
<circle clip-path="url(#clip552)" cx="1360.54" cy="727.983" r="14.4" fill="#009af9" fill-rule="evenodd" fill-opacity="1" stroke="#000000" stroke-opacity="1" stroke-width="3.2"/>
<circle clip-path="url(#clip552)" cx="1378.8" cy="715.118" r="14.4" fill="#009af9" fill-rule="evenodd" fill-opacity="1" stroke="#000000" stroke-opacity="1" stroke-width="3.2"/>
<circle clip-path="url(#clip552)" cx="1397.07" cy="701.671" r="14.4" fill="#009af9" fill-rule="evenodd" fill-opacity="1" stroke="#000000" stroke-opacity="1" stroke-width="3.2"/>
<circle clip-path="url(#clip552)" cx="1415.33" cy="689.645" r="14.4" fill="#009af9" fill-rule="evenodd" fill-opacity="1" stroke="#000000" stroke-opacity="1" stroke-width="3.2"/>
<circle clip-path="url(#clip552)" cx="1433.59" cy="677.453" r="14.4" fill="#009af9" fill-rule="evenodd" fill-opacity="1" stroke="#000000" stroke-opacity="1" stroke-width="3.2"/>
<circle clip-path="url(#clip552)" cx="1451.86" cy="665.499" r="14.4" fill="#009af9" fill-rule="evenodd" fill-opacity="1" stroke="#000000" stroke-opacity="1" stroke-width="3.2"/>
<circle clip-path="url(#clip552)" cx="1470.12" cy="652.282" r="14.4" fill="#009af9" fill-rule="evenodd" fill-opacity="1" stroke="#000000" stroke-opacity="1" stroke-width="3.2"/>
<circle clip-path="url(#clip552)" cx="1488.38" cy="639.503" r="14.4" fill="#009af9" fill-rule="evenodd" fill-opacity="1" stroke="#000000" stroke-opacity="1" stroke-width="3.2"/>
<circle clip-path="url(#clip552)" cx="1506.64" cy="627.016" r="14.4" fill="#009af9" fill-rule="evenodd" fill-opacity="1" stroke="#000000" stroke-opacity="1" stroke-width="3.2"/>
<circle clip-path="url(#clip552)" cx="1524.91" cy="614.543" r="14.4" fill="#009af9" fill-rule="evenodd" fill-opacity="1" stroke="#000000" stroke-opacity="1" stroke-width="3.2"/>
<circle clip-path="url(#clip552)" cx="1543.17" cy="601.655" r="14.4" fill="#009af9" fill-rule="evenodd" fill-opacity="1" stroke="#000000" stroke-opacity="1" stroke-width="3.2"/>
<circle clip-path="url(#clip552)" cx="1561.43" cy="589.295" r="14.4" fill="#009af9" fill-rule="evenodd" fill-opacity="1" stroke="#000000" stroke-opacity="1" stroke-width="3.2"/>
<circle clip-path="url(#clip552)" cx="1579.69" cy="576.805" r="14.4" fill="#009af9" fill-rule="evenodd" fill-opacity="1" stroke="#000000" stroke-opacity="1" stroke-width="3.2"/>
<circle clip-path="url(#clip552)" cx="1597.96" cy="564.043" r="14.4" fill="#009af9" fill-rule="evenodd" fill-opacity="1" stroke="#000000" stroke-opacity="1" stroke-width="3.2"/>
<circle clip-path="url(#clip552)" cx="1616.22" cy="550.566" r="14.4" fill="#009af9" fill-rule="evenodd" fill-opacity="1" stroke="#000000" stroke-opacity="1" stroke-width="3.2"/>
<circle clip-path="url(#clip552)" cx="1634.48" cy="538.392" r="14.4" fill="#009af9" fill-rule="evenodd" fill-opacity="1" stroke="#000000" stroke-opacity="1" stroke-width="3.2"/>
<circle clip-path="url(#clip552)" cx="1652.75" cy="526.326" r="14.4" fill="#009af9" fill-rule="evenodd" fill-opacity="1" stroke="#000000" stroke-opacity="1" stroke-width="3.2"/>
<circle clip-path="url(#clip552)" cx="1671.01" cy="514.425" r="14.4" fill="#009af9" fill-rule="evenodd" fill-opacity="1" stroke="#000000" stroke-opacity="1" stroke-width="3.2"/>
<circle clip-path="url(#clip552)" cx="1689.27" cy="501.481" r="14.4" fill="#009af9" fill-rule="evenodd" fill-opacity="1" stroke="#000000" stroke-opacity="1" stroke-width="3.2"/>
<circle clip-path="url(#clip552)" cx="1707.53" cy="488.537" r="14.4" fill="#009af9" fill-rule="evenodd" fill-opacity="1" stroke="#000000" stroke-opacity="1" stroke-width="3.2"/>
<circle clip-path="url(#clip552)" cx="1725.8" cy="476.087" r="14.4" fill="#009af9" fill-rule="evenodd" fill-opacity="1" stroke="#000000" stroke-opacity="1" stroke-width="3.2"/>
<circle clip-path="url(#clip552)" cx="1744.06" cy="463.621" r="14.4" fill="#009af9" fill-rule="evenodd" fill-opacity="1" stroke="#000000" stroke-opacity="1" stroke-width="3.2"/>
<circle clip-path="url(#clip552)" cx="1762.32" cy="450.93" r="14.4" fill="#009af9" fill-rule="evenodd" fill-opacity="1" stroke="#000000" stroke-opacity="1" stroke-width="3.2"/>
<circle clip-path="url(#clip552)" cx="1780.58" cy="438.458" r="14.4" fill="#009af9" fill-rule="evenodd" fill-opacity="1" stroke="#000000" stroke-opacity="1" stroke-width="3.2"/>
<circle clip-path="url(#clip552)" cx="1798.85" cy="426.065" r="14.4" fill="#009af9" fill-rule="evenodd" fill-opacity="1" stroke="#000000" stroke-opacity="1" stroke-width="3.2"/>
<circle clip-path="url(#clip552)" cx="1817.11" cy="413.405" r="14.4" fill="#009af9" fill-rule="evenodd" fill-opacity="1" stroke="#000000" stroke-opacity="1" stroke-width="3.2"/>
<circle clip-path="url(#clip552)" cx="1835.37" cy="400.012" r="14.4" fill="#009af9" fill-rule="evenodd" fill-opacity="1" stroke="#000000" stroke-opacity="1" stroke-width="3.2"/>
<circle clip-path="url(#clip552)" cx="1853.64" cy="387.573" r="14.4" fill="#009af9" fill-rule="evenodd" fill-opacity="1" stroke="#000000" stroke-opacity="1" stroke-width="3.2"/>
<circle clip-path="url(#clip552)" cx="1871.9" cy="375.616" r="14.4" fill="#009af9" fill-rule="evenodd" fill-opacity="1" stroke="#000000" stroke-opacity="1" stroke-width="3.2"/>
<circle clip-path="url(#clip552)" cx="1890.16" cy="363.737" r="14.4" fill="#009af9" fill-rule="evenodd" fill-opacity="1" stroke="#000000" stroke-opacity="1" stroke-width="3.2"/>
<circle clip-path="url(#clip552)" cx="1908.42" cy="351.108" r="14.4" fill="#009af9" fill-rule="evenodd" fill-opacity="1" stroke="#000000" stroke-opacity="1" stroke-width="3.2"/>
<circle clip-path="url(#clip552)" cx="1926.69" cy="337.925" r="14.4" fill="#009af9" fill-rule="evenodd" fill-opacity="1" stroke="#000000" stroke-opacity="1" stroke-width="3.2"/>
<circle clip-path="url(#clip552)" cx="1944.95" cy="325.487" r="14.4" fill="#009af9" fill-rule="evenodd" fill-opacity="1" stroke="#000000" stroke-opacity="1" stroke-width="3.2"/>
<circle clip-path="url(#clip552)" cx="1963.21" cy="313.003" r="14.4" fill="#009af9" fill-rule="evenodd" fill-opacity="1" stroke="#000000" stroke-opacity="1" stroke-width="3.2"/>
<circle clip-path="url(#clip552)" cx="1981.47" cy="300.439" r="14.4" fill="#009af9" fill-rule="evenodd" fill-opacity="1" stroke="#000000" stroke-opacity="1" stroke-width="3.2"/>
<circle clip-path="url(#clip552)" cx="1999.74" cy="287.805" r="14.4" fill="#009af9" fill-rule="evenodd" fill-opacity="1" stroke="#000000" stroke-opacity="1" stroke-width="3.2"/>
<circle clip-path="url(#clip552)" cx="2018" cy="275.479" r="14.4" fill="#009af9" fill-rule="evenodd" fill-opacity="1" stroke="#000000" stroke-opacity="1" stroke-width="3.2"/>
<circle clip-path="url(#clip552)" cx="2036.26" cy="262.881" r="14.4" fill="#009af9" fill-rule="evenodd" fill-opacity="1" stroke="#000000" stroke-opacity="1" stroke-width="3.2"/>
<circle clip-path="url(#clip552)" cx="2054.53" cy="249.658" r="14.4" fill="#009af9" fill-rule="evenodd" fill-opacity="1" stroke="#000000" stroke-opacity="1" stroke-width="3.2"/>
<circle clip-path="url(#clip552)" cx="2072.79" cy="236.864" r="14.4" fill="#009af9" fill-rule="evenodd" fill-opacity="1" stroke="#000000" stroke-opacity="1" stroke-width="3.2"/>
<circle clip-path="url(#clip552)" cx="2091.05" cy="224.965" r="14.4" fill="#009af9" fill-rule="evenodd" fill-opacity="1" stroke="#000000" stroke-opacity="1" stroke-width="3.2"/>
<circle clip-path="url(#clip552)" cx="2109.31" cy="213.049" r="14.4" fill="#009af9" fill-rule="evenodd" fill-opacity="1" stroke="#000000" stroke-opacity="1" stroke-width="3.2"/>
<circle clip-path="url(#clip552)" cx="2127.58" cy="200.7" r="14.4" fill="#009af9" fill-rule="evenodd" fill-opacity="1" stroke="#000000" stroke-opacity="1" stroke-width="3.2"/>
<circle clip-path="url(#clip552)" cx="2145.84" cy="187.292" r="14.4" fill="#009af9" fill-rule="evenodd" fill-opacity="1" stroke="#000000" stroke-opacity="1" stroke-width="3.2"/>
<circle clip-path="url(#clip552)" cx="2164.1" cy="174.807" r="14.4" fill="#009af9" fill-rule="evenodd" fill-opacity="1" stroke="#000000" stroke-opacity="1" stroke-width="3.2"/>
<circle clip-path="url(#clip552)" cx="2182.36" cy="162.294" r="14.4" fill="#009af9" fill-rule="evenodd" fill-opacity="1" stroke="#000000" stroke-opacity="1" stroke-width="3.2"/>
<circle clip-path="url(#clip552)" cx="2200.63" cy="149.79" r="14.4" fill="#009af9" fill-rule="evenodd" fill-opacity="1" stroke="#000000" stroke-opacity="1" stroke-width="3.2"/>
<circle clip-path="url(#clip552)" cx="2218.89" cy="136.911" r="14.4" fill="#009af9" fill-rule="evenodd" fill-opacity="1" stroke="#000000" stroke-opacity="1" stroke-width="3.2"/>
<circle clip-path="url(#clip552)" cx="2237.15" cy="124.633" r="14.4" fill="#009af9" fill-rule="evenodd" fill-opacity="1" stroke="#000000" stroke-opacity="1" stroke-width="3.2"/>
<circle clip-path="url(#clip552)" cx="2255.42" cy="112.036" r="14.4" fill="#009af9" fill-rule="evenodd" fill-opacity="1" stroke="#000000" stroke-opacity="1" stroke-width="3.2"/>
<circle clip-path="url(#clip552)" cx="2273.68" cy="98.9748" r="14.4" fill="#009af9" fill-rule="evenodd" fill-opacity="1" stroke="#000000" stroke-opacity="1" stroke-width="3.2"/>
<circle clip-path="url(#clip552)" cx="2291.94" cy="86.1857" r="14.4" fill="#009af9" fill-rule="evenodd" fill-opacity="1" stroke="#000000" stroke-opacity="1" stroke-width="3.2"/>
</svg>