<?xml version="1.0" encoding="utf-8"?>
<svg xmlns="http://www.w3.org/2000/svg" xmlns:xlink="http://www.w3.org/1999/xlink" width="600" height="400" viewBox="0 0 2400 1600">
<defs>
  <clipPath id="clip870">
    <rect x="0" y="0" width="2400" height="1600"/>
  </clipPath>
</defs>
<path clip-path="url(#clip870)" d="M0 1600 L2400 1600 L2400 8.88178e-14 L0 8.88178e-14  Z" fill="#ffffff" fill-rule="evenodd" fill-opacity="1"/>
<defs>
  <clipPath id="clip871">
    <rect x="480" y="0" width="1681" height="1600"/>
  </clipPath>
</defs>
<path clip-path="url(#clip870)" d="M333.358 1423.18 L2352.76 1423.18 L2352.76 47.2441 L333.358 47.2441  Z" fill="#ffffff" fill-rule="evenodd" fill-opacity="1"/>
<defs>
  <clipPath id="clip872">
    <rect x="333" y="47" width="2020" height="1377"/>
  </clipPath>
</defs>
<polyline clip-path="url(#clip872)" style="stroke:#000000; stroke-linecap:round; stroke-linejoin:round; stroke-width:2; stroke-opacity:0.1; fill:none" points="351.632,1423.18 351.632,47.2441 "/>
<polyline clip-path="url(#clip872)" style="stroke:#000000; stroke-linecap:round; stroke-linejoin:round; stroke-width:2; stroke-opacity:0.1; fill:none" points="837.624,1423.18 837.624,47.2441 "/>
<polyline clip-path="url(#clip872)" style="stroke:#000000; stroke-linecap:round; stroke-linejoin:round; stroke-width:2; stroke-opacity:0.1; fill:none" points="1323.62,1423.18 1323.62,47.2441 "/>
<polyline clip-path="url(#clip872)" style="stroke:#000000; stroke-linecap:round; stroke-linejoin:round; stroke-width:2; stroke-opacity:0.1; fill:none" points="1809.61,1423.18 1809.61,47.2441 "/>
<polyline clip-path="url(#clip872)" style="stroke:#000000; stroke-linecap:round; stroke-linejoin:round; stroke-width:2; stroke-opacity:0.1; fill:none" points="2295.6,1423.18 2295.6,47.2441 "/>
<polyline clip-path="url(#clip870)" style="stroke:#000000; stroke-linecap:round; stroke-linejoin:round; stroke-width:4; stroke-opacity:1; fill:none" points="333.358,1423.18 2352.76,1423.18 "/>
<polyline clip-path="url(#clip870)" style="stroke:#000000; stroke-linecap:round; stroke-linejoin:round; stroke-width:4; stroke-opacity:1; fill:none" points="351.632,1423.18 351.632,1404.28 "/>
<polyline clip-path="url(#clip870)" style="stroke:#000000; stroke-linecap:round; stroke-linejoin:round; stroke-width:4; stroke-opacity:1; fill:none" points="837.624,1423.18 837.624,1404.28 "/>
<polyline clip-path="url(#clip870)" style="stroke:#000000; stroke-linecap:round; stroke-linejoin:round; stroke-width:4; stroke-opacity:1; fill:none" points="1323.62,1423.18 1323.62,1404.28 "/>
<polyline clip-path="url(#clip870)" style="stroke:#000000; stroke-linecap:round; stroke-linejoin:round; stroke-width:4; stroke-opacity:1; fill:none" points="1809.61,1423.18 1809.61,1404.28 "/>
<polyline clip-path="url(#clip870)" style="stroke:#000000; stroke-linecap:round; stroke-linejoin:round; stroke-width:4; stroke-opacity:1; fill:none" points="2295.6,1423.18 2295.6,1404.28 "/>
<path clip-path="url(#clip870)" d="M313.935 1454.1 Q310.324 1454.1 308.495 1457.66 Q306.69 1461.2 306.69 1468.33 Q306.69 1475.44 308.495 1479.01 Q310.324 1482.55 313.935 1482.55 Q317.569 1482.55 319.375 1479.01 Q321.203 1475.44 321.203 1468.33 Q321.203 1461.2 319.375 1457.66 Q317.569 1454.1 313.935 1454.1 M313.935 1450.39 Q319.745 1450.39 322.801 1455 Q325.879 1459.58 325.879 1468.33 Q325.879 1477.06 322.801 1481.67 Q319.745 1486.25 313.935 1486.25 Q308.125 1486.25 305.046 1481.67 Q301.991 1477.06 301.991 1468.33 Q301.991 1459.58 305.046 1455 Q308.125 1450.39 313.935 1450.39 Z" fill="#000000" fill-rule="nonzero" fill-opacity="1" /><path clip-path="url(#clip870)" d="M334.097 1479.7 L338.981 1479.7 L338.981 1485.58 L334.097 1485.58 L334.097 1479.7 Z" fill="#000000" fill-rule="nonzero" fill-opacity="1" /><path clip-path="url(#clip870)" d="M359.166 1454.1 Q355.555 1454.1 353.726 1457.66 Q351.921 1461.2 351.921 1468.33 Q351.921 1475.44 353.726 1479.01 Q355.555 1482.55 359.166 1482.55 Q362.8 1482.55 364.606 1479.01 Q366.435 1475.44 366.435 1468.33 Q366.435 1461.2 364.606 1457.66 Q362.8 1454.1 359.166 1454.1 M359.166 1450.39 Q364.976 1450.39 368.032 1455 Q371.111 1459.58 371.111 1468.33 Q371.111 1477.06 368.032 1481.67 Q364.976 1486.25 359.166 1486.25 Q353.356 1486.25 350.277 1481.67 Q347.222 1477.06 347.222 1468.33 Q347.222 1459.58 350.277 1455 Q353.356 1450.39 359.166 1450.39 Z" fill="#000000" fill-rule="nonzero" fill-opacity="1" /><path clip-path="url(#clip870)" d="M389.328 1454.1 Q385.717 1454.1 383.888 1457.66 Q382.083 1461.2 382.083 1468.33 Q382.083 1475.44 383.888 1479.01 Q385.717 1482.55 389.328 1482.55 Q392.962 1482.55 394.768 1479.01 Q396.597 1475.44 396.597 1468.33 Q396.597 1461.2 394.768 1457.66 Q392.962 1454.1 389.328 1454.1 M389.328 1450.39 Q395.138 1450.39 398.194 1455 Q401.273 1459.58 401.273 1468.33 Q401.273 1477.06 398.194 1481.67 Q395.138 1486.25 389.328 1486.25 Q383.518 1486.25 380.439 1481.67 Q377.384 1477.06 377.384 1468.33 Q377.384 1459.58 380.439 1455 Q383.518 1450.39 389.328 1450.39 Z" fill="#000000" fill-rule="nonzero" fill-opacity="1" /><path clip-path="url(#clip870)" d="M800.426 1454.1 Q796.814 1454.1 794.986 1457.66 Q793.18 1461.2 793.18 1468.33 Q793.18 1475.44 794.986 1479.01 Q796.814 1482.55 800.426 1482.55 Q804.06 1482.55 805.865 1479.01 Q807.694 1475.44 807.694 1468.33 Q807.694 1461.2 805.865 1457.66 Q804.06 1454.1 800.426 1454.1 M800.426 1450.39 Q806.236 1450.39 809.291 1455 Q812.37 1459.58 812.37 1468.33 Q812.37 1477.06 809.291 1481.67 Q806.236 1486.25 800.426 1486.25 Q794.615 1486.25 791.537 1481.67 Q788.481 1477.06 788.481 1468.33 Q788.481 1459.58 791.537 1455 Q794.615 1450.39 800.426 1450.39 Z" fill="#000000" fill-rule="nonzero" fill-opacity="1" /><path clip-path="url(#clip870)" d="M820.588 1479.7 L825.472 1479.7 L825.472 1485.58 L820.588 1485.58 L820.588 1479.7 Z" fill="#000000" fill-rule="nonzero" fill-opacity="1" /><path clip-path="url(#clip870)" d="M839.685 1481.64 L856.004 1481.64 L856.004 1485.58 L834.06 1485.58 L834.06 1481.64 Q836.722 1478.89 841.305 1474.26 Q845.911 1469.61 847.092 1468.27 Q849.337 1465.74 850.217 1464.01 Q851.12 1462.25 851.12 1460.56 Q851.12 1457.8 849.175 1456.07 Q847.254 1454.33 844.152 1454.33 Q841.953 1454.33 839.499 1455.09 Q837.069 1455.86 834.291 1457.41 L834.291 1452.69 Q837.115 1451.55 839.569 1450.97 Q842.023 1450.39 844.06 1450.39 Q849.43 1450.39 852.624 1453.08 Q855.819 1455.77 855.819 1460.26 Q855.819 1462.39 855.009 1464.31 Q854.222 1466.2 852.115 1468.8 Q851.536 1469.47 848.435 1472.69 Q845.333 1475.88 839.685 1481.64 Z" fill="#000000" fill-rule="nonzero" fill-opacity="1" /><path clip-path="url(#clip870)" d="M865.865 1451.02 L884.221 1451.02 L884.221 1454.96 L870.147 1454.96 L870.147 1463.43 Q871.166 1463.08 872.184 1462.92 Q873.203 1462.73 874.221 1462.73 Q880.008 1462.73 883.388 1465.9 Q886.768 1469.08 886.768 1474.49 Q886.768 1480.07 883.296 1483.17 Q879.823 1486.25 873.504 1486.25 Q871.328 1486.25 869.059 1485.88 Q866.814 1485.51 864.407 1484.77 L864.407 1480.07 Q866.49 1481.2 868.712 1481.76 Q870.934 1482.32 873.411 1482.32 Q877.416 1482.32 879.754 1480.21 Q882.092 1478.1 882.092 1474.49 Q882.092 1470.88 879.754 1468.77 Q877.416 1466.67 873.411 1466.67 Q871.536 1466.67 869.661 1467.08 Q867.809 1467.5 865.865 1468.38 L865.865 1451.02 Z" fill="#000000" fill-rule="nonzero" fill-opacity="1" /><path clip-path="url(#clip870)" d="M1285.92 1454.1 Q1282.31 1454.1 1280.48 1457.66 Q1278.68 1461.2 1278.68 1468.33 Q1278.68 1475.44 1280.48 1479.01 Q1282.31 1482.55 1285.92 1482.55 Q1289.56 1482.55 1291.36 1479.01 Q1293.19 1475.44 1293.19 1468.33 Q1293.19 1461.2 1291.36 1457.66 Q1289.56 1454.1 1285.92 1454.1 M1285.92 1450.39 Q1291.73 1450.39 1294.79 1455 Q1297.87 1459.58 1297.87 1468.33 Q1297.87 1477.06 1294.79 1481.67 Q1291.73 1486.25 1285.92 1486.25 Q1280.11 1486.25 1277.03 1481.67 Q1273.98 1477.06 1273.98 1468.33 Q1273.98 1459.58 1277.03 1455 Q1280.11 1450.39 1285.92 1450.39 Z" fill="#000000" fill-rule="nonzero" fill-opacity="1" /><path clip-path="url(#clip870)" d="M1306.08 1479.7 L1310.97 1479.7 L1310.97 1485.58 L1306.08 1485.58 L1306.08 1479.7 Z" fill="#000000" fill-rule="nonzero" fill-opacity="1" /><path clip-path="url(#clip870)" d="M1321.2 1451.02 L1339.55 1451.02 L1339.55 1454.96 L1325.48 1454.96 L1325.48 1463.43 Q1326.5 1463.08 1327.52 1462.92 Q1328.54 1462.73 1329.55 1462.73 Q1335.34 1462.73 1338.72 1465.9 Q1342.1 1469.08 1342.1 1474.49 Q1342.1 1480.07 1338.63 1483.17 Q1335.16 1486.25 1328.84 1486.25 Q1326.66 1486.25 1324.39 1485.88 Q1322.15 1485.51 1319.74 1484.77 L1319.74 1480.07 Q1321.82 1481.2 1324.05 1481.76 Q1326.27 1482.32 1328.74 1482.32 Q1332.75 1482.32 1335.09 1480.21 Q1337.43 1478.1 1337.43 1474.49 Q1337.43 1470.88 1335.09 1468.77 Q1332.75 1466.67 1328.74 1466.67 Q1326.87 1466.67 1324.99 1467.08 Q1323.14 1467.5 1321.2 1468.38 L1321.2 1451.02 Z" fill="#000000" fill-rule="nonzero" fill-opacity="1" /><path clip-path="url(#clip870)" d="M1361.31 1454.1 Q1357.7 1454.1 1355.87 1457.66 Q1354.07 1461.2 1354.07 1468.33 Q1354.07 1475.44 1355.87 1479.01 Q1357.7 1482.55 1361.31 1482.55 Q1364.95 1482.55 1366.75 1479.01 Q1368.58 1475.44 1368.58 1468.33 Q1368.58 1461.2 1366.75 1457.66 Q1364.95 1454.1 1361.31 1454.1 M1361.31 1450.39 Q1367.12 1450.39 1370.18 1455 Q1373.26 1459.58 1373.26 1468.33 Q1373.26 1477.06 1370.18 1481.67 Q1367.12 1486.25 1361.31 1486.25 Q1355.5 1486.25 1352.43 1481.67 Q1349.37 1477.06 1349.37 1468.33 Q1349.37 1459.58 1352.43 1455 Q1355.5 1450.39 1361.31 1450.39 Z" fill="#000000" fill-rule="nonzero" fill-opacity="1" /><path clip-path="url(#clip870)" d="M1772.41 1454.1 Q1768.8 1454.1 1766.97 1457.66 Q1765.17 1461.2 1765.17 1468.33 Q1765.17 1475.44 1766.97 1479.01 Q1768.8 1482.55 1772.41 1482.55 Q1776.05 1482.55 1777.85 1479.01 Q1779.68 1475.44 1779.68 1468.33 Q1779.68 1461.2 1777.85 1457.66 Q1776.05 1454.1 1772.41 1454.1 M1772.41 1450.39 Q1778.22 1450.39 1781.28 1455 Q1784.36 1459.58 1784.36 1468.33 Q1784.36 1477.06 1781.28 1481.67 Q1778.22 1486.25 1772.41 1486.25 Q1766.6 1486.25 1763.52 1481.67 Q1760.47 1477.06 1760.47 1468.33 Q1760.47 1459.58 1763.52 1455 Q1766.6 1450.39 1772.41 1450.39 Z" fill="#000000" fill-rule="nonzero" fill-opacity="1" /><path clip-path="url(#clip870)" d="M1792.57 1479.7 L1797.46 1479.7 L1797.46 1485.58 L1792.57 1485.58 L1792.57 1479.7 Z" fill="#000000" fill-rule="nonzero" fill-opacity="1" /><path clip-path="url(#clip870)" d="M1806.46 1451.02 L1828.68 1451.02 L1828.68 1453.01 L1816.14 1485.58 L1811.25 1485.58 L1823.06 1454.96 L1806.46 1454.96 L1806.46 1451.02 Z" fill="#000000" fill-rule="nonzero" fill-opacity="1" /><path clip-path="url(#clip870)" d="M1837.85 1451.02 L1856.21 1451.02 L1856.21 1454.96 L1842.13 1454.96 L1842.13 1463.43 Q1843.15 1463.08 1844.17 1462.92 Q1845.19 1462.73 1846.21 1462.73 Q1851.99 1462.73 1855.37 1465.9 Q1858.75 1469.08 1858.75 1474.49 Q1858.75 1480.07 1855.28 1483.17 Q1851.81 1486.25 1845.49 1486.25 Q1843.31 1486.25 1841.05 1485.88 Q1838.8 1485.51 1836.39 1484.77 L1836.39 1480.07 Q1838.48 1481.2 1840.7 1481.76 Q1842.92 1482.32 1845.4 1482.32 Q1849.4 1482.32 1851.74 1480.21 Q1854.08 1478.1 1854.08 1474.49 Q1854.08 1470.88 1851.74 1468.77 Q1849.4 1466.67 1845.4 1466.67 Q1843.52 1466.67 1841.65 1467.08 Q1839.8 1467.5 1837.85 1468.38 L1837.85 1451.02 Z" fill="#000000" fill-rule="nonzero" fill-opacity="1" /><path clip-path="url(#clip870)" d="M2247.68 1481.64 L2255.31 1481.64 L2255.31 1455.28 L2247 1456.95 L2247 1452.69 L2255.27 1451.02 L2259.94 1451.02 L2259.94 1481.64 L2267.58 1481.64 L2267.58 1485.58 L2247.68 1485.58 L2247.68 1481.64 Z" fill="#000000" fill-rule="nonzero" fill-opacity="1" /><path clip-path="url(#clip870)" d="M2277.03 1479.7 L2281.91 1479.7 L2281.91 1485.58 L2277.03 1485.58 L2277.03 1479.7 Z" fill="#000000" fill-rule="nonzero" fill-opacity="1" /><path clip-path="url(#clip870)" d="M2302.1 1454.1 Q2298.49 1454.1 2296.66 1457.66 Q2294.85 1461.2 2294.85 1468.33 Q2294.85 1475.44 2296.66 1479.01 Q2298.49 1482.55 2302.1 1482.55 Q2305.73 1482.55 2307.54 1479.01 Q2309.36 1475.44 2309.36 1468.33 Q2309.36 1461.2 2307.54 1457.66 Q2305.73 1454.1 2302.1 1454.1 M2302.1 1450.39 Q2307.91 1450.39 2310.96 1455 Q2314.04 1459.58 2314.04 1468.33 Q2314.04 1477.06 2310.96 1481.67 Q2307.91 1486.25 2302.1 1486.25 Q2296.29 1486.25 2293.21 1481.67 Q2290.15 1477.06 2290.15 1468.33 Q2290.15 1459.58 2293.21 1455 Q2296.29 1450.39 2302.1 1450.39 Z" fill="#000000" fill-rule="nonzero" fill-opacity="1" /><path clip-path="url(#clip870)" d="M2332.26 1454.1 Q2328.65 1454.1 2326.82 1457.66 Q2325.01 1461.2 2325.01 1468.33 Q2325.01 1475.44 2326.82 1479.01 Q2328.65 1482.55 2332.26 1482.55 Q2335.89 1482.55 2337.7 1479.01 Q2339.53 1475.44 2339.53 1468.33 Q2339.53 1461.2 2337.7 1457.66 Q2335.89 1454.1 2332.26 1454.1 M2332.26 1450.39 Q2338.07 1450.39 2341.12 1455 Q2344.2 1459.58 2344.2 1468.33 Q2344.2 1477.06 2341.12 1481.67 Q2338.07 1486.25 2332.26 1486.25 Q2326.45 1486.25 2323.37 1481.67 Q2320.31 1477.06 2320.31 1468.33 Q2320.31 1459.58 2323.37 1455 Q2326.45 1450.39 2332.26 1450.39 Z" fill="#000000" fill-rule="nonzero" fill-opacity="1" /><path clip-path="url(#clip870)" d="M1297.96 1562.63 L1308.46 1562.63 L1308.46 1526.38 L1297.03 1528.67 L1297.03 1522.82 L1308.4 1520.52 L1314.83 1520.52 L1314.83 1562.63 L1325.33 1562.63 L1325.33 1568.04 L1297.96 1568.04 L1297.96 1562.63 Z" fill="#000000" fill-rule="nonzero" fill-opacity="1" /><path clip-path="url(#clip870)" d="M1347.9 1520.52 L1353.31 1520.52 L1336.76 1574.09 L1331.34 1574.09 L1347.9 1520.52 Z" fill="#000000" fill-rule="nonzero" fill-opacity="1" /><path clip-path="url(#clip870)" d="M1389.08 1546.53 L1389.08 1568.04 L1383.22 1568.04 L1383.22 1546.72 Q1383.22 1541.66 1381.25 1539.14 Q1379.28 1536.63 1375.33 1536.63 Q1370.59 1536.63 1367.85 1539.65 Q1365.11 1542.68 1365.11 1547.9 L1365.11 1568.04 L1359.23 1568.04 L1359.23 1532.4 L1365.11 1532.4 L1365.11 1537.93 Q1367.21 1534.72 1370.05 1533.13 Q1372.91 1531.54 1376.64 1531.54 Q1382.78 1531.54 1385.93 1535.36 Q1389.08 1539.14 1389.08 1546.53 Z" fill="#000000" fill-rule="nonzero" fill-opacity="1" /><polyline clip-path="url(#clip872)" style="stroke:#000000; stroke-linecap:round; stroke-linejoin:round; stroke-width:2; stroke-opacity:0.1; fill:none" points="333.358,1384.76 2352.76,1384.76 "/>
<polyline clip-path="url(#clip872)" style="stroke:#000000; stroke-linecap:round; stroke-linejoin:round; stroke-width:2; stroke-opacity:0.1; fill:none" points="333.358,1125.04 2352.76,1125.04 "/>
<polyline clip-path="url(#clip872)" style="stroke:#000000; stroke-linecap:round; stroke-linejoin:round; stroke-width:2; stroke-opacity:0.1; fill:none" points="333.358,865.329 2352.76,865.329 "/>
<polyline clip-path="url(#clip872)" style="stroke:#000000; stroke-linecap:round; stroke-linejoin:round; stroke-width:2; stroke-opacity:0.1; fill:none" points="333.358,605.614 2352.76,605.614 "/>
<polyline clip-path="url(#clip872)" style="stroke:#000000; stroke-linecap:round; stroke-linejoin:round; stroke-width:2; stroke-opacity:0.1; fill:none" points="333.358,345.9 2352.76,345.9 "/>
<polyline clip-path="url(#clip872)" style="stroke:#000000; stroke-linecap:round; stroke-linejoin:round; stroke-width:2; stroke-opacity:0.1; fill:none" points="333.358,86.1857 2352.76,86.1857 "/>
<polyline clip-path="url(#clip870)" style="stroke:#000000; stroke-linecap:round; stroke-linejoin:round; stroke-width:4; stroke-opacity:1; fill:none" points="333.358,1423.18 333.358,47.2441 "/>
<polyline clip-path="url(#clip870)" style="stroke:#000000; stroke-linecap:round; stroke-linejoin:round; stroke-width:4; stroke-opacity:1; fill:none" points="333.358,1384.76 352.256,1384.76 "/>
<polyline clip-path="url(#clip870)" style="stroke:#000000; stroke-linecap:round; stroke-linejoin:round; stroke-width:4; stroke-opacity:1; fill:none" points="333.358,1125.04 352.256,1125.04 "/>
<polyline clip-path="url(#clip870)" style="stroke:#000000; stroke-linecap:round; stroke-linejoin:round; stroke-width:4; stroke-opacity:1; fill:none" points="333.358,865.329 352.256,865.329 "/>
<polyline clip-path="url(#clip870)" style="stroke:#000000; stroke-linecap:round; stroke-linejoin:round; stroke-width:4; stroke-opacity:1; fill:none" points="333.358,605.614 352.256,605.614 "/>
<polyline clip-path="url(#clip870)" style="stroke:#000000; stroke-linecap:round; stroke-linejoin:round; stroke-width:4; stroke-opacity:1; fill:none" points="333.358,345.9 352.256,345.9 "/>
<polyline clip-path="url(#clip870)" style="stroke:#000000; stroke-linecap:round; stroke-linejoin:round; stroke-width:4; stroke-opacity:1; fill:none" points="333.358,86.1857 352.256,86.1857 "/>
<path clip-path="url(#clip870)" d="M210.021 1370.56 Q206.41 1370.56 204.581 1374.12 Q202.775 1377.66 202.775 1384.79 Q202.775 1391.9 204.581 1395.46 Q206.41 1399.01 210.021 1399.01 Q213.655 1399.01 215.461 1395.46 Q217.289 1391.9 217.289 1384.79 Q217.289 1377.66 215.461 1374.12 Q213.655 1370.56 210.021 1370.56 M210.021 1366.85 Q215.831 1366.85 218.886 1371.46 Q221.965 1376.04 221.965 1384.79 Q221.965 1393.52 218.886 1398.13 Q215.831 1402.71 210.021 1402.71 Q204.211 1402.71 201.132 1398.13 Q198.076 1393.52 198.076 1384.79 Q198.076 1376.04 201.132 1371.46 Q204.211 1366.85 210.021 1366.85 Z" fill="#000000" fill-rule="nonzero" fill-opacity="1" /><path clip-path="url(#clip870)" d="M230.183 1396.16 L235.067 1396.16 L235.067 1402.04 L230.183 1402.04 L230.183 1396.16 Z" fill="#000000" fill-rule="nonzero" fill-opacity="1" /><path clip-path="url(#clip870)" d="M255.252 1370.56 Q251.641 1370.56 249.812 1374.12 Q248.007 1377.66 248.007 1384.79 Q248.007 1391.9 249.812 1395.46 Q251.641 1399.01 255.252 1399.01 Q258.886 1399.01 260.692 1395.46 Q262.52 1391.9 262.52 1384.79 Q262.52 1377.66 260.692 1374.12 Q258.886 1370.56 255.252 1370.56 M255.252 1366.85 Q261.062 1366.85 264.118 1371.46 Q267.196 1376.04 267.196 1384.79 Q267.196 1393.52 264.118 1398.13 Q261.062 1402.71 255.252 1402.71 Q249.442 1402.71 246.363 1398.13 Q243.308 1393.52 243.308 1384.79 Q243.308 1376.04 246.363 1371.46 Q249.442 1366.85 255.252 1366.85 Z" fill="#000000" fill-rule="nonzero" fill-opacity="1" /><path clip-path="url(#clip870)" d="M285.414 1370.56 Q281.803 1370.56 279.974 1374.12 Q278.169 1377.66 278.169 1384.79 Q278.169 1391.9 279.974 1395.46 Q281.803 1399.01 285.414 1399.01 Q289.048 1399.01 290.854 1395.46 Q292.682 1391.9 292.682 1384.79 Q292.682 1377.66 290.854 1374.12 Q289.048 1370.56 285.414 1370.56 M285.414 1366.85 Q291.224 1366.85 294.28 1371.46 Q297.358 1376.04 297.358 1384.79 Q297.358 1393.52 294.28 1398.13 Q291.224 1402.71 285.414 1402.71 Q279.604 1402.71 276.525 1398.13 Q273.469 1393.52 273.469 1384.79 Q273.469 1376.04 276.525 1371.46 Q279.604 1366.85 285.414 1366.85 Z" fill="#000000" fill-rule="nonzero" fill-opacity="1" /><path clip-path="url(#clip870)" d="M211.016 1110.84 Q207.405 1110.84 205.576 1114.41 Q203.771 1117.95 203.771 1125.08 Q203.771 1132.18 205.576 1135.75 Q207.405 1139.29 211.016 1139.29 Q214.65 1139.29 216.456 1135.75 Q218.285 1132.18 218.285 1125.08 Q218.285 1117.95 216.456 1114.41 Q214.65 1110.84 211.016 1110.84 M211.016 1107.14 Q216.826 1107.14 219.882 1111.74 Q222.96 1116.33 222.96 1125.08 Q222.96 1133.8 219.882 1138.41 Q216.826 1142.99 211.016 1142.99 Q205.206 1142.99 202.127 1138.41 Q199.072 1133.8 199.072 1125.08 Q199.072 1116.33 202.127 1111.74 Q205.206 1107.14 211.016 1107.14 Z" fill="#000000" fill-rule="nonzero" fill-opacity="1" /><path clip-path="url(#clip870)" d="M231.178 1136.44 L236.062 1136.44 L236.062 1142.32 L231.178 1142.32 L231.178 1136.44 Z" fill="#000000" fill-rule="nonzero" fill-opacity="1" /><path clip-path="url(#clip870)" d="M256.247 1110.84 Q252.636 1110.84 250.808 1114.41 Q249.002 1117.95 249.002 1125.08 Q249.002 1132.18 250.808 1135.75 Q252.636 1139.29 256.247 1139.29 Q259.882 1139.29 261.687 1135.75 Q263.516 1132.18 263.516 1125.08 Q263.516 1117.95 261.687 1114.41 Q259.882 1110.84 256.247 1110.84 M256.247 1107.14 Q262.057 1107.14 265.113 1111.74 Q268.192 1116.33 268.192 1125.08 Q268.192 1133.8 265.113 1138.41 Q262.057 1142.99 256.247 1142.99 Q250.437 1142.99 247.358 1138.41 Q244.303 1133.8 244.303 1125.08 Q244.303 1116.33 247.358 1111.74 Q250.437 1107.14 256.247 1107.14 Z" fill="#000000" fill-rule="nonzero" fill-opacity="1" /><path clip-path="url(#clip870)" d="M276.456 1107.76 L294.812 1107.76 L294.812 1111.7 L280.738 1111.7 L280.738 1120.17 Q281.756 1119.82 282.775 1119.66 Q283.793 1119.48 284.812 1119.48 Q290.599 1119.48 293.979 1122.65 Q297.358 1125.82 297.358 1131.24 Q297.358 1136.81 293.886 1139.92 Q290.414 1142.99 284.094 1142.99 Q281.918 1142.99 279.65 1142.62 Q277.405 1142.25 274.997 1141.51 L274.997 1136.81 Q277.081 1137.95 279.303 1138.5 Q281.525 1139.06 284.002 1139.06 Q288.006 1139.06 290.344 1136.95 Q292.682 1134.85 292.682 1131.24 Q292.682 1127.62 290.344 1125.52 Q288.006 1123.41 284.002 1123.41 Q282.127 1123.41 280.252 1123.83 Q278.4 1124.24 276.456 1125.12 L276.456 1107.76 Z" fill="#000000" fill-rule="nonzero" fill-opacity="1" /><path clip-path="url(#clip870)" d="M210.021 851.128 Q206.41 851.128 204.581 854.692 Q202.775 858.234 202.775 865.364 Q202.775 872.47 204.581 876.035 Q206.41 879.576 210.021 879.576 Q213.655 879.576 215.461 876.035 Q217.289 872.47 217.289 865.364 Q217.289 858.234 215.461 854.692 Q213.655 851.128 210.021 851.128 M210.021 847.424 Q215.831 847.424 218.886 852.03 Q221.965 856.614 221.965 865.364 Q221.965 874.09 218.886 878.697 Q215.831 883.28 210.021 883.28 Q204.211 883.28 201.132 878.697 Q198.076 874.09 198.076 865.364 Q198.076 856.614 201.132 852.03 Q204.211 847.424 210.021 847.424 Z" fill="#000000" fill-rule="nonzero" fill-opacity="1" /><path clip-path="url(#clip870)" d="M230.183 876.729 L235.067 876.729 L235.067 882.609 L230.183 882.609 L230.183 876.729 Z" fill="#000000" fill-rule="nonzero" fill-opacity="1" /><path clip-path="url(#clip870)" d="M246.062 878.674 L253.701 878.674 L253.701 852.308 L245.391 853.975 L245.391 849.716 L253.655 848.049 L258.331 848.049 L258.331 878.674 L265.97 878.674 L265.97 882.609 L246.062 882.609 L246.062 878.674 Z" fill="#000000" fill-rule="nonzero" fill-opacity="1" /><path clip-path="url(#clip870)" d="M285.414 851.128 Q281.803 851.128 279.974 854.692 Q278.169 858.234 278.169 865.364 Q278.169 872.47 279.974 876.035 Q281.803 879.576 285.414 879.576 Q289.048 879.576 290.854 876.035 Q292.682 872.47 292.682 865.364 Q292.682 858.234 290.854 854.692 Q289.048 851.128 285.414 851.128 M285.414 847.424 Q291.224 847.424 294.28 852.03 Q297.358 856.614 297.358 865.364 Q297.358 874.09 294.28 878.697 Q291.224 883.28 285.414 883.28 Q279.604 883.28 276.525 878.697 Q273.469 874.09 273.469 865.364 Q273.469 856.614 276.525 852.03 Q279.604 847.424 285.414 847.424 Z" fill="#000000" fill-rule="nonzero" fill-opacity="1" /><path clip-path="url(#clip870)" d="M211.016 591.413 Q207.405 591.413 205.576 594.978 Q203.771 598.52 203.771 605.649 Q203.771 612.756 205.576 616.32 Q207.405 619.862 211.016 619.862 Q214.65 619.862 216.456 616.32 Q218.285 612.756 218.285 605.649 Q218.285 598.52 216.456 594.978 Q214.65 591.413 211.016 591.413 M211.016 587.709 Q216.826 587.709 219.882 592.316 Q222.96 596.899 222.96 605.649 Q222.96 614.376 219.882 618.982 Q216.826 623.566 211.016 623.566 Q205.206 623.566 202.127 618.982 Q199.072 614.376 199.072 605.649 Q199.072 596.899 202.127 592.316 Q205.206 587.709 211.016 587.709 Z" fill="#000000" fill-rule="nonzero" fill-opacity="1" /><path clip-path="url(#clip870)" d="M231.178 617.015 L236.062 617.015 L236.062 622.894 L231.178 622.894 L231.178 617.015 Z" fill="#000000" fill-rule="nonzero" fill-opacity="1" /><path clip-path="url(#clip870)" d="M247.058 618.959 L254.696 618.959 L254.696 592.594 L246.386 594.26 L246.386 590.001 L254.65 588.334 L259.326 588.334 L259.326 618.959 L266.965 618.959 L266.965 622.894 L247.058 622.894 L247.058 618.959 Z" fill="#000000" fill-rule="nonzero" fill-opacity="1" /><path clip-path="url(#clip870)" d="M276.456 588.334 L294.812 588.334 L294.812 592.27 L280.738 592.27 L280.738 600.742 Q281.756 600.395 282.775 600.233 Q283.793 600.047 284.812 600.047 Q290.599 600.047 293.979 603.219 Q297.358 606.39 297.358 611.807 Q297.358 617.385 293.886 620.487 Q290.414 623.566 284.094 623.566 Q281.918 623.566 279.65 623.195 Q277.405 622.825 274.997 622.084 L274.997 617.385 Q277.081 618.52 279.303 619.075 Q281.525 619.631 284.002 619.631 Q288.006 619.631 290.344 617.524 Q292.682 615.418 292.682 611.807 Q292.682 608.195 290.344 606.089 Q288.006 603.983 284.002 603.983 Q282.127 603.983 280.252 604.399 Q278.4 604.816 276.456 605.695 L276.456 588.334 Z" fill="#000000" fill-rule="nonzero" fill-opacity="1" /><path clip-path="url(#clip870)" d="M210.021 331.699 Q206.41 331.699 204.581 335.264 Q202.775 338.805 202.775 345.935 Q202.775 353.041 204.581 356.606 Q206.41 360.148 210.021 360.148 Q213.655 360.148 215.461 356.606 Q217.289 353.041 217.289 345.935 Q217.289 338.805 215.461 335.264 Q213.655 331.699 210.021 331.699 M210.021 327.995 Q215.831 327.995 218.886 332.602 Q221.965 337.185 221.965 345.935 Q221.965 354.662 218.886 359.268 Q215.831 363.851 210.021 363.851 Q204.211 363.851 201.132 359.268 Q198.076 354.662 198.076 345.935 Q198.076 337.185 201.132 332.602 Q204.211 327.995 210.021 327.995 Z" fill="#000000" fill-rule="nonzero" fill-opacity="1" /><path clip-path="url(#clip870)" d="M230.183 357.3 L235.067 357.3 L235.067 363.18 L230.183 363.18 L230.183 357.3 Z" fill="#000000" fill-rule="nonzero" fill-opacity="1" /><path clip-path="url(#clip870)" d="M249.28 359.245 L265.599 359.245 L265.599 363.18 L243.655 363.18 L243.655 359.245 Q246.317 356.49 250.9 351.861 Q255.507 347.208 256.687 345.865 Q258.933 343.342 259.812 341.606 Q260.715 339.847 260.715 338.157 Q260.715 335.402 258.77 333.666 Q256.849 331.93 253.747 331.93 Q251.548 331.93 249.095 332.694 Q246.664 333.458 243.886 335.009 L243.886 330.287 Q246.71 329.152 249.164 328.574 Q251.618 327.995 253.655 327.995 Q259.025 327.995 262.22 330.68 Q265.414 333.365 265.414 337.856 Q265.414 339.986 264.604 341.907 Q263.817 343.805 261.71 346.398 Q261.132 347.069 258.03 350.287 Q254.928 353.481 249.28 359.245 Z" fill="#000000" fill-rule="nonzero" fill-opacity="1" /><path clip-path="url(#clip870)" d="M285.414 331.699 Q281.803 331.699 279.974 335.264 Q278.169 338.805 278.169 345.935 Q278.169 353.041 279.974 356.606 Q281.803 360.148 285.414 360.148 Q289.048 360.148 290.854 356.606 Q292.682 353.041 292.682 345.935 Q292.682 338.805 290.854 335.264 Q289.048 331.699 285.414 331.699 M285.414 327.995 Q291.224 327.995 294.28 332.602 Q297.358 337.185 297.358 345.935 Q297.358 354.662 294.28 359.268 Q291.224 363.851 285.414 363.851 Q279.604 363.851 276.525 359.268 Q273.469 354.662 273.469 345.935 Q273.469 337.185 276.525 332.602 Q279.604 327.995 285.414 327.995 Z" fill="#000000" fill-rule="nonzero" fill-opacity="1" /><path clip-path="url(#clip870)" d="M211.016 71.9844 Q207.405 71.9844 205.576 75.5492 Q203.771 79.0908 203.771 86.2204 Q203.771 93.3268 205.576 96.8916 Q207.405 100.433 211.016 100.433 Q214.65 100.433 216.456 96.8916 Q218.285 93.3268 218.285 86.2204 Q218.285 79.0908 216.456 75.5492 Q214.65 71.9844 211.016 71.9844 M211.016 68.2807 Q216.826 68.2807 219.882 72.8871 Q222.96 77.4704 222.96 86.2204 Q222.96 94.9472 219.882 99.5537 Q216.826 104.137 211.016 104.137 Q205.206 104.137 202.127 99.5537 Q199.072 94.9472 199.072 86.2204 Q199.072 77.4704 202.127 72.8871 Q205.206 68.2807 211.016 68.2807 Z" fill="#000000" fill-rule="nonzero" fill-opacity="1" /><path clip-path="url(#clip870)" d="M231.178 97.5861 L236.062 97.5861 L236.062 103.466 L231.178 103.466 L231.178 97.5861 Z" fill="#000000" fill-rule="nonzero" fill-opacity="1" /><path clip-path="url(#clip870)" d="M250.275 99.5305 L266.595 99.5305 L266.595 103.466 L244.65 103.466 L244.65 99.5305 Q247.312 96.7759 251.896 92.1463 Q256.502 87.4935 257.683 86.151 Q259.928 83.6278 260.808 81.8917 Q261.71 80.1325 261.71 78.4427 Q261.71 75.688 259.766 73.9519 Q257.845 72.2158 254.743 72.2158 Q252.544 72.2158 250.09 72.9797 Q247.659 73.7436 244.882 75.2945 L244.882 70.5723 Q247.706 69.4381 250.159 68.8594 Q252.613 68.2807 254.65 68.2807 Q260.02 68.2807 263.215 70.9658 Q266.409 73.651 266.409 78.1417 Q266.409 80.2714 265.599 82.1926 Q264.812 84.0908 262.706 86.6834 Q262.127 87.3546 259.025 90.5722 Q255.923 93.7667 250.275 99.5305 Z" fill="#000000" fill-rule="nonzero" fill-opacity="1" /><path clip-path="url(#clip870)" d="M276.456 68.9057 L294.812 68.9057 L294.812 72.8408 L280.738 72.8408 L280.738 81.313 Q281.756 80.9658 282.775 80.8038 Q283.793 80.6186 284.812 80.6186 Q290.599 80.6186 293.979 83.7899 Q297.358 86.9611 297.358 92.3778 Q297.358 97.9564 293.886 101.058 Q290.414 104.137 284.094 104.137 Q281.918 104.137 279.65 103.767 Q277.405 103.396 274.997 102.655 L274.997 97.9564 Q277.081 99.0907 279.303 99.6462 Q281.525 100.202 284.002 100.202 Q288.006 100.202 290.344 98.0953 Q292.682 95.9889 292.682 92.3778 Q292.682 88.7667 290.344 86.6602 Q288.006 84.5537 284.002 84.5537 Q282.127 84.5537 280.252 84.9704 Q278.4 85.3871 276.456 86.2667 L276.456 68.9057 Z" fill="#000000" fill-rule="nonzero" fill-opacity="1" /><path clip-path="url(#clip870)" d="M44.2885 865.756 Q46.0196 865.756 46.9455 866.802 Q47.8312 867.849 47.8312 869.218 Q47.8312 870.546 46.9455 871.593 Q46.0196 872.599 44.3691 872.599 Q43.2419 872.599 42.2354 871.875 Q41.1887 871.15 40.9874 869.54 Q39.2564 871.553 39.2564 874.733 Q39.2564 876.303 39.8602 877.39 Q40.4238 878.437 42.1549 879.483 Q43.886 880.53 47.4286 881.255 Q50.9713 881.939 56.4865 882.382 L77.0177 883.952 Q83.9823 884.435 97.6698 886.166 Q111.317 887.857 114.457 888.662 Q117.436 889.387 119.892 890.474 Q122.347 891.56 124.481 893.171 Q126.655 894.781 127.863 897.116 Q129.07 899.451 129.07 902.269 Q129.07 906.013 127.098 908.67 Q125.166 911.327 122.227 911.327 Q120.496 911.327 119.57 910.28 Q118.684 909.233 118.684 907.865 Q118.684 906.536 119.57 905.53 Q120.496 904.483 122.146 904.483 Q123.273 904.483 124.28 905.208 Q125.327 905.932 125.528 907.543 Q127.259 905.53 127.259 902.269 Q127.259 899.773 125.81 898.122 Q124.36 896.472 120.496 895.264 Q116.631 894.056 110.029 893.533 L89.4975 891.963 Q82.2512 891.44 68.765 889.749 Q55.2788 888.018 51.7361 887.253 Q37.4448 884.032 37.4448 874.813 Q37.4448 871.069 39.4174 868.412 Q41.3498 865.756 44.2885 865.756 Z" fill="#000000" fill-rule="nonzero" fill-opacity="1" /><path clip-path="url(#clip870)" d="M166.004 902.954 Q159.218 902.954 155.521 901.24 Q150.02 898.851 150.02 893.215 Q150.02 892.02 150.359 890.78 Q150.674 889.517 151.914 887.939 Q153.154 886.339 155.183 885.369 Q159.106 883.521 166.004 883.521 Q172.745 883.521 176.42 885.234 Q181.785 887.736 181.785 893.26 Q181.785 895.334 180.725 897.453 Q179.666 899.55 177.118 900.88 Q173.308 902.954 166.004 902.954 M165.441 899.121 Q172.407 899.121 175.18 898.625 Q178.178 898.062 179.486 896.529 Q180.771 894.973 180.771 893.26 Q180.771 891.411 179.395 889.878 Q177.998 888.323 174.999 887.849 Q172.046 887.331 165.441 887.353 Q159.015 887.353 156.445 887.804 Q153.447 888.413 152.252 890.036 Q151.035 891.637 151.035 893.26 Q151.035 893.868 151.215 894.522 Q151.396 895.153 151.914 896.078 Q152.433 897.002 153.718 897.723 Q155.003 898.422 156.941 898.76 Q159.444 899.121 165.441 899.121 Z" fill="#000000" fill-rule="nonzero" fill-opacity="1" /><path clip-path="url(#clip870)" d="M-11.1206 900.881 L-12.5635 900.881 Q-12.5635 895.335 -15.5167 892.472 Q-15.5167 891.683 -15.3364 891.548 Q-15.156 891.413 -14.3219 891.413 L11.5813 891.413 Q12.9565 891.413 13.3848 890.736 Q13.8131 890.06 13.8131 887.107 L13.8131 885.641 L15.2334 885.641 Q15.0982 887.264 15.0982 893.126 Q15.0982 898.987 15.2334 900.588 L13.8131 900.588 L13.8131 899.123 Q13.8131 896.214 13.4074 895.516 Q12.979 894.817 11.5813 894.817 L-12.338 894.817 Q-11.1206 897.229 -11.1206 900.881 Z" fill="#000000" fill-rule="nonzero" fill-opacity="1" /><path clip-path="url(#clip870)" d="M79.0306 819.272 Q80.8341 819.272 81.8647 820.399 Q82.8631 821.526 82.8631 822.814 Q82.8631 824.038 82.1546 824.682 Q81.4461 825.327 80.5443 825.327 Q79.3205 825.327 78.2577 824.425 Q77.1949 823.523 76.9694 822.17 Q76.1321 823.491 76.1321 825.455 Q76.1321 826.744 76.8084 827.871 Q77.4847 828.966 78.3543 829.642 Q79.2239 830.286 80.4799 830.866 Q81.7037 831.413 82.4444 831.639 Q83.153 831.832 83.9259 831.993 L92.9435 834.248 Q97.2269 835.343 98.7406 835.343 Q100.609 835.343 101.865 834.441 Q103.088 833.539 103.088 831.735 Q103.088 831.027 102.895 830.222 Q102.67 829.417 102.09 828.386 Q101.478 827.323 100.576 826.389 Q99.6424 825.423 98.0643 824.489 Q96.4862 823.555 94.4572 822.943 Q93.7487 822.75 93.7487 822.106 Q93.7487 821.301 94.3928 821.301 Q94.9403 821.301 96.0997 821.752 Q97.2269 822.17 98.7084 823.104 Q100.158 824.006 101.478 825.198 Q102.766 826.389 103.668 828.161 Q104.57 829.932 104.57 831.864 Q104.57 834.634 103.088 836.47 Q101.607 838.305 99.5457 838.982 Q99.8356 839.143 100.222 839.368 Q100.609 839.594 101.478 840.27 Q102.315 840.914 102.96 841.655 Q103.571 842.396 104.055 843.555 Q104.57 844.682 104.57 845.906 Q104.57 847.452 104.119 848.837 Q103.668 850.189 102.638 851.156 Q101.607 852.122 100.19 852.122 Q98.6118 852.122 97.5168 851.059 Q96.3896 849.964 96.3896 848.483 Q96.3896 847.549 96.9371 846.808 Q97.4846 846.035 98.6762 846.035 Q99.9966 846.035 100.995 846.937 Q101.993 847.838 102.251 849.127 Q103.088 847.806 103.088 845.842 Q103.088 843.716 101.22 842.041 Q99.3525 840.367 96.2285 839.562 Q88.7246 837.565 85.3752 836.792 Q81.9936 836.019 80.5443 836.019 Q79.1916 836.019 78.2577 836.373 Q77.3237 836.727 76.905 837.339 Q76.4541 837.919 76.2931 838.467 Q76.1321 838.982 76.1321 839.562 Q76.1321 840.528 76.5186 841.623 Q76.905 842.685 77.8068 843.974 Q78.6764 845.23 80.4799 846.421 Q82.2834 847.613 84.7633 848.418 Q85.504 848.579 85.504 849.288 Q85.4718 850.061 84.8277 850.061 Q84.2802 850.061 83.153 849.642 Q81.9936 849.191 80.5443 848.289 Q79.095 847.355 77.8068 846.164 Q76.4864 844.94 75.5846 843.169 Q74.6828 841.365 74.6828 839.433 Q74.6828 838.563 74.8761 837.726 Q75.0371 836.856 75.5202 835.826 Q76.0033 834.763 77.0661 833.829 Q78.1289 832.895 79.6747 832.315 Q78.934 831.929 78.2255 831.413 Q77.5169 830.866 76.6474 830.029 Q75.7456 829.159 75.2303 827.967 Q74.6828 826.744 74.6828 825.391 Q74.6828 824.07 75.0371 822.782 Q75.3591 821.494 76.4219 820.399 Q77.4525 819.272 79.0306 819.272 Z" fill="#000000" fill-rule="nonzero" fill-opacity="1" /><path clip-path="url(#clip870)" d="M76.864 812.551 Q75.4888 812.551 74.835 811.762 Q74.1812 810.972 74.1812 809.958 Q74.1812 808.898 74.8801 808.154 Q75.5564 807.388 76.7513 807.388 Q78.0363 807.388 78.7577 808.29 Q79.4791 809.169 79.2988 810.431 Q81.1474 809.327 81.9815 807.298 Q82.8156 805.246 82.8156 803.353 Q82.8156 801.369 81.1023 799.768 Q79.3889 798.145 75.1957 798.145 Q71.6338 798.145 69.5822 799.543 Q67.5307 800.918 67.5307 803.646 L67.5307 805.675 Q67.5307 806.373 67.4631 806.576 Q67.3955 806.779 67.0122 806.779 Q66.5613 806.779 66.4712 806.08 Q66.4712 805.382 66.3359 804.277 Q66.2457 801.594 63.9237 800.174 Q61.7594 798.889 58.6709 798.889 Q55.8529 798.889 54.6806 800.241 Q53.4858 801.572 53.4858 803.307 Q53.4858 804.931 54.1621 806.712 Q54.8384 808.493 56.3489 809.462 Q56.3489 806.599 58.6709 806.599 Q59.6854 806.599 60.3617 807.253 Q61.0155 807.884 61.0155 808.943 Q61.0155 809.958 60.3842 810.634 Q59.7305 811.311 58.6258 811.311 Q55.9881 811.311 54.1621 808.966 Q52.336 806.599 52.336 803.127 Q52.336 799.7 54.1395 797.175 Q55.9431 794.628 58.716 794.628 Q61.4438 794.628 63.6757 796.432 Q65.9076 798.235 66.8319 801.098 Q67.5307 797.581 69.9204 795.485 Q72.2875 793.388 75.1957 793.388 Q78.8028 793.388 81.463 796.229 Q84.1006 799.069 84.1006 803.217 Q84.1006 807.05 82.0266 809.8 Q79.9525 812.551 76.864 812.551 Z" fill="#000000" fill-rule="nonzero" fill-opacity="1" /><path clip-path="url(#clip870)" d="M58.7731 755.133 L96.9049 764.634 Q98.6118 765.02 100.061 765.02 Q103.088 765.02 103.088 763.056 Q103.088 762.09 102.476 761.317 Q101.865 760.544 100.576 759.932 Q99.2881 759.32 98.0965 758.934 Q96.8727 758.547 94.9403 758.032 Q94.1674 757.871 93.9741 757.742 Q93.7487 757.581 93.7487 757.13 Q93.7487 756.325 94.3928 756.325 Q98.5474 757.194 100.931 758.322 Q104.57 760.125 104.57 763.185 Q104.57 765.504 103.153 767.146 Q101.736 768.789 99.6102 769.175 Q104.57 773.394 104.57 777.774 Q104.57 781.639 101.639 784.086 Q98.6762 786.534 94.0063 786.534 Q89.3043 786.534 84.7955 784.215 Q80.2866 781.864 77.4847 778.16 Q74.6828 774.457 74.6828 770.656 Q74.6828 766.631 78.9018 764.57 L63.2497 760.608 L61.9615 760.415 Q61.575 760.415 61.3818 760.576 Q61.1564 760.705 60.9953 761.478 Q60.8343 762.219 60.8343 763.7 Q60.8343 764.312 60.8021 764.602 Q60.7699 764.859 60.6089 765.085 Q60.4156 765.31 60.0292 765.31 Q58.902 765.31 58.7731 764.376 Q58.0646 758.193 58.0646 756.003 Q58.0646 755.616 58.2578 755.391 Q58.4189 755.165 58.6121 755.165 L58.7731 755.133 M81.9291 765.375 Q81.6393 765.375 80.8341 765.6 Q80.029 765.826 78.9018 766.341 Q77.7746 766.856 76.9694 767.983 Q76.1321 769.078 76.1321 770.56 Q76.1321 772.557 77.839 774.65 Q79.5459 776.711 82.4444 778.225 Q84.7633 779.384 89.6263 780.64 Q94.4894 781.864 96.9049 781.864 Q98.3863 781.864 99.7068 781.542 Q100.995 781.188 102.058 780.189 Q103.088 779.191 103.088 777.645 Q103.088 773.877 98.4185 770.173 Q97.6134 769.465 97.2913 769.304 Q96.9371 769.111 95.9709 768.853 L83.0563 765.568 Q82.0902 765.375 81.9291 765.375 Z" fill="#000000" fill-rule="nonzero" fill-opacity="1" /><path clip-path="url(#clip870)" d="M79.0306 720.8 Q80.8341 720.8 81.8647 721.927 Q82.8631 723.054 82.8631 724.343 Q82.8631 725.566 82.1546 726.211 Q81.4461 726.855 80.5443 726.855 Q79.3205 726.855 78.2577 725.953 Q77.1949 725.051 76.9694 723.699 Q76.1321 725.019 76.1321 726.984 Q76.1321 728.272 76.8084 729.399 Q77.4847 730.494 78.3543 731.17 Q79.2239 731.814 80.4799 732.394 Q81.7037 732.942 82.4444 733.167 Q83.153 733.36 83.9259 733.521 L92.9435 735.776 Q97.2269 736.871 98.7406 736.871 Q100.609 736.871 101.865 735.969 Q103.088 735.067 103.088 733.264 Q103.088 732.555 102.895 731.75 Q102.67 730.945 102.09 729.914 Q101.478 728.851 100.576 727.917 Q99.6424 726.951 98.0643 726.017 Q96.4862 725.083 94.4572 724.471 Q93.7487 724.278 93.7487 723.634 Q93.7487 722.829 94.3928 722.829 Q94.9403 722.829 96.0997 723.28 Q97.2269 723.699 98.7084 724.632 Q100.158 725.534 101.478 726.726 Q102.766 727.917 103.668 729.689 Q104.57 731.46 104.57 733.392 Q104.57 736.162 103.088 737.998 Q101.607 739.834 99.5457 740.51 Q99.8356 740.671 100.222 740.896 Q100.609 741.122 101.478 741.798 Q102.315 742.442 102.96 743.183 Q103.571 743.924 104.055 745.083 Q104.57 746.21 104.57 747.434 Q104.57 748.98 104.119 750.365 Q103.668 751.718 102.638 752.684 Q101.607 753.65 100.19 753.65 Q98.6118 753.65 97.5168 752.587 Q96.3896 751.492 96.3896 750.011 Q96.3896 749.077 96.9371 748.336 Q97.4846 747.563 98.6762 747.563 Q99.9966 747.563 100.995 748.465 Q101.993 749.367 102.251 750.655 Q103.088 749.334 103.088 747.37 Q103.088 745.244 101.22 743.57 Q99.3525 741.895 96.2285 741.09 Q88.7246 739.093 85.3752 738.32 Q81.9936 737.547 80.5443 737.547 Q79.1916 737.547 78.2577 737.901 Q77.3237 738.256 76.905 738.867 Q76.4541 739.447 76.2931 739.995 Q76.1321 740.51 76.1321 741.09 Q76.1321 742.056 76.5186 743.151 Q76.905 744.214 77.8068 745.502 Q78.6764 746.758 80.4799 747.95 Q82.2834 749.141 84.7633 749.946 Q85.504 750.107 85.504 750.816 Q85.4718 751.589 84.8277 751.589 Q84.2802 751.589 83.153 751.17 Q81.9936 750.719 80.5443 749.817 Q79.095 748.884 77.8068 747.692 Q76.4864 746.468 75.5846 744.697 Q74.6828 742.893 74.6828 740.961 Q74.6828 740.091 74.8761 739.254 Q75.0371 738.384 75.5202 737.354 Q76.0033 736.291 77.0661 735.357 Q78.1289 734.423 79.6747 733.843 Q78.934 733.457 78.2255 732.942 Q77.5169 732.394 76.6474 731.557 Q75.7456 730.687 75.2303 729.496 Q74.6828 728.272 74.6828 726.919 Q74.6828 725.599 75.0371 724.31 Q75.3591 723.022 76.4219 721.927 Q77.4525 720.8 79.0306 720.8 Z" fill="#000000" fill-rule="nonzero" fill-opacity="1" /><path clip-path="url(#clip870)" d="M83.3634 716.297 L83.3634 699.141 L88.5833 699.141 L88.5833 716.297 L83.3634 716.297 Z" fill="#000000" fill-rule="nonzero" fill-opacity="1" /><path clip-path="url(#clip870)" d="M60.5423 675.238 Q60.5423 680.203 65.4439 682.718 Q70.3137 685.2 80.1169 685.2 Q89.8882 685.2 94.7898 682.718 Q99.6596 680.203 99.6596 675.238 Q99.6596 670.241 94.7898 667.758 Q89.8882 665.244 80.1169 665.244 Q70.3137 665.244 65.4439 667.758 Q60.5423 670.241 60.5423 675.238 M55.4498 675.238 Q55.4498 667.249 61.7836 663.048 Q68.0857 658.815 80.1169 658.815 Q92.1162 658.815 98.4501 663.048 Q104.752 667.249 104.752 675.238 Q104.752 683.227 98.4501 687.46 Q92.1162 691.662 80.1169 691.662 Q68.0857 691.662 61.7836 687.46 Q55.4498 683.227 55.4498 675.238 Z" fill="#000000" fill-rule="nonzero" fill-opacity="1" /><path clip-path="url(#clip870)" d="M95.7447 647.515 L95.7447 640.8 L103.829 640.8 L103.829 647.515 L95.7447 647.515 Z" fill="#000000" fill-rule="nonzero" fill-opacity="1" /><path clip-path="url(#clip870)" d="M98.4183 621.257 L98.4183 598.818 L103.829 598.818 L103.829 628.991 L98.4183 628.991 Q94.6307 625.331 88.265 619.029 Q81.8674 612.695 80.0214 611.072 Q76.5521 607.984 74.1649 606.775 Q71.746 605.534 69.4225 605.534 Q65.6349 605.534 63.2477 608.207 Q60.8606 610.849 60.8606 615.114 Q60.8606 618.138 61.911 621.511 Q62.9613 624.853 65.0938 628.673 L58.6008 628.673 Q57.0412 624.79 56.2455 621.416 Q55.4498 618.042 55.4498 615.241 Q55.4498 607.857 59.1419 603.465 Q62.834 599.072 69.0087 599.072 Q71.9369 599.072 74.5787 600.186 Q77.1886 601.269 80.7534 604.165 Q81.6765 604.961 86.1006 609.226 Q90.493 613.491 98.4183 621.257 Z" fill="#000000" fill-rule="nonzero" fill-opacity="1" /><path clip-path="url(#clip870)" d="M56.3091 585.259 L56.3091 560.019 L61.72 560.019 L61.72 579.37 L73.3692 579.37 Q72.8918 577.97 72.669 576.57 Q72.4144 575.169 72.4144 573.769 Q72.4144 565.812 76.7749 561.165 Q81.1354 556.518 88.5833 556.518 Q96.2539 556.518 100.519 561.292 Q104.752 566.066 104.752 574.755 Q104.752 577.747 104.243 580.866 Q103.734 583.954 102.715 587.264 L96.2539 587.264 Q97.8135 584.399 98.5774 581.344 Q99.3413 578.288 99.3413 574.883 Q99.3413 569.376 96.4449 566.162 Q93.5485 562.947 88.5833 562.947 Q83.618 562.947 80.7216 566.162 Q77.8252 569.376 77.8252 574.883 Q77.8252 577.461 78.3981 580.039 Q78.971 582.585 80.1805 585.259 L56.3091 585.259 Z" fill="#000000" fill-rule="nonzero" fill-opacity="1" /><polyline clip-path="url(#clip872)" style="stroke:#009af9; stroke-linecap:round; stroke-linejoin:round; stroke-width:4; stroke-opacity:1; fill:none" points="2295.6,86.1857 1323.62,1060.11 999.622,1240.47 837.624,1303.6 740.426,1332.81 675.627,1348.69 629.342,1358.26 594.628,1364.47 567.628,1368.73 546.029,1371.77 528.356,1374.03 513.629,1375.74 501.168,1377.07 490.487,1378.13 481.23,1378.99 473.13,1379.69 465.983,1380.26 459.63,1380.75 453.946,1381.16 448.83,1381.51 444.202,1381.81 439.994,1382.07 436.152,1382.3 432.63,1382.5 429.39,1382.68 426.4,1382.84 423.631,1382.98 421.059,1383.1 418.665,1383.21 416.431,1383.31 414.34,1383.41 412.381,1383.49 410.54,1383.57 408.807,1383.63 407.174,1383.7 405.631,1383.76 404.171,1383.81 402.789,1383.86 401.477,1383.9 400.231,1383.95 399.046,1383.99 397.917,1384.02 396.84,1384.06 395.813,1384.09 394.831,1384.12 393.892,1384.14 392.993,1384.17 392.131,1384.19 391.304,1384.22 390.511,1384.24 "/>
<circle clip-path="url(#clip872)" cx="2295.6" cy="86.1857" r="14.4" fill="#e26f46" fill-rule="evenodd" fill-opacity="1" stroke="#000000" stroke-opacity="1" stroke-width="3.2"/>
<circle clip-path="url(#clip872)" cx="1323.62" cy="1060.11" r="14.4" fill="#e26f46" fill-rule="evenodd" fill-opacity="1" stroke="#000000" stroke-opacity="1" stroke-width="3.2"/>
<circle clip-path="url(#clip872)" cx="999.622" cy="1240.47" r="14.4" fill="#e26f46" fill-rule="evenodd" fill-opacity="1" stroke="#000000" stroke-opacity="1" stroke-width="3.2"/>
<circle clip-path="url(#clip872)" cx="837.624" cy="1303.6" r="14.4" fill="#e26f46" fill-rule="evenodd" fill-opacity="1" stroke="#000000" stroke-opacity="1" stroke-width="3.2"/>
<circle clip-path="url(#clip872)" cx="740.426" cy="1332.81" r="14.4" fill="#e26f46" fill-rule="evenodd" fill-opacity="1" stroke="#000000" stroke-opacity="1" stroke-width="3.2"/>
<circle clip-path="url(#clip872)" cx="675.627" cy="1348.69" r="14.4" fill="#e26f46" fill-rule="evenodd" fill-opacity="1" stroke="#000000" stroke-opacity="1" stroke-width="3.2"/>
<circle clip-path="url(#clip872)" cx="629.342" cy="1358.26" r="14.4" fill="#e26f46" fill-rule="evenodd" fill-opacity="1" stroke="#000000" stroke-opacity="1" stroke-width="3.2"/>
<circle clip-path="url(#clip872)" cx="594.628" cy="1364.47" r="14.4" fill="#e26f46" fill-rule="evenodd" fill-opacity="1" stroke="#000000" stroke-opacity="1" stroke-width="3.2"/>
<circle clip-path="url(#clip872)" cx="567.628" cy="1368.73" r="14.4" fill="#e26f46" fill-rule="evenodd" fill-opacity="1" stroke="#000000" stroke-opacity="1" stroke-width="3.2"/>
<circle clip-path="url(#clip872)" cx="546.029" cy="1371.77" r="14.4" fill="#e26f46" fill-rule="evenodd" fill-opacity="1" stroke="#000000" stroke-opacity="1" stroke-width="3.2"/>
<circle clip-path="url(#clip872)" cx="528.356" cy="1374.03" r="14.4" fill="#e26f46" fill-rule="evenodd" fill-opacity="1" stroke="#000000" stroke-opacity="1" stroke-width="3.2"/>
<circle clip-path="url(#clip872)" cx="513.629" cy="1375.74" r="14.4" fill="#e26f46" fill-rule="evenodd" fill-opacity="1" stroke="#000000" stroke-opacity="1" stroke-width="3.2"/>
<circle clip-path="url(#clip872)" cx="501.168" cy="1377.07" r="14.4" fill="#e26f46" fill-rule="evenodd" fill-opacity="1" stroke="#000000" stroke-opacity="1" stroke-width="3.2"/>
<circle clip-path="url(#clip872)" cx="490.487" cy="1378.13" r="14.4" fill="#e26f46" fill-rule="evenodd" fill-opacity="1" stroke="#000000" stroke-opacity="1" stroke-width="3.2"/>
<circle clip-path="url(#clip872)" cx="481.23" cy="1378.99" r="14.4" fill="#e26f46" fill-rule="evenodd" fill-opacity="1" stroke="#000000" stroke-opacity="1" stroke-width="3.2"/>
<circle clip-path="url(#clip872)" cx="473.13" cy="1379.69" r="14.4" fill="#e26f46" fill-rule="evenodd" fill-opacity="1" stroke="#000000" stroke-opacity="1" stroke-width="3.2"/>
<circle clip-path="url(#clip872)" cx="465.983" cy="1380.26" r="14.4" fill="#e26f46" fill-rule="evenodd" fill-opacity="1" stroke="#000000" stroke-opacity="1" stroke-width="3.2"/>
<circle clip-path="url(#clip872)" cx="459.63" cy="1380.75" r="14.4" fill="#e26f46" fill-rule="evenodd" fill-opacity="1" stroke="#000000" stroke-opacity="1" stroke-width="3.2"/>
<circle clip-path="url(#clip872)" cx="453.946" cy="1381.16" r="14.4" fill="#e26f46" fill-rule="evenodd" fill-opacity="1" stroke="#000000" stroke-opacity="1" stroke-width="3.2"/>
<circle clip-path="url(#clip872)" cx="448.83" cy="1381.51" r="14.4" fill="#e26f46" fill-rule="evenodd" fill-opacity="1" stroke="#000000" stroke-opacity="1" stroke-width="3.2"/>
<circle clip-path="url(#clip872)" cx="444.202" cy="1381.81" r="14.4" fill="#e26f46" fill-rule="evenodd" fill-opacity="1" stroke="#000000" stroke-opacity="1" stroke-width="3.2"/>
<circle clip-path="url(#clip872)" cx="439.994" cy="1382.07" r="14.4" fill="#e26f46" fill-rule="evenodd" fill-opacity="1" stroke="#000000" stroke-opacity="1" stroke-width="3.2"/>
<circle clip-path="url(#clip872)" cx="436.152" cy="1382.3" r="14.4" fill="#e26f46" fill-rule="evenodd" fill-opacity="1" stroke="#000000" stroke-opacity="1" stroke-width="3.2"/>
<circle clip-path="url(#clip872)" cx="432.63" cy="1382.5" r="14.4" fill="#e26f46" fill-rule="evenodd" fill-opacity="1" stroke="#000000" stroke-opacity="1" stroke-width="3.2"/>
<circle clip-path="url(#clip872)" cx="429.39" cy="1382.68" r="14.4" fill="#e26f46" fill-rule="evenodd" fill-opacity="1" stroke="#000000" stroke-opacity="1" stroke-width="3.2"/>
<circle clip-path="url(#clip872)" cx="426.4" cy="1382.84" r="14.4" fill="#e26f46" fill-rule="evenodd" fill-opacity="1" stroke="#000000" stroke-opacity="1" stroke-width="3.2"/>
<circle clip-path="url(#clip872)" cx="423.631" cy="1382.98" r="14.4" fill="#e26f46" fill-rule="evenodd" fill-opacity="1" stroke="#000000" stroke-opacity="1" stroke-width="3.2"/>
<circle clip-path="url(#clip872)" cx="421.059" cy="1383.1" r="14.4" fill="#e26f46" fill-rule="evenodd" fill-opacity="1" stroke="#000000" stroke-opacity="1" stroke-width="3.2"/>
<circle clip-path="url(#clip872)" cx="418.665" cy="1383.21" r="14.4" fill="#e26f46" fill-rule="evenodd" fill-opacity="1" stroke="#000000" stroke-opacity="1" stroke-width="3.2"/>
<circle clip-path="url(#clip872)" cx="416.431" cy="1383.31" r="14.4" fill="#e26f46" fill-rule="evenodd" fill-opacity="1" stroke="#000000" stroke-opacity="1" stroke-width="3.2"/>
<circle clip-path="url(#clip872)" cx="414.34" cy="1383.41" r="14.4" fill="#e26f46" fill-rule="evenodd" fill-opacity="1" stroke="#000000" stroke-opacity="1" stroke-width="3.2"/>
<circle clip-path="url(#clip872)" cx="412.381" cy="1383.49" r="14.4" fill="#e26f46" fill-rule="evenodd" fill-opacity="1" stroke="#000000" stroke-opacity="1" stroke-width="3.2"/>
<circle clip-path="url(#clip872)" cx="410.54" cy="1383.57" r="14.4" fill="#e26f46" fill-rule="evenodd" fill-opacity="1" stroke="#000000" stroke-opacity="1" stroke-width="3.2"/>
<circle clip-path="url(#clip872)" cx="408.807" cy="1383.63" r="14.4" fill="#e26f46" fill-rule="evenodd" fill-opacity="1" stroke="#000000" stroke-opacity="1" stroke-width="3.2"/>
<circle clip-path="url(#clip872)" cx="407.174" cy="1383.7" r="14.4" fill="#e26f46" fill-rule="evenodd" fill-opacity="1" stroke="#000000" stroke-opacity="1" stroke-width="3.2"/>
<circle clip-path="url(#clip872)" cx="405.631" cy="1383.76" r="14.4" fill="#e26f46" fill-rule="evenodd" fill-opacity="1" stroke="#000000" stroke-opacity="1" stroke-width="3.2"/>
<circle clip-path="url(#clip872)" cx="404.171" cy="1383.81" r="14.4" fill="#e26f46" fill-rule="evenodd" fill-opacity="1" stroke="#000000" stroke-opacity="1" stroke-width="3.2"/>
<circle clip-path="url(#clip872)" cx="402.789" cy="1383.86" r="14.4" fill="#e26f46" fill-rule="evenodd" fill-opacity="1" stroke="#000000" stroke-opacity="1" stroke-width="3.2"/>
<circle clip-path="url(#clip872)" cx="401.477" cy="1383.9" r="14.4" fill="#e26f46" fill-rule="evenodd" fill-opacity="1" stroke="#000000" stroke-opacity="1" stroke-width="3.2"/>
<circle clip-path="url(#clip872)" cx="400.231" cy="1383.95" r="14.4" fill="#e26f46" fill-rule="evenodd" fill-opacity="1" stroke="#000000" stroke-opacity="1" stroke-width="3.2"/>
<circle clip-path="url(#clip872)" cx="399.046" cy="1383.99" r="14.4" fill="#e26f46" fill-rule="evenodd" fill-opacity="1" stroke="#000000" stroke-opacity="1" stroke-width="3.2"/>
<circle clip-path="url(#clip872)" cx="397.917" cy="1384.02" r="14.4" fill="#e26f46" fill-rule="evenodd" fill-opacity="1" stroke="#000000" stroke-opacity="1" stroke-width="3.2"/>
<circle clip-path="url(#clip872)" cx="396.84" cy="1384.06" r="14.4" fill="#e26f46" fill-rule="evenodd" fill-opacity="1" stroke="#000000" stroke-opacity="1" stroke-width="3.2"/>
<circle clip-path="url(#clip872)" cx="395.813" cy="1384.09" r="14.4" fill="#e26f46" fill-rule="evenodd" fill-opacity="1" stroke="#000000" stroke-opacity="1" stroke-width="3.2"/>
<circle clip-path="url(#clip872)" cx="394.831" cy="1384.12" r="14.4" fill="#e26f46" fill-rule="evenodd" fill-opacity="1" stroke="#000000" stroke-opacity="1" stroke-width="3.2"/>
<circle clip-path="url(#clip872)" cx="393.892" cy="1384.14" r="14.4" fill="#e26f46" fill-rule="evenodd" fill-opacity="1" stroke="#000000" stroke-opacity="1" stroke-width="3.2"/>
<circle clip-path="url(#clip872)" cx="392.993" cy="1384.17" r="14.4" fill="#e26f46" fill-rule="evenodd" fill-opacity="1" stroke="#000000" stroke-opacity="1" stroke-width="3.2"/>
<circle clip-path="url(#clip872)" cx="392.131" cy="1384.19" r="14.4" fill="#e26f46" fill-rule="evenodd" fill-opacity="1" stroke="#000000" stroke-opacity="1" stroke-width="3.2"/>
<circle clip-path="url(#clip872)" cx="391.304" cy="1384.22" r="14.4" fill="#e26f46" fill-rule="evenodd" fill-opacity="1" stroke="#000000" stroke-opacity="1" stroke-width="3.2"/>
<circle clip-path="url(#clip872)" cx="390.511" cy="1384.24" r="14.4" fill="#e26f46" fill-rule="evenodd" fill-opacity="1" stroke="#000000" stroke-opacity="1" stroke-width="3.2"/>
</svg>