<?xml version="1.0" encoding="utf-8"?>
<svg xmlns="http://www.w3.org/2000/svg" xmlns:xlink="http://www.w3.org/1999/xlink" width="600" height="400" viewBox="0 0 2400 1600">
<defs>
  <clipPath id="clip780">
    <rect x="0" y="0" width="2400" height="1600"/>
  </clipPath>
</defs>
<path clip-path="url(#clip780)" d="M0 1600 L2400 1600 L2400 8.88178e-14 L0 8.88178e-14  Z" fill="#ffffff" fill-rule="evenodd" fill-opacity="1"/>
<defs>
  <clipPath id="clip781">
    <rect x="480" y="0" width="1681" height="1600"/>
  </clipPath>
</defs>
<path clip-path="url(#clip780)" d="M333.358 1423.18 L2352.76 1423.18 L2352.76 47.2441 L333.358 47.2441  Z" fill="#ffffff" fill-rule="evenodd" fill-opacity="1"/>
<defs>
  <clipPath id="clip782">
    <rect x="333" y="47" width="2020" height="1377"/>
  </clipPath>
</defs>
<polyline clip-path="url(#clip782)" style="stroke:#000000; stroke-linecap:round; stroke-linejoin:round; stroke-width:2; stroke-opacity:0.1; fill:none" points="351.632,1423.18 351.632,47.2441 "/>
<polyline clip-path="url(#clip782)" style="stroke:#000000; stroke-linecap:round; stroke-linejoin:round; stroke-width:2; stroke-opacity:0.1; fill:none" points="740.426,1423.18 740.426,47.2441 "/>
<polyline clip-path="url(#clip782)" style="stroke:#000000; stroke-linecap:round; stroke-linejoin:round; stroke-width:2; stroke-opacity:0.1; fill:none" points="1129.22,1423.18 1129.22,47.2441 "/>
<polyline clip-path="url(#clip782)" style="stroke:#000000; stroke-linecap:round; stroke-linejoin:round; stroke-width:2; stroke-opacity:0.1; fill:none" points="1518.01,1423.18 1518.01,47.2441 "/>
<polyline clip-path="url(#clip782)" style="stroke:#000000; stroke-linecap:round; stroke-linejoin:round; stroke-width:2; stroke-opacity:0.1; fill:none" points="1906.81,1423.18 1906.81,47.2441 "/>
<polyline clip-path="url(#clip782)" style="stroke:#000000; stroke-linecap:round; stroke-linejoin:round; stroke-width:2; stroke-opacity:0.1; fill:none" points="2295.6,1423.18 2295.6,47.2441 "/>
<polyline clip-path="url(#clip780)" style="stroke:#000000; stroke-linecap:round; stroke-linejoin:round; stroke-width:4; stroke-opacity:1; fill:none" points="333.358,1423.18 2352.76,1423.18 "/>
<polyline clip-path="url(#clip780)" style="stroke:#000000; stroke-linecap:round; stroke-linejoin:round; stroke-width:4; stroke-opacity:1; fill:none" points="351.632,1423.18 351.632,1404.28 "/>
<polyline clip-path="url(#clip780)" style="stroke:#000000; stroke-linecap:round; stroke-linejoin:round; stroke-width:4; stroke-opacity:1; fill:none" points="740.426,1423.18 740.426,1404.28 "/>
<polyline clip-path="url(#clip780)" style="stroke:#000000; stroke-linecap:round; stroke-linejoin:round; stroke-width:4; stroke-opacity:1; fill:none" points="1129.22,1423.18 1129.22,1404.28 "/>
<polyline clip-path="url(#clip780)" style="stroke:#000000; stroke-linecap:round; stroke-linejoin:round; stroke-width:4; stroke-opacity:1; fill:none" points="1518.01,1423.18 1518.01,1404.28 "/>
<polyline clip-path="url(#clip780)" style="stroke:#000000; stroke-linecap:round; stroke-linejoin:round; stroke-width:4; stroke-opacity:1; fill:none" points="1906.81,1423.18 1906.81,1404.28 "/>
<polyline clip-path="url(#clip780)" style="stroke:#000000; stroke-linecap:round; stroke-linejoin:round; stroke-width:4; stroke-opacity:1; fill:none" points="2295.6,1423.18 2295.6,1404.28 "/>
<path clip-path="url(#clip780)" d="M351.632 1454.1 Q348.02 1454.1 346.192 1457.66 Q344.386 1461.2 344.386 1468.33 Q344.386 1475.44 346.192 1479.01 Q348.02 1482.55 351.632 1482.55 Q355.266 1482.55 357.071 1479.01 Q358.9 1475.44 358.9 1468.33 Q358.9 1461.2 357.071 1457.66 Q355.266 1454.1 351.632 1454.1 M351.632 1450.39 Q357.442 1450.39 360.497 1455 Q363.576 1459.58 363.576 1468.33 Q363.576 1477.06 360.497 1481.67 Q357.442 1486.25 351.632 1486.25 Q345.821 1486.25 342.743 1481.67 Q339.687 1477.06 339.687 1468.33 Q339.687 1459.58 342.743 1455 Q345.821 1450.39 351.632 1450.39 Z" fill="#000000" fill-rule="nonzero" fill-opacity="1" /><path clip-path="url(#clip780)" d="M715.114 1481.64 L722.752 1481.64 L722.752 1455.28 L714.442 1456.95 L714.442 1452.69 L722.706 1451.02 L727.382 1451.02 L727.382 1481.64 L735.021 1481.64 L735.021 1485.58 L715.114 1485.58 L715.114 1481.64 Z" fill="#000000" fill-rule="nonzero" fill-opacity="1" /><path clip-path="url(#clip780)" d="M754.465 1454.1 Q750.854 1454.1 749.025 1457.66 Q747.22 1461.2 747.22 1468.33 Q747.22 1475.44 749.025 1479.01 Q750.854 1482.55 754.465 1482.55 Q758.099 1482.55 759.905 1479.01 Q761.734 1475.44 761.734 1468.33 Q761.734 1461.2 759.905 1457.66 Q758.099 1454.1 754.465 1454.1 M754.465 1450.39 Q760.275 1450.39 763.331 1455 Q766.41 1459.58 766.41 1468.33 Q766.41 1477.06 763.331 1481.67 Q760.275 1486.25 754.465 1486.25 Q748.655 1486.25 745.576 1481.67 Q742.521 1477.06 742.521 1468.33 Q742.521 1459.58 745.576 1455 Q748.655 1450.39 754.465 1450.39 Z" fill="#000000" fill-rule="nonzero" fill-opacity="1" /><path clip-path="url(#clip780)" d="M1107.99 1481.64 L1124.31 1481.64 L1124.31 1485.58 L1102.37 1485.58 L1102.37 1481.64 Q1105.03 1478.89 1109.61 1474.26 Q1114.22 1469.61 1115.4 1468.27 Q1117.65 1465.74 1118.53 1464.01 Q1119.43 1462.25 1119.43 1460.56 Q1119.43 1457.8 1117.48 1456.07 Q1115.56 1454.33 1112.46 1454.33 Q1110.26 1454.33 1107.81 1455.09 Q1105.38 1455.86 1102.6 1457.41 L1102.6 1452.69 Q1105.42 1451.55 1107.88 1450.97 Q1110.33 1450.39 1112.37 1450.39 Q1117.74 1450.39 1120.93 1453.08 Q1124.13 1455.77 1124.13 1460.26 Q1124.13 1462.39 1123.32 1464.31 Q1122.53 1466.2 1120.42 1468.8 Q1119.85 1469.47 1116.74 1472.69 Q1113.64 1475.88 1107.99 1481.64 Z" fill="#000000" fill-rule="nonzero" fill-opacity="1" /><path clip-path="url(#clip780)" d="M1144.13 1454.1 Q1140.52 1454.1 1138.69 1457.66 Q1136.88 1461.2 1136.88 1468.33 Q1136.88 1475.44 1138.69 1479.01 Q1140.52 1482.55 1144.13 1482.55 Q1147.76 1482.55 1149.57 1479.01 Q1151.4 1475.44 1151.4 1468.33 Q1151.4 1461.2 1149.57 1457.66 Q1147.76 1454.1 1144.13 1454.1 M1144.13 1450.39 Q1149.94 1450.39 1152.99 1455 Q1156.07 1459.58 1156.07 1468.33 Q1156.07 1477.06 1152.99 1481.67 Q1149.94 1486.25 1144.13 1486.25 Q1138.32 1486.25 1135.24 1481.67 Q1132.18 1477.06 1132.18 1468.33 Q1132.18 1459.58 1135.24 1455 Q1138.32 1450.39 1144.13 1450.39 Z" fill="#000000" fill-rule="nonzero" fill-opacity="1" /><path clip-path="url(#clip780)" d="M1506.86 1466.95 Q1510.21 1467.66 1512.09 1469.93 Q1513.99 1472.2 1513.99 1475.53 Q1513.99 1480.65 1510.47 1483.45 Q1506.95 1486.25 1500.47 1486.25 Q1498.29 1486.25 1495.98 1485.81 Q1493.69 1485.39 1491.23 1484.54 L1491.23 1480.02 Q1493.18 1481.16 1495.49 1481.74 Q1497.81 1482.32 1500.33 1482.32 Q1504.73 1482.32 1507.02 1480.58 Q1509.33 1478.84 1509.33 1475.53 Q1509.33 1472.48 1507.18 1470.77 Q1505.05 1469.03 1501.23 1469.03 L1497.2 1469.03 L1497.2 1465.19 L1501.42 1465.19 Q1504.87 1465.19 1506.7 1463.82 Q1508.52 1462.43 1508.52 1459.84 Q1508.52 1457.18 1506.63 1455.77 Q1504.75 1454.33 1501.23 1454.33 Q1499.31 1454.33 1497.11 1454.75 Q1494.91 1455.16 1492.27 1456.04 L1492.27 1451.88 Q1494.94 1451.14 1497.25 1450.77 Q1499.59 1450.39 1501.65 1450.39 Q1506.97 1450.39 1510.07 1452.83 Q1513.18 1455.23 1513.18 1459.35 Q1513.18 1462.22 1511.53 1464.21 Q1509.89 1466.18 1506.86 1466.95 Z" fill="#000000" fill-rule="nonzero" fill-opacity="1" /><path clip-path="url(#clip780)" d="M1532.85 1454.1 Q1529.24 1454.1 1527.41 1457.66 Q1525.61 1461.2 1525.61 1468.33 Q1525.61 1475.44 1527.41 1479.01 Q1529.24 1482.55 1532.85 1482.55 Q1536.49 1482.55 1538.29 1479.01 Q1540.12 1475.44 1540.12 1468.33 Q1540.12 1461.2 1538.29 1457.66 Q1536.49 1454.1 1532.85 1454.1 M1532.85 1450.39 Q1538.66 1450.39 1541.72 1455 Q1544.8 1459.58 1544.8 1468.33 Q1544.8 1477.06 1541.72 1481.67 Q1538.66 1486.25 1532.85 1486.25 Q1527.04 1486.25 1523.96 1481.67 Q1520.91 1477.06 1520.91 1468.33 Q1520.91 1459.58 1523.96 1455 Q1527.04 1450.39 1532.85 1450.39 Z" fill="#000000" fill-rule="nonzero" fill-opacity="1" /><path clip-path="url(#clip780)" d="M1894.98 1455.09 L1883.17 1473.54 L1894.98 1473.54 L1894.98 1455.09 M1893.75 1451.02 L1899.63 1451.02 L1899.63 1473.54 L1904.56 1473.54 L1904.56 1477.43 L1899.63 1477.43 L1899.63 1485.58 L1894.98 1485.58 L1894.98 1477.43 L1879.38 1477.43 L1879.38 1472.92 L1893.75 1451.02 Z" fill="#000000" fill-rule="nonzero" fill-opacity="1" /><path clip-path="url(#clip780)" d="M1922.29 1454.1 Q1918.68 1454.1 1916.86 1457.66 Q1915.05 1461.2 1915.05 1468.33 Q1915.05 1475.44 1916.86 1479.01 Q1918.68 1482.55 1922.29 1482.55 Q1925.93 1482.55 1927.73 1479.01 Q1929.56 1475.44 1929.56 1468.33 Q1929.56 1461.2 1927.73 1457.66 Q1925.93 1454.1 1922.29 1454.1 M1922.29 1450.39 Q1928.11 1450.39 1931.16 1455 Q1934.24 1459.58 1934.24 1468.33 Q1934.24 1477.06 1931.16 1481.67 Q1928.11 1486.25 1922.29 1486.25 Q1916.48 1486.25 1913.41 1481.67 Q1910.35 1477.06 1910.35 1468.33 Q1910.35 1459.58 1913.41 1455 Q1916.48 1450.39 1922.29 1450.39 Z" fill="#000000" fill-rule="nonzero" fill-opacity="1" /><path clip-path="url(#clip780)" d="M2270.3 1451.02 L2288.66 1451.02 L2288.66 1454.96 L2274.58 1454.96 L2274.58 1463.43 Q2275.6 1463.08 2276.62 1462.92 Q2277.64 1462.73 2278.66 1462.73 Q2284.45 1462.73 2287.83 1465.9 Q2291.21 1469.08 2291.21 1474.49 Q2291.21 1480.07 2287.73 1483.17 Q2284.26 1486.25 2277.94 1486.25 Q2275.77 1486.25 2273.5 1485.88 Q2271.25 1485.51 2268.84 1484.77 L2268.84 1480.07 Q2270.93 1481.2 2273.15 1481.76 Q2275.37 1482.32 2277.85 1482.32 Q2281.85 1482.32 2284.19 1480.21 Q2286.53 1478.1 2286.53 1474.49 Q2286.53 1470.88 2284.19 1468.77 Q2281.85 1466.67 2277.85 1466.67 Q2275.97 1466.67 2274.1 1467.08 Q2272.25 1467.5 2270.3 1468.38 L2270.3 1451.02 Z" fill="#000000" fill-rule="nonzero" fill-opacity="1" /><path clip-path="url(#clip780)" d="M2310.42 1454.1 Q2306.81 1454.1 2304.98 1457.66 Q2303.17 1461.2 2303.17 1468.33 Q2303.17 1475.44 2304.98 1479.01 Q2306.81 1482.55 2310.42 1482.55 Q2314.05 1482.55 2315.86 1479.01 Q2317.69 1475.44 2317.69 1468.33 Q2317.69 1461.2 2315.86 1457.66 Q2314.05 1454.1 2310.42 1454.1 M2310.42 1450.39 Q2316.23 1450.39 2319.28 1455 Q2322.36 1459.58 2322.36 1468.33 Q2322.36 1477.06 2319.28 1481.67 Q2316.23 1486.25 2310.42 1486.25 Q2304.61 1486.25 2301.53 1481.67 Q2298.47 1477.06 2298.47 1468.33 Q2298.47 1459.58 2301.53 1455 Q2304.61 1450.39 2310.42 1450.39 Z" fill="#000000" fill-rule="nonzero" fill-opacity="1" /><path clip-path="url(#clip780)" d="M1357.98 1546.53 L1357.98 1568.04 L1352.13 1568.04 L1352.13 1546.72 Q1352.13 1541.66 1350.15 1539.14 Q1348.18 1536.63 1344.23 1536.63 Q1339.49 1536.63 1336.76 1539.65 Q1334.02 1542.68 1334.02 1547.9 L1334.02 1568.04 L1328.13 1568.04 L1328.13 1532.4 L1334.02 1532.4 L1334.02 1537.93 Q1336.12 1534.72 1338.95 1533.13 Q1341.82 1531.54 1345.54 1531.54 Q1351.68 1531.54 1354.83 1535.36 Q1357.98 1539.14 1357.98 1546.53 Z" fill="#000000" fill-rule="nonzero" fill-opacity="1" /><polyline clip-path="url(#clip782)" style="stroke:#000000; stroke-linecap:round; stroke-linejoin:round; stroke-width:2; stroke-opacity:0.1; fill:none" points="333.358,1384.76 2352.76,1384.76 "/>
<polyline clip-path="url(#clip782)" style="stroke:#000000; stroke-linecap:round; stroke-linejoin:round; stroke-width:2; stroke-opacity:0.1; fill:none" points="333.358,1125.04 2352.76,1125.04 "/>
<polyline clip-path="url(#clip782)" style="stroke:#000000; stroke-linecap:round; stroke-linejoin:round; stroke-width:2; stroke-opacity:0.1; fill:none" points="333.358,865.329 2352.76,865.329 "/>
<polyline clip-path="url(#clip782)" style="stroke:#000000; stroke-linecap:round; stroke-linejoin:round; stroke-width:2; stroke-opacity:0.1; fill:none" points="333.358,605.614 2352.76,605.614 "/>
<polyline clip-path="url(#clip782)" style="stroke:#000000; stroke-linecap:round; stroke-linejoin:round; stroke-width:2; stroke-opacity:0.1; fill:none" points="333.358,345.9 2352.76,345.9 "/>
<polyline clip-path="url(#clip782)" style="stroke:#000000; stroke-linecap:round; stroke-linejoin:round; stroke-width:2; stroke-opacity:0.1; fill:none" points="333.358,86.1857 2352.76,86.1857 "/>
<polyline clip-path="url(#clip780)" style="stroke:#000000; stroke-linecap:round; stroke-linejoin:round; stroke-width:4; stroke-opacity:1; fill:none" points="333.358,1423.18 333.358,47.2441 "/>
<polyline clip-path="url(#clip780)" style="stroke:#000000; stroke-linecap:round; stroke-linejoin:round; stroke-width:4; stroke-opacity:1; fill:none" points="333.358,1384.76 352.256,1384.76 "/>
<polyline clip-path="url(#clip780)" style="stroke:#000000; stroke-linecap:round; stroke-linejoin:round; stroke-width:4; stroke-opacity:1; fill:none" points="333.358,1125.04 352.256,1125.04 "/>
<polyline clip-path="url(#clip780)" style="stroke:#000000; stroke-linecap:round; stroke-linejoin:round; stroke-width:4; stroke-opacity:1; fill:none" points="333.358,865.329 352.256,865.329 "/>
<polyline clip-path="url(#clip780)" style="stroke:#000000; stroke-linecap:round; stroke-linejoin:round; stroke-width:4; stroke-opacity:1; fill:none" points="333.358,605.614 352.256,605.614 "/>
<polyline clip-path="url(#clip780)" style="stroke:#000000; stroke-linecap:round; stroke-linejoin:round; stroke-width:4; stroke-opacity:1; fill:none" points="333.358,345.9 352.256,345.9 "/>
<polyline clip-path="url(#clip780)" style="stroke:#000000; stroke-linecap:round; stroke-linejoin:round; stroke-width:4; stroke-opacity:1; fill:none" points="333.358,86.1857 352.256,86.1857 "/>
<path clip-path="url(#clip780)" d="M211.016 1370.56 Q207.405 1370.56 205.576 1374.12 Q203.771 1377.66 203.771 1384.79 Q203.771 1391.9 205.576 1395.46 Q207.405 1399.01 211.016 1399.01 Q214.65 1399.01 216.456 1395.46 Q218.285 1391.9 218.285 1384.79 Q218.285 1377.66 216.456 1374.12 Q214.65 1370.56 211.016 1370.56 M211.016 1366.85 Q216.826 1366.85 219.882 1371.46 Q222.96 1376.04 222.96 1384.79 Q222.96 1393.52 219.882 1398.13 Q216.826 1402.71 211.016 1402.71 Q205.206 1402.71 202.127 1398.13 Q199.072 1393.52 199.072 1384.79 Q199.072 1376.04 202.127 1371.46 Q205.206 1366.85 211.016 1366.85 Z" fill="#000000" fill-rule="nonzero" fill-opacity="1" /><path clip-path="url(#clip780)" d="M231.178 1396.16 L236.062 1396.16 L236.062 1402.04 L231.178 1402.04 L231.178 1396.16 Z" fill="#000000" fill-rule="nonzero" fill-opacity="1" /><path clip-path="url(#clip780)" d="M250.275 1398.1 L266.595 1398.1 L266.595 1402.04 L244.65 1402.04 L244.65 1398.1 Q247.312 1395.35 251.896 1390.72 Q256.502 1386.07 257.683 1384.72 Q259.928 1382.2 260.808 1380.46 Q261.71 1378.7 261.71 1377.01 Q261.71 1374.26 259.766 1372.52 Q257.845 1370.79 254.743 1370.79 Q252.544 1370.79 250.09 1371.55 Q247.659 1372.32 244.882 1373.87 L244.882 1369.14 Q247.706 1368.01 250.159 1367.43 Q252.613 1366.85 254.65 1366.85 Q260.02 1366.85 263.215 1369.54 Q266.409 1372.22 266.409 1376.71 Q266.409 1378.84 265.599 1380.76 Q264.812 1382.66 262.706 1385.26 Q262.127 1385.93 259.025 1389.14 Q255.923 1392.34 250.275 1398.1 Z" fill="#000000" fill-rule="nonzero" fill-opacity="1" /><path clip-path="url(#clip780)" d="M276.456 1367.48 L294.812 1367.48 L294.812 1371.41 L280.738 1371.41 L280.738 1379.89 Q281.756 1379.54 282.775 1379.38 Q283.793 1379.19 284.812 1379.19 Q290.599 1379.19 293.979 1382.36 Q297.358 1385.53 297.358 1390.95 Q297.358 1396.53 293.886 1399.63 Q290.414 1402.71 284.094 1402.71 Q281.918 1402.71 279.65 1402.34 Q277.405 1401.97 274.997 1401.23 L274.997 1396.53 Q277.081 1397.66 279.303 1398.22 Q281.525 1398.77 284.002 1398.77 Q288.006 1398.77 290.344 1396.67 Q292.682 1394.56 292.682 1390.95 Q292.682 1387.34 290.344 1385.23 Q288.006 1383.13 284.002 1383.13 Q282.127 1383.13 280.252 1383.54 Q278.4 1383.96 276.456 1384.84 L276.456 1367.48 Z" fill="#000000" fill-rule="nonzero" fill-opacity="1" /><path clip-path="url(#clip780)" d="M210.021 1110.84 Q206.41 1110.84 204.581 1114.41 Q202.775 1117.95 202.775 1125.08 Q202.775 1132.18 204.581 1135.75 Q206.41 1139.29 210.021 1139.29 Q213.655 1139.29 215.461 1135.75 Q217.289 1132.18 217.289 1125.08 Q217.289 1117.95 215.461 1114.41 Q213.655 1110.84 210.021 1110.84 M210.021 1107.14 Q215.831 1107.14 218.886 1111.74 Q221.965 1116.33 221.965 1125.08 Q221.965 1133.8 218.886 1138.41 Q215.831 1142.99 210.021 1142.99 Q204.211 1142.99 201.132 1138.41 Q198.076 1133.8 198.076 1125.08 Q198.076 1116.33 201.132 1111.74 Q204.211 1107.14 210.021 1107.14 Z" fill="#000000" fill-rule="nonzero" fill-opacity="1" /><path clip-path="url(#clip780)" d="M230.183 1136.44 L235.067 1136.44 L235.067 1142.32 L230.183 1142.32 L230.183 1136.44 Z" fill="#000000" fill-rule="nonzero" fill-opacity="1" /><path clip-path="url(#clip780)" d="M259.419 1123.69 Q262.775 1124.41 264.65 1126.68 Q266.548 1128.94 266.548 1132.28 Q266.548 1137.39 263.03 1140.19 Q259.511 1142.99 253.03 1142.99 Q250.854 1142.99 248.539 1142.55 Q246.247 1142.14 243.794 1141.28 L243.794 1136.77 Q245.738 1137.9 248.053 1138.48 Q250.368 1139.06 252.891 1139.06 Q257.289 1139.06 259.581 1137.32 Q261.895 1135.59 261.895 1132.28 Q261.895 1129.22 259.743 1127.51 Q257.613 1125.77 253.794 1125.77 L249.766 1125.77 L249.766 1121.93 L253.979 1121.93 Q257.428 1121.93 259.257 1120.56 Q261.085 1119.18 261.085 1116.58 Q261.085 1113.92 259.187 1112.51 Q257.312 1111.07 253.794 1111.07 Q251.872 1111.07 249.673 1111.49 Q247.474 1111.91 244.835 1112.79 L244.835 1108.62 Q247.497 1107.88 249.812 1107.51 Q252.15 1107.14 254.21 1107.14 Q259.534 1107.14 262.636 1109.57 Q265.738 1111.98 265.738 1116.1 Q265.738 1118.97 264.095 1120.96 Q262.451 1122.93 259.419 1123.69 Z" fill="#000000" fill-rule="nonzero" fill-opacity="1" /><path clip-path="url(#clip780)" d="M285.414 1110.84 Q281.803 1110.84 279.974 1114.41 Q278.169 1117.95 278.169 1125.08 Q278.169 1132.18 279.974 1135.75 Q281.803 1139.29 285.414 1139.29 Q289.048 1139.29 290.854 1135.75 Q292.682 1132.18 292.682 1125.08 Q292.682 1117.95 290.854 1114.41 Q289.048 1110.84 285.414 1110.84 M285.414 1107.14 Q291.224 1107.14 294.28 1111.74 Q297.358 1116.33 297.358 1125.08 Q297.358 1133.8 294.28 1138.41 Q291.224 1142.99 285.414 1142.99 Q279.604 1142.99 276.525 1138.41 Q273.469 1133.8 273.469 1125.08 Q273.469 1116.33 276.525 1111.74 Q279.604 1107.14 285.414 1107.14 Z" fill="#000000" fill-rule="nonzero" fill-opacity="1" /><path clip-path="url(#clip780)" d="M211.016 851.128 Q207.405 851.128 205.576 854.692 Q203.771 858.234 203.771 865.364 Q203.771 872.47 205.576 876.035 Q207.405 879.576 211.016 879.576 Q214.65 879.576 216.456 876.035 Q218.285 872.47 218.285 865.364 Q218.285 858.234 216.456 854.692 Q214.65 851.128 211.016 851.128 M211.016 847.424 Q216.826 847.424 219.882 852.03 Q222.96 856.614 222.96 865.364 Q222.96 874.09 219.882 878.697 Q216.826 883.28 211.016 883.28 Q205.206 883.28 202.127 878.697 Q199.072 874.09 199.072 865.364 Q199.072 856.614 202.127 852.03 Q205.206 847.424 211.016 847.424 Z" fill="#000000" fill-rule="nonzero" fill-opacity="1" /><path clip-path="url(#clip780)" d="M231.178 876.729 L236.062 876.729 L236.062 882.609 L231.178 882.609 L231.178 876.729 Z" fill="#000000" fill-rule="nonzero" fill-opacity="1" /><path clip-path="url(#clip780)" d="M260.414 863.975 Q263.77 864.692 265.645 866.961 Q267.544 869.229 267.544 872.563 Q267.544 877.678 264.025 880.479 Q260.507 883.28 254.025 883.28 Q251.849 883.28 249.534 882.84 Q247.243 882.424 244.789 881.567 L244.789 877.053 Q246.734 878.188 249.048 878.766 Q251.363 879.345 253.886 879.345 Q258.284 879.345 260.576 877.609 Q262.891 875.873 262.891 872.563 Q262.891 869.507 260.738 867.794 Q258.608 866.058 254.789 866.058 L250.761 866.058 L250.761 862.215 L254.974 862.215 Q258.423 862.215 260.252 860.85 Q262.081 859.461 262.081 856.868 Q262.081 854.206 260.183 852.794 Q258.308 851.359 254.789 851.359 Q252.868 851.359 250.669 851.776 Q248.47 852.192 245.831 853.072 L245.831 848.905 Q248.493 848.165 250.808 847.794 Q253.146 847.424 255.206 847.424 Q260.53 847.424 263.632 849.854 Q266.733 852.262 266.733 856.382 Q266.733 859.253 265.09 861.243 Q263.446 863.211 260.414 863.975 Z" fill="#000000" fill-rule="nonzero" fill-opacity="1" /><path clip-path="url(#clip780)" d="M276.456 848.049 L294.812 848.049 L294.812 851.984 L280.738 851.984 L280.738 860.456 Q281.756 860.109 282.775 859.947 Q283.793 859.762 284.812 859.762 Q290.599 859.762 293.979 862.933 Q297.358 866.104 297.358 871.521 Q297.358 877.1 293.886 880.201 Q290.414 883.28 284.094 883.28 Q281.918 883.28 279.65 882.91 Q277.405 882.539 274.997 881.799 L274.997 877.1 Q277.081 878.234 279.303 878.789 Q281.525 879.345 284.002 879.345 Q288.006 879.345 290.344 877.239 Q292.682 875.132 292.682 871.521 Q292.682 867.91 290.344 865.803 Q288.006 863.697 284.002 863.697 Q282.127 863.697 280.252 864.114 Q278.4 864.53 276.456 865.41 L276.456 848.049 Z" fill="#000000" fill-rule="nonzero" fill-opacity="1" /><path clip-path="url(#clip780)" d="M210.021 591.413 Q206.41 591.413 204.581 594.978 Q202.775 598.52 202.775 605.649 Q202.775 612.756 204.581 616.32 Q206.41 619.862 210.021 619.862 Q213.655 619.862 215.461 616.32 Q217.289 612.756 217.289 605.649 Q217.289 598.52 215.461 594.978 Q213.655 591.413 210.021 591.413 M210.021 587.709 Q215.831 587.709 218.886 592.316 Q221.965 596.899 221.965 605.649 Q221.965 614.376 218.886 618.982 Q215.831 623.566 210.021 623.566 Q204.211 623.566 201.132 618.982 Q198.076 614.376 198.076 605.649 Q198.076 596.899 201.132 592.316 Q204.211 587.709 210.021 587.709 Z" fill="#000000" fill-rule="nonzero" fill-opacity="1" /><path clip-path="url(#clip780)" d="M230.183 617.015 L235.067 617.015 L235.067 622.894 L230.183 622.894 L230.183 617.015 Z" fill="#000000" fill-rule="nonzero" fill-opacity="1" /><path clip-path="url(#clip780)" d="M258.099 592.409 L246.294 610.858 L258.099 610.858 L258.099 592.409 M256.872 588.334 L262.752 588.334 L262.752 610.858 L267.682 610.858 L267.682 614.746 L262.752 614.746 L262.752 622.894 L258.099 622.894 L258.099 614.746 L242.497 614.746 L242.497 610.233 L256.872 588.334 Z" fill="#000000" fill-rule="nonzero" fill-opacity="1" /><path clip-path="url(#clip780)" d="M285.414 591.413 Q281.803 591.413 279.974 594.978 Q278.169 598.52 278.169 605.649 Q278.169 612.756 279.974 616.32 Q281.803 619.862 285.414 619.862 Q289.048 619.862 290.854 616.32 Q292.682 612.756 292.682 605.649 Q292.682 598.52 290.854 594.978 Q289.048 591.413 285.414 591.413 M285.414 587.709 Q291.224 587.709 294.28 592.316 Q297.358 596.899 297.358 605.649 Q297.358 614.376 294.28 618.982 Q291.224 623.566 285.414 623.566 Q279.604 623.566 276.525 618.982 Q273.469 614.376 273.469 605.649 Q273.469 596.899 276.525 592.316 Q279.604 587.709 285.414 587.709 Z" fill="#000000" fill-rule="nonzero" fill-opacity="1" /><path clip-path="url(#clip780)" d="M211.016 331.699 Q207.405 331.699 205.576 335.264 Q203.771 338.805 203.771 345.935 Q203.771 353.041 205.576 356.606 Q207.405 360.148 211.016 360.148 Q214.65 360.148 216.456 356.606 Q218.285 353.041 218.285 345.935 Q218.285 338.805 216.456 335.264 Q214.65 331.699 211.016 331.699 M211.016 327.995 Q216.826 327.995 219.882 332.602 Q222.96 337.185 222.96 345.935 Q222.96 354.662 219.882 359.268 Q216.826 363.851 211.016 363.851 Q205.206 363.851 202.127 359.268 Q199.072 354.662 199.072 345.935 Q199.072 337.185 202.127 332.602 Q205.206 327.995 211.016 327.995 Z" fill="#000000" fill-rule="nonzero" fill-opacity="1" /><path clip-path="url(#clip780)" d="M231.178 357.3 L236.062 357.3 L236.062 363.18 L231.178 363.18 L231.178 357.3 Z" fill="#000000" fill-rule="nonzero" fill-opacity="1" /><path clip-path="url(#clip780)" d="M259.095 332.694 L247.289 351.143 L259.095 351.143 L259.095 332.694 M257.868 328.62 L263.747 328.62 L263.747 351.143 L268.678 351.143 L268.678 355.032 L263.747 355.032 L263.747 363.18 L259.095 363.18 L259.095 355.032 L243.493 355.032 L243.493 350.518 L257.868 328.62 Z" fill="#000000" fill-rule="nonzero" fill-opacity="1" /><path clip-path="url(#clip780)" d="M276.456 328.62 L294.812 328.62 L294.812 332.555 L280.738 332.555 L280.738 341.027 Q281.756 340.68 282.775 340.518 Q283.793 340.333 284.812 340.333 Q290.599 340.333 293.979 343.504 Q297.358 346.676 297.358 352.092 Q297.358 357.671 293.886 360.773 Q290.414 363.851 284.094 363.851 Q281.918 363.851 279.65 363.481 Q277.405 363.111 274.997 362.37 L274.997 357.671 Q277.081 358.805 279.303 359.361 Q281.525 359.916 284.002 359.916 Q288.006 359.916 290.344 357.81 Q292.682 355.703 292.682 352.092 Q292.682 348.481 290.344 346.375 Q288.006 344.268 284.002 344.268 Q282.127 344.268 280.252 344.685 Q278.4 345.101 276.456 345.981 L276.456 328.62 Z" fill="#000000" fill-rule="nonzero" fill-opacity="1" /><path clip-path="url(#clip780)" d="M210.021 71.9844 Q206.41 71.9844 204.581 75.5492 Q202.775 79.0908 202.775 86.2204 Q202.775 93.3268 204.581 96.8916 Q206.41 100.433 210.021 100.433 Q213.655 100.433 215.461 96.8916 Q217.289 93.3268 217.289 86.2204 Q217.289 79.0908 215.461 75.5492 Q213.655 71.9844 210.021 71.9844 M210.021 68.2807 Q215.831 68.2807 218.886 72.8871 Q221.965 77.4704 221.965 86.2204 Q221.965 94.9472 218.886 99.5537 Q215.831 104.137 210.021 104.137 Q204.211 104.137 201.132 99.5537 Q198.076 94.9472 198.076 86.2204 Q198.076 77.4704 201.132 72.8871 Q204.211 68.2807 210.021 68.2807 Z" fill="#000000" fill-rule="nonzero" fill-opacity="1" /><path clip-path="url(#clip780)" d="M230.183 97.5861 L235.067 97.5861 L235.067 103.466 L230.183 103.466 L230.183 97.5861 Z" fill="#000000" fill-rule="nonzero" fill-opacity="1" /><path clip-path="url(#clip780)" d="M245.298 68.9057 L263.655 68.9057 L263.655 72.8408 L249.581 72.8408 L249.581 81.313 Q250.599 80.9658 251.618 80.8038 Q252.636 80.6186 253.655 80.6186 Q259.442 80.6186 262.821 83.7899 Q266.201 86.9611 266.201 92.3778 Q266.201 97.9564 262.729 101.058 Q259.257 104.137 252.937 104.137 Q250.761 104.137 248.493 103.767 Q246.247 103.396 243.84 102.655 L243.84 97.9564 Q245.923 99.0907 248.146 99.6462 Q250.368 100.202 252.845 100.202 Q256.849 100.202 259.187 98.0953 Q261.525 95.9889 261.525 92.3778 Q261.525 88.7667 259.187 86.6602 Q256.849 84.5537 252.845 84.5537 Q250.97 84.5537 249.095 84.9704 Q247.243 85.3871 245.298 86.2667 L245.298 68.9057 Z" fill="#000000" fill-rule="nonzero" fill-opacity="1" /><path clip-path="url(#clip780)" d="M285.414 71.9844 Q281.803 71.9844 279.974 75.5492 Q278.169 79.0908 278.169 86.2204 Q278.169 93.3268 279.974 96.8916 Q281.803 100.433 285.414 100.433 Q289.048 100.433 290.854 96.8916 Q292.682 93.3268 292.682 86.2204 Q292.682 79.0908 290.854 75.5492 Q289.048 71.9844 285.414 71.9844 M285.414 68.2807 Q291.224 68.2807 294.28 72.8871 Q297.358 77.4704 297.358 86.2204 Q297.358 94.9472 294.28 99.5537 Q291.224 104.137 285.414 104.137 Q279.604 104.137 276.525 99.5537 Q273.469 94.9472 273.469 86.2204 Q273.469 77.4704 276.525 72.8871 Q279.604 68.2807 285.414 68.2807 Z" fill="#000000" fill-rule="nonzero" fill-opacity="1" /><path clip-path="url(#clip780)" d="M44.2885 785.866 Q46.0196 785.866 46.9455 786.913 Q47.8312 787.959 47.8312 789.328 Q47.8312 790.657 46.9455 791.703 Q46.0196 792.71 44.3691 792.71 Q43.2419 792.71 42.2354 791.985 Q41.1887 791.26 40.9874 789.65 Q39.2564 791.663 39.2564 794.843 Q39.2564 796.413 39.8602 797.5 Q40.4238 798.547 42.1549 799.594 Q43.886 800.64 47.4286 801.365 Q50.9713 802.049 56.4865 802.492 L77.0177 804.062 Q83.9823 804.545 97.6698 806.276 Q111.317 807.967 114.457 808.772 Q117.436 809.497 119.892 810.584 Q122.347 811.671 124.481 813.281 Q126.655 814.891 127.863 817.226 Q129.07 819.561 129.07 822.379 Q129.07 826.123 127.098 828.78 Q125.166 831.437 122.227 831.437 Q120.496 831.437 119.57 830.39 Q118.684 829.344 118.684 827.975 Q118.684 826.647 119.57 825.64 Q120.496 824.593 122.146 824.593 Q123.273 824.593 124.28 825.318 Q125.327 826.043 125.528 827.653 Q127.259 825.64 127.259 822.379 Q127.259 819.883 125.81 818.233 Q124.36 816.582 120.496 815.375 Q116.631 814.167 110.029 813.643 L89.4975 812.073 Q82.2512 811.55 68.765 809.859 Q55.2788 808.128 51.7361 807.363 Q37.4448 804.143 37.4448 794.924 Q37.4448 791.18 39.4174 788.523 Q41.3498 785.866 44.2885 785.866 Z" fill="#000000" fill-rule="nonzero" fill-opacity="1" /><path clip-path="url(#clip780)" d="M166.004 823.064 Q159.218 823.064 155.521 821.351 Q150.02 818.961 150.02 813.325 Q150.02 812.13 150.359 810.89 Q150.674 809.628 151.914 808.05 Q153.154 806.449 155.183 805.48 Q159.106 803.631 166.004 803.631 Q172.745 803.631 176.42 805.344 Q181.785 807.847 181.785 813.37 Q181.785 815.444 180.725 817.563 Q179.666 819.66 177.118 820.99 Q173.308 823.064 166.004 823.064 M165.441 819.232 Q172.407 819.232 175.18 818.736 Q178.178 818.172 179.486 816.639 Q180.771 815.083 180.771 813.37 Q180.771 811.521 179.395 809.988 Q177.998 808.433 174.999 807.96 Q172.046 807.441 165.441 807.464 Q159.015 807.464 156.445 807.914 Q153.447 808.523 152.252 810.146 Q151.035 811.747 151.035 813.37 Q151.035 813.979 151.215 814.633 Q151.396 815.264 151.914 816.188 Q152.433 817.112 153.718 817.834 Q155.003 818.533 156.941 818.871 Q159.444 819.232 165.441 819.232 Z" fill="#000000" fill-rule="nonzero" fill-opacity="1" /><path clip-path="url(#clip780)" d="M-11.1206 820.991 L-12.5635 820.991 Q-12.5635 815.446 -15.5167 812.582 Q-15.5167 811.793 -15.3364 811.658 Q-15.156 811.523 -14.3219 811.523 L11.5813 811.523 Q12.9565 811.523 13.3848 810.847 Q13.8131 810.17 13.8131 807.217 L13.8131 805.752 L15.2334 805.752 Q15.0982 807.375 15.0982 813.236 Q15.0982 819.098 15.2334 820.698 L13.8131 820.698 L13.8131 819.233 Q13.8131 816.325 13.4074 815.626 Q12.979 814.927 11.5813 814.927 L-12.338 814.927 Q-11.1206 817.339 -11.1206 820.991 Z" fill="#000000" fill-rule="nonzero" fill-opacity="1" /><path clip-path="url(#clip780)" d="M79.0306 739.382 Q80.8341 739.382 81.8647 740.509 Q82.8631 741.637 82.8631 742.925 Q82.8631 744.149 82.1546 744.793 Q81.4461 745.437 80.5443 745.437 Q79.3205 745.437 78.2577 744.535 Q77.1949 743.633 76.9694 742.281 Q76.1321 743.601 76.1321 745.566 Q76.1321 746.854 76.8084 747.981 Q77.4847 749.076 78.3543 749.752 Q79.2239 750.397 80.4799 750.976 Q81.7037 751.524 82.4444 751.749 Q83.153 751.942 83.9259 752.104 L92.9435 754.358 Q97.2269 755.453 98.7406 755.453 Q100.609 755.453 101.865 754.551 Q103.088 753.649 103.088 751.846 Q103.088 751.137 102.895 750.332 Q102.67 749.527 102.09 748.496 Q101.478 747.434 100.576 746.5 Q99.6424 745.534 98.0643 744.6 Q96.4862 743.666 94.4572 743.054 Q93.7487 742.86 93.7487 742.216 Q93.7487 741.411 94.3928 741.411 Q94.9403 741.411 96.0997 741.862 Q97.2269 742.281 98.7084 743.215 Q100.158 744.116 101.478 745.308 Q102.766 746.5 103.668 748.271 Q104.57 750.042 104.57 751.975 Q104.57 754.744 103.088 756.58 Q101.607 758.416 99.5457 759.092 Q99.8356 759.253 100.222 759.479 Q100.609 759.704 101.478 760.38 Q102.315 761.025 102.96 761.765 Q103.571 762.506 104.055 763.665 Q104.57 764.793 104.57 766.016 Q104.57 767.562 104.119 768.947 Q103.668 770.3 102.638 771.266 Q101.607 772.232 100.19 772.232 Q98.6118 772.232 97.5168 771.169 Q96.3896 770.074 96.3896 768.593 Q96.3896 767.659 96.9371 766.918 Q97.4846 766.145 98.6762 766.145 Q99.9966 766.145 100.995 767.047 Q101.993 767.949 102.251 769.237 Q103.088 767.917 103.088 765.952 Q103.088 763.826 101.22 762.152 Q99.3525 760.477 96.2285 759.672 Q88.7246 757.675 85.3752 756.902 Q81.9936 756.129 80.5443 756.129 Q79.1916 756.129 78.2577 756.484 Q77.3237 756.838 76.905 757.45 Q76.4541 758.029 76.2931 758.577 Q76.1321 759.092 76.1321 759.672 Q76.1321 760.638 76.5186 761.733 Q76.905 762.796 77.8068 764.084 Q78.6764 765.34 80.4799 766.532 Q82.2834 767.723 84.7633 768.529 Q85.504 768.69 85.504 769.398 Q85.4718 770.171 84.8277 770.171 Q84.2802 770.171 83.153 769.752 Q81.9936 769.301 80.5443 768.4 Q79.095 767.466 77.8068 766.274 Q76.4864 765.05 75.5846 763.279 Q74.6828 761.475 74.6828 759.543 Q74.6828 758.674 74.8761 757.836 Q75.0371 756.967 75.5202 755.936 Q76.0033 754.873 77.0661 753.939 Q78.1289 753.005 79.6747 752.426 Q78.934 752.039 78.2255 751.524 Q77.5169 750.976 76.6474 750.139 Q75.7456 749.269 75.2303 748.078 Q74.6828 746.854 74.6828 745.501 Q74.6828 744.181 75.0371 742.893 Q75.3591 741.604 76.4219 740.509 Q77.4525 739.382 79.0306 739.382 Z" fill="#000000" fill-rule="nonzero" fill-opacity="1" /><path clip-path="url(#clip780)" d="M76.864 732.661 Q75.4888 732.661 74.835 731.872 Q74.1812 731.083 74.1812 730.068 Q74.1812 729.009 74.8801 728.265 Q75.5564 727.498 76.7513 727.498 Q78.0363 727.498 78.7577 728.4 Q79.4791 729.279 79.2988 730.542 Q81.1474 729.437 81.9815 727.408 Q82.8156 725.357 82.8156 723.463 Q82.8156 721.479 81.1023 719.878 Q79.3889 718.255 75.1957 718.255 Q71.6338 718.255 69.5822 719.653 Q67.5307 721.028 67.5307 723.756 L67.5307 725.785 Q67.5307 726.484 67.4631 726.687 Q67.3955 726.89 67.0122 726.89 Q66.5613 726.89 66.4712 726.191 Q66.4712 725.492 66.3359 724.387 Q66.2457 721.704 63.9237 720.284 Q61.7594 718.999 58.6709 718.999 Q55.8529 718.999 54.6806 720.352 Q53.4858 721.682 53.4858 723.418 Q53.4858 725.041 54.1621 726.822 Q54.8384 728.603 56.3489 729.572 Q56.3489 726.709 58.6709 726.709 Q59.6854 726.709 60.3617 727.363 Q61.0155 727.994 61.0155 729.054 Q61.0155 730.068 60.3842 730.745 Q59.7305 731.421 58.6258 731.421 Q55.9881 731.421 54.1621 729.076 Q52.336 726.709 52.336 723.237 Q52.336 719.811 54.1395 717.286 Q55.9431 714.738 58.716 714.738 Q61.4438 714.738 63.6757 716.542 Q65.9076 718.345 66.8319 721.209 Q67.5307 717.692 69.9204 715.595 Q72.2875 713.498 75.1957 713.498 Q78.8028 713.498 81.463 716.339 Q84.1006 719.18 84.1006 723.328 Q84.1006 727.16 82.0266 729.911 Q79.9525 732.661 76.864 732.661 Z" fill="#000000" fill-rule="nonzero" fill-opacity="1" /><path clip-path="url(#clip780)" d="M58.7731 675.244 L96.9049 684.744 Q98.6118 685.131 100.061 685.131 Q103.088 685.131 103.088 683.166 Q103.088 682.2 102.476 681.427 Q101.865 680.654 100.576 680.042 Q99.2881 679.43 98.0965 679.044 Q96.8727 678.657 94.9403 678.142 Q94.1674 677.981 93.9741 677.852 Q93.7487 677.691 93.7487 677.24 Q93.7487 676.435 94.3928 676.435 Q98.5474 677.305 100.931 678.432 Q104.57 680.236 104.57 683.295 Q104.57 685.614 103.153 687.256 Q101.736 688.899 99.6102 689.285 Q104.57 693.504 104.57 697.884 Q104.57 701.749 101.639 704.197 Q98.6762 706.644 94.0063 706.644 Q89.3043 706.644 84.7955 704.326 Q80.2866 701.975 77.4847 698.271 Q74.6828 694.567 74.6828 690.767 Q74.6828 686.741 78.9018 684.68 L63.2497 680.719 L61.9615 680.525 Q61.575 680.525 61.3818 680.686 Q61.1564 680.815 60.9953 681.588 Q60.8343 682.329 60.8343 683.81 Q60.8343 684.422 60.8021 684.712 Q60.7699 684.97 60.6089 685.195 Q60.4156 685.421 60.0292 685.421 Q58.902 685.421 58.7731 684.487 Q58.0646 678.303 58.0646 676.113 Q58.0646 675.727 58.2578 675.501 Q58.4189 675.276 58.6121 675.276 L58.7731 675.244 M81.9291 685.485 Q81.6393 685.485 80.8341 685.711 Q80.029 685.936 78.9018 686.451 Q77.7746 686.967 76.9694 688.094 Q76.1321 689.189 76.1321 690.67 Q76.1321 692.667 77.839 694.76 Q79.5459 696.822 82.4444 698.335 Q84.7633 699.495 89.6263 700.751 Q94.4894 701.975 96.9049 701.975 Q98.3863 701.975 99.7068 701.652 Q100.995 701.298 102.058 700.3 Q103.088 699.301 103.088 697.756 Q103.088 693.987 98.4185 690.284 Q97.6134 689.575 97.2913 689.414 Q96.9371 689.221 95.9709 688.963 L83.0563 685.678 Q82.0902 685.485 81.9291 685.485 Z" fill="#000000" fill-rule="nonzero" fill-opacity="1" /><path clip-path="url(#clip780)" d="M79.0306 640.91 Q80.8341 640.91 81.8647 642.038 Q82.8631 643.165 82.8631 644.453 Q82.8631 645.677 82.1546 646.321 Q81.4461 646.965 80.5443 646.965 Q79.3205 646.965 78.2577 646.063 Q77.1949 645.162 76.9694 643.809 Q76.1321 645.129 76.1321 647.094 Q76.1321 648.382 76.8084 649.509 Q77.4847 650.604 78.3543 651.281 Q79.2239 651.925 80.4799 652.504 Q81.7037 653.052 82.4444 653.277 Q83.153 653.471 83.9259 653.632 L92.9435 655.886 Q97.2269 656.981 98.7406 656.981 Q100.609 656.981 101.865 656.079 Q103.088 655.178 103.088 653.374 Q103.088 652.666 102.895 651.86 Q102.67 651.055 102.09 650.025 Q101.478 648.962 100.576 648.028 Q99.6424 647.062 98.0643 646.128 Q96.4862 645.194 94.4572 644.582 Q93.7487 644.389 93.7487 643.744 Q93.7487 642.939 94.3928 642.939 Q94.9403 642.939 96.0997 643.39 Q97.2269 643.809 98.7084 644.743 Q100.158 645.645 101.478 646.836 Q102.766 648.028 103.668 649.799 Q104.57 651.571 104.57 653.503 Q104.57 656.273 103.088 658.108 Q101.607 659.944 99.5457 660.62 Q99.8356 660.781 100.222 661.007 Q100.609 661.232 101.478 661.909 Q102.315 662.553 102.96 663.293 Q103.571 664.034 104.055 665.194 Q104.57 666.321 104.57 667.545 Q104.57 669.091 104.119 670.475 Q103.668 671.828 102.638 672.794 Q101.607 673.76 100.19 673.76 Q98.6118 673.76 97.5168 672.698 Q96.3896 671.603 96.3896 670.121 Q96.3896 669.187 96.9371 668.446 Q97.4846 667.673 98.6762 667.673 Q99.9966 667.673 100.995 668.575 Q101.993 669.477 102.251 670.765 Q103.088 669.445 103.088 667.48 Q103.088 665.355 101.22 663.68 Q99.3525 662.005 96.2285 661.2 Q88.7246 659.203 85.3752 658.43 Q81.9936 657.657 80.5443 657.657 Q79.1916 657.657 78.2577 658.012 Q77.3237 658.366 76.905 658.978 Q76.4541 659.558 76.2931 660.105 Q76.1321 660.62 76.1321 661.2 Q76.1321 662.166 76.5186 663.261 Q76.905 664.324 77.8068 665.612 Q78.6764 666.868 80.4799 668.06 Q82.2834 669.252 84.7633 670.057 Q85.504 670.218 85.504 670.926 Q85.4718 671.699 84.8277 671.699 Q84.2802 671.699 83.153 671.281 Q81.9936 670.83 80.5443 669.928 Q79.095 668.994 77.8068 667.802 Q76.4864 666.578 75.5846 664.807 Q74.6828 663.004 74.6828 661.071 Q74.6828 660.202 74.8761 659.364 Q75.0371 658.495 75.5202 657.464 Q76.0033 656.401 77.0661 655.467 Q78.1289 654.533 79.6747 653.954 Q78.934 653.567 78.2255 653.052 Q77.5169 652.504 76.6474 651.667 Q75.7456 650.798 75.2303 649.606 Q74.6828 648.382 74.6828 647.029 Q74.6828 645.709 75.0371 644.421 Q75.3591 643.133 76.4219 642.038 Q77.4525 640.91 79.0306 640.91 Z" fill="#000000" fill-rule="nonzero" fill-opacity="1" /><polyline clip-path="url(#clip782)" style="stroke:#009af9; stroke-linecap:round; stroke-linejoin:round; stroke-width:4; stroke-opacity:1; fill:none" points="390.511,86.1857 429.39,1060.11 468.27,1240.47 507.149,1303.6 546.029,1332.81 584.908,1348.69 623.788,1358.26 662.667,1364.47 701.546,1368.73 740.426,1371.77 779.305,1374.03 818.185,1375.74 857.064,1377.07 895.944,1378.13 934.823,1378.99 973.702,1379.69 1012.58,1380.26 1051.46,1380.75 1090.34,1381.16 1129.22,1381.51 1168.1,1381.81 1206.98,1382.07 1245.86,1382.3 1284.74,1382.5 1323.62,1382.68 1362.5,1382.84 1401.38,1382.98 1440.26,1383.1 1479.14,1383.21 1518.01,1383.31 1556.89,1383.41 1595.77,1383.49 1634.65,1383.57 1673.53,1383.63 1712.41,1383.7 1751.29,1383.76 1790.17,1383.81 1829.05,1383.86 1867.93,1383.9 1906.81,1383.95 1945.69,1383.99 1984.57,1384.02 2023.45,1384.06 2062.33,1384.09 2101.21,1384.12 2140.09,1384.14 2178.96,1384.17 2217.84,1384.19 2256.72,1384.22 2295.6,1384.24 "/>
<circle clip-path="url(#clip782)" cx="390.511" cy="86.1857" r="14.4" fill="#e26f46" fill-rule="evenodd" fill-opacity="1" stroke="#000000" stroke-opacity="1" stroke-width="3.2"/>
<circle clip-path="url(#clip782)" cx="429.39" cy="1060.11" r="14.4" fill="#e26f46" fill-rule="evenodd" fill-opacity="1" stroke="#000000" stroke-opacity="1" stroke-width="3.2"/>
<circle clip-path="url(#clip782)" cx="468.27" cy="1240.47" r="14.4" fill="#e26f46" fill-rule="evenodd" fill-opacity="1" stroke="#000000" stroke-opacity="1" stroke-width="3.2"/>
<circle clip-path="url(#clip782)" cx="507.149" cy="1303.6" r="14.4" fill="#e26f46" fill-rule="evenodd" fill-opacity="1" stroke="#000000" stroke-opacity="1" stroke-width="3.2"/>
<circle clip-path="url(#clip782)" cx="546.029" cy="1332.81" r="14.4" fill="#e26f46" fill-rule="evenodd" fill-opacity="1" stroke="#000000" stroke-opacity="1" stroke-width="3.2"/>
<circle clip-path="url(#clip782)" cx="584.908" cy="1348.69" r="14.4" fill="#e26f46" fill-rule="evenodd" fill-opacity="1" stroke="#000000" stroke-opacity="1" stroke-width="3.2"/>
<circle clip-path="url(#clip782)" cx="623.788" cy="1358.26" r="14.4" fill="#e26f46" fill-rule="evenodd" fill-opacity="1" stroke="#000000" stroke-opacity="1" stroke-width="3.2"/>
<circle clip-path="url(#clip782)" cx="662.667" cy="1364.47" r="14.4" fill="#e26f46" fill-rule="evenodd" fill-opacity="1" stroke="#000000" stroke-opacity="1" stroke-width="3.2"/>
<circle clip-path="url(#clip782)" cx="701.546" cy="1368.73" r="14.4" fill="#e26f46" fill-rule="evenodd" fill-opacity="1" stroke="#000000" stroke-opacity="1" stroke-width="3.2"/>
<circle clip-path="url(#clip782)" cx="740.426" cy="1371.77" r="14.4" fill="#e26f46" fill-rule="evenodd" fill-opacity="1" stroke="#000000" stroke-opacity="1" stroke-width="3.2"/>
<circle clip-path="url(#clip782)" cx="779.305" cy="1374.03" r="14.4" fill="#e26f46" fill-rule="evenodd" fill-opacity="1" stroke="#000000" stroke-opacity="1" stroke-width="3.2"/>
<circle clip-path="url(#clip782)" cx="818.185" cy="1375.74" r="14.4" fill="#e26f46" fill-rule="evenodd" fill-opacity="1" stroke="#000000" stroke-opacity="1" stroke-width="3.2"/>
<circle clip-path="url(#clip782)" cx="857.064" cy="1377.07" r="14.4" fill="#e26f46" fill-rule="evenodd" fill-opacity="1" stroke="#000000" stroke-opacity="1" stroke-width="3.2"/>
<circle clip-path="url(#clip782)" cx="895.944" cy="1378.13" r="14.4" fill="#e26f46" fill-rule="evenodd" fill-opacity="1" stroke="#000000" stroke-opacity="1" stroke-width="3.2"/>
<circle clip-path="url(#clip782)" cx="934.823" cy="1378.99" r="14.4" fill="#e26f46" fill-rule="evenodd" fill-opacity="1" stroke="#000000" stroke-opacity="1" stroke-width="3.2"/>
<circle clip-path="url(#clip782)" cx="973.702" cy="1379.69" r="14.4" fill="#e26f46" fill-rule="evenodd" fill-opacity="1" stroke="#000000" stroke-opacity="1" stroke-width="3.2"/>
<circle clip-path="url(#clip782)" cx="1012.58" cy="1380.26" r="14.4" fill="#e26f46" fill-rule="evenodd" fill-opacity="1" stroke="#000000" stroke-opacity="1" stroke-width="3.2"/>
<circle clip-path="url(#clip782)" cx="1051.46" cy="1380.75" r="14.4" fill="#e26f46" fill-rule="evenodd" fill-opacity="1" stroke="#000000" stroke-opacity="1" stroke-width="3.2"/>
<circle clip-path="url(#clip782)" cx="1090.34" cy="1381.16" r="14.4" fill="#e26f46" fill-rule="evenodd" fill-opacity="1" stroke="#000000" stroke-opacity="1" stroke-width="3.2"/>
<circle clip-path="url(#clip782)" cx="1129.22" cy="1381.51" r="14.4" fill="#e26f46" fill-rule="evenodd" fill-opacity="1" stroke="#000000" stroke-opacity="1" stroke-width="3.2"/>
<circle clip-path="url(#clip782)" cx="1168.1" cy="1381.81" r="14.4" fill="#e26f46" fill-rule="evenodd" fill-opacity="1" stroke="#000000" stroke-opacity="1" stroke-width="3.2"/>
<circle clip-path="url(#clip782)" cx="1206.98" cy="1382.07" r="14.4" fill="#e26f46" fill-rule="evenodd" fill-opacity="1" stroke="#000000" stroke-opacity="1" stroke-width="3.2"/>
<circle clip-path="url(#clip782)" cx="1245.86" cy="1382.3" r="14.4" fill="#e26f46" fill-rule="evenodd" fill-opacity="1" stroke="#000000" stroke-opacity="1" stroke-width="3.2"/>
<circle clip-path="url(#clip782)" cx="1284.74" cy="1382.5" r="14.4" fill="#e26f46" fill-rule="evenodd" fill-opacity="1" stroke="#000000" stroke-opacity="1" stroke-width="3.2"/>
<circle clip-path="url(#clip782)" cx="1323.62" cy="1382.68" r="14.4" fill="#e26f46" fill-rule="evenodd" fill-opacity="1" stroke="#000000" stroke-opacity="1" stroke-width="3.2"/>
<circle clip-path="url(#clip782)" cx="1362.5" cy="1382.84" r="14.4" fill="#e26f46" fill-rule="evenodd" fill-opacity="1" stroke="#000000" stroke-opacity="1" stroke-width="3.2"/>
<circle clip-path="url(#clip782)" cx="1401.38" cy="1382.98" r="14.4" fill="#e26f46" fill-rule="evenodd" fill-opacity="1" stroke="#000000" stroke-opacity="1" stroke-width="3.2"/>
<circle clip-path="url(#clip782)" cx="1440.26" cy="1383.1" r="14.4" fill="#e26f46" fill-rule="evenodd" fill-opacity="1" stroke="#000000" stroke-opacity="1" stroke-width="3.2"/>
<circle clip-path="url(#clip782)" cx="1479.14" cy="1383.21" r="14.4" fill="#e26f46" fill-rule="evenodd" fill-opacity="1" stroke="#000000" stroke-opacity="1" stroke-width="3.2"/>
<circle clip-path="url(#clip782)" cx="1518.01" cy="1383.31" r="14.4" fill="#e26f46" fill-rule="evenodd" fill-opacity="1" stroke="#000000" stroke-opacity="1" stroke-width="3.2"/>
<circle clip-path="url(#clip782)" cx="1556.89" cy="1383.41" r="14.4" fill="#e26f46" fill-rule="evenodd" fill-opacity="1" stroke="#000000" stroke-opacity="1" stroke-width="3.2"/>
<circle clip-path="url(#clip782)" cx="1595.77" cy="1383.49" r="14.4" fill="#e26f46" fill-rule="evenodd" fill-opacity="1" stroke="#000000" stroke-opacity="1" stroke-width="3.2"/>
<circle clip-path="url(#clip782)" cx="1634.65" cy="1383.57" r="14.4" fill="#e26f46" fill-rule="evenodd" fill-opacity="1" stroke="#000000" stroke-opacity="1" stroke-width="3.2"/>
<circle clip-path="url(#clip782)" cx="1673.53" cy="1383.63" r="14.4" fill="#e26f46" fill-rule="evenodd" fill-opacity="1" stroke="#000000" stroke-opacity="1" stroke-width="3.2"/>
<circle clip-path="url(#clip782)" cx="1712.41" cy="1383.7" r="14.4" fill="#e26f46" fill-rule="evenodd" fill-opacity="1" stroke="#000000" stroke-opacity="1" stroke-width="3.2"/>
<circle clip-path="url(#clip782)" cx="1751.29" cy="1383.76" r="14.4" fill="#e26f46" fill-rule="evenodd" fill-opacity="1" stroke="#000000" stroke-opacity="1" stroke-width="3.2"/>
<circle clip-path="url(#clip782)" cx="1790.17" cy="1383.81" r="14.4" fill="#e26f46" fill-rule="evenodd" fill-opacity="1" stroke="#000000" stroke-opacity="1" stroke-width="3.2"/>
<circle clip-path="url(#clip782)" cx="1829.05" cy="1383.86" r="14.4" fill="#e26f46" fill-rule="evenodd" fill-opacity="1" stroke="#000000" stroke-opacity="1" stroke-width="3.2"/>
<circle clip-path="url(#clip782)" cx="1867.93" cy="1383.9" r="14.4" fill="#e26f46" fill-rule="evenodd" fill-opacity="1" stroke="#000000" stroke-opacity="1" stroke-width="3.2"/>
<circle clip-path="url(#clip782)" cx="1906.81" cy="1383.95" r="14.4" fill="#e26f46" fill-rule="evenodd" fill-opacity="1" stroke="#000000" stroke-opacity="1" stroke-width="3.2"/>
<circle clip-path="url(#clip782)" cx="1945.69" cy="1383.99" r="14.4" fill="#e26f46" fill-rule="evenodd" fill-opacity="1" stroke="#000000" stroke-opacity="1" stroke-width="3.2"/>
<circle clip-path="url(#clip782)" cx="1984.57" cy="1384.02" r="14.4" fill="#e26f46" fill-rule="evenodd" fill-opacity="1" stroke="#000000" stroke-opacity="1" stroke-width="3.2"/>
<circle clip-path="url(#clip782)" cx="2023.45" cy="1384.06" r="14.4" fill="#e26f46" fill-rule="evenodd" fill-opacity="1" stroke="#000000" stroke-opacity="1" stroke-width="3.2"/>
<circle clip-path="url(#clip782)" cx="2062.33" cy="1384.09" r="14.4" fill="#e26f46" fill-rule="evenodd" fill-opacity="1" stroke="#000000" stroke-opacity="1" stroke-width="3.2"/>
<circle clip-path="url(#clip782)" cx="2101.21" cy="1384.12" r="14.4" fill="#e26f46" fill-rule="evenodd" fill-opacity="1" stroke="#000000" stroke-opacity="1" stroke-width="3.2"/>
<circle clip-path="url(#clip782)" cx="2140.09" cy="1384.14" r="14.4" fill="#e26f46" fill-rule="evenodd" fill-opacity="1" stroke="#000000" stroke-opacity="1" stroke-width="3.2"/>
<circle clip-path="url(#clip782)" cx="2178.96" cy="1384.17" r="14.4" fill="#e26f46" fill-rule="evenodd" fill-opacity="1" stroke="#000000" stroke-opacity="1" stroke-width="3.2"/>
<circle clip-path="url(#clip782)" cx="2217.84" cy="1384.19" r="14.4" fill="#e26f46" fill-rule="evenodd" fill-opacity="1" stroke="#000000" stroke-opacity="1" stroke-width="3.2"/>
<circle clip-path="url(#clip782)" cx="2256.72" cy="1384.22" r="14.4" fill="#e26f46" fill-rule="evenodd" fill-opacity="1" stroke="#000000" stroke-opacity="1" stroke-width="3.2"/>
<circle clip-path="url(#clip782)" cx="2295.6" cy="1384.24" r="14.4" fill="#e26f46" fill-rule="evenodd" fill-opacity="1" stroke="#000000" stroke-opacity="1" stroke-width="3.2"/>
</svg>