<?xml version="1.0" encoding="utf-8"?>
<svg xmlns="http://www.w3.org/2000/svg" xmlns:xlink="http://www.w3.org/1999/xlink" width="600" height="400" viewBox="0 0 2400 1600">
<defs>
  <clipPath id="clip460">
    <rect x="0" y="0" width="2400" height="1600"/>
  </clipPath>
</defs>
<path clip-path="url(#clip460)" d="M0 1600 L2400 1600 L2400 0 L0 0  Z" fill="#ffffff" fill-rule="evenodd" fill-opacity="1"/>
<defs>
  <clipPath id="clip461">
    <rect x="480" y="0" width="1681" height="1600"/>
  </clipPath>
</defs>
<path clip-path="url(#clip460)" d="M242.135 1423.18 L2352.76 1423.18 L2352.76 47.2441 L242.135 47.2441  Z" fill="#ffffff" fill-rule="evenodd" fill-opacity="1"/>
<defs>
  <clipPath id="clip462">
    <rect x="242" y="47" width="2112" height="1377"/>
  </clipPath>
</defs>
<polyline clip-path="url(#clip462)" style="stroke:#000000; stroke-linecap:round; stroke-linejoin:round; stroke-width:2; stroke-opacity:0.1; fill:none" points="590.646,1423.18 590.646,47.2441 "/>
<polyline clip-path="url(#clip462)" style="stroke:#000000; stroke-linecap:round; stroke-linejoin:round; stroke-width:2; stroke-opacity:0.1; fill:none" points="1032.59,1423.18 1032.59,47.2441 "/>
<polyline clip-path="url(#clip462)" style="stroke:#000000; stroke-linecap:round; stroke-linejoin:round; stroke-width:2; stroke-opacity:0.1; fill:none" points="1474.53,1423.18 1474.53,47.2441 "/>
<polyline clip-path="url(#clip462)" style="stroke:#000000; stroke-linecap:round; stroke-linejoin:round; stroke-width:2; stroke-opacity:0.1; fill:none" points="1916.47,1423.18 1916.47,47.2441 "/>
<polyline clip-path="url(#clip460)" style="stroke:#000000; stroke-linecap:round; stroke-linejoin:round; stroke-width:4; stroke-opacity:1; fill:none" points="242.135,1423.18 2352.76,1423.18 "/>
<polyline clip-path="url(#clip460)" style="stroke:#000000; stroke-linecap:round; stroke-linejoin:round; stroke-width:4; stroke-opacity:1; fill:none" points="590.646,1423.18 590.646,1404.28 "/>
<polyline clip-path="url(#clip460)" style="stroke:#000000; stroke-linecap:round; stroke-linejoin:round; stroke-width:4; stroke-opacity:1; fill:none" points="1032.59,1423.18 1032.59,1404.28 "/>
<polyline clip-path="url(#clip460)" style="stroke:#000000; stroke-linecap:round; stroke-linejoin:round; stroke-width:4; stroke-opacity:1; fill:none" points="1474.53,1423.18 1474.53,1404.28 "/>
<polyline clip-path="url(#clip460)" style="stroke:#000000; stroke-linecap:round; stroke-linejoin:round; stroke-width:4; stroke-opacity:1; fill:none" points="1916.47,1423.18 1916.47,1404.28 "/>
<path clip-path="url(#clip460)" d="M585.299 1481.64 L601.618 1481.64 L601.618 1485.58 L579.674 1485.58 L579.674 1481.64 Q582.336 1478.89 586.919 1474.26 Q591.526 1469.61 592.706 1468.27 Q594.952 1465.74 595.831 1464.01 Q596.734 1462.25 596.734 1460.56 Q596.734 1457.8 594.79 1456.07 Q592.868 1454.33 589.766 1454.33 Q587.567 1454.33 585.114 1455.09 Q582.683 1455.86 579.905 1457.41 L579.905 1452.69 Q582.729 1451.55 585.183 1450.97 Q587.637 1450.39 589.674 1450.39 Q595.044 1450.39 598.239 1453.08 Q601.433 1455.77 601.433 1460.26 Q601.433 1462.39 600.623 1464.31 Q599.836 1466.2 597.729 1468.8 Q597.151 1469.47 594.049 1472.69 Q590.947 1475.88 585.299 1481.64 Z" fill="#000000" fill-rule="nonzero" fill-opacity="1" /><path clip-path="url(#clip460)" d="M1035.6 1455.09 L1023.79 1473.54 L1035.6 1473.54 L1035.6 1455.09 M1034.37 1451.02 L1040.25 1451.02 L1040.25 1473.54 L1045.18 1473.54 L1045.18 1477.43 L1040.25 1477.43 L1040.25 1485.58 L1035.6 1485.58 L1035.6 1477.43 L1020 1477.43 L1020 1472.92 L1034.37 1451.02 Z" fill="#000000" fill-rule="nonzero" fill-opacity="1" /><path clip-path="url(#clip460)" d="M1474.94 1466.44 Q1471.79 1466.44 1469.94 1468.59 Q1468.11 1470.74 1468.11 1474.49 Q1468.11 1478.22 1469.94 1480.39 Q1471.79 1482.55 1474.94 1482.55 Q1478.08 1482.55 1479.91 1480.39 Q1481.76 1478.22 1481.76 1474.49 Q1481.76 1470.74 1479.91 1468.59 Q1478.08 1466.44 1474.94 1466.44 M1484.22 1451.78 L1484.22 1456.04 Q1482.46 1455.21 1480.65 1454.77 Q1478.87 1454.33 1477.11 1454.33 Q1472.48 1454.33 1470.03 1457.45 Q1467.6 1460.58 1467.25 1466.9 Q1468.62 1464.89 1470.68 1463.82 Q1472.74 1462.73 1475.21 1462.73 Q1480.42 1462.73 1483.43 1465.9 Q1486.46 1469.05 1486.46 1474.49 Q1486.46 1479.82 1483.32 1483.03 Q1480.17 1486.25 1474.94 1486.25 Q1468.94 1486.25 1465.77 1481.67 Q1462.6 1477.06 1462.6 1468.33 Q1462.6 1460.14 1466.49 1455.28 Q1470.38 1450.39 1476.93 1450.39 Q1478.69 1450.39 1480.47 1450.74 Q1482.27 1451.09 1484.22 1451.78 Z" fill="#000000" fill-rule="nonzero" fill-opacity="1" /><path clip-path="url(#clip460)" d="M1916.47 1469.17 Q1913.14 1469.17 1911.22 1470.95 Q1909.32 1472.73 1909.32 1475.86 Q1909.32 1478.98 1911.22 1480.77 Q1913.14 1482.55 1916.47 1482.55 Q1919.81 1482.55 1921.73 1480.77 Q1923.65 1478.96 1923.65 1475.86 Q1923.65 1472.73 1921.73 1470.95 Q1919.83 1469.17 1916.47 1469.17 M1911.8 1467.18 Q1908.79 1466.44 1907.1 1464.38 Q1905.43 1462.32 1905.43 1459.35 Q1905.43 1455.21 1908.37 1452.8 Q1911.33 1450.39 1916.47 1450.39 Q1921.64 1450.39 1924.57 1452.8 Q1927.51 1455.21 1927.51 1459.35 Q1927.51 1462.32 1925.82 1464.38 Q1924.16 1466.44 1921.17 1467.18 Q1924.55 1467.96 1926.43 1470.26 Q1928.32 1472.55 1928.32 1475.86 Q1928.32 1480.88 1925.25 1483.57 Q1922.19 1486.25 1916.47 1486.25 Q1910.76 1486.25 1907.68 1483.57 Q1904.62 1480.88 1904.62 1475.86 Q1904.62 1472.55 1906.52 1470.26 Q1908.42 1467.96 1911.8 1467.18 M1910.08 1459.79 Q1910.08 1462.48 1911.75 1463.98 Q1913.44 1465.49 1916.47 1465.49 Q1919.48 1465.49 1921.17 1463.98 Q1922.89 1462.48 1922.89 1459.79 Q1922.89 1457.11 1921.17 1455.6 Q1919.48 1454.1 1916.47 1454.1 Q1913.44 1454.1 1911.75 1455.6 Q1910.08 1457.11 1910.08 1459.79 Z" fill="#000000" fill-rule="nonzero" fill-opacity="1" /><path clip-path="url(#clip460)" d="M1207.55 1518.52 L1213.4 1518.52 L1213.4 1568.04 L1207.55 1568.04 L1207.55 1518.52 Z" fill="#000000" fill-rule="nonzero" fill-opacity="1" /><path clip-path="url(#clip460)" d="M1239.47 1536.5 Q1234.76 1536.5 1232.02 1540.19 Q1229.28 1543.85 1229.28 1550.25 Q1229.28 1556.65 1231.99 1560.34 Q1234.73 1564 1239.47 1564 Q1244.15 1564 1246.89 1560.31 Q1249.62 1556.62 1249.62 1550.25 Q1249.62 1543.92 1246.89 1540.23 Q1244.15 1536.5 1239.47 1536.5 M1239.47 1531.54 Q1247.11 1531.54 1251.47 1536.5 Q1255.83 1541.47 1255.83 1550.25 Q1255.83 1559 1251.47 1564 Q1247.11 1568.97 1239.47 1568.97 Q1231.8 1568.97 1227.44 1564 Q1223.11 1559 1223.11 1550.25 Q1223.11 1541.47 1227.44 1536.5 Q1231.8 1531.54 1239.47 1531.54 Z" fill="#000000" fill-rule="nonzero" fill-opacity="1" /><path clip-path="url(#clip460)" d="M1288.99 1549.81 Q1288.99 1543.44 1286.35 1539.94 Q1283.74 1536.44 1279 1536.44 Q1274.29 1536.44 1271.65 1539.94 Q1269.04 1543.44 1269.04 1549.81 Q1269.04 1556.14 1271.65 1559.64 Q1274.29 1563.14 1279 1563.14 Q1283.74 1563.14 1286.35 1559.64 Q1288.99 1556.14 1288.99 1549.81 M1294.85 1563.62 Q1294.85 1572.72 1290.81 1577.15 Q1286.77 1581.6 1278.43 1581.6 Q1275.34 1581.6 1272.6 1581.13 Q1269.87 1580.68 1267.29 1579.72 L1267.29 1574.03 Q1269.87 1575.43 1272.38 1576.1 Q1274.89 1576.76 1277.5 1576.76 Q1283.27 1576.76 1286.13 1573.74 Q1288.99 1570.75 1288.99 1564.67 L1288.99 1561.77 Q1287.18 1564.92 1284.35 1566.48 Q1281.52 1568.04 1277.57 1568.04 Q1271.01 1568.04 1267 1563.05 Q1262.99 1558.05 1262.99 1549.81 Q1262.99 1541.53 1267 1536.53 Q1271.01 1531.54 1277.57 1531.54 Q1281.52 1531.54 1284.35 1533.1 Q1287.18 1534.66 1288.99 1537.81 L1288.99 1532.4 L1294.85 1532.4 L1294.85 1563.62 Z" fill="#000000" fill-rule="nonzero" fill-opacity="1" /><path clip-path="url(#clip460)" d="M1320.98 1518.58 Q1316.72 1525.9 1314.65 1533.06 Q1312.58 1540.23 1312.58 1547.58 Q1312.58 1554.93 1314.65 1562.16 Q1316.75 1569.35 1320.98 1576.64 L1315.89 1576.64 Q1311.12 1569.16 1308.73 1561.93 Q1306.37 1554.71 1306.37 1547.58 Q1306.37 1540.48 1308.73 1533.29 Q1311.08 1526.09 1315.89 1518.58 L1320.98 1518.58 Z" fill="#000000" fill-rule="nonzero" fill-opacity="1" /><path clip-path="url(#clip460)" d="M1361.98 1546.53 L1361.98 1568.04 L1356.12 1568.04 L1356.12 1546.72 Q1356.12 1541.66 1354.15 1539.14 Q1352.17 1536.63 1348.23 1536.63 Q1343.49 1536.63 1340.75 1539.65 Q1338.01 1542.68 1338.01 1547.9 L1338.01 1568.04 L1332.12 1568.04 L1332.12 1532.4 L1338.01 1532.4 L1338.01 1537.93 Q1340.11 1534.72 1342.94 1533.13 Q1345.81 1531.54 1349.53 1531.54 Q1355.68 1531.54 1358.83 1535.36 Q1361.98 1539.14 1361.98 1546.53 Z" fill="#000000" fill-rule="nonzero" fill-opacity="1" /><path clip-path="url(#clip460)" d="M1372.74 1518.58 L1377.83 1518.58 Q1382.6 1526.09 1384.96 1533.29 Q1387.34 1540.48 1387.34 1547.58 Q1387.34 1554.71 1384.96 1561.93 Q1382.6 1569.16 1377.83 1576.64 L1372.74 1576.64 Q1376.97 1569.35 1379.04 1562.16 Q1381.14 1554.93 1381.14 1547.58 Q1381.14 1540.23 1379.04 1533.06 Q1376.97 1525.9 1372.74 1518.58 Z" fill="#000000" fill-rule="nonzero" fill-opacity="1" /><polyline clip-path="url(#clip462)" style="stroke:#000000; stroke-linecap:round; stroke-linejoin:round; stroke-width:2; stroke-opacity:0.1; fill:none" points="242.135,1422.76 2352.76,1422.76 "/>
<polyline clip-path="url(#clip462)" style="stroke:#000000; stroke-linecap:round; stroke-linejoin:round; stroke-width:2; stroke-opacity:0.1; fill:none" points="242.135,1209.27 2352.76,1209.27 "/>
<polyline clip-path="url(#clip462)" style="stroke:#000000; stroke-linecap:round; stroke-linejoin:round; stroke-width:2; stroke-opacity:0.1; fill:none" points="242.135,995.774 2352.76,995.774 "/>
<polyline clip-path="url(#clip462)" style="stroke:#000000; stroke-linecap:round; stroke-linejoin:round; stroke-width:2; stroke-opacity:0.1; fill:none" points="242.135,782.28 2352.76,782.28 "/>
<polyline clip-path="url(#clip462)" style="stroke:#000000; stroke-linecap:round; stroke-linejoin:round; stroke-width:2; stroke-opacity:0.1; fill:none" points="242.135,568.785 2352.76,568.785 "/>
<polyline clip-path="url(#clip462)" style="stroke:#000000; stroke-linecap:round; stroke-linejoin:round; stroke-width:2; stroke-opacity:0.1; fill:none" points="242.135,355.291 2352.76,355.291 "/>
<polyline clip-path="url(#clip462)" style="stroke:#000000; stroke-linecap:round; stroke-linejoin:round; stroke-width:2; stroke-opacity:0.1; fill:none" points="242.135,141.796 2352.76,141.796 "/>
<polyline clip-path="url(#clip460)" style="stroke:#000000; stroke-linecap:round; stroke-linejoin:round; stroke-width:4; stroke-opacity:1; fill:none" points="242.135,1423.18 242.135,47.2441 "/>
<polyline clip-path="url(#clip460)" style="stroke:#000000; stroke-linecap:round; stroke-linejoin:round; stroke-width:4; stroke-opacity:1; fill:none" points="242.135,1422.76 261.032,1422.76 "/>
<polyline clip-path="url(#clip460)" style="stroke:#000000; stroke-linecap:round; stroke-linejoin:round; stroke-width:4; stroke-opacity:1; fill:none" points="242.135,1209.27 261.032,1209.27 "/>
<polyline clip-path="url(#clip460)" style="stroke:#000000; stroke-linecap:round; stroke-linejoin:round; stroke-width:4; stroke-opacity:1; fill:none" points="242.135,995.774 261.032,995.774 "/>
<polyline clip-path="url(#clip460)" style="stroke:#000000; stroke-linecap:round; stroke-linejoin:round; stroke-width:4; stroke-opacity:1; fill:none" points="242.135,782.28 261.032,782.28 "/>
<polyline clip-path="url(#clip460)" style="stroke:#000000; stroke-linecap:round; stroke-linejoin:round; stroke-width:4; stroke-opacity:1; fill:none" points="242.135,568.785 261.032,568.785 "/>
<polyline clip-path="url(#clip460)" style="stroke:#000000; stroke-linecap:round; stroke-linejoin:round; stroke-width:4; stroke-opacity:1; fill:none" points="242.135,355.291 261.032,355.291 "/>
<polyline clip-path="url(#clip460)" style="stroke:#000000; stroke-linecap:round; stroke-linejoin:round; stroke-width:4; stroke-opacity:1; fill:none" points="242.135,141.796 261.032,141.796 "/>
<path clip-path="url(#clip460)" d="M115.256 1423.22 L144.931 1423.22 L144.931 1427.15 L115.256 1427.15 L115.256 1423.22 Z" fill="#000000" fill-rule="nonzero" fill-opacity="1" /><path clip-path="url(#clip460)" d="M169.19 1421.41 Q172.547 1422.13 174.422 1424.4 Q176.32 1426.66 176.32 1430 Q176.32 1435.11 172.802 1437.91 Q169.283 1440.71 162.802 1440.71 Q160.626 1440.71 158.311 1440.28 Q156.019 1439.86 153.566 1439 L153.566 1434.49 Q155.51 1435.62 157.825 1436.2 Q160.14 1436.78 162.663 1436.78 Q167.061 1436.78 169.352 1435.04 Q171.667 1433.31 171.667 1430 Q171.667 1426.94 169.514 1425.23 Q167.385 1423.49 163.565 1423.49 L159.538 1423.49 L159.538 1419.65 L163.751 1419.65 Q167.2 1419.65 169.028 1418.28 Q170.857 1416.9 170.857 1414.3 Q170.857 1411.64 168.959 1410.23 Q167.084 1408.79 163.565 1408.79 Q161.644 1408.79 159.445 1409.21 Q157.246 1409.63 154.607 1410.51 L154.607 1406.34 Q157.269 1405.6 159.584 1405.23 Q161.922 1404.86 163.982 1404.86 Q169.306 1404.86 172.408 1407.29 Q175.51 1409.7 175.51 1413.82 Q175.51 1416.69 173.866 1418.68 Q172.223 1420.65 169.19 1421.41 Z" fill="#000000" fill-rule="nonzero" fill-opacity="1" /><path clip-path="url(#clip460)" d="M185.232 1405.48 L203.588 1405.48 L203.588 1409.42 L189.514 1409.42 L189.514 1417.89 Q190.533 1417.54 191.551 1417.38 Q192.57 1417.2 193.588 1417.2 Q199.375 1417.2 202.755 1420.37 Q206.135 1423.54 206.135 1428.96 Q206.135 1434.53 202.662 1437.64 Q199.19 1440.71 192.871 1440.71 Q190.695 1440.71 188.426 1440.34 Q186.181 1439.97 183.774 1439.23 L183.774 1434.53 Q185.857 1435.67 188.079 1436.22 Q190.301 1436.78 192.778 1436.78 Q196.783 1436.78 199.121 1434.67 Q201.459 1432.57 201.459 1428.96 Q201.459 1425.34 199.121 1423.24 Q196.783 1421.13 192.778 1421.13 Q190.903 1421.13 189.028 1421.55 Q187.176 1421.97 185.232 1422.84 L185.232 1405.48 Z" fill="#000000" fill-rule="nonzero" fill-opacity="1" /><path clip-path="url(#clip460)" d="M114.26 1209.72 L143.936 1209.72 L143.936 1213.66 L114.26 1213.66 L114.26 1209.72 Z" fill="#000000" fill-rule="nonzero" fill-opacity="1" /><path clip-path="url(#clip460)" d="M168.195 1207.91 Q171.552 1208.63 173.427 1210.9 Q175.325 1213.17 175.325 1216.5 Q175.325 1221.62 171.806 1224.42 Q168.288 1227.22 161.806 1227.22 Q159.63 1227.22 157.315 1226.78 Q155.024 1226.36 152.57 1225.51 L152.57 1220.99 Q154.515 1222.13 156.829 1222.71 Q159.144 1223.29 161.667 1223.29 Q166.065 1223.29 168.357 1221.55 Q170.672 1219.81 170.672 1216.5 Q170.672 1213.45 168.519 1211.73 Q166.39 1210 162.57 1210 L158.542 1210 L158.542 1206.16 L162.755 1206.16 Q166.204 1206.16 168.033 1204.79 Q169.862 1203.4 169.862 1200.81 Q169.862 1198.15 167.964 1196.73 Q166.089 1195.3 162.57 1195.3 Q160.649 1195.3 158.45 1195.72 Q156.251 1196.13 153.612 1197.01 L153.612 1192.85 Q156.274 1192.1 158.589 1191.73 Q160.927 1191.36 162.987 1191.36 Q168.311 1191.36 171.413 1193.79 Q174.514 1196.2 174.514 1200.32 Q174.514 1203.19 172.871 1205.18 Q171.227 1207.15 168.195 1207.91 Z" fill="#000000" fill-rule="nonzero" fill-opacity="1" /><path clip-path="url(#clip460)" d="M194.19 1195.07 Q190.579 1195.07 188.75 1198.63 Q186.945 1202.17 186.945 1209.3 Q186.945 1216.41 188.75 1219.97 Q190.579 1223.52 194.19 1223.52 Q197.825 1223.52 199.63 1219.97 Q201.459 1216.41 201.459 1209.3 Q201.459 1202.17 199.63 1198.63 Q197.825 1195.07 194.19 1195.07 M194.19 1191.36 Q200 1191.36 203.056 1195.97 Q206.135 1200.55 206.135 1209.3 Q206.135 1218.03 203.056 1222.64 Q200 1227.22 194.19 1227.22 Q188.38 1227.22 185.301 1222.64 Q182.246 1218.03 182.246 1209.3 Q182.246 1200.55 185.301 1195.97 Q188.38 1191.36 194.19 1191.36 Z" fill="#000000" fill-rule="nonzero" fill-opacity="1" /><path clip-path="url(#clip460)" d="M115.256 996.226 L144.931 996.226 L144.931 1000.16 L115.256 1000.16 L115.256 996.226 Z" fill="#000000" fill-rule="nonzero" fill-opacity="1" /><path clip-path="url(#clip460)" d="M159.052 1009.12 L175.371 1009.12 L175.371 1013.05 L153.427 1013.05 L153.427 1009.12 Q156.089 1006.36 160.672 1001.74 Q165.278 997.082 166.459 995.74 Q168.704 993.217 169.584 991.48 Q170.487 989.721 170.487 988.031 Q170.487 985.277 168.542 983.541 Q166.621 981.805 163.519 981.805 Q161.32 981.805 158.866 982.568 Q156.436 983.332 153.658 984.883 L153.658 980.161 Q156.482 979.027 158.936 978.448 Q161.39 977.869 163.427 977.869 Q168.797 977.869 171.991 980.555 Q175.186 983.24 175.186 987.73 Q175.186 989.86 174.376 991.781 Q173.589 993.68 171.482 996.272 Q170.903 996.943 167.802 1000.16 Q164.7 1003.36 159.052 1009.12 Z" fill="#000000" fill-rule="nonzero" fill-opacity="1" /><path clip-path="url(#clip460)" d="M185.232 978.494 L203.588 978.494 L203.588 982.43 L189.514 982.43 L189.514 990.902 Q190.533 990.555 191.551 990.392 Q192.57 990.207 193.588 990.207 Q199.375 990.207 202.755 993.379 Q206.135 996.55 206.135 1001.97 Q206.135 1007.55 202.662 1010.65 Q199.19 1013.73 192.871 1013.73 Q190.695 1013.73 188.426 1013.36 Q186.181 1012.98 183.774 1012.24 L183.774 1007.55 Q185.857 1008.68 188.079 1009.23 Q190.301 1009.79 192.778 1009.79 Q196.783 1009.79 199.121 1007.68 Q201.459 1005.58 201.459 1001.97 Q201.459 998.355 199.121 996.249 Q196.783 994.142 192.778 994.142 Q190.903 994.142 189.028 994.559 Q187.176 994.976 185.232 995.855 L185.232 978.494 Z" fill="#000000" fill-rule="nonzero" fill-opacity="1" /><path clip-path="url(#clip460)" d="M114.26 782.731 L143.936 782.731 L143.936 786.666 L114.26 786.666 L114.26 782.731 Z" fill="#000000" fill-rule="nonzero" fill-opacity="1" /><path clip-path="url(#clip460)" d="M158.056 795.625 L174.376 795.625 L174.376 799.56 L152.431 799.56 L152.431 795.625 Q155.093 792.87 159.677 788.24 Q164.283 783.588 165.464 782.245 Q167.709 779.722 168.589 777.986 Q169.491 776.227 169.491 774.537 Q169.491 771.782 167.547 770.046 Q165.626 768.31 162.524 768.31 Q160.325 768.31 157.871 769.074 Q155.44 769.838 152.663 771.389 L152.663 766.666 Q155.487 765.532 157.94 764.953 Q160.394 764.375 162.431 764.375 Q167.802 764.375 170.996 767.06 Q174.19 769.745 174.19 774.236 Q174.19 776.365 173.38 778.287 Q172.593 780.185 170.487 782.777 Q169.908 783.449 166.806 786.666 Q163.704 789.861 158.056 795.625 Z" fill="#000000" fill-rule="nonzero" fill-opacity="1" /><path clip-path="url(#clip460)" d="M194.19 768.078 Q190.579 768.078 188.75 771.643 Q186.945 775.185 186.945 782.315 Q186.945 789.421 188.75 792.986 Q190.579 796.527 194.19 796.527 Q197.825 796.527 199.63 792.986 Q201.459 789.421 201.459 782.315 Q201.459 775.185 199.63 771.643 Q197.825 768.078 194.19 768.078 M194.19 764.375 Q200 764.375 203.056 768.981 Q206.135 773.565 206.135 782.315 Q206.135 791.041 203.056 795.648 Q200 800.231 194.19 800.231 Q188.38 800.231 185.301 795.648 Q182.246 791.041 182.246 782.315 Q182.246 773.565 185.301 768.981 Q188.38 764.375 194.19 764.375 Z" fill="#000000" fill-rule="nonzero" fill-opacity="1" /><path clip-path="url(#clip460)" d="M115.256 569.237 L144.931 569.237 L144.931 573.172 L115.256 573.172 L115.256 569.237 Z" fill="#000000" fill-rule="nonzero" fill-opacity="1" /><path clip-path="url(#clip460)" d="M155.834 582.13 L163.473 582.13 L163.473 555.764 L155.163 557.431 L155.163 553.172 L163.427 551.505 L168.102 551.505 L168.102 582.13 L175.741 582.13 L175.741 586.065 L155.834 586.065 L155.834 582.13 Z" fill="#000000" fill-rule="nonzero" fill-opacity="1" /><path clip-path="url(#clip460)" d="M185.232 551.505 L203.588 551.505 L203.588 555.44 L189.514 555.44 L189.514 563.913 Q190.533 563.565 191.551 563.403 Q192.57 563.218 193.588 563.218 Q199.375 563.218 202.755 566.389 Q206.135 569.561 206.135 574.977 Q206.135 580.556 202.662 583.658 Q199.19 586.736 192.871 586.736 Q190.695 586.736 188.426 586.366 Q186.181 585.996 183.774 585.255 L183.774 580.556 Q185.857 581.69 188.079 582.246 Q190.301 582.801 192.778 582.801 Q196.783 582.801 199.121 580.695 Q201.459 578.588 201.459 574.977 Q201.459 571.366 199.121 569.26 Q196.783 567.153 192.778 567.153 Q190.903 567.153 189.028 567.57 Q187.176 567.987 185.232 568.866 L185.232 551.505 Z" fill="#000000" fill-rule="nonzero" fill-opacity="1" /><path clip-path="url(#clip460)" d="M114.26 355.742 L143.936 355.742 L143.936 359.677 L114.26 359.677 L114.26 355.742 Z" fill="#000000" fill-rule="nonzero" fill-opacity="1" /><path clip-path="url(#clip460)" d="M154.839 368.635 L162.477 368.635 L162.477 342.27 L154.167 343.936 L154.167 339.677 L162.431 338.011 L167.107 338.011 L167.107 368.635 L174.746 368.635 L174.746 372.571 L154.839 372.571 L154.839 368.635 Z" fill="#000000" fill-rule="nonzero" fill-opacity="1" /><path clip-path="url(#clip460)" d="M194.19 341.089 Q190.579 341.089 188.75 344.654 Q186.945 348.196 186.945 355.325 Q186.945 362.432 188.75 365.996 Q190.579 369.538 194.19 369.538 Q197.825 369.538 199.63 365.996 Q201.459 362.432 201.459 355.325 Q201.459 348.196 199.63 344.654 Q197.825 341.089 194.19 341.089 M194.19 337.386 Q200 337.386 203.056 341.992 Q206.135 346.575 206.135 355.325 Q206.135 364.052 203.056 368.659 Q200 373.242 194.19 373.242 Q188.38 373.242 185.301 368.659 Q182.246 364.052 182.246 355.325 Q182.246 346.575 185.301 341.992 Q188.38 337.386 194.19 337.386 Z" fill="#000000" fill-rule="nonzero" fill-opacity="1" /><path clip-path="url(#clip460)" d="M145.417 142.247 L175.093 142.247 L175.093 146.182 L145.417 146.182 L145.417 142.247 Z" fill="#000000" fill-rule="nonzero" fill-opacity="1" /><path clip-path="url(#clip460)" d="M185.232 124.516 L203.588 124.516 L203.588 128.451 L189.514 128.451 L189.514 136.923 Q190.533 136.576 191.551 136.414 Q192.57 136.229 193.588 136.229 Q199.375 136.229 202.755 139.4 Q206.135 142.571 206.135 147.988 Q206.135 153.567 202.662 156.669 Q199.19 159.747 192.871 159.747 Q190.695 159.747 188.426 159.377 Q186.181 159.006 183.774 158.266 L183.774 153.567 Q185.857 154.701 188.079 155.256 Q190.301 155.812 192.778 155.812 Q196.783 155.812 199.121 153.706 Q201.459 151.599 201.459 147.988 Q201.459 144.377 199.121 142.27 Q196.783 140.164 192.778 140.164 Q190.903 140.164 189.028 140.581 Q187.176 140.997 185.232 141.877 L185.232 124.516 Z" fill="#000000" fill-rule="nonzero" fill-opacity="1" /><path clip-path="url(#clip460)" d="M14.479 891.681 L14.479 885.825 L64.0042 885.825 L64.0042 891.681 L14.479 891.681 Z" fill="#000000" fill-rule="nonzero" fill-opacity="1" /><path clip-path="url(#clip460)" d="M32.4621 859.757 Q32.4621 864.468 36.1542 867.205 Q39.8145 869.942 46.212 869.942 Q52.6095 869.942 56.3017 867.237 Q59.9619 864.499 59.9619 859.757 Q59.9619 855.078 56.2698 852.341 Q52.5777 849.604 46.212 849.604 Q39.8781 849.604 36.186 852.341 Q32.4621 855.078 32.4621 859.757 M27.4968 859.757 Q27.4968 852.118 32.4621 847.758 Q37.4273 843.397 46.212 843.397 Q54.9649 843.397 59.9619 847.758 Q64.9272 852.118 64.9272 859.757 Q64.9272 867.428 59.9619 871.788 Q54.9649 876.117 46.212 876.117 Q37.4273 876.117 32.4621 871.788 Q27.4968 867.428 27.4968 859.757 Z" fill="#000000" fill-rule="nonzero" fill-opacity="1" /><path clip-path="url(#clip460)" d="M45.7664 810.232 Q39.4007 810.232 35.8996 812.874 Q32.3984 815.484 32.3984 820.226 Q32.3984 824.937 35.8996 827.578 Q39.4007 830.188 45.7664 830.188 Q52.1003 830.188 55.6014 827.578 Q59.1026 824.937 59.1026 820.226 Q59.1026 815.484 55.6014 812.874 Q52.1003 810.232 45.7664 810.232 M59.58 804.375 Q68.683 804.375 73.1071 808.418 Q77.5631 812.46 77.5631 820.799 Q77.5631 823.886 77.0857 826.624 Q76.6401 829.361 75.6852 831.939 L69.9879 831.939 Q71.3884 829.361 72.0568 826.846 Q72.7252 824.332 72.7252 821.722 Q72.7252 815.961 69.7015 813.096 Q66.7096 810.232 60.6303 810.232 L57.7339 810.232 Q60.885 812.046 62.4446 814.879 Q64.0042 817.712 64.0042 821.658 Q64.0042 828.215 59.0071 832.225 Q54.01 836.236 45.7664 836.236 Q37.491 836.236 32.4939 832.225 Q27.4968 828.215 27.4968 821.658 Q27.4968 817.712 29.0564 814.879 Q30.616 812.046 33.7671 810.232 L28.3562 810.232 L28.3562 804.375 L59.58 804.375 Z" fill="#000000" fill-rule="nonzero" fill-opacity="1" /><path clip-path="url(#clip460)" d="M14.5426 778.244 Q21.8632 782.509 29.0246 784.578 Q36.186 786.647 43.5384 786.647 Q50.8908 786.647 58.1159 784.578 Q65.3091 782.477 72.5979 778.244 L72.5979 783.337 Q65.1182 788.111 57.8931 790.498 Q50.668 792.853 43.5384 792.853 Q36.4406 792.853 29.2474 790.498 Q22.0542 788.143 14.5426 783.337 L14.5426 778.244 Z" fill="#000000" fill-rule="nonzero" fill-opacity="1" /><path clip-path="url(#clip460)" d="M16.4842 766.627 L16.4842 760.197 L64.0042 760.197 L64.0042 766.627 L16.4842 766.627 Z" fill="#000000" fill-rule="nonzero" fill-opacity="1" /><path clip-path="url(#clip460)" d="M51.9411 731.265 L64.0042 731.265 L64.0042 734.957 L52.0685 734.957 Q49.2357 734.957 47.8353 736.199 Q46.403 737.44 46.403 739.923 Q46.403 742.914 48.1217 744.633 Q49.8086 746.352 52.7369 746.352 L64.0042 746.352 L64.0042 750.076 L44.0477 750.076 L44.0477 746.352 L47.135 746.352 Q45.3526 745.047 44.4614 743.265 Q43.5702 741.45 43.5702 739.095 Q43.5702 735.244 45.7028 733.27 Q47.8353 731.265 51.9411 731.265 Z" fill="#000000" fill-rule="nonzero" fill-opacity="1" /><path clip-path="url(#clip460)" d="M43.5384 724.645 L43.5384 707.489 L48.7583 707.489 L48.7583 724.645 L43.5384 724.645 Z" fill="#000000" fill-rule="nonzero" fill-opacity="1" /><path clip-path="url(#clip460)" d="M16.4842 697.909 L16.4842 691.48 L64.0042 691.48 L64.0042 697.909 L16.4842 697.909 Z" fill="#000000" fill-rule="nonzero" fill-opacity="1" /><path clip-path="url(#clip460)" d="M51.9411 662.547 L64.0042 662.547 L64.0042 666.24 L52.0685 666.24 Q49.2357 666.24 47.8353 667.481 Q46.403 668.722 46.403 671.205 Q46.403 674.197 48.1217 675.915 Q49.8086 677.634 52.7369 677.634 L64.0042 677.634 L64.0042 681.358 L44.0477 681.358 L44.0477 677.634 L47.135 677.634 Q45.3526 676.329 44.4614 674.547 Q43.5702 672.733 43.5702 670.377 Q43.5702 666.526 45.7028 664.553 Q47.8353 662.547 51.9411 662.547 Z" fill="#000000" fill-rule="nonzero" fill-opacity="1" /><path clip-path="url(#clip460)" d="M51.0499 654.749 L51.0499 629.064 L54.0737 629.064 L54.0737 654.749 L51.0499 654.749 Z" fill="#000000" fill-rule="nonzero" fill-opacity="1" /><path clip-path="url(#clip460)" d="M60.503 619.738 L60.503 613.245 L41.0558 613.245 L42.3608 620.343 L38.6686 620.343 L37.4273 613.022 L37.4273 608.662 L60.503 608.662 L60.503 602.137 L64.0042 602.137 L64.0042 619.738 L60.503 619.738 Z" fill="#000000" fill-rule="nonzero" fill-opacity="1" /><path clip-path="url(#clip460)" d="M14.5426 593.352 L14.5426 588.26 Q22.0542 583.485 29.2474 581.13 Q36.4406 578.743 43.5384 578.743 Q50.668 578.743 57.8931 581.13 Q65.1182 583.485 72.5979 588.26 L72.5979 593.352 Q65.3091 589.119 58.1159 587.05 Q50.8908 584.949 43.5384 584.949 Q36.186 584.949 29.0246 587.05 Q21.8632 589.119 14.5426 593.352 Z" fill="#000000" fill-rule="nonzero" fill-opacity="1" /><circle clip-path="url(#clip462)" cx="301.869" cy="86.1857" r="14.4" fill="#009af9" fill-rule="evenodd" fill-opacity="1" stroke="#000000" stroke-opacity="1" stroke-width="3.2"/>
<circle clip-path="url(#clip462)" cx="455.035" cy="129.429" r="14.4" fill="#009af9" fill-rule="evenodd" fill-opacity="1" stroke="#000000" stroke-opacity="1" stroke-width="3.2"/>
<circle clip-path="url(#clip462)" cx="608.2" cy="182.487" r="14.4" fill="#009af9" fill-rule="evenodd" fill-opacity="1" stroke="#000000" stroke-opacity="1" stroke-width="3.2"/>
<circle clip-path="url(#clip462)" cx="761.366" cy="239.766" r="14.4" fill="#009af9" fill-rule="evenodd" fill-opacity="1" stroke="#000000" stroke-opacity="1" stroke-width="3.2"/>
<circle clip-path="url(#clip462)" cx="914.531" cy="298.438" r="14.4" fill="#009af9" fill-rule="evenodd" fill-opacity="1" stroke="#000000" stroke-opacity="1" stroke-width="3.2"/>
<circle clip-path="url(#clip462)" cx="1067.7" cy="357.497" r="14.4" fill="#009af9" fill-rule="evenodd" fill-opacity="1" stroke="#000000" stroke-opacity="1" stroke-width="3.2"/>
<circle clip-path="url(#clip462)" cx="1220.86" cy="416.657" r="14.4" fill="#009af9" fill-rule="evenodd" fill-opacity="1" stroke="#000000" stroke-opacity="1" stroke-width="3.2"/>
<circle clip-path="url(#clip462)" cx="1374.03" cy="475.842" r="14.4" fill="#009af9" fill-rule="evenodd" fill-opacity="1" stroke="#000000" stroke-opacity="1" stroke-width="3.2"/>
<circle clip-path="url(#clip462)" cx="1527.19" cy="535.033" r="14.4" fill="#009af9" fill-rule="evenodd" fill-opacity="1" stroke="#000000" stroke-opacity="1" stroke-width="3.2"/>
<circle clip-path="url(#clip462)" cx="1680.36" cy="594.226" r="14.4" fill="#009af9" fill-rule="evenodd" fill-opacity="1" stroke="#000000" stroke-opacity="1" stroke-width="3.2"/>
<circle clip-path="url(#clip462)" cx="1833.52" cy="653.419" r="14.4" fill="#009af9" fill-rule="evenodd" fill-opacity="1" stroke="#000000" stroke-opacity="1" stroke-width="3.2"/>
<circle clip-path="url(#clip462)" cx="1986.69" cy="712.613" r="14.4" fill="#009af9" fill-rule="evenodd" fill-opacity="1" stroke="#000000" stroke-opacity="1" stroke-width="3.2"/>
<circle clip-path="url(#clip462)" cx="2139.86" cy="771.793" r="14.4" fill="#009af9" fill-rule="evenodd" fill-opacity="1" stroke="#000000" stroke-opacity="1" stroke-width="3.2"/>
<circle clip-path="url(#clip462)" cx="2293.02" cy="830.954" r="14.4" fill="#009af9" fill-rule="evenodd" fill-opacity="1" stroke="#000000" stroke-opacity="1" stroke-width="3.2"/>
<circle clip-path="url(#clip462)" cx="301.869" cy="201.258" r="14.4" fill="#e26f46" fill-rule="evenodd" fill-opacity="1" stroke="#000000" stroke-opacity="1" stroke-width="3.2"/>
<circle clip-path="url(#clip462)" cx="455.035" cy="519.319" r="14.4" fill="#e26f46" fill-rule="evenodd" fill-opacity="1" stroke="#000000" stroke-opacity="1" stroke-width="3.2"/>
<circle clip-path="url(#clip462)" cx="608.2" cy="1138.67" r="14.4" fill="#e26f46" fill-rule="evenodd" fill-opacity="1" stroke="#000000" stroke-opacity="1" stroke-width="3.2"/>
<circle clip-path="url(#clip462)" cx="761.366" cy="1384.24" r="14.4" fill="#e26f46" fill-rule="evenodd" fill-opacity="1" stroke="#000000" stroke-opacity="1" stroke-width="3.2"/>
<circle clip-path="url(#clip462)" cx="914.531" cy="1378.54" r="14.4" fill="#e26f46" fill-rule="evenodd" fill-opacity="1" stroke="#000000" stroke-opacity="1" stroke-width="3.2"/>
<circle clip-path="url(#clip462)" cx="1067.7" cy="1369.01" r="14.4" fill="#e26f46" fill-rule="evenodd" fill-opacity="1" stroke="#000000" stroke-opacity="1" stroke-width="3.2"/>
<circle clip-path="url(#clip462)" cx="1220.86" cy="1260.48" r="14.4" fill="#e26f46" fill-rule="evenodd" fill-opacity="1" stroke="#000000" stroke-opacity="1" stroke-width="3.2"/>
<circle clip-path="url(#clip462)" cx="1374.03" cy="1223.92" r="14.4" fill="#e26f46" fill-rule="evenodd" fill-opacity="1" stroke="#000000" stroke-opacity="1" stroke-width="3.2"/>
<circle clip-path="url(#clip462)" cx="1527.19" cy="1201.04" r="14.4" fill="#e26f46" fill-rule="evenodd" fill-opacity="1" stroke="#000000" stroke-opacity="1" stroke-width="3.2"/>
<circle clip-path="url(#clip462)" cx="1680.36" cy="1231.4" r="14.4" fill="#e26f46" fill-rule="evenodd" fill-opacity="1" stroke="#000000" stroke-opacity="1" stroke-width="3.2"/>
<circle clip-path="url(#clip462)" cx="1833.52" cy="1201.8" r="14.4" fill="#e26f46" fill-rule="evenodd" fill-opacity="1" stroke="#000000" stroke-opacity="1" stroke-width="3.2"/>
<circle clip-path="url(#clip462)" cx="1986.69" cy="1220.36" r="14.4" fill="#e26f46" fill-rule="evenodd" fill-opacity="1" stroke="#000000" stroke-opacity="1" stroke-width="3.2"/>
<circle clip-path="url(#clip462)" cx="2139.86" cy="1091.1" r="14.4" fill="#e26f46" fill-rule="evenodd" fill-opacity="1" stroke="#000000" stroke-opacity="1" stroke-width="3.2"/>
<circle clip-path="url(#clip462)" cx="2293.02" cy="1164.95" r="14.4" fill="#e26f46" fill-rule="evenodd" fill-opacity="1" stroke="#000000" stroke-opacity="1" stroke-width="3.2"/>
<path clip-path="url(#clip460)" d="M1799.17 248.629 L2282.4 248.629 L2282.4 93.1086 L1799.17 93.1086  Z" fill="#ffffff" fill-rule="evenodd" fill-opacity="1"/>
<polyline clip-path="url(#clip460)" style="stroke:#000000; stroke-linecap:round; stroke-linejoin:round; stroke-width:4; stroke-opacity:1; fill:none" points="1799.17,248.629 2282.4,248.629 2282.4,93.1086 1799.17,93.1086 1799.17,248.629 "/>
<circle clip-path="url(#clip460)" cx="1892.97" cy="144.949" r="20.48" fill="#009af9" fill-rule="evenodd" fill-opacity="1" stroke="#000000" stroke-opacity="1" stroke-width="4.55111"/>
<path clip-path="url(#clip460)" d="M2011.43 136.303 L2002.05 148.919 L2011.91 162.229 L2006.89 162.229 L1999.35 152.043 L1991.8 162.229 L1986.78 162.229 L1996.85 148.664 L1987.63 136.303 L1992.66 136.303 L1999.53 145.539 L2006.41 136.303 L2011.43 136.303 Z" fill="#000000" fill-rule="nonzero" fill-opacity="1" /><path clip-path="url(#clip460)" d="M2015.78 147.344 L2028.26 147.344 L2028.26 151.141 L2015.78 151.141 L2015.78 147.344 Z" fill="#000000" fill-rule="nonzero" fill-opacity="1" /><path clip-path="url(#clip460)" d="M2039.25 128.942 L2039.25 136.303 L2048.03 136.303 L2048.03 139.613 L2039.25 139.613 L2039.25 153.687 Q2039.25 156.858 2040.11 157.761 Q2040.99 158.664 2043.65 158.664 L2048.03 158.664 L2048.03 162.229 L2043.65 162.229 Q2038.72 162.229 2036.85 160.4 Q2034.97 158.548 2034.97 153.687 L2034.97 139.613 L2031.85 139.613 L2031.85 136.303 L2034.97 136.303 L2034.97 128.942 L2039.25 128.942 Z" fill="#000000" fill-rule="nonzero" fill-opacity="1" /><path clip-path="url(#clip460)" d="M2068.65 140.284 Q2067.93 139.868 2067.08 139.682 Q2066.24 139.474 2065.22 139.474 Q2061.61 139.474 2059.67 141.835 Q2057.75 144.173 2057.75 148.571 L2057.75 162.229 L2053.47 162.229 L2053.47 136.303 L2057.75 136.303 L2057.75 140.331 Q2059.09 137.969 2061.24 136.835 Q2063.4 135.678 2066.47 135.678 Q2066.91 135.678 2067.45 135.747 Q2067.98 135.794 2068.63 135.909 L2068.65 140.284 Z" fill="#000000" fill-rule="nonzero" fill-opacity="1" /><path clip-path="url(#clip460)" d="M2084.9 149.196 Q2079.74 149.196 2077.75 150.377 Q2075.76 151.557 2075.76 154.405 Q2075.76 156.673 2077.24 158.016 Q2078.74 159.335 2081.31 159.335 Q2084.85 159.335 2086.98 156.835 Q2089.14 154.312 2089.14 150.145 L2089.14 149.196 L2084.9 149.196 M2093.4 147.437 L2093.4 162.229 L2089.14 162.229 L2089.14 158.293 Q2087.68 160.655 2085.5 161.789 Q2083.33 162.9 2080.18 162.9 Q2076.2 162.9 2073.84 160.678 Q2071.5 158.432 2071.5 154.682 Q2071.5 150.307 2074.41 148.085 Q2077.35 145.863 2083.16 145.863 L2089.14 145.863 L2089.14 145.446 Q2089.14 142.507 2087.19 140.909 Q2085.27 139.289 2081.78 139.289 Q2079.55 139.289 2077.45 139.821 Q2075.34 140.354 2073.4 141.419 L2073.4 137.483 Q2075.73 136.581 2077.93 136.141 Q2080.13 135.678 2082.22 135.678 Q2087.84 135.678 2090.62 138.594 Q2093.4 141.511 2093.4 147.437 Z" fill="#000000" fill-rule="nonzero" fill-opacity="1" /><path clip-path="url(#clip460)" d="M2123.72 146.581 L2123.72 162.229 L2119.46 162.229 L2119.46 146.719 Q2119.46 143.039 2118.03 141.21 Q2116.59 139.382 2113.72 139.382 Q2110.27 139.382 2108.28 141.581 Q2106.29 143.78 2106.29 147.576 L2106.29 162.229 L2102.01 162.229 L2102.01 136.303 L2106.29 136.303 L2106.29 140.331 Q2107.82 137.993 2109.88 136.835 Q2111.96 135.678 2114.67 135.678 Q2119.14 135.678 2121.43 138.456 Q2123.72 141.21 2123.72 146.581 Z" fill="#000000" fill-rule="nonzero" fill-opacity="1" /><path clip-path="url(#clip460)" d="M2148.74 137.067 L2148.74 141.094 Q2146.94 140.169 2144.99 139.706 Q2143.05 139.243 2140.97 139.243 Q2137.79 139.243 2136.2 140.215 Q2134.62 141.187 2134.62 143.131 Q2134.62 144.613 2135.76 145.469 Q2136.89 146.303 2140.32 147.067 L2141.78 147.391 Q2146.31 148.363 2148.21 150.145 Q2150.13 151.905 2150.13 155.076 Q2150.13 158.687 2147.26 160.793 Q2144.41 162.9 2139.41 162.9 Q2137.33 162.9 2135.06 162.483 Q2132.82 162.09 2130.32 161.28 L2130.32 156.881 Q2132.68 158.108 2134.97 158.733 Q2137.26 159.335 2139.51 159.335 Q2142.52 159.335 2144.14 158.317 Q2145.76 157.275 2145.76 155.4 Q2145.76 153.664 2144.58 152.738 Q2143.42 151.812 2139.46 150.956 L2137.98 150.608 Q2134.02 149.775 2132.26 148.062 Q2130.5 146.326 2130.5 143.317 Q2130.5 139.659 2133.09 137.669 Q2135.69 135.678 2140.46 135.678 Q2142.82 135.678 2144.9 136.025 Q2146.98 136.372 2148.74 137.067 Z" fill="#000000" fill-rule="nonzero" fill-opacity="1" /><path clip-path="url(#clip460)" d="M2170.04 126.21 L2170.04 129.752 L2165.96 129.752 Q2163.67 129.752 2162.77 130.678 Q2161.89 131.604 2161.89 134.011 L2161.89 136.303 L2168.9 136.303 L2168.9 139.613 L2161.89 139.613 L2161.89 162.229 L2157.61 162.229 L2157.61 139.613 L2153.53 139.613 L2153.53 136.303 L2157.61 136.303 L2157.61 134.497 Q2157.61 130.169 2159.62 128.201 Q2161.64 126.21 2166.01 126.21 L2170.04 126.21 Z" fill="#000000" fill-rule="nonzero" fill-opacity="1" /><path clip-path="url(#clip460)" d="M2183.65 139.289 Q2180.22 139.289 2178.23 141.974 Q2176.24 144.636 2176.24 149.289 Q2176.24 153.942 2178.21 156.627 Q2180.2 159.289 2183.65 159.289 Q2187.05 159.289 2189.04 156.604 Q2191.03 153.918 2191.03 149.289 Q2191.03 144.682 2189.04 141.997 Q2187.05 139.289 2183.65 139.289 M2183.65 135.678 Q2189.21 135.678 2192.38 139.289 Q2195.55 142.9 2195.55 149.289 Q2195.55 155.655 2192.38 159.289 Q2189.21 162.9 2183.65 162.9 Q2178.07 162.9 2174.9 159.289 Q2171.75 155.655 2171.75 149.289 Q2171.75 142.9 2174.9 139.289 Q2178.07 135.678 2183.65 135.678 Z" fill="#000000" fill-rule="nonzero" fill-opacity="1" /><path clip-path="url(#clip460)" d="M2217.63 140.284 Q2216.91 139.868 2216.06 139.682 Q2215.22 139.474 2214.21 139.474 Q2210.59 139.474 2208.65 141.835 Q2206.73 144.173 2206.73 148.571 L2206.73 162.229 L2202.45 162.229 L2202.45 136.303 L2206.73 136.303 L2206.73 140.331 Q2208.07 137.969 2210.22 136.835 Q2212.38 135.678 2215.46 135.678 Q2215.9 135.678 2216.43 135.747 Q2216.96 135.794 2217.61 135.909 L2217.63 140.284 Z" fill="#000000" fill-rule="nonzero" fill-opacity="1" /><path clip-path="url(#clip460)" d="M2241.45 141.28 Q2243.05 138.409 2245.27 137.044 Q2247.49 135.678 2250.5 135.678 Q2254.55 135.678 2256.75 138.525 Q2258.95 141.349 2258.95 146.581 L2258.95 162.229 L2254.67 162.229 L2254.67 146.719 Q2254.67 142.993 2253.35 141.187 Q2252.03 139.382 2249.32 139.382 Q2246.01 139.382 2244.09 141.581 Q2242.17 143.78 2242.17 147.576 L2242.17 162.229 L2237.89 162.229 L2237.89 146.719 Q2237.89 142.969 2236.57 141.187 Q2235.25 139.382 2232.49 139.382 Q2229.23 139.382 2227.31 141.604 Q2225.39 143.803 2225.39 147.576 L2225.39 162.229 L2221.1 162.229 L2221.1 136.303 L2225.39 136.303 L2225.39 140.331 Q2226.84 137.946 2228.88 136.812 Q2230.92 135.678 2233.72 135.678 Q2236.54 135.678 2238.51 137.113 Q2240.5 138.548 2241.45 141.28 Z" fill="#000000" fill-rule="nonzero" fill-opacity="1" /><circle clip-path="url(#clip460)" cx="1892.97" cy="196.789" r="20.48" fill="#e26f46" fill-rule="evenodd" fill-opacity="1" stroke="#000000" stroke-opacity="1" stroke-width="4.55111"/>
<path clip-path="url(#clip460)" d="M1987.35 188.143 L2007.59 188.143 L2007.59 192.032 L1991.57 210.666 L2007.59 210.666 L2007.59 214.069 L1986.78 214.069 L1986.78 210.18 L2002.79 191.546 L1987.35 191.546 L1987.35 188.143 Z" fill="#000000" fill-rule="nonzero" fill-opacity="1" /><path clip-path="url(#clip460)" d="M2011.94 199.184 L2024.41 199.184 L2024.41 202.981 L2011.94 202.981 L2011.94 199.184 Z" fill="#000000" fill-rule="nonzero" fill-opacity="1" /><path clip-path="url(#clip460)" d="M2035.41 180.782 L2035.41 188.143 L2044.18 188.143 L2044.18 191.453 L2035.41 191.453 L2035.41 205.527 Q2035.41 208.698 2036.27 209.601 Q2037.15 210.504 2039.81 210.504 L2044.18 210.504 L2044.18 214.069 L2039.81 214.069 Q2034.88 214.069 2033 212.24 Q2031.13 210.388 2031.13 205.527 L2031.13 191.453 L2028 191.453 L2028 188.143 L2031.13 188.143 L2031.13 180.782 L2035.41 180.782 Z" fill="#000000" fill-rule="nonzero" fill-opacity="1" /><path clip-path="url(#clip460)" d="M2064.81 192.124 Q2064.09 191.708 2063.23 191.522 Q2062.4 191.314 2061.38 191.314 Q2057.77 191.314 2055.83 193.675 Q2053.91 196.013 2053.91 200.411 L2053.91 214.069 L2049.62 214.069 L2049.62 188.143 L2053.91 188.143 L2053.91 192.171 Q2055.25 189.809 2057.4 188.675 Q2059.55 187.518 2062.63 187.518 Q2063.07 187.518 2063.6 187.587 Q2064.14 187.634 2064.78 187.749 L2064.81 192.124 Z" fill="#000000" fill-rule="nonzero" fill-opacity="1" /><path clip-path="url(#clip460)" d="M2081.06 201.036 Q2075.9 201.036 2073.91 202.217 Q2071.91 203.397 2071.91 206.245 Q2071.91 208.513 2073.4 209.856 Q2074.9 211.175 2077.47 211.175 Q2081.01 211.175 2083.14 208.675 Q2085.29 206.152 2085.29 201.985 L2085.29 201.036 L2081.06 201.036 M2089.55 199.277 L2089.55 214.069 L2085.29 214.069 L2085.29 210.133 Q2083.84 212.495 2081.66 213.629 Q2079.48 214.74 2076.34 214.74 Q2072.35 214.74 2069.99 212.518 Q2067.66 210.272 2067.66 206.522 Q2067.66 202.147 2070.57 199.925 Q2073.51 197.703 2079.32 197.703 L2085.29 197.703 L2085.29 197.286 Q2085.29 194.347 2083.35 192.749 Q2081.43 191.129 2077.93 191.129 Q2075.71 191.129 2073.6 191.661 Q2071.5 192.194 2069.55 193.259 L2069.55 189.323 Q2071.89 188.421 2074.09 187.981 Q2076.29 187.518 2078.37 187.518 Q2084 187.518 2086.78 190.434 Q2089.55 193.351 2089.55 199.277 Z" fill="#000000" fill-rule="nonzero" fill-opacity="1" /><path clip-path="url(#clip460)" d="M2119.88 198.421 L2119.88 214.069 L2115.62 214.069 L2115.62 198.559 Q2115.62 194.879 2114.18 193.05 Q2112.75 191.222 2109.88 191.222 Q2106.43 191.222 2104.44 193.421 Q2102.45 195.62 2102.45 199.416 L2102.45 214.069 L2098.16 214.069 L2098.16 188.143 L2102.45 188.143 L2102.45 192.171 Q2103.97 189.833 2106.03 188.675 Q2108.12 187.518 2110.83 187.518 Q2115.29 187.518 2117.59 190.296 Q2119.88 193.05 2119.88 198.421 Z" fill="#000000" fill-rule="nonzero" fill-opacity="1" /><path clip-path="url(#clip460)" d="M2144.9 188.907 L2144.9 192.934 Q2143.09 192.009 2141.15 191.546 Q2139.21 191.083 2137.12 191.083 Q2133.95 191.083 2132.35 192.055 Q2130.78 193.027 2130.78 194.971 Q2130.78 196.453 2131.91 197.309 Q2133.05 198.143 2136.47 198.907 L2137.93 199.231 Q2142.47 200.203 2144.37 201.985 Q2146.29 203.745 2146.29 206.916 Q2146.29 210.527 2143.42 212.633 Q2140.57 214.74 2135.57 214.74 Q2133.49 214.74 2131.22 214.323 Q2128.97 213.93 2126.47 213.12 L2126.47 208.721 Q2128.84 209.948 2131.13 210.573 Q2133.42 211.175 2135.66 211.175 Q2138.67 211.175 2140.29 210.157 Q2141.91 209.115 2141.91 207.24 Q2141.91 205.504 2140.73 204.578 Q2139.58 203.652 2135.62 202.796 L2134.14 202.448 Q2130.18 201.615 2128.42 199.902 Q2126.66 198.166 2126.66 195.157 Q2126.66 191.499 2129.25 189.509 Q2131.84 187.518 2136.61 187.518 Q2138.97 187.518 2141.06 187.865 Q2143.14 188.212 2144.9 188.907 Z" fill="#000000" fill-rule="nonzero" fill-opacity="1" /><path clip-path="url(#clip460)" d="M2166.2 178.05 L2166.2 181.592 L2162.12 181.592 Q2159.83 181.592 2158.93 182.518 Q2158.05 183.444 2158.05 185.851 L2158.05 188.143 L2165.06 188.143 L2165.06 191.453 L2158.05 191.453 L2158.05 214.069 L2153.77 214.069 L2153.77 191.453 L2149.69 191.453 L2149.69 188.143 L2153.77 188.143 L2153.77 186.337 Q2153.77 182.009 2155.78 180.041 Q2157.79 178.05 2162.17 178.05 L2166.2 178.05 Z" fill="#000000" fill-rule="nonzero" fill-opacity="1" /><path clip-path="url(#clip460)" d="M2179.81 191.129 Q2176.38 191.129 2174.39 193.814 Q2172.4 196.476 2172.4 201.129 Q2172.4 205.782 2174.37 208.467 Q2176.36 211.129 2179.81 211.129 Q2183.21 211.129 2185.2 208.444 Q2187.19 205.758 2187.19 201.129 Q2187.19 196.522 2185.2 193.837 Q2183.21 191.129 2179.81 191.129 M2179.81 187.518 Q2185.36 187.518 2188.53 191.129 Q2191.71 194.74 2191.71 201.129 Q2191.71 207.495 2188.53 211.129 Q2185.36 214.74 2179.81 214.74 Q2174.23 214.74 2171.06 211.129 Q2167.91 207.495 2167.91 201.129 Q2167.91 194.74 2171.06 191.129 Q2174.23 187.518 2179.81 187.518 Z" fill="#000000" fill-rule="nonzero" fill-opacity="1" /><path clip-path="url(#clip460)" d="M2213.79 192.124 Q2213.07 191.708 2212.21 191.522 Q2211.38 191.314 2210.36 191.314 Q2206.75 191.314 2204.81 193.675 Q2202.89 196.013 2202.89 200.411 L2202.89 214.069 L2198.6 214.069 L2198.6 188.143 L2202.89 188.143 L2202.89 192.171 Q2204.23 189.809 2206.38 188.675 Q2208.53 187.518 2211.61 187.518 Q2212.05 187.518 2212.59 187.587 Q2213.12 187.634 2213.77 187.749 L2213.79 192.124 Z" fill="#000000" fill-rule="nonzero" fill-opacity="1" /><path clip-path="url(#clip460)" d="M2237.61 193.12 Q2239.21 190.249 2241.43 188.884 Q2243.65 187.518 2246.66 187.518 Q2250.71 187.518 2252.91 190.365 Q2255.11 193.189 2255.11 198.421 L2255.11 214.069 L2250.83 214.069 L2250.83 198.559 Q2250.83 194.833 2249.51 193.027 Q2248.19 191.222 2245.48 191.222 Q2242.17 191.222 2240.25 193.421 Q2238.33 195.62 2238.33 199.416 L2238.33 214.069 L2234.04 214.069 L2234.04 198.559 Q2234.04 194.809 2232.72 193.027 Q2231.4 191.222 2228.65 191.222 Q2225.39 191.222 2223.46 193.444 Q2221.54 195.643 2221.54 199.416 L2221.54 214.069 L2217.26 214.069 L2217.26 188.143 L2221.54 188.143 L2221.54 192.171 Q2223 189.786 2225.04 188.652 Q2227.08 187.518 2229.88 187.518 Q2232.7 187.518 2234.67 188.953 Q2236.66 190.388 2237.61 193.12 Z" fill="#000000" fill-rule="nonzero" fill-opacity="1" /></svg>