<?xml version="1.0" encoding="utf-8"?>
<svg xmlns="http://www.w3.org/2000/svg" xmlns:xlink="http://www.w3.org/1999/xlink" width="600" height="400" viewBox="0 0 2400 1600">
<defs>
  <clipPath id="clip370">
    <rect x="0" y="0" width="2400" height="1600"/>
  </clipPath>
</defs>
<path clip-path="url(#clip370)" d="M0 1600 L2400 1600 L2400 0 L0 0  Z" fill="#ffffff" fill-rule="evenodd" fill-opacity="1"/>
<defs>
  <clipPath id="clip371">
    <rect x="480" y="0" width="1681" height="1600"/>
  </clipPath>
</defs>
<path clip-path="url(#clip370)" d="M202.227 1423.18 L2352.76 1423.18 L2352.76 47.2441 L202.227 47.2441  Z" fill="#ffffff" fill-rule="evenodd" fill-opacity="1"/>
<defs>
  <clipPath id="clip372">
    <rect x="202" y="47" width="2152" height="1377"/>
  </clipPath>
</defs>
<polyline clip-path="url(#clip372)" style="stroke:#000000; stroke-linecap:round; stroke-linejoin:round; stroke-width:2; stroke-opacity:0.1; fill:none" points="263.091,1423.18 263.091,47.2441 "/>
<polyline clip-path="url(#clip372)" style="stroke:#000000; stroke-linecap:round; stroke-linejoin:round; stroke-width:2; stroke-opacity:0.1; fill:none" points="908.879,1423.18 908.879,47.2441 "/>
<polyline clip-path="url(#clip372)" style="stroke:#000000; stroke-linecap:round; stroke-linejoin:round; stroke-width:2; stroke-opacity:0.1; fill:none" points="1554.67,1423.18 1554.67,47.2441 "/>
<polyline clip-path="url(#clip372)" style="stroke:#000000; stroke-linecap:round; stroke-linejoin:round; stroke-width:2; stroke-opacity:0.1; fill:none" points="2200.45,1423.18 2200.45,47.2441 "/>
<polyline clip-path="url(#clip370)" style="stroke:#000000; stroke-linecap:round; stroke-linejoin:round; stroke-width:4; stroke-opacity:1; fill:none" points="202.227,1423.18 2352.76,1423.18 "/>
<polyline clip-path="url(#clip370)" style="stroke:#000000; stroke-linecap:round; stroke-linejoin:round; stroke-width:4; stroke-opacity:1; fill:none" points="263.091,1423.18 263.091,1404.28 "/>
<polyline clip-path="url(#clip370)" style="stroke:#000000; stroke-linecap:round; stroke-linejoin:round; stroke-width:4; stroke-opacity:1; fill:none" points="908.879,1423.18 908.879,1404.28 "/>
<polyline clip-path="url(#clip370)" style="stroke:#000000; stroke-linecap:round; stroke-linejoin:round; stroke-width:4; stroke-opacity:1; fill:none" points="1554.67,1423.18 1554.67,1404.28 "/>
<polyline clip-path="url(#clip370)" style="stroke:#000000; stroke-linecap:round; stroke-linejoin:round; stroke-width:4; stroke-opacity:1; fill:none" points="2200.45,1423.18 2200.45,1404.28 "/>
<path clip-path="url(#clip370)" d="M240.476 1454.1 Q236.865 1454.1 235.036 1457.66 Q233.231 1461.2 233.231 1468.33 Q233.231 1475.44 235.036 1479.01 Q236.865 1482.55 240.476 1482.55 Q244.11 1482.55 245.916 1479.01 Q247.744 1475.44 247.744 1468.33 Q247.744 1461.2 245.916 1457.66 Q244.11 1454.1 240.476 1454.1 M240.476 1450.39 Q246.286 1450.39 249.342 1455 Q252.42 1459.58 252.42 1468.33 Q252.42 1477.06 249.342 1481.67 Q246.286 1486.25 240.476 1486.25 Q234.666 1486.25 231.587 1481.67 Q228.531 1477.06 228.531 1468.33 Q228.531 1459.58 231.587 1455 Q234.666 1450.39 240.476 1450.39 Z" fill="#000000" fill-rule="nonzero" fill-opacity="1" /><path clip-path="url(#clip370)" d="M260.638 1479.7 L265.522 1479.7 L265.522 1485.58 L260.638 1485.58 L260.638 1479.7 Z" fill="#000000" fill-rule="nonzero" fill-opacity="1" /><path clip-path="url(#clip370)" d="M285.707 1454.1 Q282.096 1454.1 280.267 1457.66 Q278.462 1461.2 278.462 1468.33 Q278.462 1475.44 280.267 1479.01 Q282.096 1482.55 285.707 1482.55 Q289.341 1482.55 291.147 1479.01 Q292.976 1475.44 292.976 1468.33 Q292.976 1461.2 291.147 1457.66 Q289.341 1454.1 285.707 1454.1 M285.707 1450.39 Q291.517 1450.39 294.573 1455 Q297.651 1459.58 297.651 1468.33 Q297.651 1477.06 294.573 1481.67 Q291.517 1486.25 285.707 1486.25 Q279.897 1486.25 276.818 1481.67 Q273.763 1477.06 273.763 1468.33 Q273.763 1459.58 276.818 1455 Q279.897 1450.39 285.707 1450.39 Z" fill="#000000" fill-rule="nonzero" fill-opacity="1" /><path clip-path="url(#clip370)" d="M886.761 1454.1 Q883.15 1454.1 881.321 1457.66 Q879.515 1461.2 879.515 1468.33 Q879.515 1475.44 881.321 1479.01 Q883.15 1482.55 886.761 1482.55 Q890.395 1482.55 892.201 1479.01 Q894.029 1475.44 894.029 1468.33 Q894.029 1461.2 892.201 1457.66 Q890.395 1454.1 886.761 1454.1 M886.761 1450.39 Q892.571 1450.39 895.626 1455 Q898.705 1459.58 898.705 1468.33 Q898.705 1477.06 895.626 1481.67 Q892.571 1486.25 886.761 1486.25 Q880.951 1486.25 877.872 1481.67 Q874.816 1477.06 874.816 1468.33 Q874.816 1459.58 877.872 1455 Q880.951 1450.39 886.761 1450.39 Z" fill="#000000" fill-rule="nonzero" fill-opacity="1" /><path clip-path="url(#clip370)" d="M906.923 1479.7 L911.807 1479.7 L911.807 1485.58 L906.923 1485.58 L906.923 1479.7 Z" fill="#000000" fill-rule="nonzero" fill-opacity="1" /><path clip-path="url(#clip370)" d="M922.038 1451.02 L940.395 1451.02 L940.395 1454.96 L926.321 1454.96 L926.321 1463.43 Q927.339 1463.08 928.358 1462.92 Q929.376 1462.73 930.395 1462.73 Q936.182 1462.73 939.561 1465.9 Q942.941 1469.08 942.941 1474.49 Q942.941 1480.07 939.469 1483.17 Q935.997 1486.25 929.677 1486.25 Q927.501 1486.25 925.233 1485.88 Q922.987 1485.51 920.58 1484.77 L920.58 1480.07 Q922.663 1481.2 924.886 1481.76 Q927.108 1482.32 929.585 1482.32 Q933.589 1482.32 935.927 1480.21 Q938.265 1478.1 938.265 1474.49 Q938.265 1470.88 935.927 1468.77 Q933.589 1466.67 929.585 1466.67 Q927.71 1466.67 925.835 1467.08 Q923.983 1467.5 922.038 1468.38 L922.038 1451.02 Z" fill="#000000" fill-rule="nonzero" fill-opacity="1" /><path clip-path="url(#clip370)" d="M1521.82 1481.64 L1529.46 1481.64 L1529.46 1455.28 L1521.15 1456.95 L1521.15 1452.69 L1529.41 1451.02 L1534.09 1451.02 L1534.09 1481.64 L1541.73 1481.64 L1541.73 1485.58 L1521.82 1485.58 L1521.82 1481.64 Z" fill="#000000" fill-rule="nonzero" fill-opacity="1" /><path clip-path="url(#clip370)" d="M1551.17 1479.7 L1556.05 1479.7 L1556.05 1485.58 L1551.17 1485.58 L1551.17 1479.7 Z" fill="#000000" fill-rule="nonzero" fill-opacity="1" /><path clip-path="url(#clip370)" d="M1576.24 1454.1 Q1572.63 1454.1 1570.8 1457.66 Q1568.99 1461.2 1568.99 1468.33 Q1568.99 1475.44 1570.8 1479.01 Q1572.63 1482.55 1576.24 1482.55 Q1579.87 1482.55 1581.68 1479.01 Q1583.51 1475.44 1583.51 1468.33 Q1583.51 1461.2 1581.68 1457.66 Q1579.87 1454.1 1576.24 1454.1 M1576.24 1450.39 Q1582.05 1450.39 1585.11 1455 Q1588.18 1459.58 1588.18 1468.33 Q1588.18 1477.06 1585.11 1481.67 Q1582.05 1486.25 1576.24 1486.25 Q1570.43 1486.25 1567.35 1481.67 Q1564.3 1477.06 1564.3 1468.33 Q1564.3 1459.58 1567.35 1455 Q1570.43 1450.39 1576.24 1450.39 Z" fill="#000000" fill-rule="nonzero" fill-opacity="1" /><path clip-path="url(#clip370)" d="M2168.1 1481.64 L2175.74 1481.64 L2175.74 1455.28 L2167.43 1456.95 L2167.43 1452.69 L2175.7 1451.02 L2180.37 1451.02 L2180.37 1481.64 L2188.01 1481.64 L2188.01 1485.58 L2168.1 1485.58 L2168.1 1481.64 Z" fill="#000000" fill-rule="nonzero" fill-opacity="1" /><path clip-path="url(#clip370)" d="M2197.46 1479.7 L2202.34 1479.7 L2202.34 1485.58 L2197.46 1485.58 L2197.46 1479.7 Z" fill="#000000" fill-rule="nonzero" fill-opacity="1" /><path clip-path="url(#clip370)" d="M2212.57 1451.02 L2230.93 1451.02 L2230.93 1454.96 L2216.85 1454.96 L2216.85 1463.43 Q2217.87 1463.08 2218.89 1462.92 Q2219.91 1462.73 2220.93 1462.73 Q2226.71 1462.73 2230.09 1465.9 Q2233.47 1469.08 2233.47 1474.49 Q2233.47 1480.07 2230 1483.17 Q2226.53 1486.25 2220.21 1486.25 Q2218.03 1486.25 2215.77 1485.88 Q2213.52 1485.51 2211.11 1484.77 L2211.11 1480.07 Q2213.2 1481.2 2215.42 1481.76 Q2217.64 1482.32 2220.12 1482.32 Q2224.12 1482.32 2226.46 1480.21 Q2228.8 1478.1 2228.8 1474.49 Q2228.8 1470.88 2226.46 1468.77 Q2224.12 1466.67 2220.12 1466.67 Q2218.24 1466.67 2216.37 1467.08 Q2214.52 1467.5 2212.57 1468.38 L2212.57 1451.02 Z" fill="#000000" fill-rule="nonzero" fill-opacity="1" /><path clip-path="url(#clip370)" d="M1263.98 1532.4 L1291.8 1532.4 L1291.8 1537.74 L1269.77 1563.37 L1291.8 1563.37 L1291.8 1568.04 L1263.18 1568.04 L1263.18 1562.7 L1285.21 1537.07 L1263.98 1537.07 L1263.98 1532.4 Z" fill="#000000" fill-rule="nonzero" fill-opacity="1" /><polyline clip-path="url(#clip372)" style="stroke:#000000; stroke-linecap:round; stroke-linejoin:round; stroke-width:2; stroke-opacity:0.1; fill:none" points="202.227,1217.74 2352.76,1217.74 "/>
<polyline clip-path="url(#clip372)" style="stroke:#000000; stroke-linecap:round; stroke-linejoin:round; stroke-width:2; stroke-opacity:0.1; fill:none" points="202.227,973.446 2352.76,973.446 "/>
<polyline clip-path="url(#clip372)" style="stroke:#000000; stroke-linecap:round; stroke-linejoin:round; stroke-width:2; stroke-opacity:0.1; fill:none" points="202.227,729.154 2352.76,729.154 "/>
<polyline clip-path="url(#clip372)" style="stroke:#000000; stroke-linecap:round; stroke-linejoin:round; stroke-width:2; stroke-opacity:0.1; fill:none" points="202.227,484.861 2352.76,484.861 "/>
<polyline clip-path="url(#clip372)" style="stroke:#000000; stroke-linecap:round; stroke-linejoin:round; stroke-width:2; stroke-opacity:0.1; fill:none" points="202.227,240.569 2352.76,240.569 "/>
<polyline clip-path="url(#clip370)" style="stroke:#000000; stroke-linecap:round; stroke-linejoin:round; stroke-width:4; stroke-opacity:1; fill:none" points="202.227,1423.18 202.227,47.2441 "/>
<polyline clip-path="url(#clip370)" style="stroke:#000000; stroke-linecap:round; stroke-linejoin:round; stroke-width:4; stroke-opacity:1; fill:none" points="202.227,1217.74 221.125,1217.74 "/>
<polyline clip-path="url(#clip370)" style="stroke:#000000; stroke-linecap:round; stroke-linejoin:round; stroke-width:4; stroke-opacity:1; fill:none" points="202.227,973.446 221.125,973.446 "/>
<polyline clip-path="url(#clip370)" style="stroke:#000000; stroke-linecap:round; stroke-linejoin:round; stroke-width:4; stroke-opacity:1; fill:none" points="202.227,729.154 221.125,729.154 "/>
<polyline clip-path="url(#clip370)" style="stroke:#000000; stroke-linecap:round; stroke-linejoin:round; stroke-width:4; stroke-opacity:1; fill:none" points="202.227,484.861 221.125,484.861 "/>
<polyline clip-path="url(#clip370)" style="stroke:#000000; stroke-linecap:round; stroke-linejoin:round; stroke-width:4; stroke-opacity:1; fill:none" points="202.227,240.569 221.125,240.569 "/>
<path clip-path="url(#clip370)" d="M149.908 1231.08 L166.227 1231.08 L166.227 1235.02 L144.283 1235.02 L144.283 1231.08 Q146.945 1228.33 151.528 1223.7 Q156.135 1219.05 157.315 1217.7 Q159.561 1215.18 160.44 1213.44 Q161.343 1211.69 161.343 1210 Q161.343 1207.24 159.399 1205.51 Q157.478 1203.77 154.376 1203.77 Q152.177 1203.77 149.723 1204.53 Q147.292 1205.3 144.515 1206.85 L144.515 1202.13 Q147.339 1200.99 149.792 1200.41 Q152.246 1199.83 154.283 1199.83 Q159.653 1199.83 162.848 1202.52 Q166.042 1205.2 166.042 1209.69 Q166.042 1211.82 165.232 1213.75 Q164.445 1215.64 162.339 1218.24 Q161.76 1218.91 158.658 1222.13 Q155.556 1225.32 149.908 1231.08 Z" fill="#000000" fill-rule="nonzero" fill-opacity="1" /><path clip-path="url(#clip370)" d="M156.644 960.24 L144.839 978.689 L156.644 978.689 L156.644 960.24 M155.417 956.166 L161.297 956.166 L161.297 978.689 L166.227 978.689 L166.227 982.578 L161.297 982.578 L161.297 990.726 L156.644 990.726 L156.644 982.578 L141.042 982.578 L141.042 978.064 L155.417 956.166 Z" fill="#000000" fill-rule="nonzero" fill-opacity="1" /><path clip-path="url(#clip370)" d="M154.7 727.29 Q151.552 727.29 149.7 729.443 Q147.871 731.596 147.871 735.346 Q147.871 739.073 149.7 741.249 Q151.552 743.402 154.7 743.402 Q157.848 743.402 159.677 741.249 Q161.528 739.073 161.528 735.346 Q161.528 731.596 159.677 729.443 Q157.848 727.29 154.7 727.29 M163.982 712.638 L163.982 716.897 Q162.223 716.064 160.417 715.624 Q158.635 715.184 156.876 715.184 Q152.246 715.184 149.792 718.309 Q147.362 721.434 147.015 727.753 Q148.38 725.74 150.441 724.675 Q152.501 723.587 154.978 723.587 Q160.186 723.587 163.195 726.758 Q166.227 729.906 166.227 735.346 Q166.227 740.67 163.079 743.888 Q159.931 747.105 154.7 747.105 Q148.704 747.105 145.533 742.522 Q142.362 737.915 142.362 729.189 Q142.362 720.994 146.251 716.133 Q150.14 711.249 156.69 711.249 Q158.45 711.249 160.232 711.596 Q162.038 711.943 163.982 712.638 Z" fill="#000000" fill-rule="nonzero" fill-opacity="1" /><path clip-path="url(#clip370)" d="M154.376 485.729 Q151.042 485.729 149.121 487.512 Q147.223 489.294 147.223 492.419 Q147.223 495.544 149.121 497.327 Q151.042 499.109 154.376 499.109 Q157.709 499.109 159.63 497.327 Q161.552 495.521 161.552 492.419 Q161.552 489.294 159.63 487.512 Q157.732 485.729 154.376 485.729 M149.7 483.739 Q146.691 482.998 145.001 480.938 Q143.334 478.878 143.334 475.915 Q143.334 471.771 146.274 469.364 Q149.237 466.956 154.376 466.956 Q159.538 466.956 162.477 469.364 Q165.417 471.771 165.417 475.915 Q165.417 478.878 163.727 480.938 Q162.061 482.998 159.075 483.739 Q162.454 484.526 164.329 486.817 Q166.227 489.109 166.227 492.419 Q166.227 497.442 163.149 500.128 Q160.093 502.813 154.376 502.813 Q148.658 502.813 145.579 500.128 Q142.524 497.442 142.524 492.419 Q142.524 489.109 144.422 486.817 Q146.32 484.526 149.7 483.739 M147.987 476.354 Q147.987 479.04 149.653 480.544 Q151.343 482.049 154.376 482.049 Q157.385 482.049 159.075 480.544 Q160.788 479.04 160.788 476.354 Q160.788 473.669 159.075 472.165 Q157.385 470.66 154.376 470.66 Q151.343 470.66 149.653 472.165 Q147.987 473.669 147.987 476.354 Z" fill="#000000" fill-rule="nonzero" fill-opacity="1" /><path clip-path="url(#clip370)" d="M114.931 253.914 L122.57 253.914 L122.57 227.548 L114.26 229.215 L114.26 224.956 L122.524 223.289 L127.2 223.289 L127.2 253.914 L134.839 253.914 L134.839 257.849 L114.931 257.849 L114.931 253.914 Z" fill="#000000" fill-rule="nonzero" fill-opacity="1" /><path clip-path="url(#clip370)" d="M154.283 226.368 Q150.672 226.368 148.843 229.932 Q147.038 233.474 147.038 240.604 Q147.038 247.71 148.843 251.275 Q150.672 254.817 154.283 254.817 Q157.917 254.817 159.723 251.275 Q161.552 247.71 161.552 240.604 Q161.552 233.474 159.723 229.932 Q157.917 226.368 154.283 226.368 M154.283 222.664 Q160.093 222.664 163.149 227.27 Q166.227 231.854 166.227 240.604 Q166.227 249.33 163.149 253.937 Q160.093 258.52 154.283 258.52 Q148.473 258.52 145.394 253.937 Q142.339 249.33 142.339 240.604 Q142.339 231.854 145.394 227.27 Q148.473 222.664 154.283 222.664 Z" fill="#000000" fill-rule="nonzero" fill-opacity="1" /><path clip-path="url(#clip370)" d="M28.3562 887.13 L28.3562 881.273 L64.0042 881.273 L64.0042 887.13 L28.3562 887.13 M14.479 887.13 L14.479 881.273 L21.895 881.273 L21.895 887.13 L14.479 887.13 Z" fill="#000000" fill-rule="nonzero" fill-opacity="1" /><path clip-path="url(#clip370)" d="M42.4881 839.387 L64.0042 839.387 L64.0042 845.243 L42.679 845.243 Q37.6183 845.243 35.1038 847.217 Q32.5894 849.19 32.5894 853.137 Q32.5894 857.879 35.6131 860.616 Q38.6368 863.354 43.8567 863.354 L64.0042 863.354 L64.0042 869.242 L28.3562 869.242 L28.3562 863.354 L33.8944 863.354 Q30.6797 861.253 29.0883 858.42 Q27.4968 855.556 27.4968 851.832 Q27.4968 845.689 31.3163 842.538 Q35.1038 839.387 42.4881 839.387 Z" fill="#000000" fill-rule="nonzero" fill-opacity="1" /><path clip-path="url(#clip370)" d="M18.2347 821.913 L28.3562 821.913 L28.3562 809.85 L32.9077 809.85 L32.9077 821.913 L52.2594 821.913 Q56.6199 821.913 57.8613 820.735 Q59.1026 819.526 59.1026 815.865 L59.1026 809.85 L64.0042 809.85 L64.0042 815.865 Q64.0042 822.645 61.4897 825.223 Q58.9434 827.801 52.2594 827.801 L32.9077 827.801 L32.9077 832.098 L28.3562 832.098 L28.3562 827.801 L18.2347 827.801 L18.2347 821.913 Z" fill="#000000" fill-rule="nonzero" fill-opacity="1" /><path clip-path="url(#clip370)" d="M44.7161 771.656 L47.5806 771.656 L47.5806 798.583 Q53.6281 798.201 56.8109 794.954 Q59.9619 791.676 59.9619 785.851 Q59.9619 782.477 59.1344 779.326 Q58.3069 776.143 56.6518 773.024 L62.1899 773.024 Q63.5267 776.175 64.227 779.485 Q64.9272 782.796 64.9272 786.201 Q64.9272 794.731 59.9619 799.728 Q54.9967 804.694 46.5303 804.694 Q37.7774 804.694 32.6531 799.983 Q27.4968 795.241 27.4968 787.22 Q27.4968 780.027 32.1438 775.857 Q36.7589 771.656 44.7161 771.656 M42.9973 777.512 Q38.1912 777.576 35.3266 780.218 Q32.4621 782.827 32.4621 787.156 Q32.4621 792.058 35.2312 795.018 Q38.0002 797.946 43.0292 798.392 L42.9973 777.512 Z" fill="#000000" fill-rule="nonzero" fill-opacity="1" /><path clip-path="url(#clip370)" d="M45.7664 738.586 Q39.4007 738.586 35.8996 741.228 Q32.3984 743.838 32.3984 748.58 Q32.3984 753.291 35.8996 755.932 Q39.4007 758.542 45.7664 758.542 Q52.1003 758.542 55.6014 755.932 Q59.1026 753.291 59.1026 748.58 Q59.1026 743.838 55.6014 741.228 Q52.1003 738.586 45.7664 738.586 M59.58 732.729 Q68.683 732.729 73.1071 736.772 Q77.5631 740.814 77.5631 749.153 Q77.5631 752.24 77.0857 754.977 Q76.6401 757.715 75.6852 760.293 L69.9879 760.293 Q71.3884 757.715 72.0568 755.2 Q72.7252 752.686 72.7252 750.076 Q72.7252 744.315 69.7015 741.45 Q66.7096 738.586 60.6303 738.586 L57.7339 738.586 Q60.885 740.4 62.4446 743.233 Q64.0042 746.065 64.0042 750.012 Q64.0042 756.569 59.0071 760.579 Q54.01 764.59 45.7664 764.59 Q37.491 764.59 32.4939 760.579 Q27.4968 756.569 27.4968 750.012 Q27.4968 746.065 29.0564 743.233 Q30.616 740.4 33.7671 738.586 L28.3562 738.586 L28.3562 732.729 L59.58 732.729 Z" fill="#000000" fill-rule="nonzero" fill-opacity="1" /><path clip-path="url(#clip370)" d="M33.8307 700.01 Q33.2578 700.996 33.0032 702.174 Q32.7167 703.32 32.7167 704.72 Q32.7167 709.685 35.9632 712.359 Q39.1779 715.001 45.2253 715.001 L64.0042 715.001 L64.0042 720.889 L28.3562 720.889 L28.3562 715.001 L33.8944 715.001 Q30.6479 713.155 29.0883 710.195 Q27.4968 707.235 27.4968 703.001 Q27.4968 702.397 27.5923 701.665 Q27.656 700.933 27.8151 700.041 L33.8307 700.01 Z" fill="#000000" fill-rule="nonzero" fill-opacity="1" /><path clip-path="url(#clip370)" d="M46.0847 677.666 Q46.0847 684.764 47.7079 687.501 Q49.3312 690.238 53.2461 690.238 Q56.3653 690.238 58.2114 688.201 Q60.0256 686.132 60.0256 682.599 Q60.0256 677.73 56.5881 674.801 Q53.1188 671.841 47.3897 671.841 L46.0847 671.841 L46.0847 677.666 M43.6657 665.985 L64.0042 665.985 L64.0042 671.841 L58.5933 671.841 Q61.8398 673.847 63.3994 676.838 Q64.9272 679.83 64.9272 684.159 Q64.9272 689.634 61.8716 692.88 Q58.7843 696.095 53.6281 696.095 Q47.6125 696.095 44.5569 692.084 Q41.5014 688.042 41.5014 680.053 L41.5014 671.841 L40.9285 671.841 Q36.8862 671.841 34.6901 674.515 Q32.4621 677.157 32.4621 681.963 Q32.4621 685.018 33.1941 687.915 Q33.9262 690.811 35.3903 693.485 L29.9795 693.485 Q28.7381 690.27 28.1334 687.246 Q27.4968 684.223 27.4968 681.358 Q27.4968 673.624 31.5072 669.804 Q35.5176 665.985 43.6657 665.985 Z" fill="#000000" fill-rule="nonzero" fill-opacity="1" /><path clip-path="url(#clip370)" d="M42.4881 624.29 L64.0042 624.29 L64.0042 630.146 L42.679 630.146 Q37.6183 630.146 35.1038 632.119 Q32.5894 634.093 32.5894 638.039 Q32.5894 642.782 35.6131 645.519 Q38.6368 648.256 43.8567 648.256 L64.0042 648.256 L64.0042 654.145 L28.3562 654.145 L28.3562 648.256 L33.8944 648.256 Q30.6797 646.156 29.0883 643.323 Q27.4968 640.458 27.4968 636.734 Q27.4968 630.592 31.3163 627.441 Q35.1038 624.29 42.4881 624.29 Z" fill="#000000" fill-rule="nonzero" fill-opacity="1" /><path clip-path="url(#clip370)" d="M33.7671 589.151 L14.479 589.151 L14.479 583.294 L64.0042 583.294 L64.0042 589.151 L58.657 589.151 Q61.8398 590.997 63.3994 593.83 Q64.9272 596.631 64.9272 600.577 Q64.9272 607.038 59.771 611.113 Q54.6147 615.155 46.212 615.155 Q37.8093 615.155 32.6531 611.113 Q27.4968 607.038 27.4968 600.577 Q27.4968 596.631 29.0564 593.83 Q30.5842 590.997 33.7671 589.151 M46.212 609.107 Q52.6732 609.107 56.3653 606.466 Q60.0256 603.792 60.0256 599.145 Q60.0256 594.498 56.3653 591.824 Q52.6732 589.151 46.212 589.151 Q39.7508 589.151 36.0905 591.824 Q32.3984 594.498 32.3984 599.145 Q32.3984 603.792 36.0905 606.466 Q39.7508 609.107 46.212 609.107 Z" fill="#000000" fill-rule="nonzero" fill-opacity="1" /><polyline clip-path="url(#clip372)" style="stroke:#009af9; stroke-linecap:round; stroke-linejoin:round; stroke-width:4; stroke-opacity:1; fill:none" points="263.091,1384.24 266.394,1384.24 269.696,1384.24 272.998,1384.24 276.3,1384.24 306.833,1384.24 337.366,1384.24 367.9,1384.24 398.433,1384.24 435.131,1384.24 471.829,1384.24 502.857,1384.24 533.885,1384.24 567.59,1384.24 601.295,1384.24 632.368,1384.24 663.441,1384.24 696.755,1384.23 730.069,1384.23 768.666,1384.23 807.263,1384.23 841.563,1384.23 875.864,1384.23 905.942,1384.23 936.021,1384.23 1001.61,1384.23 1067.58,1384.23 1140.53,1384.23 1209.94,1384.22 1282.1,1384.22 1342.85,1384.22 1417.02,1384.22 1484.96,1384.22 1547.71,1384.22 1611.28,1384.21 1646.89,1384.21 1682.51,1384.21 1714.79,1384.21 1747.06,1384.21 1784.02,1384.21 1820.97,1384.21 1855.19,1384.21 1889.4,1384.21 1923.14,1384.21 1956.87,1384.21 1989.62,1384.21 2022.37,1384.21 2055.95,1384.21 2089.52,1384.21 2126.31,1384.21 2163.09,1384.21 2189.81,1384.21 2216.53,1384.21 2243.25,1384.21 2269.97,1384.21 2275.45,1384.21 2280.93,1384.21 2286.41,1384.21 "/>
<polyline clip-path="url(#clip372)" style="stroke:#e26f46; stroke-linecap:round; stroke-linejoin:round; stroke-width:4; stroke-opacity:1; fill:none" points="263.091,1375.66 266.394,1375.66 269.696,1375.66 272.998,1375.66 276.3,1375.66 306.833,1375.65 337.366,1375.63 367.9,1375.59 398.433,1375.55 435.131,1375.48 471.829,1375.4 502.857,1375.32 533.885,1375.22 567.59,1375.11 601.295,1374.98 632.368,1374.85 663.441,1374.71 696.755,1374.55 730.069,1374.38 768.666,1374.17 807.263,1373.95 841.563,1373.74 875.864,1373.51 905.942,1373.31 936.021,1373.1 1001.61,1372.63 1067.58,1372.12 1140.53,1371.53 1209.94,1370.95 1282.1,1370.34 1342.85,1369.82 1417.02,1369.18 1484.96,1368.6 1547.71,1368.09 1611.28,1367.58 1646.89,1367.3 1682.51,1367.04 1714.79,1366.81 1747.06,1366.58 1784.02,1366.34 1820.97,1366.1 1855.19,1365.9 1889.4,1365.71 1923.14,1365.53 1956.87,1365.37 1989.62,1365.22 2022.37,1365.09 2055.95,1364.97 2089.52,1364.87 2126.31,1364.77 2163.09,1364.69 2189.81,1364.65 2216.53,1364.61 2243.25,1364.59 2269.97,1364.58 2275.45,1364.57 2280.93,1364.57 2286.41,1364.57 "/>
<polyline clip-path="url(#clip372)" style="stroke:#3da44d; stroke-linecap:round; stroke-linejoin:round; stroke-width:4; stroke-opacity:1; fill:none" points="263.091,1340.27 276.3,1340.26 398.433,1339.3 471.829,1337.94 533.885,1336.32 601.295,1334.05 663.441,1331.46 730.069,1328.12 807.263,1323.47 875.864,1318.55 936.021,1313.57 1001.61,1307.36 1067.58,1300.18 1140.53,1291 1209.94,1280.88 1282.1,1268.65 1342.85,1256.77 1417.02,1239.88 1484.96,1221.61 1516.34,1212.1 1547.71,1201.79 1579.49,1190.45 1611.28,1178.09 1646.89,1162.86 1682.51,1145.97 1714.79,1129 1747.06,1110.2 1765.54,1098.5 1784.02,1086.04 1802.49,1072.75 1820.97,1058.55 1838.08,1044.51 1855.19,1029.53 1872.3,1013.52 1889.4,996.388 1906.27,978.276 1923.14,958.835 1940,937.928 1956.87,915.403 1973.25,891.824 1989.62,866.388 2006,838.907 2022.37,809.173 2039.16,776.122 2055.95,740.22 2064.34,721.121 2072.74,701.215 2081.13,680.472 2089.52,658.866 2098.72,634.174 2107.92,608.392 2117.11,581.507 2126.31,553.518 2135.5,524.443 2144.7,494.322 2153.9,463.226 2163.09,431.261 2176.45,383.6 2189.81,335.104 2203.17,286.731 2216.53,239.762 2223.21,217.295 2229.89,195.807 2236.57,175.539 2243.25,156.744 2249.93,139.676 2256.61,124.585 2263.29,111.708 2269.97,101.256 2272.71,97.7124 2275.45,94.6191 2278.19,91.9853 2280.93,89.819 2283.67,88.127 2286.41,86.9146 2289.15,86.1857 "/>
<path clip-path="url(#clip370)" d="M273.912 449.509 L1009.38 449.509 L1009.38 93.1086 L273.912 93.1086  Z" fill="#ffffff" fill-rule="evenodd" fill-opacity="1"/>
<polyline clip-path="url(#clip370)" style="stroke:#000000; stroke-linecap:round; stroke-linejoin:round; stroke-width:4; stroke-opacity:1; fill:none" points="273.912,449.509 1009.38,449.509 1009.38,93.1086 273.912,93.1086 273.912,449.509 "/>
<path clip-path="url(#clip370)" d="M643.678 165.55 L623.403 165.55 Q623.881 175.067 626.077 179.109 Q628.814 184.075 633.556 184.075 Q638.331 184.075 640.972 179.077 Q643.296 174.685 643.678 165.55 M643.582 160.14 Q642.691 151.1 640.972 147.917 Q638.235 142.888 633.556 142.888 Q628.687 142.888 626.109 147.854 Q624.072 151.864 623.467 160.14 L643.582 160.14 M633.556 138.114 Q641.195 138.114 645.556 144.862 Q649.916 151.578 649.916 163.482 Q649.916 175.354 645.556 182.101 Q641.195 188.881 633.556 188.881 Q625.886 188.881 621.557 182.101 Q617.197 175.354 617.197 163.482 Q617.197 151.578 621.557 144.862 Q625.886 138.114 633.556 138.114 Z" fill="#000000" fill-rule="nonzero" fill-opacity="1" /><path clip-path="url(#clip370)" d="M675.443 176.881 L675.443 188.149 L671.751 188.149 L671.751 176.213 Q671.751 173.317 670.605 171.948 Q669.459 170.547 667.072 170.547 Q664.239 170.547 662.584 172.266 Q660.929 173.953 660.929 176.881 L660.929 188.149 L657.205 188.149 L657.205 168.192 L660.929 168.192 L660.929 171.279 Q662.17 169.465 663.921 168.606 Q665.703 167.715 668.154 167.715 Q670.573 167.715 672.292 168.829 Q674.01 169.911 674.838 172.012 Q676.207 169.815 678.116 168.765 Q680.058 167.715 682.668 167.715 Q686.201 167.715 688.079 169.911 Q689.988 172.075 689.988 176.086 L689.988 188.149 L686.296 188.149 L686.296 176.213 Q686.296 173.348 685.15 171.948 Q684.005 170.547 681.649 170.547 Q678.785 170.547 677.098 172.266 Q675.443 173.953 675.443 176.881 Z" fill="#000000" fill-rule="nonzero" fill-opacity="1" /><polyline clip-path="url(#clip370)" style="stroke:#009af9; stroke-linecap:round; stroke-linejoin:round; stroke-width:4; stroke-opacity:1; fill:none" points="297.807,235.669 441.175,235.669 "/>
<path clip-path="url(#clip370)" d="M477.014 221.467 Q473.403 221.467 471.574 225.032 Q469.769 228.574 469.769 235.703 Q469.769 242.81 471.574 246.375 Q473.403 249.916 477.014 249.916 Q480.648 249.916 482.454 246.375 Q484.283 242.81 484.283 235.703 Q484.283 228.574 482.454 225.032 Q480.648 221.467 477.014 221.467 M477.014 217.764 Q482.824 217.764 485.88 222.37 Q488.959 226.953 488.959 235.703 Q488.959 244.43 485.88 249.037 Q482.824 253.62 477.014 253.62 Q471.204 253.62 468.125 249.037 Q465.07 244.43 465.07 235.703 Q465.07 226.953 468.125 222.37 Q471.204 217.764 477.014 217.764 Z" fill="#000000" fill-rule="nonzero" fill-opacity="1" /><path clip-path="url(#clip370)" d="M497.176 247.069 L502.06 247.069 L502.06 252.949 L497.176 252.949 L497.176 247.069 Z" fill="#000000" fill-rule="nonzero" fill-opacity="1" /><path clip-path="url(#clip370)" d="M513.056 249.013 L520.695 249.013 L520.695 222.648 L512.384 224.315 L512.384 220.055 L520.648 218.389 L525.324 218.389 L525.324 249.013 L532.963 249.013 L532.963 252.949 L513.056 252.949 L513.056 249.013 Z" fill="#000000" fill-rule="nonzero" fill-opacity="1" /><polyline clip-path="url(#clip370)" style="stroke:#e26f46; stroke-linecap:round; stroke-linejoin:round; stroke-width:4; stroke-opacity:1; fill:none" points="297.807,306.949 441.175,306.949 "/>
<path clip-path="url(#clip370)" d="M465.741 320.293 L473.38 320.293 L473.38 293.928 L465.07 295.595 L465.07 291.335 L473.334 289.669 L478.01 289.669 L478.01 320.293 L485.648 320.293 L485.648 324.229 L465.741 324.229 L465.741 320.293 Z" fill="#000000" fill-rule="nonzero" fill-opacity="1" /><path clip-path="url(#clip370)" d="M495.093 318.349 L499.977 318.349 L499.977 324.229 L495.093 324.229 L495.093 318.349 Z" fill="#000000" fill-rule="nonzero" fill-opacity="1" /><path clip-path="url(#clip370)" d="M510.208 289.669 L528.565 289.669 L528.565 293.604 L514.491 293.604 L514.491 302.076 Q515.509 301.729 516.528 301.567 Q517.546 301.382 518.565 301.382 Q524.352 301.382 527.732 304.553 Q531.111 307.724 531.111 313.141 Q531.111 318.719 527.639 321.821 Q524.167 324.9 517.847 324.9 Q515.671 324.9 513.403 324.53 Q511.158 324.159 508.75 323.418 L508.75 318.719 Q510.833 319.854 513.056 320.409 Q515.278 320.965 517.755 320.965 Q521.759 320.965 524.097 318.858 Q526.435 316.752 526.435 313.141 Q526.435 309.53 524.097 307.423 Q521.759 305.317 517.755 305.317 Q515.88 305.317 514.005 305.733 Q512.153 306.15 510.208 307.03 L510.208 289.669 Z" fill="#000000" fill-rule="nonzero" fill-opacity="1" /><path clip-path="url(#clip370)" d="M539.144 289.669 L561.366 289.669 L561.366 291.659 L548.819 324.229 L543.935 324.229 L555.741 293.604 L539.144 293.604 L539.144 289.669 Z" fill="#000000" fill-rule="nonzero" fill-opacity="1" /><path clip-path="url(#clip370)" d="M580.486 292.747 Q576.875 292.747 575.046 296.312 Q573.241 299.854 573.241 306.983 Q573.241 314.09 575.046 317.655 Q576.875 321.196 580.486 321.196 Q584.12 321.196 585.926 317.655 Q587.754 314.09 587.754 306.983 Q587.754 299.854 585.926 296.312 Q584.12 292.747 580.486 292.747 M580.486 289.044 Q586.296 289.044 589.352 293.65 Q592.43 298.233 592.43 306.983 Q592.43 315.71 589.352 320.317 Q586.296 324.9 580.486 324.9 Q574.676 324.9 571.597 320.317 Q568.542 315.71 568.542 306.983 Q568.542 298.233 571.597 293.65 Q574.676 289.044 580.486 289.044 Z" fill="#000000" fill-rule="nonzero" fill-opacity="1" /><path clip-path="url(#clip370)" d="M599.467 289.669 L621.689 289.669 L621.689 291.659 L609.143 324.229 L604.259 324.229 L616.064 293.604 L599.467 293.604 L599.467 289.669 Z" fill="#000000" fill-rule="nonzero" fill-opacity="1" /><path clip-path="url(#clip370)" d="M630.949 323.511 L630.949 319.252 Q632.708 320.085 634.513 320.525 Q636.319 320.965 638.055 320.965 Q642.685 320.965 645.115 317.863 Q647.569 314.738 647.916 308.395 Q646.573 310.386 644.513 311.451 Q642.453 312.516 639.953 312.516 Q634.768 312.516 631.736 309.391 Q628.726 306.243 628.726 300.803 Q628.726 295.479 631.874 292.261 Q635.023 289.044 640.254 289.044 Q646.249 289.044 649.398 293.65 Q652.569 298.233 652.569 306.983 Q652.569 315.155 648.68 320.039 Q644.814 324.9 638.263 324.9 Q636.504 324.9 634.699 324.553 Q632.893 324.205 630.949 323.511 M640.254 308.858 Q643.402 308.858 645.231 306.706 Q647.083 304.553 647.083 300.803 Q647.083 297.076 645.231 294.923 Q643.402 292.747 640.254 292.747 Q637.106 292.747 635.254 294.923 Q633.425 297.076 633.425 300.803 Q633.425 304.553 635.254 306.706 Q637.106 308.858 640.254 308.858 Z" fill="#000000" fill-rule="nonzero" fill-opacity="1" /><path clip-path="url(#clip370)" d="M671.55 305.085 Q668.402 305.085 666.55 307.238 Q664.722 309.391 664.722 313.141 Q664.722 316.868 666.55 319.043 Q668.402 321.196 671.55 321.196 Q674.698 321.196 676.527 319.043 Q678.379 316.868 678.379 313.141 Q678.379 309.391 676.527 307.238 Q674.698 305.085 671.55 305.085 M680.833 290.433 L680.833 294.692 Q679.073 293.858 677.268 293.419 Q675.485 292.979 673.726 292.979 Q669.097 292.979 666.643 296.104 Q664.212 299.229 663.865 305.548 Q665.231 303.534 667.291 302.469 Q669.351 301.382 671.828 301.382 Q677.036 301.382 680.046 304.553 Q683.078 307.701 683.078 313.141 Q683.078 318.465 679.93 321.682 Q676.782 324.9 671.55 324.9 Q665.555 324.9 662.384 320.317 Q659.212 315.71 659.212 306.983 Q659.212 298.789 663.101 293.928 Q666.99 289.044 673.541 289.044 Q675.3 289.044 677.083 289.391 Q678.888 289.738 680.833 290.433 Z" fill="#000000" fill-rule="nonzero" fill-opacity="1" /><path clip-path="url(#clip370)" d="M705.3 305.594 Q708.656 306.312 710.531 308.581 Q712.43 310.849 712.43 314.182 Q712.43 319.298 708.911 322.099 Q705.393 324.9 698.911 324.9 Q696.735 324.9 694.42 324.46 Q692.129 324.043 689.675 323.187 L689.675 318.673 Q691.62 319.807 693.934 320.386 Q696.249 320.965 698.772 320.965 Q703.17 320.965 705.462 319.229 Q707.777 317.493 707.777 314.182 Q707.777 311.127 705.624 309.414 Q703.494 307.678 699.675 307.678 L695.647 307.678 L695.647 303.835 L699.86 303.835 Q703.309 303.835 705.138 302.469 Q706.967 301.081 706.967 298.488 Q706.967 295.826 705.069 294.414 Q703.194 292.979 699.675 292.979 Q697.754 292.979 695.555 293.395 Q693.356 293.812 690.717 294.692 L690.717 290.525 Q693.379 289.784 695.694 289.414 Q698.032 289.044 700.092 289.044 Q705.416 289.044 708.518 291.474 Q711.619 293.882 711.619 298.002 Q711.619 300.872 709.976 302.863 Q708.332 304.831 705.3 305.594 Z" fill="#000000" fill-rule="nonzero" fill-opacity="1" /><path clip-path="url(#clip370)" d="M725.323 320.293 L741.642 320.293 L741.642 324.229 L719.698 324.229 L719.698 320.293 Q722.36 317.539 726.943 312.909 Q731.55 308.256 732.73 306.914 Q734.976 304.391 735.855 302.655 Q736.758 300.895 736.758 299.206 Q736.758 296.451 734.814 294.715 Q732.892 292.979 729.791 292.979 Q727.592 292.979 725.138 293.743 Q722.707 294.507 719.93 296.057 L719.93 291.335 Q722.754 290.201 725.207 289.622 Q727.661 289.044 729.698 289.044 Q735.068 289.044 738.263 291.729 Q741.457 294.414 741.457 298.905 Q741.457 301.034 740.647 302.956 Q739.86 304.854 737.754 307.446 Q737.175 308.118 734.073 311.335 Q730.971 314.53 725.323 320.293 Z" fill="#000000" fill-rule="nonzero" fill-opacity="1" /><path clip-path="url(#clip370)" d="M762.036 305.085 Q758.888 305.085 757.036 307.238 Q755.207 309.391 755.207 313.141 Q755.207 316.868 757.036 319.043 Q758.888 321.196 762.036 321.196 Q765.184 321.196 767.013 319.043 Q768.865 316.868 768.865 313.141 Q768.865 309.391 767.013 307.238 Q765.184 305.085 762.036 305.085 M771.318 290.433 L771.318 294.692 Q769.559 293.858 767.753 293.419 Q765.971 292.979 764.212 292.979 Q759.582 292.979 757.128 296.104 Q754.698 299.229 754.351 305.548 Q755.716 303.534 757.777 302.469 Q759.837 301.382 762.314 301.382 Q767.522 301.382 770.531 304.553 Q773.564 307.701 773.564 313.141 Q773.564 318.465 770.415 321.682 Q767.267 324.9 762.036 324.9 Q756.04 324.9 752.869 320.317 Q749.698 315.71 749.698 306.983 Q749.698 298.789 753.587 293.928 Q757.476 289.044 764.027 289.044 Q765.786 289.044 767.568 289.391 Q769.374 289.738 771.318 290.433 Z" fill="#000000" fill-rule="nonzero" fill-opacity="1" /><path clip-path="url(#clip370)" d="M780.439 289.669 L802.661 289.669 L802.661 291.659 L790.114 324.229 L785.23 324.229 L797.036 293.604 L780.439 293.604 L780.439 289.669 Z" fill="#000000" fill-rule="nonzero" fill-opacity="1" /><path clip-path="url(#clip370)" d="M811.92 323.511 L811.92 319.252 Q813.679 320.085 815.485 320.525 Q817.29 320.965 819.026 320.965 Q823.656 320.965 826.086 317.863 Q828.54 314.738 828.887 308.395 Q827.545 310.386 825.485 311.451 Q823.424 312.516 820.924 312.516 Q815.739 312.516 812.707 309.391 Q809.698 306.243 809.698 300.803 Q809.698 295.479 812.846 292.261 Q815.994 289.044 821.225 289.044 Q827.221 289.044 830.369 293.65 Q833.54 298.233 833.54 306.983 Q833.54 315.155 829.651 320.039 Q825.785 324.9 819.235 324.9 Q817.475 324.9 815.67 324.553 Q813.864 324.205 811.92 323.511 M821.225 308.858 Q824.373 308.858 826.202 306.706 Q828.054 304.553 828.054 300.803 Q828.054 297.076 826.202 294.923 Q824.373 292.747 821.225 292.747 Q818.077 292.747 816.225 294.923 Q814.397 297.076 814.397 300.803 Q814.397 304.553 816.225 306.706 Q818.077 308.858 821.225 308.858 Z" fill="#000000" fill-rule="nonzero" fill-opacity="1" /><path clip-path="url(#clip370)" d="M854.79 293.743 L842.984 312.192 L854.79 312.192 L854.79 293.743 M853.563 289.669 L859.443 289.669 L859.443 312.192 L864.373 312.192 L864.373 316.081 L859.443 316.081 L859.443 324.229 L854.79 324.229 L854.79 316.081 L839.188 316.081 L839.188 311.567 L853.563 289.669 Z" fill="#000000" fill-rule="nonzero" fill-opacity="1" /><path clip-path="url(#clip370)" d="M882.105 307.817 Q878.771 307.817 876.85 309.599 Q874.952 311.381 874.952 314.506 Q874.952 317.631 876.85 319.414 Q878.771 321.196 882.105 321.196 Q885.438 321.196 887.359 319.414 Q889.281 317.608 889.281 314.506 Q889.281 311.381 887.359 309.599 Q885.461 307.817 882.105 307.817 M877.429 305.826 Q874.419 305.085 872.73 303.025 Q871.063 300.965 871.063 298.002 Q871.063 293.858 874.003 291.451 Q876.966 289.044 882.105 289.044 Q887.267 289.044 890.206 291.451 Q893.146 293.858 893.146 298.002 Q893.146 300.965 891.456 303.025 Q889.79 305.085 886.804 305.826 Q890.183 306.613 892.058 308.905 Q893.956 311.196 893.956 314.506 Q893.956 319.53 890.878 322.215 Q887.822 324.9 882.105 324.9 Q876.387 324.9 873.308 322.215 Q870.253 319.53 870.253 314.506 Q870.253 311.196 872.151 308.905 Q874.049 306.613 877.429 305.826 M875.716 298.442 Q875.716 301.127 877.382 302.632 Q879.072 304.136 882.105 304.136 Q885.114 304.136 886.804 302.632 Q888.517 301.127 888.517 298.442 Q888.517 295.757 886.804 294.252 Q885.114 292.747 882.105 292.747 Q879.072 292.747 877.382 294.252 Q875.716 295.757 875.716 298.442 Z" fill="#000000" fill-rule="nonzero" fill-opacity="1" /><path clip-path="url(#clip370)" d="M902.405 323.511 L902.405 319.252 Q904.165 320.085 905.97 320.525 Q907.776 320.965 909.512 320.965 Q914.142 320.965 916.572 317.863 Q919.026 314.738 919.373 308.395 Q918.03 310.386 915.97 311.451 Q913.91 312.516 911.41 312.516 Q906.225 312.516 903.192 309.391 Q900.183 306.243 900.183 300.803 Q900.183 295.479 903.331 292.261 Q906.48 289.044 911.711 289.044 Q917.706 289.044 920.854 293.65 Q924.026 298.233 924.026 306.983 Q924.026 315.155 920.137 320.039 Q916.271 324.9 909.72 324.9 Q907.961 324.9 906.155 324.553 Q904.35 324.205 902.405 323.511 M911.711 308.858 Q914.859 308.858 916.688 306.706 Q918.54 304.553 918.54 300.803 Q918.54 297.076 916.688 294.923 Q914.859 292.747 911.711 292.747 Q908.563 292.747 906.711 294.923 Q904.882 297.076 904.882 300.803 Q904.882 304.553 906.711 306.706 Q908.563 308.858 911.711 308.858 Z" fill="#000000" fill-rule="nonzero" fill-opacity="1" /><path clip-path="url(#clip370)" d="M943.007 305.085 Q939.859 305.085 938.007 307.238 Q936.178 309.391 936.178 313.141 Q936.178 316.868 938.007 319.043 Q939.859 321.196 943.007 321.196 Q946.155 321.196 947.984 319.043 Q949.836 316.868 949.836 313.141 Q949.836 309.391 947.984 307.238 Q946.155 305.085 943.007 305.085 M952.289 290.433 L952.289 294.692 Q950.53 293.858 948.725 293.419 Q946.942 292.979 945.183 292.979 Q940.553 292.979 938.1 296.104 Q935.669 299.229 935.322 305.548 Q936.688 303.534 938.748 302.469 Q940.808 301.382 943.285 301.382 Q948.493 301.382 951.502 304.553 Q954.535 307.701 954.535 313.141 Q954.535 318.465 951.387 321.682 Q948.239 324.9 943.007 324.9 Q937.012 324.9 933.84 320.317 Q930.669 315.71 930.669 306.983 Q930.669 298.789 934.558 293.928 Q938.447 289.044 944.998 289.044 Q946.757 289.044 948.539 289.391 Q950.345 289.738 952.289 290.433 Z" fill="#000000" fill-rule="nonzero" fill-opacity="1" /><path clip-path="url(#clip370)" d="M973.169 305.085 Q970.021 305.085 968.169 307.238 Q966.34 309.391 966.34 313.141 Q966.34 316.868 968.169 319.043 Q970.021 321.196 973.169 321.196 Q976.317 321.196 978.146 319.043 Q979.998 316.868 979.998 313.141 Q979.998 309.391 978.146 307.238 Q976.317 305.085 973.169 305.085 M982.451 290.433 L982.451 294.692 Q980.692 293.858 978.887 293.419 Q977.104 292.979 975.345 292.979 Q970.715 292.979 968.262 296.104 Q965.831 299.229 965.484 305.548 Q966.85 303.534 968.91 302.469 Q970.97 301.382 973.447 301.382 Q978.655 301.382 981.664 304.553 Q984.697 307.701 984.697 313.141 Q984.697 318.465 981.549 321.682 Q978.4 324.9 973.169 324.9 Q967.174 324.9 964.002 320.317 Q960.831 315.71 960.831 306.983 Q960.831 298.789 964.72 293.928 Q968.609 289.044 975.16 289.044 Q976.919 289.044 978.701 289.391 Q980.507 289.738 982.451 290.433 Z" fill="#000000" fill-rule="nonzero" fill-opacity="1" /><polyline clip-path="url(#clip370)" style="stroke:#3da44d; stroke-linecap:round; stroke-linejoin:round; stroke-width:4; stroke-opacity:1; fill:none" points="297.807,378.229 441.175,378.229 "/>
<path clip-path="url(#clip370)" d="M480.695 376.874 Q484.051 377.592 485.926 379.861 Q487.824 382.129 487.824 385.462 Q487.824 390.578 484.306 393.379 Q480.787 396.18 474.306 396.18 Q472.13 396.18 469.815 395.74 Q467.524 395.323 465.07 394.467 L465.07 389.953 Q467.014 391.087 469.329 391.666 Q471.644 392.245 474.167 392.245 Q478.565 392.245 480.857 390.509 Q483.172 388.773 483.172 385.462 Q483.172 382.407 481.019 380.694 Q478.889 378.958 475.07 378.958 L471.042 378.958 L471.042 375.115 L475.255 375.115 Q478.704 375.115 480.533 373.749 Q482.361 372.361 482.361 369.768 Q482.361 367.106 480.463 365.694 Q478.588 364.259 475.07 364.259 Q473.148 364.259 470.949 364.675 Q468.75 365.092 466.111 365.972 L466.111 361.805 Q468.774 361.064 471.088 360.694 Q473.426 360.324 475.486 360.324 Q480.81 360.324 483.912 362.754 Q487.014 365.162 487.014 369.282 Q487.014 372.152 485.371 374.143 Q483.727 376.111 480.695 376.874 Z" fill="#000000" fill-rule="nonzero" fill-opacity="1" /><path clip-path="url(#clip370)" d="M496.69 389.629 L501.574 389.629 L501.574 395.509 L496.69 395.509 L496.69 389.629 Z" fill="#000000" fill-rule="nonzero" fill-opacity="1" /><path clip-path="url(#clip370)" d="M512.57 391.573 L520.208 391.573 L520.208 365.208 L511.898 366.875 L511.898 362.615 L520.162 360.949 L524.838 360.949 L524.838 391.573 L532.477 391.573 L532.477 395.509 L512.57 395.509 L512.57 391.573 Z" fill="#000000" fill-rule="nonzero" fill-opacity="1" /><path clip-path="url(#clip370)" d="M556.088 376.874 Q559.444 377.592 561.319 379.861 Q563.217 382.129 563.217 385.462 Q563.217 390.578 559.699 393.379 Q556.18 396.18 549.699 396.18 Q547.523 396.18 545.208 395.74 Q542.917 395.323 540.463 394.467 L540.463 389.953 Q542.407 391.087 544.722 391.666 Q547.037 392.245 549.56 392.245 Q553.958 392.245 556.25 390.509 Q558.565 388.773 558.565 385.462 Q558.565 382.407 556.412 380.694 Q554.282 378.958 550.463 378.958 L546.435 378.958 L546.435 375.115 L550.648 375.115 Q554.097 375.115 555.926 373.749 Q557.755 372.361 557.755 369.768 Q557.755 367.106 555.856 365.694 Q553.981 364.259 550.463 364.259 Q548.542 364.259 546.343 364.675 Q544.143 365.092 541.505 365.972 L541.505 361.805 Q544.167 361.064 546.481 360.694 Q548.819 360.324 550.88 360.324 Q556.204 360.324 559.305 362.754 Q562.407 365.162 562.407 369.282 Q562.407 372.152 560.764 374.143 Q559.12 376.111 556.088 376.874 Z" fill="#000000" fill-rule="nonzero" fill-opacity="1" /><path clip-path="url(#clip370)" d="M572.893 391.573 L580.532 391.573 L580.532 365.208 L572.222 366.875 L572.222 362.615 L580.486 360.949 L585.162 360.949 L585.162 391.573 L592.801 391.573 L592.801 395.509 L572.893 395.509 L572.893 391.573 Z" fill="#000000" fill-rule="nonzero" fill-opacity="1" /><path clip-path="url(#clip370)" d="M602.291 360.949 L620.648 360.949 L620.648 364.884 L606.574 364.884 L606.574 373.356 Q607.592 373.009 608.611 372.847 Q609.629 372.662 610.648 372.662 Q616.435 372.662 619.814 375.833 Q623.194 379.004 623.194 384.421 Q623.194 389.999 619.722 393.101 Q616.25 396.18 609.93 396.18 Q607.754 396.18 605.486 395.81 Q603.24 395.439 600.833 394.698 L600.833 389.999 Q602.916 391.134 605.139 391.689 Q607.361 392.245 609.838 392.245 Q613.842 392.245 616.18 390.138 Q618.518 388.032 618.518 384.421 Q618.518 380.81 616.18 378.703 Q613.842 376.597 609.838 376.597 Q607.963 376.597 606.088 377.013 Q604.236 377.43 602.291 378.31 L602.291 360.949 Z" fill="#000000" fill-rule="nonzero" fill-opacity="1" /><path clip-path="url(#clip370)" d="M632.546 394.791 L632.546 390.532 Q634.305 391.365 636.111 391.805 Q637.916 392.245 639.652 392.245 Q644.282 392.245 646.712 389.143 Q649.166 386.018 649.513 379.675 Q648.171 381.666 646.111 382.731 Q644.05 383.796 641.55 383.796 Q636.365 383.796 633.333 380.671 Q630.324 377.523 630.324 372.083 Q630.324 366.759 633.472 363.541 Q636.62 360.324 641.851 360.324 Q647.847 360.324 650.995 364.93 Q654.166 369.513 654.166 378.263 Q654.166 386.435 650.277 391.319 Q646.411 396.18 639.861 396.18 Q638.101 396.18 636.296 395.833 Q634.49 395.485 632.546 394.791 M641.851 380.138 Q644.999 380.138 646.828 377.986 Q648.68 375.833 648.68 372.083 Q648.68 368.356 646.828 366.203 Q644.999 364.027 641.851 364.027 Q638.703 364.027 636.851 366.203 Q635.023 368.356 635.023 372.083 Q635.023 375.833 636.851 377.986 Q638.703 380.138 641.851 380.138 Z" fill="#000000" fill-rule="nonzero" fill-opacity="1" /><path clip-path="url(#clip370)" d="M666.597 391.573 L682.916 391.573 L682.916 395.509 L660.972 395.509 L660.972 391.573 Q663.634 388.819 668.217 384.189 Q672.823 379.536 674.004 378.194 Q676.249 375.671 677.129 373.935 Q678.032 372.175 678.032 370.486 Q678.032 367.731 676.087 365.995 Q674.166 364.259 671.064 364.259 Q668.865 364.259 666.411 365.023 Q663.981 365.787 661.203 367.337 L661.203 362.615 Q664.027 361.481 666.481 360.902 Q668.934 360.324 670.972 360.324 Q676.342 360.324 679.536 363.009 Q682.731 365.694 682.731 370.185 Q682.731 372.314 681.921 374.236 Q681.133 376.134 679.027 378.726 Q678.448 379.398 675.346 382.615 Q672.245 385.81 666.597 391.573 Z" fill="#000000" fill-rule="nonzero" fill-opacity="1" /><path clip-path="url(#clip370)" d="M703.309 376.365 Q700.161 376.365 698.309 378.518 Q696.481 380.671 696.481 384.421 Q696.481 388.148 698.309 390.323 Q700.161 392.476 703.309 392.476 Q706.457 392.476 708.286 390.323 Q710.138 388.148 710.138 384.421 Q710.138 380.671 708.286 378.518 Q706.457 376.365 703.309 376.365 M712.592 361.713 L712.592 365.972 Q710.832 365.138 709.027 364.699 Q707.244 364.259 705.485 364.259 Q700.856 364.259 698.402 367.384 Q695.971 370.509 695.624 376.828 Q696.99 374.814 699.05 373.749 Q701.11 372.662 703.587 372.662 Q708.795 372.662 711.805 375.833 Q714.837 378.981 714.837 384.421 Q714.837 389.745 711.689 392.962 Q708.541 396.18 703.309 396.18 Q697.314 396.18 694.143 391.597 Q690.971 386.99 690.971 378.263 Q690.971 370.069 694.86 365.208 Q698.749 360.324 705.3 360.324 Q707.059 360.324 708.842 360.671 Q710.647 361.018 712.592 361.713 Z" fill="#000000" fill-rule="nonzero" fill-opacity="1" /><path clip-path="url(#clip370)" d="M722.939 360.949 L741.295 360.949 L741.295 364.884 L727.221 364.884 L727.221 373.356 Q728.24 373.009 729.258 372.847 Q730.277 372.662 731.295 372.662 Q737.082 372.662 740.462 375.833 Q743.841 379.004 743.841 384.421 Q743.841 389.999 740.369 393.101 Q736.897 396.18 730.578 396.18 Q728.402 396.18 726.133 395.81 Q723.888 395.439 721.48 394.698 L721.48 389.999 Q723.564 391.134 725.786 391.689 Q728.008 392.245 730.485 392.245 Q734.49 392.245 736.828 390.138 Q739.166 388.032 739.166 384.421 Q739.166 380.81 736.828 378.703 Q734.49 376.597 730.485 376.597 Q728.61 376.597 726.735 377.013 Q724.883 377.43 722.939 378.31 L722.939 360.949 Z" fill="#000000" fill-rule="nonzero" fill-opacity="1" /><path clip-path="url(#clip370)" d="M767.221 376.874 Q770.577 377.592 772.452 379.861 Q774.351 382.129 774.351 385.462 Q774.351 390.578 770.832 393.379 Q767.314 396.18 760.832 396.18 Q758.656 396.18 756.341 395.74 Q754.05 395.323 751.596 394.467 L751.596 389.953 Q753.541 391.087 755.855 391.666 Q758.17 392.245 760.693 392.245 Q765.091 392.245 767.383 390.509 Q769.698 388.773 769.698 385.462 Q769.698 382.407 767.545 380.694 Q765.415 378.958 761.596 378.958 L757.568 378.958 L757.568 375.115 L761.781 375.115 Q765.23 375.115 767.059 373.749 Q768.888 372.361 768.888 369.768 Q768.888 367.106 766.99 365.694 Q765.115 364.259 761.596 364.259 Q759.675 364.259 757.476 364.675 Q755.277 365.092 752.638 365.972 L752.638 361.805 Q755.3 361.064 757.615 360.694 Q759.953 360.324 762.013 360.324 Q767.337 360.324 770.439 362.754 Q773.54 365.162 773.54 369.282 Q773.54 372.152 771.897 374.143 Q770.253 376.111 767.221 376.874 Z" fill="#000000" fill-rule="nonzero" fill-opacity="1" /><path clip-path="url(#clip370)" d="M783.263 360.949 L801.619 360.949 L801.619 364.884 L787.545 364.884 L787.545 373.356 Q788.563 373.009 789.582 372.847 Q790.6 372.662 791.619 372.662 Q797.406 372.662 800.786 375.833 Q804.165 379.004 804.165 384.421 Q804.165 389.999 800.693 393.101 Q797.221 396.18 790.901 396.18 Q788.726 396.18 786.457 395.81 Q784.212 395.439 781.804 394.698 L781.804 389.999 Q783.888 391.134 786.11 391.689 Q788.332 392.245 790.809 392.245 Q794.813 392.245 797.151 390.138 Q799.489 388.032 799.489 384.421 Q799.489 380.81 797.151 378.703 Q794.813 376.597 790.809 376.597 Q788.934 376.597 787.059 377.013 Q785.207 377.43 783.263 378.31 L783.263 360.949 Z" fill="#000000" fill-rule="nonzero" fill-opacity="1" /><path clip-path="url(#clip370)" d="M823.378 379.097 Q820.045 379.097 818.123 380.879 Q816.225 382.661 816.225 385.786 Q816.225 388.911 818.123 390.694 Q820.045 392.476 823.378 392.476 Q826.711 392.476 828.633 390.694 Q830.554 388.888 830.554 385.786 Q830.554 382.661 828.633 380.879 Q826.735 379.097 823.378 379.097 M818.702 377.106 Q815.693 376.365 814.003 374.305 Q812.336 372.245 812.336 369.282 Q812.336 365.138 815.276 362.731 Q818.239 360.324 823.378 360.324 Q828.54 360.324 831.48 362.731 Q834.42 365.138 834.42 369.282 Q834.42 372.245 832.73 374.305 Q831.063 376.365 828.077 377.106 Q831.457 377.893 833.332 380.185 Q835.23 382.476 835.23 385.786 Q835.23 390.81 832.151 393.495 Q829.096 396.18 823.378 396.18 Q817.661 396.18 814.582 393.495 Q811.526 390.81 811.526 385.786 Q811.526 382.476 813.424 380.185 Q815.323 377.893 818.702 377.106 M816.989 369.722 Q816.989 372.407 818.656 373.912 Q820.346 375.416 823.378 375.416 Q826.387 375.416 828.077 373.912 Q829.79 372.407 829.79 369.722 Q829.79 367.037 828.077 365.532 Q826.387 364.027 823.378 364.027 Q820.346 364.027 818.656 365.532 Q816.989 367.037 816.989 369.722 Z" fill="#000000" fill-rule="nonzero" fill-opacity="1" /><path clip-path="url(#clip370)" d="M843.679 394.791 L843.679 390.532 Q845.438 391.365 847.244 391.805 Q849.049 392.245 850.785 392.245 Q855.415 392.245 857.846 389.143 Q860.299 386.018 860.646 379.675 Q859.304 381.666 857.244 382.731 Q855.183 383.796 852.683 383.796 Q847.498 383.796 844.466 380.671 Q841.457 377.523 841.457 372.083 Q841.457 366.759 844.605 363.541 Q847.753 360.324 852.984 360.324 Q858.98 360.324 862.128 364.93 Q865.299 369.513 865.299 378.263 Q865.299 386.435 861.41 391.319 Q857.545 396.18 850.994 396.18 Q849.234 396.18 847.429 395.833 Q845.623 395.485 843.679 394.791 M852.984 380.138 Q856.133 380.138 857.961 377.986 Q859.813 375.833 859.813 372.083 Q859.813 368.356 857.961 366.203 Q856.133 364.027 852.984 364.027 Q849.836 364.027 847.984 366.203 Q846.156 368.356 846.156 372.083 Q846.156 375.833 847.984 377.986 Q849.836 380.138 852.984 380.138 Z" fill="#000000" fill-rule="nonzero" fill-opacity="1" /><path clip-path="url(#clip370)" d="M872.521 360.949 L894.743 360.949 L894.743 362.939 L882.197 395.509 L877.313 395.509 L889.118 364.884 L872.521 364.884 L872.521 360.949 Z" fill="#000000" fill-rule="nonzero" fill-opacity="1" /><path clip-path="url(#clip370)" d="M904.003 394.791 L904.003 390.532 Q905.762 391.365 907.567 391.805 Q909.373 392.245 911.109 392.245 Q915.739 392.245 918.169 389.143 Q920.623 386.018 920.97 379.675 Q919.628 381.666 917.567 382.731 Q915.507 383.796 913.007 383.796 Q907.822 383.796 904.79 380.671 Q901.78 377.523 901.78 372.083 Q901.78 366.759 904.929 363.541 Q908.077 360.324 913.308 360.324 Q919.304 360.324 922.452 364.93 Q925.623 369.513 925.623 378.263 Q925.623 386.435 921.734 391.319 Q917.868 396.18 911.317 396.18 Q909.558 396.18 907.753 395.833 Q905.947 395.485 904.003 394.791 M913.308 380.138 Q916.456 380.138 918.285 377.986 Q920.137 375.833 920.137 372.083 Q920.137 368.356 918.285 366.203 Q916.456 364.027 913.308 364.027 Q910.16 364.027 908.308 366.203 Q906.48 368.356 906.48 372.083 Q906.48 375.833 908.308 377.986 Q910.16 380.138 913.308 380.138 Z" fill="#000000" fill-rule="nonzero" fill-opacity="1" /><path clip-path="url(#clip370)" d="M948.192 376.874 Q951.549 377.592 953.424 379.861 Q955.322 382.129 955.322 385.462 Q955.322 390.578 951.803 393.379 Q948.285 396.18 941.803 396.18 Q939.627 396.18 937.313 395.74 Q935.021 395.323 932.567 394.467 L932.567 389.953 Q934.512 391.087 936.827 391.666 Q939.141 392.245 941.665 392.245 Q946.063 392.245 948.354 390.509 Q950.669 388.773 950.669 385.462 Q950.669 382.407 948.516 380.694 Q946.387 378.958 942.567 378.958 L938.54 378.958 L938.54 375.115 L942.752 375.115 Q946.202 375.115 948.03 373.749 Q949.859 372.361 949.859 369.768 Q949.859 367.106 947.961 365.694 Q946.086 364.259 942.567 364.259 Q940.646 364.259 938.447 364.675 Q936.248 365.092 933.609 365.972 L933.609 361.805 Q936.271 361.064 938.586 360.694 Q940.924 360.324 942.984 360.324 Q948.308 360.324 951.41 362.754 Q954.512 365.162 954.512 369.282 Q954.512 372.152 952.868 374.143 Q951.225 376.111 948.192 376.874 Z" fill="#000000" fill-rule="nonzero" fill-opacity="1" /><path clip-path="url(#clip370)" d="M978.354 376.874 Q981.711 377.592 983.586 379.861 Q985.484 382.129 985.484 385.462 Q985.484 390.578 981.965 393.379 Q978.447 396.18 971.965 396.18 Q969.789 396.18 967.475 395.74 Q965.183 395.323 962.729 394.467 L962.729 389.953 Q964.674 391.087 966.988 391.666 Q969.303 392.245 971.826 392.245 Q976.225 392.245 978.516 390.509 Q980.831 388.773 980.831 385.462 Q980.831 382.407 978.678 380.694 Q976.549 378.958 972.729 378.958 L968.701 378.958 L968.701 375.115 L972.914 375.115 Q976.363 375.115 978.192 373.749 Q980.021 372.361 980.021 369.768 Q980.021 367.106 978.123 365.694 Q976.248 364.259 972.729 364.259 Q970.808 364.259 968.609 364.675 Q966.41 365.092 963.771 365.972 L963.771 361.805 Q966.433 361.064 968.748 360.694 Q971.086 360.324 973.146 360.324 Q978.47 360.324 981.572 362.754 Q984.674 365.162 984.674 369.282 Q984.674 372.152 983.03 374.143 Q981.387 376.111 978.354 376.874 Z" fill="#000000" fill-rule="nonzero" fill-opacity="1" /></svg>