<?xml version="1.0" encoding="utf-8"?>
<svg xmlns="http://www.w3.org/2000/svg" xmlns:xlink="http://www.w3.org/1999/xlink" width="600" height="400" viewBox="0 0 2400 1600">
<defs>
  <clipPath id="clip190">
    <rect x="0" y="0" width="2400" height="1600"/>
  </clipPath>
</defs>
<path clip-path="url(#clip190)" d="M0 1600 L2400 1600 L2400 0 L0 0  Z" fill="#ffffff" fill-rule="evenodd" fill-opacity="1"/>
<defs>
  <clipPath id="clip191">
    <rect x="480" y="0" width="1681" height="1600"/>
  </clipPath>
</defs>
<path clip-path="url(#clip190)" d="M203.964 1423.18 L2352.76 1423.18 L2352.76 47.2441 L203.964 47.2441  Z" fill="#ffffff" fill-rule="evenodd" fill-opacity="1"/>
<defs>
  <clipPath id="clip192">
    <rect x="203" y="47" width="2150" height="1377"/>
  </clipPath>
</defs>
<polyline clip-path="url(#clip192)" style="stroke:#000000; stroke-linecap:round; stroke-linejoin:round; stroke-width:2; stroke-opacity:0.1; fill:none" points="212.8,1423.18 212.8,47.2441 "/>
<polyline clip-path="url(#clip192)" style="stroke:#000000; stroke-linecap:round; stroke-linejoin:round; stroke-width:2; stroke-opacity:0.1; fill:none" points="732.585,1423.18 732.585,47.2441 "/>
<polyline clip-path="url(#clip192)" style="stroke:#000000; stroke-linecap:round; stroke-linejoin:round; stroke-width:2; stroke-opacity:0.1; fill:none" points="1252.37,1423.18 1252.37,47.2441 "/>
<polyline clip-path="url(#clip192)" style="stroke:#000000; stroke-linecap:round; stroke-linejoin:round; stroke-width:2; stroke-opacity:0.1; fill:none" points="1772.16,1423.18 1772.16,47.2441 "/>
<polyline clip-path="url(#clip192)" style="stroke:#000000; stroke-linecap:round; stroke-linejoin:round; stroke-width:2; stroke-opacity:0.1; fill:none" points="2291.94,1423.18 2291.94,47.2441 "/>
<polyline clip-path="url(#clip190)" style="stroke:#000000; stroke-linecap:round; stroke-linejoin:round; stroke-width:4; stroke-opacity:1; fill:none" points="203.964,1423.18 2352.76,1423.18 "/>
<polyline clip-path="url(#clip190)" style="stroke:#000000; stroke-linecap:round; stroke-linejoin:round; stroke-width:4; stroke-opacity:1; fill:none" points="212.8,1423.18 212.8,1404.28 "/>
<polyline clip-path="url(#clip190)" style="stroke:#000000; stroke-linecap:round; stroke-linejoin:round; stroke-width:4; stroke-opacity:1; fill:none" points="732.585,1423.18 732.585,1404.28 "/>
<polyline clip-path="url(#clip190)" style="stroke:#000000; stroke-linecap:round; stroke-linejoin:round; stroke-width:4; stroke-opacity:1; fill:none" points="1252.37,1423.18 1252.37,1404.28 "/>
<polyline clip-path="url(#clip190)" style="stroke:#000000; stroke-linecap:round; stroke-linejoin:round; stroke-width:4; stroke-opacity:1; fill:none" points="1772.16,1423.18 1772.16,1404.28 "/>
<polyline clip-path="url(#clip190)" style="stroke:#000000; stroke-linecap:round; stroke-linejoin:round; stroke-width:4; stroke-opacity:1; fill:none" points="2291.94,1423.18 2291.94,1404.28 "/>
<path clip-path="url(#clip190)" d="M212.8 1454.1 Q209.189 1454.1 207.36 1457.66 Q205.555 1461.2 205.555 1468.33 Q205.555 1475.44 207.36 1479.01 Q209.189 1482.55 212.8 1482.55 Q216.434 1482.55 218.24 1479.01 Q220.068 1475.44 220.068 1468.33 Q220.068 1461.2 218.24 1457.66 Q216.434 1454.1 212.8 1454.1 M212.8 1450.39 Q218.61 1450.39 221.666 1455 Q224.744 1459.58 224.744 1468.33 Q224.744 1477.06 221.666 1481.67 Q218.61 1486.25 212.8 1486.25 Q206.99 1486.25 203.911 1481.67 Q200.856 1477.06 200.856 1468.33 Q200.856 1459.58 203.911 1455 Q206.99 1450.39 212.8 1450.39 Z" fill="#000000" fill-rule="nonzero" fill-opacity="1" /><path clip-path="url(#clip190)" d="M707.273 1481.64 L714.912 1481.64 L714.912 1455.28 L706.602 1456.95 L706.602 1452.69 L714.865 1451.02 L719.541 1451.02 L719.541 1481.64 L727.18 1481.64 L727.18 1485.58 L707.273 1485.58 L707.273 1481.64 Z" fill="#000000" fill-rule="nonzero" fill-opacity="1" /><path clip-path="url(#clip190)" d="M746.624 1454.1 Q743.013 1454.1 741.185 1457.66 Q739.379 1461.2 739.379 1468.33 Q739.379 1475.44 741.185 1479.01 Q743.013 1482.55 746.624 1482.55 Q750.259 1482.55 752.064 1479.01 Q753.893 1475.44 753.893 1468.33 Q753.893 1461.2 752.064 1457.66 Q750.259 1454.1 746.624 1454.1 M746.624 1450.39 Q752.435 1450.39 755.49 1455 Q758.569 1459.58 758.569 1468.33 Q758.569 1477.06 755.49 1481.67 Q752.435 1486.25 746.624 1486.25 Q740.814 1486.25 737.736 1481.67 Q734.68 1477.06 734.68 1468.33 Q734.68 1459.58 737.736 1455 Q740.814 1450.39 746.624 1450.39 Z" fill="#000000" fill-rule="nonzero" fill-opacity="1" /><path clip-path="url(#clip190)" d="M1231.14 1481.64 L1247.46 1481.64 L1247.46 1485.58 L1225.52 1485.58 L1225.52 1481.64 Q1228.18 1478.89 1232.76 1474.26 Q1237.37 1469.61 1238.55 1468.27 Q1240.8 1465.74 1241.68 1464.01 Q1242.58 1462.25 1242.58 1460.56 Q1242.58 1457.8 1240.63 1456.07 Q1238.71 1454.33 1235.61 1454.33 Q1233.41 1454.33 1230.96 1455.09 Q1228.53 1455.86 1225.75 1457.41 L1225.75 1452.69 Q1228.57 1451.55 1231.03 1450.97 Q1233.48 1450.39 1235.52 1450.39 Q1240.89 1450.39 1244.08 1453.08 Q1247.28 1455.77 1247.28 1460.26 Q1247.28 1462.39 1246.47 1464.31 Q1245.68 1466.2 1243.57 1468.8 Q1243 1469.47 1239.89 1472.69 Q1236.79 1475.88 1231.14 1481.64 Z" fill="#000000" fill-rule="nonzero" fill-opacity="1" /><path clip-path="url(#clip190)" d="M1267.28 1454.1 Q1263.67 1454.1 1261.84 1457.66 Q1260.03 1461.2 1260.03 1468.33 Q1260.03 1475.44 1261.84 1479.01 Q1263.67 1482.55 1267.28 1482.55 Q1270.91 1482.55 1272.72 1479.01 Q1274.55 1475.44 1274.55 1468.33 Q1274.55 1461.2 1272.72 1457.66 Q1270.91 1454.1 1267.28 1454.1 M1267.28 1450.39 Q1273.09 1450.39 1276.14 1455 Q1279.22 1459.58 1279.22 1468.33 Q1279.22 1477.06 1276.14 1481.67 Q1273.09 1486.25 1267.28 1486.25 Q1261.47 1486.25 1258.39 1481.67 Q1255.33 1477.06 1255.33 1468.33 Q1255.33 1459.58 1258.39 1455 Q1261.47 1450.39 1267.28 1450.39 Z" fill="#000000" fill-rule="nonzero" fill-opacity="1" /><path clip-path="url(#clip190)" d="M1761 1466.95 Q1764.35 1467.66 1766.23 1469.93 Q1768.13 1472.2 1768.13 1475.53 Q1768.13 1480.65 1764.61 1483.45 Q1761.09 1486.25 1754.61 1486.25 Q1752.43 1486.25 1750.12 1485.81 Q1747.83 1485.39 1745.37 1484.54 L1745.37 1480.02 Q1747.32 1481.16 1749.63 1481.74 Q1751.95 1482.32 1754.47 1482.32 Q1758.87 1482.32 1761.16 1480.58 Q1763.48 1478.84 1763.48 1475.53 Q1763.48 1472.48 1761.32 1470.77 Q1759.19 1469.03 1755.37 1469.03 L1751.35 1469.03 L1751.35 1465.19 L1755.56 1465.19 Q1759.01 1465.19 1760.84 1463.82 Q1762.67 1462.43 1762.67 1459.84 Q1762.67 1457.18 1760.77 1455.77 Q1758.89 1454.33 1755.37 1454.33 Q1753.45 1454.33 1751.25 1454.75 Q1749.05 1455.16 1746.42 1456.04 L1746.42 1451.88 Q1749.08 1451.14 1751.39 1450.77 Q1753.73 1450.39 1755.79 1450.39 Q1761.11 1450.39 1764.22 1452.83 Q1767.32 1455.23 1767.32 1459.35 Q1767.32 1462.22 1765.67 1464.21 Q1764.03 1466.18 1761 1466.95 Z" fill="#000000" fill-rule="nonzero" fill-opacity="1" /><path clip-path="url(#clip190)" d="M1786.99 1454.1 Q1783.38 1454.1 1781.55 1457.66 Q1779.75 1461.2 1779.75 1468.33 Q1779.75 1475.44 1781.55 1479.01 Q1783.38 1482.55 1786.99 1482.55 Q1790.63 1482.55 1792.43 1479.01 Q1794.26 1475.44 1794.26 1468.33 Q1794.26 1461.2 1792.43 1457.66 Q1790.63 1454.1 1786.99 1454.1 M1786.99 1450.39 Q1792.8 1450.39 1795.86 1455 Q1798.94 1459.58 1798.94 1468.33 Q1798.94 1477.06 1795.86 1481.67 Q1792.8 1486.25 1786.99 1486.25 Q1781.18 1486.25 1778.1 1481.67 Q1775.05 1477.06 1775.05 1468.33 Q1775.05 1459.58 1778.1 1455 Q1781.18 1450.39 1786.99 1450.39 Z" fill="#000000" fill-rule="nonzero" fill-opacity="1" /><path clip-path="url(#clip190)" d="M2280.11 1455.09 L2268.31 1473.54 L2280.11 1473.54 L2280.11 1455.09 M2278.89 1451.02 L2284.77 1451.02 L2284.77 1473.54 L2289.7 1473.54 L2289.7 1477.43 L2284.77 1477.43 L2284.77 1485.58 L2280.11 1485.58 L2280.11 1477.43 L2264.51 1477.43 L2264.51 1472.92 L2278.89 1451.02 Z" fill="#000000" fill-rule="nonzero" fill-opacity="1" /><path clip-path="url(#clip190)" d="M2307.43 1454.1 Q2303.82 1454.1 2301.99 1457.66 Q2300.18 1461.2 2300.18 1468.33 Q2300.18 1475.44 2301.99 1479.01 Q2303.82 1482.55 2307.43 1482.55 Q2311.06 1482.55 2312.87 1479.01 Q2314.7 1475.44 2314.7 1468.33 Q2314.7 1461.2 2312.87 1457.66 Q2311.06 1454.1 2307.43 1454.1 M2307.43 1450.39 Q2313.24 1450.39 2316.29 1455 Q2319.37 1459.58 2319.37 1468.33 Q2319.37 1477.06 2316.29 1481.67 Q2313.24 1486.25 2307.43 1486.25 Q2301.62 1486.25 2298.54 1481.67 Q2295.48 1477.06 2295.48 1468.33 Q2295.48 1459.58 2298.54 1455 Q2301.62 1450.39 2307.43 1450.39 Z" fill="#000000" fill-rule="nonzero" fill-opacity="1" /><path clip-path="url(#clip190)" d="M1279.09 1532.4 L1284.95 1532.4 L1284.95 1568.68 Q1284.95 1575.49 1282.34 1578.55 Q1279.76 1581.6 1274 1581.6 L1271.77 1581.6 L1271.77 1576.64 L1273.33 1576.64 Q1276.67 1576.64 1277.88 1575.08 Q1279.09 1573.55 1279.09 1568.68 L1279.09 1532.4 M1279.09 1518.52 L1284.95 1518.52 L1284.95 1525.93 L1279.09 1525.93 L1279.09 1518.52 Z" fill="#000000" fill-rule="nonzero" fill-opacity="1" /><polyline clip-path="url(#clip192)" style="stroke:#000000; stroke-linecap:round; stroke-linejoin:round; stroke-width:2; stroke-opacity:0.1; fill:none" points="203.964,1384.24 2352.76,1384.24 "/>
<polyline clip-path="url(#clip192)" style="stroke:#000000; stroke-linecap:round; stroke-linejoin:round; stroke-width:2; stroke-opacity:0.1; fill:none" points="203.964,971.055 2352.76,971.055 "/>
<polyline clip-path="url(#clip192)" style="stroke:#000000; stroke-linecap:round; stroke-linejoin:round; stroke-width:2; stroke-opacity:0.1; fill:none" points="203.964,557.872 2352.76,557.872 "/>
<polyline clip-path="url(#clip192)" style="stroke:#000000; stroke-linecap:round; stroke-linejoin:round; stroke-width:2; stroke-opacity:0.1; fill:none" points="203.964,144.689 2352.76,144.689 "/>
<polyline clip-path="url(#clip190)" style="stroke:#000000; stroke-linecap:round; stroke-linejoin:round; stroke-width:4; stroke-opacity:1; fill:none" points="203.964,1423.18 203.964,47.2441 "/>
<polyline clip-path="url(#clip190)" style="stroke:#000000; stroke-linecap:round; stroke-linejoin:round; stroke-width:4; stroke-opacity:1; fill:none" points="203.964,1384.24 222.861,1384.24 "/>
<polyline clip-path="url(#clip190)" style="stroke:#000000; stroke-linecap:round; stroke-linejoin:round; stroke-width:4; stroke-opacity:1; fill:none" points="203.964,971.055 222.861,971.055 "/>
<polyline clip-path="url(#clip190)" style="stroke:#000000; stroke-linecap:round; stroke-linejoin:round; stroke-width:4; stroke-opacity:1; fill:none" points="203.964,557.872 222.861,557.872 "/>
<polyline clip-path="url(#clip190)" style="stroke:#000000; stroke-linecap:round; stroke-linejoin:round; stroke-width:4; stroke-opacity:1; fill:none" points="203.964,144.689 222.861,144.689 "/>
<path clip-path="url(#clip190)" d="M156.019 1370.04 Q152.408 1370.04 150.579 1373.6 Q148.774 1377.14 148.774 1384.27 Q148.774 1391.38 150.579 1394.94 Q152.408 1398.49 156.019 1398.49 Q159.653 1398.49 161.459 1394.94 Q163.288 1391.38 163.288 1384.27 Q163.288 1377.14 161.459 1373.6 Q159.653 1370.04 156.019 1370.04 M156.019 1366.33 Q161.829 1366.33 164.885 1370.94 Q167.964 1375.52 167.964 1384.27 Q167.964 1393 164.885 1397.61 Q161.829 1402.19 156.019 1402.19 Q150.209 1402.19 147.13 1397.61 Q144.075 1393 144.075 1384.27 Q144.075 1375.52 147.13 1370.94 Q150.209 1366.33 156.019 1366.33 Z" fill="#000000" fill-rule="nonzero" fill-opacity="1" /><path clip-path="url(#clip190)" d="M116.668 984.4 L124.306 984.4 L124.306 958.035 L115.996 959.701 L115.996 955.442 L124.26 953.775 L128.936 953.775 L128.936 984.4 L136.575 984.4 L136.575 988.335 L116.668 988.335 L116.668 984.4 Z" fill="#000000" fill-rule="nonzero" fill-opacity="1" /><path clip-path="url(#clip190)" d="M156.019 956.854 Q152.408 956.854 150.579 960.419 Q148.774 963.96 148.774 971.09 Q148.774 978.196 150.579 981.761 Q152.408 985.303 156.019 985.303 Q159.653 985.303 161.459 981.761 Q163.288 978.196 163.288 971.09 Q163.288 963.96 161.459 960.419 Q159.653 956.854 156.019 956.854 M156.019 953.15 Q161.829 953.15 164.885 957.757 Q167.964 962.34 167.964 971.09 Q167.964 979.817 164.885 984.423 Q161.829 989.007 156.019 989.007 Q150.209 989.007 147.13 984.423 Q144.075 979.817 144.075 971.09 Q144.075 962.34 147.13 957.757 Q150.209 953.15 156.019 953.15 Z" fill="#000000" fill-rule="nonzero" fill-opacity="1" /><path clip-path="url(#clip190)" d="M119.885 571.217 L136.204 571.217 L136.204 575.152 L114.26 575.152 L114.26 571.217 Q116.922 568.463 121.505 563.833 Q126.112 559.18 127.292 557.838 Q129.538 555.314 130.417 553.578 Q131.32 551.819 131.32 550.129 Q131.32 547.375 129.376 545.639 Q127.455 543.902 124.353 543.902 Q122.154 543.902 119.7 544.666 Q117.269 545.43 114.492 546.981 L114.492 542.259 Q117.316 541.125 119.769 540.546 Q122.223 539.967 124.26 539.967 Q129.63 539.967 132.825 542.652 Q136.019 545.338 136.019 549.828 Q136.019 551.958 135.209 553.879 Q134.422 555.777 132.316 558.37 Q131.737 559.041 128.635 562.259 Q125.533 565.453 119.885 571.217 Z" fill="#000000" fill-rule="nonzero" fill-opacity="1" /><path clip-path="url(#clip190)" d="M156.019 543.671 Q152.408 543.671 150.579 547.236 Q148.774 550.777 148.774 557.907 Q148.774 565.013 150.579 568.578 Q152.408 572.12 156.019 572.12 Q159.653 572.12 161.459 568.578 Q163.288 565.013 163.288 557.907 Q163.288 550.777 161.459 547.236 Q159.653 543.671 156.019 543.671 M156.019 539.967 Q161.829 539.967 164.885 544.574 Q167.964 549.157 167.964 557.907 Q167.964 566.634 164.885 571.24 Q161.829 575.824 156.019 575.824 Q150.209 575.824 147.13 571.24 Q144.075 566.634 144.075 557.907 Q144.075 549.157 147.13 544.574 Q150.209 539.967 156.019 539.967 Z" fill="#000000" fill-rule="nonzero" fill-opacity="1" /><path clip-path="url(#clip190)" d="M130.024 143.335 Q133.38 144.053 135.255 146.321 Q137.154 148.59 137.154 151.923 Q137.154 157.039 133.635 159.84 Q130.117 162.641 123.635 162.641 Q121.459 162.641 119.144 162.201 Q116.853 161.784 114.399 160.928 L114.399 156.414 Q116.343 157.548 118.658 158.127 Q120.973 158.705 123.496 158.705 Q127.894 158.705 130.186 156.969 Q132.501 155.233 132.501 151.923 Q132.501 148.868 130.348 147.155 Q128.218 145.419 124.399 145.419 L120.371 145.419 L120.371 141.576 L124.584 141.576 Q128.033 141.576 129.862 140.21 Q131.691 138.821 131.691 136.229 Q131.691 133.567 129.792 132.155 Q127.917 130.72 124.399 130.72 Q122.478 130.72 120.279 131.136 Q118.08 131.553 115.441 132.432 L115.441 128.266 Q118.103 127.525 120.418 127.155 Q122.755 126.784 124.816 126.784 Q130.14 126.784 133.242 129.215 Q136.343 131.622 136.343 135.743 Q136.343 138.613 134.7 140.604 Q133.056 142.571 130.024 143.335 Z" fill="#000000" fill-rule="nonzero" fill-opacity="1" /><path clip-path="url(#clip190)" d="M156.019 130.488 Q152.408 130.488 150.579 134.053 Q148.774 137.594 148.774 144.724 Q148.774 151.831 150.579 155.395 Q152.408 158.937 156.019 158.937 Q159.653 158.937 161.459 155.395 Q163.288 151.831 163.288 144.724 Q163.288 137.594 161.459 134.053 Q159.653 130.488 156.019 130.488 M156.019 126.784 Q161.829 126.784 164.885 131.391 Q167.964 135.974 167.964 144.724 Q167.964 153.451 164.885 158.057 Q161.829 162.641 156.019 162.641 Q150.209 162.641 147.13 158.057 Q144.075 153.451 144.075 144.724 Q144.075 135.974 147.13 131.391 Q150.209 126.784 156.019 126.784 Z" fill="#000000" fill-rule="nonzero" fill-opacity="1" /><path clip-path="url(#clip190)" d="M18.2347 740.718 L28.3562 740.718 L28.3562 728.655 L32.9077 728.655 L32.9077 740.718 L52.2594 740.718 Q56.6199 740.718 57.8613 739.541 Q59.1026 738.331 59.1026 734.671 L59.1026 728.655 L64.0042 728.655 L64.0042 734.671 Q64.0042 741.45 61.4897 744.028 Q58.9434 746.607 52.2594 746.607 L32.9077 746.607 L32.9077 750.903 L28.3562 750.903 L28.3562 746.607 L18.2347 746.607 L18.2347 740.718 Z" fill="#000000" fill-rule="nonzero" fill-opacity="1" /><path clip-path="url(#clip190)" d="M44.0477 723.213 L44.0477 719.521 L64.3543 719.521 Q68.1737 719.521 69.8924 721.176 Q71.6112 722.799 71.6112 726.427 L71.6112 727.828 L68.8103 727.828 L68.8103 726.841 Q68.8103 724.74 67.9509 723.976 Q67.0915 723.213 64.3543 723.213 L44.0477 723.213 M36.2815 723.213 L36.2815 719.521 L40.4192 719.521 L40.4192 723.213 L36.2815 723.213 Z" fill="#000000" fill-rule="nonzero" fill-opacity="1" /><circle clip-path="url(#clip192)" cx="264.778" cy="1384.24" r="14.4" fill="#009af9" fill-rule="evenodd" fill-opacity="1" stroke="#000000" stroke-opacity="1" stroke-width="3.2"/>
<circle clip-path="url(#clip192)" cx="316.757" cy="1384.2" r="14.4" fill="#009af9" fill-rule="evenodd" fill-opacity="1" stroke="#000000" stroke-opacity="1" stroke-width="3.2"/>
<circle clip-path="url(#clip192)" cx="368.736" cy="1383.78" r="14.4" fill="#009af9" fill-rule="evenodd" fill-opacity="1" stroke="#000000" stroke-opacity="1" stroke-width="3.2"/>
<circle clip-path="url(#clip192)" cx="420.714" cy="1380.09" r="14.4" fill="#009af9" fill-rule="evenodd" fill-opacity="1" stroke="#000000" stroke-opacity="1" stroke-width="3.2"/>
<circle clip-path="url(#clip192)" cx="472.693" cy="1370.5" r="14.4" fill="#009af9" fill-rule="evenodd" fill-opacity="1" stroke="#000000" stroke-opacity="1" stroke-width="3.2"/>
<circle clip-path="url(#clip192)" cx="524.671" cy="1355.43" r="14.4" fill="#009af9" fill-rule="evenodd" fill-opacity="1" stroke="#000000" stroke-opacity="1" stroke-width="3.2"/>
<circle clip-path="url(#clip192)" cx="576.65" cy="1336.85" r="14.4" fill="#009af9" fill-rule="evenodd" fill-opacity="1" stroke="#000000" stroke-opacity="1" stroke-width="3.2"/>
<circle clip-path="url(#clip192)" cx="628.628" cy="1313.14" r="14.4" fill="#009af9" fill-rule="evenodd" fill-opacity="1" stroke="#000000" stroke-opacity="1" stroke-width="3.2"/>
<circle clip-path="url(#clip192)" cx="680.607" cy="1290.9" r="14.4" fill="#009af9" fill-rule="evenodd" fill-opacity="1" stroke="#000000" stroke-opacity="1" stroke-width="3.2"/>
<circle clip-path="url(#clip192)" cx="732.585" cy="1268.51" r="14.4" fill="#009af9" fill-rule="evenodd" fill-opacity="1" stroke="#000000" stroke-opacity="1" stroke-width="3.2"/>
<circle clip-path="url(#clip192)" cx="784.564" cy="1240.56" r="14.4" fill="#009af9" fill-rule="evenodd" fill-opacity="1" stroke="#000000" stroke-opacity="1" stroke-width="3.2"/>
<circle clip-path="url(#clip192)" cx="836.542" cy="1205.34" r="14.4" fill="#009af9" fill-rule="evenodd" fill-opacity="1" stroke="#000000" stroke-opacity="1" stroke-width="3.2"/>
<circle clip-path="url(#clip192)" cx="888.521" cy="1170.93" r="14.4" fill="#009af9" fill-rule="evenodd" fill-opacity="1" stroke="#000000" stroke-opacity="1" stroke-width="3.2"/>
<circle clip-path="url(#clip192)" cx="940.499" cy="1131.25" r="14.4" fill="#009af9" fill-rule="evenodd" fill-opacity="1" stroke="#000000" stroke-opacity="1" stroke-width="3.2"/>
<circle clip-path="url(#clip192)" cx="992.478" cy="1102.09" r="14.4" fill="#009af9" fill-rule="evenodd" fill-opacity="1" stroke="#000000" stroke-opacity="1" stroke-width="3.2"/>
<circle clip-path="url(#clip192)" cx="1044.46" cy="1058.92" r="14.4" fill="#009af9" fill-rule="evenodd" fill-opacity="1" stroke="#000000" stroke-opacity="1" stroke-width="3.2"/>
<circle clip-path="url(#clip192)" cx="1096.43" cy="1023.59" r="14.4" fill="#009af9" fill-rule="evenodd" fill-opacity="1" stroke="#000000" stroke-opacity="1" stroke-width="3.2"/>
<circle clip-path="url(#clip192)" cx="1148.41" cy="978.897" r="14.4" fill="#009af9" fill-rule="evenodd" fill-opacity="1" stroke="#000000" stroke-opacity="1" stroke-width="3.2"/>
<circle clip-path="url(#clip192)" cx="1200.39" cy="947.534" r="14.4" fill="#009af9" fill-rule="evenodd" fill-opacity="1" stroke="#000000" stroke-opacity="1" stroke-width="3.2"/>
<circle clip-path="url(#clip192)" cx="1252.37" cy="898.834" r="14.4" fill="#009af9" fill-rule="evenodd" fill-opacity="1" stroke="#000000" stroke-opacity="1" stroke-width="3.2"/>
<circle clip-path="url(#clip192)" cx="1304.35" cy="862.158" r="14.4" fill="#009af9" fill-rule="evenodd" fill-opacity="1" stroke="#000000" stroke-opacity="1" stroke-width="3.2"/>
<circle clip-path="url(#clip192)" cx="1356.33" cy="818.732" r="14.4" fill="#009af9" fill-rule="evenodd" fill-opacity="1" stroke="#000000" stroke-opacity="1" stroke-width="3.2"/>
<circle clip-path="url(#clip192)" cx="1408.31" cy="787.496" r="14.4" fill="#009af9" fill-rule="evenodd" fill-opacity="1" stroke="#000000" stroke-opacity="1" stroke-width="3.2"/>
<circle clip-path="url(#clip192)" cx="1460.28" cy="737.505" r="14.4" fill="#009af9" fill-rule="evenodd" fill-opacity="1" stroke="#000000" stroke-opacity="1" stroke-width="3.2"/>
<circle clip-path="url(#clip192)" cx="1512.26" cy="697.775" r="14.4" fill="#009af9" fill-rule="evenodd" fill-opacity="1" stroke="#000000" stroke-opacity="1" stroke-width="3.2"/>
<circle clip-path="url(#clip192)" cx="1564.24" cy="652.128" r="14.4" fill="#009af9" fill-rule="evenodd" fill-opacity="1" stroke="#000000" stroke-opacity="1" stroke-width="3.2"/>
<circle clip-path="url(#clip192)" cx="1616.22" cy="614.276" r="14.4" fill="#009af9" fill-rule="evenodd" fill-opacity="1" stroke="#000000" stroke-opacity="1" stroke-width="3.2"/>
<circle clip-path="url(#clip192)" cx="1668.2" cy="570.15" r="14.4" fill="#009af9" fill-rule="evenodd" fill-opacity="1" stroke="#000000" stroke-opacity="1" stroke-width="3.2"/>
<circle clip-path="url(#clip192)" cx="1720.18" cy="524.446" r="14.4" fill="#009af9" fill-rule="evenodd" fill-opacity="1" stroke="#000000" stroke-opacity="1" stroke-width="3.2"/>
<circle clip-path="url(#clip192)" cx="1772.16" cy="488.894" r="14.4" fill="#009af9" fill-rule="evenodd" fill-opacity="1" stroke="#000000" stroke-opacity="1" stroke-width="3.2"/>
<circle clip-path="url(#clip192)" cx="1824.13" cy="429.044" r="14.4" fill="#009af9" fill-rule="evenodd" fill-opacity="1" stroke="#000000" stroke-opacity="1" stroke-width="3.2"/>
<circle clip-path="url(#clip192)" cx="1876.11" cy="394.893" r="14.4" fill="#009af9" fill-rule="evenodd" fill-opacity="1" stroke="#000000" stroke-opacity="1" stroke-width="3.2"/>
<circle clip-path="url(#clip192)" cx="1928.09" cy="346.228" r="14.4" fill="#009af9" fill-rule="evenodd" fill-opacity="1" stroke="#000000" stroke-opacity="1" stroke-width="3.2"/>
<circle clip-path="url(#clip192)" cx="1980.07" cy="310.364" r="14.4" fill="#009af9" fill-rule="evenodd" fill-opacity="1" stroke="#000000" stroke-opacity="1" stroke-width="3.2"/>
<circle clip-path="url(#clip192)" cx="2032.05" cy="264.703" r="14.4" fill="#009af9" fill-rule="evenodd" fill-opacity="1" stroke="#000000" stroke-opacity="1" stroke-width="3.2"/>
<circle clip-path="url(#clip192)" cx="2084.03" cy="219.715" r="14.4" fill="#009af9" fill-rule="evenodd" fill-opacity="1" stroke="#000000" stroke-opacity="1" stroke-width="3.2"/>
<circle clip-path="url(#clip192)" cx="2136.01" cy="183.833" r="14.4" fill="#009af9" fill-rule="evenodd" fill-opacity="1" stroke="#000000" stroke-opacity="1" stroke-width="3.2"/>
<circle clip-path="url(#clip192)" cx="2187.98" cy="125.399" r="14.4" fill="#009af9" fill-rule="evenodd" fill-opacity="1" stroke="#000000" stroke-opacity="1" stroke-width="3.2"/>
<circle clip-path="url(#clip192)" cx="2239.96" cy="91.7253" r="14.4" fill="#009af9" fill-rule="evenodd" fill-opacity="1" stroke="#000000" stroke-opacity="1" stroke-width="3.2"/>
<circle clip-path="url(#clip192)" cx="2291.94" cy="86.1857" r="14.4" fill="#009af9" fill-rule="evenodd" fill-opacity="1" stroke="#000000" stroke-opacity="1" stroke-width="3.2"/>
</svg>