<?xml version="1.0" encoding="utf-8"?>
<svg xmlns="http://www.w3.org/2000/svg" xmlns:xlink="http://www.w3.org/1999/xlink" width="600" height="400" viewBox="0 0 2400 1600">
<defs>
  <clipPath id="clip560">
    <rect x="0" y="0" width="2400" height="1600"/>
  </clipPath>
</defs>
<path clip-path="url(#clip560)" d="M0 1600 L2400 1600 L2400 0 L0 0  Z" fill="#ffffff" fill-rule="evenodd" fill-opacity="1"/>
<defs>
  <clipPath id="clip561">
    <rect x="480" y="0" width="1681" height="1600"/>
  </clipPath>
</defs>
<path clip-path="url(#clip560)" d="M322.886 1423.18 L2352.76 1423.18 L2352.76 47.2441 L322.886 47.2441  Z" fill="#ffffff" fill-rule="evenodd" fill-opacity="1"/>
<defs>
  <clipPath id="clip562">
    <rect x="322" y="47" width="2031" height="1377"/>
  </clipPath>
</defs>
<polyline clip-path="url(#clip562)" style="stroke:#000000; stroke-linecap:round; stroke-linejoin:round; stroke-width:2; stroke-opacity:0.1; fill:none" points="341.254,1423.18 341.254,47.2441 "/>
<polyline clip-path="url(#clip562)" style="stroke:#000000; stroke-linecap:round; stroke-linejoin:round; stroke-width:2; stroke-opacity:0.1; fill:none" points="732.065,1423.18 732.065,47.2441 "/>
<polyline clip-path="url(#clip562)" style="stroke:#000000; stroke-linecap:round; stroke-linejoin:round; stroke-width:2; stroke-opacity:0.1; fill:none" points="1122.88,1423.18 1122.88,47.2441 "/>
<polyline clip-path="url(#clip562)" style="stroke:#000000; stroke-linecap:round; stroke-linejoin:round; stroke-width:2; stroke-opacity:0.1; fill:none" points="1513.69,1423.18 1513.69,47.2441 "/>
<polyline clip-path="url(#clip562)" style="stroke:#000000; stroke-linecap:round; stroke-linejoin:round; stroke-width:2; stroke-opacity:0.1; fill:none" points="1904.5,1423.18 1904.5,47.2441 "/>
<polyline clip-path="url(#clip562)" style="stroke:#000000; stroke-linecap:round; stroke-linejoin:round; stroke-width:2; stroke-opacity:0.1; fill:none" points="2295.31,1423.18 2295.31,47.2441 "/>
<polyline clip-path="url(#clip560)" style="stroke:#000000; stroke-linecap:round; stroke-linejoin:round; stroke-width:4; stroke-opacity:1; fill:none" points="322.886,1423.18 2352.76,1423.18 "/>
<polyline clip-path="url(#clip560)" style="stroke:#000000; stroke-linecap:round; stroke-linejoin:round; stroke-width:4; stroke-opacity:1; fill:none" points="341.254,1423.18 341.254,1404.28 "/>
<polyline clip-path="url(#clip560)" style="stroke:#000000; stroke-linecap:round; stroke-linejoin:round; stroke-width:4; stroke-opacity:1; fill:none" points="732.065,1423.18 732.065,1404.28 "/>
<polyline clip-path="url(#clip560)" style="stroke:#000000; stroke-linecap:round; stroke-linejoin:round; stroke-width:4; stroke-opacity:1; fill:none" points="1122.88,1423.18 1122.88,1404.28 "/>
<polyline clip-path="url(#clip560)" style="stroke:#000000; stroke-linecap:round; stroke-linejoin:round; stroke-width:4; stroke-opacity:1; fill:none" points="1513.69,1423.18 1513.69,1404.28 "/>
<polyline clip-path="url(#clip560)" style="stroke:#000000; stroke-linecap:round; stroke-linejoin:round; stroke-width:4; stroke-opacity:1; fill:none" points="1904.5,1423.18 1904.5,1404.28 "/>
<polyline clip-path="url(#clip560)" style="stroke:#000000; stroke-linecap:round; stroke-linejoin:round; stroke-width:4; stroke-opacity:1; fill:none" points="2295.31,1423.18 2295.31,1404.28 "/>
<path clip-path="url(#clip560)" d="M341.254 1454.1 Q337.643 1454.1 335.814 1457.66 Q334.009 1461.2 334.009 1468.33 Q334.009 1475.44 335.814 1479.01 Q337.643 1482.55 341.254 1482.55 Q344.888 1482.55 346.694 1479.01 Q348.523 1475.44 348.523 1468.33 Q348.523 1461.2 346.694 1457.66 Q344.888 1454.1 341.254 1454.1 M341.254 1450.39 Q347.064 1450.39 350.12 1455 Q353.198 1459.58 353.198 1468.33 Q353.198 1477.06 350.12 1481.67 Q347.064 1486.25 341.254 1486.25 Q335.444 1486.25 332.365 1481.67 Q329.31 1477.06 329.31 1468.33 Q329.31 1459.58 332.365 1455 Q335.444 1450.39 341.254 1450.39 Z" fill="#000000" fill-rule="nonzero" fill-opacity="1" /><path clip-path="url(#clip560)" d="M706.752 1481.64 L714.391 1481.64 L714.391 1455.28 L706.081 1456.95 L706.081 1452.69 L714.345 1451.02 L719.021 1451.02 L719.021 1481.64 L726.66 1481.64 L726.66 1485.58 L706.752 1485.58 L706.752 1481.64 Z" fill="#000000" fill-rule="nonzero" fill-opacity="1" /><path clip-path="url(#clip560)" d="M746.104 1454.1 Q742.493 1454.1 740.664 1457.66 Q738.859 1461.2 738.859 1468.33 Q738.859 1475.44 740.664 1479.01 Q742.493 1482.55 746.104 1482.55 Q749.738 1482.55 751.544 1479.01 Q753.372 1475.44 753.372 1468.33 Q753.372 1461.2 751.544 1457.66 Q749.738 1454.1 746.104 1454.1 M746.104 1450.39 Q751.914 1450.39 754.97 1455 Q758.048 1459.58 758.048 1468.33 Q758.048 1477.06 754.97 1481.67 Q751.914 1486.25 746.104 1486.25 Q740.294 1486.25 737.215 1481.67 Q734.16 1477.06 734.16 1468.33 Q734.16 1459.58 737.215 1455 Q740.294 1450.39 746.104 1450.39 Z" fill="#000000" fill-rule="nonzero" fill-opacity="1" /><path clip-path="url(#clip560)" d="M1101.65 1481.64 L1117.97 1481.64 L1117.97 1485.58 L1096.02 1485.58 L1096.02 1481.64 Q1098.69 1478.89 1103.27 1474.26 Q1107.88 1469.61 1109.06 1468.27 Q1111.3 1465.74 1112.18 1464.01 Q1113.08 1462.25 1113.08 1460.56 Q1113.08 1457.8 1111.14 1456.07 Q1109.22 1454.33 1106.12 1454.33 Q1103.92 1454.33 1101.46 1455.09 Q1099.03 1455.86 1096.25 1457.41 L1096.25 1452.69 Q1099.08 1451.55 1101.53 1450.97 Q1103.99 1450.39 1106.02 1450.39 Q1111.39 1450.39 1114.59 1453.08 Q1117.78 1455.77 1117.78 1460.26 Q1117.78 1462.39 1116.97 1464.31 Q1116.19 1466.2 1114.08 1468.8 Q1113.5 1469.47 1110.4 1472.69 Q1107.3 1475.88 1101.65 1481.64 Z" fill="#000000" fill-rule="nonzero" fill-opacity="1" /><path clip-path="url(#clip560)" d="M1137.78 1454.1 Q1134.17 1454.1 1132.34 1457.66 Q1130.54 1461.2 1130.54 1468.33 Q1130.54 1475.44 1132.34 1479.01 Q1134.17 1482.55 1137.78 1482.55 Q1141.42 1482.55 1143.22 1479.01 Q1145.05 1475.44 1145.05 1468.33 Q1145.05 1461.2 1143.22 1457.66 Q1141.42 1454.1 1137.78 1454.1 M1137.78 1450.39 Q1143.59 1450.39 1146.65 1455 Q1149.73 1459.58 1149.73 1468.33 Q1149.73 1477.06 1146.65 1481.67 Q1143.59 1486.25 1137.78 1486.25 Q1131.97 1486.25 1128.89 1481.67 Q1125.84 1477.06 1125.84 1468.33 Q1125.84 1459.58 1128.89 1455 Q1131.97 1450.39 1137.78 1450.39 Z" fill="#000000" fill-rule="nonzero" fill-opacity="1" /><path clip-path="url(#clip560)" d="M1502.53 1466.95 Q1505.88 1467.66 1507.76 1469.93 Q1509.66 1472.2 1509.66 1475.53 Q1509.66 1480.65 1506.14 1483.45 Q1502.62 1486.25 1496.14 1486.25 Q1493.96 1486.25 1491.65 1485.81 Q1489.36 1485.39 1486.9 1484.54 L1486.9 1480.02 Q1488.85 1481.16 1491.16 1481.74 Q1493.48 1482.32 1496 1482.32 Q1500.4 1482.32 1502.69 1480.58 Q1505.01 1478.84 1505.01 1475.53 Q1505.01 1472.48 1502.85 1470.77 Q1500.72 1469.03 1496.9 1469.03 L1492.88 1469.03 L1492.88 1465.19 L1497.09 1465.19 Q1500.54 1465.19 1502.37 1463.82 Q1504.2 1462.43 1504.2 1459.84 Q1504.2 1457.18 1502.3 1455.77 Q1500.42 1454.33 1496.9 1454.33 Q1494.98 1454.33 1492.78 1454.75 Q1490.58 1455.16 1487.95 1456.04 L1487.95 1451.88 Q1490.61 1451.14 1492.92 1450.77 Q1495.26 1450.39 1497.32 1450.39 Q1502.64 1450.39 1505.75 1452.83 Q1508.85 1455.23 1508.85 1459.35 Q1508.85 1462.22 1507.2 1464.21 Q1505.56 1466.18 1502.53 1466.95 Z" fill="#000000" fill-rule="nonzero" fill-opacity="1" /><path clip-path="url(#clip560)" d="M1528.52 1454.1 Q1524.91 1454.1 1523.08 1457.66 Q1521.28 1461.2 1521.28 1468.33 Q1521.28 1475.44 1523.08 1479.01 Q1524.91 1482.55 1528.52 1482.55 Q1532.16 1482.55 1533.96 1479.01 Q1535.79 1475.44 1535.79 1468.33 Q1535.79 1461.2 1533.96 1457.66 Q1532.16 1454.1 1528.52 1454.1 M1528.52 1450.39 Q1534.33 1450.39 1537.39 1455 Q1540.47 1459.58 1540.47 1468.33 Q1540.47 1477.06 1537.39 1481.67 Q1534.33 1486.25 1528.52 1486.25 Q1522.71 1486.25 1519.63 1481.67 Q1516.58 1477.06 1516.58 1468.33 Q1516.58 1459.58 1519.63 1455 Q1522.71 1450.39 1528.52 1450.39 Z" fill="#000000" fill-rule="nonzero" fill-opacity="1" /><path clip-path="url(#clip560)" d="M1892.67 1455.09 L1880.86 1473.54 L1892.67 1473.54 L1892.67 1455.09 M1891.44 1451.02 L1897.32 1451.02 L1897.32 1473.54 L1902.25 1473.54 L1902.25 1477.43 L1897.32 1477.43 L1897.32 1485.58 L1892.67 1485.58 L1892.67 1477.43 L1877.07 1477.43 L1877.07 1472.92 L1891.44 1451.02 Z" fill="#000000" fill-rule="nonzero" fill-opacity="1" /><path clip-path="url(#clip560)" d="M1919.98 1454.1 Q1916.37 1454.1 1914.54 1457.66 Q1912.74 1461.2 1912.74 1468.33 Q1912.74 1475.44 1914.54 1479.01 Q1916.37 1482.55 1919.98 1482.55 Q1923.62 1482.55 1925.42 1479.01 Q1927.25 1475.44 1927.25 1468.33 Q1927.25 1461.2 1925.42 1457.66 Q1923.62 1454.1 1919.98 1454.1 M1919.98 1450.39 Q1925.79 1450.39 1928.85 1455 Q1931.93 1459.58 1931.93 1468.33 Q1931.93 1477.06 1928.85 1481.67 Q1925.79 1486.25 1919.98 1486.25 Q1914.17 1486.25 1911.09 1481.67 Q1908.04 1477.06 1908.04 1468.33 Q1908.04 1459.58 1911.09 1455 Q1914.17 1450.39 1919.98 1450.39 Z" fill="#000000" fill-rule="nonzero" fill-opacity="1" /><path clip-path="url(#clip560)" d="M2270.01 1451.02 L2288.36 1451.02 L2288.36 1454.96 L2274.29 1454.96 L2274.29 1463.43 Q2275.31 1463.08 2276.33 1462.92 Q2277.34 1462.73 2278.36 1462.73 Q2284.15 1462.73 2287.53 1465.9 Q2290.91 1469.08 2290.91 1474.49 Q2290.91 1480.07 2287.44 1483.17 Q2283.96 1486.25 2277.64 1486.25 Q2275.47 1486.25 2273.2 1485.88 Q2270.96 1485.51 2268.55 1484.77 L2268.55 1480.07 Q2270.63 1481.2 2272.85 1481.76 Q2275.08 1482.32 2277.55 1482.32 Q2281.56 1482.32 2283.89 1480.21 Q2286.23 1478.1 2286.23 1474.49 Q2286.23 1470.88 2283.89 1468.77 Q2281.56 1466.67 2277.55 1466.67 Q2275.68 1466.67 2273.8 1467.08 Q2271.95 1467.5 2270.01 1468.38 L2270.01 1451.02 Z" fill="#000000" fill-rule="nonzero" fill-opacity="1" /><path clip-path="url(#clip560)" d="M2310.12 1454.1 Q2306.51 1454.1 2304.68 1457.66 Q2302.88 1461.2 2302.88 1468.33 Q2302.88 1475.44 2304.68 1479.01 Q2306.51 1482.55 2310.12 1482.55 Q2313.76 1482.55 2315.56 1479.01 Q2317.39 1475.44 2317.39 1468.33 Q2317.39 1461.2 2315.56 1457.66 Q2313.76 1454.1 2310.12 1454.1 M2310.12 1450.39 Q2315.93 1450.39 2318.99 1455 Q2322.07 1459.58 2322.07 1468.33 Q2322.07 1477.06 2318.99 1481.67 Q2315.93 1486.25 2310.12 1486.25 Q2304.31 1486.25 2301.23 1481.67 Q2298.18 1477.06 2298.18 1468.33 Q2298.18 1459.58 2301.23 1455 Q2304.31 1450.39 2310.12 1450.39 Z" fill="#000000" fill-rule="nonzero" fill-opacity="1" /><path clip-path="url(#clip560)" d="M1352.75 1546.53 L1352.75 1568.04 L1346.89 1568.04 L1346.89 1546.72 Q1346.89 1541.66 1344.92 1539.14 Q1342.95 1536.63 1339 1536.63 Q1334.26 1536.63 1331.52 1539.65 Q1328.78 1542.68 1328.78 1547.9 L1328.78 1568.04 L1322.89 1568.04 L1322.89 1532.4 L1328.78 1532.4 L1328.78 1537.93 Q1330.88 1534.72 1333.72 1533.13 Q1336.58 1531.54 1340.3 1531.54 Q1346.45 1531.54 1349.6 1535.36 Q1352.75 1539.14 1352.75 1546.53 Z" fill="#000000" fill-rule="nonzero" fill-opacity="1" /><polyline clip-path="url(#clip562)" style="stroke:#000000; stroke-linecap:round; stroke-linejoin:round; stroke-width:2; stroke-opacity:0.1; fill:none" points="322.886,1228.41 2352.76,1228.41 "/>
<polyline clip-path="url(#clip562)" style="stroke:#000000; stroke-linecap:round; stroke-linejoin:round; stroke-width:2; stroke-opacity:0.1; fill:none" points="322.886,1020.64 2352.76,1020.64 "/>
<polyline clip-path="url(#clip562)" style="stroke:#000000; stroke-linecap:round; stroke-linejoin:round; stroke-width:2; stroke-opacity:0.1; fill:none" points="322.886,812.867 2352.76,812.867 "/>
<polyline clip-path="url(#clip562)" style="stroke:#000000; stroke-linecap:round; stroke-linejoin:round; stroke-width:2; stroke-opacity:0.1; fill:none" points="322.886,605.095 2352.76,605.095 "/>
<polyline clip-path="url(#clip562)" style="stroke:#000000; stroke-linecap:round; stroke-linejoin:round; stroke-width:2; stroke-opacity:0.1; fill:none" points="322.886,397.324 2352.76,397.324 "/>
<polyline clip-path="url(#clip562)" style="stroke:#000000; stroke-linecap:round; stroke-linejoin:round; stroke-width:2; stroke-opacity:0.1; fill:none" points="322.886,189.552 2352.76,189.552 "/>
<polyline clip-path="url(#clip560)" style="stroke:#000000; stroke-linecap:round; stroke-linejoin:round; stroke-width:4; stroke-opacity:1; fill:none" points="322.886,1423.18 322.886,47.2441 "/>
<polyline clip-path="url(#clip560)" style="stroke:#000000; stroke-linecap:round; stroke-linejoin:round; stroke-width:4; stroke-opacity:1; fill:none" points="322.886,1228.41 341.784,1228.41 "/>
<polyline clip-path="url(#clip560)" style="stroke:#000000; stroke-linecap:round; stroke-linejoin:round; stroke-width:4; stroke-opacity:1; fill:none" points="322.886,1020.64 341.784,1020.64 "/>
<polyline clip-path="url(#clip560)" style="stroke:#000000; stroke-linecap:round; stroke-linejoin:round; stroke-width:4; stroke-opacity:1; fill:none" points="322.886,812.867 341.784,812.867 "/>
<polyline clip-path="url(#clip560)" style="stroke:#000000; stroke-linecap:round; stroke-linejoin:round; stroke-width:4; stroke-opacity:1; fill:none" points="322.886,605.095 341.784,605.095 "/>
<polyline clip-path="url(#clip560)" style="stroke:#000000; stroke-linecap:round; stroke-linejoin:round; stroke-width:4; stroke-opacity:1; fill:none" points="322.886,397.324 341.784,397.324 "/>
<polyline clip-path="url(#clip560)" style="stroke:#000000; stroke-linecap:round; stroke-linejoin:round; stroke-width:4; stroke-opacity:1; fill:none" points="322.886,189.552 341.784,189.552 "/>
<path clip-path="url(#clip560)" d="M199.062 1214.21 Q195.451 1214.21 193.623 1217.77 Q191.817 1221.31 191.817 1228.44 Q191.817 1235.55 193.623 1239.12 Q195.451 1242.66 199.062 1242.66 Q202.697 1242.66 204.502 1239.12 Q206.331 1235.55 206.331 1228.44 Q206.331 1221.31 204.502 1217.77 Q202.697 1214.21 199.062 1214.21 M199.062 1210.5 Q204.873 1210.5 207.928 1215.11 Q211.007 1219.69 211.007 1228.44 Q211.007 1237.17 207.928 1241.78 Q204.873 1246.36 199.062 1246.36 Q193.252 1246.36 190.174 1241.78 Q187.118 1237.17 187.118 1228.44 Q187.118 1219.69 190.174 1215.11 Q193.252 1210.5 199.062 1210.5 Z" fill="#000000" fill-rule="nonzero" fill-opacity="1" /><path clip-path="url(#clip560)" d="M219.224 1239.81 L224.109 1239.81 L224.109 1245.69 L219.224 1245.69 L219.224 1239.81 Z" fill="#000000" fill-rule="nonzero" fill-opacity="1" /><path clip-path="url(#clip560)" d="M235.104 1241.75 L242.743 1241.75 L242.743 1215.39 L234.433 1217.06 L234.433 1212.8 L242.696 1211.13 L247.372 1211.13 L247.372 1241.75 L255.011 1241.75 L255.011 1245.69 L235.104 1245.69 L235.104 1241.75 Z" fill="#000000" fill-rule="nonzero" fill-opacity="1" /><path clip-path="url(#clip560)" d="M277.303 1215.2 L265.497 1233.65 L277.303 1233.65 L277.303 1215.2 M276.076 1211.13 L281.955 1211.13 L281.955 1233.65 L286.886 1233.65 L286.886 1237.54 L281.955 1237.54 L281.955 1245.69 L277.303 1245.69 L277.303 1237.54 L261.701 1237.54 L261.701 1233.03 L276.076 1211.13 Z" fill="#000000" fill-rule="nonzero" fill-opacity="1" /><path clip-path="url(#clip560)" d="M199.386 1006.44 Q195.775 1006.44 193.947 1010 Q192.141 1013.54 192.141 1020.67 Q192.141 1027.78 193.947 1031.34 Q195.775 1034.89 199.386 1034.89 Q203.021 1034.89 204.826 1031.34 Q206.655 1027.78 206.655 1020.67 Q206.655 1013.54 204.826 1010 Q203.021 1006.44 199.386 1006.44 M199.386 1002.73 Q205.197 1002.73 208.252 1007.34 Q211.331 1011.92 211.331 1020.67 Q211.331 1029.4 208.252 1034.01 Q205.197 1038.59 199.386 1038.59 Q193.576 1038.59 190.498 1034.01 Q187.442 1029.4 187.442 1020.67 Q187.442 1011.92 190.498 1007.34 Q193.576 1002.73 199.386 1002.73 Z" fill="#000000" fill-rule="nonzero" fill-opacity="1" /><path clip-path="url(#clip560)" d="M219.548 1032.04 L224.433 1032.04 L224.433 1037.92 L219.548 1037.92 L219.548 1032.04 Z" fill="#000000" fill-rule="nonzero" fill-opacity="1" /><path clip-path="url(#clip560)" d="M235.428 1033.98 L243.067 1033.98 L243.067 1007.62 L234.757 1009.28 L234.757 1005.02 L243.021 1003.36 L247.696 1003.36 L247.696 1033.98 L255.335 1033.98 L255.335 1037.92 L235.428 1037.92 L235.428 1033.98 Z" fill="#000000" fill-rule="nonzero" fill-opacity="1" /><path clip-path="url(#clip560)" d="M275.358 1018.77 Q272.21 1018.77 270.358 1020.93 Q268.53 1023.08 268.53 1026.83 Q268.53 1030.56 270.358 1032.73 Q272.21 1034.89 275.358 1034.89 Q278.506 1034.89 280.335 1032.73 Q282.187 1030.56 282.187 1026.83 Q282.187 1023.08 280.335 1020.93 Q278.506 1018.77 275.358 1018.77 M284.641 1004.12 L284.641 1008.38 Q282.881 1007.55 281.076 1007.11 Q279.293 1006.67 277.534 1006.67 Q272.905 1006.67 270.451 1009.79 Q268.02 1012.92 267.673 1019.24 Q269.039 1017.22 271.099 1016.16 Q273.159 1015.07 275.636 1015.07 Q280.844 1015.07 283.854 1018.24 Q286.886 1021.39 286.886 1026.83 Q286.886 1032.15 283.738 1035.37 Q280.59 1038.59 275.358 1038.59 Q269.363 1038.59 266.192 1034.01 Q263.02 1029.4 263.02 1020.67 Q263.02 1012.48 266.909 1007.62 Q270.798 1002.73 277.349 1002.73 Q279.108 1002.73 280.891 1003.08 Q282.696 1003.43 284.641 1004.12 Z" fill="#000000" fill-rule="nonzero" fill-opacity="1" /><path clip-path="url(#clip560)" d="M199.641 798.665 Q196.03 798.665 194.201 802.23 Q192.396 805.772 192.396 812.901 Q192.396 820.008 194.201 823.573 Q196.03 827.114 199.641 827.114 Q203.275 827.114 205.081 823.573 Q206.91 820.008 206.91 812.901 Q206.91 805.772 205.081 802.23 Q203.275 798.665 199.641 798.665 M199.641 794.962 Q205.451 794.962 208.507 799.568 Q211.585 804.151 211.585 812.901 Q211.585 821.628 208.507 826.235 Q205.451 830.818 199.641 830.818 Q193.831 830.818 190.752 826.235 Q187.697 821.628 187.697 812.901 Q187.697 804.151 190.752 799.568 Q193.831 794.962 199.641 794.962 Z" fill="#000000" fill-rule="nonzero" fill-opacity="1" /><path clip-path="url(#clip560)" d="M219.803 824.267 L224.687 824.267 L224.687 830.147 L219.803 830.147 L219.803 824.267 Z" fill="#000000" fill-rule="nonzero" fill-opacity="1" /><path clip-path="url(#clip560)" d="M235.683 826.211 L243.321 826.211 L243.321 799.846 L235.011 801.512 L235.011 797.253 L243.275 795.587 L247.951 795.587 L247.951 826.211 L255.59 826.211 L255.59 830.147 L235.683 830.147 L235.683 826.211 Z" fill="#000000" fill-rule="nonzero" fill-opacity="1" /><path clip-path="url(#clip560)" d="M275.034 813.735 Q271.701 813.735 269.78 815.517 Q267.881 817.299 267.881 820.424 Q267.881 823.549 269.78 825.332 Q271.701 827.114 275.034 827.114 Q278.368 827.114 280.289 825.332 Q282.21 823.526 282.21 820.424 Q282.21 817.299 280.289 815.517 Q278.391 813.735 275.034 813.735 M270.358 811.744 Q267.349 811.003 265.659 808.943 Q263.993 806.883 263.993 803.92 Q263.993 799.776 266.932 797.369 Q269.895 794.962 275.034 794.962 Q280.196 794.962 283.136 797.369 Q286.076 799.776 286.076 803.92 Q286.076 806.883 284.386 808.943 Q282.719 811.003 279.733 811.744 Q283.113 812.531 284.988 814.823 Q286.886 817.114 286.886 820.424 Q286.886 825.448 283.807 828.133 Q280.752 830.818 275.034 830.818 Q269.317 830.818 266.238 828.133 Q263.182 825.448 263.182 820.424 Q263.182 817.114 265.081 814.823 Q266.979 812.531 270.358 811.744 M268.645 804.36 Q268.645 807.045 270.312 808.549 Q272.002 810.054 275.034 810.054 Q278.043 810.054 279.733 808.549 Q281.446 807.045 281.446 804.36 Q281.446 801.675 279.733 800.17 Q278.043 798.665 275.034 798.665 Q272.002 798.665 270.312 800.17 Q268.645 801.675 268.645 804.36 Z" fill="#000000" fill-rule="nonzero" fill-opacity="1" /><path clip-path="url(#clip560)" d="M199.549 590.894 Q195.937 590.894 194.109 594.459 Q192.303 598 192.303 605.13 Q192.303 612.236 194.109 615.801 Q195.937 619.343 199.549 619.343 Q203.183 619.343 204.988 615.801 Q206.817 612.236 206.817 605.13 Q206.817 598 204.988 594.459 Q203.183 590.894 199.549 590.894 M199.549 587.19 Q205.359 587.19 208.414 591.797 Q211.493 596.38 211.493 605.13 Q211.493 613.857 208.414 618.463 Q205.359 623.046 199.549 623.046 Q193.738 623.046 190.66 618.463 Q187.604 613.857 187.604 605.13 Q187.604 596.38 190.66 591.797 Q193.738 587.19 199.549 587.19 Z" fill="#000000" fill-rule="nonzero" fill-opacity="1" /><path clip-path="url(#clip560)" d="M219.71 616.495 L224.595 616.495 L224.595 622.375 L219.71 622.375 L219.71 616.495 Z" fill="#000000" fill-rule="nonzero" fill-opacity="1" /><path clip-path="url(#clip560)" d="M238.808 618.44 L255.127 618.44 L255.127 622.375 L233.183 622.375 L233.183 618.44 Q235.845 615.685 240.428 611.056 Q245.034 606.403 246.215 605.06 Q248.46 602.537 249.34 600.801 Q250.243 599.042 250.243 597.352 Q250.243 594.597 248.298 592.861 Q246.377 591.125 243.275 591.125 Q241.076 591.125 238.622 591.889 Q236.192 592.653 233.414 594.204 L233.414 589.482 Q236.238 588.347 238.692 587.769 Q241.146 587.19 243.183 587.19 Q248.553 587.19 251.747 589.875 Q254.942 592.56 254.942 597.051 Q254.942 599.181 254.132 601.102 Q253.345 603 251.238 605.593 Q250.659 606.264 247.558 609.482 Q244.456 612.676 238.808 618.44 Z" fill="#000000" fill-rule="nonzero" fill-opacity="1" /><path clip-path="url(#clip560)" d="M274.942 590.894 Q271.331 590.894 269.502 594.459 Q267.696 598 267.696 605.13 Q267.696 612.236 269.502 615.801 Q271.331 619.343 274.942 619.343 Q278.576 619.343 280.381 615.801 Q282.21 612.236 282.21 605.13 Q282.21 598 280.381 594.459 Q278.576 590.894 274.942 590.894 M274.942 587.19 Q280.752 587.19 283.807 591.797 Q286.886 596.38 286.886 605.13 Q286.886 613.857 283.807 618.463 Q280.752 623.046 274.942 623.046 Q269.131 623.046 266.053 618.463 Q262.997 613.857 262.997 605.13 Q262.997 596.38 266.053 591.797 Q269.131 587.19 274.942 587.19 Z" fill="#000000" fill-rule="nonzero" fill-opacity="1" /><path clip-path="url(#clip560)" d="M201.146 383.122 Q197.535 383.122 195.706 386.687 Q193.9 390.229 193.9 397.358 Q193.9 404.465 195.706 408.029 Q197.535 411.571 201.146 411.571 Q204.78 411.571 206.586 408.029 Q208.414 404.465 208.414 397.358 Q208.414 390.229 206.586 386.687 Q204.78 383.122 201.146 383.122 M201.146 379.419 Q206.956 379.419 210.011 384.025 Q213.09 388.608 213.09 397.358 Q213.09 406.085 210.011 410.692 Q206.956 415.275 201.146 415.275 Q195.336 415.275 192.257 410.692 Q189.201 406.085 189.201 397.358 Q189.201 388.608 192.257 384.025 Q195.336 379.419 201.146 379.419 Z" fill="#000000" fill-rule="nonzero" fill-opacity="1" /><path clip-path="url(#clip560)" d="M221.308 408.724 L226.192 408.724 L226.192 414.604 L221.308 414.604 L221.308 408.724 Z" fill="#000000" fill-rule="nonzero" fill-opacity="1" /><path clip-path="url(#clip560)" d="M240.405 410.668 L256.724 410.668 L256.724 414.604 L234.78 414.604 L234.78 410.668 Q237.442 407.914 242.025 403.284 Q246.632 398.631 247.812 397.289 Q250.057 394.766 250.937 393.03 Q251.84 391.27 251.84 389.581 Q251.84 386.826 249.895 385.09 Q247.974 383.354 244.872 383.354 Q242.673 383.354 240.22 384.118 Q237.789 384.881 235.011 386.432 L235.011 381.71 Q237.835 380.576 240.289 379.997 Q242.743 379.419 244.78 379.419 Q250.15 379.419 253.345 382.104 Q256.539 384.789 256.539 389.28 Q256.539 391.409 255.729 393.33 Q254.942 395.229 252.835 397.821 Q252.257 398.493 249.155 401.71 Q246.053 404.905 240.405 410.668 Z" fill="#000000" fill-rule="nonzero" fill-opacity="1" /><path clip-path="url(#clip560)" d="M270.567 410.668 L286.886 410.668 L286.886 414.604 L264.942 414.604 L264.942 410.668 Q267.604 407.914 272.187 403.284 Q276.793 398.631 277.974 397.289 Q280.219 394.766 281.099 393.03 Q282.002 391.27 282.002 389.581 Q282.002 386.826 280.057 385.09 Q278.136 383.354 275.034 383.354 Q272.835 383.354 270.381 384.118 Q267.951 384.881 265.173 386.432 L265.173 381.71 Q267.997 380.576 270.451 379.997 Q272.905 379.419 274.942 379.419 Q280.312 379.419 283.506 382.104 Q286.701 384.789 286.701 389.28 Q286.701 391.409 285.891 393.33 Q285.104 395.229 282.997 397.821 Q282.418 398.493 279.317 401.71 Q276.215 404.905 270.567 410.668 Z" fill="#000000" fill-rule="nonzero" fill-opacity="1" /><path clip-path="url(#clip560)" d="M199.062 175.351 Q195.451 175.351 193.623 178.915 Q191.817 182.457 191.817 189.587 Q191.817 196.693 193.623 200.258 Q195.451 203.8 199.062 203.8 Q202.697 203.8 204.502 200.258 Q206.331 196.693 206.331 189.587 Q206.331 182.457 204.502 178.915 Q202.697 175.351 199.062 175.351 M199.062 171.647 Q204.873 171.647 207.928 176.253 Q211.007 180.837 211.007 189.587 Q211.007 198.314 207.928 202.92 Q204.873 207.503 199.062 207.503 Q193.252 207.503 190.174 202.92 Q187.118 198.314 187.118 189.587 Q187.118 180.837 190.174 176.253 Q193.252 171.647 199.062 171.647 Z" fill="#000000" fill-rule="nonzero" fill-opacity="1" /><path clip-path="url(#clip560)" d="M219.224 200.952 L224.109 200.952 L224.109 206.832 L219.224 206.832 L219.224 200.952 Z" fill="#000000" fill-rule="nonzero" fill-opacity="1" /><path clip-path="url(#clip560)" d="M238.321 202.897 L254.641 202.897 L254.641 206.832 L232.696 206.832 L232.696 202.897 Q235.359 200.142 239.942 195.513 Q244.548 190.86 245.729 189.517 Q247.974 186.994 248.854 185.258 Q249.757 183.499 249.757 181.809 Q249.757 179.054 247.812 177.318 Q245.891 175.582 242.789 175.582 Q240.59 175.582 238.136 176.346 Q235.706 177.11 232.928 178.661 L232.928 173.939 Q235.752 172.804 238.206 172.226 Q240.659 171.647 242.696 171.647 Q248.067 171.647 251.261 174.332 Q254.456 177.017 254.456 181.508 Q254.456 183.638 253.645 185.559 Q252.858 187.457 250.752 190.05 Q250.173 190.721 247.071 193.939 Q243.97 197.133 238.321 202.897 Z" fill="#000000" fill-rule="nonzero" fill-opacity="1" /><path clip-path="url(#clip560)" d="M277.303 176.346 L265.497 194.795 L277.303 194.795 L277.303 176.346 M276.076 172.272 L281.955 172.272 L281.955 194.795 L286.886 194.795 L286.886 198.684 L281.955 198.684 L281.955 206.832 L277.303 206.832 L277.303 198.684 L261.701 198.684 L261.701 194.17 L276.076 172.272 Z" fill="#000000" fill-rule="nonzero" fill-opacity="1" /><path clip-path="url(#clip560)" d="M31.6865 785.866 Q33.4175 785.866 34.3434 786.913 Q35.2291 787.959 35.2291 789.328 Q35.2291 790.657 34.3434 791.703 Q33.4175 792.71 31.767 792.71 Q30.6398 792.71 29.6333 791.985 Q28.5866 791.26 28.3854 789.65 Q26.6543 791.663 26.6543 794.843 Q26.6543 796.413 27.2582 797.5 Q27.8218 798.547 29.5528 799.594 Q31.2839 800.64 34.8265 801.365 Q38.3692 802.049 43.8844 802.492 L64.4157 804.062 Q71.3802 804.545 85.0677 806.276 Q98.7149 807.967 101.855 808.772 Q104.834 809.497 107.29 810.584 Q109.745 811.671 111.879 813.281 Q114.053 814.891 115.261 817.226 Q116.468 819.561 116.468 822.379 Q116.468 826.123 114.496 828.78 Q112.563 831.437 109.625 831.437 Q107.894 831.437 106.968 830.39 Q106.082 829.344 106.082 827.975 Q106.082 826.647 106.968 825.64 Q107.894 824.593 109.544 824.593 Q110.671 824.593 111.678 825.318 Q112.724 826.043 112.926 827.653 Q114.657 825.64 114.657 822.379 Q114.657 819.883 113.208 818.233 Q111.758 816.582 107.894 815.375 Q104.029 814.167 97.4267 813.643 L76.8954 812.073 Q69.6491 811.55 56.1629 809.859 Q42.6767 808.128 39.1341 807.363 Q24.8427 804.143 24.8427 794.924 Q24.8427 791.18 26.8153 788.523 Q28.7477 785.866 31.6865 785.866 Z" fill="#000000" fill-rule="nonzero" fill-opacity="1" /><path clip-path="url(#clip560)" d="M153.402 823.064 Q146.616 823.064 142.919 821.351 Q137.418 818.961 137.418 813.325 Q137.418 812.13 137.756 810.89 Q138.072 809.628 139.312 808.05 Q140.552 806.449 142.581 805.48 Q146.504 803.631 153.402 803.631 Q160.143 803.631 163.817 805.344 Q169.183 807.847 169.183 813.37 Q169.183 815.444 168.123 817.563 Q167.064 819.66 164.516 820.99 Q160.706 823.064 153.402 823.064 M152.838 819.232 Q159.805 819.232 162.578 818.736 Q165.576 818.172 166.883 816.639 Q168.168 815.083 168.168 813.37 Q168.168 811.521 166.793 809.988 Q165.396 808.433 162.397 807.96 Q159.444 807.441 152.838 807.464 Q146.413 807.464 143.843 807.914 Q140.845 808.523 139.65 810.146 Q138.433 811.747 138.433 813.37 Q138.433 813.979 138.613 814.633 Q138.793 815.264 139.312 816.188 Q139.831 817.112 141.116 817.834 Q142.401 818.533 144.339 818.871 Q146.842 819.232 152.838 819.232 Z" fill="#000000" fill-rule="nonzero" fill-opacity="1" /><path clip-path="url(#clip560)" d="M-7.28521 820.991 L-8.72804 820.991 Q-8.72804 815.446 -11.6813 812.582 Q-11.6813 811.793 -11.501 811.658 Q-11.3206 811.523 -10.4865 811.523 L15.4167 811.523 Q16.7919 811.523 17.2202 810.847 Q17.6486 810.17 17.6486 807.217 L17.6486 805.752 L19.0688 805.752 Q18.9336 807.375 18.9336 813.236 Q18.9336 819.098 19.0688 820.698 L17.6486 820.698 L17.6486 819.233 Q17.6486 816.325 17.2428 815.626 Q16.8144 814.927 15.4167 814.927 L-8.5026 814.927 Q-7.28521 817.339 -7.28521 820.991 Z" fill="#000000" fill-rule="nonzero" fill-opacity="1" /><path clip-path="url(#clip560)" d="M66.4285 739.382 Q68.2321 739.382 69.2626 740.509 Q70.261 741.637 70.261 742.925 Q70.261 744.149 69.5525 744.793 Q68.844 745.437 67.9422 745.437 Q66.7184 745.437 65.6556 744.535 Q64.5928 743.633 64.3674 742.281 Q63.53 743.601 63.53 745.566 Q63.53 746.854 64.2063 747.981 Q64.8827 749.076 65.7522 749.752 Q66.6218 750.397 67.8778 750.976 Q69.1016 751.524 69.8424 751.749 Q70.5509 751.942 71.3238 752.104 L80.3415 754.358 Q84.6248 755.453 86.1385 755.453 Q88.0065 755.453 89.2625 754.551 Q90.4863 753.649 90.4863 751.846 Q90.4863 751.137 90.2931 750.332 Q90.0676 749.527 89.4879 748.496 Q88.876 747.434 87.9743 746.5 Q87.0403 745.534 85.4622 744.6 Q83.8841 743.666 81.8551 743.054 Q81.1466 742.86 81.1466 742.216 Q81.1466 741.411 81.7907 741.411 Q82.3382 741.411 83.4976 741.862 Q84.6248 742.281 86.1063 743.215 Q87.5556 744.116 88.876 745.308 Q90.1643 746.5 91.066 748.271 Q91.9678 750.042 91.9678 751.975 Q91.9678 754.744 90.4863 756.58 Q89.0048 758.416 86.9437 759.092 Q87.2335 759.253 87.62 759.479 Q88.0065 759.704 88.876 760.38 Q89.7134 761.025 90.3575 761.765 Q90.9694 762.506 91.4525 763.665 Q91.9678 764.793 91.9678 766.016 Q91.9678 767.562 91.5169 768.947 Q91.066 770.3 90.0354 771.266 Q89.0048 772.232 87.5878 772.232 Q86.0097 772.232 84.9147 771.169 Q83.7875 770.074 83.7875 768.593 Q83.7875 767.659 84.335 766.918 Q84.8825 766.145 86.0741 766.145 Q87.3945 766.145 88.3929 767.047 Q89.3913 767.949 89.649 769.237 Q90.4863 767.917 90.4863 765.952 Q90.4863 763.826 88.6184 762.152 Q86.7504 760.477 83.6265 759.672 Q76.1225 757.675 72.7731 756.902 Q69.3915 756.129 67.9422 756.129 Q66.5896 756.129 65.6556 756.484 Q64.7216 756.838 64.3029 757.45 Q63.8521 758.029 63.691 758.577 Q63.53 759.092 63.53 759.672 Q63.53 760.638 63.9165 761.733 Q64.3029 762.796 65.2047 764.084 Q66.0743 765.34 67.8778 766.532 Q69.6813 767.723 72.1612 768.529 Q72.9019 768.69 72.9019 769.398 Q72.8697 770.171 72.2256 770.171 Q71.6781 770.171 70.5509 769.752 Q69.3915 769.301 67.9422 768.4 Q66.4929 767.466 65.2047 766.274 Q63.8843 765.05 62.9825 763.279 Q62.0807 761.475 62.0807 759.543 Q62.0807 758.674 62.274 757.836 Q62.435 756.967 62.9181 755.936 Q63.4012 754.873 64.464 753.939 Q65.5268 753.005 67.0726 752.426 Q66.3319 752.039 65.6234 751.524 Q64.9149 750.976 64.0453 750.139 Q63.1435 749.269 62.6282 748.078 Q62.0807 746.854 62.0807 745.501 Q62.0807 744.181 62.435 742.893 Q62.7571 741.604 63.8199 740.509 Q64.8504 739.382 66.4285 739.382 Z" fill="#000000" fill-rule="nonzero" fill-opacity="1" /><path clip-path="url(#clip560)" d="M64.2619 732.661 Q62.8867 732.661 62.2329 731.872 Q61.5792 731.083 61.5792 730.068 Q61.5792 729.009 62.278 728.265 Q62.9543 727.498 64.1492 727.498 Q65.4342 727.498 66.1556 728.4 Q66.877 729.279 66.6967 730.542 Q68.5453 729.437 69.3794 727.408 Q70.2135 725.357 70.2135 723.463 Q70.2135 721.479 68.5002 719.878 Q66.7868 718.255 62.5936 718.255 Q59.0317 718.255 56.9802 719.653 Q54.9286 721.028 54.9286 723.756 L54.9286 725.785 Q54.9286 726.484 54.861 726.687 Q54.7934 726.89 54.4101 726.89 Q53.9592 726.89 53.8691 726.191 Q53.8691 725.492 53.7338 724.387 Q53.6436 721.704 51.3216 720.284 Q49.1574 718.999 46.0688 718.999 Q43.2508 718.999 42.0785 720.352 Q40.8837 721.682 40.8837 723.418 Q40.8837 725.041 41.56 726.822 Q42.2363 728.603 43.7468 729.572 Q43.7468 726.709 46.0688 726.709 Q47.0833 726.709 47.7596 727.363 Q48.4134 727.994 48.4134 729.054 Q48.4134 730.068 47.7822 730.745 Q47.1284 731.421 46.0237 731.421 Q43.3861 731.421 41.56 729.076 Q39.7339 726.709 39.7339 723.237 Q39.7339 719.811 41.5374 717.286 Q43.341 714.738 46.1139 714.738 Q48.8417 714.738 51.0736 716.542 Q53.3055 718.345 54.2298 721.209 Q54.9286 717.692 57.3183 715.595 Q59.6855 713.498 62.5936 713.498 Q66.2007 713.498 68.8609 716.339 Q71.4986 719.18 71.4986 723.328 Q71.4986 727.16 69.4245 729.911 Q67.3504 732.661 64.2619 732.661 Z" fill="#000000" fill-rule="nonzero" fill-opacity="1" /><path clip-path="url(#clip560)" d="M46.171 675.244 L84.3028 684.744 Q86.0097 685.131 87.459 685.131 Q90.4863 685.131 90.4863 683.166 Q90.4863 682.2 89.8744 681.427 Q89.2625 680.654 87.9743 680.042 Q86.686 679.43 85.4944 679.044 Q84.2706 678.657 82.3382 678.142 Q81.5653 677.981 81.3721 677.852 Q81.1466 677.691 81.1466 677.24 Q81.1466 676.435 81.7907 676.435 Q85.9453 677.305 88.3285 678.432 Q91.9678 680.236 91.9678 683.295 Q91.9678 685.614 90.5507 687.256 Q89.1337 688.899 87.0081 689.285 Q91.9678 693.504 91.9678 697.884 Q91.9678 701.749 89.037 704.197 Q86.0741 706.644 81.4043 706.644 Q76.7022 706.644 72.1934 704.326 Q67.6846 701.975 64.8827 698.271 Q62.0807 694.567 62.0807 690.767 Q62.0807 686.741 66.2997 684.68 L50.6477 680.719 L49.3594 680.525 Q48.973 680.525 48.7797 680.686 Q48.5543 680.815 48.3932 681.588 Q48.2322 682.329 48.2322 683.81 Q48.2322 684.422 48.2 684.712 Q48.1678 684.97 48.0068 685.195 Q47.8135 685.421 47.4271 685.421 Q46.2999 685.421 46.171 684.487 Q45.4625 678.303 45.4625 676.113 Q45.4625 675.727 45.6558 675.501 Q45.8168 675.276 46.01 675.276 L46.171 675.244 M69.3271 685.485 Q69.0372 685.485 68.2321 685.711 Q67.4269 685.936 66.2997 686.451 Q65.1725 686.967 64.3674 688.094 Q63.53 689.189 63.53 690.67 Q63.53 692.667 65.2369 694.76 Q66.9438 696.822 69.8424 698.335 Q72.1612 699.495 77.0243 700.751 Q81.8873 701.975 84.3028 701.975 Q85.7843 701.975 87.1047 701.652 Q88.3929 701.298 89.4557 700.3 Q90.4863 699.301 90.4863 697.756 Q90.4863 693.987 85.8165 690.284 Q85.0113 689.575 84.6893 689.414 Q84.335 689.221 83.3688 688.963 L70.4543 685.678 Q69.4881 685.485 69.3271 685.485 Z" fill="#000000" fill-rule="nonzero" fill-opacity="1" /><path clip-path="url(#clip560)" d="M66.4285 640.91 Q68.2321 640.91 69.2626 642.038 Q70.261 643.165 70.261 644.453 Q70.261 645.677 69.5525 646.321 Q68.844 646.965 67.9422 646.965 Q66.7184 646.965 65.6556 646.063 Q64.5928 645.162 64.3674 643.809 Q63.53 645.129 63.53 647.094 Q63.53 648.382 64.2063 649.509 Q64.8827 650.604 65.7522 651.281 Q66.6218 651.925 67.8778 652.504 Q69.1016 653.052 69.8424 653.277 Q70.5509 653.471 71.3238 653.632 L80.3415 655.886 Q84.6248 656.981 86.1385 656.981 Q88.0065 656.981 89.2625 656.079 Q90.4863 655.178 90.4863 653.374 Q90.4863 652.666 90.2931 651.86 Q90.0676 651.055 89.4879 650.025 Q88.876 648.962 87.9743 648.028 Q87.0403 647.062 85.4622 646.128 Q83.8841 645.194 81.8551 644.582 Q81.1466 644.389 81.1466 643.744 Q81.1466 642.939 81.7907 642.939 Q82.3382 642.939 83.4976 643.39 Q84.6248 643.809 86.1063 644.743 Q87.5556 645.645 88.876 646.836 Q90.1643 648.028 91.066 649.799 Q91.9678 651.571 91.9678 653.503 Q91.9678 656.273 90.4863 658.108 Q89.0048 659.944 86.9437 660.62 Q87.2335 660.781 87.62 661.007 Q88.0065 661.232 88.876 661.909 Q89.7134 662.553 90.3575 663.293 Q90.9694 664.034 91.4525 665.194 Q91.9678 666.321 91.9678 667.545 Q91.9678 669.091 91.5169 670.475 Q91.066 671.828 90.0354 672.794 Q89.0048 673.76 87.5878 673.76 Q86.0097 673.76 84.9147 672.698 Q83.7875 671.603 83.7875 670.121 Q83.7875 669.187 84.335 668.446 Q84.8825 667.673 86.0741 667.673 Q87.3945 667.673 88.3929 668.575 Q89.3913 669.477 89.649 670.765 Q90.4863 669.445 90.4863 667.48 Q90.4863 665.355 88.6184 663.68 Q86.7504 662.005 83.6265 661.2 Q76.1225 659.203 72.7731 658.43 Q69.3915 657.657 67.9422 657.657 Q66.5896 657.657 65.6556 658.012 Q64.7216 658.366 64.3029 658.978 Q63.8521 659.558 63.691 660.105 Q63.53 660.62 63.53 661.2 Q63.53 662.166 63.9165 663.261 Q64.3029 664.324 65.2047 665.612 Q66.0743 666.868 67.8778 668.06 Q69.6813 669.252 72.1612 670.057 Q72.9019 670.218 72.9019 670.926 Q72.8697 671.699 72.2256 671.699 Q71.6781 671.699 70.5509 671.281 Q69.3915 670.83 67.9422 669.928 Q66.4929 668.994 65.2047 667.802 Q63.8843 666.578 62.9825 664.807 Q62.0807 663.004 62.0807 661.071 Q62.0807 660.202 62.274 659.364 Q62.435 658.495 62.9181 657.464 Q63.4012 656.401 64.464 655.467 Q65.5268 654.533 67.0726 653.954 Q66.3319 653.567 65.6234 653.052 Q64.9149 652.504 64.0453 651.667 Q63.1435 650.798 62.6282 649.606 Q62.0807 648.382 62.0807 647.029 Q62.0807 645.709 62.435 644.421 Q62.7571 643.133 63.8199 642.038 Q64.8504 640.91 66.4285 640.91 Z" fill="#000000" fill-rule="nonzero" fill-opacity="1" /><polyline clip-path="url(#clip562)" style="stroke:#009af9; stroke-linecap:round; stroke-linejoin:round; stroke-width:4; stroke-opacity:1; fill:none" points="380.335,1384.24 419.416,410.309 458.497,229.952 497.578,166.827 536.659,137.609 575.74,121.738 614.821,112.168 653.903,105.956 692.984,101.698 732.065,98.652 771.146,96.3982 810.227,94.6841 849.308,93.3501 888.389,92.2916 927.47,91.4377 966.551,90.7388 1005.63,90.1596 1044.71,89.6742 1083.79,89.2634 1122.88,88.9127 1161.96,88.6109 1201.04,88.3492 1240.12,88.121 1279.2,87.9207 1318.28,87.744 1357.36,87.5872 1396.44,87.4475 1435.52,87.3226 1474.6,87.2103 1513.69,87.1091 1552.77,87.0175 1591.85,86.9344 1630.93,86.8587 1670.01,86.7896 1709.09,86.7263 1748.17,86.6682 1787.25,86.6148 1826.33,86.5655 1865.42,86.52 1904.5,86.4779 1943.58,86.4387 1982.66,86.4024 2021.74,86.3686 2060.82,86.337 2099.9,86.3075 2138.98,86.2799 2178.06,86.2541 2217.14,86.2299 2256.23,86.2071 2295.31,86.1857 "/>
<circle clip-path="url(#clip562)" cx="380.335" cy="1384.24" r="14.4" fill="#e26f46" fill-rule="evenodd" fill-opacity="1" stroke="#000000" stroke-opacity="1" stroke-width="3.2"/>
<circle clip-path="url(#clip562)" cx="419.416" cy="410.309" r="14.4" fill="#e26f46" fill-rule="evenodd" fill-opacity="1" stroke="#000000" stroke-opacity="1" stroke-width="3.2"/>
<circle clip-path="url(#clip562)" cx="458.497" cy="229.952" r="14.4" fill="#e26f46" fill-rule="evenodd" fill-opacity="1" stroke="#000000" stroke-opacity="1" stroke-width="3.2"/>
<circle clip-path="url(#clip562)" cx="497.578" cy="166.827" r="14.4" fill="#e26f46" fill-rule="evenodd" fill-opacity="1" stroke="#000000" stroke-opacity="1" stroke-width="3.2"/>
<circle clip-path="url(#clip562)" cx="536.659" cy="137.609" r="14.4" fill="#e26f46" fill-rule="evenodd" fill-opacity="1" stroke="#000000" stroke-opacity="1" stroke-width="3.2"/>
<circle clip-path="url(#clip562)" cx="575.74" cy="121.738" r="14.4" fill="#e26f46" fill-rule="evenodd" fill-opacity="1" stroke="#000000" stroke-opacity="1" stroke-width="3.2"/>
<circle clip-path="url(#clip562)" cx="614.821" cy="112.168" r="14.4" fill="#e26f46" fill-rule="evenodd" fill-opacity="1" stroke="#000000" stroke-opacity="1" stroke-width="3.2"/>
<circle clip-path="url(#clip562)" cx="653.903" cy="105.956" r="14.4" fill="#e26f46" fill-rule="evenodd" fill-opacity="1" stroke="#000000" stroke-opacity="1" stroke-width="3.2"/>
<circle clip-path="url(#clip562)" cx="692.984" cy="101.698" r="14.4" fill="#e26f46" fill-rule="evenodd" fill-opacity="1" stroke="#000000" stroke-opacity="1" stroke-width="3.2"/>
<circle clip-path="url(#clip562)" cx="732.065" cy="98.652" r="14.4" fill="#e26f46" fill-rule="evenodd" fill-opacity="1" stroke="#000000" stroke-opacity="1" stroke-width="3.2"/>
<circle clip-path="url(#clip562)" cx="771.146" cy="96.3982" r="14.4" fill="#e26f46" fill-rule="evenodd" fill-opacity="1" stroke="#000000" stroke-opacity="1" stroke-width="3.2"/>
<circle clip-path="url(#clip562)" cx="810.227" cy="94.6841" r="14.4" fill="#e26f46" fill-rule="evenodd" fill-opacity="1" stroke="#000000" stroke-opacity="1" stroke-width="3.2"/>
<circle clip-path="url(#clip562)" cx="849.308" cy="93.3501" r="14.4" fill="#e26f46" fill-rule="evenodd" fill-opacity="1" stroke="#000000" stroke-opacity="1" stroke-width="3.2"/>
<circle clip-path="url(#clip562)" cx="888.389" cy="92.2916" r="14.4" fill="#e26f46" fill-rule="evenodd" fill-opacity="1" stroke="#000000" stroke-opacity="1" stroke-width="3.2"/>
<circle clip-path="url(#clip562)" cx="927.47" cy="91.4377" r="14.4" fill="#e26f46" fill-rule="evenodd" fill-opacity="1" stroke="#000000" stroke-opacity="1" stroke-width="3.2"/>
<circle clip-path="url(#clip562)" cx="966.551" cy="90.7388" r="14.4" fill="#e26f46" fill-rule="evenodd" fill-opacity="1" stroke="#000000" stroke-opacity="1" stroke-width="3.2"/>
<circle clip-path="url(#clip562)" cx="1005.63" cy="90.1596" r="14.4" fill="#e26f46" fill-rule="evenodd" fill-opacity="1" stroke="#000000" stroke-opacity="1" stroke-width="3.2"/>
<circle clip-path="url(#clip562)" cx="1044.71" cy="89.6742" r="14.4" fill="#e26f46" fill-rule="evenodd" fill-opacity="1" stroke="#000000" stroke-opacity="1" stroke-width="3.2"/>
<circle clip-path="url(#clip562)" cx="1083.79" cy="89.2634" r="14.4" fill="#e26f46" fill-rule="evenodd" fill-opacity="1" stroke="#000000" stroke-opacity="1" stroke-width="3.2"/>
<circle clip-path="url(#clip562)" cx="1122.88" cy="88.9127" r="14.4" fill="#e26f46" fill-rule="evenodd" fill-opacity="1" stroke="#000000" stroke-opacity="1" stroke-width="3.2"/>
<circle clip-path="url(#clip562)" cx="1161.96" cy="88.6109" r="14.4" fill="#e26f46" fill-rule="evenodd" fill-opacity="1" stroke="#000000" stroke-opacity="1" stroke-width="3.2"/>
<circle clip-path="url(#clip562)" cx="1201.04" cy="88.3492" r="14.4" fill="#e26f46" fill-rule="evenodd" fill-opacity="1" stroke="#000000" stroke-opacity="1" stroke-width="3.2"/>
<circle clip-path="url(#clip562)" cx="1240.12" cy="88.121" r="14.4" fill="#e26f46" fill-rule="evenodd" fill-opacity="1" stroke="#000000" stroke-opacity="1" stroke-width="3.2"/>
<circle clip-path="url(#clip562)" cx="1279.2" cy="87.9207" r="14.4" fill="#e26f46" fill-rule="evenodd" fill-opacity="1" stroke="#000000" stroke-opacity="1" stroke-width="3.2"/>
<circle clip-path="url(#clip562)" cx="1318.28" cy="87.744" r="14.4" fill="#e26f46" fill-rule="evenodd" fill-opacity="1" stroke="#000000" stroke-opacity="1" stroke-width="3.2"/>
<circle clip-path="url(#clip562)" cx="1357.36" cy="87.5872" r="14.4" fill="#e26f46" fill-rule="evenodd" fill-opacity="1" stroke="#000000" stroke-opacity="1" stroke-width="3.2"/>
<circle clip-path="url(#clip562)" cx="1396.44" cy="87.4475" r="14.4" fill="#e26f46" fill-rule="evenodd" fill-opacity="1" stroke="#000000" stroke-opacity="1" stroke-width="3.2"/>
<circle clip-path="url(#clip562)" cx="1435.52" cy="87.3226" r="14.4" fill="#e26f46" fill-rule="evenodd" fill-opacity="1" stroke="#000000" stroke-opacity="1" stroke-width="3.2"/>
<circle clip-path="url(#clip562)" cx="1474.6" cy="87.2103" r="14.4" fill="#e26f46" fill-rule="evenodd" fill-opacity="1" stroke="#000000" stroke-opacity="1" stroke-width="3.2"/>
<circle clip-path="url(#clip562)" cx="1513.69" cy="87.1091" r="14.4" fill="#e26f46" fill-rule="evenodd" fill-opacity="1" stroke="#000000" stroke-opacity="1" stroke-width="3.2"/>
<circle clip-path="url(#clip562)" cx="1552.77" cy="87.0175" r="14.4" fill="#e26f46" fill-rule="evenodd" fill-opacity="1" stroke="#000000" stroke-opacity="1" stroke-width="3.2"/>
<circle clip-path="url(#clip562)" cx="1591.85" cy="86.9344" r="14.4" fill="#e26f46" fill-rule="evenodd" fill-opacity="1" stroke="#000000" stroke-opacity="1" stroke-width="3.2"/>
<circle clip-path="url(#clip562)" cx="1630.93" cy="86.8587" r="14.4" fill="#e26f46" fill-rule="evenodd" fill-opacity="1" stroke="#000000" stroke-opacity="1" stroke-width="3.2"/>
<circle clip-path="url(#clip562)" cx="1670.01" cy="86.7896" r="14.4" fill="#e26f46" fill-rule="evenodd" fill-opacity="1" stroke="#000000" stroke-opacity="1" stroke-width="3.2"/>
<circle clip-path="url(#clip562)" cx="1709.09" cy="86.7263" r="14.4" fill="#e26f46" fill-rule="evenodd" fill-opacity="1" stroke="#000000" stroke-opacity="1" stroke-width="3.2"/>
<circle clip-path="url(#clip562)" cx="1748.17" cy="86.6682" r="14.4" fill="#e26f46" fill-rule="evenodd" fill-opacity="1" stroke="#000000" stroke-opacity="1" stroke-width="3.2"/>
<circle clip-path="url(#clip562)" cx="1787.25" cy="86.6148" r="14.4" fill="#e26f46" fill-rule="evenodd" fill-opacity="1" stroke="#000000" stroke-opacity="1" stroke-width="3.2"/>
<circle clip-path="url(#clip562)" cx="1826.33" cy="86.5655" r="14.4" fill="#e26f46" fill-rule="evenodd" fill-opacity="1" stroke="#000000" stroke-opacity="1" stroke-width="3.2"/>
<circle clip-path="url(#clip562)" cx="1865.42" cy="86.52" r="14.4" fill="#e26f46" fill-rule="evenodd" fill-opacity="1" stroke="#000000" stroke-opacity="1" stroke-width="3.2"/>
<circle clip-path="url(#clip562)" cx="1904.5" cy="86.4779" r="14.4" fill="#e26f46" fill-rule="evenodd" fill-opacity="1" stroke="#000000" stroke-opacity="1" stroke-width="3.2"/>
<circle clip-path="url(#clip562)" cx="1943.58" cy="86.4387" r="14.4" fill="#e26f46" fill-rule="evenodd" fill-opacity="1" stroke="#000000" stroke-opacity="1" stroke-width="3.2"/>
<circle clip-path="url(#clip562)" cx="1982.66" cy="86.4024" r="14.4" fill="#e26f46" fill-rule="evenodd" fill-opacity="1" stroke="#000000" stroke-opacity="1" stroke-width="3.2"/>
<circle clip-path="url(#clip562)" cx="2021.74" cy="86.3686" r="14.4" fill="#e26f46" fill-rule="evenodd" fill-opacity="1" stroke="#000000" stroke-opacity="1" stroke-width="3.2"/>
<circle clip-path="url(#clip562)" cx="2060.82" cy="86.337" r="14.4" fill="#e26f46" fill-rule="evenodd" fill-opacity="1" stroke="#000000" stroke-opacity="1" stroke-width="3.2"/>
<circle clip-path="url(#clip562)" cx="2099.9" cy="86.3075" r="14.4" fill="#e26f46" fill-rule="evenodd" fill-opacity="1" stroke="#000000" stroke-opacity="1" stroke-width="3.2"/>
<circle clip-path="url(#clip562)" cx="2138.98" cy="86.2799" r="14.4" fill="#e26f46" fill-rule="evenodd" fill-opacity="1" stroke="#000000" stroke-opacity="1" stroke-width="3.2"/>
<circle clip-path="url(#clip562)" cx="2178.06" cy="86.2541" r="14.4" fill="#e26f46" fill-rule="evenodd" fill-opacity="1" stroke="#000000" stroke-opacity="1" stroke-width="3.2"/>
<circle clip-path="url(#clip562)" cx="2217.14" cy="86.2299" r="14.4" fill="#e26f46" fill-rule="evenodd" fill-opacity="1" stroke="#000000" stroke-opacity="1" stroke-width="3.2"/>
<circle clip-path="url(#clip562)" cx="2256.23" cy="86.2071" r="14.4" fill="#e26f46" fill-rule="evenodd" fill-opacity="1" stroke="#000000" stroke-opacity="1" stroke-width="3.2"/>
<circle clip-path="url(#clip562)" cx="2295.31" cy="86.1857" r="14.4" fill="#e26f46" fill-rule="evenodd" fill-opacity="1" stroke="#000000" stroke-opacity="1" stroke-width="3.2"/>
</svg>