<?xml version="1.0" encoding="utf-8"?>
<svg xmlns="http://www.w3.org/2000/svg" xmlns:xlink="http://www.w3.org/1999/xlink" width="500" height="300" viewBox="0 0 2000 1200">
<defs>
  <clipPath id="clip280">
    <rect x="0" y="0" width="2000" height="1200"/>
  </clipPath>
</defs>
<path clip-path="url(#clip280)" d="M0 1200 L2000 1200 L2000 0 L0 0  Z" fill="#ffffff" fill-rule="evenodd" fill-opacity="1"/>
<defs>
  <clipPath id="clip281">
    <rect x="400" y="0" width="1401" height="1200"/>
  </clipPath>
</defs>
<path clip-path="url(#clip280)" d="M192.48 1035.39 L1952.76 1035.39 L1952.76 47.2441 L192.48 47.2441  Z" fill="#ffffff" fill-rule="evenodd" fill-opacity="1"/>
<defs>
  <clipPath id="clip282">
    <rect x="192" y="47" width="1761" height="989"/>
  </clipPath>
</defs>
<polyline clip-path="url(#clip282)" style="stroke:#000000; stroke-linecap:round; stroke-linejoin:round; stroke-width:2; stroke-opacity:0.1; fill:none" points="242.299,1035.39 242.299,47.2441 "/>
<polyline clip-path="url(#clip282)" style="stroke:#000000; stroke-linecap:round; stroke-linejoin:round; stroke-width:2; stroke-opacity:0.1; fill:none" points="657.459,1035.39 657.459,47.2441 "/>
<polyline clip-path="url(#clip282)" style="stroke:#000000; stroke-linecap:round; stroke-linejoin:round; stroke-width:2; stroke-opacity:0.1; fill:none" points="1072.62,1035.39 1072.62,47.2441 "/>
<polyline clip-path="url(#clip282)" style="stroke:#000000; stroke-linecap:round; stroke-linejoin:round; stroke-width:2; stroke-opacity:0.1; fill:none" points="1487.78,1035.39 1487.78,47.2441 "/>
<polyline clip-path="url(#clip282)" style="stroke:#000000; stroke-linecap:round; stroke-linejoin:round; stroke-width:2; stroke-opacity:0.1; fill:none" points="1902.94,1035.39 1902.94,47.2441 "/>
<polyline clip-path="url(#clip280)" style="stroke:#000000; stroke-linecap:round; stroke-linejoin:round; stroke-width:4; stroke-opacity:1; fill:none" points="192.48,1035.39 1952.76,1035.39 "/>
<polyline clip-path="url(#clip280)" style="stroke:#000000; stroke-linecap:round; stroke-linejoin:round; stroke-width:4; stroke-opacity:1; fill:none" points="242.299,1035.39 242.299,1016.49 "/>
<polyline clip-path="url(#clip280)" style="stroke:#000000; stroke-linecap:round; stroke-linejoin:round; stroke-width:4; stroke-opacity:1; fill:none" points="657.459,1035.39 657.459,1016.49 "/>
<polyline clip-path="url(#clip280)" style="stroke:#000000; stroke-linecap:round; stroke-linejoin:round; stroke-width:4; stroke-opacity:1; fill:none" points="1072.62,1035.39 1072.62,1016.49 "/>
<polyline clip-path="url(#clip280)" style="stroke:#000000; stroke-linecap:round; stroke-linejoin:round; stroke-width:4; stroke-opacity:1; fill:none" points="1487.78,1035.39 1487.78,1016.49 "/>
<polyline clip-path="url(#clip280)" style="stroke:#000000; stroke-linecap:round; stroke-linejoin:round; stroke-width:4; stroke-opacity:1; fill:none" points="1902.94,1035.39 1902.94,1016.49 "/>
<path clip-path="url(#clip280)" d="M204.603 1063.11 Q200.992 1063.11 199.163 1066.67 Q197.357 1070.21 197.357 1077.34 Q197.357 1084.45 199.163 1088.01 Q200.992 1091.56 204.603 1091.56 Q208.237 1091.56 210.042 1088.01 Q211.871 1084.45 211.871 1077.34 Q211.871 1070.21 210.042 1066.67 Q208.237 1063.11 204.603 1063.11 M204.603 1059.4 Q210.413 1059.4 213.468 1064.01 Q216.547 1068.59 216.547 1077.34 Q216.547 1086.07 213.468 1090.68 Q210.413 1095.26 204.603 1095.26 Q198.793 1095.26 195.714 1090.68 Q192.658 1086.07 192.658 1077.34 Q192.658 1068.59 195.714 1064.01 Q198.793 1059.4 204.603 1059.4 Z" fill="#000000" fill-rule="nonzero" fill-opacity="1" /><path clip-path="url(#clip280)" d="M224.765 1088.71 L229.649 1088.71 L229.649 1094.59 L224.765 1094.59 L224.765 1088.71 Z" fill="#000000" fill-rule="nonzero" fill-opacity="1" /><path clip-path="url(#clip280)" d="M249.834 1063.11 Q246.223 1063.11 244.394 1066.67 Q242.589 1070.21 242.589 1077.34 Q242.589 1084.45 244.394 1088.01 Q246.223 1091.56 249.834 1091.56 Q253.468 1091.56 255.274 1088.01 Q257.102 1084.45 257.102 1077.34 Q257.102 1070.21 255.274 1066.67 Q253.468 1063.11 249.834 1063.11 M249.834 1059.4 Q255.644 1059.4 258.7 1064.01 Q261.778 1068.59 261.778 1077.34 Q261.778 1086.07 258.7 1090.68 Q255.644 1095.26 249.834 1095.26 Q244.024 1095.26 240.945 1090.68 Q237.89 1086.07 237.89 1077.34 Q237.89 1068.59 240.945 1064.01 Q244.024 1059.4 249.834 1059.4 Z" fill="#000000" fill-rule="nonzero" fill-opacity="1" /><path clip-path="url(#clip280)" d="M279.996 1063.11 Q276.385 1063.11 274.556 1066.67 Q272.75 1070.21 272.75 1077.34 Q272.75 1084.45 274.556 1088.01 Q276.385 1091.56 279.996 1091.56 Q283.63 1091.56 285.436 1088.01 Q287.264 1084.45 287.264 1077.34 Q287.264 1070.21 285.436 1066.67 Q283.63 1063.11 279.996 1063.11 M279.996 1059.4 Q285.806 1059.4 288.861 1064.01 Q291.94 1068.59 291.94 1077.34 Q291.94 1086.07 288.861 1090.68 Q285.806 1095.26 279.996 1095.26 Q274.186 1095.26 271.107 1090.68 Q268.051 1086.07 268.051 1077.34 Q268.051 1068.59 271.107 1064.01 Q274.186 1059.4 279.996 1059.4 Z" fill="#000000" fill-rule="nonzero" fill-opacity="1" /><path clip-path="url(#clip280)" d="M620.26 1063.11 Q616.649 1063.11 614.82 1066.67 Q613.014 1070.21 613.014 1077.34 Q613.014 1084.45 614.82 1088.01 Q616.649 1091.56 620.26 1091.56 Q623.894 1091.56 625.7 1088.01 Q627.528 1084.45 627.528 1077.34 Q627.528 1070.21 625.7 1066.67 Q623.894 1063.11 620.26 1063.11 M620.26 1059.4 Q626.07 1059.4 629.125 1064.01 Q632.204 1068.59 632.204 1077.34 Q632.204 1086.07 629.125 1090.68 Q626.07 1095.26 620.26 1095.26 Q614.45 1095.26 611.371 1090.68 Q608.315 1086.07 608.315 1077.34 Q608.315 1068.59 611.371 1064.01 Q614.45 1059.4 620.26 1059.4 Z" fill="#000000" fill-rule="nonzero" fill-opacity="1" /><path clip-path="url(#clip280)" d="M640.422 1088.71 L645.306 1088.71 L645.306 1094.59 L640.422 1094.59 L640.422 1088.71 Z" fill="#000000" fill-rule="nonzero" fill-opacity="1" /><path clip-path="url(#clip280)" d="M659.519 1090.65 L675.838 1090.65 L675.838 1094.59 L653.894 1094.59 L653.894 1090.65 Q656.556 1087.9 661.139 1083.27 Q665.746 1078.62 666.926 1077.27 Q669.172 1074.75 670.051 1073.01 Q670.954 1071.25 670.954 1069.56 Q670.954 1066.81 669.009 1065.07 Q667.088 1063.34 663.986 1063.34 Q661.787 1063.34 659.334 1064.1 Q656.903 1064.87 654.125 1066.42 L654.125 1061.69 Q656.949 1060.56 659.403 1059.98 Q661.857 1059.4 663.894 1059.4 Q669.264 1059.4 672.459 1062.09 Q675.653 1064.77 675.653 1069.26 Q675.653 1071.39 674.843 1073.31 Q674.056 1075.21 671.949 1077.81 Q671.371 1078.48 668.269 1081.69 Q665.167 1084.89 659.519 1090.65 Z" fill="#000000" fill-rule="nonzero" fill-opacity="1" /><path clip-path="url(#clip280)" d="M685.699 1060.03 L704.056 1060.03 L704.056 1063.96 L689.982 1063.96 L689.982 1072.44 Q691 1072.09 692.019 1071.93 Q693.037 1071.74 694.056 1071.74 Q699.843 1071.74 703.222 1074.91 Q706.602 1078.08 706.602 1083.5 Q706.602 1089.08 703.13 1092.18 Q699.657 1095.26 693.338 1095.26 Q691.162 1095.26 688.894 1094.89 Q686.648 1094.52 684.241 1093.78 L684.241 1089.08 Q686.324 1090.21 688.546 1090.77 Q690.769 1091.32 693.245 1091.32 Q697.25 1091.32 699.588 1089.22 Q701.926 1087.11 701.926 1083.5 Q701.926 1079.89 699.588 1077.78 Q697.25 1075.68 693.245 1075.68 Q691.37 1075.68 689.495 1076.09 Q687.644 1076.51 685.699 1077.39 L685.699 1060.03 Z" fill="#000000" fill-rule="nonzero" fill-opacity="1" /><path clip-path="url(#clip280)" d="M1034.92 1063.11 Q1031.31 1063.11 1029.48 1066.67 Q1027.68 1070.21 1027.68 1077.34 Q1027.68 1084.45 1029.48 1088.01 Q1031.31 1091.56 1034.92 1091.56 Q1038.56 1091.56 1040.36 1088.01 Q1042.19 1084.45 1042.19 1077.34 Q1042.19 1070.21 1040.36 1066.67 Q1038.56 1063.11 1034.92 1063.11 M1034.92 1059.4 Q1040.73 1059.4 1043.79 1064.01 Q1046.87 1068.59 1046.87 1077.34 Q1046.87 1086.07 1043.79 1090.68 Q1040.73 1095.26 1034.92 1095.26 Q1029.11 1095.26 1026.03 1090.68 Q1022.98 1086.07 1022.98 1077.34 Q1022.98 1068.59 1026.03 1064.01 Q1029.11 1059.4 1034.92 1059.4 Z" fill="#000000" fill-rule="nonzero" fill-opacity="1" /><path clip-path="url(#clip280)" d="M1055.08 1088.71 L1059.97 1088.71 L1059.97 1094.59 L1055.08 1094.59 L1055.08 1088.71 Z" fill="#000000" fill-rule="nonzero" fill-opacity="1" /><path clip-path="url(#clip280)" d="M1070.2 1060.03 L1088.56 1060.03 L1088.56 1063.96 L1074.48 1063.96 L1074.48 1072.44 Q1075.5 1072.09 1076.52 1071.93 Q1077.54 1071.74 1078.56 1071.74 Q1084.34 1071.74 1087.72 1074.91 Q1091.1 1078.08 1091.1 1083.5 Q1091.1 1089.08 1087.63 1092.18 Q1084.16 1095.26 1077.84 1095.26 Q1075.66 1095.26 1073.39 1094.89 Q1071.15 1094.52 1068.74 1093.78 L1068.74 1089.08 Q1070.82 1090.21 1073.05 1090.77 Q1075.27 1091.32 1077.75 1091.32 Q1081.75 1091.32 1084.09 1089.22 Q1086.43 1087.11 1086.43 1083.5 Q1086.43 1079.89 1084.09 1077.78 Q1081.75 1075.68 1077.75 1075.68 Q1075.87 1075.68 1074 1076.09 Q1072.14 1076.51 1070.2 1077.39 L1070.2 1060.03 Z" fill="#000000" fill-rule="nonzero" fill-opacity="1" /><path clip-path="url(#clip280)" d="M1110.31 1063.11 Q1106.7 1063.11 1104.87 1066.67 Q1103.07 1070.21 1103.07 1077.34 Q1103.07 1084.45 1104.87 1088.01 Q1106.7 1091.56 1110.31 1091.56 Q1113.95 1091.56 1115.75 1088.01 Q1117.58 1084.45 1117.58 1077.34 Q1117.58 1070.21 1115.75 1066.67 Q1113.95 1063.11 1110.31 1063.11 M1110.31 1059.4 Q1116.12 1059.4 1119.18 1064.01 Q1122.26 1068.59 1122.26 1077.34 Q1122.26 1086.07 1119.18 1090.68 Q1116.12 1095.26 1110.31 1095.26 Q1104.5 1095.26 1101.43 1090.68 Q1098.37 1086.07 1098.37 1077.34 Q1098.37 1068.59 1101.43 1064.01 Q1104.5 1059.4 1110.31 1059.4 Z" fill="#000000" fill-rule="nonzero" fill-opacity="1" /><path clip-path="url(#clip280)" d="M1450.58 1063.11 Q1446.97 1063.11 1445.14 1066.67 Q1443.33 1070.21 1443.33 1077.34 Q1443.33 1084.45 1445.14 1088.01 Q1446.97 1091.56 1450.58 1091.56 Q1454.21 1091.56 1456.02 1088.01 Q1457.85 1084.45 1457.85 1077.34 Q1457.85 1070.21 1456.02 1066.67 Q1454.21 1063.11 1450.58 1063.11 M1450.58 1059.4 Q1456.39 1059.4 1459.44 1064.01 Q1462.52 1068.59 1462.52 1077.34 Q1462.52 1086.07 1459.44 1090.68 Q1456.39 1095.26 1450.58 1095.26 Q1444.77 1095.26 1441.69 1090.68 Q1438.63 1086.07 1438.63 1077.34 Q1438.63 1068.59 1441.69 1064.01 Q1444.77 1059.4 1450.58 1059.4 Z" fill="#000000" fill-rule="nonzero" fill-opacity="1" /><path clip-path="url(#clip280)" d="M1470.74 1088.71 L1475.62 1088.71 L1475.62 1094.59 L1470.74 1094.59 L1470.74 1088.71 Z" fill="#000000" fill-rule="nonzero" fill-opacity="1" /><path clip-path="url(#clip280)" d="M1484.63 1060.03 L1506.85 1060.03 L1506.85 1062.02 L1494.31 1094.59 L1489.42 1094.59 L1501.23 1063.96 L1484.63 1063.96 L1484.63 1060.03 Z" fill="#000000" fill-rule="nonzero" fill-opacity="1" /><path clip-path="url(#clip280)" d="M1516.02 1060.03 L1534.37 1060.03 L1534.37 1063.96 L1520.3 1063.96 L1520.3 1072.44 Q1521.32 1072.09 1522.34 1071.93 Q1523.36 1071.74 1524.37 1071.74 Q1530.16 1071.74 1533.54 1074.91 Q1536.92 1078.08 1536.92 1083.5 Q1536.92 1089.08 1533.45 1092.18 Q1529.98 1095.26 1523.66 1095.26 Q1521.48 1095.26 1519.21 1094.89 Q1516.97 1094.52 1514.56 1093.78 L1514.56 1089.08 Q1516.64 1090.21 1518.87 1090.77 Q1521.09 1091.32 1523.56 1091.32 Q1527.57 1091.32 1529.91 1089.22 Q1532.24 1087.11 1532.24 1083.5 Q1532.24 1079.89 1529.91 1077.78 Q1527.57 1075.68 1523.56 1075.68 Q1521.69 1075.68 1519.81 1076.09 Q1517.96 1076.51 1516.02 1077.39 L1516.02 1060.03 Z" fill="#000000" fill-rule="nonzero" fill-opacity="1" /><path clip-path="url(#clip280)" d="M1855.01 1090.65 L1862.65 1090.65 L1862.65 1064.29 L1854.34 1065.95 L1854.34 1061.69 L1862.6 1060.03 L1867.28 1060.03 L1867.28 1090.65 L1874.92 1090.65 L1874.92 1094.59 L1855.01 1094.59 L1855.01 1090.65 Z" fill="#000000" fill-rule="nonzero" fill-opacity="1" /><path clip-path="url(#clip280)" d="M1884.36 1088.71 L1889.24 1088.71 L1889.24 1094.59 L1884.36 1094.59 L1884.36 1088.71 Z" fill="#000000" fill-rule="nonzero" fill-opacity="1" /><path clip-path="url(#clip280)" d="M1909.43 1063.11 Q1905.82 1063.11 1903.99 1066.67 Q1902.18 1070.21 1902.18 1077.34 Q1902.18 1084.45 1903.99 1088.01 Q1905.82 1091.56 1909.43 1091.56 Q1913.06 1091.56 1914.87 1088.01 Q1916.7 1084.45 1916.7 1077.34 Q1916.7 1070.21 1914.87 1066.67 Q1913.06 1063.11 1909.43 1063.11 M1909.43 1059.4 Q1915.24 1059.4 1918.3 1064.01 Q1921.37 1068.59 1921.37 1077.34 Q1921.37 1086.07 1918.3 1090.68 Q1915.24 1095.26 1909.43 1095.26 Q1903.62 1095.26 1900.54 1090.68 Q1897.49 1086.07 1897.49 1077.34 Q1897.49 1068.59 1900.54 1064.01 Q1903.62 1059.4 1909.43 1059.4 Z" fill="#000000" fill-rule="nonzero" fill-opacity="1" /><path clip-path="url(#clip280)" d="M1939.59 1063.11 Q1935.98 1063.11 1934.15 1066.67 Q1932.35 1070.21 1932.35 1077.34 Q1932.35 1084.45 1934.15 1088.01 Q1935.98 1091.56 1939.59 1091.56 Q1943.23 1091.56 1945.03 1088.01 Q1946.86 1084.45 1946.86 1077.34 Q1946.86 1070.21 1945.03 1066.67 Q1943.23 1063.11 1939.59 1063.11 M1939.59 1059.4 Q1945.4 1059.4 1948.46 1064.01 Q1951.54 1068.59 1951.54 1077.34 Q1951.54 1086.07 1948.46 1090.68 Q1945.4 1095.26 1939.59 1095.26 Q1933.78 1095.26 1930.7 1090.68 Q1927.65 1086.07 1927.65 1077.34 Q1927.65 1068.59 1930.7 1064.01 Q1933.78 1059.4 1939.59 1059.4 Z" fill="#000000" fill-rule="nonzero" fill-opacity="1" /><path clip-path="url(#clip280)" d="M1089.23 1138.6 L1076.34 1155.95 L1089.9 1174.25 L1082.99 1174.25 L1072.62 1160.25 L1062.24 1174.25 L1055.34 1174.25 L1069.18 1155.6 L1056.51 1138.6 L1063.42 1138.6 L1072.87 1151.3 L1082.33 1138.6 L1089.23 1138.6 Z" fill="#000000" fill-rule="nonzero" fill-opacity="1" /><polyline clip-path="url(#clip282)" style="stroke:#000000; stroke-linecap:round; stroke-linejoin:round; stroke-width:2; stroke-opacity:0.1; fill:none" points="192.48,877.244 1952.76,877.244 "/>
<polyline clip-path="url(#clip282)" style="stroke:#000000; stroke-linecap:round; stroke-linejoin:round; stroke-width:2; stroke-opacity:0.1; fill:none" points="192.48,691.18 1952.76,691.18 "/>
<polyline clip-path="url(#clip282)" style="stroke:#000000; stroke-linecap:round; stroke-linejoin:round; stroke-width:2; stroke-opacity:0.1; fill:none" points="192.48,505.116 1952.76,505.116 "/>
<polyline clip-path="url(#clip282)" style="stroke:#000000; stroke-linecap:round; stroke-linejoin:round; stroke-width:2; stroke-opacity:0.1; fill:none" points="192.48,319.052 1952.76,319.052 "/>
<polyline clip-path="url(#clip282)" style="stroke:#000000; stroke-linecap:round; stroke-linejoin:round; stroke-width:2; stroke-opacity:0.1; fill:none" points="192.48,132.988 1952.76,132.988 "/>
<polyline clip-path="url(#clip280)" style="stroke:#000000; stroke-linecap:round; stroke-linejoin:round; stroke-width:4; stroke-opacity:1; fill:none" points="192.48,1035.39 192.48,47.2441 "/>
<polyline clip-path="url(#clip280)" style="stroke:#000000; stroke-linecap:round; stroke-linejoin:round; stroke-width:4; stroke-opacity:1; fill:none" points="192.48,877.244 211.378,877.244 "/>
<polyline clip-path="url(#clip280)" style="stroke:#000000; stroke-linecap:round; stroke-linejoin:round; stroke-width:4; stroke-opacity:1; fill:none" points="192.48,691.18 211.378,691.18 "/>
<polyline clip-path="url(#clip280)" style="stroke:#000000; stroke-linecap:round; stroke-linejoin:round; stroke-width:4; stroke-opacity:1; fill:none" points="192.48,505.116 211.378,505.116 "/>
<polyline clip-path="url(#clip280)" style="stroke:#000000; stroke-linecap:round; stroke-linejoin:round; stroke-width:4; stroke-opacity:1; fill:none" points="192.48,319.052 211.378,319.052 "/>
<polyline clip-path="url(#clip280)" style="stroke:#000000; stroke-linecap:round; stroke-linejoin:round; stroke-width:4; stroke-opacity:1; fill:none" points="192.48,132.988 211.378,132.988 "/>
<path clip-path="url(#clip280)" d="M155.351 875.889 Q158.707 876.607 160.582 878.876 Q162.48 881.144 162.48 884.477 Q162.48 889.593 158.962 892.394 Q155.443 895.195 148.962 895.195 Q146.786 895.195 144.471 894.755 Q142.179 894.338 139.726 893.482 L139.726 888.968 Q141.67 890.102 143.985 890.681 Q146.3 891.26 148.823 891.26 Q153.221 891.26 155.513 889.524 Q157.827 887.788 157.827 884.477 Q157.827 881.422 155.675 879.709 Q153.545 877.973 149.726 877.973 L145.698 877.973 L145.698 874.13 L149.911 874.13 Q153.36 874.13 155.188 872.764 Q157.017 871.376 157.017 868.783 Q157.017 866.121 155.119 864.709 Q153.244 863.274 149.726 863.274 Q147.804 863.274 145.605 863.69 Q143.406 864.107 140.767 864.987 L140.767 860.82 Q143.429 860.079 145.744 859.709 Q148.082 859.339 150.142 859.339 Q155.466 859.339 158.568 861.769 Q161.67 864.177 161.67 868.297 Q161.67 871.167 160.026 873.158 Q158.383 875.126 155.351 875.889 Z" fill="#000000" fill-rule="nonzero" fill-opacity="1" /><path clip-path="url(#clip280)" d="M150.952 689.316 Q147.804 689.316 145.952 691.469 Q144.124 693.622 144.124 697.372 Q144.124 701.099 145.952 703.275 Q147.804 705.427 150.952 705.427 Q154.101 705.427 155.929 703.275 Q157.781 701.099 157.781 697.372 Q157.781 693.622 155.929 691.469 Q154.101 689.316 150.952 689.316 M160.235 674.664 L160.235 678.923 Q158.475 678.09 156.67 677.65 Q154.888 677.21 153.128 677.21 Q148.499 677.21 146.045 680.335 Q143.614 683.46 143.267 689.779 Q144.633 687.765 146.693 686.701 Q148.753 685.613 151.23 685.613 Q156.438 685.613 159.448 688.784 Q162.48 691.932 162.48 697.372 Q162.48 702.696 159.332 705.913 Q156.184 709.131 150.952 709.131 Q144.957 709.131 141.786 704.548 Q138.614 699.941 138.614 691.214 Q138.614 683.02 142.503 678.159 Q146.392 673.275 152.943 673.275 Q154.702 673.275 156.485 673.622 Q158.29 673.969 160.235 674.664 Z" fill="#000000" fill-rule="nonzero" fill-opacity="1" /><path clip-path="url(#clip280)" d="M140.86 521.678 L140.86 517.419 Q142.619 518.252 144.425 518.692 Q146.23 519.132 147.966 519.132 Q152.596 519.132 155.026 516.03 Q157.48 512.905 157.827 506.563 Q156.485 508.553 154.425 509.618 Q152.364 510.683 149.864 510.683 Q144.679 510.683 141.647 507.558 Q138.638 504.41 138.638 498.97 Q138.638 493.646 141.786 490.428 Q144.934 487.211 150.165 487.211 Q156.161 487.211 159.309 491.817 Q162.48 496.401 162.48 505.151 Q162.48 513.322 158.591 518.206 Q154.726 523.067 148.175 523.067 Q146.415 523.067 144.61 522.72 Q142.804 522.373 140.86 521.678 M150.165 507.026 Q153.313 507.026 155.142 504.873 Q156.994 502.72 156.994 498.97 Q156.994 495.243 155.142 493.091 Q153.313 490.915 150.165 490.915 Q147.017 490.915 145.165 493.091 Q143.337 495.243 143.337 498.97 Q143.337 502.72 145.165 504.873 Q147.017 507.026 150.165 507.026 Z" fill="#000000" fill-rule="nonzero" fill-opacity="1" /><path clip-path="url(#clip280)" d="M112.781 332.397 L120.42 332.397 L120.42 306.031 L112.11 307.698 L112.11 303.439 L120.374 301.772 L125.05 301.772 L125.05 332.397 L132.689 332.397 L132.689 336.332 L112.781 336.332 L112.781 332.397 Z" fill="#000000" fill-rule="nonzero" fill-opacity="1" /><path clip-path="url(#clip280)" d="M146.161 332.397 L162.48 332.397 L162.48 336.332 L140.536 336.332 L140.536 332.397 Q143.198 329.642 147.781 325.013 Q152.388 320.36 153.568 319.017 Q155.813 316.494 156.693 314.758 Q157.596 312.999 157.596 311.309 Q157.596 308.554 155.651 306.818 Q153.73 305.082 150.628 305.082 Q148.429 305.082 145.976 305.846 Q143.545 306.61 140.767 308.161 L140.767 303.439 Q143.591 302.304 146.045 301.726 Q148.499 301.147 150.536 301.147 Q155.906 301.147 159.1 303.832 Q162.295 306.517 162.295 311.008 Q162.295 313.138 161.485 315.059 Q160.698 316.957 158.591 319.55 Q158.013 320.221 154.911 323.439 Q151.809 326.633 146.161 332.397 Z" fill="#000000" fill-rule="nonzero" fill-opacity="1" /><path clip-path="url(#clip280)" d="M112.179 146.333 L119.818 146.333 L119.818 119.967 L111.508 121.634 L111.508 117.375 L119.772 115.708 L124.448 115.708 L124.448 146.333 L132.087 146.333 L132.087 150.268 L112.179 150.268 L112.179 146.333 Z" fill="#000000" fill-rule="nonzero" fill-opacity="1" /><path clip-path="url(#clip280)" d="M141.577 115.708 L159.934 115.708 L159.934 119.643 L145.86 119.643 L145.86 128.116 Q146.878 127.768 147.897 127.606 Q148.915 127.421 149.934 127.421 Q155.721 127.421 159.1 130.592 Q162.48 133.764 162.48 139.18 Q162.48 144.759 159.008 147.861 Q155.536 150.94 149.216 150.94 Q147.04 150.94 144.772 150.569 Q142.527 150.199 140.119 149.458 L140.119 144.759 Q142.202 145.893 144.425 146.449 Q146.647 147.004 149.124 147.004 Q153.128 147.004 155.466 144.898 Q157.804 142.791 157.804 139.18 Q157.804 135.569 155.466 133.463 Q153.128 131.356 149.124 131.356 Q147.249 131.356 145.374 131.773 Q143.522 132.19 141.577 133.069 L141.577 115.708 Z" fill="#000000" fill-rule="nonzero" fill-opacity="1" /><path clip-path="url(#clip280)" d="M31.6042 693.234 L31.6042 687.377 L67.2522 687.377 L67.2522 693.234 L31.6042 693.234 M17.727 693.234 L17.727 687.377 L25.143 687.377 L25.143 693.234 L17.727 693.234 Z" fill="#000000" fill-rule="nonzero" fill-opacity="1" /><path clip-path="url(#clip280)" d="M45.7361 645.491 L67.2522 645.491 L67.2522 651.347 L45.927 651.347 Q40.8663 651.347 38.3518 653.321 Q35.8374 655.294 35.8374 659.241 Q35.8374 663.983 38.8611 666.72 Q41.8848 669.458 47.1047 669.458 L67.2522 669.458 L67.2522 675.346 L31.6042 675.346 L31.6042 669.458 L37.1424 669.458 Q33.9277 667.357 32.3363 664.524 Q30.7448 661.66 30.7448 657.936 Q30.7448 651.793 34.5643 648.642 Q38.3518 645.491 45.7361 645.491 Z" fill="#000000" fill-rule="nonzero" fill-opacity="1" /><path clip-path="url(#clip280)" d="M21.4827 628.017 L31.6042 628.017 L31.6042 615.954 L36.1557 615.954 L36.1557 628.017 L55.5074 628.017 Q59.8679 628.017 61.1093 626.839 Q62.3506 625.63 62.3506 621.969 L62.3506 615.954 L67.2522 615.954 L67.2522 621.969 Q67.2522 628.749 64.7377 631.327 Q62.1914 633.905 55.5074 633.905 L36.1557 633.905 L36.1557 638.202 L31.6042 638.202 L31.6042 633.905 L21.4827 633.905 L21.4827 628.017 Z" fill="#000000" fill-rule="nonzero" fill-opacity="1" /><path clip-path="url(#clip280)" d="M47.9641 577.76 L50.8286 577.76 L50.8286 604.687 Q56.8761 604.305 60.0589 601.058 Q63.2099 597.78 63.2099 591.955 Q63.2099 588.581 62.3824 585.43 Q61.5549 582.247 59.8998 579.128 L65.4379 579.128 Q66.7747 582.279 67.475 585.589 Q68.1752 588.9 68.1752 592.305 Q68.1752 600.835 63.2099 605.832 Q58.2447 610.798 49.7783 610.798 Q41.0254 610.798 35.9011 606.087 Q30.7448 601.345 30.7448 593.324 Q30.7448 586.131 35.3918 581.961 Q40.0069 577.76 47.9641 577.76 M46.2453 583.616 Q41.4392 583.68 38.5746 586.322 Q35.7101 588.931 35.7101 593.26 Q35.7101 598.162 38.4792 601.122 Q41.2482 604.05 46.2772 604.496 L46.2453 583.616 Z" fill="#000000" fill-rule="nonzero" fill-opacity="1" /><path clip-path="url(#clip280)" d="M49.0144 544.69 Q42.6487 544.69 39.1476 547.332 Q35.6464 549.942 35.6464 554.684 Q35.6464 559.395 39.1476 562.036 Q42.6487 564.646 49.0144 564.646 Q55.3483 564.646 58.8494 562.036 Q62.3506 559.395 62.3506 554.684 Q62.3506 549.942 58.8494 547.332 Q55.3483 544.69 49.0144 544.69 M62.828 538.833 Q71.931 538.833 76.3551 542.876 Q80.8111 546.918 80.8111 555.257 Q80.8111 558.344 80.3337 561.081 Q79.8881 563.819 78.9332 566.397 L73.2359 566.397 Q74.6364 563.819 75.3048 561.304 Q75.9732 558.79 75.9732 556.18 Q75.9732 550.419 72.9495 547.554 Q69.9576 544.69 63.8783 544.69 L60.9819 544.69 Q64.133 546.504 65.6926 549.337 Q67.2522 552.169 67.2522 556.116 Q67.2522 562.673 62.2551 566.683 Q57.258 570.694 49.0144 570.694 Q40.739 570.694 35.7419 566.683 Q30.7448 562.673 30.7448 556.116 Q30.7448 552.169 32.3044 549.337 Q33.864 546.504 37.0151 544.69 L31.6042 544.69 L31.6042 538.833 L62.828 538.833 Z" fill="#000000" fill-rule="nonzero" fill-opacity="1" /><path clip-path="url(#clip280)" d="M37.0787 506.114 Q36.5058 507.1 36.2512 508.278 Q35.9647 509.424 35.9647 510.824 Q35.9647 515.789 39.2112 518.463 Q42.4259 521.105 48.4733 521.105 L67.2522 521.105 L67.2522 526.993 L31.6042 526.993 L31.6042 521.105 L37.1424 521.105 Q33.8959 519.259 32.3363 516.299 Q30.7448 513.339 30.7448 509.105 Q30.7448 508.501 30.8403 507.769 Q30.904 507.037 31.0631 506.145 L37.0787 506.114 Z" fill="#000000" fill-rule="nonzero" fill-opacity="1" /><path clip-path="url(#clip280)" d="M49.3327 483.77 Q49.3327 490.868 50.9559 493.605 Q52.5792 496.342 56.4941 496.342 Q59.6133 496.342 61.4594 494.305 Q63.2736 492.236 63.2736 488.703 Q63.2736 483.834 59.8361 480.905 Q56.3668 477.945 50.6377 477.945 L49.3327 477.945 L49.3327 483.77 M46.9137 472.089 L67.2522 472.089 L67.2522 477.945 L61.8413 477.945 Q65.0878 479.951 66.6474 482.942 Q68.1752 485.934 68.1752 490.263 Q68.1752 495.738 65.1196 498.984 Q62.0323 502.199 56.8761 502.199 Q50.8605 502.199 47.8049 498.188 Q44.7494 494.146 44.7494 486.157 L44.7494 477.945 L44.1765 477.945 Q40.1342 477.945 37.9381 480.619 Q35.7101 483.261 35.7101 488.067 Q35.7101 491.122 36.4421 494.019 Q37.1742 496.915 38.6383 499.589 L33.2275 499.589 Q31.9861 496.374 31.3814 493.35 Q30.7448 490.327 30.7448 487.462 Q30.7448 479.728 34.7552 475.908 Q38.7656 472.089 46.9137 472.089 Z" fill="#000000" fill-rule="nonzero" fill-opacity="1" /><path clip-path="url(#clip280)" d="M45.7361 430.394 L67.2522 430.394 L67.2522 436.25 L45.927 436.25 Q40.8663 436.25 38.3518 438.223 Q35.8374 440.197 35.8374 444.143 Q35.8374 448.886 38.8611 451.623 Q41.8848 454.36 47.1047 454.36 L67.2522 454.36 L67.2522 460.249 L31.6042 460.249 L31.6042 454.36 L37.1424 454.36 Q33.9277 452.26 32.3363 449.427 Q30.7448 446.562 30.7448 442.838 Q30.7448 436.696 34.5643 433.545 Q38.3518 430.394 45.7361 430.394 Z" fill="#000000" fill-rule="nonzero" fill-opacity="1" /><path clip-path="url(#clip280)" d="M37.0151 395.255 L17.727 395.255 L17.727 389.398 L67.2522 389.398 L67.2522 395.255 L61.905 395.255 Q65.0878 397.101 66.6474 399.934 Q68.1752 402.735 68.1752 406.681 Q68.1752 413.142 63.019 417.217 Q57.8627 421.259 49.46 421.259 Q41.0573 421.259 35.9011 417.217 Q30.7448 413.142 30.7448 406.681 Q30.7448 402.735 32.3044 399.934 Q33.8322 397.101 37.0151 395.255 M49.46 415.211 Q55.9212 415.211 59.6133 412.57 Q63.2736 409.896 63.2736 405.249 Q63.2736 400.602 59.6133 397.928 Q55.9212 395.255 49.46 395.255 Q42.9988 395.255 39.3385 397.928 Q35.6464 400.602 35.6464 405.249 Q35.6464 409.896 39.3385 412.57 Q42.9988 415.211 49.46 415.211 Z" fill="#000000" fill-rule="nonzero" fill-opacity="1" /><polyline clip-path="url(#clip282)" style="stroke:#009af9; stroke-linecap:round; stroke-linejoin:round; stroke-width:4; stroke-opacity:1; fill:none" points="253.111,1007.42 353.08,1007.36 413.158,1007.27 463.952,1007.17 519.13,1007.03 569.998,1006.87 624.535,1006.67 687.721,1006.39 743.873,1006.11 793.113,1005.82 846.798,1005.48 900.803,1005.09 960.511,1004.62 1017.32,1004.12 1076.39,1003.54 1126.12,1003 1156.47,1002.65 1186.83,1002.28 1214.63,1001.93 1242.44,1001.56 1268.12,1001.2 1293.8,1000.82 1319.82,1000.43 1345.83,1000.02 1374.99,999.531 1404.14,999.021 1430.56,998.537 1456.98,998.031 1487.23,997.422 1517.47,996.78 1545.48,996.155 1573.49,995.497 1601.1,994.814 1628.71,994.096 1655.52,993.362 1682.33,992.59 1709.81,991.755 1737.29,990.873 1752.35,990.368 1767.4,989.848 1782.46,989.31 1797.51,988.756 1819.38,987.918 1841.25,987.038 1863.12,986.114 1884.99,985.142 1889.48,984.937 1893.96,984.729 1898.45,984.519 1902.94,984.307 "/>
<polyline clip-path="url(#clip282)" style="stroke:#e26f46; stroke-linecap:round; stroke-linejoin:round; stroke-width:4; stroke-opacity:1; fill:none" points="253.111,993.324 353.08,993.324 413.158,993.322 463.952,993.319 519.13,993.313 569.998,993.302 624.535,993.284 687.721,993.249 743.873,993.204 793.113,993.149 846.798,993.07 900.803,992.966 960.511,992.817 1017.32,992.635 1076.39,992.397 1126.12,992.152 1156.47,991.98 1186.83,991.788 1214.63,991.595 1242.44,991.383 1268.12,991.17 1293.8,990.94 1319.82,990.687 1345.83,990.413 1374.99,990.079 1404.14,989.716 1430.56,989.359 1456.98,988.973 1487.23,988.495 1517.47,987.975 1545.48,987.452 1573.49,986.887 1587.29,986.592 1601.1,986.286 1614.9,985.967 1628.71,985.637 1642.11,985.304 1655.52,984.958 1668.92,984.599 1682.33,984.227 1696.07,983.831 1709.81,983.42 1723.55,982.992 1737.29,982.549 1752.35,982.042 1767.4,981.515 1782.46,980.964 1797.51,980.39 1808.45,979.958 1819.38,979.511 1830.32,979.051 1841.25,978.576 1852.19,978.086 1863.12,977.58 1874.06,977.058 1884.99,976.519 1889.48,976.293 1893.96,976.064 1898.45,975.832 1902.94,975.596 "/>
<polyline clip-path="url(#clip282)" style="stroke:#3da44d; stroke-linecap:round; stroke-linejoin:round; stroke-width:4; stroke-opacity:1; fill:none" points="243.651,75.2104 245.002,75.3641 246.354,75.62 247.705,75.9779 249.057,76.4376 250.408,76.9985 251.759,77.6602 253.111,78.422 259.359,83.2235 265.607,90.0548 271.855,98.7885 278.103,109.269 284.351,121.317 290.599,134.743 296.847,149.349 303.096,164.937 315.592,198.301 328.088,233.442 340.584,269.206 353.08,304.706 368.1,346.138 383.119,385.565 390.629,404.397 398.138,422.605 405.648,440.177 413.158,457.108 425.856,484.295 438.555,509.718 451.254,533.458 463.952,555.61 477.747,577.996 491.541,598.767 505.335,618.052 519.13,635.977 531.847,651.398 544.564,665.845 557.281,679.397 569.998,692.123 583.632,704.925 597.267,716.927 610.901,728.194 624.535,738.787 640.331,750.287 656.128,761.029 671.924,771.08 687.721,780.5 715.797,795.849 743.873,809.63 768.493,820.592 793.113,830.634 819.956,840.654 846.798,849.815 873.801,858.261 900.803,866.019 930.657,873.882 960.511,881.075 988.917,887.36 1017.32,893.154 1076.39,903.819 1126.12,911.539 1186.83,919.634 1242.44,925.934 1293.8,930.914 1345.83,935.216 1404.14,939.219 1456.98,942.144 1517.47,944.707 1573.49,946.345 1628.71,947.259 1682.33,947.456 1737.29,946.903 1797.51,945.329 1884.99,940.925 1902.94,939.658 "/>
<path clip-path="url(#clip280)" d="M1197.64 436.582 L1894.08 436.582 L1894.08 80.1822 L1197.64 80.1822  Z" fill="#ffffff" fill-rule="evenodd" fill-opacity="1"/>
<polyline clip-path="url(#clip280)" style="stroke:#000000; stroke-linecap:round; stroke-linejoin:round; stroke-width:4; stroke-opacity:1; fill:none" points="1197.64,436.582 1894.08,436.582 1894.08,80.1822 1197.64,80.1822 1197.64,436.582 "/>
<path clip-path="url(#clip280)" d="M1545.72 152.624 L1525.45 152.624 Q1525.93 162.141 1528.12 166.183 Q1530.86 171.148 1535.6 171.148 Q1540.38 171.148 1543.02 166.151 Q1545.34 161.759 1545.72 152.624 M1545.63 147.213 Q1544.74 138.174 1543.02 134.991 Q1540.28 129.962 1535.6 129.962 Q1530.73 129.962 1528.15 134.927 Q1526.12 138.938 1525.51 147.213 L1545.63 147.213 M1535.6 125.188 Q1543.24 125.188 1547.6 131.935 Q1551.96 138.651 1551.96 150.555 Q1551.96 162.427 1547.6 169.175 Q1543.24 175.954 1535.6 175.954 Q1527.93 175.954 1523.6 169.175 Q1519.24 162.427 1519.24 150.555 Q1519.24 138.651 1523.6 131.935 Q1527.93 125.188 1535.6 125.188 Z" fill="#000000" fill-rule="nonzero" fill-opacity="1" /><path clip-path="url(#clip280)" d="M1577.49 163.955 L1577.49 175.222 L1573.8 175.222 L1573.8 163.287 Q1573.8 160.39 1572.65 159.021 Q1571.51 157.621 1569.12 157.621 Q1566.29 157.621 1564.63 159.34 Q1562.98 161.027 1562.98 163.955 L1562.98 175.222 L1559.25 175.222 L1559.25 155.266 L1562.98 155.266 L1562.98 158.353 Q1564.22 156.539 1565.97 155.68 Q1567.75 154.788 1570.2 154.788 Q1572.62 154.788 1574.34 155.902 Q1576.06 156.984 1576.88 159.085 Q1578.25 156.889 1580.16 155.839 Q1582.1 154.788 1584.71 154.788 Q1588.25 154.788 1590.12 156.984 Q1592.03 159.149 1592.03 163.159 L1592.03 175.222 L1588.34 175.222 L1588.34 163.287 Q1588.34 160.422 1587.2 159.021 Q1586.05 157.621 1583.7 157.621 Q1580.83 157.621 1579.14 159.34 Q1577.49 161.027 1577.49 163.955 Z" fill="#000000" fill-rule="nonzero" fill-opacity="1" /><polyline clip-path="url(#clip280)" style="stroke:#009af9; stroke-linecap:round; stroke-linejoin:round; stroke-width:4; stroke-opacity:1; fill:none" points="1217.2,222.742 1334.55,222.742 "/>
<path clip-path="url(#clip280)" d="M1366.05 208.541 Q1362.44 208.541 1360.61 212.106 Q1358.81 215.647 1358.81 222.777 Q1358.81 229.883 1360.61 233.448 Q1362.44 236.99 1366.05 236.99 Q1369.69 236.99 1371.49 233.448 Q1373.32 229.883 1373.32 222.777 Q1373.32 215.647 1371.49 212.106 Q1369.69 208.541 1366.05 208.541 M1366.05 204.837 Q1371.86 204.837 1374.92 209.444 Q1378 214.027 1378 222.777 Q1378 231.504 1374.92 236.11 Q1371.86 240.694 1366.05 240.694 Q1360.24 240.694 1357.16 236.11 Q1354.11 231.504 1354.11 222.777 Q1354.11 214.027 1357.16 209.444 Q1360.24 204.837 1366.05 204.837 Z" fill="#000000" fill-rule="nonzero" fill-opacity="1" /><path clip-path="url(#clip280)" d="M1386.21 234.143 L1391.1 234.143 L1391.1 240.022 L1386.21 240.022 L1386.21 234.143 Z" fill="#000000" fill-rule="nonzero" fill-opacity="1" /><path clip-path="url(#clip280)" d="M1402.09 236.087 L1409.73 236.087 L1409.73 209.721 L1401.42 211.388 L1401.42 207.129 L1409.69 205.462 L1414.36 205.462 L1414.36 236.087 L1422 236.087 L1422 240.022 L1402.09 240.022 L1402.09 236.087 Z" fill="#000000" fill-rule="nonzero" fill-opacity="1" /><polyline clip-path="url(#clip280)" style="stroke:#e26f46; stroke-linecap:round; stroke-linejoin:round; stroke-width:4; stroke-opacity:1; fill:none" points="1217.2,294.022 1334.55,294.022 "/>
<path clip-path="url(#clip280)" d="M1354.78 307.367 L1362.42 307.367 L1362.42 281.001 L1354.11 282.668 L1354.11 278.409 L1362.37 276.742 L1367.05 276.742 L1367.05 307.367 L1374.69 307.367 L1374.69 311.302 L1354.78 311.302 L1354.78 307.367 Z" fill="#000000" fill-rule="nonzero" fill-opacity="1" /><path clip-path="url(#clip280)" d="M1384.13 305.423 L1389.01 305.423 L1389.01 311.302 L1384.13 311.302 L1384.13 305.423 Z" fill="#000000" fill-rule="nonzero" fill-opacity="1" /><path clip-path="url(#clip280)" d="M1399.25 276.742 L1417.6 276.742 L1417.6 280.677 L1403.53 280.677 L1403.53 289.15 Q1404.55 288.802 1405.57 288.64 Q1406.58 288.455 1407.6 288.455 Q1413.39 288.455 1416.77 291.626 Q1420.15 294.798 1420.15 300.214 Q1420.15 305.793 1416.68 308.895 Q1413.2 311.974 1406.89 311.974 Q1404.71 311.974 1402.44 311.603 Q1400.2 311.233 1397.79 310.492 L1397.79 305.793 Q1399.87 306.927 1402.09 307.483 Q1404.32 308.038 1406.79 308.038 Q1410.8 308.038 1413.14 305.932 Q1415.47 303.825 1415.47 300.214 Q1415.47 296.603 1413.14 294.497 Q1410.8 292.39 1406.79 292.39 Q1404.92 292.39 1403.04 292.807 Q1401.19 293.224 1399.25 294.103 L1399.25 276.742 Z" fill="#000000" fill-rule="nonzero" fill-opacity="1" /><path clip-path="url(#clip280)" d="M1428.18 276.742 L1450.4 276.742 L1450.4 278.733 L1437.86 311.302 L1432.97 311.302 L1444.78 280.677 L1428.18 280.677 L1428.18 276.742 Z" fill="#000000" fill-rule="nonzero" fill-opacity="1" /><path clip-path="url(#clip280)" d="M1469.52 279.821 Q1465.91 279.821 1464.08 283.386 Q1462.28 286.927 1462.28 294.057 Q1462.28 301.163 1464.08 304.728 Q1465.91 308.27 1469.52 308.27 Q1473.16 308.27 1474.96 304.728 Q1476.79 301.163 1476.79 294.057 Q1476.79 286.927 1474.96 283.386 Q1473.16 279.821 1469.52 279.821 M1469.52 276.117 Q1475.33 276.117 1478.39 280.724 Q1481.47 285.307 1481.47 294.057 Q1481.47 302.784 1478.39 307.39 Q1475.33 311.974 1469.52 311.974 Q1463.71 311.974 1460.63 307.39 Q1457.58 302.784 1457.58 294.057 Q1457.58 285.307 1460.63 280.724 Q1463.71 276.117 1469.52 276.117 Z" fill="#000000" fill-rule="nonzero" fill-opacity="1" /><path clip-path="url(#clip280)" d="M1488.5 276.742 L1510.73 276.742 L1510.73 278.733 L1498.18 311.302 L1493.3 311.302 L1505.1 280.677 L1488.5 280.677 L1488.5 276.742 Z" fill="#000000" fill-rule="nonzero" fill-opacity="1" /><path clip-path="url(#clip280)" d="M1519.99 310.585 L1519.99 306.325 Q1521.75 307.159 1523.55 307.599 Q1525.36 308.038 1527.09 308.038 Q1531.72 308.038 1534.15 304.937 Q1536.61 301.812 1536.95 295.469 Q1535.61 297.46 1533.55 298.525 Q1531.49 299.589 1528.99 299.589 Q1523.81 299.589 1520.77 296.464 Q1517.76 293.316 1517.76 287.876 Q1517.76 282.552 1520.91 279.335 Q1524.06 276.117 1529.29 276.117 Q1535.29 276.117 1538.44 280.724 Q1541.61 285.307 1541.61 294.057 Q1541.61 302.228 1537.72 307.112 Q1533.85 311.974 1527.3 311.974 Q1525.54 311.974 1523.74 311.626 Q1521.93 311.279 1519.99 310.585 M1529.29 295.932 Q1532.44 295.932 1534.27 293.779 Q1536.12 291.626 1536.12 287.876 Q1536.12 284.15 1534.27 281.997 Q1532.44 279.821 1529.29 279.821 Q1526.14 279.821 1524.29 281.997 Q1522.46 284.15 1522.46 287.876 Q1522.46 291.626 1524.29 293.779 Q1526.14 295.932 1529.29 295.932 Z" fill="#000000" fill-rule="nonzero" fill-opacity="1" /><path clip-path="url(#clip280)" d="M1560.59 292.159 Q1557.44 292.159 1555.59 294.312 Q1553.76 296.464 1553.76 300.214 Q1553.76 303.941 1555.59 306.117 Q1557.44 308.27 1560.59 308.27 Q1563.74 308.27 1565.56 306.117 Q1567.42 303.941 1567.42 300.214 Q1567.42 296.464 1565.56 294.312 Q1563.74 292.159 1560.59 292.159 M1569.87 277.506 L1569.87 281.765 Q1568.11 280.932 1566.31 280.492 Q1564.52 280.052 1562.76 280.052 Q1558.13 280.052 1555.68 283.177 Q1553.25 286.302 1552.9 292.622 Q1554.27 290.608 1556.33 289.543 Q1558.39 288.455 1560.87 288.455 Q1566.07 288.455 1569.08 291.626 Q1572.12 294.775 1572.12 300.214 Q1572.12 305.538 1568.97 308.756 Q1565.82 311.974 1560.59 311.974 Q1554.59 311.974 1551.42 307.39 Q1548.25 302.784 1548.25 294.057 Q1548.25 285.863 1552.14 281.001 Q1556.03 276.117 1562.58 276.117 Q1564.34 276.117 1566.12 276.464 Q1567.93 276.812 1569.87 277.506 Z" fill="#000000" fill-rule="nonzero" fill-opacity="1" /><path clip-path="url(#clip280)" d="M1594.34 292.668 Q1597.69 293.386 1599.57 295.654 Q1601.47 297.923 1601.47 301.256 Q1601.47 306.372 1597.95 309.173 Q1594.43 311.974 1587.95 311.974 Q1585.77 311.974 1583.46 311.534 Q1581.17 311.117 1578.71 310.261 L1578.71 305.747 Q1580.66 306.881 1582.97 307.46 Q1585.29 308.038 1587.81 308.038 Q1592.21 308.038 1594.5 306.302 Q1596.81 304.566 1596.81 301.256 Q1596.81 298.2 1594.66 296.487 Q1592.53 294.751 1588.71 294.751 L1584.69 294.751 L1584.69 290.909 L1588.9 290.909 Q1592.35 290.909 1594.18 289.543 Q1596 288.154 1596 285.562 Q1596 282.9 1594.11 281.488 Q1592.23 280.052 1588.71 280.052 Q1586.79 280.052 1584.59 280.469 Q1582.39 280.886 1579.75 281.765 L1579.75 277.599 Q1582.42 276.858 1584.73 276.488 Q1587.07 276.117 1589.13 276.117 Q1594.45 276.117 1597.56 278.548 Q1600.66 280.955 1600.66 285.076 Q1600.66 287.946 1599.01 289.937 Q1597.37 291.904 1594.34 292.668 Z" fill="#000000" fill-rule="nonzero" fill-opacity="1" /><path clip-path="url(#clip280)" d="M1614.36 307.367 L1630.68 307.367 L1630.68 311.302 L1608.74 311.302 L1608.74 307.367 Q1611.4 304.612 1615.98 299.983 Q1620.59 295.33 1621.77 293.987 Q1624.01 291.464 1624.89 289.728 Q1625.8 287.969 1625.8 286.279 Q1625.8 283.525 1623.85 281.788 Q1621.93 280.052 1618.83 280.052 Q1616.63 280.052 1614.18 280.816 Q1611.75 281.58 1608.97 283.131 L1608.97 278.409 Q1611.79 277.275 1614.25 276.696 Q1616.7 276.117 1618.74 276.117 Q1624.11 276.117 1627.3 278.802 Q1630.49 281.488 1630.49 285.978 Q1630.49 288.108 1629.68 290.029 Q1628.9 291.927 1626.79 294.52 Q1626.21 295.191 1623.11 298.409 Q1620.01 301.603 1614.36 307.367 Z" fill="#000000" fill-rule="nonzero" fill-opacity="1" /><path clip-path="url(#clip280)" d="M1651.07 292.159 Q1647.93 292.159 1646.07 294.312 Q1644.24 296.464 1644.24 300.214 Q1644.24 303.941 1646.07 306.117 Q1647.93 308.27 1651.07 308.27 Q1654.22 308.27 1656.05 306.117 Q1657.9 303.941 1657.9 300.214 Q1657.9 296.464 1656.05 294.312 Q1654.22 292.159 1651.07 292.159 M1660.36 277.506 L1660.36 281.765 Q1658.6 280.932 1656.79 280.492 Q1655.01 280.052 1653.25 280.052 Q1648.62 280.052 1646.17 283.177 Q1643.74 286.302 1643.39 292.622 Q1644.75 290.608 1646.81 289.543 Q1648.87 288.455 1651.35 288.455 Q1656.56 288.455 1659.57 291.626 Q1662.6 294.775 1662.6 300.214 Q1662.6 305.538 1659.45 308.756 Q1656.31 311.974 1651.07 311.974 Q1645.08 311.974 1641.91 307.39 Q1638.74 302.784 1638.74 294.057 Q1638.74 285.863 1642.62 281.001 Q1646.51 276.117 1653.06 276.117 Q1654.82 276.117 1656.61 276.464 Q1658.41 276.812 1660.36 277.506 Z" fill="#000000" fill-rule="nonzero" fill-opacity="1" /><path clip-path="url(#clip280)" d="M1669.48 276.742 L1691.7 276.742 L1691.7 278.733 L1679.15 311.302 L1674.27 311.302 L1686.07 280.677 L1669.48 280.677 L1669.48 276.742 Z" fill="#000000" fill-rule="nonzero" fill-opacity="1" /><path clip-path="url(#clip280)" d="M1700.96 310.585 L1700.96 306.325 Q1702.72 307.159 1704.52 307.599 Q1706.33 308.038 1708.06 308.038 Q1712.69 308.038 1715.12 304.937 Q1717.58 301.812 1717.93 295.469 Q1716.58 297.46 1714.52 298.525 Q1712.46 299.589 1709.96 299.589 Q1704.78 299.589 1701.74 296.464 Q1698.74 293.316 1698.74 287.876 Q1698.74 282.552 1701.88 279.335 Q1705.03 276.117 1710.26 276.117 Q1716.26 276.117 1719.41 280.724 Q1722.58 285.307 1722.58 294.057 Q1722.58 302.228 1718.69 307.112 Q1714.82 311.974 1708.27 311.974 Q1706.51 311.974 1704.71 311.626 Q1702.9 311.279 1700.96 310.585 M1710.26 295.932 Q1713.41 295.932 1715.24 293.779 Q1717.09 291.626 1717.09 287.876 Q1717.09 284.15 1715.24 281.997 Q1713.41 279.821 1710.26 279.821 Q1707.11 279.821 1705.26 281.997 Q1703.43 284.15 1703.43 287.876 Q1703.43 291.626 1705.26 293.779 Q1707.11 295.932 1710.26 295.932 Z" fill="#000000" fill-rule="nonzero" fill-opacity="1" /><path clip-path="url(#clip280)" d="M1743.83 280.816 L1732.02 299.265 L1743.83 299.265 L1743.83 280.816 M1742.6 276.742 L1748.48 276.742 L1748.48 299.265 L1753.41 299.265 L1753.41 303.154 L1748.48 303.154 L1748.48 311.302 L1743.83 311.302 L1743.83 303.154 L1728.23 303.154 L1728.23 298.64 L1742.6 276.742 Z" fill="#000000" fill-rule="nonzero" fill-opacity="1" /><path clip-path="url(#clip280)" d="M1771.14 294.89 Q1767.81 294.89 1765.89 296.673 Q1763.99 298.455 1763.99 301.58 Q1763.99 304.705 1765.89 306.487 Q1767.81 308.27 1771.14 308.27 Q1774.48 308.27 1776.4 306.487 Q1778.32 304.682 1778.32 301.58 Q1778.32 298.455 1776.4 296.673 Q1774.5 294.89 1771.14 294.89 M1766.47 292.9 Q1763.46 292.159 1761.77 290.099 Q1760.1 288.038 1760.1 285.076 Q1760.1 280.932 1763.04 278.525 Q1766 276.117 1771.14 276.117 Q1776.3 276.117 1779.24 278.525 Q1782.18 280.932 1782.18 285.076 Q1782.18 288.038 1780.49 290.099 Q1778.83 292.159 1775.84 292.9 Q1779.22 293.687 1781.1 295.978 Q1782.99 298.27 1782.99 301.58 Q1782.99 306.603 1779.92 309.288 Q1776.86 311.974 1771.14 311.974 Q1765.42 311.974 1762.35 309.288 Q1759.29 306.603 1759.29 301.58 Q1759.29 298.27 1761.19 295.978 Q1763.09 293.687 1766.47 292.9 M1764.75 285.515 Q1764.75 288.2 1766.42 289.705 Q1768.11 291.21 1771.14 291.21 Q1774.15 291.21 1775.84 289.705 Q1777.55 288.2 1777.55 285.515 Q1777.55 282.83 1775.84 281.326 Q1774.15 279.821 1771.14 279.821 Q1768.11 279.821 1766.42 281.326 Q1764.75 282.83 1764.75 285.515 Z" fill="#000000" fill-rule="nonzero" fill-opacity="1" /><path clip-path="url(#clip280)" d="M1791.44 310.585 L1791.44 306.325 Q1793.2 307.159 1795.01 307.599 Q1796.81 308.038 1798.55 308.038 Q1803.18 308.038 1805.61 304.937 Q1808.06 301.812 1808.41 295.469 Q1807.07 297.46 1805.01 298.525 Q1802.95 299.589 1800.45 299.589 Q1795.26 299.589 1792.23 296.464 Q1789.22 293.316 1789.22 287.876 Q1789.22 282.552 1792.37 279.335 Q1795.52 276.117 1800.75 276.117 Q1806.74 276.117 1809.89 280.724 Q1813.06 285.307 1813.06 294.057 Q1813.06 302.228 1809.17 307.112 Q1805.31 311.974 1798.76 311.974 Q1797 311.974 1795.19 311.626 Q1793.39 311.279 1791.44 310.585 M1800.75 295.932 Q1803.9 295.932 1805.73 293.779 Q1807.58 291.626 1807.58 287.876 Q1807.58 284.15 1805.73 281.997 Q1803.9 279.821 1800.75 279.821 Q1797.6 279.821 1795.75 281.997 Q1793.92 284.15 1793.92 287.876 Q1793.92 291.626 1795.75 293.779 Q1797.6 295.932 1800.75 295.932 Z" fill="#000000" fill-rule="nonzero" fill-opacity="1" /><path clip-path="url(#clip280)" d="M1832.04 292.159 Q1828.9 292.159 1827.04 294.312 Q1825.22 296.464 1825.22 300.214 Q1825.22 303.941 1827.04 306.117 Q1828.9 308.27 1832.04 308.27 Q1835.19 308.27 1837.02 306.117 Q1838.87 303.941 1838.87 300.214 Q1838.87 296.464 1837.02 294.312 Q1835.19 292.159 1832.04 292.159 M1841.33 277.506 L1841.33 281.765 Q1839.57 280.932 1837.76 280.492 Q1835.98 280.052 1834.22 280.052 Q1829.59 280.052 1827.14 283.177 Q1824.71 286.302 1824.36 292.622 Q1825.73 290.608 1827.79 289.543 Q1829.85 288.455 1832.32 288.455 Q1837.53 288.455 1840.54 291.626 Q1843.57 294.775 1843.57 300.214 Q1843.57 305.538 1840.42 308.756 Q1837.28 311.974 1832.04 311.974 Q1826.05 311.974 1822.88 307.39 Q1819.71 302.784 1819.71 294.057 Q1819.71 285.863 1823.6 281.001 Q1827.48 276.117 1834.04 276.117 Q1835.79 276.117 1837.58 276.464 Q1839.38 276.812 1841.33 277.506 Z" fill="#000000" fill-rule="nonzero" fill-opacity="1" /><path clip-path="url(#clip280)" d="M1862.21 292.159 Q1859.06 292.159 1857.21 294.312 Q1855.38 296.464 1855.38 300.214 Q1855.38 303.941 1857.21 306.117 Q1859.06 308.27 1862.21 308.27 Q1865.35 308.27 1867.18 306.117 Q1869.04 303.941 1869.04 300.214 Q1869.04 296.464 1867.18 294.312 Q1865.35 292.159 1862.21 292.159 M1871.49 277.506 L1871.49 281.765 Q1869.73 280.932 1867.92 280.492 Q1866.14 280.052 1864.38 280.052 Q1859.75 280.052 1857.3 283.177 Q1854.87 286.302 1854.52 292.622 Q1855.89 290.608 1857.95 289.543 Q1860.01 288.455 1862.48 288.455 Q1867.69 288.455 1870.7 291.626 Q1873.73 294.775 1873.73 300.214 Q1873.73 305.538 1870.59 308.756 Q1867.44 311.974 1862.21 311.974 Q1856.21 311.974 1853.04 307.39 Q1849.87 302.784 1849.87 294.057 Q1849.87 285.863 1853.76 281.001 Q1857.65 276.117 1864.2 276.117 Q1865.96 276.117 1867.74 276.464 Q1869.54 276.812 1871.49 277.506 Z" fill="#000000" fill-rule="nonzero" fill-opacity="1" /><polyline clip-path="url(#clip280)" style="stroke:#3da44d; stroke-linecap:round; stroke-linejoin:round; stroke-width:4; stroke-opacity:1; fill:none" points="1217.2,365.302 1334.55,365.302 "/>
<path clip-path="url(#clip280)" d="M1369.73 363.948 Q1373.09 364.666 1374.96 366.934 Q1376.86 369.203 1376.86 372.536 Q1376.86 377.652 1373.34 380.453 Q1369.83 383.254 1363.34 383.254 Q1361.17 383.254 1358.85 382.814 Q1356.56 382.397 1354.11 381.541 L1354.11 377.027 Q1356.05 378.161 1358.37 378.74 Q1360.68 379.318 1363.2 379.318 Q1367.6 379.318 1369.89 377.582 Q1372.21 375.846 1372.21 372.536 Q1372.21 369.48 1370.06 367.767 Q1367.93 366.031 1364.11 366.031 L1360.08 366.031 L1360.08 362.189 L1364.29 362.189 Q1367.74 362.189 1369.57 360.823 Q1371.4 359.434 1371.4 356.842 Q1371.4 354.18 1369.5 352.768 Q1367.63 351.332 1364.11 351.332 Q1362.19 351.332 1359.99 351.749 Q1357.79 352.166 1355.15 353.045 L1355.15 348.879 Q1357.81 348.138 1360.13 347.768 Q1362.46 347.397 1364.52 347.397 Q1369.85 347.397 1372.95 349.828 Q1376.05 352.235 1376.05 356.356 Q1376.05 359.226 1374.41 361.217 Q1372.76 363.184 1369.73 363.948 Z" fill="#000000" fill-rule="nonzero" fill-opacity="1" /><path clip-path="url(#clip280)" d="M1385.73 376.703 L1390.61 376.703 L1390.61 382.582 L1385.73 382.582 L1385.73 376.703 Z" fill="#000000" fill-rule="nonzero" fill-opacity="1" /><path clip-path="url(#clip280)" d="M1401.61 378.647 L1409.25 378.647 L1409.25 352.281 L1400.94 353.948 L1400.94 349.689 L1409.2 348.022 L1413.88 348.022 L1413.88 378.647 L1421.51 378.647 L1421.51 382.582 L1401.61 382.582 L1401.61 378.647 Z" fill="#000000" fill-rule="nonzero" fill-opacity="1" /><path clip-path="url(#clip280)" d="M1445.13 363.948 Q1448.48 364.666 1450.36 366.934 Q1452.26 369.203 1452.26 372.536 Q1452.26 377.652 1448.74 380.453 Q1445.22 383.254 1438.74 383.254 Q1436.56 383.254 1434.25 382.814 Q1431.95 382.397 1429.5 381.541 L1429.5 377.027 Q1431.45 378.161 1433.76 378.74 Q1436.07 379.318 1438.6 379.318 Q1443 379.318 1445.29 377.582 Q1447.6 375.846 1447.6 372.536 Q1447.6 369.48 1445.45 367.767 Q1443.32 366.031 1439.5 366.031 L1435.47 366.031 L1435.47 362.189 L1439.69 362.189 Q1443.13 362.189 1444.96 360.823 Q1446.79 359.434 1446.79 356.842 Q1446.79 354.18 1444.89 352.768 Q1443.02 351.332 1439.5 351.332 Q1437.58 351.332 1435.38 351.749 Q1433.18 352.166 1430.54 353.045 L1430.54 348.879 Q1433.2 348.138 1435.52 347.768 Q1437.86 347.397 1439.92 347.397 Q1445.24 347.397 1448.34 349.828 Q1451.44 352.235 1451.44 356.356 Q1451.44 359.226 1449.8 361.217 Q1448.16 363.184 1445.13 363.948 Z" fill="#000000" fill-rule="nonzero" fill-opacity="1" /><path clip-path="url(#clip280)" d="M1461.93 378.647 L1469.57 378.647 L1469.57 352.281 L1461.26 353.948 L1461.26 349.689 L1469.52 348.022 L1474.2 348.022 L1474.2 378.647 L1481.84 378.647 L1481.84 382.582 L1461.93 382.582 L1461.93 378.647 Z" fill="#000000" fill-rule="nonzero" fill-opacity="1" /><path clip-path="url(#clip280)" d="M1491.33 348.022 L1509.69 348.022 L1509.69 351.957 L1495.61 351.957 L1495.61 360.43 Q1496.63 360.082 1497.65 359.92 Q1498.67 359.735 1499.69 359.735 Q1505.47 359.735 1508.85 362.906 Q1512.23 366.078 1512.23 371.494 Q1512.23 377.073 1508.76 380.175 Q1505.29 383.254 1498.97 383.254 Q1496.79 383.254 1494.52 382.883 Q1492.28 382.513 1489.87 381.772 L1489.87 377.073 Q1491.95 378.207 1494.18 378.763 Q1496.4 379.318 1498.88 379.318 Q1502.88 379.318 1505.22 377.212 Q1507.56 375.105 1507.56 371.494 Q1507.56 367.883 1505.22 365.777 Q1502.88 363.67 1498.88 363.67 Q1497 363.67 1495.13 364.087 Q1493.27 364.504 1491.33 365.383 L1491.33 348.022 Z" fill="#000000" fill-rule="nonzero" fill-opacity="1" /><path clip-path="url(#clip280)" d="M1521.58 381.865 L1521.58 377.605 Q1523.34 378.439 1525.15 378.879 Q1526.95 379.318 1528.69 379.318 Q1533.32 379.318 1535.75 376.217 Q1538.2 373.092 1538.55 366.749 Q1537.21 368.74 1535.15 369.805 Q1533.09 370.869 1530.59 370.869 Q1525.4 370.869 1522.37 367.744 Q1519.36 364.596 1519.36 359.156 Q1519.36 353.832 1522.51 350.615 Q1525.66 347.397 1530.89 347.397 Q1536.88 347.397 1540.03 352.004 Q1543.2 356.587 1543.2 365.337 Q1543.2 373.508 1539.31 378.392 Q1535.45 383.254 1528.9 383.254 Q1527.14 383.254 1525.33 382.906 Q1523.53 382.559 1521.58 381.865 M1530.89 367.212 Q1534.04 367.212 1535.87 365.059 Q1537.72 362.906 1537.72 359.156 Q1537.72 355.43 1535.87 353.277 Q1534.04 351.101 1530.89 351.101 Q1527.74 351.101 1525.89 353.277 Q1524.06 355.43 1524.06 359.156 Q1524.06 362.906 1525.89 365.059 Q1527.74 367.212 1530.89 367.212 Z" fill="#000000" fill-rule="nonzero" fill-opacity="1" /><path clip-path="url(#clip280)" d="M1555.63 378.647 L1571.95 378.647 L1571.95 382.582 L1550.01 382.582 L1550.01 378.647 Q1552.67 375.892 1557.25 371.263 Q1561.86 366.61 1563.04 365.267 Q1565.29 362.744 1566.17 361.008 Q1567.07 359.249 1567.07 357.559 Q1567.07 354.805 1565.12 353.068 Q1563.2 351.332 1560.1 351.332 Q1557.9 351.332 1555.45 352.096 Q1553.02 352.86 1550.24 354.411 L1550.24 349.689 Q1553.06 348.555 1555.52 347.976 Q1557.97 347.397 1560.01 347.397 Q1565.38 347.397 1568.57 350.082 Q1571.77 352.768 1571.77 357.258 Q1571.77 359.388 1570.96 361.309 Q1570.17 363.207 1568.06 365.8 Q1567.49 366.471 1564.38 369.689 Q1561.28 372.883 1555.63 378.647 Z" fill="#000000" fill-rule="nonzero" fill-opacity="1" /><path clip-path="url(#clip280)" d="M1592.35 363.439 Q1589.2 363.439 1587.35 365.592 Q1585.52 367.744 1585.52 371.494 Q1585.52 375.221 1587.35 377.397 Q1589.2 379.55 1592.35 379.55 Q1595.5 379.55 1597.32 377.397 Q1599.18 375.221 1599.18 371.494 Q1599.18 367.744 1597.32 365.592 Q1595.5 363.439 1592.35 363.439 M1601.63 348.786 L1601.63 353.045 Q1599.87 352.212 1598.06 351.772 Q1596.28 351.332 1594.52 351.332 Q1589.89 351.332 1587.44 354.457 Q1585.01 357.582 1584.66 363.902 Q1586.03 361.888 1588.09 360.823 Q1590.15 359.735 1592.62 359.735 Q1597.83 359.735 1600.84 362.906 Q1603.87 366.055 1603.87 371.494 Q1603.87 376.818 1600.73 380.036 Q1597.58 383.254 1592.35 383.254 Q1586.35 383.254 1583.18 378.67 Q1580.01 374.064 1580.01 365.337 Q1580.01 357.143 1583.9 352.281 Q1587.79 347.397 1594.34 347.397 Q1596.1 347.397 1597.88 347.744 Q1599.68 348.092 1601.63 348.786 Z" fill="#000000" fill-rule="nonzero" fill-opacity="1" /><path clip-path="url(#clip280)" d="M1611.98 348.022 L1630.33 348.022 L1630.33 351.957 L1616.26 351.957 L1616.26 360.43 Q1617.28 360.082 1618.3 359.92 Q1619.31 359.735 1620.33 359.735 Q1626.12 359.735 1629.5 362.906 Q1632.88 366.078 1632.88 371.494 Q1632.88 377.073 1629.41 380.175 Q1625.93 383.254 1619.62 383.254 Q1617.44 383.254 1615.17 382.883 Q1612.93 382.513 1610.52 381.772 L1610.52 377.073 Q1612.6 378.207 1614.82 378.763 Q1617.05 379.318 1619.52 379.318 Q1623.53 379.318 1625.87 377.212 Q1628.2 375.105 1628.2 371.494 Q1628.2 367.883 1625.87 365.777 Q1623.53 363.67 1619.52 363.67 Q1617.65 363.67 1615.77 364.087 Q1613.92 364.504 1611.98 365.383 L1611.98 348.022 Z" fill="#000000" fill-rule="nonzero" fill-opacity="1" /><path clip-path="url(#clip280)" d="M1656.26 363.948 Q1659.62 364.666 1661.49 366.934 Q1663.39 369.203 1663.39 372.536 Q1663.39 377.652 1659.87 380.453 Q1656.35 383.254 1649.87 383.254 Q1647.69 383.254 1645.38 382.814 Q1643.09 382.397 1640.63 381.541 L1640.63 377.027 Q1642.58 378.161 1644.89 378.74 Q1647.21 379.318 1649.73 379.318 Q1654.13 379.318 1656.42 377.582 Q1658.74 375.846 1658.74 372.536 Q1658.74 369.48 1656.58 367.767 Q1654.45 366.031 1650.63 366.031 L1646.61 366.031 L1646.61 362.189 L1650.82 362.189 Q1654.27 362.189 1656.1 360.823 Q1657.93 359.434 1657.93 356.842 Q1657.93 354.18 1656.03 352.768 Q1654.15 351.332 1650.63 351.332 Q1648.71 351.332 1646.51 351.749 Q1644.31 352.166 1641.68 353.045 L1641.68 348.879 Q1644.34 348.138 1646.65 347.768 Q1648.99 347.397 1651.05 347.397 Q1656.37 347.397 1659.48 349.828 Q1662.58 352.235 1662.58 356.356 Q1662.58 359.226 1660.93 361.217 Q1659.29 363.184 1656.26 363.948 Z" fill="#000000" fill-rule="nonzero" fill-opacity="1" /><path clip-path="url(#clip280)" d="M1672.3 348.022 L1690.66 348.022 L1690.66 351.957 L1676.58 351.957 L1676.58 360.43 Q1677.6 360.082 1678.62 359.92 Q1679.64 359.735 1680.66 359.735 Q1686.44 359.735 1689.82 362.906 Q1693.2 366.078 1693.2 371.494 Q1693.2 377.073 1689.73 380.175 Q1686.26 383.254 1679.94 383.254 Q1677.76 383.254 1675.49 382.883 Q1673.25 382.513 1670.84 381.772 L1670.84 377.073 Q1672.93 378.207 1675.15 378.763 Q1677.37 379.318 1679.85 379.318 Q1683.85 379.318 1686.19 377.212 Q1688.53 375.105 1688.53 371.494 Q1688.53 367.883 1686.19 365.777 Q1683.85 363.67 1679.85 363.67 Q1677.97 363.67 1676.1 364.087 Q1674.24 364.504 1672.3 365.383 L1672.3 348.022 Z" fill="#000000" fill-rule="nonzero" fill-opacity="1" /><path clip-path="url(#clip280)" d="M1712.42 366.17 Q1709.08 366.17 1707.16 367.953 Q1705.26 369.735 1705.26 372.86 Q1705.26 375.985 1707.16 377.767 Q1709.08 379.55 1712.42 379.55 Q1715.75 379.55 1717.67 377.767 Q1719.59 375.962 1719.59 372.86 Q1719.59 369.735 1717.67 367.953 Q1715.77 366.17 1712.42 366.17 M1707.74 364.18 Q1704.73 363.439 1703.04 361.379 Q1701.37 359.318 1701.37 356.356 Q1701.37 352.212 1704.31 349.805 Q1707.28 347.397 1712.42 347.397 Q1717.58 347.397 1720.52 349.805 Q1723.46 352.212 1723.46 356.356 Q1723.46 359.318 1721.77 361.379 Q1720.1 363.439 1717.11 364.18 Q1720.49 364.967 1722.37 367.258 Q1724.27 369.55 1724.27 372.86 Q1724.27 377.883 1721.19 380.568 Q1718.13 383.254 1712.42 383.254 Q1706.7 383.254 1703.62 380.568 Q1700.56 377.883 1700.56 372.86 Q1700.56 369.55 1702.46 367.258 Q1704.36 364.967 1707.74 364.18 M1706.03 356.795 Q1706.03 359.48 1707.69 360.985 Q1709.38 362.49 1712.42 362.49 Q1715.43 362.49 1717.11 360.985 Q1718.83 359.48 1718.83 356.795 Q1718.83 354.11 1717.11 352.606 Q1715.43 351.101 1712.42 351.101 Q1709.38 351.101 1707.69 352.606 Q1706.03 354.11 1706.03 356.795 Z" fill="#000000" fill-rule="nonzero" fill-opacity="1" /><path clip-path="url(#clip280)" d="M1732.72 381.865 L1732.72 377.605 Q1734.48 378.439 1736.28 378.879 Q1738.09 379.318 1739.82 379.318 Q1744.45 379.318 1746.88 376.217 Q1749.34 373.092 1749.68 366.749 Q1748.34 368.74 1746.28 369.805 Q1744.22 370.869 1741.72 370.869 Q1736.54 370.869 1733.5 367.744 Q1730.49 364.596 1730.49 359.156 Q1730.49 353.832 1733.64 350.615 Q1736.79 347.397 1742.02 347.397 Q1748.02 347.397 1751.17 352.004 Q1754.34 356.587 1754.34 365.337 Q1754.34 373.508 1750.45 378.392 Q1746.58 383.254 1740.03 383.254 Q1738.27 383.254 1736.47 382.906 Q1734.66 382.559 1732.72 381.865 M1742.02 367.212 Q1745.17 367.212 1747 365.059 Q1748.85 362.906 1748.85 359.156 Q1748.85 355.43 1747 353.277 Q1745.17 351.101 1742.02 351.101 Q1738.87 351.101 1737.02 353.277 Q1735.19 355.43 1735.19 359.156 Q1735.19 362.906 1737.02 365.059 Q1738.87 367.212 1742.02 367.212 Z" fill="#000000" fill-rule="nonzero" fill-opacity="1" /><path clip-path="url(#clip280)" d="M1761.56 348.022 L1783.78 348.022 L1783.78 350.013 L1771.23 382.582 L1766.35 382.582 L1778.16 351.957 L1761.56 351.957 L1761.56 348.022 Z" fill="#000000" fill-rule="nonzero" fill-opacity="1" /><path clip-path="url(#clip280)" d="M1793.04 381.865 L1793.04 377.605 Q1794.8 378.439 1796.61 378.879 Q1798.41 379.318 1800.15 379.318 Q1804.78 379.318 1807.21 376.217 Q1809.66 373.092 1810.01 366.749 Q1808.67 368.74 1806.61 369.805 Q1804.54 370.869 1802.04 370.869 Q1796.86 370.869 1793.83 367.744 Q1790.82 364.596 1790.82 359.156 Q1790.82 353.832 1793.97 350.615 Q1797.11 347.397 1802.35 347.397 Q1808.34 347.397 1811.49 352.004 Q1814.66 356.587 1814.66 365.337 Q1814.66 373.508 1810.77 378.392 Q1806.91 383.254 1800.36 383.254 Q1798.6 383.254 1796.79 382.906 Q1794.98 382.559 1793.04 381.865 M1802.35 367.212 Q1805.49 367.212 1807.32 365.059 Q1809.17 362.906 1809.17 359.156 Q1809.17 355.43 1807.32 353.277 Q1805.49 351.101 1802.35 351.101 Q1799.2 351.101 1797.35 353.277 Q1795.52 355.43 1795.52 359.156 Q1795.52 362.906 1797.35 365.059 Q1799.2 367.212 1802.35 367.212 Z" fill="#000000" fill-rule="nonzero" fill-opacity="1" /><path clip-path="url(#clip280)" d="M1837.23 363.948 Q1840.59 364.666 1842.46 366.934 Q1844.36 369.203 1844.36 372.536 Q1844.36 377.652 1840.84 380.453 Q1837.32 383.254 1830.84 383.254 Q1828.67 383.254 1826.35 382.814 Q1824.06 382.397 1821.61 381.541 L1821.61 377.027 Q1823.55 378.161 1825.86 378.74 Q1828.18 379.318 1830.7 379.318 Q1835.1 379.318 1837.39 377.582 Q1839.71 375.846 1839.71 372.536 Q1839.71 369.48 1837.55 367.767 Q1835.42 366.031 1831.6 366.031 L1827.58 366.031 L1827.58 362.189 L1831.79 362.189 Q1835.24 362.189 1837.07 360.823 Q1838.9 359.434 1838.9 356.842 Q1838.9 354.18 1837 352.768 Q1835.12 351.332 1831.6 351.332 Q1829.68 351.332 1827.48 351.749 Q1825.29 352.166 1822.65 353.045 L1822.65 348.879 Q1825.31 348.138 1827.62 347.768 Q1829.96 347.397 1832.02 347.397 Q1837.35 347.397 1840.45 349.828 Q1843.55 352.235 1843.55 356.356 Q1843.55 359.226 1841.91 361.217 Q1840.26 363.184 1837.23 363.948 Z" fill="#000000" fill-rule="nonzero" fill-opacity="1" /><path clip-path="url(#clip280)" d="M1867.39 363.948 Q1870.75 364.666 1872.62 366.934 Q1874.52 369.203 1874.52 372.536 Q1874.52 377.652 1871 380.453 Q1867.48 383.254 1861 383.254 Q1858.83 383.254 1856.51 382.814 Q1854.22 382.397 1851.77 381.541 L1851.77 377.027 Q1853.71 378.161 1856.03 378.74 Q1858.34 379.318 1860.86 379.318 Q1865.26 379.318 1867.55 377.582 Q1869.87 375.846 1869.87 372.536 Q1869.87 369.48 1867.72 367.767 Q1865.59 366.031 1861.77 366.031 L1857.74 366.031 L1857.74 362.189 L1861.95 362.189 Q1865.4 362.189 1867.23 360.823 Q1869.06 359.434 1869.06 356.842 Q1869.06 354.18 1867.16 352.768 Q1865.29 351.332 1861.77 351.332 Q1859.85 351.332 1857.65 351.749 Q1855.45 352.166 1852.81 353.045 L1852.81 348.879 Q1855.47 348.138 1857.79 347.768 Q1860.12 347.397 1862.18 347.397 Q1867.51 347.397 1870.61 349.828 Q1873.71 352.235 1873.71 356.356 Q1873.71 359.226 1872.07 361.217 Q1870.42 363.184 1867.39 363.948 Z" fill="#000000" fill-rule="nonzero" fill-opacity="1" /></svg>