<?xml version="1.0" encoding="utf-8"?>
<svg xmlns="http://www.w3.org/2000/svg" xmlns:xlink="http://www.w3.org/1999/xlink" width="600" height="400" viewBox="0 0 2400 1600">
<defs>
  <clipPath id="clip970">
    <rect x="0" y="0" width="2400" height="1600"/>
  </clipPath>
</defs>
<path clip-path="url(#clip970)" d="M0 1600 L2400 1600 L2400 8.88178e-14 L0 8.88178e-14  Z" fill="#ffffff" fill-rule="evenodd" fill-opacity="1"/>
<defs>
  <clipPath id="clip971">
    <rect x="480" y="0" width="1681" height="1600"/>
  </clipPath>
</defs>
<path clip-path="url(#clip970)" d="M242.135 1423.18 L2352.76 1423.18 L2352.76 47.2441 L242.135 47.2441  Z" fill="#ffffff" fill-rule="evenodd" fill-opacity="1"/>
<defs>
  <clipPath id="clip972">
    <rect x="242" y="47" width="2112" height="1377"/>
  </clipPath>
</defs>
<polyline clip-path="url(#clip972)" style="stroke:#000000; stroke-linecap:round; stroke-linejoin:round; stroke-width:2; stroke-opacity:0.1; fill:none" points="301.869,1423.18 301.869,47.2441 "/>
<polyline clip-path="url(#clip972)" style="stroke:#000000; stroke-linecap:round; stroke-linejoin:round; stroke-width:2; stroke-opacity:0.1; fill:none" points="700.1,1423.18 700.1,47.2441 "/>
<polyline clip-path="url(#clip972)" style="stroke:#000000; stroke-linecap:round; stroke-linejoin:round; stroke-width:2; stroke-opacity:0.1; fill:none" points="1098.33,1423.18 1098.33,47.2441 "/>
<polyline clip-path="url(#clip972)" style="stroke:#000000; stroke-linecap:round; stroke-linejoin:round; stroke-width:2; stroke-opacity:0.1; fill:none" points="1496.56,1423.18 1496.56,47.2441 "/>
<polyline clip-path="url(#clip972)" style="stroke:#000000; stroke-linecap:round; stroke-linejoin:round; stroke-width:2; stroke-opacity:0.1; fill:none" points="1894.79,1423.18 1894.79,47.2441 "/>
<polyline clip-path="url(#clip972)" style="stroke:#000000; stroke-linecap:round; stroke-linejoin:round; stroke-width:2; stroke-opacity:0.1; fill:none" points="2293.02,1423.18 2293.02,47.2441 "/>
<polyline clip-path="url(#clip970)" style="stroke:#000000; stroke-linecap:round; stroke-linejoin:round; stroke-width:4; stroke-opacity:1; fill:none" points="242.135,1423.18 2352.76,1423.18 "/>
<polyline clip-path="url(#clip970)" style="stroke:#000000; stroke-linecap:round; stroke-linejoin:round; stroke-width:4; stroke-opacity:1; fill:none" points="301.869,1423.18 301.869,1404.28 "/>
<polyline clip-path="url(#clip970)" style="stroke:#000000; stroke-linecap:round; stroke-linejoin:round; stroke-width:4; stroke-opacity:1; fill:none" points="700.1,1423.18 700.1,1404.28 "/>
<polyline clip-path="url(#clip970)" style="stroke:#000000; stroke-linecap:round; stroke-linejoin:round; stroke-width:4; stroke-opacity:1; fill:none" points="1098.33,1423.18 1098.33,1404.28 "/>
<polyline clip-path="url(#clip970)" style="stroke:#000000; stroke-linecap:round; stroke-linejoin:round; stroke-width:4; stroke-opacity:1; fill:none" points="1496.56,1423.18 1496.56,1404.28 "/>
<polyline clip-path="url(#clip970)" style="stroke:#000000; stroke-linecap:round; stroke-linejoin:round; stroke-width:4; stroke-opacity:1; fill:none" points="1894.79,1423.18 1894.79,1404.28 "/>
<polyline clip-path="url(#clip970)" style="stroke:#000000; stroke-linecap:round; stroke-linejoin:round; stroke-width:4; stroke-opacity:1; fill:none" points="2293.02,1423.18 2293.02,1404.28 "/>
<path clip-path="url(#clip970)" d="M301.869 1454.1 Q298.258 1454.1 296.429 1457.66 Q294.624 1461.2 294.624 1468.33 Q294.624 1475.44 296.429 1479.01 Q298.258 1482.55 301.869 1482.55 Q305.503 1482.55 307.309 1479.01 Q309.138 1475.44 309.138 1468.33 Q309.138 1461.2 307.309 1457.66 Q305.503 1454.1 301.869 1454.1 M301.869 1450.39 Q307.679 1450.39 310.735 1455 Q313.814 1459.58 313.814 1468.33 Q313.814 1477.06 310.735 1481.67 Q307.679 1486.25 301.869 1486.25 Q296.059 1486.25 292.98 1481.67 Q289.925 1477.06 289.925 1468.33 Q289.925 1459.58 292.98 1455 Q296.059 1450.39 301.869 1450.39 Z" fill="#000000" fill-rule="nonzero" fill-opacity="1" /><path clip-path="url(#clip970)" d="M690.482 1481.64 L698.12 1481.64 L698.12 1455.28 L689.81 1456.95 L689.81 1452.69 L698.074 1451.02 L702.75 1451.02 L702.75 1481.64 L710.389 1481.64 L710.389 1485.58 L690.482 1485.58 L690.482 1481.64 Z" fill="#000000" fill-rule="nonzero" fill-opacity="1" /><path clip-path="url(#clip970)" d="M1092.98 1481.64 L1109.3 1481.64 L1109.3 1485.58 L1087.36 1485.58 L1087.36 1481.64 Q1090.02 1478.89 1094.6 1474.26 Q1099.21 1469.61 1100.39 1468.27 Q1102.64 1465.74 1103.52 1464.01 Q1104.42 1462.25 1104.42 1460.56 Q1104.42 1457.8 1102.47 1456.07 Q1100.55 1454.33 1097.45 1454.33 Q1095.25 1454.33 1092.8 1455.09 Q1090.37 1455.86 1087.59 1457.41 L1087.59 1452.69 Q1090.41 1451.55 1092.87 1450.97 Q1095.32 1450.39 1097.36 1450.39 Q1102.73 1450.39 1105.92 1453.08 Q1109.12 1455.77 1109.12 1460.26 Q1109.12 1462.39 1108.31 1464.31 Q1107.52 1466.2 1105.41 1468.8 Q1104.83 1469.47 1101.73 1472.69 Q1098.63 1475.88 1092.98 1481.64 Z" fill="#000000" fill-rule="nonzero" fill-opacity="1" /><path clip-path="url(#clip970)" d="M1500.81 1466.95 Q1504.16 1467.66 1506.04 1469.93 Q1507.94 1472.2 1507.94 1475.53 Q1507.94 1480.65 1504.42 1483.45 Q1500.9 1486.25 1494.42 1486.25 Q1492.24 1486.25 1489.93 1485.81 Q1487.64 1485.39 1485.18 1484.54 L1485.18 1480.02 Q1487.13 1481.16 1489.44 1481.74 Q1491.76 1482.32 1494.28 1482.32 Q1498.68 1482.32 1500.97 1480.58 Q1503.28 1478.84 1503.28 1475.53 Q1503.28 1472.48 1501.13 1470.77 Q1499 1469.03 1495.18 1469.03 L1491.16 1469.03 L1491.16 1465.19 L1495.37 1465.19 Q1498.82 1465.19 1500.65 1463.82 Q1502.47 1462.43 1502.47 1459.84 Q1502.47 1457.18 1500.58 1455.77 Q1498.7 1454.33 1495.18 1454.33 Q1493.26 1454.33 1491.06 1454.75 Q1488.86 1455.16 1486.22 1456.04 L1486.22 1451.88 Q1488.89 1451.14 1491.2 1450.77 Q1493.54 1450.39 1495.6 1450.39 Q1500.92 1450.39 1504.03 1452.83 Q1507.13 1455.23 1507.13 1459.35 Q1507.13 1462.22 1505.48 1464.21 Q1503.84 1466.18 1500.81 1466.95 Z" fill="#000000" fill-rule="nonzero" fill-opacity="1" /><path clip-path="url(#clip970)" d="M1897.8 1455.09 L1885.99 1473.54 L1897.8 1473.54 L1897.8 1455.09 M1896.57 1451.02 L1902.45 1451.02 L1902.45 1473.54 L1907.38 1473.54 L1907.38 1477.43 L1902.45 1477.43 L1902.45 1485.58 L1897.8 1485.58 L1897.8 1477.43 L1882.2 1477.43 L1882.2 1472.92 L1896.57 1451.02 Z" fill="#000000" fill-rule="nonzero" fill-opacity="1" /><path clip-path="url(#clip970)" d="M2283.3 1451.02 L2301.66 1451.02 L2301.66 1454.96 L2287.58 1454.96 L2287.58 1463.43 Q2288.6 1463.08 2289.62 1462.92 Q2290.64 1462.73 2291.66 1462.73 Q2297.44 1462.73 2300.82 1465.9 Q2304.2 1469.08 2304.2 1474.49 Q2304.2 1480.07 2300.73 1483.17 Q2297.26 1486.25 2290.94 1486.25 Q2288.76 1486.25 2286.49 1485.88 Q2284.25 1485.51 2281.84 1484.77 L2281.84 1480.07 Q2283.92 1481.2 2286.15 1481.76 Q2288.37 1482.32 2290.85 1482.32 Q2294.85 1482.32 2297.19 1480.21 Q2299.53 1478.1 2299.53 1474.49 Q2299.53 1470.88 2297.19 1468.77 Q2294.85 1466.67 2290.85 1466.67 Q2288.97 1466.67 2287.1 1467.08 Q2285.24 1467.5 2283.3 1468.38 L2283.3 1451.02 Z" fill="#000000" fill-rule="nonzero" fill-opacity="1" /><path clip-path="url(#clip970)" d="M1296.51 1522.27 L1296.51 1532.4 L1308.57 1532.4 L1308.57 1536.95 L1296.51 1536.95 L1296.51 1556.3 Q1296.51 1560.66 1297.68 1561.9 Q1298.89 1563.14 1302.55 1563.14 L1308.57 1563.14 L1308.57 1568.04 L1302.55 1568.04 Q1295.77 1568.04 1293.2 1565.53 Q1290.62 1562.98 1290.62 1556.3 L1290.62 1536.95 L1286.32 1536.95 L1286.32 1532.4 L1290.62 1532.4 L1290.62 1522.27 L1296.51 1522.27 Z" fill="#000000" fill-rule="nonzero" fill-opacity="1" /><polyline clip-path="url(#clip972)" style="stroke:#000000; stroke-linecap:round; stroke-linejoin:round; stroke-width:2; stroke-opacity:0.1; fill:none" points="242.135,1384.24 2352.76,1384.24 "/>
<polyline clip-path="url(#clip972)" style="stroke:#000000; stroke-linecap:round; stroke-linejoin:round; stroke-width:2; stroke-opacity:0.1; fill:none" points="242.135,1124.63 2352.76,1124.63 "/>
<polyline clip-path="url(#clip972)" style="stroke:#000000; stroke-linecap:round; stroke-linejoin:round; stroke-width:2; stroke-opacity:0.1; fill:none" points="242.135,865.017 2352.76,865.017 "/>
<polyline clip-path="url(#clip972)" style="stroke:#000000; stroke-linecap:round; stroke-linejoin:round; stroke-width:2; stroke-opacity:0.1; fill:none" points="242.135,605.407 2352.76,605.407 "/>
<polyline clip-path="url(#clip972)" style="stroke:#000000; stroke-linecap:round; stroke-linejoin:round; stroke-width:2; stroke-opacity:0.1; fill:none" points="242.135,345.796 2352.76,345.796 "/>
<polyline clip-path="url(#clip972)" style="stroke:#000000; stroke-linecap:round; stroke-linejoin:round; stroke-width:2; stroke-opacity:0.1; fill:none" points="242.135,86.1857 2352.76,86.1857 "/>
<polyline clip-path="url(#clip970)" style="stroke:#000000; stroke-linecap:round; stroke-linejoin:round; stroke-width:4; stroke-opacity:1; fill:none" points="242.135,1423.18 242.135,47.2441 "/>
<polyline clip-path="url(#clip970)" style="stroke:#000000; stroke-linecap:round; stroke-linejoin:round; stroke-width:4; stroke-opacity:1; fill:none" points="242.135,1384.24 261.032,1384.24 "/>
<polyline clip-path="url(#clip970)" style="stroke:#000000; stroke-linecap:round; stroke-linejoin:round; stroke-width:4; stroke-opacity:1; fill:none" points="242.135,1124.63 261.032,1124.63 "/>
<polyline clip-path="url(#clip970)" style="stroke:#000000; stroke-linecap:round; stroke-linejoin:round; stroke-width:4; stroke-opacity:1; fill:none" points="242.135,865.017 261.032,865.017 "/>
<polyline clip-path="url(#clip970)" style="stroke:#000000; stroke-linecap:round; stroke-linejoin:round; stroke-width:4; stroke-opacity:1; fill:none" points="242.135,605.407 261.032,605.407 "/>
<polyline clip-path="url(#clip970)" style="stroke:#000000; stroke-linecap:round; stroke-linejoin:round; stroke-width:4; stroke-opacity:1; fill:none" points="242.135,345.796 261.032,345.796 "/>
<polyline clip-path="url(#clip970)" style="stroke:#000000; stroke-linecap:round; stroke-linejoin:round; stroke-width:4; stroke-opacity:1; fill:none" points="242.135,86.1857 261.032,86.1857 "/>
<path clip-path="url(#clip970)" d="M115.256 1384.69 L144.931 1384.69 L144.931 1388.62 L115.256 1388.62 L115.256 1384.69 Z" fill="#000000" fill-rule="nonzero" fill-opacity="1" /><path clip-path="url(#clip970)" d="M155.834 1397.58 L163.473 1397.58 L163.473 1371.22 L155.163 1372.88 L155.163 1368.62 L163.427 1366.96 L168.102 1366.96 L168.102 1397.58 L175.741 1397.58 L175.741 1401.52 L155.834 1401.52 L155.834 1397.58 Z" fill="#000000" fill-rule="nonzero" fill-opacity="1" /><path clip-path="url(#clip970)" d="M185.232 1366.96 L203.588 1366.96 L203.588 1370.89 L189.514 1370.89 L189.514 1379.37 Q190.533 1379.02 191.551 1378.86 Q192.57 1378.67 193.588 1378.67 Q199.375 1378.67 202.755 1381.84 Q206.135 1385.01 206.135 1390.43 Q206.135 1396.01 202.662 1399.11 Q199.19 1402.19 192.871 1402.19 Q190.695 1402.19 188.426 1401.82 Q186.181 1401.45 183.774 1400.71 L183.774 1396.01 Q185.857 1397.14 188.079 1397.7 Q190.301 1398.25 192.778 1398.25 Q196.783 1398.25 199.121 1396.15 Q201.459 1394.04 201.459 1390.43 Q201.459 1386.82 199.121 1384.71 Q196.783 1382.61 192.778 1382.61 Q190.903 1382.61 189.028 1383.02 Q187.176 1383.44 185.232 1384.32 L185.232 1366.96 Z" fill="#000000" fill-rule="nonzero" fill-opacity="1" /><path clip-path="url(#clip970)" d="M114.26 1125.08 L143.936 1125.08 L143.936 1129.01 L114.26 1129.01 L114.26 1125.08 Z" fill="#000000" fill-rule="nonzero" fill-opacity="1" /><path clip-path="url(#clip970)" d="M154.839 1137.97 L162.477 1137.97 L162.477 1111.61 L154.167 1113.27 L154.167 1109.01 L162.431 1107.35 L167.107 1107.35 L167.107 1137.97 L174.746 1137.97 L174.746 1141.91 L154.839 1141.91 L154.839 1137.97 Z" fill="#000000" fill-rule="nonzero" fill-opacity="1" /><path clip-path="url(#clip970)" d="M194.19 1110.43 Q190.579 1110.43 188.75 1113.99 Q186.945 1117.53 186.945 1124.66 Q186.945 1131.77 188.75 1135.33 Q190.579 1138.88 194.19 1138.88 Q197.825 1138.88 199.63 1135.33 Q201.459 1131.77 201.459 1124.66 Q201.459 1117.53 199.63 1113.99 Q197.825 1110.43 194.19 1110.43 M194.19 1106.72 Q200 1106.72 203.056 1111.33 Q206.135 1115.91 206.135 1124.66 Q206.135 1133.39 203.056 1138 Q200 1142.58 194.19 1142.58 Q188.38 1142.58 185.301 1138 Q182.246 1133.39 182.246 1124.66 Q182.246 1115.91 185.301 1111.33 Q188.38 1106.72 194.19 1106.72 Z" fill="#000000" fill-rule="nonzero" fill-opacity="1" /><path clip-path="url(#clip970)" d="M145.417 865.469 L175.093 865.469 L175.093 869.404 L145.417 869.404 L145.417 865.469 Z" fill="#000000" fill-rule="nonzero" fill-opacity="1" /><path clip-path="url(#clip970)" d="M185.232 847.737 L203.588 847.737 L203.588 851.672 L189.514 851.672 L189.514 860.145 Q190.533 859.797 191.551 859.635 Q192.57 859.45 193.588 859.45 Q199.375 859.45 202.755 862.621 Q206.135 865.793 206.135 871.209 Q206.135 876.788 202.662 879.89 Q199.19 882.969 192.871 882.969 Q190.695 882.969 188.426 882.598 Q186.181 882.228 183.774 881.487 L183.774 876.788 Q185.857 877.922 188.079 878.478 Q190.301 879.033 192.778 879.033 Q196.783 879.033 199.121 876.927 Q201.459 874.82 201.459 871.209 Q201.459 867.598 199.121 865.492 Q196.783 863.385 192.778 863.385 Q190.903 863.385 189.028 863.802 Q187.176 864.219 185.232 865.098 L185.232 847.737 Z" fill="#000000" fill-rule="nonzero" fill-opacity="1" /><path clip-path="url(#clip970)" d="M194.19 591.205 Q190.579 591.205 188.75 594.77 Q186.945 598.312 186.945 605.441 Q186.945 612.548 188.75 616.113 Q190.579 619.654 194.19 619.654 Q197.825 619.654 199.63 616.113 Q201.459 612.548 201.459 605.441 Q201.459 598.312 199.63 594.77 Q197.825 591.205 194.19 591.205 M194.19 587.502 Q200 587.502 203.056 592.108 Q206.135 596.691 206.135 605.441 Q206.135 614.168 203.056 618.775 Q200 623.358 194.19 623.358 Q188.38 623.358 185.301 618.775 Q182.246 614.168 182.246 605.441 Q182.246 596.691 185.301 592.108 Q188.38 587.502 194.19 587.502 Z" fill="#000000" fill-rule="nonzero" fill-opacity="1" /><path clip-path="url(#clip970)" d="M185.232 328.516 L203.588 328.516 L203.588 332.451 L189.514 332.451 L189.514 340.924 Q190.533 340.576 191.551 340.414 Q192.57 340.229 193.588 340.229 Q199.375 340.229 202.755 343.4 Q206.135 346.572 206.135 351.988 Q206.135 357.567 202.662 360.669 Q199.19 363.747 192.871 363.747 Q190.695 363.747 188.426 363.377 Q186.181 363.007 183.774 362.266 L183.774 357.567 Q185.857 358.701 188.079 359.257 Q190.301 359.812 192.778 359.812 Q196.783 359.812 199.121 357.706 Q201.459 355.599 201.459 351.988 Q201.459 348.377 199.121 346.271 Q196.783 344.164 192.778 344.164 Q190.903 344.164 189.028 344.581 Q187.176 344.998 185.232 345.877 L185.232 328.516 Z" fill="#000000" fill-rule="nonzero" fill-opacity="1" /><path clip-path="url(#clip970)" d="M154.839 99.5305 L162.477 99.5305 L162.477 73.1649 L154.167 74.8316 L154.167 70.5723 L162.431 68.9057 L167.107 68.9057 L167.107 99.5305 L174.746 99.5305 L174.746 103.466 L154.839 103.466 L154.839 99.5305 Z" fill="#000000" fill-rule="nonzero" fill-opacity="1" /><path clip-path="url(#clip970)" d="M194.19 71.9844 Q190.579 71.9844 188.75 75.5492 Q186.945 79.0908 186.945 86.2204 Q186.945 93.3268 188.75 96.8916 Q190.579 100.433 194.19 100.433 Q197.825 100.433 199.63 96.8916 Q201.459 93.3268 201.459 86.2204 Q201.459 79.0908 199.63 75.5492 Q197.825 71.9844 194.19 71.9844 M194.19 68.2807 Q200 68.2807 203.056 72.8871 Q206.135 77.4704 206.135 86.2204 Q206.135 94.9472 203.056 99.5537 Q200 104.137 194.19 104.137 Q188.38 104.137 185.301 99.5537 Q182.246 94.9472 182.246 86.2204 Q182.246 77.4704 185.301 72.8871 Q188.38 68.2807 194.19 68.2807 Z" fill="#000000" fill-rule="nonzero" fill-opacity="1" /><path clip-path="url(#clip970)" d="M67.3143 733.525 Q73.68 736.008 75.6216 738.363 Q77.5631 740.718 77.5631 744.665 L77.5631 749.344 L72.6615 749.344 L72.6615 745.906 Q72.6615 743.487 71.5157 742.151 Q70.3699 740.814 66.1048 739.191 L63.4312 738.14 L28.3562 752.559 L28.3562 746.352 L56.238 735.212 L28.3562 724.072 L28.3562 717.865 L67.3143 733.525 Z" fill="#000000" fill-rule="nonzero" fill-opacity="1" /><circle clip-path="url(#clip972)" cx="301.869" cy="86.1857" r="14.4" fill="#009af9" fill-rule="evenodd" fill-opacity="1" stroke="#000000" stroke-opacity="1" stroke-width="3.2"/>
<circle clip-path="url(#clip972)" cx="341.692" cy="86.4453" r="14.4" fill="#009af9" fill-rule="evenodd" fill-opacity="1" stroke="#000000" stroke-opacity="1" stroke-width="3.2"/>
<circle clip-path="url(#clip972)" cx="381.515" cy="87.2241" r="14.4" fill="#009af9" fill-rule="evenodd" fill-opacity="1" stroke="#000000" stroke-opacity="1" stroke-width="3.2"/>
<circle clip-path="url(#clip972)" cx="421.338" cy="88.5222" r="14.4" fill="#009af9" fill-rule="evenodd" fill-opacity="1" stroke="#000000" stroke-opacity="1" stroke-width="3.2"/>
<circle clip-path="url(#clip972)" cx="461.161" cy="90.3394" r="14.4" fill="#009af9" fill-rule="evenodd" fill-opacity="1" stroke="#000000" stroke-opacity="1" stroke-width="3.2"/>
<circle clip-path="url(#clip972)" cx="500.984" cy="92.6759" r="14.4" fill="#009af9" fill-rule="evenodd" fill-opacity="1" stroke="#000000" stroke-opacity="1" stroke-width="3.2"/>
<circle clip-path="url(#clip972)" cx="540.807" cy="95.5317" r="14.4" fill="#009af9" fill-rule="evenodd" fill-opacity="1" stroke="#000000" stroke-opacity="1" stroke-width="3.2"/>
<circle clip-path="url(#clip972)" cx="580.631" cy="98.9066" r="14.4" fill="#009af9" fill-rule="evenodd" fill-opacity="1" stroke="#000000" stroke-opacity="1" stroke-width="3.2"/>
<circle clip-path="url(#clip972)" cx="620.454" cy="102.801" r="14.4" fill="#009af9" fill-rule="evenodd" fill-opacity="1" stroke="#000000" stroke-opacity="1" stroke-width="3.2"/>
<circle clip-path="url(#clip972)" cx="660.277" cy="107.214" r="14.4" fill="#009af9" fill-rule="evenodd" fill-opacity="1" stroke="#000000" stroke-opacity="1" stroke-width="3.2"/>
<circle clip-path="url(#clip972)" cx="700.1" cy="112.147" r="14.4" fill="#009af9" fill-rule="evenodd" fill-opacity="1" stroke="#000000" stroke-opacity="1" stroke-width="3.2"/>
<circle clip-path="url(#clip972)" cx="739.923" cy="117.599" r="14.4" fill="#009af9" fill-rule="evenodd" fill-opacity="1" stroke="#000000" stroke-opacity="1" stroke-width="3.2"/>
<circle clip-path="url(#clip972)" cx="779.746" cy="123.57" r="14.4" fill="#009af9" fill-rule="evenodd" fill-opacity="1" stroke="#000000" stroke-opacity="1" stroke-width="3.2"/>
<circle clip-path="url(#clip972)" cx="819.569" cy="130.06" r="14.4" fill="#009af9" fill-rule="evenodd" fill-opacity="1" stroke="#000000" stroke-opacity="1" stroke-width="3.2"/>
<circle clip-path="url(#clip972)" cx="859.392" cy="137.069" r="14.4" fill="#009af9" fill-rule="evenodd" fill-opacity="1" stroke="#000000" stroke-opacity="1" stroke-width="3.2"/>
<circle clip-path="url(#clip972)" cx="899.215" cy="144.598" r="14.4" fill="#009af9" fill-rule="evenodd" fill-opacity="1" stroke="#000000" stroke-opacity="1" stroke-width="3.2"/>
<circle clip-path="url(#clip972)" cx="939.038" cy="152.646" r="14.4" fill="#009af9" fill-rule="evenodd" fill-opacity="1" stroke="#000000" stroke-opacity="1" stroke-width="3.2"/>
<circle clip-path="url(#clip972)" cx="978.861" cy="161.213" r="14.4" fill="#009af9" fill-rule="evenodd" fill-opacity="1" stroke="#000000" stroke-opacity="1" stroke-width="3.2"/>
<circle clip-path="url(#clip972)" cx="1018.68" cy="170.299" r="14.4" fill="#009af9" fill-rule="evenodd" fill-opacity="1" stroke="#000000" stroke-opacity="1" stroke-width="3.2"/>
<circle clip-path="url(#clip972)" cx="1058.51" cy="179.905" r="14.4" fill="#009af9" fill-rule="evenodd" fill-opacity="1" stroke="#000000" stroke-opacity="1" stroke-width="3.2"/>
<circle clip-path="url(#clip972)" cx="1098.33" cy="190.03" r="14.4" fill="#009af9" fill-rule="evenodd" fill-opacity="1" stroke="#000000" stroke-opacity="1" stroke-width="3.2"/>
<circle clip-path="url(#clip972)" cx="1138.15" cy="200.674" r="14.4" fill="#009af9" fill-rule="evenodd" fill-opacity="1" stroke="#000000" stroke-opacity="1" stroke-width="3.2"/>
<circle clip-path="url(#clip972)" cx="1177.98" cy="211.837" r="14.4" fill="#009af9" fill-rule="evenodd" fill-opacity="1" stroke="#000000" stroke-opacity="1" stroke-width="3.2"/>
<circle clip-path="url(#clip972)" cx="1217.8" cy="223.52" r="14.4" fill="#009af9" fill-rule="evenodd" fill-opacity="1" stroke="#000000" stroke-opacity="1" stroke-width="3.2"/>
<circle clip-path="url(#clip972)" cx="1257.62" cy="235.721" r="14.4" fill="#009af9" fill-rule="evenodd" fill-opacity="1" stroke="#000000" stroke-opacity="1" stroke-width="3.2"/>
<circle clip-path="url(#clip972)" cx="1297.45" cy="248.442" r="14.4" fill="#009af9" fill-rule="evenodd" fill-opacity="1" stroke="#000000" stroke-opacity="1" stroke-width="3.2"/>
<circle clip-path="url(#clip972)" cx="1337.27" cy="261.682" r="14.4" fill="#009af9" fill-rule="evenodd" fill-opacity="1" stroke="#000000" stroke-opacity="1" stroke-width="3.2"/>
<circle clip-path="url(#clip972)" cx="1377.09" cy="275.442" r="14.4" fill="#009af9" fill-rule="evenodd" fill-opacity="1" stroke="#000000" stroke-opacity="1" stroke-width="3.2"/>
<circle clip-path="url(#clip972)" cx="1416.91" cy="289.72" r="14.4" fill="#009af9" fill-rule="evenodd" fill-opacity="1" stroke="#000000" stroke-opacity="1" stroke-width="3.2"/>
<circle clip-path="url(#clip972)" cx="1456.74" cy="304.518" r="14.4" fill="#009af9" fill-rule="evenodd" fill-opacity="1" stroke="#000000" stroke-opacity="1" stroke-width="3.2"/>
<circle clip-path="url(#clip972)" cx="1496.56" cy="319.835" r="14.4" fill="#009af9" fill-rule="evenodd" fill-opacity="1" stroke="#000000" stroke-opacity="1" stroke-width="3.2"/>
<circle clip-path="url(#clip972)" cx="1536.38" cy="335.671" r="14.4" fill="#009af9" fill-rule="evenodd" fill-opacity="1" stroke="#000000" stroke-opacity="1" stroke-width="3.2"/>
<circle clip-path="url(#clip972)" cx="1576.21" cy="352.027" r="14.4" fill="#009af9" fill-rule="evenodd" fill-opacity="1" stroke="#000000" stroke-opacity="1" stroke-width="3.2"/>
<circle clip-path="url(#clip972)" cx="1616.03" cy="368.902" r="14.4" fill="#009af9" fill-rule="evenodd" fill-opacity="1" stroke="#000000" stroke-opacity="1" stroke-width="3.2"/>
<circle clip-path="url(#clip972)" cx="1655.85" cy="386.295" r="14.4" fill="#009af9" fill-rule="evenodd" fill-opacity="1" stroke="#000000" stroke-opacity="1" stroke-width="3.2"/>
<circle clip-path="url(#clip972)" cx="1695.68" cy="404.209" r="14.4" fill="#009af9" fill-rule="evenodd" fill-opacity="1" stroke="#000000" stroke-opacity="1" stroke-width="3.2"/>
<circle clip-path="url(#clip972)" cx="1735.5" cy="422.641" r="14.4" fill="#009af9" fill-rule="evenodd" fill-opacity="1" stroke="#000000" stroke-opacity="1" stroke-width="3.2"/>
<circle clip-path="url(#clip972)" cx="1775.32" cy="441.592" r="14.4" fill="#009af9" fill-rule="evenodd" fill-opacity="1" stroke="#000000" stroke-opacity="1" stroke-width="3.2"/>
<circle clip-path="url(#clip972)" cx="1815.14" cy="461.063" r="14.4" fill="#009af9" fill-rule="evenodd" fill-opacity="1" stroke="#000000" stroke-opacity="1" stroke-width="3.2"/>
<circle clip-path="url(#clip972)" cx="1854.97" cy="481.053" r="14.4" fill="#009af9" fill-rule="evenodd" fill-opacity="1" stroke="#000000" stroke-opacity="1" stroke-width="3.2"/>
<circle clip-path="url(#clip972)" cx="1894.79" cy="501.563" r="14.4" fill="#009af9" fill-rule="evenodd" fill-opacity="1" stroke="#000000" stroke-opacity="1" stroke-width="3.2"/>
<circle clip-path="url(#clip972)" cx="1934.61" cy="522.591" r="14.4" fill="#009af9" fill-rule="evenodd" fill-opacity="1" stroke="#000000" stroke-opacity="1" stroke-width="3.2"/>
<circle clip-path="url(#clip972)" cx="1974.44" cy="544.139" r="14.4" fill="#009af9" fill-rule="evenodd" fill-opacity="1" stroke="#000000" stroke-opacity="1" stroke-width="3.2"/>
<circle clip-path="url(#clip972)" cx="2014.26" cy="566.206" r="14.4" fill="#009af9" fill-rule="evenodd" fill-opacity="1" stroke="#000000" stroke-opacity="1" stroke-width="3.2"/>
<circle clip-path="url(#clip972)" cx="2054.08" cy="588.792" r="14.4" fill="#009af9" fill-rule="evenodd" fill-opacity="1" stroke="#000000" stroke-opacity="1" stroke-width="3.2"/>
<circle clip-path="url(#clip972)" cx="2093.91" cy="611.897" r="14.4" fill="#009af9" fill-rule="evenodd" fill-opacity="1" stroke="#000000" stroke-opacity="1" stroke-width="3.2"/>
<polyline clip-path="url(#clip972)" style="stroke:#e26f46; stroke-linecap:round; stroke-linejoin:round; stroke-width:4; stroke-opacity:1; fill:none" points="301.869,86.1857 308.351,86.1925 314.833,86.2132 374.766,87.0556 434.699,89.074 470.716,90.8527 506.733,93.0561 537.186,95.2505 567.638,97.7484 633.797,104.222 694.79,111.459 760.181,120.571 835.942,132.879 903.27,145.394 962.311,157.59 1026.68,172.187 1091.43,188.239 1163.03,207.585 1231.14,227.551 1301.97,249.921 1361.59,270.025 1434.38,296.148 1501.07,321.601 1562.65,346.401 1625.03,372.789 1694.95,403.877 1758.3,433.43 1830.84,468.88 1898,503.239 1964.22,538.559 2028.5,574.225 2061.46,593.03 2094.41,612.191 2130.51,633.593 2166.61,655.421 2219.06,687.89 2271.5,721.26 2282.26,728.217 2293.02,735.212 "/>
<circle clip-path="url(#clip972)" cx="301.869" cy="86.1857" r="14.4" fill="#3da44d" fill-rule="evenodd" fill-opacity="1" stroke="#000000" stroke-opacity="1" stroke-width="3.2"/>
<circle clip-path="url(#clip972)" cx="341.692" cy="86.7049" r="14.4" fill="#3da44d" fill-rule="evenodd" fill-opacity="1" stroke="#000000" stroke-opacity="1" stroke-width="3.2"/>
<circle clip-path="url(#clip972)" cx="381.515" cy="88.2626" r="14.4" fill="#3da44d" fill-rule="evenodd" fill-opacity="1" stroke="#000000" stroke-opacity="1" stroke-width="3.2"/>
<circle clip-path="url(#clip972)" cx="421.338" cy="90.8587" r="14.4" fill="#3da44d" fill-rule="evenodd" fill-opacity="1" stroke="#000000" stroke-opacity="1" stroke-width="3.2"/>
<circle clip-path="url(#clip972)" cx="461.161" cy="94.4932" r="14.4" fill="#3da44d" fill-rule="evenodd" fill-opacity="1" stroke="#000000" stroke-opacity="1" stroke-width="3.2"/>
<circle clip-path="url(#clip972)" cx="500.984" cy="99.1662" r="14.4" fill="#3da44d" fill-rule="evenodd" fill-opacity="1" stroke="#000000" stroke-opacity="1" stroke-width="3.2"/>
<circle clip-path="url(#clip972)" cx="540.807" cy="104.878" r="14.4" fill="#3da44d" fill-rule="evenodd" fill-opacity="1" stroke="#000000" stroke-opacity="1" stroke-width="3.2"/>
<circle clip-path="url(#clip972)" cx="580.631" cy="111.628" r="14.4" fill="#3da44d" fill-rule="evenodd" fill-opacity="1" stroke="#000000" stroke-opacity="1" stroke-width="3.2"/>
<circle clip-path="url(#clip972)" cx="620.454" cy="119.416" r="14.4" fill="#3da44d" fill-rule="evenodd" fill-opacity="1" stroke="#000000" stroke-opacity="1" stroke-width="3.2"/>
<circle clip-path="url(#clip972)" cx="660.277" cy="128.243" r="14.4" fill="#3da44d" fill-rule="evenodd" fill-opacity="1" stroke="#000000" stroke-opacity="1" stroke-width="3.2"/>
<circle clip-path="url(#clip972)" cx="700.1" cy="138.108" r="14.4" fill="#3da44d" fill-rule="evenodd" fill-opacity="1" stroke="#000000" stroke-opacity="1" stroke-width="3.2"/>
<circle clip-path="url(#clip972)" cx="739.923" cy="149.011" r="14.4" fill="#3da44d" fill-rule="evenodd" fill-opacity="1" stroke="#000000" stroke-opacity="1" stroke-width="3.2"/>
<circle clip-path="url(#clip972)" cx="779.746" cy="160.954" r="14.4" fill="#3da44d" fill-rule="evenodd" fill-opacity="1" stroke="#000000" stroke-opacity="1" stroke-width="3.2"/>
<circle clip-path="url(#clip972)" cx="819.569" cy="173.934" r="14.4" fill="#3da44d" fill-rule="evenodd" fill-opacity="1" stroke="#000000" stroke-opacity="1" stroke-width="3.2"/>
<circle clip-path="url(#clip972)" cx="859.392" cy="187.953" r="14.4" fill="#3da44d" fill-rule="evenodd" fill-opacity="1" stroke="#000000" stroke-opacity="1" stroke-width="3.2"/>
<circle clip-path="url(#clip972)" cx="899.215" cy="203.01" r="14.4" fill="#3da44d" fill-rule="evenodd" fill-opacity="1" stroke="#000000" stroke-opacity="1" stroke-width="3.2"/>
<circle clip-path="url(#clip972)" cx="939.038" cy="219.106" r="14.4" fill="#3da44d" fill-rule="evenodd" fill-opacity="1" stroke="#000000" stroke-opacity="1" stroke-width="3.2"/>
<circle clip-path="url(#clip972)" cx="978.861" cy="236.241" r="14.4" fill="#3da44d" fill-rule="evenodd" fill-opacity="1" stroke="#000000" stroke-opacity="1" stroke-width="3.2"/>
<circle clip-path="url(#clip972)" cx="1018.68" cy="254.413" r="14.4" fill="#3da44d" fill-rule="evenodd" fill-opacity="1" stroke="#000000" stroke-opacity="1" stroke-width="3.2"/>
<circle clip-path="url(#clip972)" cx="1058.51" cy="273.624" r="14.4" fill="#3da44d" fill-rule="evenodd" fill-opacity="1" stroke="#000000" stroke-opacity="1" stroke-width="3.2"/>
<circle clip-path="url(#clip972)" cx="1098.33" cy="293.874" r="14.4" fill="#3da44d" fill-rule="evenodd" fill-opacity="1" stroke="#000000" stroke-opacity="1" stroke-width="3.2"/>
<circle clip-path="url(#clip972)" cx="1138.15" cy="315.162" r="14.4" fill="#3da44d" fill-rule="evenodd" fill-opacity="1" stroke="#000000" stroke-opacity="1" stroke-width="3.2"/>
<circle clip-path="url(#clip972)" cx="1177.98" cy="337.489" r="14.4" fill="#3da44d" fill-rule="evenodd" fill-opacity="1" stroke="#000000" stroke-opacity="1" stroke-width="3.2"/>
<circle clip-path="url(#clip972)" cx="1217.8" cy="360.854" r="14.4" fill="#3da44d" fill-rule="evenodd" fill-opacity="1" stroke="#000000" stroke-opacity="1" stroke-width="3.2"/>
<circle clip-path="url(#clip972)" cx="1257.62" cy="385.257" r="14.4" fill="#3da44d" fill-rule="evenodd" fill-opacity="1" stroke="#000000" stroke-opacity="1" stroke-width="3.2"/>
<circle clip-path="url(#clip972)" cx="1297.45" cy="410.699" r="14.4" fill="#3da44d" fill-rule="evenodd" fill-opacity="1" stroke="#000000" stroke-opacity="1" stroke-width="3.2"/>
<circle clip-path="url(#clip972)" cx="1337.27" cy="437.179" r="14.4" fill="#3da44d" fill-rule="evenodd" fill-opacity="1" stroke="#000000" stroke-opacity="1" stroke-width="3.2"/>
<circle clip-path="url(#clip972)" cx="1377.09" cy="464.698" r="14.4" fill="#3da44d" fill-rule="evenodd" fill-opacity="1" stroke="#000000" stroke-opacity="1" stroke-width="3.2"/>
<circle clip-path="url(#clip972)" cx="1416.91" cy="493.255" r="14.4" fill="#3da44d" fill-rule="evenodd" fill-opacity="1" stroke="#000000" stroke-opacity="1" stroke-width="3.2"/>
<circle clip-path="url(#clip972)" cx="1456.74" cy="522.851" r="14.4" fill="#3da44d" fill-rule="evenodd" fill-opacity="1" stroke="#000000" stroke-opacity="1" stroke-width="3.2"/>
<circle clip-path="url(#clip972)" cx="1496.56" cy="553.485" r="14.4" fill="#3da44d" fill-rule="evenodd" fill-opacity="1" stroke="#000000" stroke-opacity="1" stroke-width="3.2"/>
<circle clip-path="url(#clip972)" cx="1536.38" cy="585.157" r="14.4" fill="#3da44d" fill-rule="evenodd" fill-opacity="1" stroke="#000000" stroke-opacity="1" stroke-width="3.2"/>
<circle clip-path="url(#clip972)" cx="1576.21" cy="617.868" r="14.4" fill="#3da44d" fill-rule="evenodd" fill-opacity="1" stroke="#000000" stroke-opacity="1" stroke-width="3.2"/>
<polyline clip-path="url(#clip972)" style="stroke:#c271d2; stroke-linecap:round; stroke-linejoin:round; stroke-width:4; stroke-opacity:1; fill:none" points="301.869,86.1857 308.351,86.1994 314.833,86.2407 374.766,87.9255 434.699,91.9623 470.716,95.5197 506.733,99.9266 537.186,104.315 567.638,109.311 633.797,122.258 694.79,136.732 760.181,154.957 835.942,179.572 903.27,204.602 962.311,228.994 1026.68,258.188 1091.43,290.293 1163.03,328.985 1231.14,368.916 1301.97,413.656 1361.59,453.865 1434.38,506.11 1501.07,557.016 1562.65,606.617 1625.03,659.393 1694.95,721.569 1758.3,780.675 1830.84,851.574 1898,920.292 1964.22,990.932 2028.5,1062.26 2061.46,1099.87 2094.41,1138.2 2130.51,1181 2166.61,1224.66 2219.06,1289.59 2271.5,1356.33 2282.26,1370.25 2293.02,1384.24 "/>
<path clip-path="url(#clip970)" d="M1833.19 352.309 L2282.4 352.309 L2282.4 93.1086 L1833.19 93.1086  Z" fill="#ffffff" fill-rule="evenodd" fill-opacity="1"/>
<polyline clip-path="url(#clip970)" style="stroke:#000000; stroke-linecap:round; stroke-linejoin:round; stroke-width:4; stroke-opacity:1; fill:none" points="1833.19,352.309 2282.4,352.309 2282.4,93.1086 1833.19,93.1086 1833.19,352.309 "/>
<circle clip-path="url(#clip970)" cx="1927" cy="144.949" r="20.48" fill="#009af9" fill-rule="evenodd" fill-opacity="1" stroke="#000000" stroke-opacity="1" stroke-width="4.55111"/>
<path clip-path="url(#clip970)" d="M2039.72 148.965 Q2039.72 144.335 2037.79 141.789 Q2035.9 139.243 2032.45 139.243 Q2029.02 139.243 2027.1 141.789 Q2025.2 144.335 2025.2 148.965 Q2025.2 153.571 2027.1 156.118 Q2029.02 158.664 2032.45 158.664 Q2035.9 158.664 2037.79 156.118 Q2039.72 153.571 2039.72 148.965 M2043.97 159.011 Q2043.97 165.631 2041.04 168.849 Q2038.1 172.09 2032.03 172.09 Q2029.79 172.09 2027.79 171.742 Q2025.8 171.418 2023.93 170.724 L2023.93 166.58 Q2025.8 167.599 2027.63 168.085 Q2029.46 168.571 2031.36 168.571 Q2035.55 168.571 2037.63 166.372 Q2039.72 164.196 2039.72 159.775 L2039.72 157.668 Q2038.4 159.96 2036.34 161.094 Q2034.28 162.229 2031.41 162.229 Q2026.64 162.229 2023.72 158.594 Q2020.8 154.96 2020.8 148.965 Q2020.8 142.946 2023.72 139.312 Q2026.64 135.678 2031.41 135.678 Q2034.28 135.678 2036.34 136.812 Q2038.4 137.946 2039.72 140.238 L2039.72 136.303 L2043.97 136.303 L2043.97 159.011 Z" fill="#000000" fill-rule="nonzero" fill-opacity="1" /><path clip-path="url(#clip970)" d="M2053.3 140.701 L2082.98 140.701 L2082.98 144.59 L2053.3 144.59 L2053.3 140.701 M2053.3 150.145 L2082.98 150.145 L2082.98 154.081 L2053.3 154.081 L2053.3 150.145 Z" fill="#000000" fill-rule="nonzero" fill-opacity="1" /><path clip-path="url(#clip970)" d="M2093.88 158.293 L2101.52 158.293 L2101.52 131.928 L2093.21 133.595 L2093.21 129.335 L2101.47 127.669 L2106.15 127.669 L2106.15 158.293 L2113.79 158.293 L2113.79 162.229 L2093.88 162.229 L2093.88 158.293 Z" fill="#000000" fill-rule="nonzero" fill-opacity="1" /><polyline clip-path="url(#clip970)" style="stroke:#e26f46; stroke-linecap:round; stroke-linejoin:round; stroke-width:4; stroke-opacity:1; fill:none" points="1856.64,196.789 1997.35,196.789 "/>
<path clip-path="url(#clip970)" d="M2044.83 200.041 L2044.83 202.124 L2025.25 202.124 Q2025.53 206.522 2027.89 208.837 Q2030.27 211.129 2034.51 211.129 Q2036.96 211.129 2039.25 210.527 Q2041.57 209.925 2043.84 208.721 L2043.84 212.749 Q2041.54 213.721 2039.14 214.231 Q2036.73 214.74 2034.25 214.74 Q2028.05 214.74 2024.41 211.129 Q2020.8 207.518 2020.8 201.36 Q2020.8 194.995 2024.23 191.268 Q2027.68 187.518 2033.51 187.518 Q2038.74 187.518 2041.78 190.897 Q2044.83 194.254 2044.83 200.041 M2040.57 198.791 Q2040.53 195.296 2038.6 193.212 Q2036.71 191.129 2033.56 191.129 Q2029.99 191.129 2027.84 193.143 Q2025.71 195.157 2025.39 198.814 L2040.57 198.791 Z" fill="#000000" fill-rule="nonzero" fill-opacity="1" /><path clip-path="url(#clip970)" d="M2072.54 188.143 L2063.16 200.759 L2073.03 214.069 L2068 214.069 L2060.46 203.883 L2052.91 214.069 L2047.89 214.069 L2057.96 200.504 L2048.74 188.143 L2053.77 188.143 L2060.64 197.379 L2067.52 188.143 L2072.54 188.143 Z" fill="#000000" fill-rule="nonzero" fill-opacity="1" /><path clip-path="url(#clip970)" d="M2090.83 201.036 Q2085.66 201.036 2083.67 202.217 Q2081.68 203.397 2081.68 206.245 Q2081.68 208.513 2083.16 209.856 Q2084.67 211.175 2087.24 211.175 Q2090.78 211.175 2092.91 208.675 Q2095.06 206.152 2095.06 201.985 L2095.06 201.036 L2090.83 201.036 M2099.32 199.277 L2099.32 214.069 L2095.06 214.069 L2095.06 210.133 Q2093.6 212.495 2091.43 213.629 Q2089.25 214.74 2086.1 214.74 Q2082.12 214.74 2079.76 212.518 Q2077.42 210.272 2077.42 206.522 Q2077.42 202.147 2080.34 199.925 Q2083.28 197.703 2089.09 197.703 L2095.06 197.703 L2095.06 197.286 Q2095.06 194.347 2093.12 192.749 Q2091.2 191.129 2087.7 191.129 Q2085.48 191.129 2083.37 191.661 Q2081.27 192.194 2079.32 193.259 L2079.32 189.323 Q2081.66 188.421 2083.86 187.981 Q2086.06 187.518 2088.14 187.518 Q2093.77 187.518 2096.54 190.434 Q2099.32 193.351 2099.32 199.277 Z" fill="#000000" fill-rule="nonzero" fill-opacity="1" /><path clip-path="url(#clip970)" d="M2126.75 189.138 L2126.75 193.12 Q2124.95 192.124 2123.12 191.638 Q2121.31 191.129 2119.46 191.129 Q2115.32 191.129 2113.03 193.768 Q2110.73 196.384 2110.73 201.129 Q2110.73 205.874 2113.03 208.513 Q2115.32 211.129 2119.46 211.129 Q2121.31 211.129 2123.12 210.643 Q2124.95 210.133 2126.75 209.138 L2126.75 213.073 Q2124.97 213.907 2123.05 214.323 Q2121.15 214.74 2119 214.74 Q2113.14 214.74 2109.69 211.059 Q2106.24 207.379 2106.24 201.129 Q2106.24 194.786 2109.72 191.152 Q2113.21 187.518 2119.28 187.518 Q2121.24 187.518 2123.12 187.935 Q2124.99 188.328 2126.75 189.138 Z" fill="#000000" fill-rule="nonzero" fill-opacity="1" /><path clip-path="url(#clip970)" d="M2138.37 180.782 L2138.37 188.143 L2147.15 188.143 L2147.15 191.453 L2138.37 191.453 L2138.37 205.527 Q2138.37 208.698 2139.23 209.601 Q2140.11 210.504 2142.77 210.504 L2147.15 210.504 L2147.15 214.069 L2142.77 214.069 Q2137.84 214.069 2135.97 212.24 Q2134.09 210.388 2134.09 205.527 L2134.09 191.453 L2130.97 191.453 L2130.97 188.143 L2134.09 188.143 L2134.09 180.782 L2138.37 180.782 Z" fill="#000000" fill-rule="nonzero" fill-opacity="1" /><path clip-path="url(#clip970)" d="M2184.88 200.805 Q2184.88 196.175 2182.96 193.629 Q2181.06 191.083 2177.61 191.083 Q2174.18 191.083 2172.26 193.629 Q2170.36 196.175 2170.36 200.805 Q2170.36 205.411 2172.26 207.958 Q2174.18 210.504 2177.61 210.504 Q2181.06 210.504 2182.96 207.958 Q2184.88 205.411 2184.88 200.805 M2189.14 210.851 Q2189.14 217.471 2186.2 220.689 Q2183.26 223.93 2177.19 223.93 Q2174.95 223.93 2172.96 223.582 Q2170.96 223.258 2169.09 222.564 L2169.09 218.42 Q2170.96 219.439 2172.79 219.925 Q2174.62 220.411 2176.52 220.411 Q2180.71 220.411 2182.79 218.212 Q2184.88 216.036 2184.88 211.615 L2184.88 209.508 Q2183.56 211.8 2181.5 212.934 Q2179.44 214.069 2176.57 214.069 Q2171.8 214.069 2168.88 210.434 Q2165.96 206.8 2165.96 200.805 Q2165.96 194.786 2168.88 191.152 Q2171.8 187.518 2176.57 187.518 Q2179.44 187.518 2181.5 188.652 Q2183.56 189.786 2184.88 192.078 L2184.88 188.143 L2189.14 188.143 L2189.14 210.851 Z" fill="#000000" fill-rule="nonzero" fill-opacity="1" /><path clip-path="url(#clip970)" d="M2198.46 192.541 L2228.14 192.541 L2228.14 196.43 L2198.46 196.43 L2198.46 192.541 M2198.46 201.985 L2228.14 201.985 L2228.14 205.921 L2198.46 205.921 L2198.46 201.985 Z" fill="#000000" fill-rule="nonzero" fill-opacity="1" /><path clip-path="url(#clip970)" d="M2239.04 210.133 L2246.68 210.133 L2246.68 183.768 L2238.37 185.435 L2238.37 181.175 L2246.64 179.509 L2251.31 179.509 L2251.31 210.133 L2258.95 210.133 L2258.95 214.069 L2239.04 214.069 L2239.04 210.133 Z" fill="#000000" fill-rule="nonzero" fill-opacity="1" /><circle clip-path="url(#clip970)" cx="1927" cy="248.629" r="20.48" fill="#3da44d" fill-rule="evenodd" fill-opacity="1" stroke="#000000" stroke-opacity="1" stroke-width="4.55111"/>
<path clip-path="url(#clip970)" d="M2039.72 252.645 Q2039.72 248.015 2037.79 245.469 Q2035.9 242.923 2032.45 242.923 Q2029.02 242.923 2027.1 245.469 Q2025.2 248.015 2025.2 252.645 Q2025.2 257.251 2027.1 259.798 Q2029.02 262.344 2032.45 262.344 Q2035.9 262.344 2037.79 259.798 Q2039.72 257.251 2039.72 252.645 M2043.97 262.691 Q2043.97 269.311 2041.04 272.529 Q2038.1 275.77 2032.03 275.77 Q2029.79 275.77 2027.79 275.422 Q2025.8 275.098 2023.93 274.404 L2023.93 270.26 Q2025.8 271.279 2027.63 271.765 Q2029.46 272.251 2031.36 272.251 Q2035.55 272.251 2037.63 270.052 Q2039.72 267.876 2039.72 263.455 L2039.72 261.348 Q2038.4 263.64 2036.34 264.774 Q2034.28 265.909 2031.41 265.909 Q2026.64 265.909 2023.72 262.274 Q2020.8 258.64 2020.8 252.645 Q2020.8 246.626 2023.72 242.992 Q2026.64 239.358 2031.41 239.358 Q2034.28 239.358 2036.34 240.492 Q2038.4 241.626 2039.72 243.918 L2039.72 239.983 L2043.97 239.983 L2043.97 262.691 Z" fill="#000000" fill-rule="nonzero" fill-opacity="1" /><path clip-path="url(#clip970)" d="M2053.3 244.381 L2082.98 244.381 L2082.98 248.27 L2053.3 248.27 L2053.3 244.381 M2053.3 253.825 L2082.98 253.825 L2082.98 257.761 L2053.3 257.761 L2053.3 253.825 Z" fill="#000000" fill-rule="nonzero" fill-opacity="1" /><path clip-path="url(#clip970)" d="M2097.1 261.973 L2113.42 261.973 L2113.42 265.909 L2091.47 265.909 L2091.47 261.973 Q2094.14 259.219 2098.72 254.589 Q2103.33 249.936 2104.51 248.594 Q2106.75 246.071 2107.63 244.335 Q2108.53 242.575 2108.53 240.886 Q2108.53 238.131 2106.59 236.395 Q2104.67 234.659 2101.57 234.659 Q2099.37 234.659 2096.91 235.423 Q2094.48 236.187 2091.71 237.737 L2091.71 233.015 Q2094.53 231.881 2096.98 231.302 Q2099.44 230.724 2101.47 230.724 Q2106.84 230.724 2110.04 233.409 Q2113.23 236.094 2113.23 240.585 Q2113.23 242.714 2112.42 244.636 Q2111.64 246.534 2109.53 249.126 Q2108.95 249.798 2105.85 253.015 Q2102.75 256.21 2097.1 261.973 Z" fill="#000000" fill-rule="nonzero" fill-opacity="1" /><polyline clip-path="url(#clip970)" style="stroke:#c271d2; stroke-linecap:round; stroke-linejoin:round; stroke-width:4; stroke-opacity:1; fill:none" points="1856.64,300.469 1997.35,300.469 "/>
<path clip-path="url(#clip970)" d="M2044.83 303.721 L2044.83 305.804 L2025.25 305.804 Q2025.53 310.202 2027.89 312.517 Q2030.27 314.809 2034.51 314.809 Q2036.96 314.809 2039.25 314.207 Q2041.57 313.605 2043.84 312.401 L2043.84 316.429 Q2041.54 317.401 2039.14 317.911 Q2036.73 318.42 2034.25 318.42 Q2028.05 318.42 2024.41 314.809 Q2020.8 311.198 2020.8 305.04 Q2020.8 298.675 2024.23 294.948 Q2027.68 291.198 2033.51 291.198 Q2038.74 291.198 2041.78 294.577 Q2044.83 297.934 2044.83 303.721 M2040.57 302.471 Q2040.53 298.976 2038.6 296.892 Q2036.71 294.809 2033.56 294.809 Q2029.99 294.809 2027.84 296.823 Q2025.71 298.837 2025.39 302.494 L2040.57 302.471 Z" fill="#000000" fill-rule="nonzero" fill-opacity="1" /><path clip-path="url(#clip970)" d="M2072.54 291.823 L2063.16 304.439 L2073.03 317.749 L2068 317.749 L2060.46 307.563 L2052.91 317.749 L2047.89 317.749 L2057.96 304.184 L2048.74 291.823 L2053.77 291.823 L2060.64 301.059 L2067.52 291.823 L2072.54 291.823 Z" fill="#000000" fill-rule="nonzero" fill-opacity="1" /><path clip-path="url(#clip970)" d="M2090.83 304.716 Q2085.66 304.716 2083.67 305.897 Q2081.68 307.077 2081.68 309.925 Q2081.68 312.193 2083.16 313.536 Q2084.67 314.855 2087.24 314.855 Q2090.78 314.855 2092.91 312.355 Q2095.06 309.832 2095.06 305.665 L2095.06 304.716 L2090.83 304.716 M2099.32 302.957 L2099.32 317.749 L2095.06 317.749 L2095.06 313.813 Q2093.6 316.175 2091.43 317.309 Q2089.25 318.42 2086.1 318.42 Q2082.12 318.42 2079.76 316.198 Q2077.42 313.952 2077.42 310.202 Q2077.42 305.827 2080.34 303.605 Q2083.28 301.383 2089.09 301.383 L2095.06 301.383 L2095.06 300.966 Q2095.06 298.027 2093.12 296.429 Q2091.2 294.809 2087.7 294.809 Q2085.48 294.809 2083.37 295.341 Q2081.27 295.874 2079.32 296.939 L2079.32 293.003 Q2081.66 292.101 2083.86 291.661 Q2086.06 291.198 2088.14 291.198 Q2093.77 291.198 2096.54 294.114 Q2099.32 297.031 2099.32 302.957 Z" fill="#000000" fill-rule="nonzero" fill-opacity="1" /><path clip-path="url(#clip970)" d="M2126.75 292.818 L2126.75 296.8 Q2124.95 295.804 2123.12 295.318 Q2121.31 294.809 2119.46 294.809 Q2115.32 294.809 2113.03 297.448 Q2110.73 300.064 2110.73 304.809 Q2110.73 309.554 2113.03 312.193 Q2115.32 314.809 2119.46 314.809 Q2121.31 314.809 2123.12 314.323 Q2124.95 313.813 2126.75 312.818 L2126.75 316.753 Q2124.97 317.587 2123.05 318.003 Q2121.15 318.42 2119 318.42 Q2113.14 318.42 2109.69 314.739 Q2106.24 311.059 2106.24 304.809 Q2106.24 298.466 2109.72 294.832 Q2113.21 291.198 2119.28 291.198 Q2121.24 291.198 2123.12 291.615 Q2124.99 292.008 2126.75 292.818 Z" fill="#000000" fill-rule="nonzero" fill-opacity="1" /><path clip-path="url(#clip970)" d="M2138.37 284.462 L2138.37 291.823 L2147.15 291.823 L2147.15 295.133 L2138.37 295.133 L2138.37 309.207 Q2138.37 312.378 2139.23 313.281 Q2140.11 314.184 2142.77 314.184 L2147.15 314.184 L2147.15 317.749 L2142.77 317.749 Q2137.84 317.749 2135.97 315.92 Q2134.09 314.068 2134.09 309.207 L2134.09 295.133 L2130.97 295.133 L2130.97 291.823 L2134.09 291.823 L2134.09 284.462 L2138.37 284.462 Z" fill="#000000" fill-rule="nonzero" fill-opacity="1" /><path clip-path="url(#clip970)" d="M2184.88 304.485 Q2184.88 299.855 2182.96 297.309 Q2181.06 294.763 2177.61 294.763 Q2174.18 294.763 2172.26 297.309 Q2170.36 299.855 2170.36 304.485 Q2170.36 309.091 2172.26 311.638 Q2174.18 314.184 2177.61 314.184 Q2181.06 314.184 2182.96 311.638 Q2184.88 309.091 2184.88 304.485 M2189.14 314.531 Q2189.14 321.151 2186.2 324.369 Q2183.26 327.61 2177.19 327.61 Q2174.95 327.61 2172.96 327.262 Q2170.96 326.938 2169.09 326.244 L2169.09 322.1 Q2170.96 323.119 2172.79 323.605 Q2174.62 324.091 2176.52 324.091 Q2180.71 324.091 2182.79 321.892 Q2184.88 319.716 2184.88 315.295 L2184.88 313.188 Q2183.56 315.48 2181.5 316.614 Q2179.44 317.749 2176.57 317.749 Q2171.8 317.749 2168.88 314.114 Q2165.96 310.48 2165.96 304.485 Q2165.96 298.466 2168.88 294.832 Q2171.8 291.198 2176.57 291.198 Q2179.44 291.198 2181.5 292.332 Q2183.56 293.466 2184.88 295.758 L2184.88 291.823 L2189.14 291.823 L2189.14 314.531 Z" fill="#000000" fill-rule="nonzero" fill-opacity="1" /><path clip-path="url(#clip970)" d="M2198.46 296.221 L2228.14 296.221 L2228.14 300.11 L2198.46 300.11 L2198.46 296.221 M2198.46 305.665 L2228.14 305.665 L2228.14 309.601 L2198.46 309.601 L2198.46 305.665 Z" fill="#000000" fill-rule="nonzero" fill-opacity="1" /><path clip-path="url(#clip970)" d="M2242.26 313.813 L2258.58 313.813 L2258.58 317.749 L2236.64 317.749 L2236.64 313.813 Q2239.3 311.059 2243.88 306.429 Q2248.49 301.776 2249.67 300.434 Q2251.91 297.911 2252.79 296.175 Q2253.7 294.415 2253.7 292.726 Q2253.7 289.971 2251.75 288.235 Q2249.83 286.499 2246.73 286.499 Q2244.53 286.499 2242.08 287.263 Q2239.65 288.027 2236.87 289.577 L2236.87 284.855 Q2239.69 283.721 2242.15 283.142 Q2244.6 282.564 2246.64 282.564 Q2252.01 282.564 2255.2 285.249 Q2258.39 287.934 2258.39 292.425 Q2258.39 294.554 2257.58 296.476 Q2256.8 298.374 2254.69 300.966 Q2254.11 301.638 2251.01 304.855 Q2247.91 308.05 2242.26 313.813 Z" fill="#000000" fill-rule="nonzero" fill-opacity="1" /></svg>