<?xml version="1.0" encoding="utf-8"?>
<svg xmlns="http://www.w3.org/2000/svg" xmlns:xlink="http://www.w3.org/1999/xlink" width="600" height="400" viewBox="0 0 2400 1600">
<defs>
  <clipPath id="clip070">
    <rect x="0" y="0" width="2400" height="1600"/>
  </clipPath>
</defs>
<path clip-path="url(#clip070)" d="M0 1600 L2400 1600 L2400 0 L0 0  Z" fill="#ffffff" fill-rule="evenodd" fill-opacity="1"/>
<defs>
  <clipPath id="clip071">
    <rect x="480" y="0" width="1681" height="1600"/>
  </clipPath>
</defs>
<path clip-path="url(#clip070)" d="M211.325 1423.18 L2112.76 1423.18 L2112.76 47.2441 L211.325 47.2441  Z" fill="#ffffff" fill-rule="evenodd" fill-opacity="1"/>
<defs>
  <clipPath id="clip072">
    <rect x="211" y="47" width="1902" height="1377"/>
  </clipPath>
</defs>
<polyline clip-path="url(#clip072)" style="stroke:#000000; stroke-linecap:round; stroke-linejoin:round; stroke-width:2; stroke-opacity:0.1; fill:none" points="305.562,1423.18 305.562,47.2441 "/>
<polyline clip-path="url(#clip072)" style="stroke:#000000; stroke-linecap:round; stroke-linejoin:round; stroke-width:2; stroke-opacity:0.1; fill:none" points="591.055,1423.18 591.055,47.2441 "/>
<polyline clip-path="url(#clip072)" style="stroke:#000000; stroke-linecap:round; stroke-linejoin:round; stroke-width:2; stroke-opacity:0.1; fill:none" points="876.548,1423.18 876.548,47.2441 "/>
<polyline clip-path="url(#clip072)" style="stroke:#000000; stroke-linecap:round; stroke-linejoin:round; stroke-width:2; stroke-opacity:0.1; fill:none" points="1162.04,1423.18 1162.04,47.2441 "/>
<polyline clip-path="url(#clip072)" style="stroke:#000000; stroke-linecap:round; stroke-linejoin:round; stroke-width:2; stroke-opacity:0.1; fill:none" points="1447.53,1423.18 1447.53,47.2441 "/>
<polyline clip-path="url(#clip072)" style="stroke:#000000; stroke-linecap:round; stroke-linejoin:round; stroke-width:2; stroke-opacity:0.1; fill:none" points="1733.03,1423.18 1733.03,47.2441 "/>
<polyline clip-path="url(#clip072)" style="stroke:#000000; stroke-linecap:round; stroke-linejoin:round; stroke-width:2; stroke-opacity:0.1; fill:none" points="2018.52,1423.18 2018.52,47.2441 "/>
<polyline clip-path="url(#clip070)" style="stroke:#000000; stroke-linecap:round; stroke-linejoin:round; stroke-width:4; stroke-opacity:1; fill:none" points="211.325,1423.18 2112.76,1423.18 "/>
<polyline clip-path="url(#clip070)" style="stroke:#000000; stroke-linecap:round; stroke-linejoin:round; stroke-width:4; stroke-opacity:1; fill:none" points="305.562,1423.18 305.562,1404.28 "/>
<polyline clip-path="url(#clip070)" style="stroke:#000000; stroke-linecap:round; stroke-linejoin:round; stroke-width:4; stroke-opacity:1; fill:none" points="591.055,1423.18 591.055,1404.28 "/>
<polyline clip-path="url(#clip070)" style="stroke:#000000; stroke-linecap:round; stroke-linejoin:round; stroke-width:4; stroke-opacity:1; fill:none" points="876.548,1423.18 876.548,1404.28 "/>
<polyline clip-path="url(#clip070)" style="stroke:#000000; stroke-linecap:round; stroke-linejoin:round; stroke-width:4; stroke-opacity:1; fill:none" points="1162.04,1423.18 1162.04,1404.28 "/>
<polyline clip-path="url(#clip070)" style="stroke:#000000; stroke-linecap:round; stroke-linejoin:round; stroke-width:4; stroke-opacity:1; fill:none" points="1447.53,1423.18 1447.53,1404.28 "/>
<polyline clip-path="url(#clip070)" style="stroke:#000000; stroke-linecap:round; stroke-linejoin:round; stroke-width:4; stroke-opacity:1; fill:none" points="1733.03,1423.18 1733.03,1404.28 "/>
<polyline clip-path="url(#clip070)" style="stroke:#000000; stroke-linecap:round; stroke-linejoin:round; stroke-width:4; stroke-opacity:1; fill:none" points="2018.52,1423.18 2018.52,1404.28 "/>
<path clip-path="url(#clip070)" d="M275.03 1468.75 L304.706 1468.75 L304.706 1472.69 L275.03 1472.69 L275.03 1468.75 Z" fill="#000000" fill-rule="nonzero" fill-opacity="1" /><path clip-path="url(#clip070)" d="M328.965 1466.95 Q332.322 1467.66 334.197 1469.93 Q336.095 1472.2 336.095 1475.53 Q336.095 1480.65 332.576 1483.45 Q329.058 1486.25 322.576 1486.25 Q320.4 1486.25 318.085 1485.81 Q315.794 1485.39 313.34 1484.54 L313.34 1480.02 Q315.285 1481.16 317.599 1481.74 Q319.914 1482.32 322.437 1482.32 Q326.835 1482.32 329.127 1480.58 Q331.442 1478.84 331.442 1475.53 Q331.442 1472.48 329.289 1470.77 Q327.16 1469.03 323.34 1469.03 L319.312 1469.03 L319.312 1465.19 L323.525 1465.19 Q326.974 1465.19 328.803 1463.82 Q330.632 1462.43 330.632 1459.84 Q330.632 1457.18 328.734 1455.77 Q326.859 1454.33 323.34 1454.33 Q321.419 1454.33 319.22 1454.75 Q317.021 1455.16 314.382 1456.04 L314.382 1451.88 Q317.044 1451.14 319.359 1450.77 Q321.697 1450.39 323.757 1450.39 Q329.081 1450.39 332.183 1452.83 Q335.284 1455.23 335.284 1459.35 Q335.284 1462.22 333.641 1464.21 Q331.997 1466.18 328.965 1466.95 Z" fill="#000000" fill-rule="nonzero" fill-opacity="1" /><path clip-path="url(#clip070)" d="M560.997 1468.75 L590.673 1468.75 L590.673 1472.69 L560.997 1472.69 L560.997 1468.75 Z" fill="#000000" fill-rule="nonzero" fill-opacity="1" /><path clip-path="url(#clip070)" d="M604.793 1481.64 L621.113 1481.64 L621.113 1485.58 L599.168 1485.58 L599.168 1481.64 Q601.83 1478.89 606.414 1474.26 Q611.02 1469.61 612.201 1468.27 Q614.446 1465.74 615.326 1464.01 Q616.228 1462.25 616.228 1460.56 Q616.228 1457.8 614.284 1456.07 Q612.363 1454.33 609.261 1454.33 Q607.062 1454.33 604.608 1455.09 Q602.178 1455.86 599.4 1457.41 L599.4 1452.69 Q602.224 1451.55 604.678 1450.97 Q607.131 1450.39 609.168 1450.39 Q614.539 1450.39 617.733 1453.08 Q620.928 1455.77 620.928 1460.26 Q620.928 1462.39 620.117 1464.31 Q619.33 1466.2 617.224 1468.8 Q616.645 1469.47 613.543 1472.69 Q610.441 1475.88 604.793 1481.64 Z" fill="#000000" fill-rule="nonzero" fill-opacity="1" /><path clip-path="url(#clip070)" d="M846.305 1468.75 L875.981 1468.75 L875.981 1472.69 L846.305 1472.69 L846.305 1468.75 Z" fill="#000000" fill-rule="nonzero" fill-opacity="1" /><path clip-path="url(#clip070)" d="M886.883 1481.64 L894.522 1481.64 L894.522 1455.28 L886.212 1456.95 L886.212 1452.69 L894.476 1451.02 L899.152 1451.02 L899.152 1481.64 L906.791 1481.64 L906.791 1485.58 L886.883 1485.58 L886.883 1481.64 Z" fill="#000000" fill-rule="nonzero" fill-opacity="1" /><path clip-path="url(#clip070)" d="M1162.04 1454.1 Q1158.43 1454.1 1156.6 1457.66 Q1154.79 1461.2 1154.79 1468.33 Q1154.79 1475.44 1156.6 1479.01 Q1158.43 1482.55 1162.04 1482.55 Q1165.67 1482.55 1167.48 1479.01 Q1169.31 1475.44 1169.31 1468.33 Q1169.31 1461.2 1167.48 1457.66 Q1165.67 1454.1 1162.04 1454.1 M1162.04 1450.39 Q1167.85 1450.39 1170.91 1455 Q1173.98 1459.58 1173.98 1468.33 Q1173.98 1477.06 1170.91 1481.67 Q1167.85 1486.25 1162.04 1486.25 Q1156.23 1486.25 1153.15 1481.67 Q1150.1 1477.06 1150.1 1468.33 Q1150.1 1459.58 1153.15 1455 Q1156.23 1450.39 1162.04 1450.39 Z" fill="#000000" fill-rule="nonzero" fill-opacity="1" /><path clip-path="url(#clip070)" d="M1437.91 1481.64 L1445.55 1481.64 L1445.55 1455.28 L1437.24 1456.95 L1437.24 1452.69 L1445.51 1451.02 L1450.18 1451.02 L1450.18 1481.64 L1457.82 1481.64 L1457.82 1485.58 L1437.91 1485.58 L1437.91 1481.64 Z" fill="#000000" fill-rule="nonzero" fill-opacity="1" /><path clip-path="url(#clip070)" d="M1727.68 1481.64 L1744 1481.64 L1744 1485.58 L1722.05 1485.58 L1722.05 1481.64 Q1724.72 1478.89 1729.3 1474.26 Q1733.91 1469.61 1735.09 1468.27 Q1737.33 1465.74 1738.21 1464.01 Q1739.11 1462.25 1739.11 1460.56 Q1739.11 1457.8 1737.17 1456.07 Q1735.25 1454.33 1732.15 1454.33 Q1729.95 1454.33 1727.49 1455.09 Q1725.06 1455.86 1722.28 1457.41 L1722.28 1452.69 Q1725.11 1451.55 1727.56 1450.97 Q1730.02 1450.39 1732.05 1450.39 Q1737.42 1450.39 1740.62 1453.08 Q1743.81 1455.77 1743.81 1460.26 Q1743.81 1462.39 1743 1464.31 Q1742.22 1466.2 1740.11 1468.8 Q1739.53 1469.47 1736.43 1472.69 Q1733.33 1475.88 1727.68 1481.64 Z" fill="#000000" fill-rule="nonzero" fill-opacity="1" /><path clip-path="url(#clip070)" d="M2022.77 1466.95 Q2026.12 1467.66 2028 1469.93 Q2029.9 1472.2 2029.9 1475.53 Q2029.9 1480.65 2026.38 1483.45 Q2022.86 1486.25 2016.38 1486.25 Q2014.2 1486.25 2011.89 1485.81 Q2009.59 1485.39 2007.14 1484.54 L2007.14 1480.02 Q2009.09 1481.16 2011.4 1481.74 Q2013.71 1482.32 2016.24 1482.32 Q2020.64 1482.32 2022.93 1480.58 Q2025.24 1478.84 2025.24 1475.53 Q2025.24 1472.48 2023.09 1470.77 Q2020.96 1469.03 2017.14 1469.03 L2013.11 1469.03 L2013.11 1465.19 L2017.33 1465.19 Q2020.78 1465.19 2022.6 1463.82 Q2024.43 1462.43 2024.43 1459.84 Q2024.43 1457.18 2022.53 1455.77 Q2020.66 1454.33 2017.14 1454.33 Q2015.22 1454.33 2013.02 1454.75 Q2010.82 1455.16 2008.18 1456.04 L2008.18 1451.88 Q2010.84 1451.14 2013.16 1450.77 Q2015.5 1450.39 2017.56 1450.39 Q2022.88 1450.39 2025.98 1452.83 Q2029.09 1455.23 2029.09 1459.35 Q2029.09 1462.22 2027.44 1464.21 Q2025.8 1466.18 2022.77 1466.95 Z" fill="#000000" fill-rule="nonzero" fill-opacity="1" /><path clip-path="url(#clip070)" d="M1172.16 1545.45 L1151.89 1545.45 Q1152.36 1554.96 1154.56 1559 Q1157.3 1563.97 1162.04 1563.97 Q1166.81 1563.97 1169.46 1558.97 Q1171.78 1554.58 1172.16 1545.45 M1172.07 1540.03 Q1171.18 1531 1169.46 1527.81 Q1166.72 1522.78 1162.04 1522.78 Q1157.17 1522.78 1154.59 1527.75 Q1152.56 1531.76 1151.95 1540.03 L1172.07 1540.03 M1162.04 1518.01 Q1169.68 1518.01 1174.04 1524.76 Q1178.4 1531.47 1178.4 1543.38 Q1178.4 1555.25 1174.04 1562 Q1169.68 1568.78 1162.04 1568.78 Q1154.37 1568.78 1150.04 1562 Q1145.68 1555.25 1145.68 1543.38 Q1145.68 1531.47 1150.04 1524.76 Q1154.37 1518.01 1162.04 1518.01 Z" fill="#000000" fill-rule="nonzero" fill-opacity="1" /><polyline clip-path="url(#clip072)" style="stroke:#000000; stroke-linecap:round; stroke-linejoin:round; stroke-width:2; stroke-opacity:0.1; fill:none" points="211.325,1384.24 2112.76,1384.24 "/>
<polyline clip-path="url(#clip072)" style="stroke:#000000; stroke-linecap:round; stroke-linejoin:round; stroke-width:2; stroke-opacity:0.1; fill:none" points="211.325,1167.9 2112.76,1167.9 "/>
<polyline clip-path="url(#clip072)" style="stroke:#000000; stroke-linecap:round; stroke-linejoin:round; stroke-width:2; stroke-opacity:0.1; fill:none" points="211.325,951.554 2112.76,951.554 "/>
<polyline clip-path="url(#clip072)" style="stroke:#000000; stroke-linecap:round; stroke-linejoin:round; stroke-width:2; stroke-opacity:0.1; fill:none" points="211.325,735.212 2112.76,735.212 "/>
<polyline clip-path="url(#clip072)" style="stroke:#000000; stroke-linecap:round; stroke-linejoin:round; stroke-width:2; stroke-opacity:0.1; fill:none" points="211.325,518.87 2112.76,518.87 "/>
<polyline clip-path="url(#clip072)" style="stroke:#000000; stroke-linecap:round; stroke-linejoin:round; stroke-width:2; stroke-opacity:0.1; fill:none" points="211.325,302.528 2112.76,302.528 "/>
<polyline clip-path="url(#clip072)" style="stroke:#000000; stroke-linecap:round; stroke-linejoin:round; stroke-width:2; stroke-opacity:0.1; fill:none" points="211.325,86.1857 2112.76,86.1857 "/>
<polyline clip-path="url(#clip070)" style="stroke:#000000; stroke-linecap:round; stroke-linejoin:round; stroke-width:4; stroke-opacity:1; fill:none" points="211.325,1423.18 211.325,47.2441 "/>
<polyline clip-path="url(#clip070)" style="stroke:#000000; stroke-linecap:round; stroke-linejoin:round; stroke-width:4; stroke-opacity:1; fill:none" points="211.325,1384.24 228.104,1384.24 "/>
<polyline clip-path="url(#clip070)" style="stroke:#000000; stroke-linecap:round; stroke-linejoin:round; stroke-width:4; stroke-opacity:1; fill:none" points="211.325,1167.9 228.104,1167.9 "/>
<polyline clip-path="url(#clip070)" style="stroke:#000000; stroke-linecap:round; stroke-linejoin:round; stroke-width:4; stroke-opacity:1; fill:none" points="211.325,951.554 228.104,951.554 "/>
<polyline clip-path="url(#clip070)" style="stroke:#000000; stroke-linecap:round; stroke-linejoin:round; stroke-width:4; stroke-opacity:1; fill:none" points="211.325,735.212 228.104,735.212 "/>
<polyline clip-path="url(#clip070)" style="stroke:#000000; stroke-linecap:round; stroke-linejoin:round; stroke-width:4; stroke-opacity:1; fill:none" points="211.325,518.87 228.104,518.87 "/>
<polyline clip-path="url(#clip070)" style="stroke:#000000; stroke-linecap:round; stroke-linejoin:round; stroke-width:4; stroke-opacity:1; fill:none" points="211.325,302.528 228.104,302.528 "/>
<polyline clip-path="url(#clip070)" style="stroke:#000000; stroke-linecap:round; stroke-linejoin:round; stroke-width:4; stroke-opacity:1; fill:none" points="211.325,86.1857 228.104,86.1857 "/>
<path clip-path="url(#clip070)" d="M114.26 1384.69 L143.936 1384.69 L143.936 1388.62 L114.26 1388.62 L114.26 1384.69 Z" fill="#000000" fill-rule="nonzero" fill-opacity="1" /><path clip-path="url(#clip070)" d="M168.195 1382.88 Q171.552 1383.6 173.427 1385.87 Q175.325 1388.14 175.325 1391.47 Q175.325 1396.59 171.806 1399.39 Q168.288 1402.19 161.806 1402.19 Q159.63 1402.19 157.315 1401.75 Q155.024 1401.33 152.57 1400.48 L152.57 1395.96 Q154.515 1397.1 156.829 1397.68 Q159.144 1398.25 161.667 1398.25 Q166.065 1398.25 168.357 1396.52 Q170.672 1394.78 170.672 1391.47 Q170.672 1388.42 168.519 1386.7 Q166.39 1384.97 162.57 1384.97 L158.542 1384.97 L158.542 1381.12 L162.755 1381.12 Q166.204 1381.12 168.033 1379.76 Q169.862 1378.37 169.862 1375.78 Q169.862 1373.12 167.964 1371.7 Q166.089 1370.27 162.57 1370.27 Q160.649 1370.27 158.45 1370.69 Q156.251 1371.1 153.612 1371.98 L153.612 1367.81 Q156.274 1367.07 158.589 1366.7 Q160.927 1366.33 162.987 1366.33 Q168.311 1366.33 171.413 1368.76 Q174.514 1371.17 174.514 1375.29 Q174.514 1378.16 172.871 1380.15 Q171.227 1382.12 168.195 1382.88 Z" fill="#000000" fill-rule="nonzero" fill-opacity="1" /><path clip-path="url(#clip070)" d="M115.209 1168.35 L144.885 1168.35 L144.885 1172.28 L115.209 1172.28 L115.209 1168.35 Z" fill="#000000" fill-rule="nonzero" fill-opacity="1" /><path clip-path="url(#clip070)" d="M159.005 1181.24 L175.325 1181.24 L175.325 1185.18 L153.38 1185.18 L153.38 1181.24 Q156.042 1178.49 160.626 1173.86 Q165.232 1169.2 166.413 1167.86 Q168.658 1165.34 169.538 1163.6 Q170.44 1161.84 170.44 1160.15 Q170.44 1157.4 168.496 1155.66 Q166.575 1153.93 163.473 1153.93 Q161.274 1153.93 158.82 1154.69 Q156.39 1155.45 153.612 1157.01 L153.612 1152.28 Q156.436 1151.15 158.89 1150.57 Q161.343 1149.99 163.38 1149.99 Q168.751 1149.99 171.945 1152.68 Q175.139 1155.36 175.139 1159.85 Q175.139 1161.98 174.329 1163.9 Q173.542 1165.8 171.436 1168.39 Q170.857 1169.07 167.755 1172.28 Q164.653 1175.48 159.005 1181.24 Z" fill="#000000" fill-rule="nonzero" fill-opacity="1" /><path clip-path="url(#clip070)" d="M114.839 952.005 L144.515 952.005 L144.515 955.941 L114.839 955.941 L114.839 952.005 Z" fill="#000000" fill-rule="nonzero" fill-opacity="1" /><path clip-path="url(#clip070)" d="M155.417 964.899 L163.056 964.899 L163.056 938.533 L154.746 940.2 L154.746 935.941 L163.01 934.274 L167.686 934.274 L167.686 964.899 L175.325 964.899 L175.325 968.834 L155.417 968.834 L155.417 964.899 Z" fill="#000000" fill-rule="nonzero" fill-opacity="1" /><path clip-path="url(#clip070)" d="M163.38 721.011 Q159.769 721.011 157.94 724.575 Q156.135 728.117 156.135 735.247 Q156.135 742.353 157.94 745.918 Q159.769 749.46 163.38 749.46 Q167.015 749.46 168.82 745.918 Q170.649 742.353 170.649 735.247 Q170.649 728.117 168.82 724.575 Q167.015 721.011 163.38 721.011 M163.38 717.307 Q169.19 717.307 172.246 721.913 Q175.325 726.497 175.325 735.247 Q175.325 743.973 172.246 748.58 Q169.19 753.163 163.38 753.163 Q157.57 753.163 154.491 748.58 Q151.436 743.973 151.436 735.247 Q151.436 726.497 154.491 721.913 Q157.57 717.307 163.38 717.307 Z" fill="#000000" fill-rule="nonzero" fill-opacity="1" /><path clip-path="url(#clip070)" d="M155.417 532.215 L163.056 532.215 L163.056 505.849 L154.746 507.516 L154.746 503.257 L163.01 501.59 L167.686 501.59 L167.686 532.215 L175.325 532.215 L175.325 536.15 L155.417 536.15 L155.417 532.215 Z" fill="#000000" fill-rule="nonzero" fill-opacity="1" /><path clip-path="url(#clip070)" d="M159.005 315.873 L175.325 315.873 L175.325 319.808 L153.38 319.808 L153.38 315.873 Q156.042 313.118 160.626 308.488 Q165.232 303.836 166.413 302.493 Q168.658 299.97 169.538 298.234 Q170.44 296.475 170.44 294.785 Q170.44 292.03 168.496 290.294 Q166.575 288.558 163.473 288.558 Q161.274 288.558 158.82 289.322 Q156.39 290.086 153.612 291.637 L153.612 286.914 Q156.436 285.78 158.89 285.201 Q161.343 284.623 163.38 284.623 Q168.751 284.623 171.945 287.308 Q175.139 289.993 175.139 294.484 Q175.139 296.613 174.329 298.535 Q173.542 300.433 171.436 303.025 Q170.857 303.697 167.755 306.914 Q164.653 310.109 159.005 315.873 Z" fill="#000000" fill-rule="nonzero" fill-opacity="1" /><path clip-path="url(#clip070)" d="M168.195 84.8315 Q171.552 85.5491 173.427 87.8176 Q175.325 90.0861 175.325 93.4194 Q175.325 98.5351 171.806 101.336 Q168.288 104.137 161.806 104.137 Q159.63 104.137 157.315 103.697 Q155.024 103.28 152.57 102.424 L152.57 97.9101 Q154.515 99.0444 156.829 99.6231 Q159.144 100.202 161.667 100.202 Q166.065 100.202 168.357 98.4657 Q170.672 96.7296 170.672 93.4194 Q170.672 90.3639 168.519 88.6509 Q166.39 86.9148 162.57 86.9148 L158.542 86.9148 L158.542 83.0723 L162.755 83.0723 Q166.204 83.0723 168.033 81.7065 Q169.862 80.3176 169.862 77.7251 Q169.862 75.063 167.964 73.651 Q166.089 72.2158 162.57 72.2158 Q160.649 72.2158 158.45 72.6325 Q156.251 73.0492 153.612 73.9288 L153.612 69.7621 Q156.274 69.0214 158.589 68.651 Q160.927 68.2807 162.987 68.2807 Q168.311 68.2807 171.413 70.7112 Q174.514 73.1186 174.514 77.239 Q174.514 80.1093 172.871 82.1 Q171.227 84.0676 168.195 84.8315 Z" fill="#000000" fill-rule="nonzero" fill-opacity="1" /><path clip-path="url(#clip070)" d="M28.3562 752.559 L28.3562 746.352 L58.275 735.212 L28.3562 724.072 L28.3562 717.865 L64.0042 731.233 L64.0042 739.191 L28.3562 752.559 Z" fill="#000000" fill-rule="nonzero" fill-opacity="1" /><polyline clip-path="url(#clip072)" style="stroke:#761b6d; stroke-linecap:round; stroke-linejoin:round; stroke-width:4; stroke-opacity:1; fill:none" points="265.139,856.909 280.213,857.462 295.287,859.119 298.864,859.773 310.361,861.664 325.435,865.127 340.509,869.563 349.787,872.884 355.583,874.77 370.657,880.535 383.112,885.996 385.731,887.048 400.805,893.862 411.276,899.107 415.878,901.236 430.952,908.867 437.061,912.219 446.026,916.787 461.1,925.04 461.598,925.331 476.174,933.276 485.12,938.442 491.248,941.761 506.322,950.36 508.32,951.554 521.396,958.912 531.201,964.666 536.47,967.586 551.544,976.263 554.089,977.777 566.618,984.844 577.022,990.889 581.692,993.467 596.766,1002.01 600.2,1004 611.84,1010.43 623.706,1017.11 626.914,1018.84 641.988,1027.08 647.67,1030.22 657.062,1035.2 672.136,1043.27 672.249,1043.34 687.21,1051.07 697.548,1056.45 702.284,1058.81 717.358,1066.35 723.783,1069.56 732.432,1073.71 747.506,1080.93 751.161,1082.67 762.58,1087.9 777.654,1094.75 779.964,1095.78 792.728,1101.3 807.802,1107.73 810.594,1108.89 822.876,1113.86 837.95,1119.82 843.619,1122.01 853.024,1125.51 868.098,1130.98 879.867,1135.12 883.172,1136.24 898.246,1141.19 913.32,1145.94 920.908,1148.23 928.394,1150.42 943.468,1154.61 958.542,1158.58 969.71,1161.34 973.616,1162.28 988.69,1165.66 1003.76,1168.79 1018.84,1171.67 1033.91,1174.28 1035,1174.45 1048.99,1176.56 1064.06,1178.56 1079.13,1180.29 1094.21,1181.74 1109.28,1182.9 1124.36,1183.77 1139.43,1184.36 1154.5,1184.65 1169.58,1184.65 1184.65,1184.36 1199.73,1183.77 1214.8,1182.9 1229.87,1181.74 1244.95,1180.29 1260.02,1178.56 1275.1,1176.56 1289.08,1174.45 1290.17,1174.28 1305.24,1171.67 1320.32,1168.79 1335.39,1165.66 1350.46,1162.28 1354.37,1161.34 1365.54,1158.58 1380.61,1154.61 1395.69,1150.42 1403.17,1148.23 1410.76,1145.94 1425.83,1141.19 1440.91,1136.24 1444.21,1135.12 1455.98,1130.98 1471.06,1125.51 1480.46,1122.01 1486.13,1119.82 1501.2,1113.86 1513.49,1108.89 1516.28,1107.73 1531.35,1101.3 1544.12,1095.78 1546.43,1094.75 1561.5,1087.9 1572.92,1082.67 1576.57,1080.93 1591.65,1073.71 1600.3,1069.56 1606.72,1066.35 1621.8,1058.81 1626.53,1056.45 1636.87,1051.07 1651.83,1043.34 1651.94,1043.27 1667.02,1035.2 1676.41,1030.22 1682.09,1027.08 1697.17,1018.84 1700.37,1017.11 1712.24,1010.43 1723.88,1004 1727.31,1002.01 1742.39,993.467 1747.06,990.889 1757.46,984.844 1769.99,977.777 1772.54,976.263 1787.61,967.586 1792.88,964.666 1802.68,958.912 1815.76,951.554 1817.76,950.36 1832.83,941.761 1838.96,938.442 1847.91,933.276 1862.48,925.331 1862.98,925.04 1878.05,916.787 1887.02,912.219 1893.13,908.867 1908.2,901.236 1912.81,899.107 1923.28,893.862 1938.35,887.048 1940.97,885.996 1953.42,880.535 1968.5,874.77 1974.29,872.884 1983.57,869.563 1998.65,865.127 2013.72,861.664 2025.22,859.773 2028.79,859.119 2043.87,857.462 2058.94,856.909 "/>
<polyline clip-path="url(#clip072)" style="stroke:#761b6d; stroke-linecap:round; stroke-linejoin:round; stroke-width:4; stroke-opacity:1; fill:none" points="2058.94,613.515 2043.87,612.962 2028.79,611.305 2025.22,610.651 2013.72,608.76 1998.65,605.297 1983.57,600.861 1974.29,597.54 1968.5,595.654 1953.42,589.889 1940.97,584.428 1938.35,583.376 1923.28,576.562 1912.81,571.316 1908.2,569.188 1893.13,561.557 1887.02,558.205 1878.05,553.637 1862.98,545.383 1862.48,545.093 1847.91,537.148 1838.96,531.982 1832.83,528.663 1817.76,520.064 1815.76,518.87 1802.68,511.512 1792.88,505.758 1787.61,502.838 1772.54,494.161 1769.99,492.647 1757.46,485.58 1747.06,479.535 1742.39,476.957 1727.31,468.414 1723.88,466.423 1712.24,459.995 1700.37,453.312 1697.17,451.587 1682.09,443.348 1676.41,440.2 1667.02,435.223 1651.94,427.15 1651.83,427.088 1636.87,419.35 1626.53,413.977 1621.8,411.613 1606.72,404.076 1600.3,400.865 1591.65,396.71 1576.57,389.492 1572.92,387.753 1561.5,382.522 1546.43,375.678 1544.12,374.642 1531.35,369.121 1516.28,362.698 1513.49,361.53 1501.2,356.568 1486.13,350.606 1480.46,348.419 1471.06,344.91 1455.98,339.442 1444.21,335.307 1440.91,334.183 1425.83,329.237 1410.76,324.484 1403.17,322.195 1395.69,320.008 1380.61,315.816 1365.54,311.849 1354.37,309.084 1350.46,308.146 1335.39,304.765 1320.32,301.631 1305.24,298.754 1290.17,296.141 1289.08,295.972 1275.1,293.864 1260.02,291.862 1244.95,290.135 1229.87,288.689 1214.8,287.527 1199.73,286.653 1184.65,286.068 1169.58,285.776 1154.5,285.776 1139.43,286.068 1124.36,286.653 1109.28,287.527 1094.21,288.689 1079.13,290.135 1064.06,291.862 1048.99,293.864 1035,295.972 1033.91,296.141 1018.84,298.754 1003.76,301.631 988.69,304.765 973.616,308.146 969.71,309.084 958.542,311.849 943.468,315.816 928.394,320.008 920.908,322.195 913.32,324.484 898.246,329.237 883.172,334.183 879.867,335.307 868.098,339.442 853.024,344.91 843.619,348.419 837.95,350.606 822.876,356.568 810.594,361.53 807.802,362.698 792.728,369.121 779.964,374.642 777.654,375.678 762.58,382.522 751.161,387.753 747.506,389.492 732.432,396.71 723.783,400.865 717.358,404.076 702.284,411.613 697.548,413.977 687.21,419.35 672.249,427.088 672.136,427.15 657.062,435.223 647.67,440.2 641.988,443.348 626.914,451.587 623.706,453.312 611.84,459.995 600.2,466.423 596.766,468.414 581.692,476.957 577.022,479.535 566.618,485.58 554.089,492.647 551.544,494.161 536.47,502.838 531.201,505.758 521.396,511.512 508.32,518.87 506.322,520.064 491.248,528.663 485.12,531.982 476.174,537.148 461.598,545.093 461.1,545.383 446.026,553.637 437.061,558.205 430.952,561.557 415.878,569.188 411.276,571.316 400.805,576.562 385.731,583.376 383.112,584.428 370.657,589.889 355.583,595.654 349.787,597.54 340.509,600.861 325.435,605.297 310.361,608.76 298.864,610.651 295.287,611.305 280.213,612.962 265.139,613.515 "/>
<polyline clip-path="url(#clip072)" style="stroke:#4d0c6b; stroke-linecap:round; stroke-linejoin:round; stroke-width:4; stroke-opacity:1; fill:none" points="565.45,754.879 566.618,761.141 567.859,767.991 571.422,781.103 576.173,794.214 581.692,806.402 582.1,807.326 589.04,820.438 596.766,832.947 597.13,833.549 606.174,846.661 611.84,853.962 616.262,859.773 626.914,872.372 627.34,872.884 639.335,885.996 641.988,888.655 652.279,899.107 657.062,903.592 666.167,912.219 672.136,917.471 681,925.331 687.21,930.47 696.796,938.442 702.284,942.722 713.589,951.554 717.358,954.326 731.429,964.666 732.432,965.362 747.506,975.787 750.402,977.777 762.58,985.706 770.614,990.889 777.654,995.204 792.181,1004 792.728,1004.32 807.802,1012.88 815.389,1017.11 822.876,1021.1 837.95,1028.96 840.437,1030.22 853.024,1036.35 867.792,1043.34 868.098,1043.47 883.172,1050.09 898.159,1056.45 898.246,1056.48 913.32,1062.38 928.394,1068.01 932.735,1069.56 943.468,1073.23 958.542,1078.12 973.49,1082.67 973.616,1082.71 988.69,1086.84 1003.76,1090.67 1018.84,1094.19 1026.37,1095.78 1033.91,1097.32 1048.99,1100.08 1064.06,1102.51 1079.13,1104.61 1094.21,1106.37 1109.28,1107.78 1124.36,1108.84 1125.53,1108.89 1139.43,1109.53 1154.5,1109.87 1169.58,1109.87 1184.65,1109.53 1198.55,1108.89 1199.73,1108.84 1214.8,1107.78 1229.87,1106.37 1244.95,1104.61 1260.02,1102.51 1275.1,1100.08 1290.17,1097.32 1297.71,1095.78 1305.24,1094.19 1320.32,1090.67 1335.39,1086.84 1350.46,1082.71 1350.59,1082.67 1365.54,1078.12 1380.61,1073.23 1391.35,1069.56 1395.69,1068.01 1410.76,1062.38 1425.83,1056.48 1425.92,1056.45 1440.91,1050.09 1455.98,1043.47 1456.29,1043.34 1471.06,1036.35 1483.64,1030.22 1486.13,1028.96 1501.2,1021.1 1508.69,1017.11 1516.28,1012.88 1531.35,1004.32 1531.9,1004 1546.43,995.204 1553.47,990.889 1561.5,985.706 1573.68,977.777 1576.57,975.787 1591.65,965.362 1592.65,964.666 1606.72,954.326 1610.49,951.554 1621.8,942.722 1627.28,938.442 1636.87,930.47 1643.08,925.331 1651.94,917.471 1657.91,912.219 1667.02,903.592 1671.8,899.107 1682.09,888.655 1684.75,885.996 1696.74,872.884 1697.17,872.372 1707.82,859.773 1712.24,853.962 1717.91,846.661 1726.95,833.549 1727.31,832.947 1735.04,820.438 1741.98,807.326 1742.39,806.402 1747.91,794.214 1752.66,781.103 1756.22,767.991 1757.46,761.141 1758.63,754.879 1759.85,741.768 1759.85,728.656 1758.63,715.545 1757.46,709.283 1756.22,702.433 1752.66,689.321 1747.91,676.21 1742.39,664.022 1741.98,663.098 1735.04,649.986 1727.31,637.477 1726.95,636.875 1717.91,623.763 1712.24,616.462 1707.82,610.651 1697.17,598.052 1696.74,597.54 1684.75,584.428 1682.09,581.769 1671.8,571.316 1667.02,566.832 1657.91,558.205 1651.94,552.953 1643.08,545.093 1636.87,539.953 1627.28,531.982 1621.8,527.702 1610.49,518.87 1606.72,516.098 1592.65,505.758 1591.65,505.062 1576.57,494.637 1573.68,492.647 1561.5,484.718 1553.47,479.535 1546.43,475.22 1531.9,466.423 1531.35,466.108 1516.28,457.545 1508.69,453.312 1501.2,449.324 1486.13,441.465 1483.64,440.2 1471.06,434.076 1456.29,427.088 1455.98,426.95 1440.91,420.329 1425.92,413.977 1425.83,413.941 1410.76,408.048 1395.69,402.411 1391.35,400.865 1380.61,397.192 1365.54,392.309 1350.59,387.753 1350.46,387.717 1335.39,383.584 1320.32,379.755 1305.24,376.238 1297.71,374.642 1290.17,373.102 1275.1,370.343 1260.02,367.911 1244.95,365.814 1229.87,364.058 1214.8,362.647 1199.73,361.586 1198.55,361.53 1184.65,360.899 1169.58,360.556 1154.5,360.556 1139.43,360.899 1125.53,361.53 1124.36,361.586 1109.28,362.647 1094.21,364.058 1079.13,365.814 1064.06,367.911 1048.99,370.343 1033.91,373.102 1026.37,374.642 1018.84,376.238 1003.76,379.755 988.69,383.584 973.616,387.717 973.49,387.753 958.542,392.309 943.468,397.192 932.735,400.865 928.394,402.411 913.32,408.048 898.246,413.941 898.159,413.977 883.172,420.329 868.098,426.95 867.792,427.088 853.024,434.076 840.437,440.2 837.95,441.465 822.876,449.324 815.389,453.312 807.802,457.545 792.728,466.108 792.181,466.423 777.654,475.22 770.614,479.535 762.58,484.718 750.402,492.647 747.506,494.637 732.432,505.062 731.429,505.758 717.358,516.098 713.589,518.87 702.284,527.702 696.796,531.982 687.21,539.953 681,545.093 672.136,552.953 666.167,558.205 657.062,566.832 652.279,571.316 641.988,581.769 639.335,584.428 627.34,597.54 626.914,598.052 616.262,610.651 611.84,616.462 606.174,623.763 597.13,636.875 596.766,637.477 589.04,649.986 582.1,663.098 581.692,664.022 576.173,676.21 571.422,689.321 567.859,702.433 566.618,709.283 565.45,715.545 564.226,728.656 564.226,741.768 565.45,754.879 "/>
<polyline clip-path="url(#clip072)" style="stroke:#2d0a58; stroke-linecap:round; stroke-linejoin:round; stroke-width:4; stroke-opacity:1; fill:none" points="716.867,767.991 717.358,770.039 720.015,781.103 724.213,794.214 729.461,807.326 732.432,813.511 735.77,820.438 743.143,833.549 747.506,840.338 751.595,846.661 761.134,859.773 762.58,861.561 771.817,872.884 777.654,879.388 783.656,885.996 792.728,895.152 796.707,899.107 807.802,909.29 811.052,912.219 822.876,922.114 826.802,925.331 837.95,933.855 844.098,938.442 853.024,944.685 863.123,951.554 868.098,954.738 883.172,964.085 884.141,964.666 898.246,972.636 907.713,977.777 913.32,980.662 928.394,988.079 934.393,990.889 943.468,994.926 958.542,1001.27 965.423,1004 973.616,1007.09 988.69,1012.4 1003.1,1017.11 1003.76,1017.32 1018.84,1021.63 1033.91,1025.55 1048.99,1029.07 1054.63,1030.22 1064.06,1032.08 1079.13,1034.63 1094.21,1036.77 1109.28,1038.48 1124.36,1039.78 1139.43,1040.64 1154.5,1041.07 1169.58,1041.07 1184.65,1040.64 1199.73,1039.78 1214.8,1038.48 1229.87,1036.77 1244.95,1034.63 1260.02,1032.08 1269.45,1030.22 1275.1,1029.07 1290.17,1025.55 1305.24,1021.63 1320.32,1017.32 1320.98,1017.11 1335.39,1012.4 1350.46,1007.09 1358.66,1004 1365.54,1001.27 1380.61,994.926 1389.69,990.889 1395.69,988.079 1410.76,980.662 1416.37,977.777 1425.83,972.636 1439.94,964.666 1440.91,964.085 1455.98,954.738 1460.96,951.554 1471.06,944.685 1479.98,938.442 1486.13,933.855 1497.28,925.331 1501.2,922.114 1513.03,912.219 1516.28,909.29 1527.37,899.107 1531.35,895.152 1540.42,885.996 1546.43,879.388 1552.26,872.884 1561.5,861.561 1562.95,859.773 1572.49,846.661 1576.57,840.338 1580.94,833.549 1588.31,820.438 1591.65,813.511 1594.62,807.326 1599.87,794.214 1604.07,781.103 1606.72,770.039 1607.21,767.991 1609.31,754.879 1610.36,741.768 1610.36,728.656 1609.31,715.545 1607.21,702.433 1606.72,700.385 1604.07,689.321 1599.87,676.21 1594.62,663.098 1591.65,656.913 1588.31,649.986 1580.94,636.875 1576.57,630.086 1572.49,623.763 1562.95,610.651 1561.5,608.863 1552.26,597.54 1546.43,591.036 1540.42,584.428 1531.35,575.272 1527.37,571.316 1516.28,561.134 1513.03,558.205 1501.2,548.31 1497.28,545.093 1486.13,536.569 1479.98,531.982 1471.06,525.739 1460.96,518.87 1455.98,515.686 1440.91,506.338 1439.94,505.758 1425.83,497.788 1416.37,492.647 1410.76,489.762 1395.69,482.345 1389.69,479.535 1380.61,475.498 1365.54,469.149 1358.66,466.423 1350.46,463.332 1335.39,458.019 1320.98,453.312 1320.32,453.105 1305.24,448.789 1290.17,444.87 1275.1,441.359 1269.45,440.2 1260.02,438.348 1244.95,435.796 1229.87,433.658 1214.8,431.94 1199.73,430.648 1184.65,429.784 1169.58,429.351 1154.5,429.351 1139.43,429.784 1124.36,430.648 1109.28,431.94 1094.21,433.658 1079.13,435.796 1064.06,438.348 1054.63,440.2 1048.99,441.359 1033.91,444.87 1018.84,448.789 1003.76,453.105 1003.1,453.312 988.69,458.019 973.616,463.332 965.423,466.423 958.542,469.149 943.468,475.498 934.393,479.535 928.394,482.345 913.32,489.762 907.713,492.647 898.246,497.788 884.141,505.758 883.172,506.338 868.098,515.686 863.123,518.87 853.024,525.739 844.098,531.982 837.95,536.569 826.802,545.093 822.876,548.31 811.052,558.205 807.802,561.134 796.707,571.316 792.728,575.272 783.656,584.428 777.654,591.036 771.817,597.54 762.58,608.863 761.134,610.651 751.595,623.763 747.506,630.086 743.143,636.875 735.77,649.986 732.432,656.913 729.461,663.098 724.213,676.21 720.015,689.321 717.358,700.385 716.867,702.433 714.769,715.545 713.72,728.656 713.72,741.768 714.769,754.879 716.867,767.991 "/>
<circle clip-path="url(#clip072)" cx="1610.49" cy="735.212" r="14.4" fill="#e26f46" fill-rule="evenodd" fill-opacity="1" stroke="#000000" stroke-opacity="1" stroke-width="3.2"/>
<circle clip-path="url(#clip072)" cx="1610.49" cy="951.554" r="14.4" fill="#e26f46" fill-rule="evenodd" fill-opacity="1" stroke="#000000" stroke-opacity="1" stroke-width="3.2"/>
<circle clip-path="url(#clip072)" cx="1325" cy="1167.9" r="14.4" fill="#e26f46" fill-rule="evenodd" fill-opacity="1" stroke="#000000" stroke-opacity="1" stroke-width="3.2"/>
<polyline clip-path="url(#clip072)" style="stroke:#000000; stroke-linecap:round; stroke-linejoin:round; stroke-width:8; stroke-opacity:1; fill:none" points="1610.49,735.212 1610.49,951.554 "/>
<polyline clip-path="url(#clip072)" style="stroke:#000000; stroke-linecap:round; stroke-linejoin:round; stroke-width:8; stroke-opacity:1; fill:none" points="1628.49,915.554 1610.49,951.554 1592.49,915.554 "/>
<polyline clip-path="url(#clip072)" style="stroke:#000000; stroke-linecap:round; stroke-linejoin:round; stroke-width:8; stroke-opacity:1; fill:none" points="1610.49,951.554 1610.49,735.212 "/>
<polyline clip-path="url(#clip072)" style="stroke:#000000; stroke-linecap:round; stroke-linejoin:round; stroke-width:8; stroke-opacity:1; fill:none" points="1610.49,951.554 1325,1167.9 "/>
<polyline clip-path="url(#clip072)" style="stroke:#000000; stroke-linecap:round; stroke-linejoin:round; stroke-width:8; stroke-opacity:1; fill:none" points="1364.56,1160.5 1325,1167.9 1342.82,1131.81 "/>
<polyline clip-path="url(#clip072)" style="stroke:#000000; stroke-linecap:round; stroke-linejoin:round; stroke-width:8; stroke-opacity:1; fill:none" points="1325,1167.9 1610.49,951.554 "/>
<defs>
  <clipPath id="clip073">
    <rect x="2160" y="47" width="73" height="1377"/>
  </clipPath>
</defs>
<polyline clip-path="url(#clip073)" style="stroke:#2d0a58; stroke-linecap:round; stroke-linejoin:round; stroke-width:4; stroke-opacity:1; fill:none" points="2160.76,1211.64 2232.76,1211.64 "/>
<polyline clip-path="url(#clip073)" style="stroke:#4f0d6c; stroke-linecap:round; stroke-linejoin:round; stroke-width:4; stroke-opacity:1; fill:none" points="2160.76,1105.79 2232.76,1105.79 "/>
<polyline clip-path="url(#clip073)" style="stroke:#781c6d; stroke-linecap:round; stroke-linejoin:round; stroke-width:4; stroke-opacity:1; fill:none" points="2160.76,966.371 2232.76,966.371 "/>
<path clip-path="url(#clip070)" d="M2280.7 1193.81 Q2277.09 1193.81 2275.26 1197.38 Q2273.45 1200.92 2273.45 1208.05 Q2273.45 1215.15 2275.26 1218.72 Q2277.09 1222.26 2280.7 1222.26 Q2284.33 1222.26 2286.14 1218.72 Q2287.97 1215.15 2287.97 1208.05 Q2287.97 1200.92 2286.14 1197.38 Q2284.33 1193.81 2280.7 1193.81 M2280.7 1190.11 Q2286.51 1190.11 2289.57 1194.71 Q2292.64 1199.3 2292.64 1208.05 Q2292.64 1216.77 2289.57 1221.38 Q2286.51 1225.96 2280.7 1225.96 Q2274.89 1225.96 2271.81 1221.38 Q2268.76 1216.77 2268.76 1208.05 Q2268.76 1199.3 2271.81 1194.71 Q2274.89 1190.11 2280.7 1190.11 Z" fill="#000000" fill-rule="nonzero" fill-opacity="1" /><path clip-path="url(#clip070)" d="M2269.43 1009.65 L2277.07 1009.65 L2277.07 983.284 L2268.76 984.95 L2268.76 980.691 L2277.02 979.025 L2281.7 979.025 L2281.7 1009.65 L2289.33 1009.65 L2289.33 1013.58 L2269.43 1013.58 L2269.43 1009.65 Z" fill="#000000" fill-rule="nonzero" fill-opacity="1" /><path clip-path="url(#clip070)" d="M2274.38 797.941 L2290.7 797.941 L2290.7 801.876 L2268.76 801.876 L2268.76 797.941 Q2271.42 795.186 2276 790.556 Q2280.61 785.904 2281.79 784.561 Q2284.03 782.038 2284.91 780.302 Q2285.82 778.543 2285.82 776.853 Q2285.82 774.098 2283.87 772.362 Q2281.95 770.626 2278.85 770.626 Q2276.65 770.626 2274.2 771.39 Q2271.77 772.154 2268.99 773.705 L2268.99 768.982 Q2271.81 767.848 2274.27 767.27 Q2276.72 766.691 2278.76 766.691 Q2284.13 766.691 2287.32 769.376 Q2290.52 772.061 2290.52 776.552 Q2290.52 778.682 2289.7 780.603 Q2288.92 782.501 2286.81 785.094 Q2286.23 785.765 2283.13 788.982 Q2280.03 792.177 2274.38 797.941 Z" fill="#000000" fill-rule="nonzero" fill-opacity="1" /><path clip-path="url(#clip070)" d="M2284.38 571.533 Q2287.74 572.251 2289.61 574.519 Q2291.51 576.788 2291.51 580.121 Q2291.51 585.237 2287.99 588.037 Q2284.47 590.838 2277.99 590.838 Q2275.82 590.838 2273.5 590.399 Q2271.21 589.982 2268.76 589.125 L2268.76 584.612 Q2270.7 585.746 2273.02 586.325 Q2275.33 586.903 2277.85 586.903 Q2282.25 586.903 2284.54 585.167 Q2286.86 583.431 2286.86 580.121 Q2286.86 577.065 2284.7 575.352 Q2282.58 573.616 2278.76 573.616 L2274.73 573.616 L2274.73 569.774 L2278.94 569.774 Q2282.39 569.774 2284.22 568.408 Q2286.05 567.019 2286.05 564.427 Q2286.05 561.764 2284.15 560.352 Q2282.27 558.917 2278.76 558.917 Q2276.83 558.917 2274.64 559.334 Q2272.44 559.751 2269.8 560.63 L2269.8 556.464 Q2272.46 555.723 2274.77 555.352 Q2277.11 554.982 2279.17 554.982 Q2284.5 554.982 2287.6 557.413 Q2290.7 559.82 2290.7 563.94 Q2290.7 566.811 2289.06 568.801 Q2287.41 570.769 2284.38 571.533 Z" fill="#000000" fill-rule="nonzero" fill-opacity="1" /><path clip-path="url(#clip070)" d="M2284.36 347.972 L2272.55 366.421 L2284.36 366.421 L2284.36 347.972 M2283.13 343.898 L2289.01 343.898 L2289.01 366.421 L2293.94 366.421 L2293.94 370.31 L2289.01 370.31 L2289.01 378.458 L2284.36 378.458 L2284.36 370.31 L2268.76 370.31 L2268.76 365.796 L2283.13 343.898 Z" fill="#000000" fill-rule="nonzero" fill-opacity="1" /><path clip-path="url(#clip070)" d="M2270.21 132.19 L2288.57 132.19 L2288.57 136.125 L2274.5 136.125 L2274.5 144.597 Q2275.52 144.25 2276.53 144.088 Q2277.55 143.903 2278.57 143.903 Q2284.36 143.903 2287.74 147.074 Q2291.12 150.245 2291.12 155.662 Q2291.12 161.24 2287.64 164.342 Q2284.17 167.421 2277.85 167.421 Q2275.68 167.421 2273.41 167.051 Q2271.16 166.68 2268.76 165.939 L2268.76 161.24 Q2270.84 162.375 2273.06 162.93 Q2275.28 163.486 2277.76 163.486 Q2281.77 163.486 2284.1 161.379 Q2286.44 159.273 2286.44 155.662 Q2286.44 152.051 2284.1 149.944 Q2281.77 147.838 2277.76 147.838 Q2275.89 147.838 2274.01 148.254 Q2272.16 148.671 2270.21 149.551 L2270.21 132.19 Z" fill="#000000" fill-rule="nonzero" fill-opacity="1" /><polyline clip-path="url(#clip070)" style="stroke:#000000; stroke-linecap:round; stroke-linejoin:round; stroke-width:4; stroke-opacity:1; fill:none" points="2232.76,1423.18 2232.76,1211.64 2256.76,1211.64 2232.76,1211.64 2232.76,999.933 2256.76,999.933 2232.76,999.933 2232.76,788.225 2256.76,788.225 2232.76,788.225 2232.76,576.516 2256.76,576.516 2232.76,576.516 2232.76,364.807 2256.76,364.807 2232.76,364.807 2232.76,153.098 2256.76,153.098 2232.76,153.098 2232.76,47.2441 "/>
</svg>