<?xml version="1.0" encoding="utf-8"?>
<svg xmlns="http://www.w3.org/2000/svg" xmlns:xlink="http://www.w3.org/1999/xlink" width="600" height="400" viewBox="0 0 2400 1600">
<defs>
  <clipPath id="clip240">
    <rect x="0" y="0" width="2400" height="1600"/>
  </clipPath>
</defs>
<path clip-path="url(#clip240)" d="M0 1600 L2400 1600 L2400 8.88178e-14 L0 8.88178e-14  Z" fill="#ffffff" fill-rule="evenodd" fill-opacity="1"/>
<defs>
  <clipPath id="clip241">
    <rect x="480" y="0" width="1681" height="1600"/>
  </clipPath>
</defs>
<path clip-path="url(#clip240)" d="M247.459 1423.18 L2352.76 1423.18 L2352.76 47.2441 L247.459 47.2441  Z" fill="#ffffff" fill-rule="evenodd" fill-opacity="1"/>
<defs>
  <clipPath id="clip242">
    <rect x="247" y="47" width="2106" height="1377"/>
  </clipPath>
</defs>
<polyline clip-path="url(#clip242)" style="stroke:#000000; stroke-linecap:round; stroke-linejoin:round; stroke-width:2; stroke-opacity:0.1; fill:none" points="307.043,1423.18 307.043,47.2441 "/>
<polyline clip-path="url(#clip242)" style="stroke:#000000; stroke-linecap:round; stroke-linejoin:round; stroke-width:2; stroke-opacity:0.1; fill:none" points="758.436,1423.18 758.436,47.2441 "/>
<polyline clip-path="url(#clip242)" style="stroke:#000000; stroke-linecap:round; stroke-linejoin:round; stroke-width:2; stroke-opacity:0.1; fill:none" points="1209.83,1423.18 1209.83,47.2441 "/>
<polyline clip-path="url(#clip242)" style="stroke:#000000; stroke-linecap:round; stroke-linejoin:round; stroke-width:2; stroke-opacity:0.1; fill:none" points="1661.22,1423.18 1661.22,47.2441 "/>
<polyline clip-path="url(#clip242)" style="stroke:#000000; stroke-linecap:round; stroke-linejoin:round; stroke-width:2; stroke-opacity:0.1; fill:none" points="2112.61,1423.18 2112.61,47.2441 "/>
<polyline clip-path="url(#clip240)" style="stroke:#000000; stroke-linecap:round; stroke-linejoin:round; stroke-width:4; stroke-opacity:1; fill:none" points="247.459,1423.18 2352.76,1423.18 "/>
<polyline clip-path="url(#clip240)" style="stroke:#000000; stroke-linecap:round; stroke-linejoin:round; stroke-width:4; stroke-opacity:1; fill:none" points="307.043,1423.18 307.043,1404.28 "/>
<polyline clip-path="url(#clip240)" style="stroke:#000000; stroke-linecap:round; stroke-linejoin:round; stroke-width:4; stroke-opacity:1; fill:none" points="758.436,1423.18 758.436,1404.28 "/>
<polyline clip-path="url(#clip240)" style="stroke:#000000; stroke-linecap:round; stroke-linejoin:round; stroke-width:4; stroke-opacity:1; fill:none" points="1209.83,1423.18 1209.83,1404.28 "/>
<polyline clip-path="url(#clip240)" style="stroke:#000000; stroke-linecap:round; stroke-linejoin:round; stroke-width:4; stroke-opacity:1; fill:none" points="1661.22,1423.18 1661.22,1404.28 "/>
<polyline clip-path="url(#clip240)" style="stroke:#000000; stroke-linecap:round; stroke-linejoin:round; stroke-width:4; stroke-opacity:1; fill:none" points="2112.61,1423.18 2112.61,1404.28 "/>
<path clip-path="url(#clip240)" d="M284.427 1454.1 Q280.816 1454.1 278.987 1457.66 Q277.182 1461.2 277.182 1468.33 Q277.182 1475.44 278.987 1479.01 Q280.816 1482.55 284.427 1482.55 Q288.061 1482.55 289.867 1479.01 Q291.695 1475.44 291.695 1468.33 Q291.695 1461.2 289.867 1457.66 Q288.061 1454.1 284.427 1454.1 M284.427 1450.39 Q290.237 1450.39 293.293 1455 Q296.371 1459.58 296.371 1468.33 Q296.371 1477.06 293.293 1481.67 Q290.237 1486.25 284.427 1486.25 Q278.617 1486.25 275.538 1481.67 Q272.483 1477.06 272.483 1468.33 Q272.483 1459.58 275.538 1455 Q278.617 1450.39 284.427 1450.39 Z" fill="#000000" fill-rule="nonzero" fill-opacity="1" /><path clip-path="url(#clip240)" d="M304.589 1479.7 L309.473 1479.7 L309.473 1485.58 L304.589 1485.58 L304.589 1479.7 Z" fill="#000000" fill-rule="nonzero" fill-opacity="1" /><path clip-path="url(#clip240)" d="M329.658 1454.1 Q326.047 1454.1 324.218 1457.66 Q322.413 1461.2 322.413 1468.33 Q322.413 1475.44 324.218 1479.01 Q326.047 1482.55 329.658 1482.55 Q333.292 1482.55 335.098 1479.01 Q336.927 1475.44 336.927 1468.33 Q336.927 1461.2 335.098 1457.66 Q333.292 1454.1 329.658 1454.1 M329.658 1450.39 Q335.468 1450.39 338.524 1455 Q341.603 1459.58 341.603 1468.33 Q341.603 1477.06 338.524 1481.67 Q335.468 1486.25 329.658 1486.25 Q323.848 1486.25 320.769 1481.67 Q317.714 1477.06 317.714 1468.33 Q317.714 1459.58 320.769 1455 Q323.848 1450.39 329.658 1450.39 Z" fill="#000000" fill-rule="nonzero" fill-opacity="1" /><path clip-path="url(#clip240)" d="M730.172 1481.64 L746.491 1481.64 L746.491 1485.58 L724.547 1485.58 L724.547 1481.64 Q727.209 1478.89 731.792 1474.26 Q736.399 1469.61 737.579 1468.27 Q739.825 1465.74 740.704 1464.01 Q741.607 1462.25 741.607 1460.56 Q741.607 1457.8 739.663 1456.07 Q737.741 1454.33 734.639 1454.33 Q732.44 1454.33 729.987 1455.09 Q727.556 1455.86 724.778 1457.41 L724.778 1452.69 Q727.602 1451.55 730.056 1450.97 Q732.51 1450.39 734.547 1450.39 Q739.917 1450.39 743.112 1453.08 Q746.306 1455.77 746.306 1460.26 Q746.306 1462.39 745.496 1464.31 Q744.709 1466.2 742.602 1468.8 Q742.024 1469.47 738.922 1472.69 Q735.82 1475.88 730.172 1481.64 Z" fill="#000000" fill-rule="nonzero" fill-opacity="1" /><path clip-path="url(#clip240)" d="M756.306 1479.7 L761.19 1479.7 L761.19 1485.58 L756.306 1485.58 L756.306 1479.7 Z" fill="#000000" fill-rule="nonzero" fill-opacity="1" /><path clip-path="url(#clip240)" d="M771.422 1451.02 L789.778 1451.02 L789.778 1454.96 L775.704 1454.96 L775.704 1463.43 Q776.723 1463.08 777.741 1462.92 Q778.76 1462.73 779.778 1462.73 Q785.565 1462.73 788.945 1465.9 Q792.324 1469.08 792.324 1474.49 Q792.324 1480.07 788.852 1483.17 Q785.38 1486.25 779.061 1486.25 Q776.885 1486.25 774.616 1485.88 Q772.371 1485.51 769.963 1484.77 L769.963 1480.07 Q772.047 1481.2 774.269 1481.76 Q776.491 1482.32 778.968 1482.32 Q782.973 1482.32 785.311 1480.21 Q787.648 1478.1 787.648 1474.49 Q787.648 1470.88 785.311 1468.77 Q782.973 1466.67 778.968 1466.67 Q777.093 1466.67 775.218 1467.08 Q773.366 1467.5 771.422 1468.38 L771.422 1451.02 Z" fill="#000000" fill-rule="nonzero" fill-opacity="1" /><path clip-path="url(#clip240)" d="M1176.99 1451.02 L1195.35 1451.02 L1195.35 1454.96 L1181.28 1454.96 L1181.28 1463.43 Q1182.29 1463.08 1183.31 1462.92 Q1184.33 1462.73 1185.35 1462.73 Q1191.14 1462.73 1194.52 1465.9 Q1197.9 1469.08 1197.9 1474.49 Q1197.9 1480.07 1194.42 1483.17 Q1190.95 1486.25 1184.63 1486.25 Q1182.46 1486.25 1180.19 1485.88 Q1177.94 1485.51 1175.53 1484.77 L1175.53 1480.07 Q1177.62 1481.2 1179.84 1481.76 Q1182.06 1482.32 1184.54 1482.32 Q1188.54 1482.32 1190.88 1480.21 Q1193.22 1478.1 1193.22 1474.49 Q1193.22 1470.88 1190.88 1468.77 Q1188.54 1466.67 1184.54 1466.67 Q1182.66 1466.67 1180.79 1467.08 Q1178.94 1467.5 1176.99 1468.38 L1176.99 1451.02 Z" fill="#000000" fill-rule="nonzero" fill-opacity="1" /><path clip-path="url(#clip240)" d="M1207.11 1479.7 L1211.99 1479.7 L1211.99 1485.58 L1207.11 1485.58 L1207.11 1479.7 Z" fill="#000000" fill-rule="nonzero" fill-opacity="1" /><path clip-path="url(#clip240)" d="M1232.18 1454.1 Q1228.57 1454.1 1226.74 1457.66 Q1224.93 1461.2 1224.93 1468.33 Q1224.93 1475.44 1226.74 1479.01 Q1228.57 1482.55 1232.18 1482.55 Q1235.81 1482.55 1237.62 1479.01 Q1239.45 1475.44 1239.45 1468.33 Q1239.45 1461.2 1237.62 1457.66 Q1235.81 1454.1 1232.18 1454.1 M1232.18 1450.39 Q1237.99 1450.39 1241.04 1455 Q1244.12 1459.58 1244.12 1468.33 Q1244.12 1477.06 1241.04 1481.67 Q1237.99 1486.25 1232.18 1486.25 Q1226.37 1486.25 1223.29 1481.67 Q1220.23 1477.06 1220.23 1468.33 Q1220.23 1459.58 1223.29 1455 Q1226.37 1450.39 1232.18 1450.39 Z" fill="#000000" fill-rule="nonzero" fill-opacity="1" /><path clip-path="url(#clip240)" d="M1627.54 1451.02 L1649.76 1451.02 L1649.76 1453.01 L1637.22 1485.58 L1632.33 1485.58 L1644.14 1454.96 L1627.54 1454.96 L1627.54 1451.02 Z" fill="#000000" fill-rule="nonzero" fill-opacity="1" /><path clip-path="url(#clip240)" d="M1658.88 1479.7 L1663.77 1479.7 L1663.77 1485.58 L1658.88 1485.58 L1658.88 1479.7 Z" fill="#000000" fill-rule="nonzero" fill-opacity="1" /><path clip-path="url(#clip240)" d="M1674 1451.02 L1692.36 1451.02 L1692.36 1454.96 L1678.28 1454.96 L1678.28 1463.43 Q1679.3 1463.08 1680.32 1462.92 Q1681.34 1462.73 1682.36 1462.73 Q1688.14 1462.73 1691.52 1465.9 Q1694.9 1469.08 1694.9 1474.49 Q1694.9 1480.07 1691.43 1483.17 Q1687.96 1486.25 1681.64 1486.25 Q1679.46 1486.25 1677.19 1485.88 Q1674.95 1485.51 1672.54 1484.77 L1672.54 1480.07 Q1674.62 1481.2 1676.85 1481.76 Q1679.07 1482.32 1681.55 1482.32 Q1685.55 1482.32 1687.89 1480.21 Q1690.23 1478.1 1690.23 1474.49 Q1690.23 1470.88 1687.89 1468.77 Q1685.55 1466.67 1681.55 1466.67 Q1679.67 1466.67 1677.8 1467.08 Q1675.94 1467.5 1674 1468.38 L1674 1451.02 Z" fill="#000000" fill-rule="nonzero" fill-opacity="1" /><path clip-path="url(#clip240)" d="M2064.69 1481.64 L2072.33 1481.64 L2072.33 1455.28 L2064.02 1456.95 L2064.02 1452.69 L2072.28 1451.02 L2076.96 1451.02 L2076.96 1481.64 L2084.59 1481.64 L2084.59 1485.58 L2064.69 1485.58 L2064.69 1481.64 Z" fill="#000000" fill-rule="nonzero" fill-opacity="1" /><path clip-path="url(#clip240)" d="M2104.04 1454.1 Q2100.43 1454.1 2098.6 1457.66 Q2096.79 1461.2 2096.79 1468.33 Q2096.79 1475.44 2098.6 1479.01 Q2100.43 1482.55 2104.04 1482.55 Q2107.67 1482.55 2109.48 1479.01 Q2111.31 1475.44 2111.31 1468.33 Q2111.31 1461.2 2109.48 1457.66 Q2107.67 1454.1 2104.04 1454.1 M2104.04 1450.39 Q2109.85 1450.39 2112.9 1455 Q2115.98 1459.58 2115.98 1468.33 Q2115.98 1477.06 2112.9 1481.67 Q2109.85 1486.25 2104.04 1486.25 Q2098.23 1486.25 2095.15 1481.67 Q2092.09 1477.06 2092.09 1468.33 Q2092.09 1459.58 2095.15 1455 Q2098.23 1450.39 2104.04 1450.39 Z" fill="#000000" fill-rule="nonzero" fill-opacity="1" /><path clip-path="url(#clip240)" d="M2124.2 1479.7 L2129.08 1479.7 L2129.08 1485.58 L2124.2 1485.58 L2124.2 1479.7 Z" fill="#000000" fill-rule="nonzero" fill-opacity="1" /><path clip-path="url(#clip240)" d="M2149.27 1454.1 Q2145.66 1454.1 2143.83 1457.66 Q2142.02 1461.2 2142.02 1468.33 Q2142.02 1475.44 2143.83 1479.01 Q2145.66 1482.55 2149.27 1482.55 Q2152.9 1482.55 2154.71 1479.01 Q2156.54 1475.44 2156.54 1468.33 Q2156.54 1461.2 2154.71 1457.66 Q2152.9 1454.1 2149.27 1454.1 M2149.27 1450.39 Q2155.08 1450.39 2158.14 1455 Q2161.21 1459.58 2161.21 1468.33 Q2161.21 1477.06 2158.14 1481.67 Q2155.08 1486.25 2149.27 1486.25 Q2143.46 1486.25 2140.38 1481.67 Q2137.33 1477.06 2137.33 1468.33 Q2137.33 1459.58 2140.38 1455 Q2143.46 1450.39 2149.27 1450.39 Z" fill="#000000" fill-rule="nonzero" fill-opacity="1" /><path clip-path="url(#clip240)" d="M1299.17 1522.27 L1299.17 1532.4 L1311.23 1532.4 L1311.23 1536.95 L1299.17 1536.95 L1299.17 1556.3 Q1299.17 1560.66 1300.35 1561.9 Q1301.56 1563.14 1305.22 1563.14 L1311.23 1563.14 L1311.23 1568.04 L1305.22 1568.04 Q1298.44 1568.04 1295.86 1565.53 Q1293.28 1562.98 1293.28 1556.3 L1293.28 1536.95 L1288.98 1536.95 L1288.98 1532.4 L1293.28 1532.4 L1293.28 1522.27 L1299.17 1522.27 Z" fill="#000000" fill-rule="nonzero" fill-opacity="1" /><polyline clip-path="url(#clip242)" style="stroke:#000000; stroke-linecap:round; stroke-linejoin:round; stroke-width:2; stroke-opacity:0.1; fill:none" points="247.459,1384.24 2352.76,1384.24 "/>
<polyline clip-path="url(#clip242)" style="stroke:#000000; stroke-linecap:round; stroke-linejoin:round; stroke-width:2; stroke-opacity:0.1; fill:none" points="247.459,1059.72 2352.76,1059.72 "/>
<polyline clip-path="url(#clip242)" style="stroke:#000000; stroke-linecap:round; stroke-linejoin:round; stroke-width:2; stroke-opacity:0.1; fill:none" points="247.459,735.211 2352.76,735.211 "/>
<polyline clip-path="url(#clip242)" style="stroke:#000000; stroke-linecap:round; stroke-linejoin:round; stroke-width:2; stroke-opacity:0.1; fill:none" points="247.459,410.698 2352.76,410.698 "/>
<polyline clip-path="url(#clip242)" style="stroke:#000000; stroke-linecap:round; stroke-linejoin:round; stroke-width:2; stroke-opacity:0.1; fill:none" points="247.459,86.1857 2352.76,86.1857 "/>
<polyline clip-path="url(#clip240)" style="stroke:#000000; stroke-linecap:round; stroke-linejoin:round; stroke-width:4; stroke-opacity:1; fill:none" points="247.459,1423.18 247.459,47.2441 "/>
<polyline clip-path="url(#clip240)" style="stroke:#000000; stroke-linecap:round; stroke-linejoin:round; stroke-width:4; stroke-opacity:1; fill:none" points="247.459,1384.24 266.356,1384.24 "/>
<polyline clip-path="url(#clip240)" style="stroke:#000000; stroke-linecap:round; stroke-linejoin:round; stroke-width:4; stroke-opacity:1; fill:none" points="247.459,1059.72 266.356,1059.72 "/>
<polyline clip-path="url(#clip240)" style="stroke:#000000; stroke-linecap:round; stroke-linejoin:round; stroke-width:4; stroke-opacity:1; fill:none" points="247.459,735.211 266.356,735.211 "/>
<polyline clip-path="url(#clip240)" style="stroke:#000000; stroke-linecap:round; stroke-linejoin:round; stroke-width:4; stroke-opacity:1; fill:none" points="247.459,410.698 266.356,410.698 "/>
<polyline clip-path="url(#clip240)" style="stroke:#000000; stroke-linecap:round; stroke-linejoin:round; stroke-width:4; stroke-opacity:1; fill:none" points="247.459,86.1857 266.356,86.1857 "/>
<path clip-path="url(#clip240)" d="M154.283 1370.03 Q150.672 1370.03 148.843 1373.6 Q147.038 1377.14 147.038 1384.27 Q147.038 1391.38 148.843 1394.94 Q150.672 1398.48 154.283 1398.48 Q157.917 1398.48 159.723 1394.94 Q161.552 1391.38 161.552 1384.27 Q161.552 1377.14 159.723 1373.6 Q157.917 1370.03 154.283 1370.03 M154.283 1366.33 Q160.093 1366.33 163.149 1370.94 Q166.227 1375.52 166.227 1384.27 Q166.227 1393 163.149 1397.6 Q160.093 1402.19 154.283 1402.19 Q148.473 1402.19 145.394 1397.6 Q142.339 1393 142.339 1384.27 Q142.339 1375.52 145.394 1370.94 Q148.473 1366.33 154.283 1366.33 Z" fill="#000000" fill-rule="nonzero" fill-opacity="1" /><path clip-path="url(#clip240)" d="M174.445 1395.64 L179.329 1395.64 L179.329 1401.52 L174.445 1401.52 L174.445 1395.64 Z" fill="#000000" fill-rule="nonzero" fill-opacity="1" /><path clip-path="url(#clip240)" d="M199.514 1370.03 Q195.903 1370.03 194.075 1373.6 Q192.269 1377.14 192.269 1384.27 Q192.269 1391.38 194.075 1394.94 Q195.903 1398.48 199.514 1398.48 Q203.149 1398.48 204.954 1394.94 Q206.783 1391.38 206.783 1384.27 Q206.783 1377.14 204.954 1373.6 Q203.149 1370.03 199.514 1370.03 M199.514 1366.33 Q205.324 1366.33 208.38 1370.94 Q211.459 1375.52 211.459 1384.27 Q211.459 1393 208.38 1397.6 Q205.324 1402.19 199.514 1402.19 Q193.704 1402.19 190.625 1397.6 Q187.57 1393 187.57 1384.27 Q187.57 1375.52 190.625 1370.94 Q193.704 1366.33 199.514 1366.33 Z" fill="#000000" fill-rule="nonzero" fill-opacity="1" /><path clip-path="url(#clip240)" d="M149.306 1073.07 L165.626 1073.07 L165.626 1077 L143.681 1077 L143.681 1073.07 Q146.343 1070.31 150.927 1065.68 Q155.533 1061.03 156.714 1059.69 Q158.959 1057.17 159.839 1055.43 Q160.741 1053.67 160.741 1051.98 Q160.741 1049.23 158.797 1047.49 Q156.876 1045.75 153.774 1045.75 Q151.575 1045.75 149.121 1046.52 Q146.691 1047.28 143.913 1048.83 L143.913 1044.11 Q146.737 1042.98 149.191 1042.4 Q151.644 1041.82 153.681 1041.82 Q159.052 1041.82 162.246 1044.5 Q165.44 1047.19 165.44 1051.68 Q165.44 1053.81 164.63 1055.73 Q163.843 1057.63 161.737 1060.22 Q161.158 1060.89 158.056 1064.11 Q154.954 1067.3 149.306 1073.07 Z" fill="#000000" fill-rule="nonzero" fill-opacity="1" /><path clip-path="url(#clip240)" d="M175.44 1071.12 L180.325 1071.12 L180.325 1077 L175.44 1077 L175.44 1071.12 Z" fill="#000000" fill-rule="nonzero" fill-opacity="1" /><path clip-path="url(#clip240)" d="M190.556 1042.44 L208.912 1042.44 L208.912 1046.38 L194.838 1046.38 L194.838 1054.85 Q195.857 1054.5 196.875 1054.34 Q197.894 1054.16 198.912 1054.16 Q204.699 1054.16 208.079 1057.33 Q211.459 1060.5 211.459 1065.92 Q211.459 1071.49 207.987 1074.6 Q204.514 1077.67 198.195 1077.67 Q196.019 1077.67 193.75 1077.3 Q191.505 1076.93 189.098 1076.19 L189.098 1071.49 Q191.181 1072.63 193.403 1073.18 Q195.625 1073.74 198.102 1073.74 Q202.107 1073.74 204.445 1071.63 Q206.783 1069.53 206.783 1065.92 Q206.783 1062.3 204.445 1060.2 Q202.107 1058.09 198.102 1058.09 Q196.227 1058.09 194.352 1058.51 Q192.5 1058.92 190.556 1059.8 L190.556 1042.44 Z" fill="#000000" fill-rule="nonzero" fill-opacity="1" /><path clip-path="url(#clip240)" d="M144.329 717.931 L162.686 717.931 L162.686 721.866 L148.612 721.866 L148.612 730.338 Q149.63 729.991 150.649 729.829 Q151.667 729.644 152.686 729.644 Q158.473 729.644 161.852 732.815 Q165.232 735.986 165.232 741.403 Q165.232 746.982 161.76 750.083 Q158.288 753.162 151.968 753.162 Q149.792 753.162 147.524 752.792 Q145.279 752.421 142.871 751.681 L142.871 746.982 Q144.954 748.116 147.177 748.671 Q149.399 749.227 151.876 749.227 Q155.88 749.227 158.218 747.121 Q160.556 745.014 160.556 741.403 Q160.556 737.792 158.218 735.685 Q155.88 733.579 151.876 733.579 Q150.001 733.579 148.126 733.996 Q146.274 734.412 144.329 735.292 L144.329 717.931 Z" fill="#000000" fill-rule="nonzero" fill-opacity="1" /><path clip-path="url(#clip240)" d="M174.445 746.611 L179.329 746.611 L179.329 752.491 L174.445 752.491 L174.445 746.611 Z" fill="#000000" fill-rule="nonzero" fill-opacity="1" /><path clip-path="url(#clip240)" d="M199.514 721.01 Q195.903 721.01 194.075 724.574 Q192.269 728.116 192.269 735.246 Q192.269 742.352 194.075 745.917 Q195.903 749.458 199.514 749.458 Q203.149 749.458 204.954 745.917 Q206.783 742.352 206.783 735.246 Q206.783 728.116 204.954 724.574 Q203.149 721.01 199.514 721.01 M199.514 717.306 Q205.324 717.306 208.38 721.912 Q211.459 726.496 211.459 735.246 Q211.459 743.972 208.38 748.579 Q205.324 753.162 199.514 753.162 Q193.704 753.162 190.625 748.579 Q187.57 743.972 187.57 735.246 Q187.57 726.496 190.625 721.912 Q193.704 717.306 199.514 717.306 Z" fill="#000000" fill-rule="nonzero" fill-opacity="1" /><path clip-path="url(#clip240)" d="M144.098 393.418 L166.32 393.418 L166.32 395.409 L153.774 427.978 L148.89 427.978 L160.695 397.353 L144.098 397.353 L144.098 393.418 Z" fill="#000000" fill-rule="nonzero" fill-opacity="1" /><path clip-path="url(#clip240)" d="M175.44 422.099 L180.325 422.099 L180.325 427.978 L175.44 427.978 L175.44 422.099 Z" fill="#000000" fill-rule="nonzero" fill-opacity="1" /><path clip-path="url(#clip240)" d="M190.556 393.418 L208.912 393.418 L208.912 397.353 L194.838 397.353 L194.838 405.826 Q195.857 405.478 196.875 405.316 Q197.894 405.131 198.912 405.131 Q204.699 405.131 208.079 408.302 Q211.459 411.474 211.459 416.89 Q211.459 422.469 207.987 425.571 Q204.514 428.65 198.195 428.65 Q196.019 428.65 193.75 428.279 Q191.505 427.909 189.098 427.168 L189.098 422.469 Q191.181 423.603 193.403 424.159 Q195.625 424.714 198.102 424.714 Q202.107 424.714 204.445 422.608 Q206.783 420.501 206.783 416.89 Q206.783 413.279 204.445 411.173 Q202.107 409.066 198.102 409.066 Q196.227 409.066 194.352 409.483 Q192.5 409.9 190.556 410.779 L190.556 393.418 Z" fill="#000000" fill-rule="nonzero" fill-opacity="1" /><path clip-path="url(#clip240)" d="M114.931 99.5305 L122.57 99.5305 L122.57 73.1649 L114.26 74.8316 L114.26 70.5723 L122.524 68.9057 L127.2 68.9057 L127.2 99.5305 L134.839 99.5305 L134.839 103.466 L114.931 103.466 L114.931 99.5305 Z" fill="#000000" fill-rule="nonzero" fill-opacity="1" /><path clip-path="url(#clip240)" d="M154.283 71.9844 Q150.672 71.9844 148.843 75.5492 Q147.038 79.0908 147.038 86.2204 Q147.038 93.3268 148.843 96.8916 Q150.672 100.433 154.283 100.433 Q157.917 100.433 159.723 96.8916 Q161.552 93.3268 161.552 86.2204 Q161.552 79.0908 159.723 75.5492 Q157.917 71.9844 154.283 71.9844 M154.283 68.2807 Q160.093 68.2807 163.149 72.8871 Q166.227 77.4704 166.227 86.2204 Q166.227 94.9472 163.149 99.5537 Q160.093 104.137 154.283 104.137 Q148.473 104.137 145.394 99.5537 Q142.339 94.9472 142.339 86.2204 Q142.339 77.4704 145.394 72.8871 Q148.473 68.2807 154.283 68.2807 Z" fill="#000000" fill-rule="nonzero" fill-opacity="1" /><path clip-path="url(#clip240)" d="M174.445 97.5861 L179.329 97.5861 L179.329 103.466 L174.445 103.466 L174.445 97.5861 Z" fill="#000000" fill-rule="nonzero" fill-opacity="1" /><path clip-path="url(#clip240)" d="M199.514 71.9844 Q195.903 71.9844 194.075 75.5492 Q192.269 79.0908 192.269 86.2204 Q192.269 93.3268 194.075 96.8916 Q195.903 100.433 199.514 100.433 Q203.149 100.433 204.954 96.8916 Q206.783 93.3268 206.783 86.2204 Q206.783 79.0908 204.954 75.5492 Q203.149 71.9844 199.514 71.9844 M199.514 68.2807 Q205.324 68.2807 208.38 72.8871 Q211.459 77.4704 211.459 86.2204 Q211.459 94.9472 208.38 99.5537 Q205.324 104.137 199.514 104.137 Q193.704 104.137 190.625 99.5537 Q187.57 94.9472 187.57 86.2204 Q187.57 77.4704 190.625 72.8871 Q193.704 68.2807 199.514 68.2807 Z" fill="#000000" fill-rule="nonzero" fill-opacity="1" /><path clip-path="url(#clip240)" d="M67.3143 733.525 Q73.68 736.008 75.6216 738.363 Q77.5631 740.718 77.5631 744.665 L77.5631 749.344 L72.6615 749.344 L72.6615 745.906 Q72.6615 743.487 71.5157 742.151 Q70.3699 740.814 66.1048 739.191 L63.4312 738.14 L28.3562 752.559 L28.3562 746.352 L56.238 735.212 L28.3562 724.072 L28.3562 717.865 L67.3143 733.525 Z" fill="#000000" fill-rule="nonzero" fill-opacity="1" /><circle clip-path="url(#clip242)" cx="307.043" cy="86.1857" r="14.4" fill="#009af9" fill-rule="evenodd" fill-opacity="1" stroke="#000000" stroke-opacity="1" stroke-width="3.2"/>
<circle clip-path="url(#clip242)" cx="325.098" cy="86.8136" r="14.4" fill="#009af9" fill-rule="evenodd" fill-opacity="1" stroke="#000000" stroke-opacity="1" stroke-width="3.2"/>
<circle clip-path="url(#clip242)" cx="343.154" cy="88.617" r="14.4" fill="#009af9" fill-rule="evenodd" fill-opacity="1" stroke="#000000" stroke-opacity="1" stroke-width="3.2"/>
<circle clip-path="url(#clip242)" cx="361.21" cy="91.4841" r="14.4" fill="#009af9" fill-rule="evenodd" fill-opacity="1" stroke="#000000" stroke-opacity="1" stroke-width="3.2"/>
<circle clip-path="url(#clip242)" cx="379.265" cy="95.3136" r="14.4" fill="#009af9" fill-rule="evenodd" fill-opacity="1" stroke="#000000" stroke-opacity="1" stroke-width="3.2"/>
<circle clip-path="url(#clip242)" cx="397.321" cy="100.014" r="14.4" fill="#009af9" fill-rule="evenodd" fill-opacity="1" stroke="#000000" stroke-opacity="1" stroke-width="3.2"/>
<circle clip-path="url(#clip242)" cx="415.377" cy="105.502" r="14.4" fill="#009af9" fill-rule="evenodd" fill-opacity="1" stroke="#000000" stroke-opacity="1" stroke-width="3.2"/>
<circle clip-path="url(#clip242)" cx="433.433" cy="111.703" r="14.4" fill="#009af9" fill-rule="evenodd" fill-opacity="1" stroke="#000000" stroke-opacity="1" stroke-width="3.2"/>
<circle clip-path="url(#clip242)" cx="451.488" cy="118.55" r="14.4" fill="#009af9" fill-rule="evenodd" fill-opacity="1" stroke="#000000" stroke-opacity="1" stroke-width="3.2"/>
<circle clip-path="url(#clip242)" cx="469.544" cy="125.98" r="14.4" fill="#009af9" fill-rule="evenodd" fill-opacity="1" stroke="#000000" stroke-opacity="1" stroke-width="3.2"/>
<circle clip-path="url(#clip242)" cx="487.6" cy="133.938" r="14.4" fill="#009af9" fill-rule="evenodd" fill-opacity="1" stroke="#000000" stroke-opacity="1" stroke-width="3.2"/>
<circle clip-path="url(#clip242)" cx="505.656" cy="142.375" r="14.4" fill="#009af9" fill-rule="evenodd" fill-opacity="1" stroke="#000000" stroke-opacity="1" stroke-width="3.2"/>
<circle clip-path="url(#clip242)" cx="523.711" cy="151.243" r="14.4" fill="#009af9" fill-rule="evenodd" fill-opacity="1" stroke="#000000" stroke-opacity="1" stroke-width="3.2"/>
<circle clip-path="url(#clip242)" cx="541.767" cy="160.503" r="14.4" fill="#009af9" fill-rule="evenodd" fill-opacity="1" stroke="#000000" stroke-opacity="1" stroke-width="3.2"/>
<circle clip-path="url(#clip242)" cx="559.823" cy="170.117" r="14.4" fill="#009af9" fill-rule="evenodd" fill-opacity="1" stroke="#000000" stroke-opacity="1" stroke-width="3.2"/>
<circle clip-path="url(#clip242)" cx="577.878" cy="180.052" r="14.4" fill="#009af9" fill-rule="evenodd" fill-opacity="1" stroke="#000000" stroke-opacity="1" stroke-width="3.2"/>
<circle clip-path="url(#clip242)" cx="595.934" cy="190.276" r="14.4" fill="#009af9" fill-rule="evenodd" fill-opacity="1" stroke="#000000" stroke-opacity="1" stroke-width="3.2"/>
<circle clip-path="url(#clip242)" cx="613.99" cy="200.762" r="14.4" fill="#009af9" fill-rule="evenodd" fill-opacity="1" stroke="#000000" stroke-opacity="1" stroke-width="3.2"/>
<circle clip-path="url(#clip242)" cx="632.046" cy="211.486" r="14.4" fill="#009af9" fill-rule="evenodd" fill-opacity="1" stroke="#000000" stroke-opacity="1" stroke-width="3.2"/>
<circle clip-path="url(#clip242)" cx="650.101" cy="222.425" r="14.4" fill="#009af9" fill-rule="evenodd" fill-opacity="1" stroke="#000000" stroke-opacity="1" stroke-width="3.2"/>
<circle clip-path="url(#clip242)" cx="668.157" cy="233.558" r="14.4" fill="#009af9" fill-rule="evenodd" fill-opacity="1" stroke="#000000" stroke-opacity="1" stroke-width="3.2"/>
<circle clip-path="url(#clip242)" cx="686.213" cy="244.867" r="14.4" fill="#009af9" fill-rule="evenodd" fill-opacity="1" stroke="#000000" stroke-opacity="1" stroke-width="3.2"/>
<circle clip-path="url(#clip242)" cx="704.268" cy="256.335" r="14.4" fill="#009af9" fill-rule="evenodd" fill-opacity="1" stroke="#000000" stroke-opacity="1" stroke-width="3.2"/>
<circle clip-path="url(#clip242)" cx="722.324" cy="267.946" r="14.4" fill="#009af9" fill-rule="evenodd" fill-opacity="1" stroke="#000000" stroke-opacity="1" stroke-width="3.2"/>
<circle clip-path="url(#clip242)" cx="740.38" cy="279.688" r="14.4" fill="#009af9" fill-rule="evenodd" fill-opacity="1" stroke="#000000" stroke-opacity="1" stroke-width="3.2"/>
<circle clip-path="url(#clip242)" cx="758.436" cy="291.548" r="14.4" fill="#009af9" fill-rule="evenodd" fill-opacity="1" stroke="#000000" stroke-opacity="1" stroke-width="3.2"/>
<circle clip-path="url(#clip242)" cx="776.491" cy="303.515" r="14.4" fill="#009af9" fill-rule="evenodd" fill-opacity="1" stroke="#000000" stroke-opacity="1" stroke-width="3.2"/>
<circle clip-path="url(#clip242)" cx="794.547" cy="315.578" r="14.4" fill="#009af9" fill-rule="evenodd" fill-opacity="1" stroke="#000000" stroke-opacity="1" stroke-width="3.2"/>
<circle clip-path="url(#clip242)" cx="812.603" cy="327.728" r="14.4" fill="#009af9" fill-rule="evenodd" fill-opacity="1" stroke="#000000" stroke-opacity="1" stroke-width="3.2"/>
<circle clip-path="url(#clip242)" cx="830.659" cy="339.958" r="14.4" fill="#009af9" fill-rule="evenodd" fill-opacity="1" stroke="#000000" stroke-opacity="1" stroke-width="3.2"/>
<circle clip-path="url(#clip242)" cx="848.714" cy="352.258" r="14.4" fill="#009af9" fill-rule="evenodd" fill-opacity="1" stroke="#000000" stroke-opacity="1" stroke-width="3.2"/>
<circle clip-path="url(#clip242)" cx="866.77" cy="364.624" r="14.4" fill="#009af9" fill-rule="evenodd" fill-opacity="1" stroke="#000000" stroke-opacity="1" stroke-width="3.2"/>
<circle clip-path="url(#clip242)" cx="884.826" cy="377.048" r="14.4" fill="#009af9" fill-rule="evenodd" fill-opacity="1" stroke="#000000" stroke-opacity="1" stroke-width="3.2"/>
<circle clip-path="url(#clip242)" cx="902.881" cy="389.525" r="14.4" fill="#009af9" fill-rule="evenodd" fill-opacity="1" stroke="#000000" stroke-opacity="1" stroke-width="3.2"/>
<circle clip-path="url(#clip242)" cx="920.937" cy="402.05" r="14.4" fill="#009af9" fill-rule="evenodd" fill-opacity="1" stroke="#000000" stroke-opacity="1" stroke-width="3.2"/>
<circle clip-path="url(#clip242)" cx="938.993" cy="414.618" r="14.4" fill="#009af9" fill-rule="evenodd" fill-opacity="1" stroke="#000000" stroke-opacity="1" stroke-width="3.2"/>
<circle clip-path="url(#clip242)" cx="957.049" cy="427.226" r="14.4" fill="#009af9" fill-rule="evenodd" fill-opacity="1" stroke="#000000" stroke-opacity="1" stroke-width="3.2"/>
<circle clip-path="url(#clip242)" cx="975.104" cy="439.869" r="14.4" fill="#009af9" fill-rule="evenodd" fill-opacity="1" stroke="#000000" stroke-opacity="1" stroke-width="3.2"/>
<circle clip-path="url(#clip242)" cx="993.16" cy="452.544" r="14.4" fill="#009af9" fill-rule="evenodd" fill-opacity="1" stroke="#000000" stroke-opacity="1" stroke-width="3.2"/>
<circle clip-path="url(#clip242)" cx="1011.22" cy="465.248" r="14.4" fill="#009af9" fill-rule="evenodd" fill-opacity="1" stroke="#000000" stroke-opacity="1" stroke-width="3.2"/>
<circle clip-path="url(#clip242)" cx="1029.27" cy="477.978" r="14.4" fill="#009af9" fill-rule="evenodd" fill-opacity="1" stroke="#000000" stroke-opacity="1" stroke-width="3.2"/>
<circle clip-path="url(#clip242)" cx="1047.33" cy="490.733" r="14.4" fill="#009af9" fill-rule="evenodd" fill-opacity="1" stroke="#000000" stroke-opacity="1" stroke-width="3.2"/>
<circle clip-path="url(#clip242)" cx="1065.38" cy="503.508" r="14.4" fill="#009af9" fill-rule="evenodd" fill-opacity="1" stroke="#000000" stroke-opacity="1" stroke-width="3.2"/>
<circle clip-path="url(#clip242)" cx="1083.44" cy="516.304" r="14.4" fill="#009af9" fill-rule="evenodd" fill-opacity="1" stroke="#000000" stroke-opacity="1" stroke-width="3.2"/>
<circle clip-path="url(#clip242)" cx="1101.49" cy="529.116" r="14.4" fill="#009af9" fill-rule="evenodd" fill-opacity="1" stroke="#000000" stroke-opacity="1" stroke-width="3.2"/>
<circle clip-path="url(#clip242)" cx="1119.55" cy="541.945" r="14.4" fill="#009af9" fill-rule="evenodd" fill-opacity="1" stroke="#000000" stroke-opacity="1" stroke-width="3.2"/>
<circle clip-path="url(#clip242)" cx="1137.61" cy="554.789" r="14.4" fill="#009af9" fill-rule="evenodd" fill-opacity="1" stroke="#000000" stroke-opacity="1" stroke-width="3.2"/>
<circle clip-path="url(#clip242)" cx="1155.66" cy="567.645" r="14.4" fill="#009af9" fill-rule="evenodd" fill-opacity="1" stroke="#000000" stroke-opacity="1" stroke-width="3.2"/>
<circle clip-path="url(#clip242)" cx="1173.72" cy="580.513" r="14.4" fill="#009af9" fill-rule="evenodd" fill-opacity="1" stroke="#000000" stroke-opacity="1" stroke-width="3.2"/>
<circle clip-path="url(#clip242)" cx="1191.77" cy="593.392" r="14.4" fill="#009af9" fill-rule="evenodd" fill-opacity="1" stroke="#000000" stroke-opacity="1" stroke-width="3.2"/>
<circle clip-path="url(#clip242)" cx="1209.83" cy="606.28" r="14.4" fill="#009af9" fill-rule="evenodd" fill-opacity="1" stroke="#000000" stroke-opacity="1" stroke-width="3.2"/>
<circle clip-path="url(#clip242)" cx="1227.88" cy="619.178" r="14.4" fill="#009af9" fill-rule="evenodd" fill-opacity="1" stroke="#000000" stroke-opacity="1" stroke-width="3.2"/>
<circle clip-path="url(#clip242)" cx="1245.94" cy="632.083" r="14.4" fill="#009af9" fill-rule="evenodd" fill-opacity="1" stroke="#000000" stroke-opacity="1" stroke-width="3.2"/>
<circle clip-path="url(#clip242)" cx="1264" cy="644.995" r="14.4" fill="#009af9" fill-rule="evenodd" fill-opacity="1" stroke="#000000" stroke-opacity="1" stroke-width="3.2"/>
<circle clip-path="url(#clip242)" cx="1282.05" cy="657.914" r="14.4" fill="#009af9" fill-rule="evenodd" fill-opacity="1" stroke="#000000" stroke-opacity="1" stroke-width="3.2"/>
<circle clip-path="url(#clip242)" cx="1300.11" cy="670.839" r="14.4" fill="#009af9" fill-rule="evenodd" fill-opacity="1" stroke="#000000" stroke-opacity="1" stroke-width="3.2"/>
<circle clip-path="url(#clip242)" cx="1318.16" cy="683.769" r="14.4" fill="#009af9" fill-rule="evenodd" fill-opacity="1" stroke="#000000" stroke-opacity="1" stroke-width="3.2"/>
<circle clip-path="url(#clip242)" cx="1336.22" cy="696.704" r="14.4" fill="#009af9" fill-rule="evenodd" fill-opacity="1" stroke="#000000" stroke-opacity="1" stroke-width="3.2"/>
<circle clip-path="url(#clip242)" cx="1354.27" cy="709.643" r="14.4" fill="#009af9" fill-rule="evenodd" fill-opacity="1" stroke="#000000" stroke-opacity="1" stroke-width="3.2"/>
<circle clip-path="url(#clip242)" cx="1372.33" cy="722.586" r="14.4" fill="#009af9" fill-rule="evenodd" fill-opacity="1" stroke="#000000" stroke-opacity="1" stroke-width="3.2"/>
<circle clip-path="url(#clip242)" cx="1390.39" cy="735.533" r="14.4" fill="#009af9" fill-rule="evenodd" fill-opacity="1" stroke="#000000" stroke-opacity="1" stroke-width="3.2"/>
<circle clip-path="url(#clip242)" cx="1408.44" cy="748.483" r="14.4" fill="#009af9" fill-rule="evenodd" fill-opacity="1" stroke="#000000" stroke-opacity="1" stroke-width="3.2"/>
<circle clip-path="url(#clip242)" cx="1426.5" cy="761.435" r="14.4" fill="#009af9" fill-rule="evenodd" fill-opacity="1" stroke="#000000" stroke-opacity="1" stroke-width="3.2"/>
<circle clip-path="url(#clip242)" cx="1444.55" cy="774.391" r="14.4" fill="#009af9" fill-rule="evenodd" fill-opacity="1" stroke="#000000" stroke-opacity="1" stroke-width="3.2"/>
<circle clip-path="url(#clip242)" cx="1462.61" cy="787.349" r="14.4" fill="#009af9" fill-rule="evenodd" fill-opacity="1" stroke="#000000" stroke-opacity="1" stroke-width="3.2"/>
<circle clip-path="url(#clip242)" cx="1480.66" cy="800.309" r="14.4" fill="#009af9" fill-rule="evenodd" fill-opacity="1" stroke="#000000" stroke-opacity="1" stroke-width="3.2"/>
<circle clip-path="url(#clip242)" cx="1498.72" cy="813.27" r="14.4" fill="#009af9" fill-rule="evenodd" fill-opacity="1" stroke="#000000" stroke-opacity="1" stroke-width="3.2"/>
<circle clip-path="url(#clip242)" cx="1516.78" cy="826.234" r="14.4" fill="#009af9" fill-rule="evenodd" fill-opacity="1" stroke="#000000" stroke-opacity="1" stroke-width="3.2"/>
<circle clip-path="url(#clip242)" cx="1534.83" cy="839.199" r="14.4" fill="#009af9" fill-rule="evenodd" fill-opacity="1" stroke="#000000" stroke-opacity="1" stroke-width="3.2"/>
<circle clip-path="url(#clip242)" cx="1552.89" cy="852.166" r="14.4" fill="#009af9" fill-rule="evenodd" fill-opacity="1" stroke="#000000" stroke-opacity="1" stroke-width="3.2"/>
<circle clip-path="url(#clip242)" cx="1570.94" cy="865.134" r="14.4" fill="#009af9" fill-rule="evenodd" fill-opacity="1" stroke="#000000" stroke-opacity="1" stroke-width="3.2"/>
<circle clip-path="url(#clip242)" cx="1589" cy="878.104" r="14.4" fill="#009af9" fill-rule="evenodd" fill-opacity="1" stroke="#000000" stroke-opacity="1" stroke-width="3.2"/>
<circle clip-path="url(#clip242)" cx="1607.05" cy="891.074" r="14.4" fill="#009af9" fill-rule="evenodd" fill-opacity="1" stroke="#000000" stroke-opacity="1" stroke-width="3.2"/>
<circle clip-path="url(#clip242)" cx="1625.11" cy="904.045" r="14.4" fill="#009af9" fill-rule="evenodd" fill-opacity="1" stroke="#000000" stroke-opacity="1" stroke-width="3.2"/>
<circle clip-path="url(#clip242)" cx="1643.17" cy="917.017" r="14.4" fill="#009af9" fill-rule="evenodd" fill-opacity="1" stroke="#000000" stroke-opacity="1" stroke-width="3.2"/>
<circle clip-path="url(#clip242)" cx="1661.22" cy="929.99" r="14.4" fill="#009af9" fill-rule="evenodd" fill-opacity="1" stroke="#000000" stroke-opacity="1" stroke-width="3.2"/>
<circle clip-path="url(#clip242)" cx="1679.28" cy="942.964" r="14.4" fill="#009af9" fill-rule="evenodd" fill-opacity="1" stroke="#000000" stroke-opacity="1" stroke-width="3.2"/>
<circle clip-path="url(#clip242)" cx="1697.33" cy="955.938" r="14.4" fill="#009af9" fill-rule="evenodd" fill-opacity="1" stroke="#000000" stroke-opacity="1" stroke-width="3.2"/>
<circle clip-path="url(#clip242)" cx="1715.39" cy="968.913" r="14.4" fill="#009af9" fill-rule="evenodd" fill-opacity="1" stroke="#000000" stroke-opacity="1" stroke-width="3.2"/>
<circle clip-path="url(#clip242)" cx="1733.44" cy="981.889" r="14.4" fill="#009af9" fill-rule="evenodd" fill-opacity="1" stroke="#000000" stroke-opacity="1" stroke-width="3.2"/>
<circle clip-path="url(#clip242)" cx="1751.5" cy="994.865" r="14.4" fill="#009af9" fill-rule="evenodd" fill-opacity="1" stroke="#000000" stroke-opacity="1" stroke-width="3.2"/>
<circle clip-path="url(#clip242)" cx="1769.56" cy="1007.84" r="14.4" fill="#009af9" fill-rule="evenodd" fill-opacity="1" stroke="#000000" stroke-opacity="1" stroke-width="3.2"/>
<circle clip-path="url(#clip242)" cx="1787.61" cy="1020.82" r="14.4" fill="#009af9" fill-rule="evenodd" fill-opacity="1" stroke="#000000" stroke-opacity="1" stroke-width="3.2"/>
<circle clip-path="url(#clip242)" cx="1805.67" cy="1033.79" r="14.4" fill="#009af9" fill-rule="evenodd" fill-opacity="1" stroke="#000000" stroke-opacity="1" stroke-width="3.2"/>
<circle clip-path="url(#clip242)" cx="1823.72" cy="1046.77" r="14.4" fill="#009af9" fill-rule="evenodd" fill-opacity="1" stroke="#000000" stroke-opacity="1" stroke-width="3.2"/>
<circle clip-path="url(#clip242)" cx="1841.78" cy="1059.75" r="14.4" fill="#009af9" fill-rule="evenodd" fill-opacity="1" stroke="#000000" stroke-opacity="1" stroke-width="3.2"/>
<circle clip-path="url(#clip242)" cx="1859.83" cy="1072.73" r="14.4" fill="#009af9" fill-rule="evenodd" fill-opacity="1" stroke="#000000" stroke-opacity="1" stroke-width="3.2"/>
<circle clip-path="url(#clip242)" cx="1877.89" cy="1085.71" r="14.4" fill="#009af9" fill-rule="evenodd" fill-opacity="1" stroke="#000000" stroke-opacity="1" stroke-width="3.2"/>
<circle clip-path="url(#clip242)" cx="1895.95" cy="1098.68" r="14.4" fill="#009af9" fill-rule="evenodd" fill-opacity="1" stroke="#000000" stroke-opacity="1" stroke-width="3.2"/>
<circle clip-path="url(#clip242)" cx="1914" cy="1111.66" r="14.4" fill="#009af9" fill-rule="evenodd" fill-opacity="1" stroke="#000000" stroke-opacity="1" stroke-width="3.2"/>
<circle clip-path="url(#clip242)" cx="1932.06" cy="1124.64" r="14.4" fill="#009af9" fill-rule="evenodd" fill-opacity="1" stroke="#000000" stroke-opacity="1" stroke-width="3.2"/>
<circle clip-path="url(#clip242)" cx="1950.11" cy="1137.62" r="14.4" fill="#009af9" fill-rule="evenodd" fill-opacity="1" stroke="#000000" stroke-opacity="1" stroke-width="3.2"/>
<circle clip-path="url(#clip242)" cx="1968.17" cy="1150.6" r="14.4" fill="#009af9" fill-rule="evenodd" fill-opacity="1" stroke="#000000" stroke-opacity="1" stroke-width="3.2"/>
<circle clip-path="url(#clip242)" cx="1986.22" cy="1163.58" r="14.4" fill="#009af9" fill-rule="evenodd" fill-opacity="1" stroke="#000000" stroke-opacity="1" stroke-width="3.2"/>
<circle clip-path="url(#clip242)" cx="2004.28" cy="1176.56" r="14.4" fill="#009af9" fill-rule="evenodd" fill-opacity="1" stroke="#000000" stroke-opacity="1" stroke-width="3.2"/>
<circle clip-path="url(#clip242)" cx="2022.34" cy="1189.54" r="14.4" fill="#009af9" fill-rule="evenodd" fill-opacity="1" stroke="#000000" stroke-opacity="1" stroke-width="3.2"/>
<circle clip-path="url(#clip242)" cx="2040.39" cy="1202.52" r="14.4" fill="#009af9" fill-rule="evenodd" fill-opacity="1" stroke="#000000" stroke-opacity="1" stroke-width="3.2"/>
<circle clip-path="url(#clip242)" cx="2058.45" cy="1215.5" r="14.4" fill="#009af9" fill-rule="evenodd" fill-opacity="1" stroke="#000000" stroke-opacity="1" stroke-width="3.2"/>
<circle clip-path="url(#clip242)" cx="2076.5" cy="1228.48" r="14.4" fill="#009af9" fill-rule="evenodd" fill-opacity="1" stroke="#000000" stroke-opacity="1" stroke-width="3.2"/>
<circle clip-path="url(#clip242)" cx="2094.56" cy="1241.46" r="14.4" fill="#009af9" fill-rule="evenodd" fill-opacity="1" stroke="#000000" stroke-opacity="1" stroke-width="3.2"/>
<circle clip-path="url(#clip242)" cx="2112.61" cy="1254.44" r="14.4" fill="#009af9" fill-rule="evenodd" fill-opacity="1" stroke="#000000" stroke-opacity="1" stroke-width="3.2"/>
<circle clip-path="url(#clip242)" cx="2130.67" cy="1267.42" r="14.4" fill="#009af9" fill-rule="evenodd" fill-opacity="1" stroke="#000000" stroke-opacity="1" stroke-width="3.2"/>
<circle clip-path="url(#clip242)" cx="2148.73" cy="1280.4" r="14.4" fill="#009af9" fill-rule="evenodd" fill-opacity="1" stroke="#000000" stroke-opacity="1" stroke-width="3.2"/>
<circle clip-path="url(#clip242)" cx="2166.78" cy="1293.38" r="14.4" fill="#009af9" fill-rule="evenodd" fill-opacity="1" stroke="#000000" stroke-opacity="1" stroke-width="3.2"/>
<circle clip-path="url(#clip242)" cx="2184.84" cy="1306.36" r="14.4" fill="#009af9" fill-rule="evenodd" fill-opacity="1" stroke="#000000" stroke-opacity="1" stroke-width="3.2"/>
<circle clip-path="url(#clip242)" cx="2202.89" cy="1319.34" r="14.4" fill="#009af9" fill-rule="evenodd" fill-opacity="1" stroke="#000000" stroke-opacity="1" stroke-width="3.2"/>
<circle clip-path="url(#clip242)" cx="2220.95" cy="1332.32" r="14.4" fill="#009af9" fill-rule="evenodd" fill-opacity="1" stroke="#000000" stroke-opacity="1" stroke-width="3.2"/>
<circle clip-path="url(#clip242)" cx="2239" cy="1345.3" r="14.4" fill="#009af9" fill-rule="evenodd" fill-opacity="1" stroke="#000000" stroke-opacity="1" stroke-width="3.2"/>
<circle clip-path="url(#clip242)" cx="2257.06" cy="1358.28" r="14.4" fill="#009af9" fill-rule="evenodd" fill-opacity="1" stroke="#000000" stroke-opacity="1" stroke-width="3.2"/>
<circle clip-path="url(#clip242)" cx="2275.12" cy="1371.26" r="14.4" fill="#009af9" fill-rule="evenodd" fill-opacity="1" stroke="#000000" stroke-opacity="1" stroke-width="3.2"/>
<circle clip-path="url(#clip242)" cx="2293.17" cy="1384.24" r="14.4" fill="#009af9" fill-rule="evenodd" fill-opacity="1" stroke="#000000" stroke-opacity="1" stroke-width="3.2"/>
<path clip-path="url(#clip240)" d="M1822.93 196.789 L2282.58 196.789 L2282.58 93.1086 L1822.93 93.1086  Z" fill="#ffffff" fill-rule="evenodd" fill-opacity="1"/>
<polyline clip-path="url(#clip240)" style="stroke:#000000; stroke-linecap:round; stroke-linejoin:round; stroke-width:4; stroke-opacity:1; fill:none" points="1822.93,196.789 2282.58,196.789 2282.58,93.1086 1822.93,93.1086 1822.93,196.789 "/>
<circle clip-path="url(#clip240)" cx="1916.5" cy="144.949" r="20.48" fill="#009af9" fill-rule="evenodd" fill-opacity="1" stroke="#000000" stroke-opacity="1" stroke-width="4.55111"/>
<path clip-path="url(#clip240)" d="M2010.07 126.21 L2014.33 126.21 L2014.33 162.229 L2010.07 162.229 L2010.07 126.21 Z" fill="#000000" fill-rule="nonzero" fill-opacity="1" /><path clip-path="url(#clip240)" d="M2023.24 136.303 L2027.5 136.303 L2027.5 162.229 L2023.24 162.229 L2023.24 136.303 M2023.24 126.21 L2027.5 126.21 L2027.5 131.604 L2023.24 131.604 L2023.24 126.21 Z" fill="#000000" fill-rule="nonzero" fill-opacity="1" /><path clip-path="url(#clip240)" d="M2057.96 146.581 L2057.96 162.229 L2053.7 162.229 L2053.7 146.719 Q2053.7 143.039 2052.27 141.21 Q2050.83 139.382 2047.96 139.382 Q2044.51 139.382 2042.52 141.581 Q2040.53 143.78 2040.53 147.576 L2040.53 162.229 L2036.25 162.229 L2036.25 136.303 L2040.53 136.303 L2040.53 140.331 Q2042.06 137.993 2044.12 136.835 Q2046.2 135.678 2048.91 135.678 Q2053.38 135.678 2055.67 138.456 Q2057.96 141.21 2057.96 146.581 Z" fill="#000000" fill-rule="nonzero" fill-opacity="1" /><path clip-path="url(#clip240)" d="M2088.63 148.201 L2088.63 150.284 L2069.05 150.284 Q2069.33 154.682 2071.69 156.997 Q2074.07 159.289 2078.31 159.289 Q2080.76 159.289 2083.05 158.687 Q2085.37 158.085 2087.64 156.881 L2087.64 160.909 Q2085.35 161.881 2082.94 162.391 Q2080.53 162.9 2078.05 162.9 Q2071.85 162.9 2068.22 159.289 Q2064.6 155.678 2064.6 149.52 Q2064.6 143.155 2068.03 139.428 Q2071.48 135.678 2077.31 135.678 Q2082.54 135.678 2085.58 139.057 Q2088.63 142.414 2088.63 148.201 M2084.37 146.951 Q2084.33 143.456 2082.41 141.372 Q2080.51 139.289 2077.36 139.289 Q2073.79 139.289 2071.64 141.303 Q2069.51 143.317 2069.19 146.974 L2084.37 146.951 Z" fill="#000000" fill-rule="nonzero" fill-opacity="1" /><path clip-path="url(#clip240)" d="M2107.41 149.196 Q2102.24 149.196 2100.25 150.377 Q2098.26 151.557 2098.26 154.405 Q2098.26 156.673 2099.74 158.016 Q2101.25 159.335 2103.82 159.335 Q2107.36 159.335 2109.49 156.835 Q2111.64 154.312 2111.64 150.145 L2111.64 149.196 L2107.41 149.196 M2115.9 147.437 L2115.9 162.229 L2111.64 162.229 L2111.64 158.293 Q2110.18 160.655 2108.01 161.789 Q2105.83 162.9 2102.68 162.9 Q2098.7 162.9 2096.34 160.678 Q2094 158.432 2094 154.682 Q2094 150.307 2096.92 148.085 Q2099.86 145.863 2105.67 145.863 L2111.64 145.863 L2111.64 145.446 Q2111.64 142.507 2109.7 140.909 Q2107.78 139.289 2104.28 139.289 Q2102.06 139.289 2099.95 139.821 Q2097.85 140.354 2095.9 141.419 L2095.9 137.483 Q2098.24 136.581 2100.44 136.141 Q2102.64 135.678 2104.72 135.678 Q2110.35 135.678 2113.12 138.594 Q2115.9 141.511 2115.9 147.437 Z" fill="#000000" fill-rule="nonzero" fill-opacity="1" /><path clip-path="url(#clip240)" d="M2139.7 140.284 Q2138.98 139.868 2138.12 139.682 Q2137.29 139.474 2136.27 139.474 Q2132.66 139.474 2130.72 141.835 Q2128.79 144.173 2128.79 148.571 L2128.79 162.229 L2124.51 162.229 L2124.51 136.303 L2128.79 136.303 L2128.79 140.331 Q2130.14 137.969 2132.29 136.835 Q2134.44 135.678 2137.52 135.678 Q2137.96 135.678 2138.49 135.747 Q2139.03 135.794 2139.67 135.909 L2139.7 140.284 Z" fill="#000000" fill-rule="nonzero" fill-opacity="1" /><path clip-path="url(#clip240)" d="M2176.29 140.238 L2176.29 126.21 L2180.55 126.21 L2180.55 162.229 L2176.29 162.229 L2176.29 158.34 Q2174.95 160.655 2172.89 161.789 Q2170.85 162.9 2167.98 162.9 Q2163.28 162.9 2160.32 159.15 Q2157.38 155.4 2157.38 149.289 Q2157.38 143.178 2160.32 139.428 Q2163.28 135.678 2167.98 135.678 Q2170.85 135.678 2172.89 136.812 Q2174.95 137.923 2176.29 140.238 M2161.78 149.289 Q2161.78 153.988 2163.7 156.673 Q2165.65 159.335 2169.03 159.335 Q2172.41 159.335 2174.35 156.673 Q2176.29 153.988 2176.29 149.289 Q2176.29 144.59 2174.35 141.928 Q2172.41 139.243 2169.03 139.243 Q2165.65 139.243 2163.7 141.928 Q2161.78 144.59 2161.78 149.289 Z" fill="#000000" fill-rule="nonzero" fill-opacity="1" /><path clip-path="url(#clip240)" d="M2204.35 140.284 Q2203.63 139.868 2202.78 139.682 Q2201.94 139.474 2200.92 139.474 Q2197.31 139.474 2195.37 141.835 Q2193.45 144.173 2193.45 148.571 L2193.45 162.229 L2189.16 162.229 L2189.16 136.303 L2193.45 136.303 L2193.45 140.331 Q2194.79 137.969 2196.94 136.835 Q2199.09 135.678 2202.17 135.678 Q2202.61 135.678 2203.15 135.747 Q2203.68 135.794 2204.33 135.909 L2204.35 140.284 Z" fill="#000000" fill-rule="nonzero" fill-opacity="1" /><path clip-path="url(#clip240)" d="M2220.6 149.196 Q2215.44 149.196 2213.45 150.377 Q2211.46 151.557 2211.46 154.405 Q2211.46 156.673 2212.94 158.016 Q2214.44 159.335 2217.01 159.335 Q2220.55 159.335 2222.68 156.835 Q2224.84 154.312 2224.84 150.145 L2224.84 149.196 L2220.6 149.196 M2229.09 147.437 L2229.09 162.229 L2224.84 162.229 L2224.84 158.293 Q2223.38 160.655 2221.2 161.789 Q2219.03 162.9 2215.88 162.9 Q2211.9 162.9 2209.53 160.678 Q2207.2 158.432 2207.2 154.682 Q2207.2 150.307 2210.11 148.085 Q2213.05 145.863 2218.86 145.863 L2224.84 145.863 L2224.84 145.446 Q2224.84 142.507 2222.89 140.909 Q2220.97 139.289 2217.47 139.289 Q2215.25 139.289 2213.15 139.821 Q2211.04 140.354 2209.09 141.419 L2209.09 137.483 Q2211.43 136.581 2213.63 136.141 Q2215.83 135.678 2217.91 135.678 Q2223.54 135.678 2226.32 138.594 Q2229.09 141.511 2229.09 147.437 Z" fill="#000000" fill-rule="nonzero" fill-opacity="1" /><path clip-path="url(#clip240)" d="M2254.93 148.965 Q2254.93 144.335 2253.01 141.789 Q2251.11 139.243 2247.66 139.243 Q2244.23 139.243 2242.31 141.789 Q2240.41 144.335 2240.41 148.965 Q2240.41 153.571 2242.31 156.118 Q2244.23 158.664 2247.66 158.664 Q2251.11 158.664 2253.01 156.118 Q2254.93 153.571 2254.93 148.965 M2259.19 159.011 Q2259.19 165.631 2256.25 168.849 Q2253.31 172.09 2247.24 172.09 Q2245 172.09 2243.01 171.742 Q2241.02 171.418 2239.14 170.724 L2239.14 166.58 Q2241.02 167.599 2242.84 168.085 Q2244.67 168.571 2246.57 168.571 Q2250.76 168.571 2252.84 166.372 Q2254.93 164.196 2254.93 159.775 L2254.93 157.668 Q2253.61 159.96 2251.55 161.094 Q2249.49 162.229 2246.62 162.229 Q2241.85 162.229 2238.93 158.594 Q2236.02 154.96 2236.02 148.965 Q2236.02 142.946 2238.93 139.312 Q2241.85 135.678 2246.62 135.678 Q2249.49 135.678 2251.55 136.812 Q2253.61 137.946 2254.93 140.238 L2254.93 136.303 L2259.19 136.303 L2259.19 159.011 Z" fill="#000000" fill-rule="nonzero" fill-opacity="1" /></svg>