<?xml version="1.0" encoding="utf-8"?>
<svg xmlns="http://www.w3.org/2000/svg" xmlns:xlink="http://www.w3.org/1999/xlink" width="600" height="400" viewBox="0 0 2400 1600">
<defs>
  <clipPath id="clip190">
    <rect x="0" y="0" width="2400" height="1600"/>
  </clipPath>
</defs>
<path clip-path="url(#clip190)" d="M0 1600 L2400 1600 L2400 0 L0 0  Z" fill="#ffffff" fill-rule="evenodd" fill-opacity="1"/>
<defs>
  <clipPath id="clip191">
    <rect x="480" y="0" width="1681" height="1600"/>
  </clipPath>
</defs>
<path clip-path="url(#clip190)" d="M279.704 1423.18 L2352.76 1423.18 L2352.76 47.2441 L279.704 47.2441  Z" fill="#ffffff" fill-rule="evenodd" fill-opacity="1"/>
<defs>
  <clipPath id="clip192">
    <rect x="279" y="47" width="2074" height="1377"/>
  </clipPath>
</defs>
<polyline clip-path="url(#clip192)" style="stroke:#000000; stroke-linecap:round; stroke-linejoin:round; stroke-width:2; stroke-opacity:0.1; fill:none" points="537.315,1423.18 537.315,47.2441 "/>
<polyline clip-path="url(#clip192)" style="stroke:#000000; stroke-linecap:round; stroke-linejoin:round; stroke-width:2; stroke-opacity:0.1; fill:none" points="826.683,1423.18 826.683,47.2441 "/>
<polyline clip-path="url(#clip192)" style="stroke:#000000; stroke-linecap:round; stroke-linejoin:round; stroke-width:2; stroke-opacity:0.1; fill:none" points="1116.05,1423.18 1116.05,47.2441 "/>
<polyline clip-path="url(#clip192)" style="stroke:#000000; stroke-linecap:round; stroke-linejoin:round; stroke-width:2; stroke-opacity:0.1; fill:none" points="1405.42,1423.18 1405.42,47.2441 "/>
<polyline clip-path="url(#clip192)" style="stroke:#000000; stroke-linecap:round; stroke-linejoin:round; stroke-width:2; stroke-opacity:0.1; fill:none" points="1694.79,1423.18 1694.79,47.2441 "/>
<polyline clip-path="url(#clip192)" style="stroke:#000000; stroke-linecap:round; stroke-linejoin:round; stroke-width:2; stroke-opacity:0.1; fill:none" points="1984.15,1423.18 1984.15,47.2441 "/>
<polyline clip-path="url(#clip192)" style="stroke:#000000; stroke-linecap:round; stroke-linejoin:round; stroke-width:2; stroke-opacity:0.1; fill:none" points="2273.52,1423.18 2273.52,47.2441 "/>
<polyline clip-path="url(#clip190)" style="stroke:#000000; stroke-linecap:round; stroke-linejoin:round; stroke-width:4; stroke-opacity:1; fill:none" points="279.704,1423.18 2352.76,1423.18 "/>
<polyline clip-path="url(#clip190)" style="stroke:#000000; stroke-linecap:round; stroke-linejoin:round; stroke-width:4; stroke-opacity:1; fill:none" points="537.315,1423.18 537.315,1404.28 "/>
<polyline clip-path="url(#clip190)" style="stroke:#000000; stroke-linecap:round; stroke-linejoin:round; stroke-width:4; stroke-opacity:1; fill:none" points="826.683,1423.18 826.683,1404.28 "/>
<polyline clip-path="url(#clip190)" style="stroke:#000000; stroke-linecap:round; stroke-linejoin:round; stroke-width:4; stroke-opacity:1; fill:none" points="1116.05,1423.18 1116.05,1404.28 "/>
<polyline clip-path="url(#clip190)" style="stroke:#000000; stroke-linecap:round; stroke-linejoin:round; stroke-width:4; stroke-opacity:1; fill:none" points="1405.42,1423.18 1405.42,1404.28 "/>
<polyline clip-path="url(#clip190)" style="stroke:#000000; stroke-linecap:round; stroke-linejoin:round; stroke-width:4; stroke-opacity:1; fill:none" points="1694.79,1423.18 1694.79,1404.28 "/>
<polyline clip-path="url(#clip190)" style="stroke:#000000; stroke-linecap:round; stroke-linejoin:round; stroke-width:4; stroke-opacity:1; fill:none" points="1984.15,1423.18 1984.15,1404.28 "/>
<polyline clip-path="url(#clip190)" style="stroke:#000000; stroke-linecap:round; stroke-linejoin:round; stroke-width:4; stroke-opacity:1; fill:none" points="2273.52,1423.18 2273.52,1404.28 "/>
<path clip-path="url(#clip190)" d="M515.313 1454.1 Q511.702 1454.1 509.873 1457.66 Q508.068 1461.2 508.068 1468.33 Q508.068 1475.44 509.873 1479.01 Q511.702 1482.55 515.313 1482.55 Q518.947 1482.55 520.753 1479.01 Q522.582 1475.44 522.582 1468.33 Q522.582 1461.2 520.753 1457.66 Q518.947 1454.1 515.313 1454.1 M515.313 1450.39 Q521.123 1450.39 524.179 1455 Q527.257 1459.58 527.257 1468.33 Q527.257 1477.06 524.179 1481.67 Q521.123 1486.25 515.313 1486.25 Q509.503 1486.25 506.424 1481.67 Q503.369 1477.06 503.369 1468.33 Q503.369 1459.58 506.424 1455 Q509.503 1450.39 515.313 1450.39 Z" fill="#000000" fill-rule="nonzero" fill-opacity="1" /><path clip-path="url(#clip190)" d="M535.475 1479.7 L540.359 1479.7 L540.359 1485.58 L535.475 1485.58 L535.475 1479.7 Z" fill="#000000" fill-rule="nonzero" fill-opacity="1" /><path clip-path="url(#clip190)" d="M551.355 1481.64 L558.993 1481.64 L558.993 1455.28 L550.683 1456.95 L550.683 1452.69 L558.947 1451.02 L563.623 1451.02 L563.623 1481.64 L571.262 1481.64 L571.262 1485.58 L551.355 1485.58 L551.355 1481.64 Z" fill="#000000" fill-rule="nonzero" fill-opacity="1" /><path clip-path="url(#clip190)" d="M804.866 1454.1 Q801.255 1454.1 799.426 1457.66 Q797.62 1461.2 797.62 1468.33 Q797.62 1475.44 799.426 1479.01 Q801.255 1482.55 804.866 1482.55 Q808.5 1482.55 810.306 1479.01 Q812.134 1475.44 812.134 1468.33 Q812.134 1461.2 810.306 1457.66 Q808.5 1454.1 804.866 1454.1 M804.866 1450.39 Q810.676 1450.39 813.731 1455 Q816.81 1459.58 816.81 1468.33 Q816.81 1477.06 813.731 1481.67 Q810.676 1486.25 804.866 1486.25 Q799.056 1486.25 795.977 1481.67 Q792.921 1477.06 792.921 1468.33 Q792.921 1459.58 795.977 1455 Q799.056 1450.39 804.866 1450.39 Z" fill="#000000" fill-rule="nonzero" fill-opacity="1" /><path clip-path="url(#clip190)" d="M825.028 1479.7 L829.912 1479.7 L829.912 1485.58 L825.028 1485.58 L825.028 1479.7 Z" fill="#000000" fill-rule="nonzero" fill-opacity="1" /><path clip-path="url(#clip190)" d="M844.125 1481.64 L860.444 1481.64 L860.444 1485.58 L838.5 1485.58 L838.5 1481.64 Q841.162 1478.89 845.745 1474.26 Q850.352 1469.61 851.532 1468.27 Q853.777 1465.74 854.657 1464.01 Q855.56 1462.25 855.56 1460.56 Q855.56 1457.8 853.615 1456.07 Q851.694 1454.33 848.592 1454.33 Q846.393 1454.33 843.94 1455.09 Q841.509 1455.86 838.731 1457.41 L838.731 1452.69 Q841.555 1451.55 844.009 1450.97 Q846.463 1450.39 848.5 1450.39 Q853.87 1450.39 857.065 1453.08 Q860.259 1455.77 860.259 1460.26 Q860.259 1462.39 859.449 1464.31 Q858.662 1466.2 856.555 1468.8 Q855.977 1469.47 852.875 1472.69 Q849.773 1475.88 844.125 1481.64 Z" fill="#000000" fill-rule="nonzero" fill-opacity="1" /><path clip-path="url(#clip190)" d="M1093.76 1454.1 Q1090.15 1454.1 1088.32 1457.66 Q1086.51 1461.2 1086.51 1468.33 Q1086.51 1475.44 1088.32 1479.01 Q1090.15 1482.55 1093.76 1482.55 Q1097.39 1482.55 1099.2 1479.01 Q1101.03 1475.44 1101.03 1468.33 Q1101.03 1461.2 1099.2 1457.66 Q1097.39 1454.1 1093.76 1454.1 M1093.76 1450.39 Q1099.57 1450.39 1102.62 1455 Q1105.7 1459.58 1105.7 1468.33 Q1105.7 1477.06 1102.62 1481.67 Q1099.57 1486.25 1093.76 1486.25 Q1087.95 1486.25 1084.87 1481.67 Q1081.81 1477.06 1081.81 1468.33 Q1081.81 1459.58 1084.87 1455 Q1087.95 1450.39 1093.76 1450.39 Z" fill="#000000" fill-rule="nonzero" fill-opacity="1" /><path clip-path="url(#clip190)" d="M1113.92 1479.7 L1118.8 1479.7 L1118.8 1485.58 L1113.92 1485.58 L1113.92 1479.7 Z" fill="#000000" fill-rule="nonzero" fill-opacity="1" /><path clip-path="url(#clip190)" d="M1143.16 1466.95 Q1146.51 1467.66 1148.39 1469.93 Q1150.29 1472.2 1150.29 1475.53 Q1150.29 1480.65 1146.77 1483.45 Q1143.25 1486.25 1136.77 1486.25 Q1134.59 1486.25 1132.28 1485.81 Q1129.99 1485.39 1127.53 1484.54 L1127.53 1480.02 Q1129.48 1481.16 1131.79 1481.74 Q1134.11 1482.32 1136.63 1482.32 Q1141.03 1482.32 1143.32 1480.58 Q1145.63 1478.84 1145.63 1475.53 Q1145.63 1472.48 1143.48 1470.77 Q1141.35 1469.03 1137.53 1469.03 L1133.5 1469.03 L1133.5 1465.19 L1137.72 1465.19 Q1141.17 1465.19 1142.99 1463.82 Q1144.82 1462.43 1144.82 1459.84 Q1144.82 1457.18 1142.93 1455.77 Q1141.05 1454.33 1137.53 1454.33 Q1135.61 1454.33 1133.41 1454.75 Q1131.21 1455.16 1128.57 1456.04 L1128.57 1451.88 Q1131.24 1451.14 1133.55 1450.77 Q1135.89 1450.39 1137.95 1450.39 Q1143.27 1450.39 1146.37 1452.83 Q1149.48 1455.23 1149.48 1459.35 Q1149.48 1462.22 1147.83 1464.21 Q1146.19 1466.18 1143.16 1466.95 Z" fill="#000000" fill-rule="nonzero" fill-opacity="1" /><path clip-path="url(#clip190)" d="M1382.56 1454.1 Q1378.95 1454.1 1377.12 1457.66 Q1375.31 1461.2 1375.31 1468.33 Q1375.31 1475.44 1377.12 1479.01 Q1378.95 1482.55 1382.56 1482.55 Q1386.19 1482.55 1388 1479.01 Q1389.83 1475.44 1389.83 1468.33 Q1389.83 1461.2 1388 1457.66 Q1386.19 1454.1 1382.56 1454.1 M1382.56 1450.39 Q1388.37 1450.39 1391.42 1455 Q1394.5 1459.58 1394.5 1468.33 Q1394.5 1477.06 1391.42 1481.67 Q1388.37 1486.25 1382.56 1486.25 Q1376.75 1486.25 1373.67 1481.67 Q1370.61 1477.06 1370.61 1468.33 Q1370.61 1459.58 1373.67 1455 Q1376.75 1450.39 1382.56 1450.39 Z" fill="#000000" fill-rule="nonzero" fill-opacity="1" /><path clip-path="url(#clip190)" d="M1402.72 1479.7 L1407.61 1479.7 L1407.61 1485.58 L1402.72 1485.58 L1402.72 1479.7 Z" fill="#000000" fill-rule="nonzero" fill-opacity="1" /><path clip-path="url(#clip190)" d="M1430.64 1455.09 L1418.83 1473.54 L1430.64 1473.54 L1430.64 1455.09 M1429.41 1451.02 L1435.29 1451.02 L1435.29 1473.54 L1440.22 1473.54 L1440.22 1477.43 L1435.29 1477.43 L1435.29 1485.58 L1430.64 1485.58 L1430.64 1477.43 L1415.04 1477.43 L1415.04 1472.92 L1429.41 1451.02 Z" fill="#000000" fill-rule="nonzero" fill-opacity="1" /><path clip-path="url(#clip190)" d="M1672.67 1454.1 Q1669.06 1454.1 1667.23 1457.66 Q1665.42 1461.2 1665.42 1468.33 Q1665.42 1475.44 1667.23 1479.01 Q1669.06 1482.55 1672.67 1482.55 Q1676.3 1482.55 1678.11 1479.01 Q1679.94 1475.44 1679.94 1468.33 Q1679.94 1461.2 1678.11 1457.66 Q1676.3 1454.1 1672.67 1454.1 M1672.67 1450.39 Q1678.48 1450.39 1681.53 1455 Q1684.61 1459.58 1684.61 1468.33 Q1684.61 1477.06 1681.53 1481.67 Q1678.48 1486.25 1672.67 1486.25 Q1666.86 1486.25 1663.78 1481.67 Q1660.72 1477.06 1660.72 1468.33 Q1660.72 1459.58 1663.78 1455 Q1666.86 1450.39 1672.67 1450.39 Z" fill="#000000" fill-rule="nonzero" fill-opacity="1" /><path clip-path="url(#clip190)" d="M1692.83 1479.7 L1697.71 1479.7 L1697.71 1485.58 L1692.83 1485.58 L1692.83 1479.7 Z" fill="#000000" fill-rule="nonzero" fill-opacity="1" /><path clip-path="url(#clip190)" d="M1707.94 1451.02 L1726.3 1451.02 L1726.3 1454.96 L1712.23 1454.96 L1712.23 1463.43 Q1713.25 1463.08 1714.26 1462.92 Q1715.28 1462.73 1716.3 1462.73 Q1722.09 1462.73 1725.47 1465.9 Q1728.85 1469.08 1728.85 1474.49 Q1728.85 1480.07 1725.38 1483.17 Q1721.9 1486.25 1715.58 1486.25 Q1713.41 1486.25 1711.14 1485.88 Q1708.89 1485.51 1706.49 1484.77 L1706.49 1480.07 Q1708.57 1481.2 1710.79 1481.76 Q1713.01 1482.32 1715.49 1482.32 Q1719.5 1482.32 1721.83 1480.21 Q1724.17 1478.1 1724.17 1474.49 Q1724.17 1470.88 1721.83 1468.77 Q1719.5 1466.67 1715.49 1466.67 Q1713.62 1466.67 1711.74 1467.08 Q1709.89 1467.5 1707.94 1468.38 L1707.94 1451.02 Z" fill="#000000" fill-rule="nonzero" fill-opacity="1" /><path clip-path="url(#clip190)" d="M1961.46 1454.1 Q1957.84 1454.1 1956.02 1457.66 Q1954.21 1461.2 1954.21 1468.33 Q1954.21 1475.44 1956.02 1479.01 Q1957.84 1482.55 1961.46 1482.55 Q1965.09 1482.55 1966.9 1479.01 Q1968.72 1475.44 1968.72 1468.33 Q1968.72 1461.2 1966.9 1457.66 Q1965.09 1454.1 1961.46 1454.1 M1961.46 1450.39 Q1967.27 1450.39 1970.32 1455 Q1973.4 1459.58 1973.4 1468.33 Q1973.4 1477.06 1970.32 1481.67 Q1967.27 1486.25 1961.46 1486.25 Q1955.65 1486.25 1952.57 1481.67 Q1949.51 1477.06 1949.51 1468.33 Q1949.51 1459.58 1952.57 1455 Q1955.65 1450.39 1961.46 1450.39 Z" fill="#000000" fill-rule="nonzero" fill-opacity="1" /><path clip-path="url(#clip190)" d="M1981.62 1479.7 L1986.5 1479.7 L1986.5 1485.58 L1981.62 1485.58 L1981.62 1479.7 Z" fill="#000000" fill-rule="nonzero" fill-opacity="1" /><path clip-path="url(#clip190)" d="M2007.27 1466.44 Q2004.12 1466.44 2002.27 1468.59 Q2000.44 1470.74 2000.44 1474.49 Q2000.44 1478.22 2002.27 1480.39 Q2004.12 1482.55 2007.27 1482.55 Q2010.41 1482.55 2012.24 1480.39 Q2014.09 1478.22 2014.09 1474.49 Q2014.09 1470.74 2012.24 1468.59 Q2010.41 1466.44 2007.27 1466.44 M2016.55 1451.78 L2016.55 1456.04 Q2014.79 1455.21 2012.98 1454.77 Q2011.2 1454.33 2009.44 1454.33 Q2004.81 1454.33 2002.36 1457.45 Q1999.93 1460.58 1999.58 1466.9 Q2000.95 1464.89 2003.01 1463.82 Q2005.07 1462.73 2007.54 1462.73 Q2012.75 1462.73 2015.76 1465.9 Q2018.79 1469.05 2018.79 1474.49 Q2018.79 1479.82 2015.65 1483.03 Q2012.5 1486.25 2007.27 1486.25 Q2001.27 1486.25 1998.1 1481.67 Q1994.93 1477.06 1994.93 1468.33 Q1994.93 1460.14 1998.82 1455.28 Q2002.71 1450.39 2009.26 1450.39 Q2011.02 1450.39 2012.8 1450.74 Q2014.6 1451.09 2016.55 1451.78 Z" fill="#000000" fill-rule="nonzero" fill-opacity="1" /><path clip-path="url(#clip190)" d="M2251.36 1454.1 Q2247.74 1454.1 2245.92 1457.66 Q2244.11 1461.2 2244.11 1468.33 Q2244.11 1475.44 2245.92 1479.01 Q2247.74 1482.55 2251.36 1482.55 Q2254.99 1482.55 2256.8 1479.01 Q2258.62 1475.44 2258.62 1468.33 Q2258.62 1461.2 2256.8 1457.66 Q2254.99 1454.1 2251.36 1454.1 M2251.36 1450.39 Q2257.17 1450.39 2260.22 1455 Q2263.3 1459.58 2263.3 1468.33 Q2263.3 1477.06 2260.22 1481.67 Q2257.17 1486.25 2251.36 1486.25 Q2245.55 1486.25 2242.47 1481.67 Q2239.41 1477.06 2239.41 1468.33 Q2239.41 1459.58 2242.47 1455 Q2245.55 1450.39 2251.36 1450.39 Z" fill="#000000" fill-rule="nonzero" fill-opacity="1" /><path clip-path="url(#clip190)" d="M2271.52 1479.7 L2276.4 1479.7 L2276.4 1485.58 L2271.52 1485.58 L2271.52 1479.7 Z" fill="#000000" fill-rule="nonzero" fill-opacity="1" /><path clip-path="url(#clip190)" d="M2285.41 1451.02 L2307.63 1451.02 L2307.63 1453.01 L2295.08 1485.58 L2290.2 1485.58 L2302 1454.96 L2285.41 1454.96 L2285.41 1451.02 Z" fill="#000000" fill-rule="nonzero" fill-opacity="1" /><path clip-path="url(#clip190)" d="M1278.21 1549.73 L1284.76 1539.63 L1287.43 1553.03 L1287.92 1555.47 Q1288.04 1554.83 1288.37 1553.75 Q1288.73 1552.64 1288.78 1552.36 L1297.58 1518.59 Q1297.64 1518.37 1297.72 1518.01 Q1297.83 1517.62 1297.89 1517.48 Q1297.94 1517.34 1298.02 1517.07 Q1298.11 1516.79 1298.16 1516.71 Q1298.22 1516.6 1298.3 1516.4 Q1298.39 1516.21 1298.5 1516.15 Q1298.61 1516.1 1298.75 1515.99 Q1298.88 1515.87 1299.05 1515.85 Q1299.25 1515.82 1299.44 1515.79 Q1299.63 1515.76 1299.91 1515.76 L1304.88 1515.76 Q1306.63 1515.76 1306.63 1516.9 Q1306.63 1518.04 1304.93 1518.04 L1300.08 1518.04 L1288.62 1561.85 Q1288.45 1562.49 1288.31 1562.74 Q1288.2 1562.99 1287.81 1563.21 Q1287.43 1563.43 1286.73 1563.43 L1286.18 1563.43 L1282.54 1545.37 L1279.13 1550.64 L1278.21 1549.73 Z" fill="#000000" fill-rule="nonzero" fill-opacity="1" /><path clip-path="url(#clip190)" d="M1304.76 1518.05 L1354.25 1518.05 L1354.25 1515.69 L1304.76 1515.69  Z" fill="#000000" fill-rule="evenodd" fill-opacity="1"/>
<path clip-path="url(#clip190)" d="M1347.55 1553.49 Q1347.55 1553.75 1347.26 1554.75 Q1346.97 1555.74 1346.26 1557.29 Q1345.58 1558.84 1344.65 1560.25 Q1343.72 1561.64 1342.17 1562.67 Q1340.66 1563.67 1338.92 1563.67 Q1336.6 1563.67 1335.05 1562.12 Q1333.51 1560.58 1333.51 1558.26 Q1333.51 1556.97 1334.18 1555.2 Q1338.47 1543.76 1338.47 1539.83 Q1338.47 1535.23 1334.89 1535.23 Q1333.12 1535.23 1331.45 1535.91 Q1329.8 1536.55 1328.68 1537.45 Q1327.55 1538.35 1326.52 1539.61 Q1325.52 1540.83 1325 1541.67 Q1324.52 1542.48 1324.13 1543.28 L1323.3 1546.57 Q1323.1 1547.47 1322.17 1550.98 L1320.72 1556.94 Q1319.69 1561.38 1319.47 1561.8 Q1319.14 1562.7 1318.43 1563.18 Q1317.73 1563.67 1317.02 1563.67 Q1316.21 1563.67 1315.66 1563.18 Q1315.12 1562.7 1315.12 1561.86 Q1315.12 1561.73 1315.21 1561.25 Q1315.31 1560.77 1315.47 1560.09 Q1315.63 1559.42 1315.7 1559.03 L1319.53 1543.8 Q1320.24 1541.03 1320.4 1540.16 Q1320.59 1539.26 1320.59 1538.26 Q1320.59 1535.23 1318.53 1535.23 Q1316.86 1535.23 1315.76 1537.23 Q1314.67 1539.22 1313.73 1543.09 Q1313.44 1544.15 1313.25 1544.38 Q1313.09 1544.6 1312.61 1544.6 Q1311.8 1544.57 1311.8 1543.93 Q1311.8 1543.76 1312.06 1542.7 Q1312.32 1541.64 1312.8 1540.12 Q1313.31 1538.58 1313.8 1537.55 Q1314.22 1536.78 1314.44 1536.42 Q1314.7 1536.03 1315.31 1535.29 Q1315.95 1534.52 1316.79 1534.17 Q1317.66 1533.78 1318.72 1533.78 Q1321.11 1533.78 1322.85 1535.33 Q1324.59 1536.84 1324.81 1539.51 Q1329.09 1533.78 1335.08 1533.78 Q1338.63 1533.78 1340.66 1535.65 Q1342.69 1537.52 1342.69 1540.83 Q1342.69 1541.61 1342.52 1542.6 Q1342.4 1543.57 1342.07 1544.79 Q1341.78 1546.02 1341.53 1546.95 Q1341.27 1547.89 1340.75 1549.4 Q1340.24 1550.88 1340.01 1551.53 Q1339.79 1552.17 1339.24 1553.68 Q1338.72 1555.16 1338.66 1555.33 Q1337.47 1558.32 1337.47 1560.03 Q1337.47 1561.16 1337.82 1561.67 Q1338.21 1562.19 1339.05 1562.19 Q1341.3 1562.19 1342.98 1559.96 Q1344.68 1557.71 1345.78 1554.04 Q1346.03 1553.23 1346.16 1553.04 Q1346.32 1552.85 1346.78 1552.85 Q1347.55 1552.85 1347.55 1553.49 Z" fill="#000000" fill-rule="nonzero" fill-opacity="1" /><polyline clip-path="url(#clip192)" style="stroke:#000000; stroke-linecap:round; stroke-linejoin:round; stroke-width:2; stroke-opacity:0.1; fill:none" points="279.704,1266.3 2352.76,1266.3 "/>
<polyline clip-path="url(#clip192)" style="stroke:#000000; stroke-linecap:round; stroke-linejoin:round; stroke-width:2; stroke-opacity:0.1; fill:none" points="279.704,1087.51 2352.76,1087.51 "/>
<polyline clip-path="url(#clip192)" style="stroke:#000000; stroke-linecap:round; stroke-linejoin:round; stroke-width:2; stroke-opacity:0.1; fill:none" points="279.704,908.715 2352.76,908.715 "/>
<polyline clip-path="url(#clip192)" style="stroke:#000000; stroke-linecap:round; stroke-linejoin:round; stroke-width:2; stroke-opacity:0.1; fill:none" points="279.704,729.922 2352.76,729.922 "/>
<polyline clip-path="url(#clip192)" style="stroke:#000000; stroke-linecap:round; stroke-linejoin:round; stroke-width:2; stroke-opacity:0.1; fill:none" points="279.704,551.13 2352.76,551.13 "/>
<polyline clip-path="url(#clip192)" style="stroke:#000000; stroke-linecap:round; stroke-linejoin:round; stroke-width:2; stroke-opacity:0.1; fill:none" points="279.704,372.337 2352.76,372.337 "/>
<polyline clip-path="url(#clip192)" style="stroke:#000000; stroke-linecap:round; stroke-linejoin:round; stroke-width:2; stroke-opacity:0.1; fill:none" points="279.704,193.544 2352.76,193.544 "/>
<polyline clip-path="url(#clip190)" style="stroke:#000000; stroke-linecap:round; stroke-linejoin:round; stroke-width:4; stroke-opacity:1; fill:none" points="279.704,1423.18 279.704,47.2441 "/>
<polyline clip-path="url(#clip190)" style="stroke:#000000; stroke-linecap:round; stroke-linejoin:round; stroke-width:4; stroke-opacity:1; fill:none" points="279.704,1266.3 298.602,1266.3 "/>
<polyline clip-path="url(#clip190)" style="stroke:#000000; stroke-linecap:round; stroke-linejoin:round; stroke-width:4; stroke-opacity:1; fill:none" points="279.704,1087.51 298.602,1087.51 "/>
<polyline clip-path="url(#clip190)" style="stroke:#000000; stroke-linecap:round; stroke-linejoin:round; stroke-width:4; stroke-opacity:1; fill:none" points="279.704,908.715 298.602,908.715 "/>
<polyline clip-path="url(#clip190)" style="stroke:#000000; stroke-linecap:round; stroke-linejoin:round; stroke-width:4; stroke-opacity:1; fill:none" points="279.704,729.922 298.602,729.922 "/>
<polyline clip-path="url(#clip190)" style="stroke:#000000; stroke-linecap:round; stroke-linejoin:round; stroke-width:4; stroke-opacity:1; fill:none" points="279.704,551.13 298.602,551.13 "/>
<polyline clip-path="url(#clip190)" style="stroke:#000000; stroke-linecap:round; stroke-linejoin:round; stroke-width:4; stroke-opacity:1; fill:none" points="279.704,372.337 298.602,372.337 "/>
<polyline clip-path="url(#clip190)" style="stroke:#000000; stroke-linecap:round; stroke-linejoin:round; stroke-width:4; stroke-opacity:1; fill:none" points="279.704,193.544 298.602,193.544 "/>
<path clip-path="url(#clip190)" d="M127.2 1252.1 Q123.589 1252.1 121.76 1255.66 Q119.955 1259.21 119.955 1266.33 Q119.955 1273.44 121.76 1277.01 Q123.589 1280.55 127.2 1280.55 Q130.834 1280.55 132.64 1277.01 Q134.468 1273.44 134.468 1266.33 Q134.468 1259.21 132.64 1255.66 Q130.834 1252.1 127.2 1252.1 M127.2 1248.4 Q133.01 1248.4 136.066 1253 Q139.144 1257.58 139.144 1266.33 Q139.144 1275.06 136.066 1279.67 Q133.01 1284.25 127.2 1284.25 Q121.39 1284.25 118.311 1279.67 Q115.256 1275.06 115.256 1266.33 Q115.256 1257.58 118.311 1253 Q121.39 1248.4 127.2 1248.4 Z" fill="#000000" fill-rule="nonzero" fill-opacity="1" /><path clip-path="url(#clip190)" d="M147.362 1277.7 L152.246 1277.7 L152.246 1283.58 L147.362 1283.58 L147.362 1277.7 Z" fill="#000000" fill-rule="nonzero" fill-opacity="1" /><path clip-path="url(#clip190)" d="M172.431 1252.1 Q168.82 1252.1 166.991 1255.66 Q165.186 1259.21 165.186 1266.33 Q165.186 1273.44 166.991 1277.01 Q168.82 1280.55 172.431 1280.55 Q176.065 1280.55 177.871 1277.01 Q179.7 1273.44 179.7 1266.33 Q179.7 1259.21 177.871 1255.66 Q176.065 1252.1 172.431 1252.1 M172.431 1248.4 Q178.241 1248.4 181.297 1253 Q184.376 1257.58 184.376 1266.33 Q184.376 1275.06 181.297 1279.67 Q178.241 1284.25 172.431 1284.25 Q166.621 1284.25 163.542 1279.67 Q160.487 1275.06 160.487 1266.33 Q160.487 1257.58 163.542 1253 Q166.621 1248.4 172.431 1248.4 Z" fill="#000000" fill-rule="nonzero" fill-opacity="1" /><path clip-path="url(#clip190)" d="M196.621 1279.65 L212.94 1279.65 L212.94 1283.58 L190.996 1283.58 L190.996 1279.65 Q193.658 1276.89 198.241 1272.26 Q202.848 1267.61 204.028 1266.27 Q206.274 1263.74 207.153 1262.01 Q208.056 1260.25 208.056 1258.56 Q208.056 1255.8 206.112 1254.07 Q204.19 1252.33 201.088 1252.33 Q198.889 1252.33 196.436 1253.09 Q194.005 1253.86 191.227 1255.41 L191.227 1250.69 Q194.051 1249.55 196.505 1248.97 Q198.959 1248.4 200.996 1248.4 Q206.366 1248.4 209.561 1251.08 Q212.755 1253.77 212.755 1258.26 Q212.755 1260.39 211.945 1262.31 Q211.158 1264.21 209.051 1266.8 Q208.473 1267.47 205.371 1270.69 Q202.269 1273.88 196.621 1279.65 Z" fill="#000000" fill-rule="nonzero" fill-opacity="1" /><path clip-path="url(#clip190)" d="M222.801 1249.02 L241.158 1249.02 L241.158 1252.96 L227.084 1252.96 L227.084 1261.43 Q228.102 1261.08 229.121 1260.92 Q230.139 1260.73 231.158 1260.73 Q236.945 1260.73 240.324 1263.9 Q243.704 1267.08 243.704 1272.49 Q243.704 1278.07 240.232 1281.17 Q236.76 1284.25 230.44 1284.25 Q228.264 1284.25 225.996 1283.88 Q223.75 1283.51 221.343 1282.77 L221.343 1278.07 Q223.426 1279.21 225.648 1279.76 Q227.871 1280.32 230.347 1280.32 Q234.352 1280.32 236.69 1278.21 Q239.028 1276.1 239.028 1272.49 Q239.028 1268.88 236.69 1266.77 Q234.352 1264.67 230.347 1264.67 Q228.473 1264.67 226.598 1265.08 Q224.746 1265.5 222.801 1266.38 L222.801 1249.02 Z" fill="#000000" fill-rule="nonzero" fill-opacity="1" /><path clip-path="url(#clip190)" d="M126.205 1073.31 Q122.593 1073.31 120.765 1076.87 Q118.959 1080.41 118.959 1087.54 Q118.959 1094.65 120.765 1098.21 Q122.593 1101.76 126.205 1101.76 Q129.839 1101.76 131.644 1098.21 Q133.473 1094.65 133.473 1087.54 Q133.473 1080.41 131.644 1076.87 Q129.839 1073.31 126.205 1073.31 M126.205 1069.6 Q132.015 1069.6 135.07 1074.21 Q138.149 1078.79 138.149 1087.54 Q138.149 1096.27 135.07 1100.88 Q132.015 1105.46 126.205 1105.46 Q120.394 1105.46 117.316 1100.88 Q114.26 1096.27 114.26 1087.54 Q114.26 1078.79 117.316 1074.21 Q120.394 1069.6 126.205 1069.6 Z" fill="#000000" fill-rule="nonzero" fill-opacity="1" /><path clip-path="url(#clip190)" d="M146.366 1098.91 L151.251 1098.91 L151.251 1104.79 L146.366 1104.79 L146.366 1098.91 Z" fill="#000000" fill-rule="nonzero" fill-opacity="1" /><path clip-path="url(#clip190)" d="M171.436 1073.31 Q167.825 1073.31 165.996 1076.87 Q164.19 1080.41 164.19 1087.54 Q164.19 1094.65 165.996 1098.21 Q167.825 1101.76 171.436 1101.76 Q175.07 1101.76 176.876 1098.21 Q178.704 1094.65 178.704 1087.54 Q178.704 1080.41 176.876 1076.87 Q175.07 1073.31 171.436 1073.31 M171.436 1069.6 Q177.246 1069.6 180.301 1074.21 Q183.38 1078.79 183.38 1087.54 Q183.38 1096.27 180.301 1100.88 Q177.246 1105.46 171.436 1105.46 Q165.626 1105.46 162.547 1100.88 Q159.491 1096.27 159.491 1087.54 Q159.491 1078.79 162.547 1074.21 Q165.626 1069.6 171.436 1069.6 Z" fill="#000000" fill-rule="nonzero" fill-opacity="1" /><path clip-path="url(#clip190)" d="M191.644 1070.23 L210 1070.23 L210 1074.16 L195.926 1074.16 L195.926 1082.63 Q196.945 1082.29 197.963 1082.13 Q198.982 1081.94 200 1081.94 Q205.787 1081.94 209.167 1085.11 Q212.547 1088.28 212.547 1093.7 Q212.547 1099.28 209.074 1102.38 Q205.602 1105.46 199.283 1105.46 Q197.107 1105.46 194.838 1105.09 Q192.593 1104.72 190.186 1103.98 L190.186 1099.28 Q192.269 1100.41 194.491 1100.97 Q196.713 1101.52 199.19 1101.52 Q203.195 1101.52 205.533 1099.42 Q207.871 1097.31 207.871 1093.7 Q207.871 1090.09 205.533 1087.98 Q203.195 1085.88 199.19 1085.88 Q197.315 1085.88 195.44 1086.29 Q193.588 1086.71 191.644 1087.59 L191.644 1070.23 Z" fill="#000000" fill-rule="nonzero" fill-opacity="1" /><path clip-path="url(#clip190)" d="M231.76 1073.31 Q228.148 1073.31 226.32 1076.87 Q224.514 1080.41 224.514 1087.54 Q224.514 1094.65 226.32 1098.21 Q228.148 1101.76 231.76 1101.76 Q235.394 1101.76 237.199 1098.21 Q239.028 1094.65 239.028 1087.54 Q239.028 1080.41 237.199 1076.87 Q235.394 1073.31 231.76 1073.31 M231.76 1069.6 Q237.57 1069.6 240.625 1074.21 Q243.704 1078.79 243.704 1087.54 Q243.704 1096.27 240.625 1100.88 Q237.57 1105.46 231.76 1105.46 Q225.949 1105.46 222.871 1100.88 Q219.815 1096.27 219.815 1087.54 Q219.815 1078.79 222.871 1074.21 Q225.949 1069.6 231.76 1069.6 Z" fill="#000000" fill-rule="nonzero" fill-opacity="1" /><path clip-path="url(#clip190)" d="M127.2 894.514 Q123.589 894.514 121.76 898.078 Q119.955 901.62 119.955 908.75 Q119.955 915.856 121.76 919.421 Q123.589 922.963 127.2 922.963 Q130.834 922.963 132.64 919.421 Q134.468 915.856 134.468 908.75 Q134.468 901.62 132.64 898.078 Q130.834 894.514 127.2 894.514 M127.2 890.81 Q133.01 890.81 136.066 895.416 Q139.144 900 139.144 908.75 Q139.144 917.476 136.066 922.083 Q133.01 926.666 127.2 926.666 Q121.39 926.666 118.311 922.083 Q115.256 917.476 115.256 908.75 Q115.256 900 118.311 895.416 Q121.39 890.81 127.2 890.81 Z" fill="#000000" fill-rule="nonzero" fill-opacity="1" /><path clip-path="url(#clip190)" d="M147.362 920.115 L152.246 920.115 L152.246 925.995 L147.362 925.995 L147.362 920.115 Z" fill="#000000" fill-rule="nonzero" fill-opacity="1" /><path clip-path="url(#clip190)" d="M172.431 894.514 Q168.82 894.514 166.991 898.078 Q165.186 901.62 165.186 908.75 Q165.186 915.856 166.991 919.421 Q168.82 922.963 172.431 922.963 Q176.065 922.963 177.871 919.421 Q179.7 915.856 179.7 908.75 Q179.7 901.62 177.871 898.078 Q176.065 894.514 172.431 894.514 M172.431 890.81 Q178.241 890.81 181.297 895.416 Q184.376 900 184.376 908.75 Q184.376 917.476 181.297 922.083 Q178.241 926.666 172.431 926.666 Q166.621 926.666 163.542 922.083 Q160.487 917.476 160.487 908.75 Q160.487 900 163.542 895.416 Q166.621 890.81 172.431 890.81 Z" fill="#000000" fill-rule="nonzero" fill-opacity="1" /><path clip-path="url(#clip190)" d="M191.413 891.435 L213.635 891.435 L213.635 893.426 L201.088 925.995 L196.204 925.995 L208.01 895.37 L191.413 895.37 L191.413 891.435 Z" fill="#000000" fill-rule="nonzero" fill-opacity="1" /><path clip-path="url(#clip190)" d="M222.801 891.435 L241.158 891.435 L241.158 895.37 L227.084 895.37 L227.084 903.842 Q228.102 903.495 229.121 903.333 Q230.139 903.148 231.158 903.148 Q236.945 903.148 240.324 906.319 Q243.704 909.49 243.704 914.907 Q243.704 920.486 240.232 923.588 Q236.76 926.666 230.44 926.666 Q228.264 926.666 225.996 926.296 Q223.75 925.925 221.343 925.185 L221.343 920.486 Q223.426 921.62 225.648 922.175 Q227.871 922.731 230.347 922.731 Q234.352 922.731 236.69 920.625 Q239.028 918.518 239.028 914.907 Q239.028 911.296 236.69 909.189 Q234.352 907.083 230.347 907.083 Q228.473 907.083 226.598 907.5 Q224.746 907.916 222.801 908.796 L222.801 891.435 Z" fill="#000000" fill-rule="nonzero" fill-opacity="1" /><path clip-path="url(#clip190)" d="M126.205 715.721 Q122.593 715.721 120.765 719.286 Q118.959 722.827 118.959 729.957 Q118.959 737.063 120.765 740.628 Q122.593 744.17 126.205 744.17 Q129.839 744.17 131.644 740.628 Q133.473 737.063 133.473 729.957 Q133.473 722.827 131.644 719.286 Q129.839 715.721 126.205 715.721 M126.205 712.017 Q132.015 712.017 135.07 716.624 Q138.149 721.207 138.149 729.957 Q138.149 738.684 135.07 743.29 Q132.015 747.874 126.205 747.874 Q120.394 747.874 117.316 743.29 Q114.26 738.684 114.26 729.957 Q114.26 721.207 117.316 716.624 Q120.394 712.017 126.205 712.017 Z" fill="#000000" fill-rule="nonzero" fill-opacity="1" /><path clip-path="url(#clip190)" d="M146.366 741.323 L151.251 741.323 L151.251 747.202 L146.366 747.202 L146.366 741.323 Z" fill="#000000" fill-rule="nonzero" fill-opacity="1" /><path clip-path="url(#clip190)" d="M162.246 743.267 L169.885 743.267 L169.885 716.901 L161.575 718.568 L161.575 714.309 L169.839 712.642 L174.514 712.642 L174.514 743.267 L182.153 743.267 L182.153 747.202 L162.246 747.202 L162.246 743.267 Z" fill="#000000" fill-rule="nonzero" fill-opacity="1" /><path clip-path="url(#clip190)" d="M201.598 715.721 Q197.987 715.721 196.158 719.286 Q194.352 722.827 194.352 729.957 Q194.352 737.063 196.158 740.628 Q197.987 744.17 201.598 744.17 Q205.232 744.17 207.037 740.628 Q208.866 737.063 208.866 729.957 Q208.866 722.827 207.037 719.286 Q205.232 715.721 201.598 715.721 M201.598 712.017 Q207.408 712.017 210.463 716.624 Q213.542 721.207 213.542 729.957 Q213.542 738.684 210.463 743.29 Q207.408 747.874 201.598 747.874 Q195.787 747.874 192.709 743.29 Q189.653 738.684 189.653 729.957 Q189.653 721.207 192.709 716.624 Q195.787 712.017 201.598 712.017 Z" fill="#000000" fill-rule="nonzero" fill-opacity="1" /><path clip-path="url(#clip190)" d="M231.76 715.721 Q228.148 715.721 226.32 719.286 Q224.514 722.827 224.514 729.957 Q224.514 737.063 226.32 740.628 Q228.148 744.17 231.76 744.17 Q235.394 744.17 237.199 740.628 Q239.028 737.063 239.028 729.957 Q239.028 722.827 237.199 719.286 Q235.394 715.721 231.76 715.721 M231.76 712.017 Q237.57 712.017 240.625 716.624 Q243.704 721.207 243.704 729.957 Q243.704 738.684 240.625 743.29 Q237.57 747.874 231.76 747.874 Q225.949 747.874 222.871 743.29 Q219.815 738.684 219.815 729.957 Q219.815 721.207 222.871 716.624 Q225.949 712.017 231.76 712.017 Z" fill="#000000" fill-rule="nonzero" fill-opacity="1" /><path clip-path="url(#clip190)" d="M127.2 536.928 Q123.589 536.928 121.76 540.493 Q119.955 544.035 119.955 551.164 Q119.955 558.271 121.76 561.836 Q123.589 565.377 127.2 565.377 Q130.834 565.377 132.64 561.836 Q134.468 558.271 134.468 551.164 Q134.468 544.035 132.64 540.493 Q130.834 536.928 127.2 536.928 M127.2 533.225 Q133.01 533.225 136.066 537.831 Q139.144 542.414 139.144 551.164 Q139.144 559.891 136.066 564.498 Q133.01 569.081 127.2 569.081 Q121.39 569.081 118.311 564.498 Q115.256 559.891 115.256 551.164 Q115.256 542.414 118.311 537.831 Q121.39 533.225 127.2 533.225 Z" fill="#000000" fill-rule="nonzero" fill-opacity="1" /><path clip-path="url(#clip190)" d="M147.362 562.53 L152.246 562.53 L152.246 568.41 L147.362 568.41 L147.362 562.53 Z" fill="#000000" fill-rule="nonzero" fill-opacity="1" /><path clip-path="url(#clip190)" d="M163.241 564.474 L170.88 564.474 L170.88 538.109 L162.57 539.775 L162.57 535.516 L170.834 533.85 L175.51 533.85 L175.51 564.474 L183.149 564.474 L183.149 568.41 L163.241 568.41 L163.241 564.474 Z" fill="#000000" fill-rule="nonzero" fill-opacity="1" /><path clip-path="url(#clip190)" d="M196.621 564.474 L212.94 564.474 L212.94 568.41 L190.996 568.41 L190.996 564.474 Q193.658 561.72 198.241 557.09 Q202.848 552.437 204.028 551.095 Q206.274 548.572 207.153 546.836 Q208.056 545.076 208.056 543.387 Q208.056 540.632 206.112 538.896 Q204.19 537.16 201.088 537.16 Q198.889 537.16 196.436 537.924 Q194.005 538.688 191.227 540.238 L191.227 535.516 Q194.051 534.382 196.505 533.803 Q198.959 533.225 200.996 533.225 Q206.366 533.225 209.561 535.91 Q212.755 538.595 212.755 543.086 Q212.755 545.215 211.945 547.137 Q211.158 549.035 209.051 551.627 Q208.473 552.299 205.371 555.516 Q202.269 558.711 196.621 564.474 Z" fill="#000000" fill-rule="nonzero" fill-opacity="1" /><path clip-path="url(#clip190)" d="M222.801 533.85 L241.158 533.85 L241.158 537.785 L227.084 537.785 L227.084 546.257 Q228.102 545.91 229.121 545.748 Q230.139 545.562 231.158 545.562 Q236.945 545.562 240.324 548.734 Q243.704 551.905 243.704 557.322 Q243.704 562.9 240.232 566.002 Q236.76 569.081 230.44 569.081 Q228.264 569.081 225.996 568.711 Q223.75 568.34 221.343 567.599 L221.343 562.9 Q223.426 564.035 225.648 564.59 Q227.871 565.146 230.347 565.146 Q234.352 565.146 236.69 563.039 Q239.028 560.933 239.028 557.322 Q239.028 553.711 236.69 551.604 Q234.352 549.498 230.347 549.498 Q228.473 549.498 226.598 549.914 Q224.746 550.331 222.801 551.211 L222.801 533.85 Z" fill="#000000" fill-rule="nonzero" fill-opacity="1" /><path clip-path="url(#clip190)" d="M126.205 358.136 Q122.593 358.136 120.765 361.7 Q118.959 365.242 118.959 372.372 Q118.959 379.478 120.765 383.043 Q122.593 386.585 126.205 386.585 Q129.839 386.585 131.644 383.043 Q133.473 379.478 133.473 372.372 Q133.473 365.242 131.644 361.7 Q129.839 358.136 126.205 358.136 M126.205 354.432 Q132.015 354.432 135.07 359.038 Q138.149 363.622 138.149 372.372 Q138.149 381.098 135.07 385.705 Q132.015 390.288 126.205 390.288 Q120.394 390.288 117.316 385.705 Q114.26 381.098 114.26 372.372 Q114.26 363.622 117.316 359.038 Q120.394 354.432 126.205 354.432 Z" fill="#000000" fill-rule="nonzero" fill-opacity="1" /><path clip-path="url(#clip190)" d="M146.366 383.737 L151.251 383.737 L151.251 389.617 L146.366 389.617 L146.366 383.737 Z" fill="#000000" fill-rule="nonzero" fill-opacity="1" /><path clip-path="url(#clip190)" d="M162.246 385.682 L169.885 385.682 L169.885 359.316 L161.575 360.983 L161.575 356.724 L169.839 355.057 L174.514 355.057 L174.514 385.682 L182.153 385.682 L182.153 389.617 L162.246 389.617 L162.246 385.682 Z" fill="#000000" fill-rule="nonzero" fill-opacity="1" /><path clip-path="url(#clip190)" d="M191.644 355.057 L210 355.057 L210 358.992 L195.926 358.992 L195.926 367.464 Q196.945 367.117 197.963 366.955 Q198.982 366.77 200 366.77 Q205.787 366.77 209.167 369.941 Q212.547 373.112 212.547 378.529 Q212.547 384.108 209.074 387.21 Q205.602 390.288 199.283 390.288 Q197.107 390.288 194.838 389.918 Q192.593 389.547 190.186 388.807 L190.186 384.108 Q192.269 385.242 194.491 385.797 Q196.713 386.353 199.19 386.353 Q203.195 386.353 205.533 384.247 Q207.871 382.14 207.871 378.529 Q207.871 374.918 205.533 372.811 Q203.195 370.705 199.19 370.705 Q197.315 370.705 195.44 371.122 Q193.588 371.538 191.644 372.418 L191.644 355.057 Z" fill="#000000" fill-rule="nonzero" fill-opacity="1" /><path clip-path="url(#clip190)" d="M231.76 358.136 Q228.148 358.136 226.32 361.7 Q224.514 365.242 224.514 372.372 Q224.514 379.478 226.32 383.043 Q228.148 386.585 231.76 386.585 Q235.394 386.585 237.199 383.043 Q239.028 379.478 239.028 372.372 Q239.028 365.242 237.199 361.7 Q235.394 358.136 231.76 358.136 M231.76 354.432 Q237.57 354.432 240.625 359.038 Q243.704 363.622 243.704 372.372 Q243.704 381.098 240.625 385.705 Q237.57 390.288 231.76 390.288 Q225.949 390.288 222.871 385.705 Q219.815 381.098 219.815 372.372 Q219.815 363.622 222.871 359.038 Q225.949 354.432 231.76 354.432 Z" fill="#000000" fill-rule="nonzero" fill-opacity="1" /><path clip-path="url(#clip190)" d="M127.2 179.343 Q123.589 179.343 121.76 182.908 Q119.955 186.449 119.955 193.579 Q119.955 200.685 121.76 204.25 Q123.589 207.792 127.2 207.792 Q130.834 207.792 132.64 204.25 Q134.468 200.685 134.468 193.579 Q134.468 186.449 132.64 182.908 Q130.834 179.343 127.2 179.343 M127.2 175.639 Q133.01 175.639 136.066 180.246 Q139.144 184.829 139.144 193.579 Q139.144 202.306 136.066 206.912 Q133.01 211.496 127.2 211.496 Q121.39 211.496 118.311 206.912 Q115.256 202.306 115.256 193.579 Q115.256 184.829 118.311 180.246 Q121.39 175.639 127.2 175.639 Z" fill="#000000" fill-rule="nonzero" fill-opacity="1" /><path clip-path="url(#clip190)" d="M147.362 204.945 L152.246 204.945 L152.246 210.824 L147.362 210.824 L147.362 204.945 Z" fill="#000000" fill-rule="nonzero" fill-opacity="1" /><path clip-path="url(#clip190)" d="M163.241 206.889 L170.88 206.889 L170.88 180.523 L162.57 182.19 L162.57 177.931 L170.834 176.264 L175.51 176.264 L175.51 206.889 L183.149 206.889 L183.149 210.824 L163.241 210.824 L163.241 206.889 Z" fill="#000000" fill-rule="nonzero" fill-opacity="1" /><path clip-path="url(#clip190)" d="M191.413 176.264 L213.635 176.264 L213.635 178.255 L201.088 210.824 L196.204 210.824 L208.01 180.199 L191.413 180.199 L191.413 176.264 Z" fill="#000000" fill-rule="nonzero" fill-opacity="1" /><path clip-path="url(#clip190)" d="M222.801 176.264 L241.158 176.264 L241.158 180.199 L227.084 180.199 L227.084 188.672 Q228.102 188.324 229.121 188.162 Q230.139 187.977 231.158 187.977 Q236.945 187.977 240.324 191.148 Q243.704 194.32 243.704 199.736 Q243.704 205.315 240.232 208.417 Q236.76 211.496 230.44 211.496 Q228.264 211.496 225.996 211.125 Q223.75 210.755 221.343 210.014 L221.343 205.315 Q223.426 206.449 225.648 207.005 Q227.871 207.56 230.347 207.56 Q234.352 207.56 236.69 205.454 Q239.028 203.347 239.028 199.736 Q239.028 196.125 236.69 194.019 Q234.352 191.912 230.347 191.912 Q228.473 191.912 226.598 192.329 Q224.746 192.746 222.801 193.625 L222.801 176.264 Z" fill="#000000" fill-rule="nonzero" fill-opacity="1" /><path clip-path="url(#clip190)" d="M16.4842 755.312 L16.4842 715.112 L21.895 715.112 L21.895 731.981 L64.0042 731.981 L64.0042 738.443 L21.895 738.443 L21.895 755.312 L16.4842 755.312 Z" fill="#000000" fill-rule="nonzero" fill-opacity="1" /><circle clip-path="url(#clip192)" cx="2294.08" cy="86.1857" r="14.4" fill="#009af9" fill-rule="evenodd" fill-opacity="1" stroke="#000000" stroke-opacity="1" stroke-width="3.2"/>
<circle clip-path="url(#clip192)" cx="1694.79" cy="477.662" r="14.4" fill="#009af9" fill-rule="evenodd" fill-opacity="1" stroke="#000000" stroke-opacity="1" stroke-width="3.2"/>
<circle clip-path="url(#clip192)" cx="1271.02" cy="758.772" r="14.4" fill="#009af9" fill-rule="evenodd" fill-opacity="1" stroke="#000000" stroke-opacity="1" stroke-width="3.2"/>
<circle clip-path="url(#clip192)" cx="971.366" cy="959.011" r="14.4" fill="#009af9" fill-rule="evenodd" fill-opacity="1" stroke="#000000" stroke-opacity="1" stroke-width="3.2"/>
<circle clip-path="url(#clip192)" cx="759.482" cy="1101.11" r="14.4" fill="#009af9" fill-rule="evenodd" fill-opacity="1" stroke="#000000" stroke-opacity="1" stroke-width="3.2"/>
<circle clip-path="url(#clip192)" cx="609.657" cy="1201.76" r="14.4" fill="#009af9" fill-rule="evenodd" fill-opacity="1" stroke="#000000" stroke-opacity="1" stroke-width="3.2"/>
<circle clip-path="url(#clip192)" cx="503.715" cy="1273" r="14.4" fill="#009af9" fill-rule="evenodd" fill-opacity="1" stroke="#000000" stroke-opacity="1" stroke-width="3.2"/>
<circle clip-path="url(#clip192)" cx="428.803" cy="1323.39" r="14.4" fill="#009af9" fill-rule="evenodd" fill-opacity="1" stroke="#000000" stroke-opacity="1" stroke-width="3.2"/>
<circle clip-path="url(#clip192)" cx="375.831" cy="1359.03" r="14.4" fill="#009af9" fill-rule="evenodd" fill-opacity="1" stroke="#000000" stroke-opacity="1" stroke-width="3.2"/>
<circle clip-path="url(#clip192)" cx="338.375" cy="1384.24" r="14.4" fill="#009af9" fill-rule="evenodd" fill-opacity="1" stroke="#000000" stroke-opacity="1" stroke-width="3.2"/>
</svg>