<?xml version="1.0" encoding="utf-8"?>
<svg xmlns="http://www.w3.org/2000/svg" xmlns:xlink="http://www.w3.org/1999/xlink" width="600" height="400" viewBox="0 0 2400 1600">
<defs>
  <clipPath id="clip580">
    <rect x="0" y="0" width="2400" height="1600"/>
  </clipPath>
</defs>
<path clip-path="url(#clip580)" d="M0 1600 L2400 1600 L2400 8.88178e-14 L0 8.88178e-14  Z" fill="#ffffff" fill-rule="evenodd" fill-opacity="1"/>
<defs>
  <clipPath id="clip581">
    <rect x="480" y="0" width="1681" height="1600"/>
  </clipPath>
</defs>
<path clip-path="url(#clip580)" d="M147.478 1486.45 L2352.76 1486.45 L2352.76 47.2441 L147.478 47.2441  Z" fill="#ffffff" fill-rule="evenodd" fill-opacity="1"/>
<defs>
  <clipPath id="clip582">
    <rect x="147" y="47" width="2206" height="1440"/>
  </clipPath>
</defs>
<polyline clip-path="url(#clip582)" style="stroke:#000000; stroke-linecap:round; stroke-linejoin:round; stroke-width:2; stroke-opacity:0.1; fill:none" points="491.033,1486.45 491.033,47.2441 "/>
<polyline clip-path="url(#clip582)" style="stroke:#000000; stroke-linecap:round; stroke-linejoin:round; stroke-width:2; stroke-opacity:0.1; fill:none" points="1053.32,1486.45 1053.32,47.2441 "/>
<polyline clip-path="url(#clip582)" style="stroke:#000000; stroke-linecap:round; stroke-linejoin:round; stroke-width:2; stroke-opacity:0.1; fill:none" points="1615.6,1486.45 1615.6,47.2441 "/>
<polyline clip-path="url(#clip582)" style="stroke:#000000; stroke-linecap:round; stroke-linejoin:round; stroke-width:2; stroke-opacity:0.1; fill:none" points="2177.89,1486.45 2177.89,47.2441 "/>
<polyline clip-path="url(#clip580)" style="stroke:#000000; stroke-linecap:round; stroke-linejoin:round; stroke-width:4; stroke-opacity:1; fill:none" points="147.478,1486.45 2352.76,1486.45 "/>
<polyline clip-path="url(#clip580)" style="stroke:#000000; stroke-linecap:round; stroke-linejoin:round; stroke-width:4; stroke-opacity:1; fill:none" points="491.033,1486.45 491.033,1467.55 "/>
<polyline clip-path="url(#clip580)" style="stroke:#000000; stroke-linecap:round; stroke-linejoin:round; stroke-width:4; stroke-opacity:1; fill:none" points="1053.32,1486.45 1053.32,1467.55 "/>
<polyline clip-path="url(#clip580)" style="stroke:#000000; stroke-linecap:round; stroke-linejoin:round; stroke-width:4; stroke-opacity:1; fill:none" points="1615.6,1486.45 1615.6,1467.55 "/>
<polyline clip-path="url(#clip580)" style="stroke:#000000; stroke-linecap:round; stroke-linejoin:round; stroke-width:4; stroke-opacity:1; fill:none" points="2177.89,1486.45 2177.89,1467.55 "/>
<path clip-path="url(#clip580)" d="M460.791 1532.02 L490.466 1532.02 L490.466 1535.95 L460.791 1535.95 L460.791 1532.02 Z" fill="#000000" fill-rule="nonzero" fill-opacity="1" /><path clip-path="url(#clip580)" d="M501.369 1544.91 L509.008 1544.91 L509.008 1518.55 L500.698 1520.21 L500.698 1515.95 L508.962 1514.29 L513.638 1514.29 L513.638 1544.91 L521.276 1544.91 L521.276 1548.85 L501.369 1548.85 L501.369 1544.91 Z" fill="#000000" fill-rule="nonzero" fill-opacity="1" /><path clip-path="url(#clip580)" d="M1053.32 1517.37 Q1049.71 1517.37 1047.88 1520.93 Q1046.07 1524.47 1046.07 1531.6 Q1046.07 1538.71 1047.88 1542.27 Q1049.71 1545.82 1053.32 1545.82 Q1056.95 1545.82 1058.76 1542.27 Q1060.59 1538.71 1060.59 1531.6 Q1060.59 1524.47 1058.76 1520.93 Q1056.95 1517.37 1053.32 1517.37 M1053.32 1513.66 Q1059.13 1513.66 1062.18 1518.27 Q1065.26 1522.85 1065.26 1531.6 Q1065.26 1540.33 1062.18 1544.94 Q1059.13 1549.52 1053.32 1549.52 Q1047.51 1549.52 1044.43 1544.94 Q1041.37 1540.33 1041.37 1531.6 Q1041.37 1522.85 1044.43 1518.27 Q1047.51 1513.66 1053.32 1513.66 Z" fill="#000000" fill-rule="nonzero" fill-opacity="1" /><path clip-path="url(#clip580)" d="M1605.98 1544.91 L1613.62 1544.91 L1613.62 1518.55 L1605.31 1520.21 L1605.31 1515.95 L1613.58 1514.29 L1618.25 1514.29 L1618.25 1544.91 L1625.89 1544.91 L1625.89 1548.85 L1605.98 1548.85 L1605.98 1544.91 Z" fill="#000000" fill-rule="nonzero" fill-opacity="1" /><path clip-path="url(#clip580)" d="M2172.54 1544.91 L2188.86 1544.91 L2188.86 1548.85 L2166.91 1548.85 L2166.91 1544.91 Q2169.58 1542.16 2174.16 1537.53 Q2178.77 1532.88 2179.95 1531.53 Q2182.19 1529.01 2183.07 1527.27 Q2183.97 1525.51 2183.97 1523.82 Q2183.97 1521.07 2182.03 1519.33 Q2180.11 1517.6 2177.01 1517.6 Q2174.81 1517.6 2172.35 1518.36 Q2169.92 1519.13 2167.14 1520.68 L2167.14 1515.95 Q2169.97 1514.82 2172.42 1514.24 Q2174.88 1513.66 2176.91 1513.66 Q2182.28 1513.66 2185.48 1516.35 Q2188.67 1519.03 2188.67 1523.52 Q2188.67 1525.65 2187.86 1527.57 Q2187.08 1529.47 2184.97 1532.07 Q2184.39 1532.74 2181.29 1535.95 Q2178.19 1539.15 2172.54 1544.91 Z" fill="#000000" fill-rule="nonzero" fill-opacity="1" /><polyline clip-path="url(#clip582)" style="stroke:#000000; stroke-linecap:round; stroke-linejoin:round; stroke-width:2; stroke-opacity:0.1; fill:none" points="147.478,1235.3 2352.76,1235.3 "/>
<polyline clip-path="url(#clip582)" style="stroke:#000000; stroke-linecap:round; stroke-linejoin:round; stroke-width:2; stroke-opacity:0.1; fill:none" points="147.478,898.647 2352.76,898.647 "/>
<polyline clip-path="url(#clip582)" style="stroke:#000000; stroke-linecap:round; stroke-linejoin:round; stroke-width:2; stroke-opacity:0.1; fill:none" points="147.478,561.99 2352.76,561.99 "/>
<polyline clip-path="url(#clip582)" style="stroke:#000000; stroke-linecap:round; stroke-linejoin:round; stroke-width:2; stroke-opacity:0.1; fill:none" points="147.478,225.333 2352.76,225.333 "/>
<polyline clip-path="url(#clip580)" style="stroke:#000000; stroke-linecap:round; stroke-linejoin:round; stroke-width:4; stroke-opacity:1; fill:none" points="147.478,1486.45 147.478,47.2441 "/>
<polyline clip-path="url(#clip580)" style="stroke:#000000; stroke-linecap:round; stroke-linejoin:round; stroke-width:4; stroke-opacity:1; fill:none" points="147.478,1235.3 166.376,1235.3 "/>
<polyline clip-path="url(#clip580)" style="stroke:#000000; stroke-linecap:round; stroke-linejoin:round; stroke-width:4; stroke-opacity:1; fill:none" points="147.478,898.647 166.376,898.647 "/>
<polyline clip-path="url(#clip580)" style="stroke:#000000; stroke-linecap:round; stroke-linejoin:round; stroke-width:4; stroke-opacity:1; fill:none" points="147.478,561.99 166.376,561.99 "/>
<polyline clip-path="url(#clip580)" style="stroke:#000000; stroke-linecap:round; stroke-linejoin:round; stroke-width:4; stroke-opacity:1; fill:none" points="147.478,225.333 166.376,225.333 "/>
<path clip-path="url(#clip580)" d="M51.3625 1235.76 L81.0383 1235.76 L81.0383 1239.69 L51.3625 1239.69 L51.3625 1235.76 Z" fill="#000000" fill-rule="nonzero" fill-opacity="1" /><path clip-path="url(#clip580)" d="M95.1586 1248.65 L111.478 1248.65 L111.478 1252.58 L89.5336 1252.58 L89.5336 1248.65 Q92.1956 1245.9 96.7789 1241.27 Q101.385 1236.61 102.566 1235.27 Q104.811 1232.75 105.691 1231.01 Q106.594 1229.25 106.594 1227.56 Q106.594 1224.81 104.649 1223.07 Q102.728 1221.33 99.6261 1221.33 Q97.4271 1221.33 94.9734 1222.1 Q92.5428 1222.86 89.7651 1224.41 L89.7651 1219.69 Q92.5891 1218.56 95.0428 1217.98 Q97.4965 1217.4 99.5335 1217.4 Q104.904 1217.4 108.098 1220.08 Q111.293 1222.77 111.293 1227.26 Q111.293 1229.39 110.483 1231.31 Q109.696 1233.21 107.589 1235.8 Q107.01 1236.47 103.909 1239.69 Q100.807 1242.89 95.1586 1248.65 Z" fill="#000000" fill-rule="nonzero" fill-opacity="1" /><path clip-path="url(#clip580)" d="M50.9921 899.099 L80.6679 899.099 L80.6679 903.034 L50.9921 903.034 L50.9921 899.099 Z" fill="#000000" fill-rule="nonzero" fill-opacity="1" /><path clip-path="url(#clip580)" d="M91.5706 911.992 L99.2095 911.992 L99.2095 885.627 L90.8993 887.293 L90.8993 883.034 L99.1632 881.367 L103.839 881.367 L103.839 911.992 L111.478 911.992 L111.478 915.927 L91.5706 915.927 L91.5706 911.992 Z" fill="#000000" fill-rule="nonzero" fill-opacity="1" /><path clip-path="url(#clip580)" d="M99.5335 547.789 Q95.9224 547.789 94.0937 551.353 Q92.2882 554.895 92.2882 562.025 Q92.2882 569.131 94.0937 572.696 Q95.9224 576.238 99.5335 576.238 Q103.168 576.238 104.973 572.696 Q106.802 569.131 106.802 562.025 Q106.802 554.895 104.973 551.353 Q103.168 547.789 99.5335 547.789 M99.5335 544.085 Q105.344 544.085 108.399 548.691 Q111.478 553.275 111.478 562.025 Q111.478 570.751 108.399 575.358 Q105.344 579.941 99.5335 579.941 Q93.7234 579.941 90.6447 575.358 Q87.5892 570.751 87.5892 562.025 Q87.5892 553.275 90.6447 548.691 Q93.7234 544.085 99.5335 544.085 Z" fill="#000000" fill-rule="nonzero" fill-opacity="1" /><path clip-path="url(#clip580)" d="M91.5706 238.677 L99.2095 238.677 L99.2095 212.312 L90.8993 213.978 L90.8993 209.719 L99.1632 208.053 L103.839 208.053 L103.839 238.677 L111.478 238.677 L111.478 242.613 L91.5706 242.613 L91.5706 238.677 Z" fill="#000000" fill-rule="nonzero" fill-opacity="1" /><polyline clip-path="url(#clip582)" style="stroke:#009af9; stroke-linecap:round; stroke-linejoin:round; stroke-width:4; stroke-opacity:1; fill:none" points="209.891,1445.72 213.278,1430.07 216.664,1414.56 220.05,1399.18 223.436,1383.93 239.092,1315.17 254.747,1249.19 270.402,1185.96 286.057,1125.43 301.712,1067.56 317.368,1012.31 333.023,959.622 348.678,909.465 367.494,852.465 386.311,798.978 405.127,748.928 423.943,702.24 439.852,665.332 455.761,630.728 471.67,598.381 487.579,568.246 504.861,537.963 522.142,510.177 539.424,484.83 556.705,461.863 572.637,442.748 588.569,425.559 604.502,410.251 620.434,396.778 637.514,384.319 654.595,373.861 671.676,365.345 688.757,358.716 708.547,353.32 728.337,350.293 748.127,349.545 767.917,350.99 785.503,354.042 803.09,358.695 820.677,364.885 838.264,372.552 853.686,380.441 869.108,389.376 884.53,399.315 899.953,410.218 916.767,423.152 933.581,437.127 950.395,452.089 967.21,467.983 1001.04,502.568 1034.87,540.27 1072.27,585.052 1109.67,632.512 1145.26,679.612 1180.84,728.086 1254.85,831.06 1317.14,917.25 1355.17,968.384 1393.2,1017.64 1428.03,1060.57 1462.87,1100.93 1495.04,1135.49 1527.22,1167.06 1543.51,1181.78 1559.81,1195.6 1576.1,1208.45 1592.4,1220.29 1610.66,1232.29 1628.92,1242.9 1647.19,1252.03 1665.45,1259.62 1682,1265.12 1698.55,1269.23 1715.1,1271.93 1731.64,1273.15 1750.59,1272.66 1769.54,1270.1 1788.49,1265.38 1807.43,1258.42 1824.98,1249.92 1842.52,1239.38 1860.06,1226.73 1877.61,1211.92 1894.9,1195.14 1912.2,1176.13 1929.5,1154.84 1946.79,1131.21 1963.58,1105.97 1980.38,1078.42 1997.17,1048.49 2013.96,1016.14 2031.18,980.411 2048.39,942.016 2065.61,900.901 2082.82,857.009 2092.25,831.766 2101.68,805.663 2111.11,778.689 2120.54,750.836 2129.97,722.094 2139.4,692.454 2148.83,661.905 2158.27,630.439 2171.96,583.075 2185.66,533.726 2199.36,482.361 2213.06,428.952 2226.76,373.47 2240.46,315.885 2254.16,256.169 2267.86,194.291 2273.48,168.271 2279.1,141.879 2284.72,115.115 2290.34,87.9763 "/>
<path clip-path="url(#clip580)" d="M220.987 198.898 L493.945 198.898 L493.945 95.2176 L220.987 95.2176  Z" fill="#ffffff" fill-rule="evenodd" fill-opacity="1"/>
<polyline clip-path="url(#clip580)" style="stroke:#000000; stroke-linecap:round; stroke-linejoin:round; stroke-width:4; stroke-opacity:1; fill:none" points="220.987,198.898 493.945,198.898 493.945,95.2176 220.987,95.2176 220.987,198.898 "/>
<polyline clip-path="url(#clip580)" style="stroke:#009af9; stroke-linecap:round; stroke-linejoin:round; stroke-width:4; stroke-opacity:1; fill:none" points="245.49,147.058 392.509,147.058 "/>
<path clip-path="url(#clip580)" d="M430.854 166.745 Q429.049 171.375 427.336 172.787 Q425.623 174.199 422.753 174.199 L419.35 174.199 L419.35 170.634 L421.85 170.634 Q423.609 170.634 424.581 169.8 Q425.554 168.967 426.734 165.865 L427.498 163.921 L417.012 138.412 L421.526 138.412 L429.628 158.689 L437.729 138.412 L442.243 138.412 L430.854 166.745 Z" fill="#000000" fill-rule="nonzero" fill-opacity="1" /><path clip-path="url(#clip580)" d="M449.535 160.402 L457.174 160.402 L457.174 134.037 L448.864 135.703 L448.864 131.444 L457.127 129.778 L461.803 129.778 L461.803 160.402 L469.442 160.402 L469.442 164.338 L449.535 164.338 L449.535 160.402 Z" fill="#000000" fill-rule="nonzero" fill-opacity="1" /></svg>