<?xml version="1.0" encoding="utf-8"?>
<svg xmlns="http://www.w3.org/2000/svg" xmlns:xlink="http://www.w3.org/1999/xlink" width="600" height="400" viewBox="0 0 2400 1600">
<defs>
  <clipPath id="clip320">
    <rect x="0" y="0" width="2400" height="1600"/>
  </clipPath>
</defs>
<path clip-path="url(#clip320)" d="M0 1600 L2400 1600 L2400 8.88178e-14 L0 8.88178e-14  Z" fill="#ffffff" fill-rule="evenodd" fill-opacity="1"/>
<defs>
  <clipPath id="clip321">
    <rect x="480" y="0" width="1681" height="1600"/>
  </clipPath>
</defs>
<path clip-path="url(#clip320)" d="M219.033 1423.18 L2352.76 1423.18 L2352.76 47.2441 L219.033 47.2441  Z" fill="#ffffff" fill-rule="evenodd" fill-opacity="1"/>
<defs>
  <clipPath id="clip322">
    <rect x="219" y="47" width="2135" height="1377"/>
  </clipPath>
</defs>
<polyline clip-path="url(#clip322)" style="stroke:#000000; stroke-linecap:round; stroke-linejoin:round; stroke-width:2; stroke-opacity:0.1; fill:none" points="397.83,1423.18 397.83,47.2441 "/>
<polyline clip-path="url(#clip322)" style="stroke:#000000; stroke-linecap:round; stroke-linejoin:round; stroke-width:2; stroke-opacity:0.1; fill:none" points="871.464,1423.18 871.464,47.2441 "/>
<polyline clip-path="url(#clip322)" style="stroke:#000000; stroke-linecap:round; stroke-linejoin:round; stroke-width:2; stroke-opacity:0.1; fill:none" points="1345.1,1423.18 1345.1,47.2441 "/>
<polyline clip-path="url(#clip322)" style="stroke:#000000; stroke-linecap:round; stroke-linejoin:round; stroke-width:2; stroke-opacity:0.1; fill:none" points="1818.73,1423.18 1818.73,47.2441 "/>
<polyline clip-path="url(#clip322)" style="stroke:#000000; stroke-linecap:round; stroke-linejoin:round; stroke-width:2; stroke-opacity:0.1; fill:none" points="2292.37,1423.18 2292.37,47.2441 "/>
<polyline clip-path="url(#clip320)" style="stroke:#000000; stroke-linecap:round; stroke-linejoin:round; stroke-width:4; stroke-opacity:1; fill:none" points="219.033,1423.18 2352.76,1423.18 "/>
<polyline clip-path="url(#clip320)" style="stroke:#000000; stroke-linecap:round; stroke-linejoin:round; stroke-width:4; stroke-opacity:1; fill:none" points="397.83,1423.18 397.83,1404.28 "/>
<polyline clip-path="url(#clip320)" style="stroke:#000000; stroke-linecap:round; stroke-linejoin:round; stroke-width:4; stroke-opacity:1; fill:none" points="871.464,1423.18 871.464,1404.28 "/>
<polyline clip-path="url(#clip320)" style="stroke:#000000; stroke-linecap:round; stroke-linejoin:round; stroke-width:4; stroke-opacity:1; fill:none" points="1345.1,1423.18 1345.1,1404.28 "/>
<polyline clip-path="url(#clip320)" style="stroke:#000000; stroke-linecap:round; stroke-linejoin:round; stroke-width:4; stroke-opacity:1; fill:none" points="1818.73,1423.18 1818.73,1404.28 "/>
<polyline clip-path="url(#clip320)" style="stroke:#000000; stroke-linecap:round; stroke-linejoin:round; stroke-width:4; stroke-opacity:1; fill:none" points="2292.37,1423.18 2292.37,1404.28 "/>
<path clip-path="url(#clip320)" d="M392.483 1481.64 L408.802 1481.64 L408.802 1485.58 L386.858 1485.58 L386.858 1481.64 Q389.52 1478.89 394.103 1474.26 Q398.71 1469.61 399.89 1468.27 Q402.135 1465.74 403.015 1464.01 Q403.918 1462.25 403.918 1460.56 Q403.918 1457.8 401.973 1456.07 Q400.052 1454.33 396.95 1454.33 Q394.751 1454.33 392.298 1455.09 Q389.867 1455.86 387.089 1457.41 L387.089 1452.69 Q389.913 1451.55 392.367 1450.97 Q394.821 1450.39 396.858 1450.39 Q402.228 1450.39 405.422 1453.08 Q408.617 1455.77 408.617 1460.26 Q408.617 1462.39 407.807 1464.31 Q407.02 1466.2 404.913 1468.8 Q404.335 1469.47 401.233 1472.69 Q398.131 1475.88 392.483 1481.64 Z" fill="#000000" fill-rule="nonzero" fill-opacity="1" /><path clip-path="url(#clip320)" d="M874.474 1455.09 L862.668 1473.54 L874.474 1473.54 L874.474 1455.09 M873.247 1451.02 L879.126 1451.02 L879.126 1473.54 L884.057 1473.54 L884.057 1477.43 L879.126 1477.43 L879.126 1485.58 L874.474 1485.58 L874.474 1477.43 L858.872 1477.43 L858.872 1472.92 L873.247 1451.02 Z" fill="#000000" fill-rule="nonzero" fill-opacity="1" /><path clip-path="url(#clip320)" d="M1345.5 1466.44 Q1342.36 1466.44 1340.5 1468.59 Q1338.68 1470.74 1338.68 1474.49 Q1338.68 1478.22 1340.5 1480.39 Q1342.36 1482.55 1345.5 1482.55 Q1348.65 1482.55 1350.48 1480.39 Q1352.33 1478.22 1352.33 1474.49 Q1352.33 1470.74 1350.48 1468.59 Q1348.65 1466.44 1345.5 1466.44 M1354.79 1451.78 L1354.79 1456.04 Q1353.03 1455.21 1351.22 1454.77 Q1349.44 1454.33 1347.68 1454.33 Q1343.05 1454.33 1340.6 1457.45 Q1338.17 1460.58 1337.82 1466.9 Q1339.18 1464.89 1341.24 1463.82 Q1343.3 1462.73 1345.78 1462.73 Q1350.99 1462.73 1354 1465.9 Q1357.03 1469.05 1357.03 1474.49 Q1357.03 1479.82 1353.88 1483.03 Q1350.74 1486.25 1345.5 1486.25 Q1339.51 1486.25 1336.34 1481.67 Q1333.17 1477.06 1333.17 1468.33 Q1333.17 1460.14 1337.05 1455.28 Q1340.94 1450.39 1347.49 1450.39 Q1349.25 1450.39 1351.04 1450.74 Q1352.84 1451.09 1354.79 1451.78 Z" fill="#000000" fill-rule="nonzero" fill-opacity="1" /><path clip-path="url(#clip320)" d="M1818.73 1469.17 Q1815.4 1469.17 1813.48 1470.95 Q1811.58 1472.73 1811.58 1475.86 Q1811.58 1478.98 1813.48 1480.77 Q1815.4 1482.55 1818.73 1482.55 Q1822.07 1482.55 1823.99 1480.77 Q1825.91 1478.96 1825.91 1475.86 Q1825.91 1472.73 1823.99 1470.95 Q1822.09 1469.17 1818.73 1469.17 M1814.06 1467.18 Q1811.05 1466.44 1809.36 1464.38 Q1807.69 1462.32 1807.69 1459.35 Q1807.69 1455.21 1810.63 1452.8 Q1813.59 1450.39 1818.73 1450.39 Q1823.9 1450.39 1826.83 1452.8 Q1829.77 1455.21 1829.77 1459.35 Q1829.77 1462.32 1828.08 1464.38 Q1826.42 1466.44 1823.43 1467.18 Q1826.81 1467.96 1828.69 1470.26 Q1830.58 1472.55 1830.58 1475.86 Q1830.58 1480.88 1827.51 1483.57 Q1824.45 1486.25 1818.73 1486.25 Q1813.02 1486.25 1809.94 1483.57 Q1806.88 1480.88 1806.88 1475.86 Q1806.88 1472.55 1808.78 1470.26 Q1810.68 1467.96 1814.06 1467.18 M1812.34 1459.79 Q1812.34 1462.48 1814.01 1463.98 Q1815.7 1465.49 1818.73 1465.49 Q1821.74 1465.49 1823.43 1463.98 Q1825.15 1462.48 1825.15 1459.79 Q1825.15 1457.11 1823.43 1455.6 Q1821.74 1454.1 1818.73 1454.1 Q1815.7 1454.1 1814.01 1455.6 Q1812.34 1457.11 1812.34 1459.79 Z" fill="#000000" fill-rule="nonzero" fill-opacity="1" /><path clip-path="url(#clip320)" d="M2267.06 1481.64 L2274.69 1481.64 L2274.69 1455.28 L2266.38 1456.95 L2266.38 1452.69 L2274.65 1451.02 L2279.32 1451.02 L2279.32 1481.64 L2286.96 1481.64 L2286.96 1485.58 L2267.06 1485.58 L2267.06 1481.64 Z" fill="#000000" fill-rule="nonzero" fill-opacity="1" /><path clip-path="url(#clip320)" d="M2306.41 1454.1 Q2302.8 1454.1 2300.97 1457.66 Q2299.16 1461.2 2299.16 1468.33 Q2299.16 1475.44 2300.97 1479.01 Q2302.8 1482.55 2306.41 1482.55 Q2310.04 1482.55 2311.85 1479.01 Q2313.68 1475.44 2313.68 1468.33 Q2313.68 1461.2 2311.85 1457.66 Q2310.04 1454.1 2306.41 1454.1 M2306.41 1450.39 Q2312.22 1450.39 2315.27 1455 Q2318.35 1459.58 2318.35 1468.33 Q2318.35 1477.06 2315.27 1481.67 Q2312.22 1486.25 2306.41 1486.25 Q2300.6 1486.25 2297.52 1481.67 Q2294.46 1477.06 2294.46 1468.33 Q2294.46 1459.58 2297.52 1455 Q2300.6 1450.39 2306.41 1450.39 Z" fill="#000000" fill-rule="nonzero" fill-opacity="1" /><path clip-path="url(#clip320)" d="M1302.51 1532.4 L1289.62 1549.74 L1303.18 1568.04 L1296.27 1568.04 L1285.89 1554.04 L1275.52 1568.04 L1268.61 1568.04 L1282.46 1549.39 L1269.79 1532.4 L1276.7 1532.4 L1286.15 1545.1 L1295.6 1532.4 L1302.51 1532.4 Z" fill="#000000" fill-rule="nonzero" fill-opacity="1" /><polyline clip-path="url(#clip322)" style="stroke:#000000; stroke-linecap:round; stroke-linejoin:round; stroke-width:2; stroke-opacity:0.1; fill:none" points="219.033,1110.96 2352.76,1110.96 "/>
<polyline clip-path="url(#clip322)" style="stroke:#000000; stroke-linecap:round; stroke-linejoin:round; stroke-width:2; stroke-opacity:0.1; fill:none" points="219.033,769.371 2352.76,769.371 "/>
<polyline clip-path="url(#clip322)" style="stroke:#000000; stroke-linecap:round; stroke-linejoin:round; stroke-width:2; stroke-opacity:0.1; fill:none" points="219.033,427.778 2352.76,427.778 "/>
<polyline clip-path="url(#clip322)" style="stroke:#000000; stroke-linecap:round; stroke-linejoin:round; stroke-width:2; stroke-opacity:0.1; fill:none" points="219.033,86.1857 2352.76,86.1857 "/>
<polyline clip-path="url(#clip320)" style="stroke:#000000; stroke-linecap:round; stroke-linejoin:round; stroke-width:4; stroke-opacity:1; fill:none" points="219.033,1423.18 219.033,47.2441 "/>
<polyline clip-path="url(#clip320)" style="stroke:#000000; stroke-linecap:round; stroke-linejoin:round; stroke-width:4; stroke-opacity:1; fill:none" points="219.033,1110.96 237.931,1110.96 "/>
<polyline clip-path="url(#clip320)" style="stroke:#000000; stroke-linecap:round; stroke-linejoin:round; stroke-width:4; stroke-opacity:1; fill:none" points="219.033,769.371 237.931,769.371 "/>
<polyline clip-path="url(#clip320)" style="stroke:#000000; stroke-linecap:round; stroke-linejoin:round; stroke-width:4; stroke-opacity:1; fill:none" points="219.033,427.778 237.931,427.778 "/>
<polyline clip-path="url(#clip320)" style="stroke:#000000; stroke-linecap:round; stroke-linejoin:round; stroke-width:4; stroke-opacity:1; fill:none" points="219.033,86.1857 237.931,86.1857 "/>
<path clip-path="url(#clip320)" d="M126.853 1096.76 Q123.242 1096.76 121.413 1100.33 Q119.607 1103.87 119.607 1111 Q119.607 1118.11 121.413 1121.67 Q123.242 1125.21 126.853 1125.21 Q130.487 1125.21 132.292 1121.67 Q134.121 1118.11 134.121 1111 Q134.121 1103.87 132.292 1100.33 Q130.487 1096.76 126.853 1096.76 M126.853 1093.06 Q132.663 1093.06 135.718 1097.67 Q138.797 1102.25 138.797 1111 Q138.797 1119.73 135.718 1124.33 Q132.663 1128.92 126.853 1128.92 Q121.043 1128.92 117.964 1124.33 Q114.908 1119.73 114.908 1111 Q114.908 1102.25 117.964 1097.67 Q121.043 1093.06 126.853 1093.06 Z" fill="#000000" fill-rule="nonzero" fill-opacity="1" /><path clip-path="url(#clip320)" d="M147.015 1122.36 L151.899 1122.36 L151.899 1128.24 L147.015 1128.24 L147.015 1122.36 Z" fill="#000000" fill-rule="nonzero" fill-opacity="1" /><path clip-path="url(#clip320)" d="M162.13 1093.68 L180.487 1093.68 L180.487 1097.62 L166.413 1097.62 L166.413 1106.09 Q167.431 1105.74 168.45 1105.58 Q169.468 1105.4 170.487 1105.4 Q176.274 1105.4 179.653 1108.57 Q183.033 1111.74 183.033 1117.16 Q183.033 1122.73 179.561 1125.84 Q176.089 1128.92 169.769 1128.92 Q167.593 1128.92 165.325 1128.54 Q163.079 1128.17 160.672 1127.43 L160.672 1122.73 Q162.755 1123.87 164.977 1124.42 Q167.2 1124.98 169.677 1124.98 Q173.681 1124.98 176.019 1122.87 Q178.357 1120.77 178.357 1117.16 Q178.357 1113.55 176.019 1111.44 Q173.681 1109.33 169.677 1109.33 Q167.802 1109.33 165.927 1109.75 Q164.075 1110.17 162.13 1111.05 L162.13 1093.68 Z" fill="#000000" fill-rule="nonzero" fill-opacity="1" /><path clip-path="url(#clip320)" d="M116.668 782.716 L124.306 782.716 L124.306 756.35 L115.996 758.017 L115.996 753.758 L124.26 752.091 L128.936 752.091 L128.936 782.716 L136.575 782.716 L136.575 786.651 L116.668 786.651 L116.668 782.716 Z" fill="#000000" fill-rule="nonzero" fill-opacity="1" /><path clip-path="url(#clip320)" d="M146.019 780.772 L150.903 780.772 L150.903 786.651 L146.019 786.651 L146.019 780.772 Z" fill="#000000" fill-rule="nonzero" fill-opacity="1" /><path clip-path="url(#clip320)" d="M171.089 755.17 Q167.477 755.17 165.649 758.735 Q163.843 762.276 163.843 769.406 Q163.843 776.512 165.649 780.077 Q167.477 783.619 171.089 783.619 Q174.723 783.619 176.528 780.077 Q178.357 776.512 178.357 769.406 Q178.357 762.276 176.528 758.735 Q174.723 755.17 171.089 755.17 M171.089 751.466 Q176.899 751.466 179.954 756.073 Q183.033 760.656 183.033 769.406 Q183.033 778.133 179.954 782.739 Q176.899 787.323 171.089 787.323 Q165.278 787.323 162.2 782.739 Q159.144 778.133 159.144 769.406 Q159.144 760.656 162.2 756.073 Q165.278 751.466 171.089 751.466 Z" fill="#000000" fill-rule="nonzero" fill-opacity="1" /><path clip-path="url(#clip320)" d="M117.663 441.123 L125.302 441.123 L125.302 414.758 L116.992 416.424 L116.992 412.165 L125.255 410.498 L129.931 410.498 L129.931 441.123 L137.57 441.123 L137.57 445.058 L117.663 445.058 L117.663 441.123 Z" fill="#000000" fill-rule="nonzero" fill-opacity="1" /><path clip-path="url(#clip320)" d="M147.015 439.179 L151.899 439.179 L151.899 445.058 L147.015 445.058 L147.015 439.179 Z" fill="#000000" fill-rule="nonzero" fill-opacity="1" /><path clip-path="url(#clip320)" d="M162.13 410.498 L180.487 410.498 L180.487 414.434 L166.413 414.434 L166.413 422.906 Q167.431 422.559 168.45 422.397 Q169.468 422.211 170.487 422.211 Q176.274 422.211 179.653 425.383 Q183.033 428.554 183.033 433.971 Q183.033 439.549 179.561 442.651 Q176.089 445.73 169.769 445.73 Q167.593 445.73 165.325 445.359 Q163.079 444.989 160.672 444.248 L160.672 439.549 Q162.755 440.683 164.977 441.239 Q167.2 441.795 169.677 441.795 Q173.681 441.795 176.019 439.688 Q178.357 437.582 178.357 433.971 Q178.357 430.359 176.019 428.253 Q173.681 426.147 169.677 426.147 Q167.802 426.147 165.927 426.563 Q164.075 426.98 162.13 427.859 L162.13 410.498 Z" fill="#000000" fill-rule="nonzero" fill-opacity="1" /><path clip-path="url(#clip320)" d="M119.885 99.5305 L136.204 99.5305 L136.204 103.466 L114.26 103.466 L114.26 99.5305 Q116.922 96.7759 121.505 92.1463 Q126.112 87.4935 127.292 86.151 Q129.538 83.6278 130.417 81.8917 Q131.32 80.1325 131.32 78.4427 Q131.32 75.688 129.376 73.9519 Q127.455 72.2158 124.353 72.2158 Q122.154 72.2158 119.7 72.9797 Q117.269 73.7436 114.492 75.2945 L114.492 70.5723 Q117.316 69.4381 119.769 68.8594 Q122.223 68.2807 124.26 68.2807 Q129.63 68.2807 132.825 70.9658 Q136.019 73.651 136.019 78.1417 Q136.019 80.2714 135.209 82.1926 Q134.422 84.0908 132.316 86.6834 Q131.737 87.3546 128.635 90.5722 Q125.533 93.7667 119.885 99.5305 Z" fill="#000000" fill-rule="nonzero" fill-opacity="1" /><path clip-path="url(#clip320)" d="M146.019 97.5861 L150.903 97.5861 L150.903 103.466 L146.019 103.466 L146.019 97.5861 Z" fill="#000000" fill-rule="nonzero" fill-opacity="1" /><path clip-path="url(#clip320)" d="M171.089 71.9844 Q167.477 71.9844 165.649 75.5492 Q163.843 79.0908 163.843 86.2204 Q163.843 93.3268 165.649 96.8916 Q167.477 100.433 171.089 100.433 Q174.723 100.433 176.528 96.8916 Q178.357 93.3268 178.357 86.2204 Q178.357 79.0908 176.528 75.5492 Q174.723 71.9844 171.089 71.9844 M171.089 68.2807 Q176.899 68.2807 179.954 72.8871 Q183.033 77.4704 183.033 86.2204 Q183.033 94.9472 179.954 99.5537 Q176.899 104.137 171.089 104.137 Q165.278 104.137 162.2 99.5537 Q159.144 94.9472 159.144 86.2204 Q159.144 77.4704 162.2 72.8871 Q165.278 68.2807 171.089 68.2807 Z" fill="#000000" fill-rule="nonzero" fill-opacity="1" /><path clip-path="url(#clip320)" d="M67.3143 733.525 Q73.68 736.008 75.6216 738.363 Q77.5631 740.718 77.5631 744.665 L77.5631 749.344 L72.6615 749.344 L72.6615 745.906 Q72.6615 743.487 71.5157 742.151 Q70.3699 740.814 66.1048 739.191 L63.4312 738.14 L28.3562 752.559 L28.3562 746.352 L56.238 735.212 L28.3562 724.072 L28.3562 717.865 L67.3143 733.525 Z" fill="#000000" fill-rule="nonzero" fill-opacity="1" /><path clip-path="url(#clip322)" d="M397.83 1110.96 L400.914 1113.17 L403.997 1115.35 L407.081 1117.51 L410.164 1119.63 L424.421 1129.12 L438.677 1138.08 L452.933 1146.56 L467.189 1154.6 L481.446 1162.22 L495.702 1169.46 L509.958 1176.35 L524.214 1182.92 L541.349 1190.4 L558.484 1197.48 L575.619 1204.19 L592.754 1210.56 L607.241 1215.69 L621.728 1220.61 L636.216 1225.33 L650.703 1229.86 L666.44 1234.58 L682.177 1239.11 L697.915 1243.45 L713.652 1247.62 L742.669 1254.88 L771.685 1261.65 L802.794 1268.41 L833.903 1274.71 L869.946 1281.49 L905.989 1287.77 L938.019 1292.97 L970.05 1297.86 L998.138 1301.91 L1026.23 1305.75 L1056.85 1309.72 L1087.47 1313.48 L1118.28 1317.06 L1149.08 1320.47 L1217.2 1327.43 L1282.01 1333.4 L1349.41 1339.04 L1406.13 1343.38 L1475.39 1348.26 L1538.84 1352.36 L1597.44 1355.86 L1656.79 1359.18 L1723.32 1362.63 L1783.6 1365.54 L1852.61 1368.66 L1916.52 1371.35 L1979.52 1373.84 L2040.69 1376.11 L2103.39 1378.31 L2172.09 1380.58 L2271.89 1383.64 L2292.37 1384.24 L2292.37 1376.65 L2271.89 1375.91 L2172.09 1372.11 L2103.39 1369.26 L2040.69 1366.48 L1979.52 1363.59 L1916.52 1360.4 L1852.61 1356.91 L1783.6 1352.85 L1723.32 1349 L1656.79 1344.39 L1597.44 1339.92 L1538.84 1335.13 L1475.39 1329.46 L1406.13 1322.62 L1349.41 1316.41 L1282.01 1308.23 L1217.2 1299.37 L1149.08 1288.81 L1118.28 1283.54 L1087.47 1277.92 L1056.85 1271.95 L1026.23 1265.56 L998.138 1259.29 L970.05 1252.58 L938.019 1244.33 L905.989 1235.38 L869.946 1224.34 L833.903 1212.12 L802.794 1200.46 L771.685 1187.62 L742.669 1174.4 L713.652 1159.8 L697.915 1151.22 L682.177 1142.12 L666.44 1132.45 L650.703 1122.16 L636.216 1112.09 L621.728 1101.39 L607.241 1089.98 L592.754 1077.82 L575.619 1062.33 L558.484 1045.51 L541.349 1027.17 L524.214 1007.1 L509.958 988.902 L495.702 969.153 L481.446 947.646 L467.189 924.136 L452.933 898.33 L438.677 869.874 L424.421 838.338 L410.164 803.193 L407.081 795.055 L403.997 786.711 L400.914 778.153 L397.83 769.371  Z" fill="#add8e6" fill-rule="evenodd" fill-opacity="1"/>
<polyline clip-path="url(#clip322)" style="stroke:#009af9; stroke-linecap:round; stroke-linejoin:round; stroke-width:4; stroke-opacity:1; fill:none" points="397.83,1110.96 400.914,1113.17 403.997,1115.35 407.081,1117.51 410.164,1119.63 424.421,1129.12 438.677,1138.08 452.933,1146.56 467.189,1154.6 481.446,1162.22 495.702,1169.46 509.958,1176.35 524.214,1182.92 541.349,1190.4 558.484,1197.48 575.619,1204.19 592.754,1210.56 607.241,1215.69 621.728,1220.61 636.216,1225.33 650.703,1229.86 666.44,1234.58 682.177,1239.11 697.915,1243.45 713.652,1247.62 742.669,1254.88 771.685,1261.65 802.794,1268.41 833.903,1274.71 869.946,1281.49 905.989,1287.77 938.019,1292.97 970.05,1297.86 998.138,1301.91 1026.23,1305.75 1056.85,1309.72 1087.47,1313.48 1118.28,1317.06 1149.08,1320.47 1217.2,1327.43 1282.01,1333.4 1349.41,1339.04 1406.13,1343.38 1475.39,1348.26 1538.84,1352.36 1597.44,1355.86 1656.79,1359.18 1723.32,1362.63 1783.6,1365.54 1852.61,1368.66 1916.52,1371.35 1979.52,1373.84 2040.69,1376.11 2103.39,1378.31 2172.09,1380.58 2271.89,1383.64 2292.37,1384.24 "/>
<polyline clip-path="url(#clip322)" style="stroke:#e26f46; stroke-linecap:round; stroke-linejoin:round; stroke-width:12; stroke-opacity:1; fill:none" points="279.421,86.1857 281.059,104.831 282.698,122.975 284.336,140.637 285.974,157.835 287.612,174.589 289.25,190.914 290.889,206.828 292.527,222.345 296.314,256.776 300.1,289.332 303.887,320.163 307.674,349.402 311.461,377.168 315.248,403.572 319.034,428.709 322.821,452.671 326.608,475.536 330.395,497.379 334.182,518.266 337.969,538.26 345.542,575.786 353.116,610.352 360.689,642.297 368.263,671.906 375.837,699.428 383.41,725.075 390.984,749.034 398.558,771.464 406.131,792.508 413.705,812.291 422.808,834.554 431.911,855.32 441.013,874.737 450.116,892.93 459.219,910.013 468.322,926.084 477.425,941.23 486.528,955.529 501.921,977.971 517.313,998.474 532.706,1017.28 548.099,1034.59 564.82,1051.89 581.54,1067.83 598.261,1082.54 614.982,1096.17 645.812,1118.83 676.643,1138.79 709.696,1157.69 742.749,1174.44 781.045,1191.62 819.34,1206.8 853.373,1218.88 887.405,1229.83 917.248,1238.62 947.092,1246.74 1012.17,1262.47 1077.63,1276.05 1150,1288.97 1218.87,1299.62 1290.47,1309.31 1350.74,1316.57 1424.33,1324.49 1491.74,1330.98 1554,1336.41 1617.07,1341.44 1687.75,1346.59 1751.8,1350.85 1825.13,1355.33 1893.02,1359.15 1959.96,1362.62 2024.96,1365.76 2091.58,1368.75 2164.58,1371.81 2270.61,1375.86 2292.37,1376.65 "/>
<path clip-path="url(#clip320)" d="M1919.09 248.629 L2281.63 248.629 L2281.63 93.1086 L1919.09 93.1086  Z" fill="#ffffff" fill-rule="evenodd" fill-opacity="1"/>
<polyline clip-path="url(#clip320)" style="stroke:#000000; stroke-linecap:round; stroke-linejoin:round; stroke-width:4; stroke-opacity:1; fill:none" points="1919.09,248.629 2281.63,248.629 2281.63,93.1086 1919.09,93.1086 1919.09,248.629 "/>
<path clip-path="url(#clip320)" d="M1942.8 165.685 L2085.05 165.685 L2085.05 124.213 L1942.8 124.213 L1942.8 165.685  Z" fill="#add8e6" fill-rule="evenodd" fill-opacity="1"/>
<polyline clip-path="url(#clip320)" style="stroke:#009af9; stroke-linecap:round; stroke-linejoin:round; stroke-width:4; stroke-opacity:1; fill:none" points="1942.8,124.213 2085.05,124.213 "/>
<path clip-path="url(#clip320)" d="M2109.43 158.293 L2117.07 158.293 L2117.07 131.928 L2108.76 133.595 L2108.76 129.335 L2117.02 127.669 L2121.7 127.669 L2121.7 158.293 L2129.34 158.293 L2129.34 162.229 L2109.43 162.229 L2109.43 158.293 Z" fill="#000000" fill-rule="nonzero" fill-opacity="1" /><path clip-path="url(#clip320)" d="M2145.75 127.669 L2149.68 127.669 L2137.65 166.627 L2133.71 166.627 L2145.75 127.669 Z" fill="#000000" fill-rule="nonzero" fill-opacity="1" /><path clip-path="url(#clip320)" d="M2175.7 136.303 L2166.33 148.919 L2176.19 162.229 L2171.16 162.229 L2163.62 152.043 L2156.07 162.229 L2151.05 162.229 L2161.12 148.664 L2151.91 136.303 L2156.93 136.303 L2163.8 145.539 L2170.68 136.303 L2175.7 136.303 Z" fill="#000000" fill-rule="nonzero" fill-opacity="1" /><polyline clip-path="url(#clip320)" style="stroke:#e26f46; stroke-linecap:round; stroke-linejoin:round; stroke-width:12; stroke-opacity:1; fill:none" points="1942.8,196.789 2085.05,196.789 "/>
<path clip-path="url(#clip320)" d="M2109.43 210.133 L2117.07 210.133 L2117.07 183.768 L2108.76 185.435 L2108.76 181.175 L2117.02 179.509 L2121.7 179.509 L2121.7 210.133 L2129.34 210.133 L2129.34 214.069 L2109.43 214.069 L2109.43 210.133 Z" fill="#000000" fill-rule="nonzero" fill-opacity="1" /><path clip-path="url(#clip320)" d="M2145.75 179.509 L2149.68 179.509 L2137.65 218.467 L2133.71 218.467 L2145.75 179.509 Z" fill="#000000" fill-rule="nonzero" fill-opacity="1" /><path clip-path="url(#clip320)" d="M2164.38 178.097 Q2161.28 183.421 2159.78 188.629 Q2158.27 193.837 2158.27 199.184 Q2158.27 204.532 2159.78 209.786 Q2161.3 215.018 2164.38 220.319 L2160.68 220.319 Q2157.21 214.879 2155.47 209.624 Q2153.76 204.37 2153.76 199.184 Q2153.76 194.022 2155.47 188.791 Q2157.18 183.56 2160.68 178.097 L2164.38 178.097 Z" fill="#000000" fill-rule="nonzero" fill-opacity="1" /><path clip-path="url(#clip320)" d="M2194.2 188.143 L2184.82 200.759 L2194.68 214.069 L2189.66 214.069 L2182.11 203.883 L2174.57 214.069 L2169.54 214.069 L2179.61 200.504 L2170.4 188.143 L2175.42 188.143 L2182.3 197.379 L2189.17 188.143 L2194.2 188.143 Z" fill="#000000" fill-rule="nonzero" fill-opacity="1" /><path clip-path="url(#clip320)" d="M2198.55 199.184 L2211.03 199.184 L2211.03 202.981 L2198.55 202.981 L2198.55 199.184 Z" fill="#000000" fill-rule="nonzero" fill-opacity="1" /><path clip-path="url(#clip320)" d="M2219.22 210.133 L2226.86 210.133 L2226.86 183.768 L2218.55 185.435 L2218.55 181.175 L2226.81 179.509 L2231.49 179.509 L2231.49 210.133 L2239.13 210.133 L2239.13 214.069 L2219.22 214.069 L2219.22 210.133 Z" fill="#000000" fill-rule="nonzero" fill-opacity="1" /><path clip-path="url(#clip320)" d="M2247.3 178.097 L2251 178.097 Q2254.47 183.56 2256.19 188.791 Q2257.92 194.022 2257.92 199.184 Q2257.92 204.37 2256.19 209.624 Q2254.47 214.879 2251 220.319 L2247.3 220.319 Q2250.38 215.018 2251.88 209.786 Q2253.41 204.532 2253.41 199.184 Q2253.41 193.837 2251.88 188.629 Q2250.38 183.421 2247.3 178.097 Z" fill="#000000" fill-rule="nonzero" fill-opacity="1" /></svg>