<?xml version="1.0" encoding="utf-8"?>
<svg xmlns="http://www.w3.org/2000/svg" xmlns:xlink="http://www.w3.org/1999/xlink" width="600" height="400" viewBox="0 0 2400 1600">
<defs>
  <clipPath id="clip880">
    <rect x="0" y="0" width="2400" height="1600"/>
  </clipPath>
</defs>
<path clip-path="url(#clip880)" d="M0 1600 L2400 1600 L2400 8.88178e-14 L0 8.88178e-14  Z" fill="#ffffff" fill-rule="evenodd" fill-opacity="1"/>
<defs>
  <clipPath id="clip881">
    <rect x="480" y="0" width="1681" height="1600"/>
  </clipPath>
</defs>
<path clip-path="url(#clip880)" d="M249.542 1423.18 L2352.76 1423.18 L2352.76 47.2441 L249.542 47.2441  Z" fill="#ffffff" fill-rule="evenodd" fill-opacity="1"/>
<defs>
  <clipPath id="clip882">
    <rect x="249" y="47" width="2104" height="1377"/>
  </clipPath>
</defs>
<polyline clip-path="url(#clip882)" style="stroke:#000000; stroke-linecap:round; stroke-linejoin:round; stroke-width:2; stroke-opacity:0.1; fill:none" points="309.067,1423.18 309.067,47.2441 "/>
<polyline clip-path="url(#clip882)" style="stroke:#000000; stroke-linecap:round; stroke-linejoin:round; stroke-width:2; stroke-opacity:0.1; fill:none" points="805.108,1423.18 805.108,47.2441 "/>
<polyline clip-path="url(#clip882)" style="stroke:#000000; stroke-linecap:round; stroke-linejoin:round; stroke-width:2; stroke-opacity:0.1; fill:none" points="1301.15,1423.18 1301.15,47.2441 "/>
<polyline clip-path="url(#clip882)" style="stroke:#000000; stroke-linecap:round; stroke-linejoin:round; stroke-width:2; stroke-opacity:0.1; fill:none" points="1797.19,1423.18 1797.19,47.2441 "/>
<polyline clip-path="url(#clip882)" style="stroke:#000000; stroke-linecap:round; stroke-linejoin:round; stroke-width:2; stroke-opacity:0.1; fill:none" points="2293.23,1423.18 2293.23,47.2441 "/>
<polyline clip-path="url(#clip880)" style="stroke:#000000; stroke-linecap:round; stroke-linejoin:round; stroke-width:4; stroke-opacity:1; fill:none" points="249.542,1423.18 2352.76,1423.18 "/>
<polyline clip-path="url(#clip880)" style="stroke:#000000; stroke-linecap:round; stroke-linejoin:round; stroke-width:4; stroke-opacity:1; fill:none" points="309.067,1423.18 309.067,1404.28 "/>
<polyline clip-path="url(#clip880)" style="stroke:#000000; stroke-linecap:round; stroke-linejoin:round; stroke-width:4; stroke-opacity:1; fill:none" points="805.108,1423.18 805.108,1404.28 "/>
<polyline clip-path="url(#clip880)" style="stroke:#000000; stroke-linecap:round; stroke-linejoin:round; stroke-width:4; stroke-opacity:1; fill:none" points="1301.15,1423.18 1301.15,1404.28 "/>
<polyline clip-path="url(#clip880)" style="stroke:#000000; stroke-linecap:round; stroke-linejoin:round; stroke-width:4; stroke-opacity:1; fill:none" points="1797.19,1423.18 1797.19,1404.28 "/>
<polyline clip-path="url(#clip880)" style="stroke:#000000; stroke-linecap:round; stroke-linejoin:round; stroke-width:4; stroke-opacity:1; fill:none" points="2293.23,1423.18 2293.23,1404.28 "/>
<path clip-path="url(#clip880)" d="M255.595 1468.75 L285.271 1468.75 L285.271 1472.69 L255.595 1472.69 L255.595 1468.75 Z" fill="#000000" fill-rule="nonzero" fill-opacity="1" /><path clip-path="url(#clip880)" d="M296.174 1481.64 L303.812 1481.64 L303.812 1455.28 L295.502 1456.95 L295.502 1452.69 L303.766 1451.02 L308.442 1451.02 L308.442 1481.64 L316.081 1481.64 L316.081 1485.58 L296.174 1485.58 L296.174 1481.64 Z" fill="#000000" fill-rule="nonzero" fill-opacity="1" /><path clip-path="url(#clip880)" d="M325.525 1479.7 L330.409 1479.7 L330.409 1485.58 L325.525 1485.58 L325.525 1479.7 Z" fill="#000000" fill-rule="nonzero" fill-opacity="1" /><path clip-path="url(#clip880)" d="M350.595 1454.1 Q346.983 1454.1 345.155 1457.66 Q343.349 1461.2 343.349 1468.33 Q343.349 1475.44 345.155 1479.01 Q346.983 1482.55 350.595 1482.55 Q354.229 1482.55 356.034 1479.01 Q357.863 1475.44 357.863 1468.33 Q357.863 1461.2 356.034 1457.66 Q354.229 1454.1 350.595 1454.1 M350.595 1450.39 Q356.405 1450.39 359.46 1455 Q362.539 1459.58 362.539 1468.33 Q362.539 1477.06 359.46 1481.67 Q356.405 1486.25 350.595 1486.25 Q344.784 1486.25 341.706 1481.67 Q338.65 1477.06 338.65 1468.33 Q338.65 1459.58 341.706 1455 Q344.784 1450.39 350.595 1450.39 Z" fill="#000000" fill-rule="nonzero" fill-opacity="1" /><path clip-path="url(#clip880)" d="M752.134 1468.75 L781.809 1468.75 L781.809 1472.69 L752.134 1472.69 L752.134 1468.75 Z" fill="#000000" fill-rule="nonzero" fill-opacity="1" /><path clip-path="url(#clip880)" d="M801.902 1454.1 Q798.291 1454.1 796.462 1457.66 Q794.657 1461.2 794.657 1468.33 Q794.657 1475.44 796.462 1479.01 Q798.291 1482.55 801.902 1482.55 Q805.536 1482.55 807.342 1479.01 Q809.17 1475.44 809.17 1468.33 Q809.17 1461.2 807.342 1457.66 Q805.536 1454.1 801.902 1454.1 M801.902 1450.39 Q807.712 1450.39 810.768 1455 Q813.846 1459.58 813.846 1468.33 Q813.846 1477.06 810.768 1481.67 Q807.712 1486.25 801.902 1486.25 Q796.092 1486.25 793.013 1481.67 Q789.958 1477.06 789.958 1468.33 Q789.958 1459.58 793.013 1455 Q796.092 1450.39 801.902 1450.39 Z" fill="#000000" fill-rule="nonzero" fill-opacity="1" /><path clip-path="url(#clip880)" d="M822.064 1479.7 L826.948 1479.7 L826.948 1485.58 L822.064 1485.58 L822.064 1479.7 Z" fill="#000000" fill-rule="nonzero" fill-opacity="1" /><path clip-path="url(#clip880)" d="M837.18 1451.02 L855.536 1451.02 L855.536 1454.96 L841.462 1454.96 L841.462 1463.43 Q842.48 1463.08 843.499 1462.92 Q844.517 1462.73 845.536 1462.73 Q851.323 1462.73 854.703 1465.9 Q858.082 1469.08 858.082 1474.49 Q858.082 1480.07 854.61 1483.17 Q851.138 1486.25 844.818 1486.25 Q842.642 1486.25 840.374 1485.88 Q838.129 1485.51 835.721 1484.77 L835.721 1480.07 Q837.805 1481.2 840.027 1481.76 Q842.249 1482.32 844.726 1482.32 Q848.73 1482.32 851.068 1480.21 Q853.406 1478.1 853.406 1474.49 Q853.406 1470.88 851.068 1468.77 Q848.73 1466.67 844.726 1466.67 Q842.851 1466.67 840.976 1467.08 Q839.124 1467.5 837.18 1468.38 L837.18 1451.02 Z" fill="#000000" fill-rule="nonzero" fill-opacity="1" /><path clip-path="url(#clip880)" d="M1278.53 1454.1 Q1274.92 1454.1 1273.09 1457.66 Q1271.29 1461.2 1271.29 1468.33 Q1271.29 1475.44 1273.09 1479.01 Q1274.92 1482.55 1278.53 1482.55 Q1282.17 1482.55 1283.97 1479.01 Q1285.8 1475.44 1285.8 1468.33 Q1285.8 1461.2 1283.97 1457.66 Q1282.17 1454.1 1278.53 1454.1 M1278.53 1450.39 Q1284.34 1450.39 1287.4 1455 Q1290.48 1459.58 1290.48 1468.33 Q1290.48 1477.06 1287.4 1481.67 Q1284.34 1486.25 1278.53 1486.25 Q1272.72 1486.25 1269.64 1481.67 Q1266.59 1477.06 1266.59 1468.33 Q1266.59 1459.58 1269.64 1455 Q1272.72 1450.39 1278.53 1450.39 Z" fill="#000000" fill-rule="nonzero" fill-opacity="1" /><path clip-path="url(#clip880)" d="M1298.7 1479.7 L1303.58 1479.7 L1303.58 1485.58 L1298.7 1485.58 L1298.7 1479.7 Z" fill="#000000" fill-rule="nonzero" fill-opacity="1" /><path clip-path="url(#clip880)" d="M1323.76 1454.1 Q1320.15 1454.1 1318.32 1457.66 Q1316.52 1461.2 1316.52 1468.33 Q1316.52 1475.44 1318.32 1479.01 Q1320.15 1482.55 1323.76 1482.55 Q1327.4 1482.55 1329.2 1479.01 Q1331.03 1475.44 1331.03 1468.33 Q1331.03 1461.2 1329.2 1457.66 Q1327.4 1454.1 1323.76 1454.1 M1323.76 1450.39 Q1329.57 1450.39 1332.63 1455 Q1335.71 1459.58 1335.71 1468.33 Q1335.71 1477.06 1332.63 1481.67 Q1329.57 1486.25 1323.76 1486.25 Q1317.95 1486.25 1314.88 1481.67 Q1311.82 1477.06 1311.82 1468.33 Q1311.82 1459.58 1314.88 1455 Q1317.95 1450.39 1323.76 1450.39 Z" fill="#000000" fill-rule="nonzero" fill-opacity="1" /><path clip-path="url(#clip880)" d="M1775.07 1454.1 Q1771.46 1454.1 1769.63 1457.66 Q1767.83 1461.2 1767.83 1468.33 Q1767.83 1475.44 1769.63 1479.01 Q1771.46 1482.55 1775.07 1482.55 Q1778.71 1482.55 1780.51 1479.01 Q1782.34 1475.44 1782.34 1468.33 Q1782.34 1461.2 1780.51 1457.66 Q1778.71 1454.1 1775.07 1454.1 M1775.07 1450.39 Q1780.88 1450.39 1783.94 1455 Q1787.02 1459.58 1787.02 1468.33 Q1787.02 1477.06 1783.94 1481.67 Q1780.88 1486.25 1775.07 1486.25 Q1769.26 1486.25 1766.18 1481.67 Q1763.13 1477.06 1763.13 1468.33 Q1763.13 1459.58 1766.18 1455 Q1769.26 1450.39 1775.07 1450.39 Z" fill="#000000" fill-rule="nonzero" fill-opacity="1" /><path clip-path="url(#clip880)" d="M1795.23 1479.7 L1800.12 1479.7 L1800.12 1485.58 L1795.23 1485.58 L1795.23 1479.7 Z" fill="#000000" fill-rule="nonzero" fill-opacity="1" /><path clip-path="url(#clip880)" d="M1810.35 1451.02 L1828.71 1451.02 L1828.71 1454.96 L1814.63 1454.96 L1814.63 1463.43 Q1815.65 1463.08 1816.67 1462.92 Q1817.69 1462.73 1818.71 1462.73 Q1824.49 1462.73 1827.87 1465.9 Q1831.25 1469.08 1831.25 1474.49 Q1831.25 1480.07 1827.78 1483.17 Q1824.31 1486.25 1817.99 1486.25 Q1815.81 1486.25 1813.54 1485.88 Q1811.3 1485.51 1808.89 1484.77 L1808.89 1480.07 Q1810.97 1481.2 1813.2 1481.76 Q1815.42 1482.32 1817.9 1482.32 Q1821.9 1482.32 1824.24 1480.21 Q1826.58 1478.1 1826.58 1474.49 Q1826.58 1470.88 1824.24 1468.77 Q1821.9 1466.67 1817.9 1466.67 Q1816.02 1466.67 1814.15 1467.08 Q1812.29 1467.5 1810.35 1468.38 L1810.35 1451.02 Z" fill="#000000" fill-rule="nonzero" fill-opacity="1" /><path clip-path="url(#clip880)" d="M2260.38 1481.64 L2268.02 1481.64 L2268.02 1455.28 L2259.71 1456.95 L2259.71 1452.69 L2267.98 1451.02 L2272.65 1451.02 L2272.65 1481.64 L2280.29 1481.64 L2280.29 1485.58 L2260.38 1485.58 L2260.38 1481.64 Z" fill="#000000" fill-rule="nonzero" fill-opacity="1" /><path clip-path="url(#clip880)" d="M2289.74 1479.7 L2294.62 1479.7 L2294.62 1485.58 L2289.74 1485.58 L2289.74 1479.7 Z" fill="#000000" fill-rule="nonzero" fill-opacity="1" /><path clip-path="url(#clip880)" d="M2314.8 1454.1 Q2311.19 1454.1 2309.37 1457.66 Q2307.56 1461.2 2307.56 1468.33 Q2307.56 1475.44 2309.37 1479.01 Q2311.19 1482.55 2314.8 1482.55 Q2318.44 1482.55 2320.24 1479.01 Q2322.07 1475.44 2322.07 1468.33 Q2322.07 1461.2 2320.24 1457.66 Q2318.44 1454.1 2314.8 1454.1 M2314.8 1450.39 Q2320.62 1450.39 2323.67 1455 Q2326.75 1459.58 2326.75 1468.33 Q2326.75 1477.06 2323.67 1481.67 Q2320.62 1486.25 2314.8 1486.25 Q2308.99 1486.25 2305.92 1481.67 Q2302.86 1477.06 2302.86 1468.33 Q2302.86 1459.58 2305.92 1455 Q2308.99 1450.39 2314.8 1450.39 Z" fill="#000000" fill-rule="nonzero" fill-opacity="1" /><path clip-path="url(#clip880)" d="M1317.76 1532.4 L1304.87 1549.74 L1318.43 1568.04 L1311.53 1568.04 L1301.15 1554.04 L1290.77 1568.04 L1283.87 1568.04 L1297.71 1549.39 L1285.04 1532.4 L1291.95 1532.4 L1301.4 1545.1 L1310.86 1532.4 L1317.76 1532.4 Z" fill="#000000" fill-rule="nonzero" fill-opacity="1" /><polyline clip-path="url(#clip882)" style="stroke:#000000; stroke-linecap:round; stroke-linejoin:round; stroke-width:2; stroke-opacity:0.1; fill:none" points="249.542,1384.24 2352.76,1384.24 "/>
<polyline clip-path="url(#clip882)" style="stroke:#000000; stroke-linecap:round; stroke-linejoin:round; stroke-width:2; stroke-opacity:0.1; fill:none" points="249.542,1059.73 2352.76,1059.73 "/>
<polyline clip-path="url(#clip882)" style="stroke:#000000; stroke-linecap:round; stroke-linejoin:round; stroke-width:2; stroke-opacity:0.1; fill:none" points="249.542,735.212 2352.76,735.212 "/>
<polyline clip-path="url(#clip882)" style="stroke:#000000; stroke-linecap:round; stroke-linejoin:round; stroke-width:2; stroke-opacity:0.1; fill:none" points="249.542,410.699 2352.76,410.699 "/>
<polyline clip-path="url(#clip882)" style="stroke:#000000; stroke-linecap:round; stroke-linejoin:round; stroke-width:2; stroke-opacity:0.1; fill:none" points="249.542,86.1857 2352.76,86.1857 "/>
<polyline clip-path="url(#clip880)" style="stroke:#000000; stroke-linecap:round; stroke-linejoin:round; stroke-width:4; stroke-opacity:1; fill:none" points="249.542,1423.18 249.542,47.2441 "/>
<polyline clip-path="url(#clip880)" style="stroke:#000000; stroke-linecap:round; stroke-linejoin:round; stroke-width:4; stroke-opacity:1; fill:none" points="249.542,1384.24 268.44,1384.24 "/>
<polyline clip-path="url(#clip880)" style="stroke:#000000; stroke-linecap:round; stroke-linejoin:round; stroke-width:4; stroke-opacity:1; fill:none" points="249.542,1059.73 268.44,1059.73 "/>
<polyline clip-path="url(#clip880)" style="stroke:#000000; stroke-linecap:round; stroke-linejoin:round; stroke-width:4; stroke-opacity:1; fill:none" points="249.542,735.212 268.44,735.212 "/>
<polyline clip-path="url(#clip880)" style="stroke:#000000; stroke-linecap:round; stroke-linejoin:round; stroke-width:4; stroke-opacity:1; fill:none" points="249.542,410.699 268.44,410.699 "/>
<polyline clip-path="url(#clip880)" style="stroke:#000000; stroke-linecap:round; stroke-linejoin:round; stroke-width:4; stroke-opacity:1; fill:none" points="249.542,86.1857 268.44,86.1857 "/>
<path clip-path="url(#clip880)" d="M126.205 1370.04 Q122.593 1370.04 120.765 1373.6 Q118.959 1377.14 118.959 1384.27 Q118.959 1391.38 120.765 1394.94 Q122.593 1398.49 126.205 1398.49 Q129.839 1398.49 131.644 1394.94 Q133.473 1391.38 133.473 1384.27 Q133.473 1377.14 131.644 1373.6 Q129.839 1370.04 126.205 1370.04 M126.205 1366.33 Q132.015 1366.33 135.07 1370.94 Q138.149 1375.52 138.149 1384.27 Q138.149 1393 135.07 1397.61 Q132.015 1402.19 126.205 1402.19 Q120.394 1402.19 117.316 1397.61 Q114.26 1393 114.26 1384.27 Q114.26 1375.52 117.316 1370.94 Q120.394 1366.33 126.205 1366.33 Z" fill="#000000" fill-rule="nonzero" fill-opacity="1" /><path clip-path="url(#clip880)" d="M146.366 1395.64 L151.251 1395.64 L151.251 1401.52 L146.366 1401.52 L146.366 1395.64 Z" fill="#000000" fill-rule="nonzero" fill-opacity="1" /><path clip-path="url(#clip880)" d="M171.436 1370.04 Q167.825 1370.04 165.996 1373.6 Q164.19 1377.14 164.19 1384.27 Q164.19 1391.38 165.996 1394.94 Q167.825 1398.49 171.436 1398.49 Q175.07 1398.49 176.876 1394.94 Q178.704 1391.38 178.704 1384.27 Q178.704 1377.14 176.876 1373.6 Q175.07 1370.04 171.436 1370.04 M171.436 1366.33 Q177.246 1366.33 180.301 1370.94 Q183.38 1375.52 183.38 1384.27 Q183.38 1393 180.301 1397.61 Q177.246 1402.19 171.436 1402.19 Q165.626 1402.19 162.547 1397.61 Q159.491 1393 159.491 1384.27 Q159.491 1375.52 162.547 1370.94 Q165.626 1366.33 171.436 1366.33 Z" fill="#000000" fill-rule="nonzero" fill-opacity="1" /><path clip-path="url(#clip880)" d="M201.598 1370.04 Q197.987 1370.04 196.158 1373.6 Q194.352 1377.14 194.352 1384.27 Q194.352 1391.38 196.158 1394.94 Q197.987 1398.49 201.598 1398.49 Q205.232 1398.49 207.037 1394.94 Q208.866 1391.38 208.866 1384.27 Q208.866 1377.14 207.037 1373.6 Q205.232 1370.04 201.598 1370.04 M201.598 1366.33 Q207.408 1366.33 210.463 1370.94 Q213.542 1375.52 213.542 1384.27 Q213.542 1393 210.463 1397.61 Q207.408 1402.19 201.598 1402.19 Q195.787 1402.19 192.709 1397.61 Q189.653 1393 189.653 1384.27 Q189.653 1375.52 192.709 1370.94 Q195.787 1366.33 201.598 1366.33 Z" fill="#000000" fill-rule="nonzero" fill-opacity="1" /><path clip-path="url(#clip880)" d="M127.2 1045.52 Q123.589 1045.52 121.76 1049.09 Q119.955 1052.63 119.955 1059.76 Q119.955 1066.87 121.76 1070.43 Q123.589 1073.97 127.2 1073.97 Q130.834 1073.97 132.64 1070.43 Q134.468 1066.87 134.468 1059.76 Q134.468 1052.63 132.64 1049.09 Q130.834 1045.52 127.2 1045.52 M127.2 1041.82 Q133.01 1041.82 136.066 1046.43 Q139.144 1051.01 139.144 1059.76 Q139.144 1068.49 136.066 1073.09 Q133.01 1077.68 127.2 1077.68 Q121.39 1077.68 118.311 1073.09 Q115.256 1068.49 115.256 1059.76 Q115.256 1051.01 118.311 1046.43 Q121.39 1041.82 127.2 1041.82 Z" fill="#000000" fill-rule="nonzero" fill-opacity="1" /><path clip-path="url(#clip880)" d="M147.362 1071.13 L152.246 1071.13 L152.246 1077.01 L147.362 1077.01 L147.362 1071.13 Z" fill="#000000" fill-rule="nonzero" fill-opacity="1" /><path clip-path="url(#clip880)" d="M166.459 1073.07 L182.778 1073.07 L182.778 1077.01 L160.834 1077.01 L160.834 1073.07 Q163.496 1070.32 168.079 1065.69 Q172.686 1061.03 173.866 1059.69 Q176.112 1057.17 176.991 1055.43 Q177.894 1053.67 177.894 1051.98 Q177.894 1049.23 175.95 1047.49 Q174.028 1045.76 170.927 1045.76 Q168.727 1045.76 166.274 1046.52 Q163.843 1047.28 161.065 1048.83 L161.065 1044.11 Q163.89 1042.98 166.343 1042.4 Q168.797 1041.82 170.834 1041.82 Q176.204 1041.82 179.399 1044.51 Q182.593 1047.19 182.593 1051.68 Q182.593 1053.81 181.783 1055.73 Q180.996 1057.63 178.889 1060.22 Q178.311 1060.89 175.209 1064.11 Q172.107 1067.31 166.459 1073.07 Z" fill="#000000" fill-rule="nonzero" fill-opacity="1" /><path clip-path="url(#clip880)" d="M192.639 1042.45 L210.996 1042.45 L210.996 1046.38 L196.922 1046.38 L196.922 1054.85 Q197.94 1054.51 198.959 1054.34 Q199.977 1054.16 200.996 1054.16 Q206.783 1054.16 210.162 1057.33 Q213.542 1060.5 213.542 1065.92 Q213.542 1071.5 210.07 1074.6 Q206.598 1077.68 200.278 1077.68 Q198.102 1077.68 195.834 1077.31 Q193.588 1076.94 191.181 1076.19 L191.181 1071.5 Q193.264 1072.63 195.487 1073.19 Q197.709 1073.74 200.186 1073.74 Q204.19 1073.74 206.528 1071.63 Q208.866 1069.53 208.866 1065.92 Q208.866 1062.31 206.528 1060.2 Q204.19 1058.09 200.186 1058.09 Q198.311 1058.09 196.436 1058.51 Q194.584 1058.93 192.639 1059.81 L192.639 1042.45 Z" fill="#000000" fill-rule="nonzero" fill-opacity="1" /><path clip-path="url(#clip880)" d="M126.205 721.011 Q122.593 721.011 120.765 724.575 Q118.959 728.117 118.959 735.247 Q118.959 742.353 120.765 745.918 Q122.593 749.46 126.205 749.46 Q129.839 749.46 131.644 745.918 Q133.473 742.353 133.473 735.247 Q133.473 728.117 131.644 724.575 Q129.839 721.011 126.205 721.011 M126.205 717.307 Q132.015 717.307 135.07 721.913 Q138.149 726.497 138.149 735.247 Q138.149 743.973 135.07 748.58 Q132.015 753.163 126.205 753.163 Q120.394 753.163 117.316 748.58 Q114.26 743.973 114.26 735.247 Q114.26 726.497 117.316 721.913 Q120.394 717.307 126.205 717.307 Z" fill="#000000" fill-rule="nonzero" fill-opacity="1" /><path clip-path="url(#clip880)" d="M146.366 746.612 L151.251 746.612 L151.251 752.492 L146.366 752.492 L146.366 746.612 Z" fill="#000000" fill-rule="nonzero" fill-opacity="1" /><path clip-path="url(#clip880)" d="M161.482 717.932 L179.839 717.932 L179.839 721.867 L165.765 721.867 L165.765 730.339 Q166.783 729.992 167.802 729.83 Q168.82 729.645 169.839 729.645 Q175.626 729.645 179.005 732.816 Q182.385 735.987 182.385 741.404 Q182.385 746.983 178.913 750.085 Q175.44 753.163 169.121 753.163 Q166.945 753.163 164.677 752.793 Q162.431 752.423 160.024 751.682 L160.024 746.983 Q162.107 748.117 164.329 748.673 Q166.552 749.228 169.028 749.228 Q173.033 749.228 175.371 747.122 Q177.709 745.015 177.709 741.404 Q177.709 737.793 175.371 735.687 Q173.033 733.58 169.028 733.58 Q167.153 733.58 165.278 733.997 Q163.427 734.413 161.482 735.293 L161.482 717.932 Z" fill="#000000" fill-rule="nonzero" fill-opacity="1" /><path clip-path="url(#clip880)" d="M201.598 721.011 Q197.987 721.011 196.158 724.575 Q194.352 728.117 194.352 735.247 Q194.352 742.353 196.158 745.918 Q197.987 749.46 201.598 749.46 Q205.232 749.46 207.037 745.918 Q208.866 742.353 208.866 735.247 Q208.866 728.117 207.037 724.575 Q205.232 721.011 201.598 721.011 M201.598 717.307 Q207.408 717.307 210.463 721.913 Q213.542 726.497 213.542 735.247 Q213.542 743.973 210.463 748.58 Q207.408 753.163 201.598 753.163 Q195.787 753.163 192.709 748.58 Q189.653 743.973 189.653 735.247 Q189.653 726.497 192.709 721.913 Q195.787 717.307 201.598 717.307 Z" fill="#000000" fill-rule="nonzero" fill-opacity="1" /><path clip-path="url(#clip880)" d="M127.2 396.498 Q123.589 396.498 121.76 400.062 Q119.955 403.604 119.955 410.734 Q119.955 417.84 121.76 421.405 Q123.589 424.946 127.2 424.946 Q130.834 424.946 132.64 421.405 Q134.468 417.84 134.468 410.734 Q134.468 403.604 132.64 400.062 Q130.834 396.498 127.2 396.498 M127.2 392.794 Q133.01 392.794 136.066 397.4 Q139.144 401.984 139.144 410.734 Q139.144 419.46 136.066 424.067 Q133.01 428.65 127.2 428.65 Q121.39 428.65 118.311 424.067 Q115.256 419.46 115.256 410.734 Q115.256 401.984 118.311 397.4 Q121.39 392.794 127.2 392.794 Z" fill="#000000" fill-rule="nonzero" fill-opacity="1" /><path clip-path="url(#clip880)" d="M147.362 422.099 L152.246 422.099 L152.246 427.979 L147.362 427.979 L147.362 422.099 Z" fill="#000000" fill-rule="nonzero" fill-opacity="1" /><path clip-path="url(#clip880)" d="M161.251 393.419 L183.473 393.419 L183.473 395.41 L170.927 427.979 L166.042 427.979 L177.848 397.354 L161.251 397.354 L161.251 393.419 Z" fill="#000000" fill-rule="nonzero" fill-opacity="1" /><path clip-path="url(#clip880)" d="M192.639 393.419 L210.996 393.419 L210.996 397.354 L196.922 397.354 L196.922 405.826 Q197.94 405.479 198.959 405.317 Q199.977 405.132 200.996 405.132 Q206.783 405.132 210.162 408.303 Q213.542 411.474 213.542 416.891 Q213.542 422.47 210.07 425.571 Q206.598 428.65 200.278 428.65 Q198.102 428.65 195.834 428.28 Q193.588 427.909 191.181 427.169 L191.181 422.47 Q193.264 423.604 195.487 424.159 Q197.709 424.715 200.186 424.715 Q204.19 424.715 206.528 422.608 Q208.866 420.502 208.866 416.891 Q208.866 413.28 206.528 411.173 Q204.19 409.067 200.186 409.067 Q198.311 409.067 196.436 409.484 Q194.584 409.9 192.639 410.78 L192.639 393.419 Z" fill="#000000" fill-rule="nonzero" fill-opacity="1" /><path clip-path="url(#clip880)" d="M117.015 99.5305 L124.654 99.5305 L124.654 73.1649 L116.343 74.8316 L116.343 70.5723 L124.607 68.9057 L129.283 68.9057 L129.283 99.5305 L136.922 99.5305 L136.922 103.466 L117.015 103.466 L117.015 99.5305 Z" fill="#000000" fill-rule="nonzero" fill-opacity="1" /><path clip-path="url(#clip880)" d="M146.366 97.5861 L151.251 97.5861 L151.251 103.466 L146.366 103.466 L146.366 97.5861 Z" fill="#000000" fill-rule="nonzero" fill-opacity="1" /><path clip-path="url(#clip880)" d="M171.436 71.9844 Q167.825 71.9844 165.996 75.5492 Q164.19 79.0908 164.19 86.2204 Q164.19 93.3268 165.996 96.8916 Q167.825 100.433 171.436 100.433 Q175.07 100.433 176.876 96.8916 Q178.704 93.3268 178.704 86.2204 Q178.704 79.0908 176.876 75.5492 Q175.07 71.9844 171.436 71.9844 M171.436 68.2807 Q177.246 68.2807 180.301 72.8871 Q183.38 77.4704 183.38 86.2204 Q183.38 94.9472 180.301 99.5537 Q177.246 104.137 171.436 104.137 Q165.626 104.137 162.547 99.5537 Q159.491 94.9472 159.491 86.2204 Q159.491 77.4704 162.547 72.8871 Q165.626 68.2807 171.436 68.2807 Z" fill="#000000" fill-rule="nonzero" fill-opacity="1" /><path clip-path="url(#clip880)" d="M201.598 71.9844 Q197.987 71.9844 196.158 75.5492 Q194.352 79.0908 194.352 86.2204 Q194.352 93.3268 196.158 96.8916 Q197.987 100.433 201.598 100.433 Q205.232 100.433 207.037 96.8916 Q208.866 93.3268 208.866 86.2204 Q208.866 79.0908 207.037 75.5492 Q205.232 71.9844 201.598 71.9844 M201.598 68.2807 Q207.408 68.2807 210.463 72.8871 Q213.542 77.4704 213.542 86.2204 Q213.542 94.9472 210.463 99.5537 Q207.408 104.137 201.598 104.137 Q195.787 104.137 192.709 99.5537 Q189.653 94.9472 189.653 86.2204 Q189.653 77.4704 192.709 72.8871 Q195.787 68.2807 201.598 68.2807 Z" fill="#000000" fill-rule="nonzero" fill-opacity="1" /><path clip-path="url(#clip880)" d="M64.0042 738.84 L16.4842 756.983 L16.4842 750.267 L56.4926 735.212 L16.4842 720.125 L16.4842 713.441 L64.0042 731.552 L64.0042 738.84 Z" fill="#000000" fill-rule="nonzero" fill-opacity="1" /><polyline clip-path="url(#clip882)" style="stroke:#009af9; stroke-linecap:round; stroke-linejoin:round; stroke-width:4; stroke-opacity:1; fill:none" points="309.067,86.1857 408.275,332.816 507.483,553.485 606.692,748.192 705.9,916.939 805.108,1059.73 904.316,1176.55 1003.52,1267.41 1102.73,1332.32 1201.94,1371.26 1301.15,1384.24 1400.36,1371.26 1499.57,1332.32 1598.77,1267.41 1697.98,1176.55 1797.19,1059.73 1896.4,916.939 1995.61,748.192 2094.81,553.485 2194.02,332.816 2293.23,86.1857 "/>
<path clip-path="url(#clip880)" d="M2014.85 1377.32 L2282.65 1377.32 L2282.65 1273.64 L2014.85 1273.64  Z" fill="#ffffff" fill-rule="evenodd" fill-opacity="1"/>
<polyline clip-path="url(#clip880)" style="stroke:#000000; stroke-linecap:round; stroke-linejoin:round; stroke-width:4; stroke-opacity:1; fill:none" points="2014.85,1377.32 2282.65,1377.32 2282.65,1273.64 2014.85,1273.64 2014.85,1377.32 "/>
<polyline clip-path="url(#clip880)" style="stroke:#009af9; stroke-linecap:round; stroke-linejoin:round; stroke-width:4; stroke-opacity:1; fill:none" points="2038.22,1325.48 2178.43,1325.48 "/>
<path clip-path="url(#clip880)" d="M2215 1342.76 L2201.8 1308.2 L2206.69 1308.2 L2217.64 1337.29 L2228.61 1308.2 L2233.47 1308.2 L2220.3 1342.76 L2215 1342.76 Z" fill="#000000" fill-rule="nonzero" fill-opacity="1" /><path clip-path="url(#clip880)" d="M2242.96 1338.82 L2259.28 1338.82 L2259.28 1342.76 L2237.34 1342.76 L2237.34 1338.82 Q2240 1336.07 2244.58 1331.44 Q2249.19 1326.78 2250.37 1325.44 Q2252.61 1322.92 2253.49 1321.18 Q2254.4 1319.42 2254.4 1317.73 Q2254.4 1314.98 2252.45 1313.24 Q2250.53 1311.51 2247.43 1311.51 Q2245.23 1311.51 2242.78 1312.27 Q2240.34 1313.03 2237.57 1314.58 L2237.57 1309.86 Q2240.39 1308.73 2242.84 1308.15 Q2245.3 1307.57 2247.34 1307.57 Q2252.71 1307.57 2255.9 1310.26 Q2259.09 1312.94 2259.09 1317.43 Q2259.09 1319.56 2258.28 1321.48 Q2257.5 1323.38 2255.39 1325.97 Q2254.81 1326.64 2251.71 1329.86 Q2248.61 1333.06 2242.96 1338.82 Z" fill="#000000" fill-rule="nonzero" fill-opacity="1" /></svg>