<?xml version="1.0" encoding="utf-8"?>
<svg xmlns="http://www.w3.org/2000/svg" xmlns:xlink="http://www.w3.org/1999/xlink" width="600" height="400" viewBox="0 0 2400 1600">
<defs>
  <clipPath id="clip140">
    <rect x="0" y="0" width="2400" height="1600"/>
  </clipPath>
</defs>
<path clip-path="url(#clip140)" d="M0 1600 L2400 1600 L2400 8.88178e-14 L0 8.88178e-14  Z" fill="#ffffff" fill-rule="evenodd" fill-opacity="1"/>
<defs>
  <clipPath id="clip141">
    <rect x="480" y="0" width="1681" height="1600"/>
  </clipPath>
</defs>
<path clip-path="url(#clip140)" d="M336.58 1410.9 L2352.76 1410.9 L2352.76 47.2441 L336.58 47.2441  Z" fill="#ffffff" fill-rule="evenodd" fill-opacity="1"/>
<defs>
  <clipPath id="clip142">
    <rect x="336" y="47" width="2017" height="1365"/>
  </clipPath>
</defs>
<polyline clip-path="url(#clip142)" style="stroke:#000000; stroke-linecap:round; stroke-linejoin:round; stroke-width:2; stroke-opacity:0.1; fill:none" points="393.642,1410.9 393.642,47.2441 "/>
<polyline clip-path="url(#clip142)" style="stroke:#000000; stroke-linecap:round; stroke-linejoin:round; stroke-width:2; stroke-opacity:0.1; fill:none" points="1344.67,1410.9 1344.67,47.2441 "/>
<polyline clip-path="url(#clip142)" style="stroke:#000000; stroke-linecap:round; stroke-linejoin:round; stroke-width:2; stroke-opacity:0.1; fill:none" points="2295.69,1410.9 2295.69,47.2441 "/>
<polyline clip-path="url(#clip140)" style="stroke:#000000; stroke-linecap:round; stroke-linejoin:round; stroke-width:4; stroke-opacity:1; fill:none" points="336.58,1410.9 2352.76,1410.9 "/>
<polyline clip-path="url(#clip140)" style="stroke:#000000; stroke-linecap:round; stroke-linejoin:round; stroke-width:4; stroke-opacity:1; fill:none" points="393.642,1410.9 393.642,1392 "/>
<polyline clip-path="url(#clip140)" style="stroke:#000000; stroke-linecap:round; stroke-linejoin:round; stroke-width:4; stroke-opacity:1; fill:none" points="1344.67,1410.9 1344.67,1392 "/>
<polyline clip-path="url(#clip140)" style="stroke:#000000; stroke-linecap:round; stroke-linejoin:round; stroke-width:4; stroke-opacity:1; fill:none" points="2295.69,1410.9 2295.69,1392 "/>
<path clip-path="url(#clip140)" d="M358.625 1485.02 L366.263 1485.02 L366.263 1458.66 L357.953 1460.32 L357.953 1456.06 L366.217 1454.4 L370.893 1454.4 L370.893 1485.02 L378.532 1485.02 L378.532 1488.96 L358.625 1488.96 L358.625 1485.02 Z" fill="#000000" fill-rule="nonzero" fill-opacity="1" /><path clip-path="url(#clip140)" d="M397.976 1457.48 Q394.365 1457.48 392.536 1461.04 Q390.731 1464.58 390.731 1471.71 Q390.731 1478.82 392.536 1482.38 Q394.365 1485.92 397.976 1485.92 Q401.61 1485.92 403.416 1482.38 Q405.245 1478.82 405.245 1471.71 Q405.245 1464.58 403.416 1461.04 Q401.61 1457.48 397.976 1457.48 M397.976 1453.77 Q403.786 1453.77 406.842 1458.38 Q409.921 1462.96 409.921 1471.71 Q409.921 1480.44 406.842 1485.04 Q403.786 1489.63 397.976 1489.63 Q392.166 1489.63 389.087 1485.04 Q386.032 1480.44 386.032 1471.71 Q386.032 1462.96 389.087 1458.38 Q392.166 1453.77 397.976 1453.77 Z" fill="#000000" fill-rule="nonzero" fill-opacity="1" /><path clip-path="url(#clip140)" d="M419.625 1435.97 Q416.691 1435.97 415.206 1438.86 Q413.739 1441.74 413.739 1447.53 Q413.739 1453.31 415.206 1456.2 Q416.691 1459.08 419.625 1459.08 Q422.578 1459.08 424.045 1456.2 Q425.531 1453.31 425.531 1447.53 Q425.531 1441.74 424.045 1438.86 Q422.578 1435.97 419.625 1435.97 M419.625 1432.96 Q424.346 1432.96 426.829 1436.7 Q429.33 1440.43 429.33 1447.53 Q429.33 1454.62 426.829 1458.37 Q424.346 1462.09 419.625 1462.09 Q414.905 1462.09 412.403 1458.37 Q409.921 1454.62 409.921 1447.53 Q409.921 1440.43 412.403 1436.7 Q414.905 1432.96 419.625 1432.96 Z" fill="#000000" fill-rule="nonzero" fill-opacity="1" /><path clip-path="url(#clip140)" d="M1311 1485.02 L1318.63 1485.02 L1318.63 1458.66 L1310.32 1460.32 L1310.32 1456.06 L1318.59 1454.4 L1323.26 1454.4 L1323.26 1485.02 L1330.9 1485.02 L1330.9 1488.96 L1311 1488.96 L1311 1485.02 Z" fill="#000000" fill-rule="nonzero" fill-opacity="1" /><path clip-path="url(#clip140)" d="M1350.35 1457.48 Q1346.74 1457.48 1344.91 1461.04 Q1343.1 1464.58 1343.1 1471.71 Q1343.1 1478.82 1344.91 1482.38 Q1346.74 1485.92 1350.35 1485.92 Q1353.98 1485.92 1355.79 1482.38 Q1357.62 1478.82 1357.62 1471.71 Q1357.62 1464.58 1355.79 1461.04 Q1353.98 1457.48 1350.35 1457.48 M1350.35 1453.77 Q1356.16 1453.77 1359.21 1458.38 Q1362.29 1462.96 1362.29 1471.71 Q1362.29 1480.44 1359.21 1485.04 Q1356.16 1489.63 1350.35 1489.63 Q1344.54 1489.63 1341.46 1485.04 Q1338.4 1480.44 1338.4 1471.71 Q1338.4 1462.96 1341.46 1458.38 Q1344.54 1453.77 1350.35 1453.77 Z" fill="#000000" fill-rule="nonzero" fill-opacity="1" /><path clip-path="url(#clip140)" d="M1362.84 1458.35 L1369.04 1458.35 L1369.04 1436.93 L1362.29 1438.28 L1362.29 1434.82 L1369.01 1433.47 L1372.81 1433.47 L1372.81 1458.35 L1379.01 1458.35 L1379.01 1461.55 L1362.84 1461.55 L1362.84 1458.35 Z" fill="#000000" fill-rule="nonzero" fill-opacity="1" /><path clip-path="url(#clip140)" d="M2261.47 1485.02 L2269.11 1485.02 L2269.11 1458.66 L2260.8 1460.32 L2260.8 1456.06 L2269.06 1454.4 L2273.74 1454.4 L2273.74 1485.02 L2281.37 1485.02 L2281.37 1488.96 L2261.47 1488.96 L2261.47 1485.02 Z" fill="#000000" fill-rule="nonzero" fill-opacity="1" /><path clip-path="url(#clip140)" d="M2300.82 1457.48 Q2297.21 1457.48 2295.38 1461.04 Q2293.57 1464.58 2293.57 1471.71 Q2293.57 1478.82 2295.38 1482.38 Q2297.21 1485.92 2300.82 1485.92 Q2304.45 1485.92 2306.26 1482.38 Q2308.09 1478.82 2308.09 1471.71 Q2308.09 1464.58 2306.26 1461.04 Q2304.45 1457.48 2300.82 1457.48 M2300.82 1453.77 Q2306.63 1453.77 2309.68 1458.38 Q2312.76 1462.96 2312.76 1471.71 Q2312.76 1480.44 2309.68 1485.04 Q2306.63 1489.63 2300.82 1489.63 Q2295.01 1489.63 2291.93 1485.04 Q2288.87 1480.44 2288.87 1471.71 Q2288.87 1462.96 2291.93 1458.38 Q2295.01 1453.77 2300.82 1453.77 Z" fill="#000000" fill-rule="nonzero" fill-opacity="1" /><path clip-path="url(#clip140)" d="M2317.33 1458.35 L2330.59 1458.35 L2330.59 1461.55 L2312.76 1461.55 L2312.76 1458.35 Q2314.93 1456.11 2318.65 1452.35 Q2322.39 1448.57 2323.35 1447.48 Q2325.18 1445.43 2325.89 1444.02 Q2326.62 1442.59 2326.62 1441.22 Q2326.62 1438.98 2325.04 1437.57 Q2323.48 1436.16 2320.96 1436.16 Q2319.18 1436.16 2317.18 1436.78 Q2315.21 1437.4 2312.95 1438.66 L2312.95 1434.82 Q2315.25 1433.9 2317.24 1433.43 Q2319.23 1432.96 2320.89 1432.96 Q2325.25 1432.96 2327.85 1435.14 Q2330.44 1437.32 2330.44 1440.97 Q2330.44 1442.7 2329.78 1444.26 Q2329.14 1445.8 2327.43 1447.91 Q2326.96 1448.46 2324.44 1451.07 Q2321.92 1453.67 2317.33 1458.35 Z" fill="#000000" fill-rule="nonzero" fill-opacity="1" /><path clip-path="url(#clip140)" d="M1359.6 1552.67 L1359.6 1574.19 L1353.74 1574.19 L1353.74 1552.86 Q1353.74 1547.8 1351.77 1545.29 Q1349.79 1542.77 1345.85 1542.77 Q1341.1 1542.77 1338.37 1545.79 Q1335.63 1548.82 1335.63 1554.04 L1335.63 1574.19 L1329.74 1574.19 L1329.74 1538.54 L1335.63 1538.54 L1335.63 1544.08 Q1337.73 1540.86 1340.56 1539.27 Q1343.43 1537.68 1347.15 1537.68 Q1353.29 1537.68 1356.44 1541.5 Q1359.6 1545.29 1359.6 1552.67 Z" fill="#000000" fill-rule="nonzero" fill-opacity="1" /><polyline clip-path="url(#clip142)" style="stroke:#000000; stroke-linecap:round; stroke-linejoin:round; stroke-width:2; stroke-opacity:0.1; fill:none" points="336.58,1178.67 2352.76,1178.67 "/>
<polyline clip-path="url(#clip142)" style="stroke:#000000; stroke-linecap:round; stroke-linejoin:round; stroke-width:2; stroke-opacity:0.1; fill:none" points="336.58,535.438 2352.76,535.438 "/>
<polyline clip-path="url(#clip140)" style="stroke:#000000; stroke-linecap:round; stroke-linejoin:round; stroke-width:4; stroke-opacity:1; fill:none" points="336.58,1410.9 336.58,47.2441 "/>
<polyline clip-path="url(#clip140)" style="stroke:#000000; stroke-linecap:round; stroke-linejoin:round; stroke-width:4; stroke-opacity:1; fill:none" points="336.58,1178.67 355.478,1178.67 "/>
<polyline clip-path="url(#clip140)" style="stroke:#000000; stroke-linecap:round; stroke-linejoin:round; stroke-width:4; stroke-opacity:1; fill:none" points="336.58,535.438 355.478,535.438 "/>
<path clip-path="url(#clip140)" d="M198.748 1198.46 L206.386 1198.46 L206.386 1172.1 L198.076 1173.76 L198.076 1169.5 L206.34 1167.84 L211.016 1167.84 L211.016 1198.46 L218.655 1198.46 L218.655 1202.4 L198.748 1202.4 L198.748 1198.46 Z" fill="#000000" fill-rule="nonzero" fill-opacity="1" /><path clip-path="url(#clip140)" d="M238.099 1170.92 Q234.488 1170.92 232.66 1174.48 Q230.854 1178.02 230.854 1185.15 Q230.854 1192.26 232.66 1195.82 Q234.488 1199.37 238.099 1199.37 Q241.734 1199.37 243.539 1195.82 Q245.368 1192.26 245.368 1185.15 Q245.368 1178.02 243.539 1174.48 Q241.734 1170.92 238.099 1170.92 M238.099 1167.21 Q243.909 1167.21 246.965 1171.82 Q250.044 1176.4 250.044 1185.15 Q250.044 1193.88 246.965 1198.49 Q243.909 1203.07 238.099 1203.07 Q232.289 1203.07 229.21 1198.49 Q226.155 1193.88 226.155 1185.15 Q226.155 1176.4 229.21 1171.82 Q232.289 1167.21 238.099 1167.21 Z" fill="#000000" fill-rule="nonzero" fill-opacity="1" /><path clip-path="url(#clip140)" d="M250.044 1161.31 L274.155 1161.31 L274.155 1164.51 L250.044 1164.51 L250.044 1161.31 Z" fill="#000000" fill-rule="nonzero" fill-opacity="1" /><path clip-path="url(#clip140)" d="M292.794 1150.22 L283.202 1165.21 L292.794 1165.21 L292.794 1150.22 M291.797 1146.91 L296.574 1146.91 L296.574 1165.21 L300.58 1165.21 L300.58 1168.37 L296.574 1168.37 L296.574 1174.99 L292.794 1174.99 L292.794 1168.37 L280.117 1168.37 L280.117 1164.7 L291.797 1146.91 Z" fill="#000000" fill-rule="nonzero" fill-opacity="1" /><path clip-path="url(#clip140)" d="M200.44 555.231 L208.079 555.231 L208.079 528.865 L199.769 530.532 L199.769 526.272 L208.033 524.606 L212.709 524.606 L212.709 555.231 L220.348 555.231 L220.348 559.166 L200.44 559.166 L200.44 555.231 Z" fill="#000000" fill-rule="nonzero" fill-opacity="1" /><path clip-path="url(#clip140)" d="M239.792 527.684 Q236.181 527.684 234.352 531.249 Q232.547 534.791 232.547 541.92 Q232.547 549.027 234.352 552.592 Q236.181 556.133 239.792 556.133 Q243.426 556.133 245.232 552.592 Q247.06 549.027 247.06 541.92 Q247.06 534.791 245.232 531.249 Q243.426 527.684 239.792 527.684 M239.792 523.981 Q245.602 523.981 248.658 528.587 Q251.736 533.171 251.736 541.92 Q251.736 550.647 248.658 555.254 Q245.602 559.837 239.792 559.837 Q233.982 559.837 230.903 555.254 Q227.848 550.647 227.848 541.92 Q227.848 533.171 230.903 528.587 Q233.982 523.981 239.792 523.981 Z" fill="#000000" fill-rule="nonzero" fill-opacity="1" /><path clip-path="url(#clip140)" d="M251.736 518.082 L275.848 518.082 L275.848 521.279 L251.736 521.279 L251.736 518.082 Z" fill="#000000" fill-rule="nonzero" fill-opacity="1" /><path clip-path="url(#clip140)" d="M287.321 528.558 L300.58 528.558 L300.58 531.755 L282.75 531.755 L282.75 528.558 Q284.913 526.32 288.637 522.558 Q292.38 518.778 293.339 517.687 Q295.164 515.637 295.878 514.227 Q296.612 512.797 296.612 511.424 Q296.612 509.186 295.032 507.775 Q293.471 506.365 290.951 506.365 Q289.164 506.365 287.17 506.986 Q285.195 507.606 282.938 508.866 L282.938 505.03 Q285.233 504.108 287.227 503.638 Q289.22 503.168 290.875 503.168 Q295.239 503.168 297.834 505.349 Q300.43 507.531 300.43 511.18 Q300.43 512.91 299.771 514.471 Q299.132 516.013 297.42 518.12 Q296.95 518.665 294.43 521.279 Q291.91 523.875 287.321 528.558 Z" fill="#000000" fill-rule="nonzero" fill-opacity="1" /><path clip-path="url(#clip140)" d="M44.2885 859.614 Q46.0196 859.614 46.9455 860.661 Q47.8312 861.707 47.8312 863.076 Q47.8312 864.405 46.9455 865.451 Q46.0196 866.458 44.3691 866.458 Q43.2419 866.458 42.2354 865.733 Q41.1887 865.008 40.9874 863.398 Q39.2564 865.411 39.2564 868.591 Q39.2564 870.161 39.8602 871.248 Q40.4238 872.295 42.1549 873.342 Q43.886 874.388 47.4286 875.113 Q50.9713 875.797 56.4865 876.24 L77.0177 877.81 Q83.9823 878.293 97.6698 880.024 Q111.317 881.715 114.457 882.52 Q117.436 883.245 119.892 884.332 Q122.347 885.419 124.481 887.029 Q126.655 888.639 127.863 890.974 Q129.07 893.309 129.07 896.127 Q129.07 899.871 127.098 902.528 Q125.166 905.185 122.227 905.185 Q120.496 905.185 119.57 904.139 Q118.684 903.092 118.684 901.723 Q118.684 900.395 119.57 899.388 Q120.496 898.341 122.146 898.341 Q123.273 898.341 124.28 899.066 Q125.327 899.791 125.528 901.401 Q127.259 899.388 127.259 896.127 Q127.259 893.631 125.81 891.981 Q124.36 890.33 120.496 889.123 Q116.631 887.915 110.029 887.391 L89.4975 885.821 Q82.2512 885.298 68.765 883.607 Q55.2788 881.876 51.7361 881.111 Q37.4448 877.891 37.4448 868.672 Q37.4448 864.928 39.4174 862.271 Q41.3498 859.614 44.2885 859.614 Z" fill="#000000" fill-rule="nonzero" fill-opacity="1" /><path clip-path="url(#clip140)" d="M166.004 896.812 Q159.218 896.812 155.521 895.099 Q150.02 892.709 150.02 887.073 Q150.02 885.878 150.359 884.638 Q150.674 883.376 151.914 881.798 Q153.154 880.197 155.183 879.228 Q159.106 877.379 166.004 877.379 Q172.745 877.379 176.42 879.092 Q181.785 881.595 181.785 887.118 Q181.785 889.192 180.725 891.311 Q179.666 893.408 177.118 894.738 Q173.308 896.812 166.004 896.812 M165.441 892.98 Q172.407 892.98 175.18 892.484 Q178.178 891.92 179.486 890.387 Q180.771 888.831 180.771 887.118 Q180.771 885.27 179.395 883.737 Q177.998 882.181 174.999 881.708 Q172.046 881.189 165.441 881.212 Q159.015 881.212 156.445 881.662 Q153.447 882.271 152.252 883.894 Q151.035 885.495 151.035 887.118 Q151.035 887.727 151.215 888.381 Q151.396 889.012 151.914 889.936 Q152.433 890.86 153.718 891.582 Q155.003 892.281 156.941 892.619 Q159.444 892.98 165.441 892.98 Z" fill="#000000" fill-rule="nonzero" fill-opacity="1" /><path clip-path="url(#clip140)" d="M-11.1206 894.739 L-12.5635 894.739 Q-12.5635 889.194 -15.5167 886.33 Q-15.5167 885.541 -15.3364 885.406 Q-15.156 885.271 -14.3219 885.271 L11.5813 885.271 Q12.9565 885.271 13.3848 884.595 Q13.8131 883.918 13.8131 880.965 L13.8131 879.5 L15.2334 879.5 Q15.0982 881.123 15.0982 886.984 Q15.0982 892.846 15.2334 894.446 L13.8131 894.446 L13.8131 892.981 Q13.8131 890.073 13.4074 889.374 Q12.979 888.675 11.5813 888.675 L-12.338 888.675 Q-11.1206 891.087 -11.1206 894.739 Z" fill="#000000" fill-rule="nonzero" fill-opacity="1" /><path clip-path="url(#clip140)" d="M79.0306 813.13 Q80.8341 813.13 81.8647 814.257 Q82.8631 815.385 82.8631 816.673 Q82.8631 817.897 82.1546 818.541 Q81.4461 819.185 80.5443 819.185 Q79.3205 819.185 78.2577 818.283 Q77.1949 817.381 76.9694 816.029 Q76.1321 817.349 76.1321 819.314 Q76.1321 820.602 76.8084 821.729 Q77.4847 822.824 78.3543 823.501 Q79.2239 824.145 80.4799 824.724 Q81.7037 825.272 82.4444 825.497 Q83.153 825.691 83.9259 825.852 L92.9435 828.106 Q97.2269 829.201 98.7406 829.201 Q100.609 829.201 101.865 828.299 Q103.088 827.397 103.088 825.594 Q103.088 824.885 102.895 824.08 Q102.67 823.275 102.09 822.244 Q101.478 821.182 100.576 820.248 Q99.6424 819.282 98.0643 818.348 Q96.4862 817.414 94.4572 816.802 Q93.7487 816.608 93.7487 815.964 Q93.7487 815.159 94.3928 815.159 Q94.9403 815.159 96.0997 815.61 Q97.2269 816.029 98.7084 816.963 Q100.158 817.864 101.478 819.056 Q102.766 820.248 103.668 822.019 Q104.57 823.79 104.57 825.723 Q104.57 828.492 103.088 830.328 Q101.607 832.164 99.5457 832.84 Q99.8356 833.001 100.222 833.227 Q100.609 833.452 101.478 834.128 Q102.315 834.773 102.96 835.513 Q103.571 836.254 104.055 837.413 Q104.57 838.541 104.57 839.764 Q104.57 841.31 104.119 842.695 Q103.668 844.048 102.638 845.014 Q101.607 845.98 100.19 845.98 Q98.6118 845.98 97.5168 844.917 Q96.3896 843.822 96.3896 842.341 Q96.3896 841.407 96.9371 840.666 Q97.4846 839.893 98.6762 839.893 Q99.9966 839.893 100.995 840.795 Q101.993 841.697 102.251 842.985 Q103.088 841.665 103.088 839.7 Q103.088 837.574 101.22 835.9 Q99.3525 834.225 96.2285 833.42 Q88.7246 831.423 85.3752 830.65 Q81.9936 829.877 80.5443 829.877 Q79.1916 829.877 78.2577 830.232 Q77.3237 830.586 76.905 831.198 Q76.4541 831.777 76.2931 832.325 Q76.1321 832.84 76.1321 833.42 Q76.1321 834.386 76.5186 835.481 Q76.905 836.544 77.8068 837.832 Q78.6764 839.088 80.4799 840.28 Q82.2834 841.471 84.7633 842.277 Q85.504 842.438 85.504 843.146 Q85.4718 843.919 84.8277 843.919 Q84.2802 843.919 83.153 843.5 Q81.9936 843.049 80.5443 842.148 Q79.095 841.214 77.8068 840.022 Q76.4864 838.798 75.5846 837.027 Q74.6828 835.223 74.6828 833.291 Q74.6828 832.422 74.8761 831.584 Q75.0371 830.715 75.5202 829.684 Q76.0033 828.621 77.0661 827.687 Q78.1289 826.753 79.6747 826.174 Q78.934 825.787 78.2255 825.272 Q77.5169 824.724 76.6474 823.887 Q75.7456 823.017 75.2303 821.826 Q74.6828 820.602 74.6828 819.249 Q74.6828 817.929 75.0371 816.641 Q75.3591 815.352 76.4219 814.257 Q77.4525 813.13 79.0306 813.13 Z" fill="#000000" fill-rule="nonzero" fill-opacity="1" /><path clip-path="url(#clip140)" d="M76.864 806.409 Q75.4888 806.409 74.835 805.62 Q74.1812 804.831 74.1812 803.816 Q74.1812 802.757 74.8801 802.013 Q75.5564 801.246 76.7513 801.246 Q78.0363 801.246 78.7577 802.148 Q79.4791 803.027 79.2988 804.29 Q81.1474 803.185 81.9815 801.156 Q82.8156 799.105 82.8156 797.211 Q82.8156 795.227 81.1023 793.626 Q79.3889 792.003 75.1957 792.003 Q71.6338 792.003 69.5822 793.401 Q67.5307 794.776 67.5307 797.504 L67.5307 799.533 Q67.5307 800.232 67.4631 800.435 Q67.3955 800.638 67.0122 800.638 Q66.5613 800.638 66.4712 799.939 Q66.4712 799.24 66.3359 798.135 Q66.2457 795.453 63.9237 794.032 Q61.7594 792.747 58.6709 792.747 Q55.8529 792.747 54.6806 794.1 Q53.4858 795.43 53.4858 797.166 Q53.4858 798.789 54.1621 800.57 Q54.8384 802.351 56.3489 803.32 Q56.3489 800.457 58.6709 800.457 Q59.6854 800.457 60.3617 801.111 Q61.0155 801.742 61.0155 802.802 Q61.0155 803.816 60.3842 804.493 Q59.7305 805.169 58.6258 805.169 Q55.9881 805.169 54.1621 802.824 Q52.336 800.457 52.336 796.986 Q52.336 793.559 54.1395 791.034 Q55.9431 788.486 58.716 788.486 Q61.4438 788.486 63.6757 790.29 Q65.9076 792.093 66.8319 794.957 Q67.5307 791.44 69.9204 789.343 Q72.2875 787.246 75.1957 787.246 Q78.8028 787.246 81.463 790.087 Q84.1006 792.928 84.1006 797.076 Q84.1006 800.908 82.0266 803.659 Q79.9525 806.409 76.864 806.409 Z" fill="#000000" fill-rule="nonzero" fill-opacity="1" /><path clip-path="url(#clip140)" d="M58.7731 748.992 L96.9049 758.492 Q98.6118 758.879 100.061 758.879 Q103.088 758.879 103.088 756.914 Q103.088 755.948 102.476 755.175 Q101.865 754.402 100.576 753.79 Q99.2881 753.178 98.0965 752.792 Q96.8727 752.405 94.9403 751.89 Q94.1674 751.729 93.9741 751.6 Q93.7487 751.439 93.7487 750.988 Q93.7487 750.183 94.3928 750.183 Q98.5474 751.053 100.931 752.18 Q104.57 753.984 104.57 757.043 Q104.57 759.362 103.153 761.004 Q101.736 762.647 99.6102 763.033 Q104.57 767.252 104.57 771.632 Q104.57 775.497 101.639 777.945 Q98.6762 780.392 94.0063 780.392 Q89.3043 780.392 84.7955 778.074 Q80.2866 775.723 77.4847 772.019 Q74.6828 768.315 74.6828 764.515 Q74.6828 760.489 78.9018 758.428 L63.2497 754.467 L61.9615 754.273 Q61.575 754.273 61.3818 754.434 Q61.1564 754.563 60.9953 755.336 Q60.8343 756.077 60.8343 757.558 Q60.8343 758.17 60.8021 758.46 Q60.7699 758.718 60.6089 758.943 Q60.4156 759.169 60.0292 759.169 Q58.902 759.169 58.7731 758.235 Q58.0646 752.051 58.0646 749.861 Q58.0646 749.475 58.2578 749.249 Q58.4189 749.024 58.6121 749.024 L58.7731 748.992 M81.9291 759.233 Q81.6393 759.233 80.8341 759.459 Q80.029 759.684 78.9018 760.199 Q77.7746 760.715 76.9694 761.842 Q76.1321 762.937 76.1321 764.418 Q76.1321 766.415 77.839 768.508 Q79.5459 770.57 82.4444 772.083 Q84.7633 773.243 89.6263 774.499 Q94.4894 775.723 96.9049 775.723 Q98.3863 775.723 99.7068 775.4 Q100.995 775.046 102.058 774.048 Q103.088 773.049 103.088 771.504 Q103.088 767.735 98.4185 764.032 Q97.6134 763.323 97.2913 763.162 Q96.9371 762.969 95.9709 762.711 L83.0563 759.426 Q82.0902 759.233 81.9291 759.233 Z" fill="#000000" fill-rule="nonzero" fill-opacity="1" /><path clip-path="url(#clip140)" d="M79.0306 714.658 Q80.8341 714.658 81.8647 715.786 Q82.8631 716.913 82.8631 718.201 Q82.8631 719.425 82.1546 720.069 Q81.4461 720.713 80.5443 720.713 Q79.3205 720.713 78.2577 719.811 Q77.1949 718.91 76.9694 717.557 Q76.1321 718.877 76.1321 720.842 Q76.1321 722.13 76.8084 723.257 Q77.4847 724.352 78.3543 725.029 Q79.2239 725.673 80.4799 726.253 Q81.7037 726.8 82.4444 727.025 Q83.153 727.219 83.9259 727.38 L92.9435 729.634 Q97.2269 730.729 98.7406 730.729 Q100.609 730.729 101.865 729.827 Q103.088 728.926 103.088 727.122 Q103.088 726.414 102.895 725.608 Q102.67 724.803 102.09 723.773 Q101.478 722.71 100.576 721.776 Q99.6424 720.81 98.0643 719.876 Q96.4862 718.942 94.4572 718.33 Q93.7487 718.137 93.7487 717.493 Q93.7487 716.687 94.3928 716.687 Q94.9403 716.687 96.0997 717.138 Q97.2269 717.557 98.7084 718.491 Q100.158 719.393 101.478 720.584 Q102.766 721.776 103.668 723.547 Q104.57 725.319 104.57 727.251 Q104.57 730.021 103.088 731.856 Q101.607 733.692 99.5457 734.368 Q99.8356 734.529 100.222 734.755 Q100.609 734.98 101.478 735.657 Q102.315 736.301 102.96 737.041 Q103.571 737.782 104.055 738.942 Q104.57 740.069 104.57 741.293 Q104.57 742.839 104.119 744.223 Q103.668 745.576 102.638 746.542 Q101.607 747.508 100.19 747.508 Q98.6118 747.508 97.5168 746.446 Q96.3896 745.351 96.3896 743.869 Q96.3896 742.935 96.9371 742.194 Q97.4846 741.421 98.6762 741.421 Q99.9966 741.421 100.995 742.323 Q101.993 743.225 102.251 744.513 Q103.088 743.193 103.088 741.228 Q103.088 739.103 101.22 737.428 Q99.3525 735.753 96.2285 734.948 Q88.7246 732.951 85.3752 732.178 Q81.9936 731.405 80.5443 731.405 Q79.1916 731.405 78.2577 731.76 Q77.3237 732.114 76.905 732.726 Q76.4541 733.306 76.2931 733.853 Q76.1321 734.368 76.1321 734.948 Q76.1321 735.914 76.5186 737.009 Q76.905 738.072 77.8068 739.36 Q78.6764 740.616 80.4799 741.808 Q82.2834 743 84.7633 743.805 Q85.504 743.966 85.504 744.674 Q85.4718 745.447 84.8277 745.447 Q84.2802 745.447 83.153 745.029 Q81.9936 744.578 80.5443 743.676 Q79.095 742.742 77.8068 741.55 Q76.4864 740.326 75.5846 738.555 Q74.6828 736.752 74.6828 734.819 Q74.6828 733.95 74.8761 733.112 Q75.0371 732.243 75.5202 731.212 Q76.0033 730.149 77.0661 729.215 Q78.1289 728.281 79.6747 727.702 Q78.934 727.315 78.2255 726.8 Q77.5169 726.253 76.6474 725.415 Q75.7456 724.546 75.2303 723.354 Q74.6828 722.13 74.6828 720.778 Q74.6828 719.457 75.0371 718.169 Q75.3591 716.881 76.4219 715.786 Q77.4525 714.658 79.0306 714.658 Z" fill="#000000" fill-rule="nonzero" fill-opacity="1" /><path clip-path="url(#clip140)" d="M83.3634 710.155 L83.3634 693 L88.5833 693 L88.5833 710.155 L83.3634 710.155 Z" fill="#000000" fill-rule="nonzero" fill-opacity="1" /><path clip-path="url(#clip140)" d="M60.5423 669.096 Q60.5423 674.062 65.4439 676.576 Q70.3137 679.059 80.1169 679.059 Q89.8882 679.059 94.7898 676.576 Q99.6596 674.062 99.6596 669.096 Q99.6596 664.099 94.7898 661.617 Q89.8882 659.102 80.1169 659.102 Q70.3137 659.102 65.4439 661.617 Q60.5423 664.099 60.5423 669.096 M55.4498 669.096 Q55.4498 661.107 61.7836 656.906 Q68.0857 652.673 80.1169 652.673 Q92.1162 652.673 98.4501 656.906 Q104.752 661.107 104.752 669.096 Q104.752 677.085 98.4501 681.319 Q92.1162 685.52 80.1169 685.52 Q68.0857 685.52 61.7836 681.319 Q55.4498 677.085 55.4498 669.096 Z" fill="#000000" fill-rule="nonzero" fill-opacity="1" /><path clip-path="url(#clip140)" d="M95.7447 641.374 L95.7447 634.658 L103.829 634.658 L103.829 641.374 L95.7447 641.374 Z" fill="#000000" fill-rule="nonzero" fill-opacity="1" /><path clip-path="url(#clip140)" d="M98.4183 615.115 L98.4183 592.676 L103.829 592.676 L103.829 622.85 L98.4183 622.85 Q94.6307 619.189 88.265 612.887 Q81.8674 606.553 80.0214 604.93 Q76.5521 601.843 74.1649 600.633 Q71.746 599.392 69.4225 599.392 Q65.6349 599.392 63.2477 602.066 Q60.8606 604.707 60.8606 608.972 Q60.8606 611.996 61.911 615.37 Q62.9613 618.712 65.0938 622.531 L58.6008 622.531 Q57.0412 618.648 56.2455 615.274 Q55.4498 611.901 55.4498 609.1 Q55.4498 601.715 59.1419 597.323 Q62.834 592.931 69.0087 592.931 Q71.9369 592.931 74.5787 594.045 Q77.1886 595.127 80.7534 598.023 Q81.6765 598.819 86.1006 603.084 Q90.493 607.349 98.4183 615.115 Z" fill="#000000" fill-rule="nonzero" fill-opacity="1" /><path clip-path="url(#clip140)" d="M56.3091 579.117 L56.3091 553.877 L61.72 553.877 L61.72 573.229 L73.3692 573.229 Q72.8918 571.828 72.669 570.428 Q72.4144 569.028 72.4144 567.627 Q72.4144 559.67 76.7749 555.023 Q81.1354 550.376 88.5833 550.376 Q96.2539 550.376 100.519 555.15 Q104.752 559.925 104.752 568.614 Q104.752 571.606 104.243 574.725 Q103.734 577.812 102.715 581.122 L96.2539 581.122 Q97.8135 578.258 98.5774 575.202 Q99.3413 572.147 99.3413 568.741 Q99.3413 563.235 96.4449 560.02 Q93.5485 556.805 88.5833 556.805 Q83.618 556.805 80.7216 560.02 Q77.8252 563.235 77.8252 568.741 Q77.8252 571.319 78.3981 573.897 Q78.971 576.444 80.1805 579.117 L56.3091 579.117 Z" fill="#000000" fill-rule="nonzero" fill-opacity="1" /><circle clip-path="url(#clip142)" cx="393.642" cy="85.838" r="14.4" fill="#009af9" fill-rule="evenodd" fill-opacity="1" stroke="#000000" stroke-opacity="1" stroke-width="3.2"/>
<circle clip-path="url(#clip142)" cx="679.929" cy="279.47" r="14.4" fill="#009af9" fill-rule="evenodd" fill-opacity="1" stroke="#000000" stroke-opacity="1" stroke-width="3.2"/>
<circle clip-path="url(#clip142)" cx="847.397" cy="392.738" r="14.4" fill="#009af9" fill-rule="evenodd" fill-opacity="1" stroke="#000000" stroke-opacity="1" stroke-width="3.2"/>
<circle clip-path="url(#clip142)" cx="966.217" cy="473.102" r="14.4" fill="#009af9" fill-rule="evenodd" fill-opacity="1" stroke="#000000" stroke-opacity="1" stroke-width="3.2"/>
<circle clip-path="url(#clip142)" cx="1058.38" cy="535.438" r="14.4" fill="#009af9" fill-rule="evenodd" fill-opacity="1" stroke="#000000" stroke-opacity="1" stroke-width="3.2"/>
<circle clip-path="url(#clip142)" cx="1133.68" cy="586.37" r="14.4" fill="#009af9" fill-rule="evenodd" fill-opacity="1" stroke="#000000" stroke-opacity="1" stroke-width="3.2"/>
<circle clip-path="url(#clip142)" cx="1197.35" cy="629.432" r="14.4" fill="#009af9" fill-rule="evenodd" fill-opacity="1" stroke="#000000" stroke-opacity="1" stroke-width="3.2"/>
<circle clip-path="url(#clip142)" cx="1252.5" cy="666.735" r="14.4" fill="#009af9" fill-rule="evenodd" fill-opacity="1" stroke="#000000" stroke-opacity="1" stroke-width="3.2"/>
<circle clip-path="url(#clip142)" cx="1301.15" cy="699.638" r="14.4" fill="#009af9" fill-rule="evenodd" fill-opacity="1" stroke="#000000" stroke-opacity="1" stroke-width="3.2"/>
<circle clip-path="url(#clip142)" cx="1344.67" cy="729.07" r="14.4" fill="#009af9" fill-rule="evenodd" fill-opacity="1" stroke="#000000" stroke-opacity="1" stroke-width="3.2"/>
<circle clip-path="url(#clip142)" cx="1384.03" cy="755.695" r="14.4" fill="#009af9" fill-rule="evenodd" fill-opacity="1" stroke="#000000" stroke-opacity="1" stroke-width="3.2"/>
<circle clip-path="url(#clip142)" cx="1419.97" cy="780.002" r="14.4" fill="#009af9" fill-rule="evenodd" fill-opacity="1" stroke="#000000" stroke-opacity="1" stroke-width="3.2"/>
<circle clip-path="url(#clip142)" cx="1453.03" cy="802.362" r="14.4" fill="#009af9" fill-rule="evenodd" fill-opacity="1" stroke="#000000" stroke-opacity="1" stroke-width="3.2"/>
<circle clip-path="url(#clip142)" cx="1483.64" cy="823.065" r="14.4" fill="#009af9" fill-rule="evenodd" fill-opacity="1" stroke="#000000" stroke-opacity="1" stroke-width="3.2"/>
<circle clip-path="url(#clip142)" cx="1512.14" cy="842.338" r="14.4" fill="#009af9" fill-rule="evenodd" fill-opacity="1" stroke="#000000" stroke-opacity="1" stroke-width="3.2"/>
<circle clip-path="url(#clip142)" cx="1538.79" cy="860.367" r="14.4" fill="#009af9" fill-rule="evenodd" fill-opacity="1" stroke="#000000" stroke-opacity="1" stroke-width="3.2"/>
<circle clip-path="url(#clip142)" cx="1563.83" cy="877.303" r="14.4" fill="#009af9" fill-rule="evenodd" fill-opacity="1" stroke="#000000" stroke-opacity="1" stroke-width="3.2"/>
<circle clip-path="url(#clip142)" cx="1587.44" cy="893.27" r="14.4" fill="#009af9" fill-rule="evenodd" fill-opacity="1" stroke="#000000" stroke-opacity="1" stroke-width="3.2"/>
<circle clip-path="url(#clip142)" cx="1609.77" cy="908.374" r="14.4" fill="#009af9" fill-rule="evenodd" fill-opacity="1" stroke="#000000" stroke-opacity="1" stroke-width="3.2"/>
<circle clip-path="url(#clip142)" cx="1630.96" cy="922.703" r="14.4" fill="#009af9" fill-rule="evenodd" fill-opacity="1" stroke="#000000" stroke-opacity="1" stroke-width="3.2"/>
<circle clip-path="url(#clip142)" cx="1651.11" cy="936.332" r="14.4" fill="#009af9" fill-rule="evenodd" fill-opacity="1" stroke="#000000" stroke-opacity="1" stroke-width="3.2"/>
<circle clip-path="url(#clip142)" cx="1670.32" cy="949.328" r="14.4" fill="#009af9" fill-rule="evenodd" fill-opacity="1" stroke="#000000" stroke-opacity="1" stroke-width="3.2"/>
<circle clip-path="url(#clip142)" cx="1688.68" cy="961.745" r="14.4" fill="#009af9" fill-rule="evenodd" fill-opacity="1" stroke="#000000" stroke-opacity="1" stroke-width="3.2"/>
<circle clip-path="url(#clip142)" cx="1706.26" cy="973.635" r="14.4" fill="#009af9" fill-rule="evenodd" fill-opacity="1" stroke="#000000" stroke-opacity="1" stroke-width="3.2"/>
<circle clip-path="url(#clip142)" cx="1723.12" cy="985.038" r="14.4" fill="#009af9" fill-rule="evenodd" fill-opacity="1" stroke="#000000" stroke-opacity="1" stroke-width="3.2"/>
<circle clip-path="url(#clip142)" cx="1739.32" cy="995.995" r="14.4" fill="#009af9" fill-rule="evenodd" fill-opacity="1" stroke="#000000" stroke-opacity="1" stroke-width="3.2"/>
<circle clip-path="url(#clip142)" cx="1754.91" cy="1006.54" r="14.4" fill="#009af9" fill-rule="evenodd" fill-opacity="1" stroke="#000000" stroke-opacity="1" stroke-width="3.2"/>
<circle clip-path="url(#clip142)" cx="1769.93" cy="1016.7" r="14.4" fill="#009af9" fill-rule="evenodd" fill-opacity="1" stroke="#000000" stroke-opacity="1" stroke-width="3.2"/>
<circle clip-path="url(#clip142)" cx="1784.42" cy="1026.5" r="14.4" fill="#009af9" fill-rule="evenodd" fill-opacity="1" stroke="#000000" stroke-opacity="1" stroke-width="3.2"/>
<circle clip-path="url(#clip142)" cx="1798.42" cy="1035.97" r="14.4" fill="#009af9" fill-rule="evenodd" fill-opacity="1" stroke="#000000" stroke-opacity="1" stroke-width="3.2"/>
<circle clip-path="url(#clip142)" cx="1811.97" cy="1045.13" r="14.4" fill="#009af9" fill-rule="evenodd" fill-opacity="1" stroke="#000000" stroke-opacity="1" stroke-width="3.2"/>
<circle clip-path="url(#clip142)" cx="1825.08" cy="1054" r="14.4" fill="#009af9" fill-rule="evenodd" fill-opacity="1" stroke="#000000" stroke-opacity="1" stroke-width="3.2"/>
<circle clip-path="url(#clip142)" cx="1837.79" cy="1062.6" r="14.4" fill="#009af9" fill-rule="evenodd" fill-opacity="1" stroke="#000000" stroke-opacity="1" stroke-width="3.2"/>
<circle clip-path="url(#clip142)" cx="1850.12" cy="1070.93" r="14.4" fill="#009af9" fill-rule="evenodd" fill-opacity="1" stroke="#000000" stroke-opacity="1" stroke-width="3.2"/>
<circle clip-path="url(#clip142)" cx="1862.09" cy="1079.03" r="14.4" fill="#009af9" fill-rule="evenodd" fill-opacity="1" stroke="#000000" stroke-opacity="1" stroke-width="3.2"/>
<circle clip-path="url(#clip142)" cx="1873.73" cy="1086.9" r="14.4" fill="#009af9" fill-rule="evenodd" fill-opacity="1" stroke="#000000" stroke-opacity="1" stroke-width="3.2"/>
<circle clip-path="url(#clip142)" cx="1885.04" cy="1094.56" r="14.4" fill="#009af9" fill-rule="evenodd" fill-opacity="1" stroke="#000000" stroke-opacity="1" stroke-width="3.2"/>
<circle clip-path="url(#clip142)" cx="1896.06" cy="1102.01" r="14.4" fill="#009af9" fill-rule="evenodd" fill-opacity="1" stroke="#000000" stroke-opacity="1" stroke-width="3.2"/>
<circle clip-path="url(#clip142)" cx="1906.79" cy="1109.26" r="14.4" fill="#009af9" fill-rule="evenodd" fill-opacity="1" stroke="#000000" stroke-opacity="1" stroke-width="3.2"/>
<circle clip-path="url(#clip142)" cx="1917.24" cy="1116.33" r="14.4" fill="#009af9" fill-rule="evenodd" fill-opacity="1" stroke="#000000" stroke-opacity="1" stroke-width="3.2"/>
<circle clip-path="url(#clip142)" cx="1927.44" cy="1123.23" r="14.4" fill="#009af9" fill-rule="evenodd" fill-opacity="1" stroke="#000000" stroke-opacity="1" stroke-width="3.2"/>
<circle clip-path="url(#clip142)" cx="1937.39" cy="1129.96" r="14.4" fill="#009af9" fill-rule="evenodd" fill-opacity="1" stroke="#000000" stroke-opacity="1" stroke-width="3.2"/>
<circle clip-path="url(#clip142)" cx="1947.11" cy="1136.54" r="14.4" fill="#009af9" fill-rule="evenodd" fill-opacity="1" stroke="#000000" stroke-opacity="1" stroke-width="3.2"/>
<circle clip-path="url(#clip142)" cx="1956.61" cy="1142.96" r="14.4" fill="#009af9" fill-rule="evenodd" fill-opacity="1" stroke="#000000" stroke-opacity="1" stroke-width="3.2"/>
<circle clip-path="url(#clip142)" cx="1965.89" cy="1149.24" r="14.4" fill="#009af9" fill-rule="evenodd" fill-opacity="1" stroke="#000000" stroke-opacity="1" stroke-width="3.2"/>
<circle clip-path="url(#clip142)" cx="1974.97" cy="1155.38" r="14.4" fill="#009af9" fill-rule="evenodd" fill-opacity="1" stroke="#000000" stroke-opacity="1" stroke-width="3.2"/>
<circle clip-path="url(#clip142)" cx="1983.85" cy="1161.39" r="14.4" fill="#009af9" fill-rule="evenodd" fill-opacity="1" stroke="#000000" stroke-opacity="1" stroke-width="3.2"/>
<circle clip-path="url(#clip142)" cx="1992.55" cy="1167.27" r="14.4" fill="#009af9" fill-rule="evenodd" fill-opacity="1" stroke="#000000" stroke-opacity="1" stroke-width="3.2"/>
<circle clip-path="url(#clip142)" cx="2001.06" cy="1173.03" r="14.4" fill="#009af9" fill-rule="evenodd" fill-opacity="1" stroke="#000000" stroke-opacity="1" stroke-width="3.2"/>
<circle clip-path="url(#clip142)" cx="2009.41" cy="1178.67" r="14.4" fill="#009af9" fill-rule="evenodd" fill-opacity="1" stroke="#000000" stroke-opacity="1" stroke-width="3.2"/>
<polyline clip-path="url(#clip142)" style="stroke:#e26f46; stroke-linecap:round; stroke-linejoin:round; stroke-width:4; stroke-opacity:1; fill:none" points="393.642,85.838 401.878,91.4088 409.954,96.8707 417.874,102.228 425.646,107.484 433.274,112.643 440.763,117.709 448.12,122.685 455.347,127.573 462.45,132.377 469.434,137.1 476.301,141.745 483.055,146.314 489.701,150.809 496.242,155.232 502.681,159.587 509.021,163.876 515.265,168.099 521.416,172.259 527.477,176.358 533.45,180.398 545.144,188.307 556.515,195.998 567.582,203.483 578.36,210.773 583.645,214.348 588.863,217.877 594.017,221.363 599.107,224.805 610.638,232.605 621.856,240.192 632.777,247.579 643.417,254.775 653.79,261.791 663.908,268.634 673.785,275.314 683.431,281.839 692.857,288.214 702.072,294.447 711.086,300.544 719.908,306.51 737.006,318.074 753.424,329.179 769.214,339.858 784.423,350.145 799.091,360.066 813.256,369.647 826.952,378.91 840.208,387.876 853.052,396.563 865.508,404.988 889.347,421.112 911.886,436.355 933.257,450.81 953.577,464.554 972.944,477.653 991.444,490.165 1009.15,502.141 1026.13,513.624 1058.12,535.265 1087.82,555.349 1115.52,574.085 1141.48,591.644 1188.97,623.761 1231.55,652.563 1277.53,683.66 1318.89,711.639 1356.49,737.069 1390.95,760.376 1443.39,795.839 1489.91,827.302 1575.88,885.455 1641.88,930.091 1702.58,971.147 1763.3,1012.21 1810.65,1044.24 1848.14,1069.59 1885.46,1094.84 1919.89,1118.12 1954.88,1141.79 1985.64,1162.59 2015.35,1182.69 2038.81,1198.56 2065.76,1216.78 2088.98,1232.49 2109.34,1246.26 2128.98,1259.54 2149.93,1273.72 2168.05,1285.97 2187.85,1299.36 2205.38,1311.22 2221.97,1322.44 2237.45,1332.91 2252.75,1343.26 2268.88,1354.17 2291.25,1369.3 2295.69,1372.3 "/>
</svg>