<?xml version="1.0" encoding="utf-8"?>
<svg xmlns="http://www.w3.org/2000/svg" xmlns:xlink="http://www.w3.org/1999/xlink" width="600" height="400" viewBox="0 0 2400 1600">
<defs>
  <clipPath id="clip650">
    <rect x="0" y="0" width="2400" height="1600"/>
  </clipPath>
</defs>
<path clip-path="url(#clip650)" d="M0 1600 L2400 1600 L2400 0 L0 0  Z" fill="#ffffff" fill-rule="evenodd" fill-opacity="1"/>
<defs>
  <clipPath id="clip651">
    <rect x="480" y="0" width="1681" height="1600"/>
  </clipPath>
</defs>
<path clip-path="url(#clip650)" d="M257.204 1423.18 L2352.76 1423.18 L2352.76 47.2441 L257.204 47.2441  Z" fill="#ffffff" fill-rule="evenodd" fill-opacity="1"/>
<defs>
  <clipPath id="clip652">
    <rect x="257" y="47" width="2097" height="1377"/>
  </clipPath>
</defs>
<polyline clip-path="url(#clip652)" style="stroke:#000000; stroke-linecap:round; stroke-linejoin:round; stroke-width:2; stroke-opacity:0.1; fill:none" points="514.522,1423.18 514.522,47.2441 "/>
<polyline clip-path="url(#clip652)" style="stroke:#000000; stroke-linecap:round; stroke-linejoin:round; stroke-width:2; stroke-opacity:0.1; fill:none" points="804.175,1423.18 804.175,47.2441 "/>
<polyline clip-path="url(#clip652)" style="stroke:#000000; stroke-linecap:round; stroke-linejoin:round; stroke-width:2; stroke-opacity:0.1; fill:none" points="1093.83,1423.18 1093.83,47.2441 "/>
<polyline clip-path="url(#clip652)" style="stroke:#000000; stroke-linecap:round; stroke-linejoin:round; stroke-width:2; stroke-opacity:0.1; fill:none" points="1383.48,1423.18 1383.48,47.2441 "/>
<polyline clip-path="url(#clip652)" style="stroke:#000000; stroke-linecap:round; stroke-linejoin:round; stroke-width:2; stroke-opacity:0.1; fill:none" points="1673.13,1423.18 1673.13,47.2441 "/>
<polyline clip-path="url(#clip652)" style="stroke:#000000; stroke-linecap:round; stroke-linejoin:round; stroke-width:2; stroke-opacity:0.1; fill:none" points="1962.78,1423.18 1962.78,47.2441 "/>
<polyline clip-path="url(#clip652)" style="stroke:#000000; stroke-linecap:round; stroke-linejoin:round; stroke-width:2; stroke-opacity:0.1; fill:none" points="2252.44,1423.18 2252.44,47.2441 "/>
<polyline clip-path="url(#clip650)" style="stroke:#000000; stroke-linecap:round; stroke-linejoin:round; stroke-width:4; stroke-opacity:1; fill:none" points="257.204,1423.18 2352.76,1423.18 "/>
<polyline clip-path="url(#clip650)" style="stroke:#000000; stroke-linecap:round; stroke-linejoin:round; stroke-width:4; stroke-opacity:1; fill:none" points="514.522,1423.18 514.522,1404.28 "/>
<polyline clip-path="url(#clip650)" style="stroke:#000000; stroke-linecap:round; stroke-linejoin:round; stroke-width:4; stroke-opacity:1; fill:none" points="804.175,1423.18 804.175,1404.28 "/>
<polyline clip-path="url(#clip650)" style="stroke:#000000; stroke-linecap:round; stroke-linejoin:round; stroke-width:4; stroke-opacity:1; fill:none" points="1093.83,1423.18 1093.83,1404.28 "/>
<polyline clip-path="url(#clip650)" style="stroke:#000000; stroke-linecap:round; stroke-linejoin:round; stroke-width:4; stroke-opacity:1; fill:none" points="1383.48,1423.18 1383.48,1404.28 "/>
<polyline clip-path="url(#clip650)" style="stroke:#000000; stroke-linecap:round; stroke-linejoin:round; stroke-width:4; stroke-opacity:1; fill:none" points="1673.13,1423.18 1673.13,1404.28 "/>
<polyline clip-path="url(#clip650)" style="stroke:#000000; stroke-linecap:round; stroke-linejoin:round; stroke-width:4; stroke-opacity:1; fill:none" points="1962.78,1423.18 1962.78,1404.28 "/>
<polyline clip-path="url(#clip650)" style="stroke:#000000; stroke-linecap:round; stroke-linejoin:round; stroke-width:4; stroke-opacity:1; fill:none" points="2252.44,1423.18 2252.44,1404.28 "/>
<path clip-path="url(#clip650)" d="M461.548 1468.75 L491.224 1468.75 L491.224 1472.69 L461.548 1472.69 L461.548 1468.75 Z" fill="#000000" fill-rule="nonzero" fill-opacity="1" /><path clip-path="url(#clip650)" d="M502.127 1481.64 L509.766 1481.64 L509.766 1455.28 L501.455 1456.95 L501.455 1452.69 L509.719 1451.02 L514.395 1451.02 L514.395 1481.64 L522.034 1481.64 L522.034 1485.58 L502.127 1485.58 L502.127 1481.64 Z" fill="#000000" fill-rule="nonzero" fill-opacity="1" /><path clip-path="url(#clip650)" d="M531.478 1479.7 L536.363 1479.7 L536.363 1485.58 L531.478 1485.58 L531.478 1479.7 Z" fill="#000000" fill-rule="nonzero" fill-opacity="1" /><path clip-path="url(#clip650)" d="M546.594 1451.02 L564.95 1451.02 L564.95 1454.96 L550.876 1454.96 L550.876 1463.43 Q551.895 1463.08 552.913 1462.92 Q553.932 1462.73 554.95 1462.73 Q560.738 1462.73 564.117 1465.9 Q567.497 1469.08 567.497 1474.49 Q567.497 1480.07 564.025 1483.17 Q560.552 1486.25 554.233 1486.25 Q552.057 1486.25 549.788 1485.88 Q547.543 1485.51 545.136 1484.77 L545.136 1480.07 Q547.219 1481.2 549.441 1481.76 Q551.663 1482.32 554.14 1482.32 Q558.145 1482.32 560.483 1480.21 Q562.821 1478.1 562.821 1474.49 Q562.821 1470.88 560.483 1468.77 Q558.145 1466.67 554.14 1466.67 Q552.265 1466.67 550.39 1467.08 Q548.538 1467.5 546.594 1468.38 L546.594 1451.02 Z" fill="#000000" fill-rule="nonzero" fill-opacity="1" /><path clip-path="url(#clip650)" d="M750.703 1468.75 L780.378 1468.75 L780.378 1472.69 L750.703 1472.69 L750.703 1468.75 Z" fill="#000000" fill-rule="nonzero" fill-opacity="1" /><path clip-path="url(#clip650)" d="M791.281 1481.64 L798.92 1481.64 L798.92 1455.28 L790.61 1456.95 L790.61 1452.69 L798.874 1451.02 L803.55 1451.02 L803.55 1481.64 L811.188 1481.64 L811.188 1485.58 L791.281 1485.58 L791.281 1481.64 Z" fill="#000000" fill-rule="nonzero" fill-opacity="1" /><path clip-path="url(#clip650)" d="M820.633 1479.7 L825.517 1479.7 L825.517 1485.58 L820.633 1485.58 L820.633 1479.7 Z" fill="#000000" fill-rule="nonzero" fill-opacity="1" /><path clip-path="url(#clip650)" d="M845.702 1454.1 Q842.091 1454.1 840.262 1457.66 Q838.457 1461.2 838.457 1468.33 Q838.457 1475.44 840.262 1479.01 Q842.091 1482.55 845.702 1482.55 Q849.336 1482.55 851.142 1479.01 Q852.971 1475.44 852.971 1468.33 Q852.971 1461.2 851.142 1457.66 Q849.336 1454.1 845.702 1454.1 M845.702 1450.39 Q851.512 1450.39 854.568 1455 Q857.647 1459.58 857.647 1468.33 Q857.647 1477.06 854.568 1481.67 Q851.512 1486.25 845.702 1486.25 Q839.892 1486.25 836.813 1481.67 Q833.758 1477.06 833.758 1468.33 Q833.758 1459.58 836.813 1455 Q839.892 1450.39 845.702 1450.39 Z" fill="#000000" fill-rule="nonzero" fill-opacity="1" /><path clip-path="url(#clip650)" d="M1040.85 1468.75 L1070.53 1468.75 L1070.53 1472.69 L1040.85 1472.69 L1040.85 1468.75 Z" fill="#000000" fill-rule="nonzero" fill-opacity="1" /><path clip-path="url(#clip650)" d="M1090.62 1454.1 Q1087.01 1454.1 1085.18 1457.66 Q1083.38 1461.2 1083.38 1468.33 Q1083.38 1475.44 1085.18 1479.01 Q1087.01 1482.55 1090.62 1482.55 Q1094.25 1482.55 1096.06 1479.01 Q1097.89 1475.44 1097.89 1468.33 Q1097.89 1461.2 1096.06 1457.66 Q1094.25 1454.1 1090.62 1454.1 M1090.62 1450.39 Q1096.43 1450.39 1099.49 1455 Q1102.57 1459.58 1102.57 1468.33 Q1102.57 1477.06 1099.49 1481.67 Q1096.43 1486.25 1090.62 1486.25 Q1084.81 1486.25 1081.73 1481.67 Q1078.68 1477.06 1078.68 1468.33 Q1078.68 1459.58 1081.73 1455 Q1084.81 1450.39 1090.62 1450.39 Z" fill="#000000" fill-rule="nonzero" fill-opacity="1" /><path clip-path="url(#clip650)" d="M1110.78 1479.7 L1115.67 1479.7 L1115.67 1485.58 L1110.78 1485.58 L1110.78 1479.7 Z" fill="#000000" fill-rule="nonzero" fill-opacity="1" /><path clip-path="url(#clip650)" d="M1125.9 1451.02 L1144.25 1451.02 L1144.25 1454.96 L1130.18 1454.96 L1130.18 1463.43 Q1131.2 1463.08 1132.22 1462.92 Q1133.24 1462.73 1134.25 1462.73 Q1140.04 1462.73 1143.42 1465.9 Q1146.8 1469.08 1146.8 1474.49 Q1146.8 1480.07 1143.33 1483.17 Q1139.86 1486.25 1133.54 1486.25 Q1131.36 1486.25 1129.09 1485.88 Q1126.85 1485.51 1124.44 1484.77 L1124.44 1480.07 Q1126.52 1481.2 1128.75 1481.76 Q1130.97 1482.32 1133.44 1482.32 Q1137.45 1482.32 1139.79 1480.21 Q1142.13 1478.1 1142.13 1474.49 Q1142.13 1470.88 1139.79 1468.77 Q1137.45 1466.67 1133.44 1466.67 Q1131.57 1466.67 1129.69 1467.08 Q1127.84 1467.5 1125.9 1468.38 L1125.9 1451.02 Z" fill="#000000" fill-rule="nonzero" fill-opacity="1" /><path clip-path="url(#clip650)" d="M1360.86 1454.1 Q1357.25 1454.1 1355.42 1457.66 Q1353.62 1461.2 1353.62 1468.33 Q1353.62 1475.44 1355.42 1479.01 Q1357.25 1482.55 1360.86 1482.55 Q1364.5 1482.55 1366.3 1479.01 Q1368.13 1475.44 1368.13 1468.33 Q1368.13 1461.2 1366.3 1457.66 Q1364.5 1454.1 1360.86 1454.1 M1360.86 1450.39 Q1366.67 1450.39 1369.73 1455 Q1372.81 1459.58 1372.81 1468.33 Q1372.81 1477.06 1369.73 1481.67 Q1366.67 1486.25 1360.86 1486.25 Q1355.05 1486.25 1351.97 1481.67 Q1348.92 1477.06 1348.92 1468.33 Q1348.92 1459.58 1351.97 1455 Q1355.05 1450.39 1360.86 1450.39 Z" fill="#000000" fill-rule="nonzero" fill-opacity="1" /><path clip-path="url(#clip650)" d="M1381.03 1479.7 L1385.91 1479.7 L1385.91 1485.58 L1381.03 1485.58 L1381.03 1479.7 Z" fill="#000000" fill-rule="nonzero" fill-opacity="1" /><path clip-path="url(#clip650)" d="M1406.09 1454.1 Q1402.48 1454.1 1400.65 1457.66 Q1398.85 1461.2 1398.85 1468.33 Q1398.85 1475.44 1400.65 1479.01 Q1402.48 1482.55 1406.09 1482.55 Q1409.73 1482.55 1411.53 1479.01 Q1413.36 1475.44 1413.36 1468.33 Q1413.36 1461.2 1411.53 1457.66 Q1409.73 1454.1 1406.09 1454.1 M1406.09 1450.39 Q1411.9 1450.39 1414.96 1455 Q1418.04 1459.58 1418.04 1468.33 Q1418.04 1477.06 1414.96 1481.67 Q1411.9 1486.25 1406.09 1486.25 Q1400.28 1486.25 1397.21 1481.67 Q1394.15 1477.06 1394.15 1468.33 Q1394.15 1459.58 1397.21 1455 Q1400.28 1450.39 1406.09 1450.39 Z" fill="#000000" fill-rule="nonzero" fill-opacity="1" /><path clip-path="url(#clip650)" d="M1651.01 1454.1 Q1647.4 1454.1 1645.57 1457.66 Q1643.77 1461.2 1643.77 1468.33 Q1643.77 1475.44 1645.57 1479.01 Q1647.4 1482.55 1651.01 1482.55 Q1654.65 1482.55 1656.45 1479.01 Q1658.28 1475.44 1658.28 1468.33 Q1658.28 1461.2 1656.45 1457.66 Q1654.65 1454.1 1651.01 1454.1 M1651.01 1450.39 Q1656.82 1450.39 1659.88 1455 Q1662.96 1459.58 1662.96 1468.33 Q1662.96 1477.06 1659.88 1481.67 Q1656.82 1486.25 1651.01 1486.25 Q1645.2 1486.25 1642.12 1481.67 Q1639.07 1477.06 1639.07 1468.33 Q1639.07 1459.58 1642.12 1455 Q1645.2 1450.39 1651.01 1450.39 Z" fill="#000000" fill-rule="nonzero" fill-opacity="1" /><path clip-path="url(#clip650)" d="M1671.17 1479.7 L1676.06 1479.7 L1676.06 1485.58 L1671.17 1485.58 L1671.17 1479.7 Z" fill="#000000" fill-rule="nonzero" fill-opacity="1" /><path clip-path="url(#clip650)" d="M1686.29 1451.02 L1704.65 1451.02 L1704.65 1454.96 L1690.57 1454.96 L1690.57 1463.43 Q1691.59 1463.08 1692.61 1462.92 Q1693.63 1462.73 1694.65 1462.73 Q1700.43 1462.73 1703.81 1465.9 Q1707.19 1469.08 1707.19 1474.49 Q1707.19 1480.07 1703.72 1483.17 Q1700.25 1486.25 1693.93 1486.25 Q1691.75 1486.25 1689.49 1485.88 Q1687.24 1485.51 1684.83 1484.77 L1684.83 1480.07 Q1686.92 1481.2 1689.14 1481.76 Q1691.36 1482.32 1693.84 1482.32 Q1697.84 1482.32 1700.18 1480.21 Q1702.52 1478.1 1702.52 1474.49 Q1702.52 1470.88 1700.18 1468.77 Q1697.84 1466.67 1693.84 1466.67 Q1691.96 1466.67 1690.09 1467.08 Q1688.24 1467.5 1686.29 1468.38 L1686.29 1451.02 Z" fill="#000000" fill-rule="nonzero" fill-opacity="1" /><path clip-path="url(#clip650)" d="M1929.94 1481.64 L1937.57 1481.64 L1937.57 1455.28 L1929.26 1456.95 L1929.26 1452.69 L1937.53 1451.02 L1942.2 1451.02 L1942.2 1481.64 L1949.84 1481.64 L1949.84 1485.58 L1929.94 1485.58 L1929.94 1481.64 Z" fill="#000000" fill-rule="nonzero" fill-opacity="1" /><path clip-path="url(#clip650)" d="M1959.29 1479.7 L1964.17 1479.7 L1964.17 1485.58 L1959.29 1485.58 L1959.29 1479.7 Z" fill="#000000" fill-rule="nonzero" fill-opacity="1" /><path clip-path="url(#clip650)" d="M1984.36 1454.1 Q1980.75 1454.1 1978.92 1457.66 Q1977.11 1461.2 1977.11 1468.33 Q1977.11 1475.44 1978.92 1479.01 Q1980.75 1482.55 1984.36 1482.55 Q1987.99 1482.55 1989.8 1479.01 Q1991.63 1475.44 1991.63 1468.33 Q1991.63 1461.2 1989.8 1457.66 Q1987.99 1454.1 1984.36 1454.1 M1984.36 1450.39 Q1990.17 1450.39 1993.22 1455 Q1996.3 1459.58 1996.3 1468.33 Q1996.3 1477.06 1993.22 1481.67 Q1990.17 1486.25 1984.36 1486.25 Q1978.55 1486.25 1975.47 1481.67 Q1972.41 1477.06 1972.41 1468.33 Q1972.41 1459.58 1975.47 1455 Q1978.55 1450.39 1984.36 1450.39 Z" fill="#000000" fill-rule="nonzero" fill-opacity="1" /><path clip-path="url(#clip650)" d="M2220.09 1481.64 L2227.72 1481.64 L2227.72 1455.28 L2219.41 1456.95 L2219.41 1452.69 L2227.68 1451.02 L2232.35 1451.02 L2232.35 1481.64 L2239.99 1481.64 L2239.99 1485.58 L2220.09 1485.58 L2220.09 1481.64 Z" fill="#000000" fill-rule="nonzero" fill-opacity="1" /><path clip-path="url(#clip650)" d="M2249.44 1479.7 L2254.32 1479.7 L2254.32 1485.58 L2249.44 1485.58 L2249.44 1479.7 Z" fill="#000000" fill-rule="nonzero" fill-opacity="1" /><path clip-path="url(#clip650)" d="M2264.55 1451.02 L2282.91 1451.02 L2282.91 1454.96 L2268.84 1454.96 L2268.84 1463.43 Q2269.85 1463.08 2270.87 1462.92 Q2271.89 1462.73 2272.91 1462.73 Q2278.7 1462.73 2282.08 1465.9 Q2285.46 1469.08 2285.46 1474.49 Q2285.46 1480.07 2281.98 1483.17 Q2278.51 1486.25 2272.19 1486.25 Q2270.02 1486.25 2267.75 1485.88 Q2265.5 1485.51 2263.09 1484.77 L2263.09 1480.07 Q2265.18 1481.2 2267.4 1481.76 Q2269.62 1482.32 2272.1 1482.32 Q2276.1 1482.32 2278.44 1480.21 Q2280.78 1478.1 2280.78 1474.49 Q2280.78 1470.88 2278.44 1468.77 Q2276.1 1466.67 2272.1 1466.67 Q2270.22 1466.67 2268.35 1467.08 Q2266.5 1467.5 2264.55 1468.38 L2264.55 1451.02 Z" fill="#000000" fill-rule="nonzero" fill-opacity="1" /><path clip-path="url(#clip650)" d="M1315.1 1545.45 L1294.83 1545.45 Q1295.3 1554.96 1297.5 1559 Q1300.24 1563.97 1304.98 1563.97 Q1309.75 1563.97 1312.4 1558.97 Q1314.72 1554.58 1315.1 1545.45 M1315.01 1540.03 Q1314.11 1531 1312.4 1527.81 Q1309.66 1522.78 1304.98 1522.78 Q1300.11 1522.78 1297.53 1527.75 Q1295.5 1531.76 1294.89 1540.03 L1315.01 1540.03 M1304.98 1518.01 Q1312.62 1518.01 1316.98 1524.76 Q1321.34 1531.47 1321.34 1543.38 Q1321.34 1555.25 1316.98 1562 Q1312.62 1568.78 1304.98 1568.78 Q1297.31 1568.78 1292.98 1562 Q1288.62 1555.25 1288.62 1543.38 Q1288.62 1531.47 1292.98 1524.76 Q1297.31 1518.01 1304.98 1518.01 Z" fill="#000000" fill-rule="nonzero" fill-opacity="1" /><polyline clip-path="url(#clip652)" style="stroke:#000000; stroke-linecap:round; stroke-linejoin:round; stroke-width:2; stroke-opacity:0.1; fill:none" points="257.204,1382.54 2352.76,1382.54 "/>
<polyline clip-path="url(#clip652)" style="stroke:#000000; stroke-linecap:round; stroke-linejoin:round; stroke-width:2; stroke-opacity:0.1; fill:none" points="257.204,1178.96 2352.76,1178.96 "/>
<polyline clip-path="url(#clip652)" style="stroke:#000000; stroke-linecap:round; stroke-linejoin:round; stroke-width:2; stroke-opacity:0.1; fill:none" points="257.204,975.38 2352.76,975.38 "/>
<polyline clip-path="url(#clip652)" style="stroke:#000000; stroke-linecap:round; stroke-linejoin:round; stroke-width:2; stroke-opacity:0.1; fill:none" points="257.204,771.799 2352.76,771.799 "/>
<polyline clip-path="url(#clip652)" style="stroke:#000000; stroke-linecap:round; stroke-linejoin:round; stroke-width:2; stroke-opacity:0.1; fill:none" points="257.204,568.219 2352.76,568.219 "/>
<polyline clip-path="url(#clip652)" style="stroke:#000000; stroke-linecap:round; stroke-linejoin:round; stroke-width:2; stroke-opacity:0.1; fill:none" points="257.204,364.638 2352.76,364.638 "/>
<polyline clip-path="url(#clip652)" style="stroke:#000000; stroke-linecap:round; stroke-linejoin:round; stroke-width:2; stroke-opacity:0.1; fill:none" points="257.204,161.058 2352.76,161.058 "/>
<polyline clip-path="url(#clip650)" style="stroke:#000000; stroke-linecap:round; stroke-linejoin:round; stroke-width:4; stroke-opacity:1; fill:none" points="257.204,1423.18 257.204,47.2441 "/>
<polyline clip-path="url(#clip650)" style="stroke:#000000; stroke-linecap:round; stroke-linejoin:round; stroke-width:4; stroke-opacity:1; fill:none" points="257.204,1382.54 276.102,1382.54 "/>
<polyline clip-path="url(#clip650)" style="stroke:#000000; stroke-linecap:round; stroke-linejoin:round; stroke-width:4; stroke-opacity:1; fill:none" points="257.204,1178.96 276.102,1178.96 "/>
<polyline clip-path="url(#clip650)" style="stroke:#000000; stroke-linecap:round; stroke-linejoin:round; stroke-width:4; stroke-opacity:1; fill:none" points="257.204,975.38 276.102,975.38 "/>
<polyline clip-path="url(#clip650)" style="stroke:#000000; stroke-linecap:round; stroke-linejoin:round; stroke-width:4; stroke-opacity:1; fill:none" points="257.204,771.799 276.102,771.799 "/>
<polyline clip-path="url(#clip650)" style="stroke:#000000; stroke-linecap:round; stroke-linejoin:round; stroke-width:4; stroke-opacity:1; fill:none" points="257.204,568.219 276.102,568.219 "/>
<polyline clip-path="url(#clip650)" style="stroke:#000000; stroke-linecap:round; stroke-linejoin:round; stroke-width:4; stroke-opacity:1; fill:none" points="257.204,364.638 276.102,364.638 "/>
<polyline clip-path="url(#clip650)" style="stroke:#000000; stroke-linecap:round; stroke-linejoin:round; stroke-width:4; stroke-opacity:1; fill:none" points="257.204,161.058 276.102,161.058 "/>
<path clip-path="url(#clip650)" d="M115.256 1382.99 L144.931 1382.99 L144.931 1386.93 L115.256 1386.93 L115.256 1382.99 Z" fill="#000000" fill-rule="nonzero" fill-opacity="1" /><path clip-path="url(#clip650)" d="M155.834 1395.89 L163.473 1395.89 L163.473 1369.52 L155.163 1371.19 L155.163 1366.93 L163.427 1365.26 L168.102 1365.26 L168.102 1395.89 L175.741 1395.89 L175.741 1399.82 L155.834 1399.82 L155.834 1395.89 Z" fill="#000000" fill-rule="nonzero" fill-opacity="1" /><path clip-path="url(#clip650)" d="M185.186 1393.94 L190.07 1393.94 L190.07 1399.82 L185.186 1399.82 L185.186 1393.94 Z" fill="#000000" fill-rule="nonzero" fill-opacity="1" /><path clip-path="url(#clip650)" d="M200.301 1365.26 L218.658 1365.26 L218.658 1369.2 L204.584 1369.2 L204.584 1377.67 Q205.602 1377.32 206.621 1377.16 Q207.639 1376.97 208.658 1376.97 Q214.445 1376.97 217.824 1380.14 Q221.204 1383.32 221.204 1388.73 Q221.204 1394.31 217.732 1397.41 Q214.26 1400.49 207.94 1400.49 Q205.764 1400.49 203.496 1400.12 Q201.25 1399.75 198.843 1399.01 L198.843 1394.31 Q200.926 1395.45 203.149 1396 Q205.371 1396.56 207.848 1396.56 Q211.852 1396.56 214.19 1394.45 Q216.528 1392.34 216.528 1388.73 Q216.528 1385.12 214.19 1383.01 Q211.852 1380.91 207.848 1380.91 Q205.973 1380.91 204.098 1381.33 Q202.246 1381.74 200.301 1382.62 L200.301 1365.26 Z" fill="#000000" fill-rule="nonzero" fill-opacity="1" /><path clip-path="url(#clip650)" d="M114.26 1179.41 L143.936 1179.41 L143.936 1183.35 L114.26 1183.35 L114.26 1179.41 Z" fill="#000000" fill-rule="nonzero" fill-opacity="1" /><path clip-path="url(#clip650)" d="M154.839 1192.3 L162.477 1192.3 L162.477 1165.94 L154.167 1167.61 L154.167 1163.35 L162.431 1161.68 L167.107 1161.68 L167.107 1192.3 L174.746 1192.3 L174.746 1196.24 L154.839 1196.24 L154.839 1192.3 Z" fill="#000000" fill-rule="nonzero" fill-opacity="1" /><path clip-path="url(#clip650)" d="M184.19 1190.36 L189.075 1190.36 L189.075 1196.24 L184.19 1196.24 L184.19 1190.36 Z" fill="#000000" fill-rule="nonzero" fill-opacity="1" /><path clip-path="url(#clip650)" d="M209.26 1164.76 Q205.649 1164.76 203.82 1168.32 Q202.014 1171.87 202.014 1178.99 Q202.014 1186.1 203.82 1189.67 Q205.649 1193.21 209.26 1193.21 Q212.894 1193.21 214.699 1189.67 Q216.528 1186.1 216.528 1178.99 Q216.528 1171.87 214.699 1168.32 Q212.894 1164.76 209.26 1164.76 M209.26 1161.05 Q215.07 1161.05 218.125 1165.66 Q221.204 1170.24 221.204 1178.99 Q221.204 1187.72 218.125 1192.33 Q215.07 1196.91 209.26 1196.91 Q203.449 1196.91 200.371 1192.33 Q197.315 1187.72 197.315 1178.99 Q197.315 1170.24 200.371 1165.66 Q203.449 1161.05 209.26 1161.05 Z" fill="#000000" fill-rule="nonzero" fill-opacity="1" /><path clip-path="url(#clip650)" d="M115.256 975.831 L144.931 975.831 L144.931 979.766 L115.256 979.766 L115.256 975.831 Z" fill="#000000" fill-rule="nonzero" fill-opacity="1" /><path clip-path="url(#clip650)" d="M165.024 961.178 Q161.413 961.178 159.584 964.743 Q157.778 968.285 157.778 975.414 Q157.778 982.521 159.584 986.085 Q161.413 989.627 165.024 989.627 Q168.658 989.627 170.464 986.085 Q172.292 982.521 172.292 975.414 Q172.292 968.285 170.464 964.743 Q168.658 961.178 165.024 961.178 M165.024 957.475 Q170.834 957.475 173.889 962.081 Q176.968 966.664 176.968 975.414 Q176.968 984.141 173.889 988.747 Q170.834 993.331 165.024 993.331 Q159.214 993.331 156.135 988.747 Q153.079 984.141 153.079 975.414 Q153.079 966.664 156.135 962.081 Q159.214 957.475 165.024 957.475 Z" fill="#000000" fill-rule="nonzero" fill-opacity="1" /><path clip-path="url(#clip650)" d="M185.186 986.78 L190.07 986.78 L190.07 992.66 L185.186 992.66 L185.186 986.78 Z" fill="#000000" fill-rule="nonzero" fill-opacity="1" /><path clip-path="url(#clip650)" d="M200.301 958.1 L218.658 958.1 L218.658 962.035 L204.584 962.035 L204.584 970.507 Q205.602 970.16 206.621 969.998 Q207.639 969.812 208.658 969.812 Q214.445 969.812 217.824 972.984 Q221.204 976.155 221.204 981.572 Q221.204 987.15 217.732 990.252 Q214.26 993.331 207.94 993.331 Q205.764 993.331 203.496 992.96 Q201.25 992.59 198.843 991.849 L198.843 987.15 Q200.926 988.285 203.149 988.84 Q205.371 989.396 207.848 989.396 Q211.852 989.396 214.19 987.289 Q216.528 985.183 216.528 981.572 Q216.528 977.961 214.19 975.854 Q211.852 973.748 207.848 973.748 Q205.973 973.748 204.098 974.164 Q202.246 974.581 200.301 975.461 L200.301 958.1 Z" fill="#000000" fill-rule="nonzero" fill-opacity="1" /><path clip-path="url(#clip650)" d="M164.028 757.598 Q160.417 757.598 158.589 761.163 Q156.783 764.704 156.783 771.834 Q156.783 778.94 158.589 782.505 Q160.417 786.047 164.028 786.047 Q167.663 786.047 169.468 782.505 Q171.297 778.94 171.297 771.834 Q171.297 764.704 169.468 761.163 Q167.663 757.598 164.028 757.598 M164.028 753.894 Q169.839 753.894 172.894 758.501 Q175.973 763.084 175.973 771.834 Q175.973 780.561 172.894 785.167 Q169.839 789.75 164.028 789.75 Q158.218 789.75 155.14 785.167 Q152.084 780.561 152.084 771.834 Q152.084 763.084 155.14 758.501 Q158.218 753.894 164.028 753.894 Z" fill="#000000" fill-rule="nonzero" fill-opacity="1" /><path clip-path="url(#clip650)" d="M184.19 783.2 L189.075 783.2 L189.075 789.079 L184.19 789.079 L184.19 783.2 Z" fill="#000000" fill-rule="nonzero" fill-opacity="1" /><path clip-path="url(#clip650)" d="M209.26 757.598 Q205.649 757.598 203.82 761.163 Q202.014 764.704 202.014 771.834 Q202.014 778.94 203.82 782.505 Q205.649 786.047 209.26 786.047 Q212.894 786.047 214.699 782.505 Q216.528 778.94 216.528 771.834 Q216.528 764.704 214.699 761.163 Q212.894 757.598 209.26 757.598 M209.26 753.894 Q215.07 753.894 218.125 758.501 Q221.204 763.084 221.204 771.834 Q221.204 780.561 218.125 785.167 Q215.07 789.75 209.26 789.75 Q203.449 789.75 200.371 785.167 Q197.315 780.561 197.315 771.834 Q197.315 763.084 200.371 758.501 Q203.449 753.894 209.26 753.894 Z" fill="#000000" fill-rule="nonzero" fill-opacity="1" /><path clip-path="url(#clip650)" d="M165.024 554.017 Q161.413 554.017 159.584 557.582 Q157.778 561.124 157.778 568.253 Q157.778 575.36 159.584 578.925 Q161.413 582.466 165.024 582.466 Q168.658 582.466 170.464 578.925 Q172.292 575.36 172.292 568.253 Q172.292 561.124 170.464 557.582 Q168.658 554.017 165.024 554.017 M165.024 550.314 Q170.834 550.314 173.889 554.92 Q176.968 559.503 176.968 568.253 Q176.968 576.98 173.889 581.587 Q170.834 586.17 165.024 586.17 Q159.214 586.17 156.135 581.587 Q153.079 576.98 153.079 568.253 Q153.079 559.503 156.135 554.92 Q159.214 550.314 165.024 550.314 Z" fill="#000000" fill-rule="nonzero" fill-opacity="1" /><path clip-path="url(#clip650)" d="M185.186 579.619 L190.07 579.619 L190.07 585.499 L185.186 585.499 L185.186 579.619 Z" fill="#000000" fill-rule="nonzero" fill-opacity="1" /><path clip-path="url(#clip650)" d="M200.301 550.939 L218.658 550.939 L218.658 554.874 L204.584 554.874 L204.584 563.346 Q205.602 562.999 206.621 562.837 Q207.639 562.652 208.658 562.652 Q214.445 562.652 217.824 565.823 Q221.204 568.994 221.204 574.411 Q221.204 579.989 217.732 583.091 Q214.26 586.17 207.94 586.17 Q205.764 586.17 203.496 585.8 Q201.25 585.429 198.843 584.689 L198.843 579.989 Q200.926 581.124 203.149 581.679 Q205.371 582.235 207.848 582.235 Q211.852 582.235 214.19 580.128 Q216.528 578.022 216.528 574.411 Q216.528 570.8 214.19 568.693 Q211.852 566.587 207.848 566.587 Q205.973 566.587 204.098 567.003 Q202.246 567.42 200.301 568.3 L200.301 550.939 Z" fill="#000000" fill-rule="nonzero" fill-opacity="1" /><path clip-path="url(#clip650)" d="M154.839 377.983 L162.477 377.983 L162.477 351.618 L154.167 353.284 L154.167 349.025 L162.431 347.358 L167.107 347.358 L167.107 377.983 L174.746 377.983 L174.746 381.918 L154.839 381.918 L154.839 377.983 Z" fill="#000000" fill-rule="nonzero" fill-opacity="1" /><path clip-path="url(#clip650)" d="M184.19 376.039 L189.075 376.039 L189.075 381.918 L184.19 381.918 L184.19 376.039 Z" fill="#000000" fill-rule="nonzero" fill-opacity="1" /><path clip-path="url(#clip650)" d="M209.26 350.437 Q205.649 350.437 203.82 354.002 Q202.014 357.543 202.014 364.673 Q202.014 371.779 203.82 375.344 Q205.649 378.886 209.26 378.886 Q212.894 378.886 214.699 375.344 Q216.528 371.779 216.528 364.673 Q216.528 357.543 214.699 354.002 Q212.894 350.437 209.26 350.437 M209.26 346.733 Q215.07 346.733 218.125 351.34 Q221.204 355.923 221.204 364.673 Q221.204 373.4 218.125 378.006 Q215.07 382.59 209.26 382.59 Q203.449 382.59 200.371 378.006 Q197.315 373.4 197.315 364.673 Q197.315 355.923 200.371 351.34 Q203.449 346.733 209.26 346.733 Z" fill="#000000" fill-rule="nonzero" fill-opacity="1" /><path clip-path="url(#clip650)" d="M155.834 174.403 L163.473 174.403 L163.473 148.037 L155.163 149.704 L155.163 145.445 L163.427 143.778 L168.102 143.778 L168.102 174.403 L175.741 174.403 L175.741 178.338 L155.834 178.338 L155.834 174.403 Z" fill="#000000" fill-rule="nonzero" fill-opacity="1" /><path clip-path="url(#clip650)" d="M185.186 172.458 L190.07 172.458 L190.07 178.338 L185.186 178.338 L185.186 172.458 Z" fill="#000000" fill-rule="nonzero" fill-opacity="1" /><path clip-path="url(#clip650)" d="M200.301 143.778 L218.658 143.778 L218.658 147.713 L204.584 147.713 L204.584 156.185 Q205.602 155.838 206.621 155.676 Q207.639 155.491 208.658 155.491 Q214.445 155.491 217.824 158.662 Q221.204 161.833 221.204 167.25 Q221.204 172.829 217.732 175.931 Q214.26 179.009 207.94 179.009 Q205.764 179.009 203.496 178.639 Q201.25 178.268 198.843 177.528 L198.843 172.829 Q200.926 173.963 203.149 174.519 Q205.371 175.074 207.848 175.074 Q211.852 175.074 214.19 172.968 Q216.528 170.861 216.528 167.25 Q216.528 163.639 214.19 161.532 Q211.852 159.426 207.848 159.426 Q205.973 159.426 204.098 159.843 Q202.246 160.259 200.301 161.139 L200.301 143.778 Z" fill="#000000" fill-rule="nonzero" fill-opacity="1" /><path clip-path="url(#clip650)" d="M28.3562 752.559 L28.3562 746.352 L58.275 735.212 L28.3562 724.072 L28.3562 717.865 L64.0042 731.233 L64.0042 739.191 L28.3562 752.559 Z" fill="#000000" fill-rule="nonzero" fill-opacity="1" /><circle clip-path="url(#clip652)" cx="2293.45" cy="771.799" r="14.4" fill="#009af9" fill-rule="evenodd" fill-opacity="1" stroke="#000000" stroke-opacity="1" stroke-width="3.2"/>
<circle clip-path="url(#clip652)" cx="2293.45" cy="812.515" r="14.4" fill="#009af9" fill-rule="evenodd" fill-opacity="1" stroke="#000000" stroke-opacity="1" stroke-width="3.2"/>
<circle clip-path="url(#clip652)" cx="2287.65" cy="853.231" r="14.4" fill="#009af9" fill-rule="evenodd" fill-opacity="1" stroke="#000000" stroke-opacity="1" stroke-width="3.2"/>
<circle clip-path="url(#clip652)" cx="2276.07" cy="893.945" r="14.4" fill="#009af9" fill-rule="evenodd" fill-opacity="1" stroke="#000000" stroke-opacity="1" stroke-width="3.2"/>
<circle clip-path="url(#clip652)" cx="2258.69" cy="934.643" r="14.4" fill="#009af9" fill-rule="evenodd" fill-opacity="1" stroke="#000000" stroke-opacity="1" stroke-width="3.2"/>
<circle clip-path="url(#clip652)" cx="2235.52" cy="975.286" r="14.4" fill="#009af9" fill-rule="evenodd" fill-opacity="1" stroke="#000000" stroke-opacity="1" stroke-width="3.2"/>
<circle clip-path="url(#clip652)" cx="2206.57" cy="1015.8" r="14.4" fill="#009af9" fill-rule="evenodd" fill-opacity="1" stroke="#000000" stroke-opacity="1" stroke-width="3.2"/>
<circle clip-path="url(#clip652)" cx="2171.85" cy="1056.06" r="14.4" fill="#009af9" fill-rule="evenodd" fill-opacity="1" stroke="#000000" stroke-opacity="1" stroke-width="3.2"/>
<circle clip-path="url(#clip652)" cx="2131.41" cy="1095.88" r="14.4" fill="#009af9" fill-rule="evenodd" fill-opacity="1" stroke="#000000" stroke-opacity="1" stroke-width="3.2"/>
<circle clip-path="url(#clip652)" cx="2085.3" cy="1135.01" r="14.4" fill="#009af9" fill-rule="evenodd" fill-opacity="1" stroke="#000000" stroke-opacity="1" stroke-width="3.2"/>
<circle clip-path="url(#clip652)" cx="2033.62" cy="1173.13" r="14.4" fill="#009af9" fill-rule="evenodd" fill-opacity="1" stroke="#000000" stroke-opacity="1" stroke-width="3.2"/>
<circle clip-path="url(#clip652)" cx="1976.52" cy="1209.82" r="14.4" fill="#009af9" fill-rule="evenodd" fill-opacity="1" stroke="#000000" stroke-opacity="1" stroke-width="3.2"/>
<circle clip-path="url(#clip652)" cx="1914.2" cy="1244.59" r="14.4" fill="#009af9" fill-rule="evenodd" fill-opacity="1" stroke="#000000" stroke-opacity="1" stroke-width="3.2"/>
<circle clip-path="url(#clip652)" cx="1846.93" cy="1276.89" r="14.4" fill="#009af9" fill-rule="evenodd" fill-opacity="1" stroke="#000000" stroke-opacity="1" stroke-width="3.2"/>
<circle clip-path="url(#clip652)" cx="1775.07" cy="1306.1" r="14.4" fill="#009af9" fill-rule="evenodd" fill-opacity="1" stroke="#000000" stroke-opacity="1" stroke-width="3.2"/>
<circle clip-path="url(#clip652)" cx="1699.05" cy="1331.57" r="14.4" fill="#009af9" fill-rule="evenodd" fill-opacity="1" stroke="#000000" stroke-opacity="1" stroke-width="3.2"/>
<circle clip-path="url(#clip652)" cx="1619.4" cy="1352.67" r="14.4" fill="#009af9" fill-rule="evenodd" fill-opacity="1" stroke="#000000" stroke-opacity="1" stroke-width="3.2"/>
<circle clip-path="url(#clip652)" cx="1536.76" cy="1368.8" r="14.4" fill="#009af9" fill-rule="evenodd" fill-opacity="1" stroke="#000000" stroke-opacity="1" stroke-width="3.2"/>
<circle clip-path="url(#clip652)" cx="1451.82" cy="1379.45" r="14.4" fill="#009af9" fill-rule="evenodd" fill-opacity="1" stroke="#000000" stroke-opacity="1" stroke-width="3.2"/>
<circle clip-path="url(#clip652)" cx="1365.36" cy="1384.24" r="14.4" fill="#009af9" fill-rule="evenodd" fill-opacity="1" stroke="#000000" stroke-opacity="1" stroke-width="3.2"/>
<circle clip-path="url(#clip652)" cx="1278.22" cy="1382.97" r="14.4" fill="#009af9" fill-rule="evenodd" fill-opacity="1" stroke="#000000" stroke-opacity="1" stroke-width="3.2"/>
<circle clip-path="url(#clip652)" cx="1191.27" cy="1375.61" r="14.4" fill="#009af9" fill-rule="evenodd" fill-opacity="1" stroke="#000000" stroke-opacity="1" stroke-width="3.2"/>
<circle clip-path="url(#clip652)" cx="1105.36" cy="1362.35" r="14.4" fill="#009af9" fill-rule="evenodd" fill-opacity="1" stroke="#000000" stroke-opacity="1" stroke-width="3.2"/>
<circle clip-path="url(#clip652)" cx="1021.34" cy="1343.54" r="14.4" fill="#009af9" fill-rule="evenodd" fill-opacity="1" stroke="#000000" stroke-opacity="1" stroke-width="3.2"/>
<circle clip-path="url(#clip652)" cx="939.99" cy="1319.71" r="14.4" fill="#009af9" fill-rule="evenodd" fill-opacity="1" stroke="#000000" stroke-opacity="1" stroke-width="3.2"/>
<circle clip-path="url(#clip652)" cx="862.033" cy="1291.5" r="14.4" fill="#009af9" fill-rule="evenodd" fill-opacity="1" stroke="#000000" stroke-opacity="1" stroke-width="3.2"/>
<circle clip-path="url(#clip652)" cx="788.091" cy="1259.6" r="14.4" fill="#009af9" fill-rule="evenodd" fill-opacity="1" stroke="#000000" stroke-opacity="1" stroke-width="3.2"/>
<circle clip-path="url(#clip652)" cx="718.687" cy="1224.74" r="14.4" fill="#009af9" fill-rule="evenodd" fill-opacity="1" stroke="#000000" stroke-opacity="1" stroke-width="3.2"/>
<circle clip-path="url(#clip652)" cx="654.242" cy="1187.62" r="14.4" fill="#009af9" fill-rule="evenodd" fill-opacity="1" stroke="#000000" stroke-opacity="1" stroke-width="3.2"/>
<circle clip-path="url(#clip652)" cx="595.08" cy="1148.87" r="14.4" fill="#009af9" fill-rule="evenodd" fill-opacity="1" stroke="#000000" stroke-opacity="1" stroke-width="3.2"/>
<circle clip-path="url(#clip652)" cx="541.431" cy="1109.05" r="14.4" fill="#009af9" fill-rule="evenodd" fill-opacity="1" stroke="#000000" stroke-opacity="1" stroke-width="3.2"/>
<circle clip-path="url(#clip652)" cx="493.448" cy="1068.61" r="14.4" fill="#009af9" fill-rule="evenodd" fill-opacity="1" stroke="#000000" stroke-opacity="1" stroke-width="3.2"/>
<circle clip-path="url(#clip652)" cx="451.218" cy="1027.92" r="14.4" fill="#009af9" fill-rule="evenodd" fill-opacity="1" stroke="#000000" stroke-opacity="1" stroke-width="3.2"/>
<circle clip-path="url(#clip652)" cx="414.778" cy="987.231" r="14.4" fill="#009af9" fill-rule="evenodd" fill-opacity="1" stroke="#000000" stroke-opacity="1" stroke-width="3.2"/>
<circle clip-path="url(#clip652)" cx="384.126" cy="946.724" r="14.4" fill="#009af9" fill-rule="evenodd" fill-opacity="1" stroke="#000000" stroke-opacity="1" stroke-width="3.2"/>
<circle clip-path="url(#clip652)" cx="359.238" cy="906.492" r="14.4" fill="#009af9" fill-rule="evenodd" fill-opacity="1" stroke="#000000" stroke-opacity="1" stroke-width="3.2"/>
<circle clip-path="url(#clip652)" cx="340.074" cy="866.566" r="14.4" fill="#009af9" fill-rule="evenodd" fill-opacity="1" stroke="#000000" stroke-opacity="1" stroke-width="3.2"/>
<circle clip-path="url(#clip652)" cx="326.591" cy="826.925" r="14.4" fill="#009af9" fill-rule="evenodd" fill-opacity="1" stroke="#000000" stroke-opacity="1" stroke-width="3.2"/>
<circle clip-path="url(#clip652)" cx="318.748" cy="787.511" r="14.4" fill="#009af9" fill-rule="evenodd" fill-opacity="1" stroke="#000000" stroke-opacity="1" stroke-width="3.2"/>
<circle clip-path="url(#clip652)" cx="316.512" cy="748.239" r="14.4" fill="#009af9" fill-rule="evenodd" fill-opacity="1" stroke="#000000" stroke-opacity="1" stroke-width="3.2"/>
<circle clip-path="url(#clip652)" cx="319.864" cy="709.009" r="14.4" fill="#009af9" fill-rule="evenodd" fill-opacity="1" stroke="#000000" stroke-opacity="1" stroke-width="3.2"/>
<circle clip-path="url(#clip652)" cx="328.798" cy="669.717" r="14.4" fill="#009af9" fill-rule="evenodd" fill-opacity="1" stroke="#000000" stroke-opacity="1" stroke-width="3.2"/>
<circle clip-path="url(#clip652)" cx="343.322" cy="630.265" r="14.4" fill="#009af9" fill-rule="evenodd" fill-opacity="1" stroke="#000000" stroke-opacity="1" stroke-width="3.2"/>
<circle clip-path="url(#clip652)" cx="363.459" cy="590.572" r="14.4" fill="#009af9" fill-rule="evenodd" fill-opacity="1" stroke="#000000" stroke-opacity="1" stroke-width="3.2"/>
<circle clip-path="url(#clip652)" cx="389.244" cy="550.589" r="14.4" fill="#009af9" fill-rule="evenodd" fill-opacity="1" stroke="#000000" stroke-opacity="1" stroke-width="3.2"/>
<circle clip-path="url(#clip652)" cx="420.718" cy="510.303" r="14.4" fill="#009af9" fill-rule="evenodd" fill-opacity="1" stroke="#000000" stroke-opacity="1" stroke-width="3.2"/>
<circle clip-path="url(#clip652)" cx="457.923" cy="469.756" r="14.4" fill="#009af9" fill-rule="evenodd" fill-opacity="1" stroke="#000000" stroke-opacity="1" stroke-width="3.2"/>
<circle clip-path="url(#clip652)" cx="500.898" cy="429.054" r="14.4" fill="#009af9" fill-rule="evenodd" fill-opacity="1" stroke="#000000" stroke-opacity="1" stroke-width="3.2"/>
<circle clip-path="url(#clip652)" cx="549.663" cy="388.384" r="14.4" fill="#009af9" fill-rule="evenodd" fill-opacity="1" stroke="#000000" stroke-opacity="1" stroke-width="3.2"/>
<circle clip-path="url(#clip652)" cx="604.215" cy="348.019" r="14.4" fill="#009af9" fill-rule="evenodd" fill-opacity="1" stroke="#000000" stroke-opacity="1" stroke-width="3.2"/>
<circle clip-path="url(#clip652)" cx="664.51" cy="308.335" r="14.4" fill="#009af9" fill-rule="evenodd" fill-opacity="1" stroke="#000000" stroke-opacity="1" stroke-width="3.2"/>
<circle clip-path="url(#clip652)" cx="730.451" cy="269.812" r="14.4" fill="#009af9" fill-rule="evenodd" fill-opacity="1" stroke="#000000" stroke-opacity="1" stroke-width="3.2"/>
<circle clip-path="url(#clip652)" cx="801.873" cy="233.035" r="14.4" fill="#009af9" fill-rule="evenodd" fill-opacity="1" stroke="#000000" stroke-opacity="1" stroke-width="3.2"/>
<circle clip-path="url(#clip652)" cx="878.528" cy="198.687" r="14.4" fill="#009af9" fill-rule="evenodd" fill-opacity="1" stroke="#000000" stroke-opacity="1" stroke-width="3.2"/>
<circle clip-path="url(#clip652)" cx="960.07" cy="167.523" r="14.4" fill="#009af9" fill-rule="evenodd" fill-opacity="1" stroke="#000000" stroke-opacity="1" stroke-width="3.2"/>
<circle clip-path="url(#clip652)" cx="1046.05" cy="140.344" r="14.4" fill="#009af9" fill-rule="evenodd" fill-opacity="1" stroke="#000000" stroke-opacity="1" stroke-width="3.2"/>
<circle clip-path="url(#clip652)" cx="1135.89" cy="117.946" r="14.4" fill="#009af9" fill-rule="evenodd" fill-opacity="1" stroke="#000000" stroke-opacity="1" stroke-width="3.2"/>
<circle clip-path="url(#clip652)" cx="1228.92" cy="101.069" r="14.4" fill="#009af9" fill-rule="evenodd" fill-opacity="1" stroke="#000000" stroke-opacity="1" stroke-width="3.2"/>
<circle clip-path="url(#clip652)" cx="1324.35" cy="90.3344" r="14.4" fill="#009af9" fill-rule="evenodd" fill-opacity="1" stroke="#000000" stroke-opacity="1" stroke-width="3.2"/>
<circle clip-path="url(#clip652)" cx="1421.31" cy="86.1857" r="14.4" fill="#009af9" fill-rule="evenodd" fill-opacity="1" stroke="#000000" stroke-opacity="1" stroke-width="3.2"/>
<circle clip-path="url(#clip652)" cx="1518.86" cy="88.8425" r="14.4" fill="#009af9" fill-rule="evenodd" fill-opacity="1" stroke="#000000" stroke-opacity="1" stroke-width="3.2"/>
<circle clip-path="url(#clip652)" cx="1616.03" cy="98.271" r="14.4" fill="#009af9" fill-rule="evenodd" fill-opacity="1" stroke="#000000" stroke-opacity="1" stroke-width="3.2"/>
<circle clip-path="url(#clip652)" cx="1711.85" cy="114.18" r="14.4" fill="#009af9" fill-rule="evenodd" fill-opacity="1" stroke="#000000" stroke-opacity="1" stroke-width="3.2"/>
<path clip-path="url(#clip650)" d="M2020.92 196.789 L2282.9 196.789 L2282.9 93.1086 L2020.92 93.1086  Z" fill="#ffffff" fill-rule="evenodd" fill-opacity="1"/>
<polyline clip-path="url(#clip650)" style="stroke:#000000; stroke-linecap:round; stroke-linejoin:round; stroke-width:4; stroke-opacity:1; fill:none" points="2020.92,196.789 2282.9,196.789 2282.9,93.1086 2020.92,93.1086 2020.92,196.789 "/>
<circle clip-path="url(#clip650)" cx="2114.05" cy="144.949" r="20.48" fill="#009af9" fill-rule="evenodd" fill-opacity="1" stroke="#000000" stroke-opacity="1" stroke-width="4.55111"/>
<path clip-path="url(#clip650)" d="M2221.03 164.636 Q2219.23 169.266 2217.51 170.678 Q2215.8 172.09 2212.93 172.09 L2209.53 172.09 L2209.53 168.525 L2212.03 168.525 Q2213.79 168.525 2214.76 167.692 Q2215.73 166.858 2216.91 163.756 L2217.68 161.812 L2207.19 136.303 L2211.7 136.303 L2219.81 156.581 L2227.91 136.303 L2232.42 136.303 L2221.03 164.636 Z" fill="#000000" fill-rule="nonzero" fill-opacity="1" /><path clip-path="url(#clip650)" d="M2239.71 158.293 L2247.35 158.293 L2247.35 131.928 L2239.04 133.595 L2239.04 129.335 L2247.31 127.669 L2251.98 127.669 L2251.98 158.293 L2259.62 158.293 L2259.62 162.229 L2239.71 162.229 L2239.71 158.293 Z" fill="#000000" fill-rule="nonzero" fill-opacity="1" /></svg>