<?xml version="1.0" encoding="utf-8"?>
<svg xmlns="http://www.w3.org/2000/svg" xmlns:xlink="http://www.w3.org/1999/xlink" width="600" height="400" viewBox="0 0 2400 1600">
<defs>
  <clipPath id="clip730">
    <rect x="0" y="0" width="2400" height="1600"/>
  </clipPath>
</defs>
<path clip-path="url(#clip730)" d="M0 1600 L2400 1600 L2400 0 L0 0  Z" fill="#ffffff" fill-rule="evenodd" fill-opacity="1"/>
<defs>
  <clipPath id="clip731">
    <rect x="480" y="0" width="1681" height="1600"/>
  </clipPath>
</defs>
<path clip-path="url(#clip730)" d="M284.908 1486.45 L2352.76 1486.45 L2352.76 47.2441 L284.908 47.2441  Z" fill="#ffffff" fill-rule="evenodd" fill-opacity="1"/>
<defs>
  <clipPath id="clip732">
    <rect x="284" y="47" width="2069" height="1440"/>
  </clipPath>
</defs>
<polyline clip-path="url(#clip732)" style="stroke:#000000; stroke-linecap:round; stroke-linejoin:round; stroke-width:2; stroke-opacity:0.1; fill:none" points="343.432,1486.45 343.432,47.2441 "/>
<polyline clip-path="url(#clip732)" style="stroke:#000000; stroke-linecap:round; stroke-linejoin:round; stroke-width:2; stroke-opacity:0.1; fill:none" points="964.391,1486.45 964.391,47.2441 "/>
<polyline clip-path="url(#clip732)" style="stroke:#000000; stroke-linecap:round; stroke-linejoin:round; stroke-width:2; stroke-opacity:0.1; fill:none" points="1585.35,1486.45 1585.35,47.2441 "/>
<polyline clip-path="url(#clip732)" style="stroke:#000000; stroke-linecap:round; stroke-linejoin:round; stroke-width:2; stroke-opacity:0.1; fill:none" points="2206.31,1486.45 2206.31,47.2441 "/>
<polyline clip-path="url(#clip730)" style="stroke:#000000; stroke-linecap:round; stroke-linejoin:round; stroke-width:4; stroke-opacity:1; fill:none" points="284.908,1486.45 2352.76,1486.45 "/>
<polyline clip-path="url(#clip730)" style="stroke:#000000; stroke-linecap:round; stroke-linejoin:round; stroke-width:4; stroke-opacity:1; fill:none" points="343.432,1486.45 343.432,1467.55 "/>
<polyline clip-path="url(#clip730)" style="stroke:#000000; stroke-linecap:round; stroke-linejoin:round; stroke-width:4; stroke-opacity:1; fill:none" points="964.391,1486.45 964.391,1467.55 "/>
<polyline clip-path="url(#clip730)" style="stroke:#000000; stroke-linecap:round; stroke-linejoin:round; stroke-width:4; stroke-opacity:1; fill:none" points="1585.35,1486.45 1585.35,1467.55 "/>
<polyline clip-path="url(#clip730)" style="stroke:#000000; stroke-linecap:round; stroke-linejoin:round; stroke-width:4; stroke-opacity:1; fill:none" points="2206.31,1486.45 2206.31,1467.55 "/>
<path clip-path="url(#clip730)" d="M343.432 1517.37 Q339.821 1517.37 337.992 1520.93 Q336.186 1524.47 336.186 1531.6 Q336.186 1538.71 337.992 1542.27 Q339.821 1545.82 343.432 1545.82 Q347.066 1545.82 348.872 1542.27 Q350.7 1538.71 350.7 1531.6 Q350.7 1524.47 348.872 1520.93 Q347.066 1517.37 343.432 1517.37 M343.432 1513.66 Q349.242 1513.66 352.297 1518.27 Q355.376 1522.85 355.376 1531.6 Q355.376 1540.33 352.297 1544.94 Q349.242 1549.52 343.432 1549.52 Q337.622 1549.52 334.543 1544.94 Q331.487 1540.33 331.487 1531.6 Q331.487 1522.85 334.543 1518.27 Q337.622 1513.66 343.432 1513.66 Z" fill="#000000" fill-rule="nonzero" fill-opacity="1" /><path clip-path="url(#clip730)" d="M939.078 1544.91 L946.717 1544.91 L946.717 1518.55 L938.407 1520.21 L938.407 1515.95 L946.671 1514.29 L951.347 1514.29 L951.347 1544.91 L958.986 1544.91 L958.986 1548.85 L939.078 1548.85 L939.078 1544.91 Z" fill="#000000" fill-rule="nonzero" fill-opacity="1" /><path clip-path="url(#clip730)" d="M978.43 1517.37 Q974.819 1517.37 972.99 1520.93 Q971.185 1524.47 971.185 1531.6 Q971.185 1538.71 972.99 1542.27 Q974.819 1545.82 978.43 1545.82 Q982.064 1545.82 983.87 1542.27 Q985.698 1538.71 985.698 1531.6 Q985.698 1524.47 983.87 1520.93 Q982.064 1517.37 978.43 1517.37 M978.43 1513.66 Q984.24 1513.66 987.296 1518.27 Q990.374 1522.85 990.374 1531.6 Q990.374 1540.33 987.296 1544.94 Q984.24 1549.52 978.43 1549.52 Q972.62 1549.52 969.541 1544.94 Q966.486 1540.33 966.486 1531.6 Q966.486 1522.85 969.541 1518.27 Q972.62 1513.66 978.43 1513.66 Z" fill="#000000" fill-rule="nonzero" fill-opacity="1" /><path clip-path="url(#clip730)" d="M1564.12 1544.91 L1580.44 1544.91 L1580.44 1548.85 L1558.5 1548.85 L1558.5 1544.91 Q1561.16 1542.16 1565.74 1537.53 Q1570.35 1532.88 1571.53 1531.53 Q1573.78 1529.01 1574.66 1527.27 Q1575.56 1525.51 1575.56 1523.82 Q1575.56 1521.07 1573.61 1519.33 Q1571.69 1517.6 1568.59 1517.6 Q1566.39 1517.6 1563.94 1518.36 Q1561.51 1519.13 1558.73 1520.68 L1558.73 1515.95 Q1561.55 1514.82 1564.01 1514.24 Q1566.46 1513.66 1568.5 1513.66 Q1573.87 1513.66 1577.06 1516.35 Q1580.26 1519.03 1580.26 1523.52 Q1580.26 1525.65 1579.45 1527.57 Q1578.66 1529.47 1576.55 1532.07 Q1575.97 1532.74 1572.87 1535.95 Q1569.77 1539.15 1564.12 1544.91 Z" fill="#000000" fill-rule="nonzero" fill-opacity="1" /><path clip-path="url(#clip730)" d="M1600.26 1517.37 Q1596.65 1517.37 1594.82 1520.93 Q1593.01 1524.47 1593.01 1531.6 Q1593.01 1538.71 1594.82 1542.27 Q1596.65 1545.82 1600.26 1545.82 Q1603.89 1545.82 1605.7 1542.27 Q1607.53 1538.71 1607.53 1531.6 Q1607.53 1524.47 1605.7 1520.93 Q1603.89 1517.37 1600.26 1517.37 M1600.26 1513.66 Q1606.07 1513.66 1609.12 1518.27 Q1612.2 1522.85 1612.2 1531.6 Q1612.2 1540.33 1609.12 1544.94 Q1606.07 1549.52 1600.26 1549.52 Q1594.45 1549.52 1591.37 1544.94 Q1588.31 1540.33 1588.31 1531.6 Q1588.31 1522.85 1591.37 1518.27 Q1594.45 1513.66 1600.26 1513.66 Z" fill="#000000" fill-rule="nonzero" fill-opacity="1" /><path clip-path="url(#clip730)" d="M2195.15 1530.21 Q2198.51 1530.93 2200.38 1533.2 Q2202.28 1535.47 2202.28 1538.8 Q2202.28 1543.92 2198.76 1546.72 Q2195.24 1549.52 2188.76 1549.52 Q2186.59 1549.52 2184.27 1549.08 Q2181.98 1548.66 2179.53 1547.81 L2179.53 1543.29 Q2181.47 1544.43 2183.79 1545.01 Q2186.1 1545.58 2188.62 1545.58 Q2193.02 1545.58 2195.31 1543.85 Q2197.63 1542.11 2197.63 1538.8 Q2197.63 1535.75 2195.48 1534.03 Q2193.35 1532.3 2189.53 1532.3 L2185.5 1532.3 L2185.5 1528.45 L2189.71 1528.45 Q2193.16 1528.45 2194.99 1527.09 Q2196.82 1525.7 2196.82 1523.11 Q2196.82 1520.45 2194.92 1519.03 Q2193.04 1517.6 2189.53 1517.6 Q2187.61 1517.6 2185.41 1518.01 Q2183.21 1518.43 2180.57 1519.31 L2180.57 1515.14 Q2183.23 1514.4 2185.54 1514.03 Q2187.88 1513.66 2189.94 1513.66 Q2195.27 1513.66 2198.37 1516.09 Q2201.47 1518.5 2201.47 1522.62 Q2201.47 1525.49 2199.83 1527.48 Q2198.18 1529.45 2195.15 1530.21 Z" fill="#000000" fill-rule="nonzero" fill-opacity="1" /><path clip-path="url(#clip730)" d="M2221.15 1517.37 Q2217.54 1517.37 2215.71 1520.93 Q2213.9 1524.47 2213.9 1531.6 Q2213.9 1538.71 2215.71 1542.27 Q2217.54 1545.82 2221.15 1545.82 Q2224.78 1545.82 2226.59 1542.27 Q2228.42 1538.71 2228.42 1531.6 Q2228.42 1524.47 2226.59 1520.93 Q2224.78 1517.37 2221.15 1517.37 M2221.15 1513.66 Q2226.96 1513.66 2230.01 1518.27 Q2233.09 1522.85 2233.09 1531.6 Q2233.09 1540.33 2230.01 1544.94 Q2226.96 1549.52 2221.15 1549.52 Q2215.34 1549.52 2212.26 1544.94 Q2209.2 1540.33 2209.2 1531.6 Q2209.2 1522.85 2212.26 1518.27 Q2215.34 1513.66 2221.15 1513.66 Z" fill="#000000" fill-rule="nonzero" fill-opacity="1" /><polyline clip-path="url(#clip732)" style="stroke:#000000; stroke-linecap:round; stroke-linejoin:round; stroke-width:2; stroke-opacity:0.1; fill:none" points="284.908,1396.22 2352.76,1396.22 "/>
<polyline clip-path="url(#clip732)" style="stroke:#000000; stroke-linecap:round; stroke-linejoin:round; stroke-width:2; stroke-opacity:0.1; fill:none" points="284.908,1076.73 2352.76,1076.73 "/>
<polyline clip-path="url(#clip732)" style="stroke:#000000; stroke-linecap:round; stroke-linejoin:round; stroke-width:2; stroke-opacity:0.1; fill:none" points="284.908,757.231 2352.76,757.231 "/>
<polyline clip-path="url(#clip732)" style="stroke:#000000; stroke-linecap:round; stroke-linejoin:round; stroke-width:2; stroke-opacity:0.1; fill:none" points="284.908,437.736 2352.76,437.736 "/>
<polyline clip-path="url(#clip732)" style="stroke:#000000; stroke-linecap:round; stroke-linejoin:round; stroke-width:2; stroke-opacity:0.1; fill:none" points="284.908,118.241 2352.76,118.241 "/>
<polyline clip-path="url(#clip730)" style="stroke:#000000; stroke-linecap:round; stroke-linejoin:round; stroke-width:4; stroke-opacity:1; fill:none" points="284.908,1486.45 284.908,47.2441 "/>
<polyline clip-path="url(#clip730)" style="stroke:#000000; stroke-linecap:round; stroke-linejoin:round; stroke-width:4; stroke-opacity:1; fill:none" points="284.908,1396.22 303.805,1396.22 "/>
<polyline clip-path="url(#clip730)" style="stroke:#000000; stroke-linecap:round; stroke-linejoin:round; stroke-width:4; stroke-opacity:1; fill:none" points="284.908,1076.73 303.805,1076.73 "/>
<polyline clip-path="url(#clip730)" style="stroke:#000000; stroke-linecap:round; stroke-linejoin:round; stroke-width:4; stroke-opacity:1; fill:none" points="284.908,757.231 303.805,757.231 "/>
<polyline clip-path="url(#clip730)" style="stroke:#000000; stroke-linecap:round; stroke-linejoin:round; stroke-width:4; stroke-opacity:1; fill:none" points="284.908,437.736 303.805,437.736 "/>
<polyline clip-path="url(#clip730)" style="stroke:#000000; stroke-linecap:round; stroke-linejoin:round; stroke-width:4; stroke-opacity:1; fill:none" points="284.908,118.241 303.805,118.241 "/>
<path clip-path="url(#clip730)" d="M50.9921 1396.67 L80.6679 1396.67 L80.6679 1400.61 L50.9921 1400.61 L50.9921 1396.67 Z" fill="#000000" fill-rule="nonzero" fill-opacity="1" /><path clip-path="url(#clip730)" d="M100.76 1382.02 Q97.1493 1382.02 95.3206 1385.58 Q93.515 1389.13 93.515 1396.26 Q93.515 1403.36 95.3206 1406.93 Q97.1493 1410.47 100.76 1410.47 Q104.395 1410.47 106.2 1406.93 Q108.029 1403.36 108.029 1396.26 Q108.029 1389.13 106.2 1385.58 Q104.395 1382.02 100.76 1382.02 M100.76 1378.32 Q106.571 1378.32 109.626 1382.92 Q112.705 1387.51 112.705 1396.26 Q112.705 1404.98 109.626 1409.59 Q106.571 1414.17 100.76 1414.17 Q94.9502 1414.17 91.8715 1409.59 Q88.816 1404.98 88.816 1396.26 Q88.816 1387.51 91.8715 1382.92 Q94.9502 1378.32 100.76 1378.32 Z" fill="#000000" fill-rule="nonzero" fill-opacity="1" /><path clip-path="url(#clip730)" d="M120.922 1407.62 L125.807 1407.62 L125.807 1413.5 L120.922 1413.5 L120.922 1407.62 Z" fill="#000000" fill-rule="nonzero" fill-opacity="1" /><path clip-path="url(#clip730)" d="M145.992 1382.02 Q142.381 1382.02 140.552 1385.58 Q138.746 1389.13 138.746 1396.26 Q138.746 1403.36 140.552 1406.93 Q142.381 1410.47 145.992 1410.47 Q149.626 1410.47 151.431 1406.93 Q153.26 1403.36 153.26 1396.26 Q153.26 1389.13 151.431 1385.58 Q149.626 1382.02 145.992 1382.02 M145.992 1378.32 Q151.802 1378.32 154.857 1382.92 Q157.936 1387.51 157.936 1396.26 Q157.936 1404.98 154.857 1409.59 Q151.802 1414.17 145.992 1414.17 Q140.181 1414.17 137.103 1409.59 Q134.047 1404.98 134.047 1396.26 Q134.047 1387.51 137.103 1382.92 Q140.181 1378.32 145.992 1378.32 Z" fill="#000000" fill-rule="nonzero" fill-opacity="1" /><path clip-path="url(#clip730)" d="M176.153 1382.02 Q172.542 1382.02 170.714 1385.58 Q168.908 1389.13 168.908 1396.26 Q168.908 1403.36 170.714 1406.93 Q172.542 1410.47 176.153 1410.47 Q179.788 1410.47 181.593 1406.93 Q183.422 1403.36 183.422 1396.26 Q183.422 1389.13 181.593 1385.58 Q179.788 1382.02 176.153 1382.02 M176.153 1378.32 Q181.964 1378.32 185.019 1382.92 Q188.098 1387.51 188.098 1396.26 Q188.098 1404.98 185.019 1409.59 Q181.964 1414.17 176.153 1414.17 Q170.343 1414.17 167.265 1409.59 Q164.209 1404.98 164.209 1396.26 Q164.209 1387.51 167.265 1382.92 Q170.343 1378.32 176.153 1378.32 Z" fill="#000000" fill-rule="nonzero" fill-opacity="1" /><path clip-path="url(#clip730)" d="M206.315 1382.02 Q202.704 1382.02 200.876 1385.58 Q199.07 1389.13 199.07 1396.26 Q199.07 1403.36 200.876 1406.93 Q202.704 1410.47 206.315 1410.47 Q209.95 1410.47 211.755 1406.93 Q213.584 1403.36 213.584 1396.26 Q213.584 1389.13 211.755 1385.58 Q209.95 1382.02 206.315 1382.02 M206.315 1378.32 Q212.126 1378.32 215.181 1382.92 Q218.26 1387.51 218.26 1396.26 Q218.26 1404.98 215.181 1409.59 Q212.126 1414.17 206.315 1414.17 Q200.505 1414.17 197.427 1409.59 Q194.371 1404.98 194.371 1396.26 Q194.371 1387.51 197.427 1382.92 Q200.505 1378.32 206.315 1378.32 Z" fill="#000000" fill-rule="nonzero" fill-opacity="1" /><path clip-path="url(#clip730)" d="M239.324 1383.02 L227.519 1401.46 L239.324 1401.46 L239.324 1383.02 M238.098 1378.94 L243.977 1378.94 L243.977 1401.46 L248.908 1401.46 L248.908 1405.35 L243.977 1405.35 L243.977 1413.5 L239.324 1413.5 L239.324 1405.35 L223.723 1405.35 L223.723 1400.84 L238.098 1378.94 Z" fill="#000000" fill-rule="nonzero" fill-opacity="1" /><path clip-path="url(#clip730)" d="M52.1264 1077.18 L81.8021 1077.18 L81.8021 1081.11 L52.1264 1081.11 L52.1264 1077.18 Z" fill="#000000" fill-rule="nonzero" fill-opacity="1" /><path clip-path="url(#clip730)" d="M101.895 1062.53 Q98.2835 1062.53 96.4548 1066.09 Q94.6493 1069.63 94.6493 1076.76 Q94.6493 1083.87 96.4548 1087.43 Q98.2835 1090.97 101.895 1090.97 Q105.529 1090.97 107.334 1087.43 Q109.163 1083.87 109.163 1076.76 Q109.163 1069.63 107.334 1066.09 Q105.529 1062.53 101.895 1062.53 M101.895 1058.82 Q107.705 1058.82 110.76 1063.43 Q113.839 1068.01 113.839 1076.76 Q113.839 1085.49 110.76 1090.09 Q107.705 1094.68 101.895 1094.68 Q96.0845 1094.68 93.0058 1090.09 Q89.9503 1085.49 89.9503 1076.76 Q89.9503 1068.01 93.0058 1063.43 Q96.0845 1058.82 101.895 1058.82 Z" fill="#000000" fill-rule="nonzero" fill-opacity="1" /><path clip-path="url(#clip730)" d="M122.057 1088.13 L126.941 1088.13 L126.941 1094.01 L122.057 1094.01 L122.057 1088.13 Z" fill="#000000" fill-rule="nonzero" fill-opacity="1" /><path clip-path="url(#clip730)" d="M147.126 1062.53 Q143.515 1062.53 141.686 1066.09 Q139.881 1069.63 139.881 1076.76 Q139.881 1083.87 141.686 1087.43 Q143.515 1090.97 147.126 1090.97 Q150.76 1090.97 152.566 1087.43 Q154.394 1083.87 154.394 1076.76 Q154.394 1069.63 152.566 1066.09 Q150.76 1062.53 147.126 1062.53 M147.126 1058.82 Q152.936 1058.82 155.992 1063.43 Q159.07 1068.01 159.07 1076.76 Q159.07 1085.49 155.992 1090.09 Q152.936 1094.68 147.126 1094.68 Q141.316 1094.68 138.237 1090.09 Q135.181 1085.49 135.181 1076.76 Q135.181 1068.01 138.237 1063.43 Q141.316 1058.82 147.126 1058.82 Z" fill="#000000" fill-rule="nonzero" fill-opacity="1" /><path clip-path="url(#clip730)" d="M177.288 1062.53 Q173.677 1062.53 171.848 1066.09 Q170.042 1069.63 170.042 1076.76 Q170.042 1083.87 171.848 1087.43 Q173.677 1090.97 177.288 1090.97 Q180.922 1090.97 182.728 1087.43 Q184.556 1083.87 184.556 1076.76 Q184.556 1069.63 182.728 1066.09 Q180.922 1062.53 177.288 1062.53 M177.288 1058.82 Q183.098 1058.82 186.153 1063.43 Q189.232 1068.01 189.232 1076.76 Q189.232 1085.49 186.153 1090.09 Q183.098 1094.68 177.288 1094.68 Q171.478 1094.68 168.399 1090.09 Q165.343 1085.49 165.343 1076.76 Q165.343 1068.01 168.399 1063.43 Q171.478 1058.82 177.288 1058.82 Z" fill="#000000" fill-rule="nonzero" fill-opacity="1" /><path clip-path="url(#clip730)" d="M207.45 1062.53 Q203.839 1062.53 202.01 1066.09 Q200.204 1069.63 200.204 1076.76 Q200.204 1083.87 202.01 1087.43 Q203.839 1090.97 207.45 1090.97 Q211.084 1090.97 212.889 1087.43 Q214.718 1083.87 214.718 1076.76 Q214.718 1069.63 212.889 1066.09 Q211.084 1062.53 207.45 1062.53 M207.45 1058.82 Q213.26 1058.82 216.315 1063.43 Q219.394 1068.01 219.394 1076.76 Q219.394 1085.49 216.315 1090.09 Q213.26 1094.68 207.45 1094.68 Q201.639 1094.68 198.561 1090.09 Q195.505 1085.49 195.505 1076.76 Q195.505 1068.01 198.561 1063.43 Q201.639 1058.82 207.45 1058.82 Z" fill="#000000" fill-rule="nonzero" fill-opacity="1" /><path clip-path="url(#clip730)" d="M241.778 1075.37 Q245.135 1076.09 247.01 1078.36 Q248.908 1080.63 248.908 1083.96 Q248.908 1089.08 245.389 1091.88 Q241.871 1094.68 235.389 1094.68 Q233.213 1094.68 230.899 1094.24 Q228.607 1093.82 226.153 1092.96 L226.153 1088.45 Q228.098 1089.59 230.412 1090.16 Q232.727 1090.74 235.25 1090.74 Q239.649 1090.74 241.94 1089.01 Q244.255 1087.27 244.255 1083.96 Q244.255 1080.9 242.102 1079.19 Q239.973 1077.46 236.153 1077.46 L232.125 1077.46 L232.125 1073.61 L236.338 1073.61 Q239.787 1073.61 241.616 1072.25 Q243.445 1070.86 243.445 1068.27 Q243.445 1065.6 241.547 1064.19 Q239.672 1062.76 236.153 1062.76 Q234.232 1062.76 232.033 1063.17 Q229.834 1063.59 227.195 1064.47 L227.195 1060.3 Q229.857 1059.56 232.172 1059.19 Q234.51 1058.82 236.57 1058.82 Q241.894 1058.82 244.996 1061.25 Q248.098 1063.66 248.098 1067.78 Q248.098 1070.65 246.454 1072.64 Q244.811 1074.61 241.778 1075.37 Z" fill="#000000" fill-rule="nonzero" fill-opacity="1" /><path clip-path="url(#clip730)" d="M53.0754 757.683 L82.7512 757.683 L82.7512 761.618 L53.0754 761.618 L53.0754 757.683 Z" fill="#000000" fill-rule="nonzero" fill-opacity="1" /><path clip-path="url(#clip730)" d="M102.844 743.03 Q99.2326 743.03 97.4039 746.595 Q95.5984 750.137 95.5984 757.266 Q95.5984 764.373 97.4039 767.937 Q99.2326 771.479 102.844 771.479 Q106.478 771.479 108.283 767.937 Q110.112 764.373 110.112 757.266 Q110.112 750.137 108.283 746.595 Q106.478 743.03 102.844 743.03 M102.844 739.326 Q108.654 739.326 111.709 743.933 Q114.788 748.516 114.788 757.266 Q114.788 765.993 111.709 770.599 Q108.654 775.183 102.844 775.183 Q97.0335 775.183 93.9549 770.599 Q90.8993 765.993 90.8993 757.266 Q90.8993 748.516 93.9549 743.933 Q97.0335 739.326 102.844 739.326 Z" fill="#000000" fill-rule="nonzero" fill-opacity="1" /><path clip-path="url(#clip730)" d="M123.006 768.632 L127.89 768.632 L127.89 774.511 L123.006 774.511 L123.006 768.632 Z" fill="#000000" fill-rule="nonzero" fill-opacity="1" /><path clip-path="url(#clip730)" d="M148.075 743.03 Q144.464 743.03 142.635 746.595 Q140.83 750.137 140.83 757.266 Q140.83 764.373 142.635 767.937 Q144.464 771.479 148.075 771.479 Q151.709 771.479 153.515 767.937 Q155.343 764.373 155.343 757.266 Q155.343 750.137 153.515 746.595 Q151.709 743.03 148.075 743.03 M148.075 739.326 Q153.885 739.326 156.941 743.933 Q160.019 748.516 160.019 757.266 Q160.019 765.993 156.941 770.599 Q153.885 775.183 148.075 775.183 Q142.265 775.183 139.186 770.599 Q136.131 765.993 136.131 757.266 Q136.131 748.516 139.186 743.933 Q142.265 739.326 148.075 739.326 Z" fill="#000000" fill-rule="nonzero" fill-opacity="1" /><path clip-path="url(#clip730)" d="M178.237 743.03 Q174.626 743.03 172.797 746.595 Q170.991 750.137 170.991 757.266 Q170.991 764.373 172.797 767.937 Q174.626 771.479 178.237 771.479 Q181.871 771.479 183.677 767.937 Q185.505 764.373 185.505 757.266 Q185.505 750.137 183.677 746.595 Q181.871 743.03 178.237 743.03 M178.237 739.326 Q184.047 739.326 187.103 743.933 Q190.181 748.516 190.181 757.266 Q190.181 765.993 187.103 770.599 Q184.047 775.183 178.237 775.183 Q172.427 775.183 169.348 770.599 Q166.292 765.993 166.292 757.266 Q166.292 748.516 169.348 743.933 Q172.427 739.326 178.237 739.326 Z" fill="#000000" fill-rule="nonzero" fill-opacity="1" /><path clip-path="url(#clip730)" d="M208.399 743.03 Q204.788 743.03 202.959 746.595 Q201.153 750.137 201.153 757.266 Q201.153 764.373 202.959 767.937 Q204.788 771.479 208.399 771.479 Q212.033 771.479 213.838 767.937 Q215.667 764.373 215.667 757.266 Q215.667 750.137 213.838 746.595 Q212.033 743.03 208.399 743.03 M208.399 739.326 Q214.209 739.326 217.264 743.933 Q220.343 748.516 220.343 757.266 Q220.343 765.993 217.264 770.599 Q214.209 775.183 208.399 775.183 Q202.589 775.183 199.51 770.599 Q196.454 765.993 196.454 757.266 Q196.454 748.516 199.51 743.933 Q202.589 739.326 208.399 739.326 Z" fill="#000000" fill-rule="nonzero" fill-opacity="1" /><path clip-path="url(#clip730)" d="M232.588 770.576 L248.908 770.576 L248.908 774.511 L226.963 774.511 L226.963 770.576 Q229.625 767.822 234.209 763.192 Q238.815 758.539 239.996 757.197 Q242.241 754.674 243.121 752.937 Q244.023 751.178 244.023 749.488 Q244.023 746.734 242.079 744.998 Q240.158 743.262 237.056 743.262 Q234.857 743.262 232.403 744.025 Q229.973 744.789 227.195 746.34 L227.195 741.618 Q230.019 740.484 232.473 739.905 Q234.926 739.326 236.963 739.326 Q242.334 739.326 245.528 742.012 Q248.723 744.697 248.723 749.188 Q248.723 751.317 247.912 753.238 Q247.125 755.137 245.019 757.729 Q244.44 758.4 241.338 761.618 Q238.236 764.812 232.588 770.576 Z" fill="#000000" fill-rule="nonzero" fill-opacity="1" /><path clip-path="url(#clip730)" d="M52.7051 438.188 L82.3808 438.188 L82.3808 442.123 L52.7051 442.123 L52.7051 438.188 Z" fill="#000000" fill-rule="nonzero" fill-opacity="1" /><path clip-path="url(#clip730)" d="M102.473 423.535 Q98.8622 423.535 97.0335 427.1 Q95.228 430.642 95.228 437.771 Q95.228 444.878 97.0335 448.442 Q98.8622 451.984 102.473 451.984 Q106.108 451.984 107.913 448.442 Q109.742 444.878 109.742 437.771 Q109.742 430.642 107.913 427.1 Q106.108 423.535 102.473 423.535 M102.473 419.831 Q108.283 419.831 111.339 424.438 Q114.418 429.021 114.418 437.771 Q114.418 446.498 111.339 451.104 Q108.283 455.688 102.473 455.688 Q96.6632 455.688 93.5845 451.104 Q90.529 446.498 90.529 437.771 Q90.529 429.021 93.5845 424.438 Q96.6632 419.831 102.473 419.831 Z" fill="#000000" fill-rule="nonzero" fill-opacity="1" /><path clip-path="url(#clip730)" d="M122.635 449.137 L127.519 449.137 L127.519 455.016 L122.635 455.016 L122.635 449.137 Z" fill="#000000" fill-rule="nonzero" fill-opacity="1" /><path clip-path="url(#clip730)" d="M147.705 423.535 Q144.093 423.535 142.265 427.1 Q140.459 430.642 140.459 437.771 Q140.459 444.878 142.265 448.442 Q144.093 451.984 147.705 451.984 Q151.339 451.984 153.144 448.442 Q154.973 444.878 154.973 437.771 Q154.973 430.642 153.144 427.1 Q151.339 423.535 147.705 423.535 M147.705 419.831 Q153.515 419.831 156.57 424.438 Q159.649 429.021 159.649 437.771 Q159.649 446.498 156.57 451.104 Q153.515 455.688 147.705 455.688 Q141.894 455.688 138.816 451.104 Q135.76 446.498 135.76 437.771 Q135.76 429.021 138.816 424.438 Q141.894 419.831 147.705 419.831 Z" fill="#000000" fill-rule="nonzero" fill-opacity="1" /><path clip-path="url(#clip730)" d="M177.866 423.535 Q174.255 423.535 172.427 427.1 Q170.621 430.642 170.621 437.771 Q170.621 444.878 172.427 448.442 Q174.255 451.984 177.866 451.984 Q181.501 451.984 183.306 448.442 Q185.135 444.878 185.135 437.771 Q185.135 430.642 183.306 427.1 Q181.501 423.535 177.866 423.535 M177.866 419.831 Q183.677 419.831 186.732 424.438 Q189.811 429.021 189.811 437.771 Q189.811 446.498 186.732 451.104 Q183.677 455.688 177.866 455.688 Q172.056 455.688 168.978 451.104 Q165.922 446.498 165.922 437.771 Q165.922 429.021 168.978 424.438 Q172.056 419.831 177.866 419.831 Z" fill="#000000" fill-rule="nonzero" fill-opacity="1" /><path clip-path="url(#clip730)" d="M208.028 423.535 Q204.417 423.535 202.589 427.1 Q200.783 430.642 200.783 437.771 Q200.783 444.878 202.589 448.442 Q204.417 451.984 208.028 451.984 Q211.663 451.984 213.468 448.442 Q215.297 444.878 215.297 437.771 Q215.297 430.642 213.468 427.1 Q211.663 423.535 208.028 423.535 M208.028 419.831 Q213.838 419.831 216.894 424.438 Q219.973 429.021 219.973 437.771 Q219.973 446.498 216.894 451.104 Q213.838 455.688 208.028 455.688 Q202.218 455.688 199.139 451.104 Q196.084 446.498 196.084 437.771 Q196.084 429.021 199.139 424.438 Q202.218 419.831 208.028 419.831 Z" fill="#000000" fill-rule="nonzero" fill-opacity="1" /><path clip-path="url(#clip730)" d="M229 451.081 L236.639 451.081 L236.639 424.716 L228.329 426.382 L228.329 422.123 L236.593 420.456 L241.269 420.456 L241.269 451.081 L248.908 451.081 L248.908 455.016 L229 455.016 L229 451.081 Z" fill="#000000" fill-rule="nonzero" fill-opacity="1" /><path clip-path="url(#clip730)" d="M101.246 104.04 Q97.6354 104.04 95.8067 107.605 Q94.0012 111.147 94.0012 118.276 Q94.0012 125.383 95.8067 128.947 Q97.6354 132.489 101.246 132.489 Q104.881 132.489 106.686 128.947 Q108.515 125.383 108.515 118.276 Q108.515 111.147 106.686 107.605 Q104.881 104.04 101.246 104.04 M101.246 100.336 Q107.057 100.336 110.112 104.943 Q113.191 109.526 113.191 118.276 Q113.191 127.003 110.112 131.609 Q107.057 136.193 101.246 136.193 Q95.4363 136.193 92.3576 131.609 Q89.3021 127.003 89.3021 118.276 Q89.3021 109.526 92.3576 104.943 Q95.4363 100.336 101.246 100.336 Z" fill="#000000" fill-rule="nonzero" fill-opacity="1" /><path clip-path="url(#clip730)" d="M121.408 129.642 L126.293 129.642 L126.293 135.521 L121.408 135.521 L121.408 129.642 Z" fill="#000000" fill-rule="nonzero" fill-opacity="1" /><path clip-path="url(#clip730)" d="M146.478 104.04 Q142.867 104.04 141.038 107.605 Q139.232 111.147 139.232 118.276 Q139.232 125.383 141.038 128.947 Q142.867 132.489 146.478 132.489 Q150.112 132.489 151.918 128.947 Q153.746 125.383 153.746 118.276 Q153.746 111.147 151.918 107.605 Q150.112 104.04 146.478 104.04 M146.478 100.336 Q152.288 100.336 155.343 104.943 Q158.422 109.526 158.422 118.276 Q158.422 127.003 155.343 131.609 Q152.288 136.193 146.478 136.193 Q140.668 136.193 137.589 131.609 Q134.533 127.003 134.533 118.276 Q134.533 109.526 137.589 104.943 Q140.668 100.336 146.478 100.336 Z" fill="#000000" fill-rule="nonzero" fill-opacity="1" /><path clip-path="url(#clip730)" d="M176.64 104.04 Q173.029 104.04 171.2 107.605 Q169.394 111.147 169.394 118.276 Q169.394 125.383 171.2 128.947 Q173.029 132.489 176.64 132.489 Q180.274 132.489 182.079 128.947 Q183.908 125.383 183.908 118.276 Q183.908 111.147 182.079 107.605 Q180.274 104.04 176.64 104.04 M176.64 100.336 Q182.45 100.336 185.505 104.943 Q188.584 109.526 188.584 118.276 Q188.584 127.003 185.505 131.609 Q182.45 136.193 176.64 136.193 Q170.829 136.193 167.751 131.609 Q164.695 127.003 164.695 118.276 Q164.695 109.526 167.751 104.943 Q170.829 100.336 176.64 100.336 Z" fill="#000000" fill-rule="nonzero" fill-opacity="1" /><path clip-path="url(#clip730)" d="M206.801 104.04 Q203.19 104.04 201.362 107.605 Q199.556 111.147 199.556 118.276 Q199.556 125.383 201.362 128.947 Q203.19 132.489 206.801 132.489 Q210.436 132.489 212.241 128.947 Q214.07 125.383 214.07 118.276 Q214.07 111.147 212.241 107.605 Q210.436 104.04 206.801 104.04 M206.801 100.336 Q212.612 100.336 215.667 104.943 Q218.746 109.526 218.746 118.276 Q218.746 127.003 215.667 131.609 Q212.612 136.193 206.801 136.193 Q200.991 136.193 197.913 131.609 Q194.857 127.003 194.857 118.276 Q194.857 109.526 197.913 104.943 Q200.991 100.336 206.801 100.336 Z" fill="#000000" fill-rule="nonzero" fill-opacity="1" /><path clip-path="url(#clip730)" d="M236.963 104.04 Q233.352 104.04 231.524 107.605 Q229.718 111.147 229.718 118.276 Q229.718 125.383 231.524 128.947 Q233.352 132.489 236.963 132.489 Q240.598 132.489 242.403 128.947 Q244.232 125.383 244.232 118.276 Q244.232 111.147 242.403 107.605 Q240.598 104.04 236.963 104.04 M236.963 100.336 Q242.774 100.336 245.829 104.943 Q248.908 109.526 248.908 118.276 Q248.908 127.003 245.829 131.609 Q242.774 136.193 236.963 136.193 Q231.153 136.193 228.075 131.609 Q225.019 127.003 225.019 118.276 Q225.019 109.526 228.075 104.943 Q231.153 100.336 236.963 100.336 Z" fill="#000000" fill-rule="nonzero" fill-opacity="1" /><polyline clip-path="url(#clip732)" style="stroke:#009af9; stroke-linecap:round; stroke-linejoin:round; stroke-width:4; stroke-opacity:1; fill:none" points="343.432,118.241 343.494,118.241 344.114,118.241 347.255,118.242 352.281,118.254 358.386,118.312 366.197,118.628 375.303,119.59 385.841,122.08 397.618,126.466 410.719,130.623 425.29,124.392 441.105,97.5497 456.466,87.9763 471.976,119.11 487.735,175.843 504.355,221.423 522.677,218.828 540.637,186.388 558.47,162.118 576.423,155.358 594.955,170.57 613.164,204.504 631.426,245.543 650.098,256.419 669.912,191.964 688.547,176.215 706.337,255.701 724.066,355.123 742.753,401.163 762.65,362.778 781.299,325.502 800.029,307.81 818.81,315.213 837.938,351.012 856.396,395.291 875.29,422.955 894.998,376.143 914.509,331.295 932.375,391.828 950.341,503.809 968.708,566.393 988.833,540.901 1007.71,499.244 1026.49,476.314 1045.26,478.55 1064.92,513.893 1083.32,556.534 1102.29,592.981 1121.79,561.443 1141.76,498.472 1159.71,543.817 1177.84,661.5 1195.99,733.579 1216.01,722.375 1235.07,678.343 1253.84,651.818 1272.59,650.106 1292.34,681.352 1310.76,722.809 1329.7,764.342 1349.03,746.032 1369.24,672.028 1387.31,702.994 1405.64,824.222 1423.6,903.3 1443.46,906.426 1462.67,861.245 1481.44,831.592 1500.18,826.309 1519.55,850.221 1538.13,891.187 1556.9,934.96 1576.08,929.882 1596.33,852.269 1614.63,866.472 1632.76,974.419 1650.65,1063.42 1670.1,1084.08 1689.55,1038.75 1708.26,1005.86 1727,996.002 1746.07,1012.9 1764.81,1052.2 1783.44,1097.31 1802.47,1106.5 1822.59,1035.01 1841.29,1027.36 1859.26,1117.76 1877.11,1217.06 1896.09,1256.34 1915.9,1213.82 1934.59,1177.56 1953.35,1162.4 1972.24,1172.91 1991.22,1210.08 2009.75,1255.21 2028.68,1277.18 2048.56,1220.63 2067.78,1188.59 2085.66,1259.64 2103.57,1367.87 2122.13,1423.22 2142.28,1389.21 2161.05,1349.71 2179.85,1329.33 2198.64,1334.43 2218,1370.06 2236.45,1413.98 2255.38,1445.72 2275.01,1405.5 2294.23,1356.38 "/>
<path clip-path="url(#clip730)" d="M2024.61 198.898 L2283.83 198.898 L2283.83 95.2176 L2024.61 95.2176  Z" fill="#ffffff" fill-rule="evenodd" fill-opacity="1"/>
<polyline clip-path="url(#clip730)" style="stroke:#000000; stroke-linecap:round; stroke-linejoin:round; stroke-width:4; stroke-opacity:1; fill:none" points="2024.61,198.898 2283.83,198.898 2283.83,95.2176 2024.61,95.2176 2024.61,198.898 "/>
<polyline clip-path="url(#clip730)" style="stroke:#009af9; stroke-linecap:round; stroke-linejoin:round; stroke-width:4; stroke-opacity:1; fill:none" points="2047.59,147.058 2185.45,147.058 "/>
<path clip-path="url(#clip730)" d="M2222.26 166.745 Q2220.46 171.375 2218.75 172.787 Q2217.03 174.199 2214.16 174.199 L2210.76 174.199 L2210.76 170.634 L2213.26 170.634 Q2215.02 170.634 2215.99 169.8 Q2216.96 168.967 2218.14 165.865 L2218.91 163.921 L2208.42 138.412 L2212.94 138.412 L2221.04 158.689 L2229.14 138.412 L2233.65 138.412 L2222.26 166.745 Z" fill="#000000" fill-rule="nonzero" fill-opacity="1" /><path clip-path="url(#clip730)" d="M2240.94 160.402 L2248.58 160.402 L2248.58 134.037 L2240.27 135.703 L2240.27 131.444 L2248.54 129.778 L2253.21 129.778 L2253.21 160.402 L2260.85 160.402 L2260.85 164.338 L2240.94 164.338 L2240.94 160.402 Z" fill="#000000" fill-rule="nonzero" fill-opacity="1" /></svg>