<?xml version="1.0" encoding="utf-8"?>
<svg xmlns="http://www.w3.org/2000/svg" xmlns:xlink="http://www.w3.org/1999/xlink" width="600" height="400" viewBox="0 0 2400 1600">
<defs>
  <clipPath id="clip510">
    <rect x="0" y="0" width="2400" height="1600"/>
  </clipPath>
</defs>
<path clip-path="url(#clip510)" d="M0 1600 L2400 1600 L2400 8.88178e-14 L0 8.88178e-14  Z" fill="#ffffff" fill-rule="evenodd" fill-opacity="1"/>
<defs>
  <clipPath id="clip511">
    <rect x="480" y="0" width="1681" height="1600"/>
  </clipPath>
</defs>
<path clip-path="url(#clip510)" d="M219.866 1423.18 L2352.76 1423.18 L2352.76 47.2441 L219.866 47.2441  Z" fill="#ffffff" fill-rule="evenodd" fill-opacity="1"/>
<defs>
  <clipPath id="clip512">
    <rect x="219" y="47" width="2134" height="1377"/>
  </clipPath>
</defs>
<polyline clip-path="url(#clip512)" style="stroke:#000000; stroke-linecap:round; stroke-linejoin:round; stroke-width:2; stroke-opacity:0.1; fill:none" points="552.684,1423.18 552.684,47.2441 "/>
<polyline clip-path="url(#clip512)" style="stroke:#000000; stroke-linecap:round; stroke-linejoin:round; stroke-width:2; stroke-opacity:0.1; fill:none" points="916.599,1423.18 916.599,47.2441 "/>
<polyline clip-path="url(#clip512)" style="stroke:#000000; stroke-linecap:round; stroke-linejoin:round; stroke-width:2; stroke-opacity:0.1; fill:none" points="1280.51,1423.18 1280.51,47.2441 "/>
<polyline clip-path="url(#clip512)" style="stroke:#000000; stroke-linecap:round; stroke-linejoin:round; stroke-width:2; stroke-opacity:0.1; fill:none" points="1644.43,1423.18 1644.43,47.2441 "/>
<polyline clip-path="url(#clip512)" style="stroke:#000000; stroke-linecap:round; stroke-linejoin:round; stroke-width:2; stroke-opacity:0.1; fill:none" points="2008.34,1423.18 2008.34,47.2441 "/>
<polyline clip-path="url(#clip510)" style="stroke:#000000; stroke-linecap:round; stroke-linejoin:round; stroke-width:4; stroke-opacity:1; fill:none" points="219.866,1423.18 2352.76,1423.18 "/>
<polyline clip-path="url(#clip510)" style="stroke:#000000; stroke-linecap:round; stroke-linejoin:round; stroke-width:4; stroke-opacity:1; fill:none" points="552.684,1423.18 552.684,1404.28 "/>
<polyline clip-path="url(#clip510)" style="stroke:#000000; stroke-linecap:round; stroke-linejoin:round; stroke-width:4; stroke-opacity:1; fill:none" points="916.599,1423.18 916.599,1404.28 "/>
<polyline clip-path="url(#clip510)" style="stroke:#000000; stroke-linecap:round; stroke-linejoin:round; stroke-width:4; stroke-opacity:1; fill:none" points="1280.51,1423.18 1280.51,1404.28 "/>
<polyline clip-path="url(#clip510)" style="stroke:#000000; stroke-linecap:round; stroke-linejoin:round; stroke-width:4; stroke-opacity:1; fill:none" points="1644.43,1423.18 1644.43,1404.28 "/>
<polyline clip-path="url(#clip510)" style="stroke:#000000; stroke-linecap:round; stroke-linejoin:round; stroke-width:4; stroke-opacity:1; fill:none" points="2008.34,1423.18 2008.34,1404.28 "/>
<path clip-path="url(#clip510)" d="M515.485 1454.1 Q511.874 1454.1 510.046 1457.66 Q508.24 1461.2 508.24 1468.33 Q508.24 1475.44 510.046 1479.01 Q511.874 1482.55 515.485 1482.55 Q519.12 1482.55 520.925 1479.01 Q522.754 1475.44 522.754 1468.33 Q522.754 1461.2 520.925 1457.66 Q519.12 1454.1 515.485 1454.1 M515.485 1450.39 Q521.296 1450.39 524.351 1455 Q527.43 1459.58 527.43 1468.33 Q527.43 1477.06 524.351 1481.67 Q521.296 1486.25 515.485 1486.25 Q509.675 1486.25 506.597 1481.67 Q503.541 1477.06 503.541 1468.33 Q503.541 1459.58 506.597 1455 Q509.675 1450.39 515.485 1450.39 Z" fill="#000000" fill-rule="nonzero" fill-opacity="1" /><path clip-path="url(#clip510)" d="M535.647 1479.7 L540.532 1479.7 L540.532 1485.58 L535.647 1485.58 L535.647 1479.7 Z" fill="#000000" fill-rule="nonzero" fill-opacity="1" /><path clip-path="url(#clip510)" d="M554.744 1481.64 L571.064 1481.64 L571.064 1485.58 L549.119 1485.58 L549.119 1481.64 Q551.781 1478.89 556.365 1474.26 Q560.971 1469.61 562.152 1468.27 Q564.397 1465.74 565.277 1464.01 Q566.18 1462.25 566.18 1460.56 Q566.18 1457.8 564.235 1456.07 Q562.314 1454.33 559.212 1454.33 Q557.013 1454.33 554.559 1455.09 Q552.129 1455.86 549.351 1457.41 L549.351 1452.69 Q552.175 1451.55 554.629 1450.97 Q557.082 1450.39 559.119 1450.39 Q564.49 1450.39 567.684 1453.08 Q570.879 1455.77 570.879 1460.26 Q570.879 1462.39 570.068 1464.31 Q569.281 1466.2 567.175 1468.8 Q566.596 1469.47 563.494 1472.69 Q560.393 1475.88 554.744 1481.64 Z" fill="#000000" fill-rule="nonzero" fill-opacity="1" /><path clip-path="url(#clip510)" d="M580.925 1451.02 L599.281 1451.02 L599.281 1454.96 L585.207 1454.96 L585.207 1463.43 Q586.226 1463.08 587.244 1462.92 Q588.263 1462.73 589.281 1462.73 Q595.068 1462.73 598.448 1465.9 Q601.828 1469.08 601.828 1474.49 Q601.828 1480.07 598.355 1483.17 Q594.883 1486.25 588.564 1486.25 Q586.388 1486.25 584.119 1485.88 Q581.874 1485.51 579.467 1484.77 L579.467 1480.07 Q581.55 1481.2 583.772 1481.76 Q585.994 1482.32 588.471 1482.32 Q592.476 1482.32 594.814 1480.21 Q597.152 1478.1 597.152 1474.49 Q597.152 1470.88 594.814 1468.77 Q592.476 1466.67 588.471 1466.67 Q586.596 1466.67 584.721 1467.08 Q582.869 1467.5 580.925 1468.38 L580.925 1451.02 Z" fill="#000000" fill-rule="nonzero" fill-opacity="1" /><path clip-path="url(#clip510)" d="M878.903 1454.1 Q875.292 1454.1 873.463 1457.66 Q871.657 1461.2 871.657 1468.33 Q871.657 1475.44 873.463 1479.01 Q875.292 1482.55 878.903 1482.55 Q882.537 1482.55 884.343 1479.01 Q886.171 1475.44 886.171 1468.33 Q886.171 1461.2 884.343 1457.66 Q882.537 1454.1 878.903 1454.1 M878.903 1450.39 Q884.713 1450.39 887.768 1455 Q890.847 1459.58 890.847 1468.33 Q890.847 1477.06 887.768 1481.67 Q884.713 1486.25 878.903 1486.25 Q873.093 1486.25 870.014 1481.67 Q866.958 1477.06 866.958 1468.33 Q866.958 1459.58 870.014 1455 Q873.093 1450.39 878.903 1450.39 Z" fill="#000000" fill-rule="nonzero" fill-opacity="1" /><path clip-path="url(#clip510)" d="M899.065 1479.7 L903.949 1479.7 L903.949 1485.58 L899.065 1485.58 L899.065 1479.7 Z" fill="#000000" fill-rule="nonzero" fill-opacity="1" /><path clip-path="url(#clip510)" d="M914.18 1451.02 L932.537 1451.02 L932.537 1454.96 L918.463 1454.96 L918.463 1463.43 Q919.481 1463.08 920.5 1462.92 Q921.518 1462.73 922.537 1462.73 Q928.324 1462.73 931.703 1465.9 Q935.083 1469.08 935.083 1474.49 Q935.083 1480.07 931.611 1483.17 Q928.139 1486.25 921.819 1486.25 Q919.643 1486.25 917.375 1485.88 Q915.129 1485.51 912.722 1484.77 L912.722 1480.07 Q914.805 1481.2 917.028 1481.76 Q919.25 1482.32 921.727 1482.32 Q925.731 1482.32 928.069 1480.21 Q930.407 1478.1 930.407 1474.49 Q930.407 1470.88 928.069 1468.77 Q925.731 1466.67 921.727 1466.67 Q919.852 1466.67 917.977 1467.08 Q916.125 1467.5 914.18 1468.38 L914.18 1451.02 Z" fill="#000000" fill-rule="nonzero" fill-opacity="1" /><path clip-path="url(#clip510)" d="M954.296 1454.1 Q950.685 1454.1 948.856 1457.66 Q947.051 1461.2 947.051 1468.33 Q947.051 1475.44 948.856 1479.01 Q950.685 1482.55 954.296 1482.55 Q957.93 1482.55 959.736 1479.01 Q961.564 1475.44 961.564 1468.33 Q961.564 1461.2 959.736 1457.66 Q957.93 1454.1 954.296 1454.1 M954.296 1450.39 Q960.106 1450.39 963.162 1455 Q966.24 1459.58 966.24 1468.33 Q966.24 1477.06 963.162 1481.67 Q960.106 1486.25 954.296 1486.25 Q948.486 1486.25 945.407 1481.67 Q942.351 1477.06 942.351 1468.33 Q942.351 1459.58 945.407 1455 Q948.486 1450.39 954.296 1450.39 Z" fill="#000000" fill-rule="nonzero" fill-opacity="1" /><path clip-path="url(#clip510)" d="M1243.32 1454.1 Q1239.7 1454.1 1237.88 1457.66 Q1236.07 1461.2 1236.07 1468.33 Q1236.07 1475.44 1237.88 1479.01 Q1239.7 1482.55 1243.32 1482.55 Q1246.95 1482.55 1248.76 1479.01 Q1250.58 1475.44 1250.58 1468.33 Q1250.58 1461.2 1248.76 1457.66 Q1246.95 1454.1 1243.32 1454.1 M1243.32 1450.39 Q1249.13 1450.39 1252.18 1455 Q1255.26 1459.58 1255.26 1468.33 Q1255.26 1477.06 1252.18 1481.67 Q1249.13 1486.25 1243.32 1486.25 Q1237.51 1486.25 1234.43 1481.67 Q1231.37 1477.06 1231.37 1468.33 Q1231.37 1459.58 1234.43 1455 Q1237.51 1450.39 1243.32 1450.39 Z" fill="#000000" fill-rule="nonzero" fill-opacity="1" /><path clip-path="url(#clip510)" d="M1263.48 1479.7 L1268.36 1479.7 L1268.36 1485.58 L1263.48 1485.58 L1263.48 1479.7 Z" fill="#000000" fill-rule="nonzero" fill-opacity="1" /><path clip-path="url(#clip510)" d="M1277.37 1451.02 L1299.59 1451.02 L1299.59 1453.01 L1287.04 1485.58 L1282.16 1485.58 L1293.96 1454.96 L1277.37 1454.96 L1277.37 1451.02 Z" fill="#000000" fill-rule="nonzero" fill-opacity="1" /><path clip-path="url(#clip510)" d="M1308.75 1451.02 L1327.11 1451.02 L1327.11 1454.96 L1313.04 1454.96 L1313.04 1463.43 Q1314.06 1463.08 1315.07 1462.92 Q1316.09 1462.73 1317.11 1462.73 Q1322.9 1462.73 1326.28 1465.9 Q1329.66 1469.08 1329.66 1474.49 Q1329.66 1480.07 1326.19 1483.17 Q1322.71 1486.25 1316.39 1486.25 Q1314.22 1486.25 1311.95 1485.88 Q1309.7 1485.51 1307.3 1484.77 L1307.3 1480.07 Q1309.38 1481.2 1311.6 1481.76 Q1313.82 1482.32 1316.3 1482.32 Q1320.31 1482.32 1322.64 1480.21 Q1324.98 1478.1 1324.98 1474.49 Q1324.98 1470.88 1322.64 1468.77 Q1320.31 1466.67 1316.3 1466.67 Q1314.43 1466.67 1312.55 1467.08 Q1310.7 1467.5 1308.75 1468.38 L1308.75 1451.02 Z" fill="#000000" fill-rule="nonzero" fill-opacity="1" /><path clip-path="url(#clip510)" d="M1596.5 1481.64 L1604.14 1481.64 L1604.14 1455.28 L1595.83 1456.95 L1595.83 1452.69 L1604.09 1451.02 L1608.77 1451.02 L1608.77 1481.64 L1616.41 1481.64 L1616.41 1485.58 L1596.5 1485.58 L1596.5 1481.64 Z" fill="#000000" fill-rule="nonzero" fill-opacity="1" /><path clip-path="url(#clip510)" d="M1625.85 1479.7 L1630.74 1479.7 L1630.74 1485.58 L1625.85 1485.58 L1625.85 1479.7 Z" fill="#000000" fill-rule="nonzero" fill-opacity="1" /><path clip-path="url(#clip510)" d="M1650.92 1454.1 Q1647.31 1454.1 1645.48 1457.66 Q1643.68 1461.2 1643.68 1468.33 Q1643.68 1475.44 1645.48 1479.01 Q1647.31 1482.55 1650.92 1482.55 Q1654.56 1482.55 1656.36 1479.01 Q1658.19 1475.44 1658.19 1468.33 Q1658.19 1461.2 1656.36 1457.66 Q1654.56 1454.1 1650.92 1454.1 M1650.92 1450.39 Q1656.73 1450.39 1659.79 1455 Q1662.87 1459.58 1662.87 1468.33 Q1662.87 1477.06 1659.79 1481.67 Q1656.73 1486.25 1650.92 1486.25 Q1645.11 1486.25 1642.03 1481.67 Q1638.98 1477.06 1638.98 1468.33 Q1638.98 1459.58 1642.03 1455 Q1645.11 1450.39 1650.92 1450.39 Z" fill="#000000" fill-rule="nonzero" fill-opacity="1" /><path clip-path="url(#clip510)" d="M1681.08 1454.1 Q1677.47 1454.1 1675.64 1457.66 Q1673.84 1461.2 1673.84 1468.33 Q1673.84 1475.44 1675.64 1479.01 Q1677.47 1482.55 1681.08 1482.55 Q1684.72 1482.55 1686.52 1479.01 Q1688.35 1475.44 1688.35 1468.33 Q1688.35 1461.2 1686.52 1457.66 Q1684.72 1454.1 1681.08 1454.1 M1681.08 1450.39 Q1686.89 1450.39 1689.95 1455 Q1693.03 1459.58 1693.03 1468.33 Q1693.03 1477.06 1689.95 1481.67 Q1686.89 1486.25 1681.08 1486.25 Q1675.27 1486.25 1672.2 1481.67 Q1669.14 1477.06 1669.14 1468.33 Q1669.14 1459.58 1672.2 1455 Q1675.27 1450.39 1681.08 1450.39 Z" fill="#000000" fill-rule="nonzero" fill-opacity="1" /><path clip-path="url(#clip510)" d="M1960.91 1481.64 L1968.55 1481.64 L1968.55 1455.28 L1960.24 1456.95 L1960.24 1452.69 L1968.51 1451.02 L1973.18 1451.02 L1973.18 1481.64 L1980.82 1481.64 L1980.82 1485.58 L1960.91 1485.58 L1960.91 1481.64 Z" fill="#000000" fill-rule="nonzero" fill-opacity="1" /><path clip-path="url(#clip510)" d="M1990.27 1479.7 L1995.15 1479.7 L1995.15 1485.58 L1990.27 1485.58 L1990.27 1479.7 Z" fill="#000000" fill-rule="nonzero" fill-opacity="1" /><path clip-path="url(#clip510)" d="M2009.36 1481.64 L2025.68 1481.64 L2025.68 1485.58 L2003.74 1485.58 L2003.74 1481.64 Q2006.4 1478.89 2010.98 1474.26 Q2015.59 1469.61 2016.77 1468.27 Q2019.02 1465.74 2019.9 1464.01 Q2020.8 1462.25 2020.8 1460.56 Q2020.8 1457.8 2018.85 1456.07 Q2016.93 1454.33 2013.83 1454.33 Q2011.63 1454.33 2009.18 1455.09 Q2006.75 1455.86 2003.97 1457.41 L2003.97 1452.69 Q2006.79 1451.55 2009.25 1450.97 Q2011.7 1450.39 2013.74 1450.39 Q2019.11 1450.39 2022.3 1453.08 Q2025.5 1455.77 2025.5 1460.26 Q2025.5 1462.39 2024.69 1464.31 Q2023.9 1466.2 2021.79 1468.8 Q2021.21 1469.47 2018.11 1472.69 Q2015.01 1475.88 2009.36 1481.64 Z" fill="#000000" fill-rule="nonzero" fill-opacity="1" /><path clip-path="url(#clip510)" d="M2035.54 1451.02 L2053.9 1451.02 L2053.9 1454.96 L2039.83 1454.96 L2039.83 1463.43 Q2040.84 1463.08 2041.86 1462.92 Q2042.88 1462.73 2043.9 1462.73 Q2049.69 1462.73 2053.07 1465.9 Q2056.45 1469.08 2056.45 1474.49 Q2056.45 1480.07 2052.97 1483.17 Q2049.5 1486.25 2043.18 1486.25 Q2041.01 1486.25 2038.74 1485.88 Q2036.49 1485.51 2034.08 1484.77 L2034.08 1480.07 Q2036.17 1481.2 2038.39 1481.76 Q2040.61 1482.32 2043.09 1482.32 Q2047.09 1482.32 2049.43 1480.21 Q2051.77 1478.1 2051.77 1474.49 Q2051.77 1470.88 2049.43 1468.77 Q2047.09 1466.67 2043.09 1466.67 Q2041.21 1466.67 2039.34 1467.08 Q2037.49 1467.5 2035.54 1468.38 L2035.54 1451.02 Z" fill="#000000" fill-rule="nonzero" fill-opacity="1" /><path clip-path="url(#clip510)" d="M1296.43 1545.45 L1276.16 1545.45 Q1276.64 1554.96 1278.83 1559 Q1281.57 1563.97 1286.31 1563.97 Q1291.09 1563.97 1293.73 1558.97 Q1296.05 1554.58 1296.43 1545.45 M1296.34 1540.03 Q1295.45 1531 1293.73 1527.81 Q1290.99 1522.78 1286.31 1522.78 Q1281.44 1522.78 1278.86 1527.75 Q1276.83 1531.76 1276.22 1540.03 L1296.34 1540.03 M1286.31 1518.01 Q1293.95 1518.01 1298.31 1524.76 Q1302.67 1531.47 1302.67 1543.38 Q1302.67 1555.25 1298.31 1562 Q1293.95 1568.78 1286.31 1568.78 Q1278.64 1568.78 1274.31 1562 Q1269.95 1555.25 1269.95 1543.38 Q1269.95 1531.47 1274.31 1524.76 Q1278.64 1518.01 1286.31 1518.01 Z" fill="#000000" fill-rule="nonzero" fill-opacity="1" /><polyline clip-path="url(#clip512)" style="stroke:#000000; stroke-linecap:round; stroke-linejoin:round; stroke-width:2; stroke-opacity:0.1; fill:none" points="219.866,1258.38 2352.76,1258.38 "/>
<polyline clip-path="url(#clip512)" style="stroke:#000000; stroke-linecap:round; stroke-linejoin:round; stroke-width:2; stroke-opacity:0.1; fill:none" points="219.866,964.18 2352.76,964.18 "/>
<polyline clip-path="url(#clip512)" style="stroke:#000000; stroke-linecap:round; stroke-linejoin:round; stroke-width:2; stroke-opacity:0.1; fill:none" points="219.866,669.981 2352.76,669.981 "/>
<polyline clip-path="url(#clip512)" style="stroke:#000000; stroke-linecap:round; stroke-linejoin:round; stroke-width:2; stroke-opacity:0.1; fill:none" points="219.866,375.781 2352.76,375.781 "/>
<polyline clip-path="url(#clip512)" style="stroke:#000000; stroke-linecap:round; stroke-linejoin:round; stroke-width:2; stroke-opacity:0.1; fill:none" points="219.866,81.5813 2352.76,81.5813 "/>
<polyline clip-path="url(#clip510)" style="stroke:#000000; stroke-linecap:round; stroke-linejoin:round; stroke-width:4; stroke-opacity:1; fill:none" points="219.866,1423.18 219.866,47.2441 "/>
<polyline clip-path="url(#clip510)" style="stroke:#000000; stroke-linecap:round; stroke-linejoin:round; stroke-width:4; stroke-opacity:1; fill:none" points="219.866,1258.38 238.764,1258.38 "/>
<polyline clip-path="url(#clip510)" style="stroke:#000000; stroke-linecap:round; stroke-linejoin:round; stroke-width:4; stroke-opacity:1; fill:none" points="219.866,964.18 238.764,964.18 "/>
<polyline clip-path="url(#clip510)" style="stroke:#000000; stroke-linecap:round; stroke-linejoin:round; stroke-width:4; stroke-opacity:1; fill:none" points="219.866,669.981 238.764,669.981 "/>
<polyline clip-path="url(#clip510)" style="stroke:#000000; stroke-linecap:round; stroke-linejoin:round; stroke-width:4; stroke-opacity:1; fill:none" points="219.866,375.781 238.764,375.781 "/>
<polyline clip-path="url(#clip510)" style="stroke:#000000; stroke-linecap:round; stroke-linejoin:round; stroke-width:4; stroke-opacity:1; fill:none" points="219.866,81.5813 238.764,81.5813 "/>
<path clip-path="url(#clip510)" d="M128.288 1244.18 Q124.677 1244.18 122.848 1247.74 Q121.043 1251.29 121.043 1258.41 Q121.043 1265.52 122.848 1269.09 Q124.677 1272.63 128.288 1272.63 Q131.922 1272.63 133.728 1269.09 Q135.556 1265.52 135.556 1258.41 Q135.556 1251.29 133.728 1247.74 Q131.922 1244.18 128.288 1244.18 M128.288 1240.47 Q134.098 1240.47 137.154 1245.08 Q140.232 1249.66 140.232 1258.41 Q140.232 1267.14 137.154 1271.75 Q134.098 1276.33 128.288 1276.33 Q122.478 1276.33 119.399 1271.75 Q116.343 1267.14 116.343 1258.41 Q116.343 1249.66 119.399 1245.08 Q122.478 1240.47 128.288 1240.47 Z" fill="#000000" fill-rule="nonzero" fill-opacity="1" /><path clip-path="url(#clip510)" d="M148.45 1269.78 L153.334 1269.78 L153.334 1275.66 L148.45 1275.66 L148.45 1269.78 Z" fill="#000000" fill-rule="nonzero" fill-opacity="1" /><path clip-path="url(#clip510)" d="M167.547 1271.72 L183.866 1271.72 L183.866 1275.66 L161.922 1275.66 L161.922 1271.72 Q164.584 1268.97 169.167 1264.34 Q173.774 1259.69 174.954 1258.35 Q177.2 1255.82 178.079 1254.09 Q178.982 1252.33 178.982 1250.64 Q178.982 1247.88 177.038 1246.15 Q175.116 1244.41 172.014 1244.41 Q169.815 1244.41 167.362 1245.17 Q164.931 1245.94 162.153 1247.49 L162.153 1242.77 Q164.977 1241.63 167.431 1241.05 Q169.885 1240.47 171.922 1240.47 Q177.292 1240.47 180.487 1243.16 Q183.681 1245.85 183.681 1250.34 Q183.681 1252.47 182.871 1254.39 Q182.084 1256.28 179.977 1258.88 Q179.399 1259.55 176.297 1262.77 Q173.195 1265.96 167.547 1271.72 Z" fill="#000000" fill-rule="nonzero" fill-opacity="1" /><path clip-path="url(#clip510)" d="M126.205 949.979 Q122.593 949.979 120.765 953.544 Q118.959 957.085 118.959 964.215 Q118.959 971.321 120.765 974.886 Q122.593 978.428 126.205 978.428 Q129.839 978.428 131.644 974.886 Q133.473 971.321 133.473 964.215 Q133.473 957.085 131.644 953.544 Q129.839 949.979 126.205 949.979 M126.205 946.275 Q132.015 946.275 135.07 950.882 Q138.149 955.465 138.149 964.215 Q138.149 972.942 135.07 977.548 Q132.015 982.132 126.205 982.132 Q120.394 982.132 117.316 977.548 Q114.26 972.942 114.26 964.215 Q114.26 955.465 117.316 950.882 Q120.394 946.275 126.205 946.275 Z" fill="#000000" fill-rule="nonzero" fill-opacity="1" /><path clip-path="url(#clip510)" d="M146.366 975.581 L151.251 975.581 L151.251 981.46 L146.366 981.46 L146.366 975.581 Z" fill="#000000" fill-rule="nonzero" fill-opacity="1" /><path clip-path="url(#clip510)" d="M174.283 950.974 L162.477 969.423 L174.283 969.423 L174.283 950.974 M173.056 946.9 L178.936 946.9 L178.936 969.423 L183.866 969.423 L183.866 973.312 L178.936 973.312 L178.936 981.46 L174.283 981.46 L174.283 973.312 L158.681 973.312 L158.681 968.798 L173.056 946.9 Z" fill="#000000" fill-rule="nonzero" fill-opacity="1" /><path clip-path="url(#clip510)" d="M126.529 655.779 Q122.918 655.779 121.089 659.344 Q119.283 662.886 119.283 670.015 Q119.283 677.122 121.089 680.687 Q122.918 684.228 126.529 684.228 Q130.163 684.228 131.968 680.687 Q133.797 677.122 133.797 670.015 Q133.797 662.886 131.968 659.344 Q130.163 655.779 126.529 655.779 M126.529 652.076 Q132.339 652.076 135.394 656.682 Q138.473 661.265 138.473 670.015 Q138.473 678.742 135.394 683.349 Q132.339 687.932 126.529 687.932 Q120.718 687.932 117.64 683.349 Q114.584 678.742 114.584 670.015 Q114.584 661.265 117.64 656.682 Q120.718 652.076 126.529 652.076 Z" fill="#000000" fill-rule="nonzero" fill-opacity="1" /><path clip-path="url(#clip510)" d="M146.691 681.381 L151.575 681.381 L151.575 687.261 L146.691 687.261 L146.691 681.381 Z" fill="#000000" fill-rule="nonzero" fill-opacity="1" /><path clip-path="url(#clip510)" d="M172.339 668.117 Q169.19 668.117 167.339 670.27 Q165.51 672.423 165.51 676.173 Q165.51 679.9 167.339 682.075 Q169.19 684.228 172.339 684.228 Q175.487 684.228 177.315 682.075 Q179.167 679.9 179.167 676.173 Q179.167 672.423 177.315 670.27 Q175.487 668.117 172.339 668.117 M181.621 653.464 L181.621 657.724 Q179.862 656.89 178.056 656.451 Q176.274 656.011 174.514 656.011 Q169.885 656.011 167.431 659.136 Q165.001 662.261 164.653 668.58 Q166.019 666.566 168.079 665.501 Q170.139 664.413 172.616 664.413 Q177.825 664.413 180.834 667.585 Q183.866 670.733 183.866 676.173 Q183.866 681.497 180.718 684.714 Q177.57 687.932 172.339 687.932 Q166.343 687.932 163.172 683.349 Q160.001 678.742 160.001 670.015 Q160.001 661.821 163.89 656.96 Q167.778 652.076 174.329 652.076 Q176.089 652.076 177.871 652.423 Q179.676 652.77 181.621 653.464 Z" fill="#000000" fill-rule="nonzero" fill-opacity="1" /><path clip-path="url(#clip510)" d="M126.783 361.58 Q123.172 361.58 121.343 365.144 Q119.538 368.686 119.538 375.816 Q119.538 382.922 121.343 386.487 Q123.172 390.029 126.783 390.029 Q130.417 390.029 132.223 386.487 Q134.052 382.922 134.052 375.816 Q134.052 368.686 132.223 365.144 Q130.417 361.58 126.783 361.58 M126.783 357.876 Q132.593 357.876 135.649 362.482 Q138.728 367.066 138.728 375.816 Q138.728 384.542 135.649 389.149 Q132.593 393.732 126.783 393.732 Q120.973 393.732 117.894 389.149 Q114.839 384.542 114.839 375.816 Q114.839 367.066 117.894 362.482 Q120.973 357.876 126.783 357.876 Z" fill="#000000" fill-rule="nonzero" fill-opacity="1" /><path clip-path="url(#clip510)" d="M146.945 387.181 L151.829 387.181 L151.829 393.061 L146.945 393.061 L146.945 387.181 Z" fill="#000000" fill-rule="nonzero" fill-opacity="1" /><path clip-path="url(#clip510)" d="M172.014 376.649 Q168.681 376.649 166.76 378.431 Q164.862 380.214 164.862 383.339 Q164.862 386.464 166.76 388.246 Q168.681 390.029 172.014 390.029 Q175.348 390.029 177.269 388.246 Q179.19 386.441 179.19 383.339 Q179.19 380.214 177.269 378.431 Q175.371 376.649 172.014 376.649 M167.339 374.658 Q164.329 373.918 162.64 371.857 Q160.973 369.797 160.973 366.834 Q160.973 362.691 163.913 360.283 Q166.876 357.876 172.014 357.876 Q177.176 357.876 180.116 360.283 Q183.056 362.691 183.056 366.834 Q183.056 369.797 181.366 371.857 Q179.7 373.918 176.714 374.658 Q180.093 375.445 181.968 377.737 Q183.866 380.029 183.866 383.339 Q183.866 388.362 180.788 391.047 Q177.732 393.732 172.014 393.732 Q166.297 393.732 163.218 391.047 Q160.163 388.362 160.163 383.339 Q160.163 380.029 162.061 377.737 Q163.959 375.445 167.339 374.658 M165.626 367.274 Q165.626 369.959 167.292 371.464 Q168.982 372.968 172.014 372.968 Q175.024 372.968 176.714 371.464 Q178.426 369.959 178.426 367.274 Q178.426 364.589 176.714 363.084 Q175.024 361.58 172.014 361.58 Q168.982 361.58 167.292 363.084 Q165.626 364.589 165.626 367.274 Z" fill="#000000" fill-rule="nonzero" fill-opacity="1" /><path clip-path="url(#clip510)" d="M117.501 94.9261 L125.14 94.9261 L125.14 68.5605 L116.83 70.2272 L116.83 65.9679 L125.093 64.3013 L129.769 64.3013 L129.769 94.9261 L137.408 94.9261 L137.408 98.8613 L117.501 98.8613 L117.501 94.9261 Z" fill="#000000" fill-rule="nonzero" fill-opacity="1" /><path clip-path="url(#clip510)" d="M146.853 92.9817 L151.737 92.9817 L151.737 98.8613 L146.853 98.8613 L146.853 92.9817 Z" fill="#000000" fill-rule="nonzero" fill-opacity="1" /><path clip-path="url(#clip510)" d="M171.922 67.38 Q168.311 67.38 166.482 70.9448 Q164.677 74.4864 164.677 81.616 Q164.677 88.7224 166.482 92.2872 Q168.311 95.8289 171.922 95.8289 Q175.556 95.8289 177.362 92.2872 Q179.19 88.7224 179.19 81.616 Q179.19 74.4864 177.362 70.9448 Q175.556 67.38 171.922 67.38 M171.922 63.6763 Q177.732 63.6763 180.788 68.2827 Q183.866 72.866 183.866 81.616 Q183.866 90.3428 180.788 94.9493 Q177.732 99.5326 171.922 99.5326 Q166.112 99.5326 163.033 94.9493 Q159.978 90.3428 159.978 81.616 Q159.978 72.866 163.033 68.2827 Q166.112 63.6763 171.922 63.6763 Z" fill="#000000" fill-rule="nonzero" fill-opacity="1" /><path clip-path="url(#clip510)" d="M33.7671 725.138 L14.479 725.138 L14.479 719.282 L64.0042 719.282 L64.0042 725.138 L58.657 725.138 Q61.8398 726.984 63.3994 729.817 Q64.9272 732.618 64.9272 736.565 Q64.9272 743.026 59.771 747.1 Q54.6147 751.142 46.212 751.142 Q37.8093 751.142 32.6531 747.1 Q27.4968 743.026 27.4968 736.565 Q27.4968 732.618 29.0564 729.817 Q30.5842 726.984 33.7671 725.138 M46.212 745.095 Q52.6732 745.095 56.3653 742.453 Q60.0256 739.779 60.0256 735.132 Q60.0256 730.485 56.3653 727.812 Q52.6732 725.138 46.212 725.138 Q39.7508 725.138 36.0905 727.812 Q32.3984 730.485 32.3984 735.132 Q32.3984 739.779 36.0905 742.453 Q39.7508 745.095 46.212 745.095 Z" fill="#000000" fill-rule="nonzero" fill-opacity="1" /><circle clip-path="url(#clip512)" cx="280.231" cy="1384.24" r="14.4" fill="#009af9" fill-rule="evenodd" fill-opacity="1" stroke="#000000" stroke-opacity="1" stroke-width="3.2"/>
<circle clip-path="url(#clip512)" cx="371.693" cy="1201.39" r="14.4" fill="#009af9" fill-rule="evenodd" fill-opacity="1" stroke="#000000" stroke-opacity="1" stroke-width="3.2"/>
<circle clip-path="url(#clip512)" cx="463.155" cy="1019.45" r="14.4" fill="#009af9" fill-rule="evenodd" fill-opacity="1" stroke="#000000" stroke-opacity="1" stroke-width="3.2"/>
<circle clip-path="url(#clip512)" cx="554.617" cy="844.824" r="14.4" fill="#009af9" fill-rule="evenodd" fill-opacity="1" stroke="#000000" stroke-opacity="1" stroke-width="3.2"/>
<circle clip-path="url(#clip512)" cx="646.078" cy="690.981" r="14.4" fill="#009af9" fill-rule="evenodd" fill-opacity="1" stroke="#000000" stroke-opacity="1" stroke-width="3.2"/>
<circle clip-path="url(#clip512)" cx="737.54" cy="549.75" r="14.4" fill="#009af9" fill-rule="evenodd" fill-opacity="1" stroke="#000000" stroke-opacity="1" stroke-width="3.2"/>
<circle clip-path="url(#clip512)" cx="829.002" cy="423.074" r="14.4" fill="#009af9" fill-rule="evenodd" fill-opacity="1" stroke="#000000" stroke-opacity="1" stroke-width="3.2"/>
<circle clip-path="url(#clip512)" cx="920.464" cy="313.765" r="14.4" fill="#009af9" fill-rule="evenodd" fill-opacity="1" stroke="#000000" stroke-opacity="1" stroke-width="3.2"/>
<circle clip-path="url(#clip512)" cx="1011.93" cy="224.034" r="14.4" fill="#009af9" fill-rule="evenodd" fill-opacity="1" stroke="#000000" stroke-opacity="1" stroke-width="3.2"/>
<circle clip-path="url(#clip512)" cx="1103.39" cy="155.531" r="14.4" fill="#009af9" fill-rule="evenodd" fill-opacity="1" stroke="#000000" stroke-opacity="1" stroke-width="3.2"/>
<circle clip-path="url(#clip512)" cx="1194.85" cy="109.378" r="14.4" fill="#009af9" fill-rule="evenodd" fill-opacity="1" stroke="#000000" stroke-opacity="1" stroke-width="3.2"/>
<circle clip-path="url(#clip512)" cx="1286.31" cy="86.2045" r="14.4" fill="#009af9" fill-rule="evenodd" fill-opacity="1" stroke="#000000" stroke-opacity="1" stroke-width="3.2"/>
<circle clip-path="url(#clip512)" cx="1377.77" cy="86.1857" r="14.4" fill="#009af9" fill-rule="evenodd" fill-opacity="1" stroke="#000000" stroke-opacity="1" stroke-width="3.2"/>
<circle clip-path="url(#clip512)" cx="1469.23" cy="109.092" r="14.4" fill="#009af9" fill-rule="evenodd" fill-opacity="1" stroke="#000000" stroke-opacity="1" stroke-width="3.2"/>
<circle clip-path="url(#clip512)" cx="1560.7" cy="154.337" r="14.4" fill="#009af9" fill-rule="evenodd" fill-opacity="1" stroke="#000000" stroke-opacity="1" stroke-width="3.2"/>
<circle clip-path="url(#clip512)" cx="1652.16" cy="222.072" r="14.4" fill="#009af9" fill-rule="evenodd" fill-opacity="1" stroke="#000000" stroke-opacity="1" stroke-width="3.2"/>
<circle clip-path="url(#clip512)" cx="1743.62" cy="311.586" r="14.4" fill="#009af9" fill-rule="evenodd" fill-opacity="1" stroke="#000000" stroke-opacity="1" stroke-width="3.2"/>
<circle clip-path="url(#clip512)" cx="1835.08" cy="419.445" r="14.4" fill="#009af9" fill-rule="evenodd" fill-opacity="1" stroke="#000000" stroke-opacity="1" stroke-width="3.2"/>
<circle clip-path="url(#clip512)" cx="1926.54" cy="546.321" r="14.4" fill="#009af9" fill-rule="evenodd" fill-opacity="1" stroke="#000000" stroke-opacity="1" stroke-width="3.2"/>
<circle clip-path="url(#clip512)" cx="2018.01" cy="687.996" r="14.4" fill="#009af9" fill-rule="evenodd" fill-opacity="1" stroke="#000000" stroke-opacity="1" stroke-width="3.2"/>
<circle clip-path="url(#clip512)" cx="2109.47" cy="844.356" r="14.4" fill="#009af9" fill-rule="evenodd" fill-opacity="1" stroke="#000000" stroke-opacity="1" stroke-width="3.2"/>
<circle clip-path="url(#clip512)" cx="2200.93" cy="1011.39" r="14.4" fill="#009af9" fill-rule="evenodd" fill-opacity="1" stroke="#000000" stroke-opacity="1" stroke-width="3.2"/>
<circle clip-path="url(#clip512)" cx="2292.39" cy="1186.88" r="14.4" fill="#009af9" fill-rule="evenodd" fill-opacity="1" stroke="#000000" stroke-opacity="1" stroke-width="3.2"/>
<path clip-path="url(#clip510)" d="M1974.32 196.789 L2281.66 196.789 L2281.66 93.1086 L1974.32 93.1086  Z" fill="#ffffff" fill-rule="evenodd" fill-opacity="1"/>
<polyline clip-path="url(#clip510)" style="stroke:#000000; stroke-linecap:round; stroke-linejoin:round; stroke-width:4; stroke-opacity:1; fill:none" points="1974.32,196.789 2281.66,196.789 2281.66,93.1086 1974.32,93.1086 1974.32,196.789 "/>
<circle clip-path="url(#clip510)" cx="2069.12" cy="144.949" r="20.48" fill="#009af9" fill-rule="evenodd" fill-opacity="1" stroke="#000000" stroke-opacity="1" stroke-width="4.55111"/>
<path clip-path="url(#clip510)" d="M2171.53 140.377 L2177.2 156.395 L2185.3 136.303 L2189.81 136.303 L2179.33 162.229 L2179.33 172.09 L2175.07 172.09 L2175.07 162.229 L2168.26 142.877 Q2167.24 139.96 2165.04 139.96 L2163.91 139.96 L2163.91 136.303 L2165.53 136.303 Q2170.09 136.303 2171.53 140.377 Z" fill="#000000" fill-rule="nonzero" fill-opacity="1" /><path clip-path="url(#clip510)" d="M2196.25 140.701 L2225.92 140.701 L2225.92 144.59 L2196.25 144.59 L2196.25 140.701 M2196.25 150.145 L2225.92 150.145 L2225.92 154.081 L2196.25 154.081 L2196.25 150.145 Z" fill="#000000" fill-rule="nonzero" fill-opacity="1" /><path clip-path="url(#clip510)" d="M2246.02 130.747 Q2242.41 130.747 2240.58 134.312 Q2238.77 137.854 2238.77 144.983 Q2238.77 152.09 2240.58 155.655 Q2242.41 159.196 2246.02 159.196 Q2249.65 159.196 2251.46 155.655 Q2253.28 152.09 2253.28 144.983 Q2253.28 137.854 2251.46 134.312 Q2249.65 130.747 2246.02 130.747 M2246.02 127.044 Q2251.83 127.044 2254.88 131.65 Q2257.96 136.233 2257.96 144.983 Q2257.96 153.71 2254.88 158.317 Q2251.83 162.9 2246.02 162.9 Q2240.21 162.9 2237.13 158.317 Q2234.07 153.71 2234.07 144.983 Q2234.07 136.233 2237.13 131.65 Q2240.21 127.044 2246.02 127.044 Z" fill="#000000" fill-rule="nonzero" fill-opacity="1" /></svg>