<?xml version="1.0" encoding="utf-8"?>
<svg xmlns="http://www.w3.org/2000/svg" xmlns:xlink="http://www.w3.org/1999/xlink" width="600" height="400" viewBox="0 0 2400 1600">
<defs>
  <clipPath id="clip740">
    <rect x="0" y="0" width="2400" height="1600"/>
  </clipPath>
</defs>
<path clip-path="url(#clip740)" d="M0 1600 L2400 1600 L2400 0 L0 0  Z" fill="#ffffff" fill-rule="evenodd" fill-opacity="1"/>
<defs>
  <clipPath id="clip741">
    <rect x="480" y="0" width="1681" height="1600"/>
  </clipPath>
</defs>
<path clip-path="url(#clip740)" d="M325.622 1410.9 L2352.76 1410.9 L2352.76 47.2441 L325.622 47.2441  Z" fill="#ffffff" fill-rule="evenodd" fill-opacity="1"/>
<defs>
  <clipPath id="clip742">
    <rect x="325" y="47" width="2028" height="1365"/>
  </clipPath>
</defs>
<polyline clip-path="url(#clip742)" style="stroke:#000000; stroke-linecap:round; stroke-linejoin:round; stroke-width:2; stroke-opacity:0.1; fill:none" points="382.994,1410.9 382.994,47.2441 "/>
<polyline clip-path="url(#clip742)" style="stroke:#000000; stroke-linecap:round; stroke-linejoin:round; stroke-width:2; stroke-opacity:0.1; fill:none" points="1508.61,1410.9 1508.61,47.2441 "/>
<polyline clip-path="url(#clip740)" style="stroke:#000000; stroke-linecap:round; stroke-linejoin:round; stroke-width:4; stroke-opacity:1; fill:none" points="325.622,1410.9 2352.76,1410.9 "/>
<polyline clip-path="url(#clip740)" style="stroke:#000000; stroke-linecap:round; stroke-linejoin:round; stroke-width:4; stroke-opacity:1; fill:none" points="382.994,1410.9 382.994,1392 "/>
<polyline clip-path="url(#clip740)" style="stroke:#000000; stroke-linecap:round; stroke-linejoin:round; stroke-width:4; stroke-opacity:1; fill:none" points="1508.61,1410.9 1508.61,1392 "/>
<path clip-path="url(#clip740)" d="M347.976 1485.02 L355.615 1485.02 L355.615 1458.66 L347.305 1460.32 L347.305 1456.06 L355.569 1454.4 L360.245 1454.4 L360.245 1485.02 L367.884 1485.02 L367.884 1488.96 L347.976 1488.96 L347.976 1485.02 Z" fill="#000000" fill-rule="nonzero" fill-opacity="1" /><path clip-path="url(#clip740)" d="M387.328 1457.48 Q383.717 1457.48 381.888 1461.04 Q380.083 1464.58 380.083 1471.71 Q380.083 1478.82 381.888 1482.38 Q383.717 1485.92 387.328 1485.92 Q390.962 1485.92 392.768 1482.38 Q394.596 1478.82 394.596 1471.71 Q394.596 1464.58 392.768 1461.04 Q390.962 1457.48 387.328 1457.48 M387.328 1453.77 Q393.138 1453.77 396.194 1458.38 Q399.272 1462.96 399.272 1471.71 Q399.272 1480.44 396.194 1485.04 Q393.138 1489.63 387.328 1489.63 Q381.518 1489.63 378.439 1485.04 Q375.384 1480.44 375.384 1471.71 Q375.384 1462.96 378.439 1458.38 Q381.518 1453.77 387.328 1453.77 Z" fill="#000000" fill-rule="nonzero" fill-opacity="1" /><path clip-path="url(#clip740)" d="M408.977 1435.97 Q406.043 1435.97 404.557 1438.86 Q403.09 1441.74 403.09 1447.53 Q403.09 1453.31 404.557 1456.2 Q406.043 1459.08 408.977 1459.08 Q411.93 1459.08 413.397 1456.2 Q414.883 1453.31 414.883 1447.53 Q414.883 1441.74 413.397 1438.86 Q411.93 1435.97 408.977 1435.97 M408.977 1432.96 Q413.698 1432.96 416.181 1436.7 Q418.682 1440.43 418.682 1447.53 Q418.682 1454.62 416.181 1458.37 Q413.698 1462.09 408.977 1462.09 Q404.256 1462.09 401.755 1458.37 Q399.272 1454.62 399.272 1447.53 Q399.272 1440.43 401.755 1436.7 Q404.256 1432.96 408.977 1432.96 Z" fill="#000000" fill-rule="nonzero" fill-opacity="1" /><path clip-path="url(#clip740)" d="M1474.94 1485.02 L1482.58 1485.02 L1482.58 1458.66 L1474.27 1460.32 L1474.27 1456.06 L1482.53 1454.4 L1487.21 1454.4 L1487.21 1485.02 L1494.85 1485.02 L1494.85 1488.96 L1474.94 1488.96 L1474.94 1485.02 Z" fill="#000000" fill-rule="nonzero" fill-opacity="1" /><path clip-path="url(#clip740)" d="M1514.29 1457.48 Q1510.68 1457.48 1508.85 1461.04 Q1507.05 1464.58 1507.05 1471.71 Q1507.05 1478.82 1508.85 1482.38 Q1510.68 1485.92 1514.29 1485.92 Q1517.92 1485.92 1519.73 1482.38 Q1521.56 1478.82 1521.56 1471.71 Q1521.56 1464.58 1519.73 1461.04 Q1517.92 1457.48 1514.29 1457.48 M1514.29 1453.77 Q1520.1 1453.77 1523.16 1458.38 Q1526.23 1462.96 1526.23 1471.71 Q1526.23 1480.44 1523.16 1485.04 Q1520.1 1489.63 1514.29 1489.63 Q1508.48 1489.63 1505.4 1485.04 Q1502.35 1480.44 1502.35 1471.71 Q1502.35 1462.96 1505.4 1458.38 Q1508.48 1453.77 1514.29 1453.77 Z" fill="#000000" fill-rule="nonzero" fill-opacity="1" /><path clip-path="url(#clip740)" d="M1526.78 1458.35 L1532.99 1458.35 L1532.99 1436.93 L1526.23 1438.28 L1526.23 1434.82 L1532.95 1433.47 L1536.75 1433.47 L1536.75 1458.35 L1542.95 1458.35 L1542.95 1461.55 L1526.78 1461.55 L1526.78 1458.35 Z" fill="#000000" fill-rule="nonzero" fill-opacity="1" /><path clip-path="url(#clip740)" d="M1354.12 1552.67 L1354.12 1574.19 L1348.26 1574.19 L1348.26 1552.86 Q1348.26 1547.8 1346.29 1545.29 Q1344.31 1542.77 1340.37 1542.77 Q1335.62 1542.77 1332.89 1545.79 Q1330.15 1548.82 1330.15 1554.04 L1330.15 1574.19 L1324.26 1574.19 L1324.26 1538.54 L1330.15 1538.54 L1330.15 1544.08 Q1332.25 1540.86 1335.08 1539.27 Q1337.95 1537.68 1341.67 1537.68 Q1347.81 1537.68 1350.97 1541.5 Q1354.12 1545.29 1354.12 1552.67 Z" fill="#000000" fill-rule="nonzero" fill-opacity="1" /><polyline clip-path="url(#clip742)" style="stroke:#000000; stroke-linecap:round; stroke-linejoin:round; stroke-width:2; stroke-opacity:0.1; fill:none" points="325.622,1258.33 2352.76,1258.33 "/>
<polyline clip-path="url(#clip742)" style="stroke:#000000; stroke-linecap:round; stroke-linejoin:round; stroke-width:2; stroke-opacity:0.1; fill:none" points="325.622,501.13 2352.76,501.13 "/>
<polyline clip-path="url(#clip740)" style="stroke:#000000; stroke-linecap:round; stroke-linejoin:round; stroke-width:4; stroke-opacity:1; fill:none" points="325.622,1410.9 325.622,47.2441 "/>
<polyline clip-path="url(#clip740)" style="stroke:#000000; stroke-linecap:round; stroke-linejoin:round; stroke-width:4; stroke-opacity:1; fill:none" points="325.622,1258.33 344.519,1258.33 "/>
<polyline clip-path="url(#clip740)" style="stroke:#000000; stroke-linecap:round; stroke-linejoin:round; stroke-width:4; stroke-opacity:1; fill:none" points="325.622,501.13 344.519,501.13 "/>
<path clip-path="url(#clip740)" d="M187.789 1278.12 L195.428 1278.12 L195.428 1251.76 L187.118 1253.43 L187.118 1249.17 L195.382 1247.5 L200.058 1247.5 L200.058 1278.12 L207.697 1278.12 L207.697 1282.06 L187.789 1282.06 L187.789 1278.12 Z" fill="#000000" fill-rule="nonzero" fill-opacity="1" /><path clip-path="url(#clip740)" d="M227.141 1250.58 Q223.53 1250.58 221.701 1254.14 Q219.896 1257.69 219.896 1264.81 Q219.896 1271.92 221.701 1275.49 Q223.53 1279.03 227.141 1279.03 Q230.775 1279.03 232.581 1275.49 Q234.409 1271.92 234.409 1264.81 Q234.409 1257.69 232.581 1254.14 Q230.775 1250.58 227.141 1250.58 M227.141 1246.87 Q232.951 1246.87 236.007 1251.48 Q239.085 1256.06 239.085 1264.81 Q239.085 1273.54 236.007 1278.15 Q232.951 1282.73 227.141 1282.73 Q221.331 1282.73 218.252 1278.15 Q215.197 1273.54 215.197 1264.81 Q215.197 1256.06 218.252 1251.48 Q221.331 1246.87 227.141 1246.87 Z" fill="#000000" fill-rule="nonzero" fill-opacity="1" /><path clip-path="url(#clip740)" d="M239.085 1240.98 L263.197 1240.98 L263.197 1244.17 L239.085 1244.17 L239.085 1240.98 Z" fill="#000000" fill-rule="nonzero" fill-opacity="1" /><path clip-path="url(#clip740)" d="M281.835 1229.88 L272.243 1244.87 L281.835 1244.87 L281.835 1229.88 M280.839 1226.57 L285.616 1226.57 L285.616 1244.87 L289.622 1244.87 L289.622 1248.03 L285.616 1248.03 L285.616 1254.65 L281.835 1254.65 L281.835 1248.03 L269.159 1248.03 L269.159 1244.36 L280.839 1226.57 Z" fill="#000000" fill-rule="nonzero" fill-opacity="1" /><path clip-path="url(#clip740)" d="M189.482 520.922 L197.121 520.922 L197.121 494.556 L188.811 496.223 L188.811 491.964 L197.075 490.297 L201.75 490.297 L201.75 520.922 L209.389 520.922 L209.389 524.857 L189.482 524.857 L189.482 520.922 Z" fill="#000000" fill-rule="nonzero" fill-opacity="1" /><path clip-path="url(#clip740)" d="M228.834 493.376 Q225.223 493.376 223.394 496.941 Q221.588 500.482 221.588 507.612 Q221.588 514.718 223.394 518.283 Q225.223 521.825 228.834 521.825 Q232.468 521.825 234.273 518.283 Q236.102 514.718 236.102 507.612 Q236.102 500.482 234.273 496.941 Q232.468 493.376 228.834 493.376 M228.834 489.672 Q234.644 489.672 237.699 494.279 Q240.778 498.862 240.778 507.612 Q240.778 516.339 237.699 520.945 Q234.644 525.529 228.834 525.529 Q223.024 525.529 219.945 520.945 Q216.889 516.339 216.889 507.612 Q216.889 498.862 219.945 494.279 Q223.024 489.672 228.834 489.672 Z" fill="#000000" fill-rule="nonzero" fill-opacity="1" /><path clip-path="url(#clip740)" d="M240.778 483.774 L264.89 483.774 L264.89 486.971 L240.778 486.971 L240.778 483.774 Z" fill="#000000" fill-rule="nonzero" fill-opacity="1" /><path clip-path="url(#clip740)" d="M276.362 494.25 L289.622 494.25 L289.622 497.447 L271.792 497.447 L271.792 494.25 Q273.955 492.011 277.679 488.25 Q281.422 484.469 282.381 483.379 Q284.205 481.329 284.92 479.918 Q285.653 478.489 285.653 477.116 Q285.653 474.878 284.074 473.467 Q282.512 472.056 279.992 472.056 Q278.205 472.056 276.212 472.677 Q274.237 473.298 271.98 474.558 L271.98 470.721 Q274.275 469.799 276.268 469.329 Q278.262 468.859 279.917 468.859 Q284.28 468.859 286.876 471.041 Q289.471 473.222 289.471 476.871 Q289.471 478.601 288.813 480.163 Q288.174 481.705 286.462 483.811 Q285.992 484.357 283.472 486.971 Q280.951 489.566 276.362 494.25 Z" fill="#000000" fill-rule="nonzero" fill-opacity="1" /><path clip-path="url(#clip740)" d="M31.6865 881.637 Q33.4175 881.637 34.3434 882.684 Q35.2291 883.731 35.2291 885.099 Q35.2291 886.428 34.3434 887.475 Q33.4175 888.481 31.767 888.481 Q30.6398 888.481 29.6333 887.756 Q28.5866 887.032 28.3854 885.421 Q26.6543 887.434 26.6543 890.615 Q26.6543 892.185 27.2582 893.272 Q27.8218 894.318 29.5528 895.365 Q31.2839 896.412 34.8265 897.136 Q38.3692 897.821 43.8844 898.264 L64.4157 899.834 Q71.3802 900.317 85.0677 902.048 Q98.7149 903.739 101.855 904.544 Q104.834 905.268 107.29 906.355 Q109.745 907.442 111.879 909.052 Q114.053 910.663 115.261 912.998 Q116.468 915.333 116.468 918.151 Q116.468 921.895 114.496 924.552 Q112.563 927.209 109.625 927.209 Q107.894 927.209 106.968 926.162 Q106.082 925.115 106.082 923.746 Q106.082 922.418 106.968 921.411 Q107.894 920.365 109.544 920.365 Q110.671 920.365 111.678 921.089 Q112.724 921.814 112.926 923.424 Q114.657 921.411 114.657 918.151 Q114.657 915.655 113.208 914.004 Q111.758 912.354 107.894 911.146 Q104.029 909.938 97.4267 909.415 L76.8954 907.845 Q69.6491 907.321 56.1629 905.631 Q42.6767 903.9 39.1341 903.135 Q24.8427 899.914 24.8427 890.695 Q24.8427 886.951 26.8153 884.294 Q28.7477 881.637 31.6865 881.637 Z" fill="#000000" fill-rule="nonzero" fill-opacity="1" /><path clip-path="url(#clip740)" d="M153.402 918.835 Q146.616 918.835 142.919 917.122 Q137.418 914.732 137.418 909.096 Q137.418 907.902 137.756 906.662 Q138.072 905.399 139.312 903.821 Q140.552 902.22 142.581 901.251 Q146.504 899.402 153.402 899.402 Q160.143 899.402 163.817 901.116 Q169.183 903.618 169.183 909.141 Q169.183 911.216 168.123 913.335 Q167.064 915.431 164.516 916.761 Q160.706 918.835 153.402 918.835 M152.838 915.003 Q159.805 915.003 162.578 914.507 Q165.576 913.943 166.883 912.41 Q168.168 910.855 168.168 909.141 Q168.168 907.293 166.793 905.76 Q165.396 904.204 162.397 903.731 Q159.444 903.212 152.838 903.235 Q146.413 903.235 143.843 903.686 Q140.845 904.295 139.65 905.918 Q138.433 907.518 138.433 909.141 Q138.433 909.75 138.613 910.404 Q138.793 911.035 139.312 911.959 Q139.831 912.884 141.116 913.605 Q142.401 914.304 144.339 914.642 Q146.842 915.003 152.838 915.003 Z" fill="#000000" fill-rule="nonzero" fill-opacity="1" /><path clip-path="url(#clip740)" d="M-7.28521 916.763 L-8.72804 916.763 Q-8.72804 911.217 -11.6813 908.354 Q-11.6813 907.565 -11.501 907.43 Q-11.3206 907.294 -10.4865 907.294 L15.4167 907.294 Q16.7919 907.294 17.2202 906.618 Q17.6486 905.942 17.6486 902.988 L17.6486 901.523 L19.0688 901.523 Q18.9336 903.146 18.9336 909.008 Q18.9336 914.869 19.0688 916.47 L17.6486 916.47 L17.6486 915.004 Q17.6486 912.096 17.2428 911.397 Q16.8144 910.698 15.4167 910.698 L-8.5026 910.698 Q-7.28521 913.111 -7.28521 916.763 Z" fill="#000000" fill-rule="nonzero" fill-opacity="1" /><path clip-path="url(#clip740)" d="M66.4285 835.154 Q68.2321 835.154 69.2626 836.281 Q70.261 837.408 70.261 838.696 Q70.261 839.92 69.5525 840.564 Q68.844 841.208 67.9422 841.208 Q66.7184 841.208 65.6556 840.307 Q64.5928 839.405 64.3674 838.052 Q63.53 839.373 63.53 841.337 Q63.53 842.625 64.2063 843.753 Q64.8827 844.848 65.7522 845.524 Q66.6218 846.168 67.8778 846.748 Q69.1016 847.295 69.8424 847.521 Q70.5509 847.714 71.3238 847.875 L80.3415 850.129 Q84.6248 851.224 86.1385 851.224 Q88.0065 851.224 89.2625 850.323 Q90.4863 849.421 90.4863 847.617 Q90.4863 846.909 90.2931 846.104 Q90.0676 845.298 89.4879 844.268 Q88.876 843.205 87.9743 842.271 Q87.0403 841.305 85.4622 840.371 Q83.8841 839.437 81.8551 838.825 Q81.1466 838.632 81.1466 837.988 Q81.1466 837.183 81.7907 837.183 Q82.3382 837.183 83.4976 837.633 Q84.6248 838.052 86.1063 838.986 Q87.5556 839.888 88.876 841.079 Q90.1643 842.271 91.066 844.042 Q91.9678 845.814 91.9678 847.746 Q91.9678 850.516 90.4863 852.352 Q89.0048 854.187 86.9437 854.864 Q87.2335 855.025 87.62 855.25 Q88.0065 855.475 88.876 856.152 Q89.7134 856.796 90.3575 857.537 Q90.9694 858.277 91.4525 859.437 Q91.9678 860.564 91.9678 861.788 Q91.9678 863.334 91.5169 864.719 Q91.066 866.071 90.0354 867.037 Q89.0048 868.004 87.5878 868.004 Q86.0097 868.004 84.9147 866.941 Q83.7875 865.846 83.7875 864.364 Q83.7875 863.43 84.335 862.69 Q84.8825 861.917 86.0741 861.917 Q87.3945 861.917 88.3929 862.818 Q89.3913 863.72 89.649 865.008 Q90.4863 863.688 90.4863 861.723 Q90.4863 859.598 88.6184 857.923 Q86.7504 856.248 83.6265 855.443 Q76.1225 853.447 72.7731 852.674 Q69.3915 851.901 67.9422 851.901 Q66.5896 851.901 65.6556 852.255 Q64.7216 852.609 64.3029 853.221 Q63.8521 853.801 63.691 854.348 Q63.53 854.864 63.53 855.443 Q63.53 856.409 63.9165 857.504 Q64.3029 858.567 65.2047 859.855 Q66.0743 861.111 67.8778 862.303 Q69.6813 863.495 72.1612 864.3 Q72.9019 864.461 72.9019 865.169 Q72.8697 865.942 72.2256 865.942 Q71.6781 865.942 70.5509 865.524 Q69.3915 865.073 67.9422 864.171 Q66.4929 863.237 65.2047 862.045 Q63.8843 860.822 62.9825 859.05 Q62.0807 857.247 62.0807 855.314 Q62.0807 854.445 62.274 853.608 Q62.435 852.738 62.9181 851.707 Q63.4012 850.645 64.464 849.711 Q65.5268 848.777 67.0726 848.197 Q66.3319 847.81 65.6234 847.295 Q64.9149 846.748 64.0453 845.91 Q63.1435 845.041 62.6282 843.849 Q62.0807 842.625 62.0807 841.273 Q62.0807 839.952 62.435 838.664 Q62.7571 837.376 63.8199 836.281 Q64.8504 835.154 66.4285 835.154 Z" fill="#000000" fill-rule="nonzero" fill-opacity="1" /><path clip-path="url(#clip740)" d="M64.2619 828.432 Q62.8867 828.432 62.2329 827.643 Q61.5792 826.854 61.5792 825.84 Q61.5792 824.78 62.278 824.036 Q62.9543 823.27 64.1492 823.27 Q65.4342 823.27 66.1556 824.171 Q66.877 825.051 66.6967 826.313 Q68.5453 825.208 69.3794 823.18 Q70.2135 821.128 70.2135 819.234 Q70.2135 817.25 68.5002 815.65 Q66.7868 814.027 62.5936 814.027 Q59.0317 814.027 56.9802 815.424 Q54.9286 816.8 54.9286 819.527 L54.9286 821.556 Q54.9286 822.255 54.861 822.458 Q54.7934 822.661 54.4101 822.661 Q53.9592 822.661 53.8691 821.962 Q53.8691 821.263 53.7338 820.159 Q53.6436 817.476 51.3216 816.056 Q49.1574 814.771 46.0688 814.771 Q43.2508 814.771 42.0785 816.123 Q40.8837 817.453 40.8837 819.189 Q40.8837 820.812 41.56 822.593 Q42.2363 824.374 43.7468 825.344 Q43.7468 822.481 46.0688 822.481 Q47.0833 822.481 47.7596 823.134 Q48.4134 823.766 48.4134 824.825 Q48.4134 825.84 47.7822 826.516 Q47.1284 827.192 46.0237 827.192 Q43.3861 827.192 41.56 824.848 Q39.7339 822.481 39.7339 819.009 Q39.7339 815.582 41.5374 813.057 Q43.341 810.51 46.1139 810.51 Q48.8417 810.51 51.0736 812.313 Q53.3055 814.117 54.2298 816.98 Q54.9286 813.463 57.3183 811.366 Q59.6855 809.27 62.5936 809.27 Q66.2007 809.27 68.8609 812.11 Q71.4986 814.951 71.4986 819.099 Q71.4986 822.932 69.4245 825.682 Q67.3504 828.432 64.2619 828.432 Z" fill="#000000" fill-rule="nonzero" fill-opacity="1" /><path clip-path="url(#clip740)" d="M46.171 771.015 L84.3028 780.516 Q86.0097 780.902 87.459 780.902 Q90.4863 780.902 90.4863 778.938 Q90.4863 777.971 89.8744 777.199 Q89.2625 776.426 87.9743 775.814 Q86.686 775.202 85.4944 774.815 Q84.2706 774.429 82.3382 773.914 Q81.5653 773.753 81.3721 773.624 Q81.1466 773.463 81.1466 773.012 Q81.1466 772.207 81.7907 772.207 Q85.9453 773.076 88.3285 774.203 Q91.9678 776.007 91.9678 779.066 Q91.9678 781.385 90.5507 783.028 Q89.1337 784.67 87.0081 785.057 Q91.9678 789.276 91.9678 793.656 Q91.9678 797.52 89.037 799.968 Q86.0741 802.416 81.4043 802.416 Q76.7022 802.416 72.1934 800.097 Q67.6846 797.746 64.8827 794.042 Q62.0807 790.339 62.0807 786.538 Q62.0807 782.513 66.2997 780.451 L50.6477 776.49 L49.3594 776.297 Q48.973 776.297 48.7797 776.458 Q48.5543 776.587 48.3932 777.36 Q48.2322 778.1 48.2322 779.582 Q48.2322 780.194 48.2 780.484 Q48.1678 780.741 48.0068 780.967 Q47.8135 781.192 47.4271 781.192 Q46.2999 781.192 46.171 780.258 Q45.4625 774.075 45.4625 771.885 Q45.4625 771.498 45.6558 771.273 Q45.8168 771.047 46.01 771.047 L46.171 771.015 M69.3271 781.256 Q69.0372 781.256 68.2321 781.482 Q67.4269 781.707 66.2997 782.223 Q65.1725 782.738 64.3674 783.865 Q63.53 784.96 63.53 786.442 Q63.53 788.438 65.2369 790.532 Q66.9438 792.593 69.8424 794.107 Q72.1612 795.266 77.0243 796.522 Q81.8873 797.746 84.3028 797.746 Q85.7843 797.746 87.1047 797.424 Q88.3929 797.07 89.4557 796.071 Q90.4863 795.073 90.4863 793.527 Q90.4863 789.759 85.8165 786.055 Q85.0113 785.347 84.6893 785.186 Q84.335 784.992 83.3688 784.735 L70.4543 781.45 Q69.4881 781.256 69.3271 781.256 Z" fill="#000000" fill-rule="nonzero" fill-opacity="1" /><path clip-path="url(#clip740)" d="M66.4285 736.682 Q68.2321 736.682 69.2626 737.809 Q70.261 738.936 70.261 740.224 Q70.261 741.448 69.5525 742.092 Q68.844 742.736 67.9422 742.736 Q66.7184 742.736 65.6556 741.835 Q64.5928 740.933 64.3674 739.58 Q63.53 740.901 63.53 742.865 Q63.53 744.154 64.2063 745.281 Q64.8827 746.376 65.7522 747.052 Q66.6218 747.696 67.8778 748.276 Q69.1016 748.823 69.8424 749.049 Q70.5509 749.242 71.3238 749.403 L80.3415 751.657 Q84.6248 752.752 86.1385 752.752 Q88.0065 752.752 89.2625 751.851 Q90.4863 750.949 90.4863 749.145 Q90.4863 748.437 90.2931 747.632 Q90.0676 746.827 89.4879 745.796 Q88.876 744.733 87.9743 743.799 Q87.0403 742.833 85.4622 741.899 Q83.8841 740.965 81.8551 740.353 Q81.1466 740.16 81.1466 739.516 Q81.1466 738.711 81.7907 738.711 Q82.3382 738.711 83.4976 739.162 Q84.6248 739.58 86.1063 740.514 Q87.5556 741.416 88.876 742.608 Q90.1643 743.799 91.066 745.571 Q91.9678 747.342 91.9678 749.274 Q91.9678 752.044 90.4863 753.88 Q89.0048 755.715 86.9437 756.392 Q87.2335 756.553 87.62 756.778 Q88.0065 757.004 88.876 757.68 Q89.7134 758.324 90.3575 759.065 Q90.9694 759.806 91.4525 760.965 Q91.9678 762.092 91.9678 763.316 Q91.9678 764.862 91.5169 766.247 Q91.066 767.599 90.0354 768.566 Q89.0048 769.532 87.5878 769.532 Q86.0097 769.532 84.9147 768.469 Q83.7875 767.374 83.7875 765.892 Q83.7875 764.959 84.335 764.218 Q84.8825 763.445 86.0741 763.445 Q87.3945 763.445 88.3929 764.347 Q89.3913 765.248 89.649 766.537 Q90.4863 765.216 90.4863 763.252 Q90.4863 761.126 88.6184 759.451 Q86.7504 757.777 83.6265 756.971 Q76.1225 754.975 72.7731 754.202 Q69.3915 753.429 67.9422 753.429 Q66.5896 753.429 65.6556 753.783 Q64.7216 754.137 64.3029 754.749 Q63.8521 755.329 63.691 755.876 Q63.53 756.392 63.53 756.971 Q63.53 757.938 63.9165 759.033 Q64.3029 760.095 65.2047 761.384 Q66.0743 762.64 67.8778 763.831 Q69.6813 765.023 72.1612 765.828 Q72.9019 765.989 72.9019 766.698 Q72.8697 767.471 72.2256 767.471 Q71.6781 767.471 70.5509 767.052 Q69.3915 766.601 67.9422 765.699 Q66.4929 764.765 65.2047 763.574 Q63.8843 762.35 62.9825 760.579 Q62.0807 758.775 62.0807 756.843 Q62.0807 755.973 62.274 755.136 Q62.435 754.266 62.9181 753.236 Q63.4012 752.173 64.464 751.239 Q65.5268 750.305 67.0726 749.725 Q66.3319 749.339 65.6234 748.823 Q64.9149 748.276 64.0453 747.439 Q63.1435 746.569 62.6282 745.377 Q62.0807 744.154 62.0807 742.801 Q62.0807 741.48 62.435 740.192 Q62.7571 738.904 63.8199 737.809 Q64.8504 736.682 66.4285 736.682 Z" fill="#000000" fill-rule="nonzero" fill-opacity="1" /><path clip-path="url(#clip740)" d="M73.8037 670.334 Q74.1901 669.947 74.7376 669.947 Q75.2851 669.947 75.6716 670.334 Q76.0581 670.72 76.0581 671.268 L76.0581 712.556 Q76.0581 713.103 75.6716 713.49 Q75.2851 713.876 74.7376 713.876 Q74.1901 713.876 73.8037 713.49 Q73.4172 713.103 73.4172 712.556 L73.4172 671.268 Q73.4172 670.72 73.8037 670.334 Z" fill="#000000" fill-rule="nonzero" fill-opacity="1" /><path clip-path="url(#clip740)" d="M70.1322 644.759 Q60.4382 644.759 55.1565 642.311 Q47.2983 638.898 47.2983 630.846 Q47.2983 629.139 47.7813 627.368 Q48.2322 625.564 50.0035 623.31 Q51.7749 621.023 54.6734 619.639 Q60.2772 616.998 70.1322 616.998 Q79.7618 616.998 85.0113 619.445 Q92.6763 623.02 92.6763 630.911 Q92.6763 633.873 91.1626 636.901 Q89.649 639.896 86.0097 641.796 Q80.5669 644.759 70.1322 644.759 M69.3271 639.284 Q79.2787 639.284 83.24 638.576 Q87.5234 637.77 89.3913 635.58 Q91.227 633.358 91.227 630.911 Q91.227 628.27 89.2625 626.08 Q87.2657 623.857 82.9823 623.181 Q78.7634 622.44 69.3271 622.473 Q60.1484 622.473 56.4769 623.117 Q52.1935 623.986 50.4866 626.305 Q48.7475 628.592 48.7475 630.911 Q48.7475 631.78 49.0052 632.714 Q49.2628 633.616 50.0035 634.936 Q50.7443 636.257 52.58 637.287 Q54.4157 638.286 57.1855 638.769 Q60.7603 639.284 69.3271 639.284 Z" fill="#000000" fill-rule="nonzero" fill-opacity="1" /><path clip-path="url(#clip740)" d="M90.1643 611.097 Q89.1015 612.095 87.7166 612.095 Q86.3318 612.095 85.3334 611.097 Q84.3028 610.098 84.3028 608.585 Q84.3028 607.135 85.269 606.169 Q86.2029 605.171 87.7488 605.171 Q89.2625 605.171 90.2609 606.234 Q91.227 607.264 91.227 608.585 Q91.227 610.098 90.1643 611.097 Z" fill="#000000" fill-rule="nonzero" fill-opacity="1" /><path clip-path="url(#clip740)" d="M91.227 593.945 Q90.0354 593.945 89.6812 593.848 Q89.3269 593.719 88.7794 593.204 L74.6732 580.547 Q66.8794 573.623 60.084 573.623 Q55.6718 573.623 52.5156 575.942 Q49.3594 578.228 49.3594 582.447 Q49.3594 585.346 51.1307 587.793 Q52.9021 590.241 56.0582 591.368 Q55.9938 591.175 55.9938 590.499 Q55.9938 588.856 57.0244 587.954 Q58.055 587.021 59.4399 587.021 Q61.2112 587.021 62.0807 588.18 Q62.9181 589.307 62.9181 590.434 Q62.9181 590.885 62.8215 591.497 Q62.7249 592.077 61.8231 593.011 Q60.8891 593.945 59.2466 593.945 Q54.6412 593.945 50.9697 590.467 Q47.2983 586.956 47.2983 581.61 Q47.2983 575.555 50.9053 571.594 Q54.4802 567.6 60.084 567.6 Q62.0485 567.6 63.8521 568.212 Q65.6234 568.792 67.0082 569.597 Q68.3931 570.37 70.6153 572.496 Q72.8375 574.621 74.4156 576.328 Q75.9937 578.035 79.3431 581.868 L86.1385 588.856 L86.1385 576.972 Q86.1385 571.175 85.6232 570.724 Q84.6893 570.08 79.7618 569.275 L79.7618 567.6 L91.227 569.468 L91.227 593.945 Z" fill="#000000" fill-rule="nonzero" fill-opacity="1" /><path clip-path="url(#clip740)" d="M80.5991 561.017 Q78.6346 561.017 77.8938 559.954 Q77.1209 558.891 77.1209 557.764 Q77.1209 556.25 78.0871 555.381 Q79.021 554.479 80.3415 554.479 Q81.6619 554.479 82.6281 555.381 Q83.5621 556.25 83.5621 557.764 Q83.5621 558.505 83.4332 558.891 Q86.4606 558.022 88.6506 555.381 Q90.8406 552.708 90.8406 549.197 Q90.8406 544.785 86.5572 542.144 Q83.7875 540.566 77.5073 540.566 Q71.9679 540.566 69.1982 541.758 Q64.9793 543.593 64.9793 547.361 Q64.9793 552.708 69.5847 555.864 Q70.1644 556.25 70.1966 556.701 Q70.1966 557.345 69.8424 557.506 Q69.4559 557.635 68.4575 557.635 L48.9407 557.635 Q47.3627 557.635 47.3627 556.991 Q47.3627 556.733 47.5559 556.186 Q49.3916 552.031 49.4238 547.426 Q49.4238 542.692 47.4915 538.44 Q47.2983 538.118 47.2983 537.925 Q47.2983 537.281 48.039 537.249 Q48.2966 537.249 49.0696 537.796 Q49.8103 538.312 50.8087 539.439 Q51.7749 540.566 52.7088 542.015 Q53.6428 543.465 54.2869 545.59 Q54.8988 547.683 54.8988 550.002 Q54.8988 552.772 54.0293 555.606 L66.8794 555.606 Q63.53 552.192 63.53 547.233 Q63.53 541.951 67.7812 538.312 Q72.0324 534.672 77.9582 534.672 Q84.174 534.672 88.4251 538.988 Q92.6763 543.271 92.6763 549.068 Q92.6763 554.35 88.9082 557.7 Q85.1401 561.017 80.5991 561.017 Z" fill="#000000" fill-rule="nonzero" fill-opacity="1" /><circle clip-path="url(#clip742)" cx="382.994" cy="85.838" r="14.4" fill="#009af9" fill-rule="evenodd" fill-opacity="1" stroke="#000000" stroke-opacity="1" stroke-width="3.2"/>
<circle clip-path="url(#clip742)" cx="721.838" cy="313.779" r="14.4" fill="#009af9" fill-rule="evenodd" fill-opacity="1" stroke="#000000" stroke-opacity="1" stroke-width="3.2"/>
<circle clip-path="url(#clip742)" cx="920.05" cy="447.116" r="14.4" fill="#009af9" fill-rule="evenodd" fill-opacity="1" stroke="#000000" stroke-opacity="1" stroke-width="3.2"/>
<circle clip-path="url(#clip742)" cx="1060.68" cy="541.719" r="14.4" fill="#009af9" fill-rule="evenodd" fill-opacity="1" stroke="#000000" stroke-opacity="1" stroke-width="3.2"/>
<circle clip-path="url(#clip742)" cx="1169.77" cy="615.1" r="14.4" fill="#009af9" fill-rule="evenodd" fill-opacity="1" stroke="#000000" stroke-opacity="1" stroke-width="3.2"/>
<circle clip-path="url(#clip742)" cx="1258.89" cy="675.056" r="14.4" fill="#009af9" fill-rule="evenodd" fill-opacity="1" stroke="#000000" stroke-opacity="1" stroke-width="3.2"/>
<circle clip-path="url(#clip742)" cx="1334.25" cy="725.749" r="14.4" fill="#009af9" fill-rule="evenodd" fill-opacity="1" stroke="#000000" stroke-opacity="1" stroke-width="3.2"/>
<circle clip-path="url(#clip742)" cx="1399.53" cy="769.66" r="14.4" fill="#009af9" fill-rule="evenodd" fill-opacity="1" stroke="#000000" stroke-opacity="1" stroke-width="3.2"/>
<circle clip-path="url(#clip742)" cx="1457.11" cy="808.393" r="14.4" fill="#009af9" fill-rule="evenodd" fill-opacity="1" stroke="#000000" stroke-opacity="1" stroke-width="3.2"/>
<circle clip-path="url(#clip742)" cx="1508.61" cy="843.041" r="14.4" fill="#009af9" fill-rule="evenodd" fill-opacity="1" stroke="#000000" stroke-opacity="1" stroke-width="3.2"/>
<circle clip-path="url(#clip742)" cx="1555.2" cy="874.383" r="14.4" fill="#009af9" fill-rule="evenodd" fill-opacity="1" stroke="#000000" stroke-opacity="1" stroke-width="3.2"/>
<circle clip-path="url(#clip742)" cx="1597.74" cy="902.997" r="14.4" fill="#009af9" fill-rule="evenodd" fill-opacity="1" stroke="#000000" stroke-opacity="1" stroke-width="3.2"/>
<circle clip-path="url(#clip742)" cx="1636.87" cy="929.319" r="14.4" fill="#009af9" fill-rule="evenodd" fill-opacity="1" stroke="#000000" stroke-opacity="1" stroke-width="3.2"/>
<circle clip-path="url(#clip742)" cx="1673.1" cy="953.689" r="14.4" fill="#009af9" fill-rule="evenodd" fill-opacity="1" stroke="#000000" stroke-opacity="1" stroke-width="3.2"/>
<circle clip-path="url(#clip742)" cx="1706.82" cy="976.378" r="14.4" fill="#009af9" fill-rule="evenodd" fill-opacity="1" stroke="#000000" stroke-opacity="1" stroke-width="3.2"/>
<circle clip-path="url(#clip742)" cx="1738.37" cy="997.601" r="14.4" fill="#009af9" fill-rule="evenodd" fill-opacity="1" stroke="#000000" stroke-opacity="1" stroke-width="3.2"/>
<circle clip-path="url(#clip742)" cx="1768.01" cy="1017.54" r="14.4" fill="#009af9" fill-rule="evenodd" fill-opacity="1" stroke="#000000" stroke-opacity="1" stroke-width="3.2"/>
<circle clip-path="url(#clip742)" cx="1795.95" cy="1036.33" r="14.4" fill="#009af9" fill-rule="evenodd" fill-opacity="1" stroke="#000000" stroke-opacity="1" stroke-width="3.2"/>
<circle clip-path="url(#clip742)" cx="1822.38" cy="1054.11" r="14.4" fill="#009af9" fill-rule="evenodd" fill-opacity="1" stroke="#000000" stroke-opacity="1" stroke-width="3.2"/>
<circle clip-path="url(#clip742)" cx="1847.46" cy="1070.98" r="14.4" fill="#009af9" fill-rule="evenodd" fill-opacity="1" stroke="#000000" stroke-opacity="1" stroke-width="3.2"/>
<circle clip-path="url(#clip742)" cx="1871.31" cy="1087.03" r="14.4" fill="#009af9" fill-rule="evenodd" fill-opacity="1" stroke="#000000" stroke-opacity="1" stroke-width="3.2"/>
<circle clip-path="url(#clip742)" cx="1894.05" cy="1102.32" r="14.4" fill="#009af9" fill-rule="evenodd" fill-opacity="1" stroke="#000000" stroke-opacity="1" stroke-width="3.2"/>
<circle clip-path="url(#clip742)" cx="1915.78" cy="1116.94" r="14.4" fill="#009af9" fill-rule="evenodd" fill-opacity="1" stroke="#000000" stroke-opacity="1" stroke-width="3.2"/>
<circle clip-path="url(#clip742)" cx="1936.58" cy="1130.94" r="14.4" fill="#009af9" fill-rule="evenodd" fill-opacity="1" stroke="#000000" stroke-opacity="1" stroke-width="3.2"/>
<circle clip-path="url(#clip742)" cx="1956.54" cy="1144.36" r="14.4" fill="#009af9" fill-rule="evenodd" fill-opacity="1" stroke="#000000" stroke-opacity="1" stroke-width="3.2"/>
<circle clip-path="url(#clip742)" cx="1975.71" cy="1157.26" r="14.4" fill="#009af9" fill-rule="evenodd" fill-opacity="1" stroke="#000000" stroke-opacity="1" stroke-width="3.2"/>
<circle clip-path="url(#clip742)" cx="1994.16" cy="1169.67" r="14.4" fill="#009af9" fill-rule="evenodd" fill-opacity="1" stroke="#000000" stroke-opacity="1" stroke-width="3.2"/>
<circle clip-path="url(#clip742)" cx="2011.94" cy="1181.63" r="14.4" fill="#009af9" fill-rule="evenodd" fill-opacity="1" stroke="#000000" stroke-opacity="1" stroke-width="3.2"/>
<circle clip-path="url(#clip742)" cx="2029.09" cy="1193.17" r="14.4" fill="#009af9" fill-rule="evenodd" fill-opacity="1" stroke="#000000" stroke-opacity="1" stroke-width="3.2"/>
<circle clip-path="url(#clip742)" cx="2045.67" cy="1204.32" r="14.4" fill="#009af9" fill-rule="evenodd" fill-opacity="1" stroke="#000000" stroke-opacity="1" stroke-width="3.2"/>
<circle clip-path="url(#clip742)" cx="2061.7" cy="1215.1" r="14.4" fill="#009af9" fill-rule="evenodd" fill-opacity="1" stroke="#000000" stroke-opacity="1" stroke-width="3.2"/>
<circle clip-path="url(#clip742)" cx="2077.22" cy="1225.54" r="14.4" fill="#009af9" fill-rule="evenodd" fill-opacity="1" stroke="#000000" stroke-opacity="1" stroke-width="3.2"/>
<circle clip-path="url(#clip742)" cx="2092.26" cy="1235.66" r="14.4" fill="#009af9" fill-rule="evenodd" fill-opacity="1" stroke="#000000" stroke-opacity="1" stroke-width="3.2"/>
<circle clip-path="url(#clip742)" cx="2106.85" cy="1245.48" r="14.4" fill="#009af9" fill-rule="evenodd" fill-opacity="1" stroke="#000000" stroke-opacity="1" stroke-width="3.2"/>
<circle clip-path="url(#clip742)" cx="2121.02" cy="1255.01" r="14.4" fill="#009af9" fill-rule="evenodd" fill-opacity="1" stroke="#000000" stroke-opacity="1" stroke-width="3.2"/>
<circle clip-path="url(#clip742)" cx="2134.8" cy="1264.27" r="14.4" fill="#009af9" fill-rule="evenodd" fill-opacity="1" stroke="#000000" stroke-opacity="1" stroke-width="3.2"/>
<circle clip-path="url(#clip742)" cx="2148.19" cy="1273.28" r="14.4" fill="#009af9" fill-rule="evenodd" fill-opacity="1" stroke="#000000" stroke-opacity="1" stroke-width="3.2"/>
<circle clip-path="url(#clip742)" cx="2161.23" cy="1282.05" r="14.4" fill="#009af9" fill-rule="evenodd" fill-opacity="1" stroke="#000000" stroke-opacity="1" stroke-width="3.2"/>
<circle clip-path="url(#clip742)" cx="2173.92" cy="1290.6" r="14.4" fill="#009af9" fill-rule="evenodd" fill-opacity="1" stroke="#000000" stroke-opacity="1" stroke-width="3.2"/>
<circle clip-path="url(#clip742)" cx="2186.3" cy="1298.92" r="14.4" fill="#009af9" fill-rule="evenodd" fill-opacity="1" stroke="#000000" stroke-opacity="1" stroke-width="3.2"/>
<circle clip-path="url(#clip742)" cx="2198.37" cy="1307.04" r="14.4" fill="#009af9" fill-rule="evenodd" fill-opacity="1" stroke="#000000" stroke-opacity="1" stroke-width="3.2"/>
<circle clip-path="url(#clip742)" cx="2210.15" cy="1314.97" r="14.4" fill="#009af9" fill-rule="evenodd" fill-opacity="1" stroke="#000000" stroke-opacity="1" stroke-width="3.2"/>
<circle clip-path="url(#clip742)" cx="2221.65" cy="1322.7" r="14.4" fill="#009af9" fill-rule="evenodd" fill-opacity="1" stroke="#000000" stroke-opacity="1" stroke-width="3.2"/>
<circle clip-path="url(#clip742)" cx="2232.89" cy="1330.26" r="14.4" fill="#009af9" fill-rule="evenodd" fill-opacity="1" stroke="#000000" stroke-opacity="1" stroke-width="3.2"/>
<circle clip-path="url(#clip742)" cx="2243.88" cy="1337.66" r="14.4" fill="#009af9" fill-rule="evenodd" fill-opacity="1" stroke="#000000" stroke-opacity="1" stroke-width="3.2"/>
<circle clip-path="url(#clip742)" cx="2254.62" cy="1344.88" r="14.4" fill="#009af9" fill-rule="evenodd" fill-opacity="1" stroke="#000000" stroke-opacity="1" stroke-width="3.2"/>
<circle clip-path="url(#clip742)" cx="2265.14" cy="1351.96" r="14.4" fill="#009af9" fill-rule="evenodd" fill-opacity="1" stroke="#000000" stroke-opacity="1" stroke-width="3.2"/>
<circle clip-path="url(#clip742)" cx="2275.43" cy="1358.88" r="14.4" fill="#009af9" fill-rule="evenodd" fill-opacity="1" stroke="#000000" stroke-opacity="1" stroke-width="3.2"/>
<circle clip-path="url(#clip742)" cx="2285.51" cy="1365.66" r="14.4" fill="#009af9" fill-rule="evenodd" fill-opacity="1" stroke="#000000" stroke-opacity="1" stroke-width="3.2"/>
<circle clip-path="url(#clip742)" cx="2295.38" cy="1372.3" r="14.4" fill="#009af9" fill-rule="evenodd" fill-opacity="1" stroke="#000000" stroke-opacity="1" stroke-width="3.2"/>
</svg>