<?xml version="1.0" encoding="utf-8"?>
<svg xmlns="http://www.w3.org/2000/svg" xmlns:xlink="http://www.w3.org/1999/xlink" width="600" height="400" viewBox="0 0 2400 1600">
<defs>
  <clipPath id="clip790">
    <rect x="0" y="0" width="2400" height="1600"/>
  </clipPath>
</defs>
<path clip-path="url(#clip790)" d="M0 1600 L2400 1600 L2400 8.88178e-14 L0 8.88178e-14  Z" fill="#ffffff" fill-rule="evenodd" fill-opacity="1"/>
<defs>
  <clipPath id="clip791">
    <rect x="480" y="0" width="1681" height="1600"/>
  </clipPath>
</defs>
<path clip-path="url(#clip790)" d="M175.445 1423.18 L2352.76 1423.18 L2352.76 47.2441 L175.445 47.2441  Z" fill="#ffffff" fill-rule="evenodd" fill-opacity="1"/>
<defs>
  <clipPath id="clip792">
    <rect x="175" y="47" width="2178" height="1377"/>
  </clipPath>
</defs>
<polyline clip-path="url(#clip792)" style="stroke:#000000; stroke-linecap:round; stroke-linejoin:round; stroke-width:2; stroke-opacity:0.1; fill:none" points="237.067,1423.18 237.067,47.2441 "/>
<polyline clip-path="url(#clip792)" style="stroke:#000000; stroke-linecap:round; stroke-linejoin:round; stroke-width:2; stroke-opacity:0.1; fill:none" points="750.584,1423.18 750.584,47.2441 "/>
<polyline clip-path="url(#clip792)" style="stroke:#000000; stroke-linecap:round; stroke-linejoin:round; stroke-width:2; stroke-opacity:0.1; fill:none" points="1264.1,1423.18 1264.1,47.2441 "/>
<polyline clip-path="url(#clip792)" style="stroke:#000000; stroke-linecap:round; stroke-linejoin:round; stroke-width:2; stroke-opacity:0.1; fill:none" points="1777.62,1423.18 1777.62,47.2441 "/>
<polyline clip-path="url(#clip792)" style="stroke:#000000; stroke-linecap:round; stroke-linejoin:round; stroke-width:2; stroke-opacity:0.1; fill:none" points="2291.13,1423.18 2291.13,47.2441 "/>
<polyline clip-path="url(#clip790)" style="stroke:#000000; stroke-linecap:round; stroke-linejoin:round; stroke-width:4; stroke-opacity:1; fill:none" points="175.445,1423.18 2352.76,1423.18 "/>
<polyline clip-path="url(#clip790)" style="stroke:#000000; stroke-linecap:round; stroke-linejoin:round; stroke-width:4; stroke-opacity:1; fill:none" points="237.067,1423.18 237.067,1404.28 "/>
<polyline clip-path="url(#clip790)" style="stroke:#000000; stroke-linecap:round; stroke-linejoin:round; stroke-width:4; stroke-opacity:1; fill:none" points="750.584,1423.18 750.584,1404.28 "/>
<polyline clip-path="url(#clip790)" style="stroke:#000000; stroke-linecap:round; stroke-linejoin:round; stroke-width:4; stroke-opacity:1; fill:none" points="1264.1,1423.18 1264.1,1404.28 "/>
<polyline clip-path="url(#clip790)" style="stroke:#000000; stroke-linecap:round; stroke-linejoin:round; stroke-width:4; stroke-opacity:1; fill:none" points="1777.62,1423.18 1777.62,1404.28 "/>
<polyline clip-path="url(#clip790)" style="stroke:#000000; stroke-linecap:round; stroke-linejoin:round; stroke-width:4; stroke-opacity:1; fill:none" points="2291.13,1423.18 2291.13,1404.28 "/>
<path clip-path="url(#clip790)" d="M183.595 1468.75 L213.271 1468.75 L213.271 1472.69 L183.595 1472.69 L183.595 1468.75 Z" fill="#000000" fill-rule="nonzero" fill-opacity="1" /><path clip-path="url(#clip790)" d="M224.174 1481.64 L231.813 1481.64 L231.813 1455.28 L223.502 1456.95 L223.502 1452.69 L231.766 1451.02 L236.442 1451.02 L236.442 1481.64 L244.081 1481.64 L244.081 1485.58 L224.174 1485.58 L224.174 1481.64 Z" fill="#000000" fill-rule="nonzero" fill-opacity="1" /><path clip-path="url(#clip790)" d="M253.525 1479.7 L258.41 1479.7 L258.41 1485.58 L253.525 1485.58 L253.525 1479.7 Z" fill="#000000" fill-rule="nonzero" fill-opacity="1" /><path clip-path="url(#clip790)" d="M278.595 1454.1 Q274.984 1454.1 273.155 1457.66 Q271.349 1461.2 271.349 1468.33 Q271.349 1475.44 273.155 1479.01 Q274.984 1482.55 278.595 1482.55 Q282.229 1482.55 284.035 1479.01 Q285.863 1475.44 285.863 1468.33 Q285.863 1461.2 284.035 1457.66 Q282.229 1454.1 278.595 1454.1 M278.595 1450.39 Q284.405 1450.39 287.46 1455 Q290.539 1459.58 290.539 1468.33 Q290.539 1477.06 287.46 1481.67 Q284.405 1486.25 278.595 1486.25 Q272.785 1486.25 269.706 1481.67 Q266.65 1477.06 266.65 1468.33 Q266.65 1459.58 269.706 1455 Q272.785 1450.39 278.595 1450.39 Z" fill="#000000" fill-rule="nonzero" fill-opacity="1" /><path clip-path="url(#clip790)" d="M697.61 1468.75 L727.285 1468.75 L727.285 1472.69 L697.61 1472.69 L697.61 1468.75 Z" fill="#000000" fill-rule="nonzero" fill-opacity="1" /><path clip-path="url(#clip790)" d="M747.378 1454.1 Q743.767 1454.1 741.938 1457.66 Q740.133 1461.2 740.133 1468.33 Q740.133 1475.44 741.938 1479.01 Q743.767 1482.55 747.378 1482.55 Q751.012 1482.55 752.818 1479.01 Q754.646 1475.44 754.646 1468.33 Q754.646 1461.2 752.818 1457.66 Q751.012 1454.1 747.378 1454.1 M747.378 1450.39 Q753.188 1450.39 756.244 1455 Q759.322 1459.58 759.322 1468.33 Q759.322 1477.06 756.244 1481.67 Q753.188 1486.25 747.378 1486.25 Q741.568 1486.25 738.489 1481.67 Q735.434 1477.06 735.434 1468.33 Q735.434 1459.58 738.489 1455 Q741.568 1450.39 747.378 1450.39 Z" fill="#000000" fill-rule="nonzero" fill-opacity="1" /><path clip-path="url(#clip790)" d="M767.54 1479.7 L772.424 1479.7 L772.424 1485.58 L767.54 1485.58 L767.54 1479.7 Z" fill="#000000" fill-rule="nonzero" fill-opacity="1" /><path clip-path="url(#clip790)" d="M782.655 1451.02 L801.012 1451.02 L801.012 1454.96 L786.938 1454.96 L786.938 1463.43 Q787.956 1463.08 788.975 1462.92 Q789.993 1462.73 791.012 1462.73 Q796.799 1462.73 800.179 1465.9 Q803.558 1469.08 803.558 1474.49 Q803.558 1480.07 800.086 1483.17 Q796.614 1486.25 790.294 1486.25 Q788.118 1486.25 785.85 1485.88 Q783.605 1485.51 781.197 1484.77 L781.197 1480.07 Q783.28 1481.2 785.503 1481.76 Q787.725 1482.32 790.202 1482.32 Q794.206 1482.32 796.544 1480.21 Q798.882 1478.1 798.882 1474.49 Q798.882 1470.88 796.544 1468.77 Q794.206 1466.67 790.202 1466.67 Q788.327 1466.67 786.452 1467.08 Q784.6 1467.5 782.655 1468.38 L782.655 1451.02 Z" fill="#000000" fill-rule="nonzero" fill-opacity="1" /><path clip-path="url(#clip790)" d="M1241.48 1454.1 Q1237.87 1454.1 1236.05 1457.66 Q1234.24 1461.2 1234.24 1468.33 Q1234.24 1475.44 1236.05 1479.01 Q1237.87 1482.55 1241.48 1482.55 Q1245.12 1482.55 1246.92 1479.01 Q1248.75 1475.44 1248.75 1468.33 Q1248.75 1461.2 1246.92 1457.66 Q1245.12 1454.1 1241.48 1454.1 M1241.48 1450.39 Q1247.3 1450.39 1250.35 1455 Q1253.43 1459.58 1253.43 1468.33 Q1253.43 1477.06 1250.35 1481.67 Q1247.3 1486.25 1241.48 1486.25 Q1235.67 1486.25 1232.6 1481.67 Q1229.54 1477.06 1229.54 1468.33 Q1229.54 1459.58 1232.6 1455 Q1235.67 1450.39 1241.48 1450.39 Z" fill="#000000" fill-rule="nonzero" fill-opacity="1" /><path clip-path="url(#clip790)" d="M1261.65 1479.7 L1266.53 1479.7 L1266.53 1485.58 L1261.65 1485.58 L1261.65 1479.7 Z" fill="#000000" fill-rule="nonzero" fill-opacity="1" /><path clip-path="url(#clip790)" d="M1286.72 1454.1 Q1283.11 1454.1 1281.28 1457.66 Q1279.47 1461.2 1279.47 1468.33 Q1279.47 1475.44 1281.28 1479.01 Q1283.11 1482.55 1286.72 1482.55 Q1290.35 1482.55 1292.16 1479.01 Q1293.98 1475.44 1293.98 1468.33 Q1293.98 1461.2 1292.16 1457.66 Q1290.35 1454.1 1286.72 1454.1 M1286.72 1450.39 Q1292.53 1450.39 1295.58 1455 Q1298.66 1459.58 1298.66 1468.33 Q1298.66 1477.06 1295.58 1481.67 Q1292.53 1486.25 1286.72 1486.25 Q1280.91 1486.25 1277.83 1481.67 Q1274.77 1477.06 1274.77 1468.33 Q1274.77 1459.58 1277.83 1455 Q1280.91 1450.39 1286.72 1450.39 Z" fill="#000000" fill-rule="nonzero" fill-opacity="1" /><path clip-path="url(#clip790)" d="M1755.5 1454.1 Q1751.89 1454.1 1750.06 1457.66 Q1748.25 1461.2 1748.25 1468.33 Q1748.25 1475.44 1750.06 1479.01 Q1751.89 1482.55 1755.5 1482.55 Q1759.13 1482.55 1760.94 1479.01 Q1762.77 1475.44 1762.77 1468.33 Q1762.77 1461.2 1760.94 1457.66 Q1759.13 1454.1 1755.5 1454.1 M1755.5 1450.39 Q1761.31 1450.39 1764.36 1455 Q1767.44 1459.58 1767.44 1468.33 Q1767.44 1477.06 1764.36 1481.67 Q1761.31 1486.25 1755.5 1486.25 Q1749.69 1486.25 1746.61 1481.67 Q1743.55 1477.06 1743.55 1468.33 Q1743.55 1459.58 1746.61 1455 Q1749.69 1450.39 1755.5 1450.39 Z" fill="#000000" fill-rule="nonzero" fill-opacity="1" /><path clip-path="url(#clip790)" d="M1775.66 1479.7 L1780.55 1479.7 L1780.55 1485.58 L1775.66 1485.58 L1775.66 1479.7 Z" fill="#000000" fill-rule="nonzero" fill-opacity="1" /><path clip-path="url(#clip790)" d="M1790.78 1451.02 L1809.13 1451.02 L1809.13 1454.96 L1795.06 1454.96 L1795.06 1463.43 Q1796.08 1463.08 1797.1 1462.92 Q1798.11 1462.73 1799.13 1462.73 Q1804.92 1462.73 1808.3 1465.9 Q1811.68 1469.08 1811.68 1474.49 Q1811.68 1480.07 1808.21 1483.17 Q1804.74 1486.25 1798.42 1486.25 Q1796.24 1486.25 1793.97 1485.88 Q1791.73 1485.51 1789.32 1484.77 L1789.32 1480.07 Q1791.4 1481.2 1793.62 1481.76 Q1795.85 1482.32 1798.32 1482.32 Q1802.33 1482.32 1804.67 1480.21 Q1807 1478.1 1807 1474.49 Q1807 1470.88 1804.67 1468.77 Q1802.33 1466.67 1798.32 1466.67 Q1796.45 1466.67 1794.57 1467.08 Q1792.72 1467.5 1790.78 1468.38 L1790.78 1451.02 Z" fill="#000000" fill-rule="nonzero" fill-opacity="1" /><path clip-path="url(#clip790)" d="M2258.29 1481.64 L2265.93 1481.64 L2265.93 1455.28 L2257.62 1456.95 L2257.62 1452.69 L2265.88 1451.02 L2270.56 1451.02 L2270.56 1481.64 L2278.19 1481.64 L2278.19 1485.58 L2258.29 1485.58 L2258.29 1481.64 Z" fill="#000000" fill-rule="nonzero" fill-opacity="1" /><path clip-path="url(#clip790)" d="M2287.64 1479.7 L2292.52 1479.7 L2292.52 1485.58 L2287.64 1485.58 L2287.64 1479.7 Z" fill="#000000" fill-rule="nonzero" fill-opacity="1" /><path clip-path="url(#clip790)" d="M2312.71 1454.1 Q2309.1 1454.1 2307.27 1457.66 Q2305.46 1461.2 2305.46 1468.33 Q2305.46 1475.44 2307.27 1479.01 Q2309.1 1482.55 2312.71 1482.55 Q2316.34 1482.55 2318.15 1479.01 Q2319.98 1475.44 2319.98 1468.33 Q2319.98 1461.2 2318.15 1457.66 Q2316.34 1454.1 2312.71 1454.1 M2312.71 1450.39 Q2318.52 1450.39 2321.57 1455 Q2324.65 1459.58 2324.65 1468.33 Q2324.65 1477.06 2321.57 1481.67 Q2318.52 1486.25 2312.71 1486.25 Q2306.9 1486.25 2303.82 1481.67 Q2300.76 1477.06 2300.76 1468.33 Q2300.76 1459.58 2303.82 1455 Q2306.9 1450.39 2312.71 1450.39 Z" fill="#000000" fill-rule="nonzero" fill-opacity="1" /><path clip-path="url(#clip790)" d="M1280.72 1532.4 L1267.82 1549.74 L1281.38 1568.04 L1274.48 1568.04 L1264.1 1554.04 L1253.72 1568.04 L1246.82 1568.04 L1260.66 1549.39 L1248 1532.4 L1254.9 1532.4 L1264.36 1545.1 L1273.81 1532.4 L1280.72 1532.4 Z" fill="#000000" fill-rule="nonzero" fill-opacity="1" /><polyline clip-path="url(#clip792)" style="stroke:#000000; stroke-linecap:round; stroke-linejoin:round; stroke-width:2; stroke-opacity:0.1; fill:none" points="175.445,1384.24 2352.76,1384.24 "/>
<polyline clip-path="url(#clip792)" style="stroke:#000000; stroke-linecap:round; stroke-linejoin:round; stroke-width:2; stroke-opacity:0.1; fill:none" points="175.445,1124.63 2352.76,1124.63 "/>
<polyline clip-path="url(#clip792)" style="stroke:#000000; stroke-linecap:round; stroke-linejoin:round; stroke-width:2; stroke-opacity:0.1; fill:none" points="175.445,865.017 2352.76,865.017 "/>
<polyline clip-path="url(#clip792)" style="stroke:#000000; stroke-linecap:round; stroke-linejoin:round; stroke-width:2; stroke-opacity:0.1; fill:none" points="175.445,605.407 2352.76,605.407 "/>
<polyline clip-path="url(#clip792)" style="stroke:#000000; stroke-linecap:round; stroke-linejoin:round; stroke-width:2; stroke-opacity:0.1; fill:none" points="175.445,345.796 2352.76,345.796 "/>
<polyline clip-path="url(#clip792)" style="stroke:#000000; stroke-linecap:round; stroke-linejoin:round; stroke-width:2; stroke-opacity:0.1; fill:none" points="175.445,86.1857 2352.76,86.1857 "/>
<polyline clip-path="url(#clip790)" style="stroke:#000000; stroke-linecap:round; stroke-linejoin:round; stroke-width:4; stroke-opacity:1; fill:none" points="175.445,1423.18 175.445,47.2441 "/>
<polyline clip-path="url(#clip790)" style="stroke:#000000; stroke-linecap:round; stroke-linejoin:round; stroke-width:4; stroke-opacity:1; fill:none" points="175.445,1384.24 194.343,1384.24 "/>
<polyline clip-path="url(#clip790)" style="stroke:#000000; stroke-linecap:round; stroke-linejoin:round; stroke-width:4; stroke-opacity:1; fill:none" points="175.445,1124.63 194.343,1124.63 "/>
<polyline clip-path="url(#clip790)" style="stroke:#000000; stroke-linecap:round; stroke-linejoin:round; stroke-width:4; stroke-opacity:1; fill:none" points="175.445,865.017 194.343,865.017 "/>
<polyline clip-path="url(#clip790)" style="stroke:#000000; stroke-linecap:round; stroke-linejoin:round; stroke-width:4; stroke-opacity:1; fill:none" points="175.445,605.407 194.343,605.407 "/>
<polyline clip-path="url(#clip790)" style="stroke:#000000; stroke-linecap:round; stroke-linejoin:round; stroke-width:4; stroke-opacity:1; fill:none" points="175.445,345.796 194.343,345.796 "/>
<polyline clip-path="url(#clip790)" style="stroke:#000000; stroke-linecap:round; stroke-linejoin:round; stroke-width:4; stroke-opacity:1; fill:none" points="175.445,86.1857 194.343,86.1857 "/>
<path clip-path="url(#clip790)" d="M127.501 1370.04 Q123.89 1370.04 122.061 1373.6 Q120.255 1377.14 120.255 1384.27 Q120.255 1391.38 122.061 1394.94 Q123.89 1398.49 127.501 1398.49 Q131.135 1398.49 132.941 1394.94 Q134.769 1391.38 134.769 1384.27 Q134.769 1377.14 132.941 1373.6 Q131.135 1370.04 127.501 1370.04 M127.501 1366.33 Q133.311 1366.33 136.367 1370.94 Q139.445 1375.52 139.445 1384.27 Q139.445 1393 136.367 1397.61 Q133.311 1402.19 127.501 1402.19 Q121.691 1402.19 118.612 1397.61 Q115.556 1393 115.556 1384.27 Q115.556 1375.52 118.612 1370.94 Q121.691 1366.33 127.501 1366.33 Z" fill="#000000" fill-rule="nonzero" fill-opacity="1" /><path clip-path="url(#clip790)" d="M119.538 1137.97 L127.177 1137.97 L127.177 1111.61 L118.867 1113.27 L118.867 1109.01 L127.13 1107.35 L131.806 1107.35 L131.806 1137.97 L139.445 1137.97 L139.445 1141.91 L119.538 1141.91 L119.538 1137.97 Z" fill="#000000" fill-rule="nonzero" fill-opacity="1" /><path clip-path="url(#clip790)" d="M123.126 878.362 L139.445 878.362 L139.445 882.297 L117.501 882.297 L117.501 878.362 Q120.163 875.607 124.746 870.978 Q129.353 866.325 130.533 864.983 Q132.779 862.459 133.658 860.723 Q134.561 858.964 134.561 857.274 Q134.561 854.52 132.617 852.783 Q130.695 851.047 127.593 851.047 Q125.394 851.047 122.941 851.811 Q120.51 852.575 117.732 854.126 L117.732 849.404 Q120.556 848.27 123.01 847.691 Q125.464 847.112 127.501 847.112 Q132.871 847.112 136.066 849.797 Q139.26 852.483 139.26 856.973 Q139.26 859.103 138.45 861.024 Q137.663 862.922 135.556 865.515 Q134.978 866.186 131.876 869.404 Q128.774 872.598 123.126 878.362 Z" fill="#000000" fill-rule="nonzero" fill-opacity="1" /><path clip-path="url(#clip790)" d="M132.316 604.053 Q135.672 604.77 137.547 607.039 Q139.445 609.307 139.445 612.64 Q139.445 617.756 135.927 620.557 Q132.408 623.358 125.927 623.358 Q123.751 623.358 121.436 622.918 Q119.144 622.502 116.691 621.645 L116.691 617.131 Q118.635 618.265 120.95 618.844 Q123.265 619.423 125.788 619.423 Q130.186 619.423 132.478 617.687 Q134.792 615.951 134.792 612.64 Q134.792 609.585 132.64 607.872 Q130.51 606.136 126.691 606.136 L122.663 606.136 L122.663 602.293 L126.876 602.293 Q130.325 602.293 132.154 600.928 Q133.982 599.539 133.982 596.946 Q133.982 594.284 132.084 592.872 Q130.209 591.437 126.691 591.437 Q124.769 591.437 122.57 591.854 Q120.371 592.27 117.732 593.15 L117.732 588.983 Q120.394 588.242 122.709 587.872 Q125.047 587.502 127.107 587.502 Q132.431 587.502 135.533 589.932 Q138.635 592.34 138.635 596.46 Q138.635 599.33 136.992 601.321 Q135.348 603.289 132.316 604.053 Z" fill="#000000" fill-rule="nonzero" fill-opacity="1" /><path clip-path="url(#clip790)" d="M129.862 332.59 L118.056 351.039 L129.862 351.039 L129.862 332.59 M128.635 328.516 L134.515 328.516 L134.515 351.039 L139.445 351.039 L139.445 354.928 L134.515 354.928 L134.515 363.076 L129.862 363.076 L129.862 354.928 L114.26 354.928 L114.26 350.414 L128.635 328.516 Z" fill="#000000" fill-rule="nonzero" fill-opacity="1" /><path clip-path="url(#clip790)" d="M118.543 68.9057 L136.899 68.9057 L136.899 72.8408 L122.825 72.8408 L122.825 81.313 Q123.843 80.9658 124.862 80.8038 Q125.88 80.6186 126.899 80.6186 Q132.686 80.6186 136.066 83.7899 Q139.445 86.9611 139.445 92.3778 Q139.445 97.9564 135.973 101.058 Q132.501 104.137 126.181 104.137 Q124.005 104.137 121.737 103.767 Q119.492 103.396 117.084 102.655 L117.084 97.9564 Q119.168 99.0907 121.39 99.6462 Q123.612 100.202 126.089 100.202 Q130.093 100.202 132.431 98.0953 Q134.769 95.9889 134.769 92.3778 Q134.769 88.7667 132.431 86.6602 Q130.093 84.5537 126.089 84.5537 Q124.214 84.5537 122.339 84.9704 Q120.487 85.3871 118.543 86.2667 L118.543 68.9057 Z" fill="#000000" fill-rule="nonzero" fill-opacity="1" /><path clip-path="url(#clip790)" d="M64.0042 738.84 L16.4842 756.983 L16.4842 750.267 L56.4926 735.212 L16.4842 720.125 L16.4842 713.441 L64.0042 731.552 L64.0042 738.84 Z" fill="#000000" fill-rule="nonzero" fill-opacity="1" /><polyline clip-path="url(#clip792)" style="stroke:#009af9; stroke-linecap:round; stroke-linejoin:round; stroke-width:4; stroke-opacity:1; fill:none" points="237.067,735.212 339.771,858.527 442.474,968.861 545.177,1066.22 647.881,1150.59 750.584,1221.98 853.287,1280.39 955.991,1325.83 1058.69,1358.28 1161.4,1377.75 1264.1,1384.24 1366.8,1377.75 1469.51,1358.28 1572.21,1325.83 1674.91,1280.39 1777.62,1221.98 1880.32,1150.59 1983.02,1066.22 2085.73,968.861 2188.43,858.527 2291.13,735.212 "/>
<polyline clip-path="url(#clip792)" style="stroke:#e26f46; stroke-linecap:round; stroke-linejoin:round; stroke-width:4; stroke-opacity:1; fill:none" points="237.067,86.1857 339.771,332.816 442.474,553.485 545.177,748.192 647.881,916.939 750.584,1059.73 853.287,1176.55 955.991,1267.41 1058.69,1332.32 1161.4,1371.26 1264.1,1384.24 1366.8,1371.26 1469.51,1332.32 1572.21,1267.41 1674.91,1176.55 1777.62,1059.73 1880.32,916.939 1983.02,748.192 2085.73,553.485 2188.43,332.816 2291.13,86.1857 "/>
<path clip-path="url(#clip790)" d="M2004.6 1377.32 L2280.18 1377.32 L2280.18 1221.8 L2004.6 1221.8  Z" fill="#ffffff" fill-rule="evenodd" fill-opacity="1"/>
<polyline clip-path="url(#clip790)" style="stroke:#000000; stroke-linecap:round; stroke-linejoin:round; stroke-width:4; stroke-opacity:1; fill:none" points="2004.6,1377.32 2280.18,1377.32 2280.18,1221.8 2004.6,1221.8 2004.6,1377.32 "/>
<polyline clip-path="url(#clip790)" style="stroke:#009af9; stroke-linecap:round; stroke-linejoin:round; stroke-width:4; stroke-opacity:1; fill:none" points="2028.79,1273.64 2173.95,1273.64 "/>
<path clip-path="url(#clip790)" d="M2211.33 1290.92 L2198.14 1256.36 L2203.02 1256.36 L2213.97 1285.45 L2224.95 1256.36 L2229.81 1256.36 L2216.63 1290.92 L2211.33 1290.92 Z" fill="#000000" fill-rule="nonzero" fill-opacity="1" /><path clip-path="url(#clip790)" d="M2236.08 1286.98 L2243.72 1286.98 L2243.72 1260.61 L2235.41 1262.28 L2235.41 1258.02 L2243.67 1256.36 L2248.35 1256.36 L2248.35 1286.98 L2255.99 1286.98 L2255.99 1290.92 L2236.08 1290.92 L2236.08 1286.98 Z" fill="#000000" fill-rule="nonzero" fill-opacity="1" /><polyline clip-path="url(#clip790)" style="stroke:#e26f46; stroke-linecap:round; stroke-linejoin:round; stroke-width:4; stroke-opacity:1; fill:none" points="2028.79,1325.48 2173.95,1325.48 "/>
<path clip-path="url(#clip790)" d="M2211.33 1342.76 L2198.14 1308.2 L2203.02 1308.2 L2213.97 1337.29 L2224.95 1308.2 L2229.81 1308.2 L2216.63 1342.76 L2211.33 1342.76 Z" fill="#000000" fill-rule="nonzero" fill-opacity="1" /><path clip-path="url(#clip790)" d="M2239.3 1338.82 L2255.62 1338.82 L2255.62 1342.76 L2233.67 1342.76 L2233.67 1338.82 Q2236.33 1336.07 2240.92 1331.44 Q2245.52 1326.78 2246.7 1325.44 Q2248.95 1322.92 2249.83 1321.18 Q2250.73 1319.42 2250.73 1317.73 Q2250.73 1314.98 2248.79 1313.24 Q2246.87 1311.51 2243.76 1311.51 Q2241.57 1311.51 2239.11 1312.27 Q2236.68 1313.03 2233.9 1314.58 L2233.9 1309.86 Q2236.73 1308.73 2239.18 1308.15 Q2241.63 1307.57 2243.67 1307.57 Q2249.04 1307.57 2252.24 1310.26 Q2255.43 1312.94 2255.43 1317.43 Q2255.43 1319.56 2254.62 1321.48 Q2253.83 1323.38 2251.73 1325.97 Q2251.15 1326.64 2248.05 1329.86 Q2244.94 1333.06 2239.3 1338.82 Z" fill="#000000" fill-rule="nonzero" fill-opacity="1" /></svg>