<?xml version="1.0" encoding="utf-8"?>
<svg xmlns="http://www.w3.org/2000/svg" xmlns:xlink="http://www.w3.org/1999/xlink" width="600" height="400" viewBox="0 0 2400 1600">
<defs>
  <clipPath id="clip560">
    <rect x="0" y="0" width="2400" height="1600"/>
  </clipPath>
</defs>
<path clip-path="url(#clip560)" d="M0 1600 L2400 1600 L2400 0 L0 0  Z" fill="#ffffff" fill-rule="evenodd" fill-opacity="1"/>
<defs>
  <clipPath id="clip561">
    <rect x="480" y="0" width="1681" height="1600"/>
  </clipPath>
</defs>
<path clip-path="url(#clip560)" d="M193.936 1423.18 L2352.76 1423.18 L2352.76 47.2441 L193.936 47.2441  Z" fill="#ffffff" fill-rule="evenodd" fill-opacity="1"/>
<defs>
  <clipPath id="clip562">
    <rect x="193" y="47" width="2160" height="1377"/>
  </clipPath>
</defs>
<polyline clip-path="url(#clip562)" style="stroke:#000000; stroke-linecap:round; stroke-linejoin:round; stroke-width:2; stroke-opacity:0.1; fill:none" points="255.035,1423.18 255.035,47.2441 "/>
<polyline clip-path="url(#clip562)" style="stroke:#000000; stroke-linecap:round; stroke-linejoin:round; stroke-width:2; stroke-opacity:0.1; fill:none" points="583.522,1423.18 583.522,47.2441 "/>
<polyline clip-path="url(#clip562)" style="stroke:#000000; stroke-linecap:round; stroke-linejoin:round; stroke-width:2; stroke-opacity:0.1; fill:none" points="912.01,1423.18 912.01,47.2441 "/>
<polyline clip-path="url(#clip562)" style="stroke:#000000; stroke-linecap:round; stroke-linejoin:round; stroke-width:2; stroke-opacity:0.1; fill:none" points="1240.5,1423.18 1240.5,47.2441 "/>
<polyline clip-path="url(#clip562)" style="stroke:#000000; stroke-linecap:round; stroke-linejoin:round; stroke-width:2; stroke-opacity:0.1; fill:none" points="1568.98,1423.18 1568.98,47.2441 "/>
<polyline clip-path="url(#clip562)" style="stroke:#000000; stroke-linecap:round; stroke-linejoin:round; stroke-width:2; stroke-opacity:0.1; fill:none" points="1897.47,1423.18 1897.47,47.2441 "/>
<polyline clip-path="url(#clip562)" style="stroke:#000000; stroke-linecap:round; stroke-linejoin:round; stroke-width:2; stroke-opacity:0.1; fill:none" points="2225.96,1423.18 2225.96,47.2441 "/>
<polyline clip-path="url(#clip560)" style="stroke:#000000; stroke-linecap:round; stroke-linejoin:round; stroke-width:4; stroke-opacity:1; fill:none" points="193.936,1423.18 2352.76,1423.18 "/>
<polyline clip-path="url(#clip560)" style="stroke:#000000; stroke-linecap:round; stroke-linejoin:round; stroke-width:4; stroke-opacity:1; fill:none" points="255.035,1423.18 255.035,1404.28 "/>
<polyline clip-path="url(#clip560)" style="stroke:#000000; stroke-linecap:round; stroke-linejoin:round; stroke-width:4; stroke-opacity:1; fill:none" points="583.522,1423.18 583.522,1404.28 "/>
<polyline clip-path="url(#clip560)" style="stroke:#000000; stroke-linecap:round; stroke-linejoin:round; stroke-width:4; stroke-opacity:1; fill:none" points="912.01,1423.18 912.01,1404.28 "/>
<polyline clip-path="url(#clip560)" style="stroke:#000000; stroke-linecap:round; stroke-linejoin:round; stroke-width:4; stroke-opacity:1; fill:none" points="1240.5,1423.18 1240.5,1404.28 "/>
<polyline clip-path="url(#clip560)" style="stroke:#000000; stroke-linecap:round; stroke-linejoin:round; stroke-width:4; stroke-opacity:1; fill:none" points="1568.98,1423.18 1568.98,1404.28 "/>
<polyline clip-path="url(#clip560)" style="stroke:#000000; stroke-linecap:round; stroke-linejoin:round; stroke-width:4; stroke-opacity:1; fill:none" points="1897.47,1423.18 1897.47,1404.28 "/>
<polyline clip-path="url(#clip560)" style="stroke:#000000; stroke-linecap:round; stroke-linejoin:round; stroke-width:4; stroke-opacity:1; fill:none" points="2225.96,1423.18 2225.96,1404.28 "/>
<path clip-path="url(#clip560)" d="M255.035 1454.1 Q251.424 1454.1 249.595 1457.66 Q247.789 1461.2 247.789 1468.33 Q247.789 1475.44 249.595 1479.01 Q251.424 1482.55 255.035 1482.55 Q258.669 1482.55 260.474 1479.01 Q262.303 1475.44 262.303 1468.33 Q262.303 1461.2 260.474 1457.66 Q258.669 1454.1 255.035 1454.1 M255.035 1450.39 Q260.845 1450.39 263.9 1455 Q266.979 1459.58 266.979 1468.33 Q266.979 1477.06 263.9 1481.67 Q260.845 1486.25 255.035 1486.25 Q249.225 1486.25 246.146 1481.67 Q243.09 1477.06 243.09 1468.33 Q243.09 1459.58 246.146 1455 Q249.225 1450.39 255.035 1450.39 Z" fill="#000000" fill-rule="nonzero" fill-opacity="1" /><path clip-path="url(#clip560)" d="M573.904 1481.64 L581.543 1481.64 L581.543 1455.28 L573.233 1456.95 L573.233 1452.69 L581.497 1451.02 L586.173 1451.02 L586.173 1481.64 L593.811 1481.64 L593.811 1485.58 L573.904 1485.58 L573.904 1481.64 Z" fill="#000000" fill-rule="nonzero" fill-opacity="1" /><path clip-path="url(#clip560)" d="M906.662 1481.64 L922.982 1481.64 L922.982 1485.58 L901.038 1485.58 L901.038 1481.64 Q903.7 1478.89 908.283 1474.26 Q912.889 1469.61 914.07 1468.27 Q916.315 1465.74 917.195 1464.01 Q918.098 1462.25 918.098 1460.56 Q918.098 1457.8 916.153 1456.07 Q914.232 1454.33 911.13 1454.33 Q908.931 1454.33 906.477 1455.09 Q904.047 1455.86 901.269 1457.41 L901.269 1452.69 Q904.093 1451.55 906.547 1450.97 Q909 1450.39 911.037 1450.39 Q916.408 1450.39 919.602 1453.08 Q922.797 1455.77 922.797 1460.26 Q922.797 1462.39 921.986 1464.31 Q921.199 1466.2 919.093 1468.8 Q918.514 1469.47 915.412 1472.69 Q912.311 1475.88 906.662 1481.64 Z" fill="#000000" fill-rule="nonzero" fill-opacity="1" /><path clip-path="url(#clip560)" d="M1244.74 1466.95 Q1248.1 1467.66 1249.98 1469.93 Q1251.87 1472.2 1251.87 1475.53 Q1251.87 1480.65 1248.36 1483.45 Q1244.84 1486.25 1238.36 1486.25 Q1236.18 1486.25 1233.87 1485.81 Q1231.57 1485.39 1229.12 1484.54 L1229.12 1480.02 Q1231.06 1481.16 1233.38 1481.74 Q1235.69 1482.32 1238.22 1482.32 Q1242.62 1482.32 1244.91 1480.58 Q1247.22 1478.84 1247.22 1475.53 Q1247.22 1472.48 1245.07 1470.77 Q1242.94 1469.03 1239.12 1469.03 L1235.09 1469.03 L1235.09 1465.19 L1239.31 1465.19 Q1242.75 1465.19 1244.58 1463.82 Q1246.41 1462.43 1246.41 1459.84 Q1246.41 1457.18 1244.51 1455.77 Q1242.64 1454.33 1239.12 1454.33 Q1237.2 1454.33 1235 1454.75 Q1232.8 1455.16 1230.16 1456.04 L1230.16 1451.88 Q1232.82 1451.14 1235.14 1450.77 Q1237.48 1450.39 1239.54 1450.39 Q1244.86 1450.39 1247.96 1452.83 Q1251.06 1455.23 1251.06 1459.35 Q1251.06 1462.22 1249.42 1464.21 Q1247.78 1466.18 1244.74 1466.95 Z" fill="#000000" fill-rule="nonzero" fill-opacity="1" /><path clip-path="url(#clip560)" d="M1571.99 1455.09 L1560.19 1473.54 L1571.99 1473.54 L1571.99 1455.09 M1570.77 1451.02 L1576.65 1451.02 L1576.65 1473.54 L1581.58 1473.54 L1581.58 1477.43 L1576.65 1477.43 L1576.65 1485.58 L1571.99 1485.58 L1571.99 1477.43 L1556.39 1477.43 L1556.39 1472.92 L1570.77 1451.02 Z" fill="#000000" fill-rule="nonzero" fill-opacity="1" /><path clip-path="url(#clip560)" d="M1887.75 1451.02 L1906.11 1451.02 L1906.11 1454.96 L1892.03 1454.96 L1892.03 1463.43 Q1893.05 1463.08 1894.07 1462.92 Q1895.09 1462.73 1896.11 1462.73 Q1901.89 1462.73 1905.27 1465.9 Q1908.65 1469.08 1908.65 1474.49 Q1908.65 1480.07 1905.18 1483.17 Q1901.71 1486.25 1895.39 1486.25 Q1893.21 1486.25 1890.94 1485.88 Q1888.7 1485.51 1886.29 1484.77 L1886.29 1480.07 Q1888.38 1481.2 1890.6 1481.76 Q1892.82 1482.32 1895.3 1482.32 Q1899.3 1482.32 1901.64 1480.21 Q1903.98 1478.1 1903.98 1474.49 Q1903.98 1470.88 1901.64 1468.77 Q1899.3 1466.67 1895.3 1466.67 Q1893.42 1466.67 1891.55 1467.08 Q1889.69 1467.5 1887.75 1468.38 L1887.75 1451.02 Z" fill="#000000" fill-rule="nonzero" fill-opacity="1" /><path clip-path="url(#clip560)" d="M2226.36 1466.44 Q2223.22 1466.44 2221.36 1468.59 Q2219.54 1470.74 2219.54 1474.49 Q2219.54 1478.22 2221.36 1480.39 Q2223.22 1482.55 2226.36 1482.55 Q2229.51 1482.55 2231.34 1480.39 Q2233.19 1478.22 2233.19 1474.49 Q2233.19 1470.74 2231.34 1468.59 Q2229.51 1466.44 2226.36 1466.44 M2235.65 1451.78 L2235.65 1456.04 Q2233.89 1455.21 2232.08 1454.77 Q2230.3 1454.33 2228.54 1454.33 Q2223.91 1454.33 2221.46 1457.45 Q2219.03 1460.58 2218.68 1466.9 Q2220.05 1464.89 2222.11 1463.82 Q2224.17 1462.73 2226.64 1462.73 Q2231.85 1462.73 2234.86 1465.9 Q2237.89 1469.05 2237.89 1474.49 Q2237.89 1479.82 2234.74 1483.03 Q2231.6 1486.25 2226.36 1486.25 Q2220.37 1486.25 2217.2 1481.67 Q2214.03 1477.06 2214.03 1468.33 Q2214.03 1460.14 2217.92 1455.28 Q2221.8 1450.39 2228.36 1450.39 Q2230.11 1450.39 2231.9 1450.74 Q2233.7 1451.09 2235.65 1451.78 Z" fill="#000000" fill-rule="nonzero" fill-opacity="1" /><path clip-path="url(#clip560)" d="M1272.41 1522.27 L1272.41 1532.4 L1284.47 1532.4 L1284.47 1536.95 L1272.41 1536.95 L1272.41 1556.3 Q1272.41 1560.66 1273.58 1561.9 Q1274.79 1563.14 1278.45 1563.14 L1284.47 1563.14 L1284.47 1568.04 L1278.45 1568.04 Q1271.67 1568.04 1269.1 1565.53 Q1266.52 1562.98 1266.52 1556.3 L1266.52 1536.95 L1262.22 1536.95 L1262.22 1532.4 L1266.52 1532.4 L1266.52 1522.27 L1272.41 1522.27 Z" fill="#000000" fill-rule="nonzero" fill-opacity="1" /><polyline clip-path="url(#clip562)" style="stroke:#000000; stroke-linecap:round; stroke-linejoin:round; stroke-width:2; stroke-opacity:0.1; fill:none" points="193.936,1258.4 2352.76,1258.4 "/>
<polyline clip-path="url(#clip562)" style="stroke:#000000; stroke-linecap:round; stroke-linejoin:round; stroke-width:2; stroke-opacity:0.1; fill:none" points="193.936,1074.31 2352.76,1074.31 "/>
<polyline clip-path="url(#clip562)" style="stroke:#000000; stroke-linecap:round; stroke-linejoin:round; stroke-width:2; stroke-opacity:0.1; fill:none" points="193.936,890.226 2352.76,890.226 "/>
<polyline clip-path="url(#clip562)" style="stroke:#000000; stroke-linecap:round; stroke-linejoin:round; stroke-width:2; stroke-opacity:0.1; fill:none" points="193.936,706.142 2352.76,706.142 "/>
<polyline clip-path="url(#clip562)" style="stroke:#000000; stroke-linecap:round; stroke-linejoin:round; stroke-width:2; stroke-opacity:0.1; fill:none" points="193.936,522.057 2352.76,522.057 "/>
<polyline clip-path="url(#clip562)" style="stroke:#000000; stroke-linecap:round; stroke-linejoin:round; stroke-width:2; stroke-opacity:0.1; fill:none" points="193.936,337.972 2352.76,337.972 "/>
<polyline clip-path="url(#clip562)" style="stroke:#000000; stroke-linecap:round; stroke-linejoin:round; stroke-width:2; stroke-opacity:0.1; fill:none" points="193.936,153.888 2352.76,153.888 "/>
<polyline clip-path="url(#clip560)" style="stroke:#000000; stroke-linecap:round; stroke-linejoin:round; stroke-width:4; stroke-opacity:1; fill:none" points="193.936,1423.18 193.936,47.2441 "/>
<polyline clip-path="url(#clip560)" style="stroke:#000000; stroke-linecap:round; stroke-linejoin:round; stroke-width:4; stroke-opacity:1; fill:none" points="193.936,1258.4 212.834,1258.4 "/>
<polyline clip-path="url(#clip560)" style="stroke:#000000; stroke-linecap:round; stroke-linejoin:round; stroke-width:4; stroke-opacity:1; fill:none" points="193.936,1074.31 212.834,1074.31 "/>
<polyline clip-path="url(#clip560)" style="stroke:#000000; stroke-linecap:round; stroke-linejoin:round; stroke-width:4; stroke-opacity:1; fill:none" points="193.936,890.226 212.834,890.226 "/>
<polyline clip-path="url(#clip560)" style="stroke:#000000; stroke-linecap:round; stroke-linejoin:round; stroke-width:4; stroke-opacity:1; fill:none" points="193.936,706.142 212.834,706.142 "/>
<polyline clip-path="url(#clip560)" style="stroke:#000000; stroke-linecap:round; stroke-linejoin:round; stroke-width:4; stroke-opacity:1; fill:none" points="193.936,522.057 212.834,522.057 "/>
<polyline clip-path="url(#clip560)" style="stroke:#000000; stroke-linecap:round; stroke-linejoin:round; stroke-width:4; stroke-opacity:1; fill:none" points="193.936,337.972 212.834,337.972 "/>
<polyline clip-path="url(#clip560)" style="stroke:#000000; stroke-linecap:round; stroke-linejoin:round; stroke-width:4; stroke-opacity:1; fill:none" points="193.936,153.888 212.834,153.888 "/>
<path clip-path="url(#clip560)" d="M51.9875 1258.85 L81.6633 1258.85 L81.6633 1262.78 L51.9875 1262.78 L51.9875 1258.85 Z" fill="#000000" fill-rule="nonzero" fill-opacity="1" /><path clip-path="url(#clip560)" d="M92.566 1271.74 L100.205 1271.74 L100.205 1245.37 L91.8947 1247.04 L91.8947 1242.78 L100.159 1241.12 L104.834 1241.12 L104.834 1271.74 L112.473 1271.74 L112.473 1275.68 L92.566 1275.68 L92.566 1271.74 Z" fill="#000000" fill-rule="nonzero" fill-opacity="1" /><path clip-path="url(#clip560)" d="M121.918 1269.8 L126.802 1269.8 L126.802 1275.68 L121.918 1275.68 L121.918 1269.8 Z" fill="#000000" fill-rule="nonzero" fill-opacity="1" /><path clip-path="url(#clip560)" d="M137.033 1241.12 L155.39 1241.12 L155.39 1245.05 L141.316 1245.05 L141.316 1253.52 Q142.334 1253.18 143.353 1253.01 Q144.371 1252.83 145.39 1252.83 Q151.177 1252.83 154.556 1256 Q157.936 1259.17 157.936 1264.59 Q157.936 1270.17 154.464 1273.27 Q150.992 1276.35 144.672 1276.35 Q142.496 1276.35 140.228 1275.98 Q137.982 1275.61 135.575 1274.87 L135.575 1270.17 Q137.658 1271.3 139.881 1271.86 Q142.103 1272.41 144.58 1272.41 Q148.584 1272.41 150.922 1270.31 Q153.26 1268.2 153.26 1264.59 Q153.26 1260.98 150.922 1258.87 Q148.584 1256.76 144.58 1256.76 Q142.705 1256.76 140.83 1257.18 Q138.978 1257.6 137.033 1258.48 L137.033 1241.12 Z" fill="#000000" fill-rule="nonzero" fill-opacity="1" /><path clip-path="url(#clip560)" d="M50.9921 1074.76 L80.6679 1074.76 L80.6679 1078.7 L50.9921 1078.7 L50.9921 1074.76 Z" fill="#000000" fill-rule="nonzero" fill-opacity="1" /><path clip-path="url(#clip560)" d="M91.5706 1087.66 L99.2095 1087.66 L99.2095 1061.29 L90.8993 1062.96 L90.8993 1058.7 L99.1632 1057.03 L103.839 1057.03 L103.839 1087.66 L111.478 1087.66 L111.478 1091.59 L91.5706 1091.59 L91.5706 1087.66 Z" fill="#000000" fill-rule="nonzero" fill-opacity="1" /><path clip-path="url(#clip560)" d="M120.922 1085.71 L125.807 1085.71 L125.807 1091.59 L120.922 1091.59 L120.922 1085.71 Z" fill="#000000" fill-rule="nonzero" fill-opacity="1" /><path clip-path="url(#clip560)" d="M145.992 1060.11 Q142.381 1060.11 140.552 1063.67 Q138.746 1067.22 138.746 1074.35 Q138.746 1081.45 140.552 1085.02 Q142.381 1088.56 145.992 1088.56 Q149.626 1088.56 151.431 1085.02 Q153.26 1081.45 153.26 1074.35 Q153.26 1067.22 151.431 1063.67 Q149.626 1060.11 145.992 1060.11 M145.992 1056.41 Q151.802 1056.41 154.857 1061.01 Q157.936 1065.6 157.936 1074.35 Q157.936 1083.07 154.857 1087.68 Q151.802 1092.26 145.992 1092.26 Q140.181 1092.26 137.103 1087.68 Q134.047 1083.07 134.047 1074.35 Q134.047 1065.6 137.103 1061.01 Q140.181 1056.41 145.992 1056.41 Z" fill="#000000" fill-rule="nonzero" fill-opacity="1" /><path clip-path="url(#clip560)" d="M51.9875 890.678 L81.6633 890.678 L81.6633 894.613 L51.9875 894.613 L51.9875 890.678 Z" fill="#000000" fill-rule="nonzero" fill-opacity="1" /><path clip-path="url(#clip560)" d="M101.756 876.025 Q98.1447 876.025 96.316 879.59 Q94.5104 883.131 94.5104 890.261 Q94.5104 897.367 96.316 900.932 Q98.1447 904.474 101.756 904.474 Q105.39 904.474 107.196 900.932 Q109.024 897.367 109.024 890.261 Q109.024 883.131 107.196 879.59 Q105.39 876.025 101.756 876.025 M101.756 872.321 Q107.566 872.321 110.621 876.928 Q113.7 881.511 113.7 890.261 Q113.7 898.988 110.621 903.594 Q107.566 908.177 101.756 908.177 Q95.9456 908.177 92.8669 903.594 Q89.8114 898.988 89.8114 890.261 Q89.8114 881.511 92.8669 876.928 Q95.9456 872.321 101.756 872.321 Z" fill="#000000" fill-rule="nonzero" fill-opacity="1" /><path clip-path="url(#clip560)" d="M121.918 901.627 L126.802 901.627 L126.802 907.506 L121.918 907.506 L121.918 901.627 Z" fill="#000000" fill-rule="nonzero" fill-opacity="1" /><path clip-path="url(#clip560)" d="M137.033 872.946 L155.39 872.946 L155.39 876.881 L141.316 876.881 L141.316 885.354 Q142.334 885.006 143.353 884.844 Q144.371 884.659 145.39 884.659 Q151.177 884.659 154.556 887.83 Q157.936 891.002 157.936 896.418 Q157.936 901.997 154.464 905.099 Q150.992 908.177 144.672 908.177 Q142.496 908.177 140.228 907.807 Q137.982 907.437 135.575 906.696 L135.575 901.997 Q137.658 903.131 139.881 903.687 Q142.103 904.242 144.58 904.242 Q148.584 904.242 150.922 902.136 Q153.26 900.029 153.26 896.418 Q153.26 892.807 150.922 890.701 Q148.584 888.594 144.58 888.594 Q142.705 888.594 140.83 889.011 Q138.978 889.428 137.033 890.307 L137.033 872.946 Z" fill="#000000" fill-rule="nonzero" fill-opacity="1" /><path clip-path="url(#clip560)" d="M100.76 691.94 Q97.1493 691.94 95.3206 695.505 Q93.515 699.047 93.515 706.176 Q93.515 713.283 95.3206 716.848 Q97.1493 720.389 100.76 720.389 Q104.395 720.389 106.2 716.848 Q108.029 713.283 108.029 706.176 Q108.029 699.047 106.2 695.505 Q104.395 691.94 100.76 691.94 M100.76 688.237 Q106.571 688.237 109.626 692.843 Q112.705 697.426 112.705 706.176 Q112.705 714.903 109.626 719.51 Q106.571 724.093 100.76 724.093 Q94.9502 724.093 91.8715 719.51 Q88.816 714.903 88.816 706.176 Q88.816 697.426 91.8715 692.843 Q94.9502 688.237 100.76 688.237 Z" fill="#000000" fill-rule="nonzero" fill-opacity="1" /><path clip-path="url(#clip560)" d="M120.922 717.542 L125.807 717.542 L125.807 723.422 L120.922 723.422 L120.922 717.542 Z" fill="#000000" fill-rule="nonzero" fill-opacity="1" /><path clip-path="url(#clip560)" d="M145.992 691.94 Q142.381 691.94 140.552 695.505 Q138.746 699.047 138.746 706.176 Q138.746 713.283 140.552 716.848 Q142.381 720.389 145.992 720.389 Q149.626 720.389 151.431 716.848 Q153.26 713.283 153.26 706.176 Q153.26 699.047 151.431 695.505 Q149.626 691.94 145.992 691.94 M145.992 688.237 Q151.802 688.237 154.857 692.843 Q157.936 697.426 157.936 706.176 Q157.936 714.903 154.857 719.51 Q151.802 724.093 145.992 724.093 Q140.181 724.093 137.103 719.51 Q134.047 714.903 134.047 706.176 Q134.047 697.426 137.103 692.843 Q140.181 688.237 145.992 688.237 Z" fill="#000000" fill-rule="nonzero" fill-opacity="1" /><path clip-path="url(#clip560)" d="M101.756 507.856 Q98.1447 507.856 96.316 511.42 Q94.5104 514.962 94.5104 522.092 Q94.5104 529.198 96.316 532.763 Q98.1447 536.305 101.756 536.305 Q105.39 536.305 107.196 532.763 Q109.024 529.198 109.024 522.092 Q109.024 514.962 107.196 511.42 Q105.39 507.856 101.756 507.856 M101.756 504.152 Q107.566 504.152 110.621 508.758 Q113.7 513.342 113.7 522.092 Q113.7 530.819 110.621 535.425 Q107.566 540.008 101.756 540.008 Q95.9456 540.008 92.8669 535.425 Q89.8114 530.819 89.8114 522.092 Q89.8114 513.342 92.8669 508.758 Q95.9456 504.152 101.756 504.152 Z" fill="#000000" fill-rule="nonzero" fill-opacity="1" /><path clip-path="url(#clip560)" d="M121.918 533.457 L126.802 533.457 L126.802 539.337 L121.918 539.337 L121.918 533.457 Z" fill="#000000" fill-rule="nonzero" fill-opacity="1" /><path clip-path="url(#clip560)" d="M137.033 504.777 L155.39 504.777 L155.39 508.712 L141.316 508.712 L141.316 517.184 Q142.334 516.837 143.353 516.675 Q144.371 516.49 145.39 516.49 Q151.177 516.49 154.556 519.661 Q157.936 522.832 157.936 528.249 Q157.936 533.828 154.464 536.93 Q150.992 540.008 144.672 540.008 Q142.496 540.008 140.228 539.638 Q137.982 539.268 135.575 538.527 L135.575 533.828 Q137.658 534.962 139.881 535.518 Q142.103 536.073 144.58 536.073 Q148.584 536.073 150.922 533.967 Q153.26 531.86 153.26 528.249 Q153.26 524.638 150.922 522.532 Q148.584 520.425 144.58 520.425 Q142.705 520.425 140.83 520.842 Q138.978 521.258 137.033 522.138 L137.033 504.777 Z" fill="#000000" fill-rule="nonzero" fill-opacity="1" /><path clip-path="url(#clip560)" d="M91.5706 351.317 L99.2095 351.317 L99.2095 324.952 L90.8993 326.618 L90.8993 322.359 L99.1632 320.692 L103.839 320.692 L103.839 351.317 L111.478 351.317 L111.478 355.252 L91.5706 355.252 L91.5706 351.317 Z" fill="#000000" fill-rule="nonzero" fill-opacity="1" /><path clip-path="url(#clip560)" d="M120.922 349.373 L125.807 349.373 L125.807 355.252 L120.922 355.252 L120.922 349.373 Z" fill="#000000" fill-rule="nonzero" fill-opacity="1" /><path clip-path="url(#clip560)" d="M145.992 323.771 Q142.381 323.771 140.552 327.336 Q138.746 330.878 138.746 338.007 Q138.746 345.114 140.552 348.678 Q142.381 352.22 145.992 352.22 Q149.626 352.22 151.431 348.678 Q153.26 345.114 153.26 338.007 Q153.26 330.878 151.431 327.336 Q149.626 323.771 145.992 323.771 M145.992 320.067 Q151.802 320.067 154.857 324.674 Q157.936 329.257 157.936 338.007 Q157.936 346.734 154.857 351.34 Q151.802 355.924 145.992 355.924 Q140.181 355.924 137.103 351.34 Q134.047 346.734 134.047 338.007 Q134.047 329.257 137.103 324.674 Q140.181 320.067 145.992 320.067 Z" fill="#000000" fill-rule="nonzero" fill-opacity="1" /><path clip-path="url(#clip560)" d="M92.566 167.233 L100.205 167.233 L100.205 140.867 L91.8947 142.534 L91.8947 138.274 L100.159 136.608 L104.834 136.608 L104.834 167.233 L112.473 167.233 L112.473 171.168 L92.566 171.168 L92.566 167.233 Z" fill="#000000" fill-rule="nonzero" fill-opacity="1" /><path clip-path="url(#clip560)" d="M121.918 165.288 L126.802 165.288 L126.802 171.168 L121.918 171.168 L121.918 165.288 Z" fill="#000000" fill-rule="nonzero" fill-opacity="1" /><path clip-path="url(#clip560)" d="M137.033 136.608 L155.39 136.608 L155.39 140.543 L141.316 140.543 L141.316 149.015 Q142.334 148.668 143.353 148.506 Q144.371 148.321 145.39 148.321 Q151.177 148.321 154.556 151.492 Q157.936 154.663 157.936 160.08 Q157.936 165.659 154.464 168.76 Q150.992 171.839 144.672 171.839 Q142.496 171.839 140.228 171.469 Q137.982 171.098 135.575 170.358 L135.575 165.659 Q137.658 166.793 139.881 167.348 Q142.103 167.904 144.58 167.904 Q148.584 167.904 150.922 165.797 Q153.26 163.691 153.26 160.08 Q153.26 156.469 150.922 154.362 Q148.584 152.256 144.58 152.256 Q142.705 152.256 140.83 152.673 Q138.978 153.089 137.033 153.969 L137.033 136.608 Z" fill="#000000" fill-rule="nonzero" fill-opacity="1" /><circle clip-path="url(#clip562)" cx="255.035" cy="127.823" r="14.4" fill="#009af9" fill-rule="evenodd" fill-opacity="1" stroke="#000000" stroke-opacity="1" stroke-width="3.2"/>
<circle clip-path="url(#clip562)" cx="287.883" cy="127.823" r="14.4" fill="#009af9" fill-rule="evenodd" fill-opacity="1" stroke="#000000" stroke-opacity="1" stroke-width="3.2"/>
<circle clip-path="url(#clip562)" cx="320.732" cy="131.504" r="14.4" fill="#009af9" fill-rule="evenodd" fill-opacity="1" stroke="#000000" stroke-opacity="1" stroke-width="3.2"/>
<circle clip-path="url(#clip562)" cx="353.581" cy="138.868" r="14.4" fill="#009af9" fill-rule="evenodd" fill-opacity="1" stroke="#000000" stroke-opacity="1" stroke-width="3.2"/>
<circle clip-path="url(#clip562)" cx="386.43" cy="149.913" r="14.4" fill="#009af9" fill-rule="evenodd" fill-opacity="1" stroke="#000000" stroke-opacity="1" stroke-width="3.2"/>
<circle clip-path="url(#clip562)" cx="419.278" cy="164.638" r="14.4" fill="#009af9" fill-rule="evenodd" fill-opacity="1" stroke="#000000" stroke-opacity="1" stroke-width="3.2"/>
<circle clip-path="url(#clip562)" cx="452.127" cy="183.038" r="14.4" fill="#009af9" fill-rule="evenodd" fill-opacity="1" stroke="#000000" stroke-opacity="1" stroke-width="3.2"/>
<circle clip-path="url(#clip562)" cx="484.976" cy="205.101" r="14.4" fill="#009af9" fill-rule="evenodd" fill-opacity="1" stroke="#000000" stroke-opacity="1" stroke-width="3.2"/>
<circle clip-path="url(#clip562)" cx="517.825" cy="230.805" r="14.4" fill="#009af9" fill-rule="evenodd" fill-opacity="1" stroke="#000000" stroke-opacity="1" stroke-width="3.2"/>
<circle clip-path="url(#clip562)" cx="550.673" cy="260.109" r="14.4" fill="#009af9" fill-rule="evenodd" fill-opacity="1" stroke="#000000" stroke-opacity="1" stroke-width="3.2"/>
<circle clip-path="url(#clip562)" cx="583.522" cy="292.952" r="14.4" fill="#009af9" fill-rule="evenodd" fill-opacity="1" stroke="#000000" stroke-opacity="1" stroke-width="3.2"/>
<circle clip-path="url(#clip562)" cx="616.371" cy="329.242" r="14.4" fill="#009af9" fill-rule="evenodd" fill-opacity="1" stroke="#000000" stroke-opacity="1" stroke-width="3.2"/>
<circle clip-path="url(#clip562)" cx="649.22" cy="368.849" r="14.4" fill="#009af9" fill-rule="evenodd" fill-opacity="1" stroke="#000000" stroke-opacity="1" stroke-width="3.2"/>
<circle clip-path="url(#clip562)" cx="682.068" cy="411.601" r="14.4" fill="#009af9" fill-rule="evenodd" fill-opacity="1" stroke="#000000" stroke-opacity="1" stroke-width="3.2"/>
<circle clip-path="url(#clip562)" cx="714.917" cy="457.273" r="14.4" fill="#009af9" fill-rule="evenodd" fill-opacity="1" stroke="#000000" stroke-opacity="1" stroke-width="3.2"/>
<circle clip-path="url(#clip562)" cx="747.766" cy="505.586" r="14.4" fill="#009af9" fill-rule="evenodd" fill-opacity="1" stroke="#000000" stroke-opacity="1" stroke-width="3.2"/>
<circle clip-path="url(#clip562)" cx="780.615" cy="556.203" r="14.4" fill="#009af9" fill-rule="evenodd" fill-opacity="1" stroke="#000000" stroke-opacity="1" stroke-width="3.2"/>
<circle clip-path="url(#clip562)" cx="813.463" cy="608.727" r="14.4" fill="#009af9" fill-rule="evenodd" fill-opacity="1" stroke="#000000" stroke-opacity="1" stroke-width="3.2"/>
<circle clip-path="url(#clip562)" cx="846.312" cy="662.71" r="14.4" fill="#009af9" fill-rule="evenodd" fill-opacity="1" stroke="#000000" stroke-opacity="1" stroke-width="3.2"/>
<circle clip-path="url(#clip562)" cx="879.161" cy="717.656" r="14.4" fill="#009af9" fill-rule="evenodd" fill-opacity="1" stroke="#000000" stroke-opacity="1" stroke-width="3.2"/>
<circle clip-path="url(#clip562)" cx="912.01" cy="773.035" r="14.4" fill="#009af9" fill-rule="evenodd" fill-opacity="1" stroke="#000000" stroke-opacity="1" stroke-width="3.2"/>
<circle clip-path="url(#clip562)" cx="944.858" cy="828.299" r="14.4" fill="#009af9" fill-rule="evenodd" fill-opacity="1" stroke="#000000" stroke-opacity="1" stroke-width="3.2"/>
<circle clip-path="url(#clip562)" cx="977.707" cy="882.897" r="14.4" fill="#009af9" fill-rule="evenodd" fill-opacity="1" stroke="#000000" stroke-opacity="1" stroke-width="3.2"/>
<circle clip-path="url(#clip562)" cx="1010.56" cy="936.296" r="14.4" fill="#009af9" fill-rule="evenodd" fill-opacity="1" stroke="#000000" stroke-opacity="1" stroke-width="3.2"/>
<circle clip-path="url(#clip562)" cx="1043.4" cy="987.995" r="14.4" fill="#009af9" fill-rule="evenodd" fill-opacity="1" stroke="#000000" stroke-opacity="1" stroke-width="3.2"/>
<circle clip-path="url(#clip562)" cx="1076.25" cy="1037.54" r="14.4" fill="#009af9" fill-rule="evenodd" fill-opacity="1" stroke="#000000" stroke-opacity="1" stroke-width="3.2"/>
<circle clip-path="url(#clip562)" cx="1109.1" cy="1084.53" r="14.4" fill="#009af9" fill-rule="evenodd" fill-opacity="1" stroke="#000000" stroke-opacity="1" stroke-width="3.2"/>
<circle clip-path="url(#clip562)" cx="1141.95" cy="1128.64" r="14.4" fill="#009af9" fill-rule="evenodd" fill-opacity="1" stroke="#000000" stroke-opacity="1" stroke-width="3.2"/>
<circle clip-path="url(#clip562)" cx="1174.8" cy="1169.6" r="14.4" fill="#009af9" fill-rule="evenodd" fill-opacity="1" stroke="#000000" stroke-opacity="1" stroke-width="3.2"/>
<circle clip-path="url(#clip562)" cx="1207.65" cy="1207.2" r="14.4" fill="#009af9" fill-rule="evenodd" fill-opacity="1" stroke="#000000" stroke-opacity="1" stroke-width="3.2"/>
<circle clip-path="url(#clip562)" cx="1240.5" cy="1241.29" r="14.4" fill="#009af9" fill-rule="evenodd" fill-opacity="1" stroke="#000000" stroke-opacity="1" stroke-width="3.2"/>
<circle clip-path="url(#clip562)" cx="1273.35" cy="1271.79" r="14.4" fill="#009af9" fill-rule="evenodd" fill-opacity="1" stroke="#000000" stroke-opacity="1" stroke-width="3.2"/>
<circle clip-path="url(#clip562)" cx="1306.19" cy="1298.63" r="14.4" fill="#009af9" fill-rule="evenodd" fill-opacity="1" stroke="#000000" stroke-opacity="1" stroke-width="3.2"/>
<circle clip-path="url(#clip562)" cx="1339.04" cy="1321.79" r="14.4" fill="#009af9" fill-rule="evenodd" fill-opacity="1" stroke="#000000" stroke-opacity="1" stroke-width="3.2"/>
<circle clip-path="url(#clip562)" cx="1371.89" cy="1341.27" r="14.4" fill="#009af9" fill-rule="evenodd" fill-opacity="1" stroke="#000000" stroke-opacity="1" stroke-width="3.2"/>
<circle clip-path="url(#clip562)" cx="1404.74" cy="1357.08" r="14.4" fill="#009af9" fill-rule="evenodd" fill-opacity="1" stroke="#000000" stroke-opacity="1" stroke-width="3.2"/>
<circle clip-path="url(#clip562)" cx="1437.59" cy="1369.26" r="14.4" fill="#009af9" fill-rule="evenodd" fill-opacity="1" stroke="#000000" stroke-opacity="1" stroke-width="3.2"/>
<circle clip-path="url(#clip562)" cx="1470.44" cy="1377.83" r="14.4" fill="#009af9" fill-rule="evenodd" fill-opacity="1" stroke="#000000" stroke-opacity="1" stroke-width="3.2"/>
<circle clip-path="url(#clip562)" cx="1503.29" cy="1382.82" r="14.4" fill="#009af9" fill-rule="evenodd" fill-opacity="1" stroke="#000000" stroke-opacity="1" stroke-width="3.2"/>
<circle clip-path="url(#clip562)" cx="1536.14" cy="1384.24" r="14.4" fill="#009af9" fill-rule="evenodd" fill-opacity="1" stroke="#000000" stroke-opacity="1" stroke-width="3.2"/>
<circle clip-path="url(#clip562)" cx="1568.98" cy="1382.11" r="14.4" fill="#009af9" fill-rule="evenodd" fill-opacity="1" stroke="#000000" stroke-opacity="1" stroke-width="3.2"/>
<circle clip-path="url(#clip562)" cx="1601.83" cy="1376.43" r="14.4" fill="#009af9" fill-rule="evenodd" fill-opacity="1" stroke="#000000" stroke-opacity="1" stroke-width="3.2"/>
<circle clip-path="url(#clip562)" cx="1634.68" cy="1367.2" r="14.4" fill="#009af9" fill-rule="evenodd" fill-opacity="1" stroke="#000000" stroke-opacity="1" stroke-width="3.2"/>
<circle clip-path="url(#clip562)" cx="1667.53" cy="1354.4" r="14.4" fill="#009af9" fill-rule="evenodd" fill-opacity="1" stroke="#000000" stroke-opacity="1" stroke-width="3.2"/>
<circle clip-path="url(#clip562)" cx="1700.38" cy="1338.01" r="14.4" fill="#009af9" fill-rule="evenodd" fill-opacity="1" stroke="#000000" stroke-opacity="1" stroke-width="3.2"/>
<circle clip-path="url(#clip562)" cx="1733.23" cy="1318.01" r="14.4" fill="#009af9" fill-rule="evenodd" fill-opacity="1" stroke="#000000" stroke-opacity="1" stroke-width="3.2"/>
<circle clip-path="url(#clip562)" cx="1766.08" cy="1294.37" r="14.4" fill="#009af9" fill-rule="evenodd" fill-opacity="1" stroke="#000000" stroke-opacity="1" stroke-width="3.2"/>
<circle clip-path="url(#clip562)" cx="1798.93" cy="1267.05" r="14.4" fill="#009af9" fill-rule="evenodd" fill-opacity="1" stroke="#000000" stroke-opacity="1" stroke-width="3.2"/>
<circle clip-path="url(#clip562)" cx="1831.77" cy="1236.06" r="14.4" fill="#009af9" fill-rule="evenodd" fill-opacity="1" stroke="#000000" stroke-opacity="1" stroke-width="3.2"/>
<circle clip-path="url(#clip562)" cx="1864.62" cy="1201.39" r="14.4" fill="#009af9" fill-rule="evenodd" fill-opacity="1" stroke="#000000" stroke-opacity="1" stroke-width="3.2"/>
<circle clip-path="url(#clip562)" cx="1897.47" cy="1163.07" r="14.4" fill="#009af9" fill-rule="evenodd" fill-opacity="1" stroke="#000000" stroke-opacity="1" stroke-width="3.2"/>
<circle clip-path="url(#clip562)" cx="1930.32" cy="1121.16" r="14.4" fill="#009af9" fill-rule="evenodd" fill-opacity="1" stroke="#000000" stroke-opacity="1" stroke-width="3.2"/>
<circle clip-path="url(#clip562)" cx="1963.17" cy="1075.77" r="14.4" fill="#009af9" fill-rule="evenodd" fill-opacity="1" stroke="#000000" stroke-opacity="1" stroke-width="3.2"/>
<circle clip-path="url(#clip562)" cx="1996.02" cy="1027.06" r="14.4" fill="#009af9" fill-rule="evenodd" fill-opacity="1" stroke="#000000" stroke-opacity="1" stroke-width="3.2"/>
<circle clip-path="url(#clip562)" cx="2028.87" cy="975.234" r="14.4" fill="#009af9" fill-rule="evenodd" fill-opacity="1" stroke="#000000" stroke-opacity="1" stroke-width="3.2"/>
<circle clip-path="url(#clip562)" cx="2061.72" cy="920.593" r="14.4" fill="#009af9" fill-rule="evenodd" fill-opacity="1" stroke="#000000" stroke-opacity="1" stroke-width="3.2"/>
<circle clip-path="url(#clip562)" cx="2094.56" cy="863.494" r="14.4" fill="#009af9" fill-rule="evenodd" fill-opacity="1" stroke="#000000" stroke-opacity="1" stroke-width="3.2"/>
<circle clip-path="url(#clip562)" cx="2127.41" cy="804.371" r="14.4" fill="#009af9" fill-rule="evenodd" fill-opacity="1" stroke="#000000" stroke-opacity="1" stroke-width="3.2"/>
<circle clip-path="url(#clip562)" cx="2160.26" cy="743.721" r="14.4" fill="#009af9" fill-rule="evenodd" fill-opacity="1" stroke="#000000" stroke-opacity="1" stroke-width="3.2"/>
<circle clip-path="url(#clip562)" cx="2193.11" cy="682.1" r="14.4" fill="#009af9" fill-rule="evenodd" fill-opacity="1" stroke="#000000" stroke-opacity="1" stroke-width="3.2"/>
<circle clip-path="url(#clip562)" cx="2225.96" cy="620.105" r="14.4" fill="#009af9" fill-rule="evenodd" fill-opacity="1" stroke="#000000" stroke-opacity="1" stroke-width="3.2"/>
<circle clip-path="url(#clip562)" cx="2258.81" cy="558.349" r="14.4" fill="#009af9" fill-rule="evenodd" fill-opacity="1" stroke="#000000" stroke-opacity="1" stroke-width="3.2"/>
<circle clip-path="url(#clip562)" cx="2291.66" cy="497.447" r="14.4" fill="#009af9" fill-rule="evenodd" fill-opacity="1" stroke="#000000" stroke-opacity="1" stroke-width="3.2"/>
<circle clip-path="url(#clip562)" cx="255.035" cy="706.142" r="14.4" fill="#e26f46" fill-rule="evenodd" fill-opacity="1" stroke="#000000" stroke-opacity="1" stroke-width="3.2"/>
<circle clip-path="url(#clip562)" cx="287.883" cy="742.959" r="14.4" fill="#e26f46" fill-rule="evenodd" fill-opacity="1" stroke="#000000" stroke-opacity="1" stroke-width="3.2"/>
<circle clip-path="url(#clip562)" cx="320.732" cy="779.775" r="14.4" fill="#e26f46" fill-rule="evenodd" fill-opacity="1" stroke="#000000" stroke-opacity="1" stroke-width="3.2"/>
<circle clip-path="url(#clip562)" cx="353.581" cy="816.591" r="14.4" fill="#e26f46" fill-rule="evenodd" fill-opacity="1" stroke="#000000" stroke-opacity="1" stroke-width="3.2"/>
<circle clip-path="url(#clip562)" cx="386.43" cy="853.391" r="14.4" fill="#e26f46" fill-rule="evenodd" fill-opacity="1" stroke="#000000" stroke-opacity="1" stroke-width="3.2"/>
<circle clip-path="url(#clip562)" cx="419.278" cy="890.142" r="14.4" fill="#e26f46" fill-rule="evenodd" fill-opacity="1" stroke="#000000" stroke-opacity="1" stroke-width="3.2"/>
<circle clip-path="url(#clip562)" cx="452.127" cy="926.775" r="14.4" fill="#e26f46" fill-rule="evenodd" fill-opacity="1" stroke="#000000" stroke-opacity="1" stroke-width="3.2"/>
<circle clip-path="url(#clip562)" cx="484.976" cy="963.178" r="14.4" fill="#e26f46" fill-rule="evenodd" fill-opacity="1" stroke="#000000" stroke-opacity="1" stroke-width="3.2"/>
<circle clip-path="url(#clip562)" cx="517.825" cy="999.187" r="14.4" fill="#e26f46" fill-rule="evenodd" fill-opacity="1" stroke="#000000" stroke-opacity="1" stroke-width="3.2"/>
<circle clip-path="url(#clip562)" cx="550.673" cy="1034.57" r="14.4" fill="#e26f46" fill-rule="evenodd" fill-opacity="1" stroke="#000000" stroke-opacity="1" stroke-width="3.2"/>
<circle clip-path="url(#clip562)" cx="583.522" cy="1069.04" r="14.4" fill="#e26f46" fill-rule="evenodd" fill-opacity="1" stroke="#000000" stroke-opacity="1" stroke-width="3.2"/>
<circle clip-path="url(#clip562)" cx="616.371" cy="1102.21" r="14.4" fill="#e26f46" fill-rule="evenodd" fill-opacity="1" stroke="#000000" stroke-opacity="1" stroke-width="3.2"/>
<circle clip-path="url(#clip562)" cx="649.22" cy="1133.66" r="14.4" fill="#e26f46" fill-rule="evenodd" fill-opacity="1" stroke="#000000" stroke-opacity="1" stroke-width="3.2"/>
<circle clip-path="url(#clip562)" cx="682.068" cy="1162.86" r="14.4" fill="#e26f46" fill-rule="evenodd" fill-opacity="1" stroke="#000000" stroke-opacity="1" stroke-width="3.2"/>
<circle clip-path="url(#clip562)" cx="714.917" cy="1189.27" r="14.4" fill="#e26f46" fill-rule="evenodd" fill-opacity="1" stroke="#000000" stroke-opacity="1" stroke-width="3.2"/>
<circle clip-path="url(#clip562)" cx="747.766" cy="1212.31" r="14.4" fill="#e26f46" fill-rule="evenodd" fill-opacity="1" stroke="#000000" stroke-opacity="1" stroke-width="3.2"/>
<circle clip-path="url(#clip562)" cx="780.615" cy="1231.39" r="14.4" fill="#e26f46" fill-rule="evenodd" fill-opacity="1" stroke="#000000" stroke-opacity="1" stroke-width="3.2"/>
<circle clip-path="url(#clip562)" cx="813.463" cy="1245.97" r="14.4" fill="#e26f46" fill-rule="evenodd" fill-opacity="1" stroke="#000000" stroke-opacity="1" stroke-width="3.2"/>
<circle clip-path="url(#clip562)" cx="846.312" cy="1255.6" r="14.4" fill="#e26f46" fill-rule="evenodd" fill-opacity="1" stroke="#000000" stroke-opacity="1" stroke-width="3.2"/>
<circle clip-path="url(#clip562)" cx="879.161" cy="1259.93" r="14.4" fill="#e26f46" fill-rule="evenodd" fill-opacity="1" stroke="#000000" stroke-opacity="1" stroke-width="3.2"/>
<circle clip-path="url(#clip562)" cx="912.01" cy="1258.78" r="14.4" fill="#e26f46" fill-rule="evenodd" fill-opacity="1" stroke="#000000" stroke-opacity="1" stroke-width="3.2"/>
<circle clip-path="url(#clip562)" cx="944.858" cy="1252.13" r="14.4" fill="#e26f46" fill-rule="evenodd" fill-opacity="1" stroke="#000000" stroke-opacity="1" stroke-width="3.2"/>
<circle clip-path="url(#clip562)" cx="977.707" cy="1240.13" r="14.4" fill="#e26f46" fill-rule="evenodd" fill-opacity="1" stroke="#000000" stroke-opacity="1" stroke-width="3.2"/>
<circle clip-path="url(#clip562)" cx="1010.56" cy="1223.13" r="14.4" fill="#e26f46" fill-rule="evenodd" fill-opacity="1" stroke="#000000" stroke-opacity="1" stroke-width="3.2"/>
<circle clip-path="url(#clip562)" cx="1043.4" cy="1201.58" r="14.4" fill="#e26f46" fill-rule="evenodd" fill-opacity="1" stroke="#000000" stroke-opacity="1" stroke-width="3.2"/>
<circle clip-path="url(#clip562)" cx="1076.25" cy="1176.07" r="14.4" fill="#e26f46" fill-rule="evenodd" fill-opacity="1" stroke="#000000" stroke-opacity="1" stroke-width="3.2"/>
<circle clip-path="url(#clip562)" cx="1109.1" cy="1147.23" r="14.4" fill="#e26f46" fill-rule="evenodd" fill-opacity="1" stroke="#000000" stroke-opacity="1" stroke-width="3.2"/>
<circle clip-path="url(#clip562)" cx="1141.95" cy="1115.71" r="14.4" fill="#e26f46" fill-rule="evenodd" fill-opacity="1" stroke="#000000" stroke-opacity="1" stroke-width="3.2"/>
<circle clip-path="url(#clip562)" cx="1174.8" cy="1082.14" r="14.4" fill="#e26f46" fill-rule="evenodd" fill-opacity="1" stroke="#000000" stroke-opacity="1" stroke-width="3.2"/>
<circle clip-path="url(#clip562)" cx="1207.65" cy="1047.1" r="14.4" fill="#e26f46" fill-rule="evenodd" fill-opacity="1" stroke="#000000" stroke-opacity="1" stroke-width="3.2"/>
<circle clip-path="url(#clip562)" cx="1240.5" cy="1011.09" r="14.4" fill="#e26f46" fill-rule="evenodd" fill-opacity="1" stroke="#000000" stroke-opacity="1" stroke-width="3.2"/>
<circle clip-path="url(#clip562)" cx="1273.35" cy="974.528" r="14.4" fill="#e26f46" fill-rule="evenodd" fill-opacity="1" stroke="#000000" stroke-opacity="1" stroke-width="3.2"/>
<circle clip-path="url(#clip562)" cx="1306.19" cy="937.733" r="14.4" fill="#e26f46" fill-rule="evenodd" fill-opacity="1" stroke="#000000" stroke-opacity="1" stroke-width="3.2"/>
<circle clip-path="url(#clip562)" cx="1339.04" cy="900.943" r="14.4" fill="#e26f46" fill-rule="evenodd" fill-opacity="1" stroke="#000000" stroke-opacity="1" stroke-width="3.2"/>
<circle clip-path="url(#clip562)" cx="1371.89" cy="864.315" r="14.4" fill="#e26f46" fill-rule="evenodd" fill-opacity="1" stroke="#000000" stroke-opacity="1" stroke-width="3.2"/>
<circle clip-path="url(#clip562)" cx="1404.74" cy="827.936" r="14.4" fill="#e26f46" fill-rule="evenodd" fill-opacity="1" stroke="#000000" stroke-opacity="1" stroke-width="3.2"/>
<circle clip-path="url(#clip562)" cx="1437.59" cy="791.833" r="14.4" fill="#e26f46" fill-rule="evenodd" fill-opacity="1" stroke="#000000" stroke-opacity="1" stroke-width="3.2"/>
<circle clip-path="url(#clip562)" cx="1470.44" cy="755.988" r="14.4" fill="#e26f46" fill-rule="evenodd" fill-opacity="1" stroke="#000000" stroke-opacity="1" stroke-width="3.2"/>
<circle clip-path="url(#clip562)" cx="1503.29" cy="720.349" r="14.4" fill="#e26f46" fill-rule="evenodd" fill-opacity="1" stroke="#000000" stroke-opacity="1" stroke-width="3.2"/>
<circle clip-path="url(#clip562)" cx="1536.14" cy="684.838" r="14.4" fill="#e26f46" fill-rule="evenodd" fill-opacity="1" stroke="#000000" stroke-opacity="1" stroke-width="3.2"/>
<circle clip-path="url(#clip562)" cx="1568.98" cy="649.365" r="14.4" fill="#e26f46" fill-rule="evenodd" fill-opacity="1" stroke="#000000" stroke-opacity="1" stroke-width="3.2"/>
<circle clip-path="url(#clip562)" cx="1601.83" cy="613.835" r="14.4" fill="#e26f46" fill-rule="evenodd" fill-opacity="1" stroke="#000000" stroke-opacity="1" stroke-width="3.2"/>
<circle clip-path="url(#clip562)" cx="1634.68" cy="578.161" r="14.4" fill="#e26f46" fill-rule="evenodd" fill-opacity="1" stroke="#000000" stroke-opacity="1" stroke-width="3.2"/>
<circle clip-path="url(#clip562)" cx="1667.53" cy="542.27" r="14.4" fill="#e26f46" fill-rule="evenodd" fill-opacity="1" stroke="#000000" stroke-opacity="1" stroke-width="3.2"/>
<circle clip-path="url(#clip562)" cx="1700.38" cy="506.115" r="14.4" fill="#e26f46" fill-rule="evenodd" fill-opacity="1" stroke="#000000" stroke-opacity="1" stroke-width="3.2"/>
<circle clip-path="url(#clip562)" cx="1733.23" cy="469.687" r="14.4" fill="#e26f46" fill-rule="evenodd" fill-opacity="1" stroke="#000000" stroke-opacity="1" stroke-width="3.2"/>
<circle clip-path="url(#clip562)" cx="1766.08" cy="433.023" r="14.4" fill="#e26f46" fill-rule="evenodd" fill-opacity="1" stroke="#000000" stroke-opacity="1" stroke-width="3.2"/>
<circle clip-path="url(#clip562)" cx="1798.93" cy="396.22" r="14.4" fill="#e26f46" fill-rule="evenodd" fill-opacity="1" stroke="#000000" stroke-opacity="1" stroke-width="3.2"/>
<circle clip-path="url(#clip562)" cx="1831.77" cy="359.444" r="14.4" fill="#e26f46" fill-rule="evenodd" fill-opacity="1" stroke="#000000" stroke-opacity="1" stroke-width="3.2"/>
<circle clip-path="url(#clip562)" cx="1864.62" cy="322.945" r="14.4" fill="#e26f46" fill-rule="evenodd" fill-opacity="1" stroke="#000000" stroke-opacity="1" stroke-width="3.2"/>
<circle clip-path="url(#clip562)" cx="1897.47" cy="287.061" r="14.4" fill="#e26f46" fill-rule="evenodd" fill-opacity="1" stroke="#000000" stroke-opacity="1" stroke-width="3.2"/>
<circle clip-path="url(#clip562)" cx="1930.32" cy="252.227" r="14.4" fill="#e26f46" fill-rule="evenodd" fill-opacity="1" stroke="#000000" stroke-opacity="1" stroke-width="3.2"/>
<circle clip-path="url(#clip562)" cx="1963.17" cy="218.972" r="14.4" fill="#e26f46" fill-rule="evenodd" fill-opacity="1" stroke="#000000" stroke-opacity="1" stroke-width="3.2"/>
<circle clip-path="url(#clip562)" cx="1996.02" cy="187.913" r="14.4" fill="#e26f46" fill-rule="evenodd" fill-opacity="1" stroke="#000000" stroke-opacity="1" stroke-width="3.2"/>
<circle clip-path="url(#clip562)" cx="2028.87" cy="159.734" r="14.4" fill="#e26f46" fill-rule="evenodd" fill-opacity="1" stroke="#000000" stroke-opacity="1" stroke-width="3.2"/>
<circle clip-path="url(#clip562)" cx="2061.72" cy="135.157" r="14.4" fill="#e26f46" fill-rule="evenodd" fill-opacity="1" stroke="#000000" stroke-opacity="1" stroke-width="3.2"/>
<circle clip-path="url(#clip562)" cx="2094.56" cy="114.904" r="14.4" fill="#e26f46" fill-rule="evenodd" fill-opacity="1" stroke="#000000" stroke-opacity="1" stroke-width="3.2"/>
<circle clip-path="url(#clip562)" cx="2127.41" cy="99.6439" r="14.4" fill="#e26f46" fill-rule="evenodd" fill-opacity="1" stroke="#000000" stroke-opacity="1" stroke-width="3.2"/>
<circle clip-path="url(#clip562)" cx="2160.26" cy="89.9371" r="14.4" fill="#e26f46" fill-rule="evenodd" fill-opacity="1" stroke="#000000" stroke-opacity="1" stroke-width="3.2"/>
<circle clip-path="url(#clip562)" cx="2193.11" cy="86.1857" r="14.4" fill="#e26f46" fill-rule="evenodd" fill-opacity="1" stroke="#000000" stroke-opacity="1" stroke-width="3.2"/>
<circle clip-path="url(#clip562)" cx="2225.96" cy="88.5881" r="14.4" fill="#e26f46" fill-rule="evenodd" fill-opacity="1" stroke="#000000" stroke-opacity="1" stroke-width="3.2"/>
<circle clip-path="url(#clip562)" cx="2258.81" cy="97.1137" r="14.4" fill="#e26f46" fill-rule="evenodd" fill-opacity="1" stroke="#000000" stroke-opacity="1" stroke-width="3.2"/>
<circle clip-path="url(#clip562)" cx="2291.66" cy="111.499" r="14.4" fill="#e26f46" fill-rule="evenodd" fill-opacity="1" stroke="#000000" stroke-opacity="1" stroke-width="3.2"/>
<path clip-path="url(#clip560)" d="M265.897 1377.32 L507.01 1377.32 L507.01 1221.8 L265.897 1221.8  Z" fill="#ffffff" fill-rule="evenodd" fill-opacity="1"/>
<polyline clip-path="url(#clip560)" style="stroke:#000000; stroke-linecap:round; stroke-linejoin:round; stroke-width:4; stroke-opacity:1; fill:none" points="265.897,1377.32 507.01,1377.32 507.01,1221.8 265.897,1221.8 265.897,1377.32 "/>
<circle clip-path="url(#clip560)" cx="361.844" cy="1273.64" r="20.48" fill="#009af9" fill-rule="evenodd" fill-opacity="1" stroke="#000000" stroke-opacity="1" stroke-width="4.55111"/>
<path clip-path="url(#clip560)" d="M477.051 1274.48 L462.306 1274.48 Q462.653 1281.4 464.25 1284.34 Q466.241 1287.95 469.69 1287.95 Q473.162 1287.95 475.083 1284.32 Q476.773 1281.12 477.051 1274.48 M476.981 1270.55 Q476.333 1263.97 475.083 1261.66 Q473.093 1258 469.69 1258 Q466.148 1258 464.273 1261.61 Q462.792 1264.53 462.352 1270.55 L476.981 1270.55 M469.69 1254.53 Q475.245 1254.53 478.417 1259.43 Q481.588 1264.32 481.588 1272.98 Q481.588 1281.61 478.417 1286.52 Q475.245 1291.45 469.69 1291.45 Q464.111 1291.45 460.963 1286.52 Q457.792 1281.61 457.792 1272.98 Q457.792 1264.32 460.963 1259.43 Q464.111 1254.53 469.69 1254.53 Z" fill="#000000" fill-rule="nonzero" fill-opacity="1" /><circle clip-path="url(#clip560)" cx="361.844" cy="1325.48" r="20.48" fill="#e26f46" fill-rule="evenodd" fill-opacity="1" stroke="#000000" stroke-opacity="1" stroke-width="4.55111"/>
<path clip-path="url(#clip560)" d="M457.792 1316.83 L462.306 1316.83 L470.407 1338.59 L478.509 1316.83 L483.023 1316.83 L473.301 1342.76 L467.514 1342.76 L457.792 1316.83 Z" fill="#000000" fill-rule="nonzero" fill-opacity="1" /></svg>