<?xml version="1.0" encoding="utf-8"?>
<svg xmlns="http://www.w3.org/2000/svg" xmlns:xlink="http://www.w3.org/1999/xlink" width="600" height="400" viewBox="0 0 2400 1600">
<defs>
  <clipPath id="clip760">
    <rect x="0" y="0" width="2400" height="1600"/>
  </clipPath>
</defs>
<path clip-path="url(#clip760)" d="M0 1600 L2400 1600 L2400 8.88178e-14 L0 8.88178e-14  Z" fill="#ffffff" fill-rule="evenodd" fill-opacity="1"/>
<defs>
  <clipPath id="clip761">
    <rect x="480" y="0" width="1681" height="1600"/>
  </clipPath>
</defs>
<path clip-path="url(#clip760)" d="M276.876 1410.9 L2352.76 1410.9 L2352.76 47.2441 L276.876 47.2441  Z" fill="#ffffff" fill-rule="evenodd" fill-opacity="1"/>
<defs>
  <clipPath id="clip762">
    <rect x="276" y="47" width="2077" height="1365"/>
  </clipPath>
</defs>
<polyline clip-path="url(#clip762)" style="stroke:#000000; stroke-linecap:round; stroke-linejoin:round; stroke-width:2; stroke-opacity:0.1; fill:none" points="335.627,1410.9 335.627,47.2441 "/>
<polyline clip-path="url(#clip762)" style="stroke:#000000; stroke-linecap:round; stroke-linejoin:round; stroke-width:2; stroke-opacity:0.1; fill:none" points="1366.35,1410.9 1366.35,47.2441 "/>
<polyline clip-path="url(#clip760)" style="stroke:#000000; stroke-linecap:round; stroke-linejoin:round; stroke-width:4; stroke-opacity:1; fill:none" points="276.876,1410.9 2352.76,1410.9 "/>
<polyline clip-path="url(#clip760)" style="stroke:#000000; stroke-linecap:round; stroke-linejoin:round; stroke-width:4; stroke-opacity:1; fill:none" points="335.627,1410.9 335.627,1392 "/>
<polyline clip-path="url(#clip760)" style="stroke:#000000; stroke-linecap:round; stroke-linejoin:round; stroke-width:4; stroke-opacity:1; fill:none" points="1366.35,1410.9 1366.35,1392 "/>
<path clip-path="url(#clip760)" d="M272.99 1485.02 L280.629 1485.02 L280.629 1458.66 L272.319 1460.32 L272.319 1456.06 L280.583 1454.4 L285.259 1454.4 L285.259 1485.02 L292.898 1485.02 L292.898 1488.96 L272.99 1488.96 L272.99 1485.02 Z" fill="#000000" fill-rule="nonzero" fill-opacity="1" /><path clip-path="url(#clip760)" d="M312.342 1457.48 Q308.731 1457.48 306.902 1461.04 Q305.097 1464.58 305.097 1471.71 Q305.097 1478.82 306.902 1482.38 Q308.731 1485.92 312.342 1485.92 Q315.976 1485.92 317.782 1482.38 Q319.611 1478.82 319.611 1471.71 Q319.611 1464.58 317.782 1461.04 Q315.976 1457.48 312.342 1457.48 M312.342 1453.77 Q318.152 1453.77 321.208 1458.38 Q324.286 1462.96 324.286 1471.71 Q324.286 1480.44 321.208 1485.04 Q318.152 1489.63 312.342 1489.63 Q306.532 1489.63 303.453 1485.04 Q300.398 1480.44 300.398 1471.71 Q300.398 1462.96 303.453 1458.38 Q306.532 1453.77 312.342 1453.77 Z" fill="#000000" fill-rule="nonzero" fill-opacity="1" /><path clip-path="url(#clip760)" d="M324.286 1447.87 L348.398 1447.87 L348.398 1451.07 L324.286 1451.07 L324.286 1447.87 Z" fill="#000000" fill-rule="nonzero" fill-opacity="1" /><path clip-path="url(#clip760)" d="M359.871 1458.35 L373.13 1458.35 L373.13 1461.55 L355.3 1461.55 L355.3 1458.35 Q357.463 1456.11 361.187 1452.35 Q364.93 1448.57 365.889 1447.48 Q367.714 1445.43 368.428 1444.02 Q369.162 1442.59 369.162 1441.22 Q369.162 1438.98 367.582 1437.57 Q366.021 1436.16 363.501 1436.16 Q361.714 1436.16 359.72 1436.78 Q357.746 1437.4 355.489 1438.66 L355.489 1434.82 Q357.783 1433.9 359.777 1433.43 Q361.77 1432.96 363.425 1432.96 Q367.789 1432.96 370.384 1435.14 Q372.98 1437.32 372.98 1440.97 Q372.98 1442.7 372.322 1444.26 Q371.682 1445.8 369.971 1447.91 Q369.5 1448.46 366.98 1451.07 Q364.46 1453.67 359.871 1458.35 Z" fill="#000000" fill-rule="nonzero" fill-opacity="1" /><path clip-path="url(#clip760)" d="M389.23 1435.97 Q386.296 1435.97 384.81 1438.86 Q383.343 1441.74 383.343 1447.53 Q383.343 1453.31 384.81 1456.2 Q386.296 1459.08 389.23 1459.08 Q392.183 1459.08 393.65 1456.2 Q395.135 1453.31 395.135 1447.53 Q395.135 1441.74 393.65 1438.86 Q392.183 1435.97 389.23 1435.97 M389.23 1432.96 Q393.95 1432.96 396.433 1436.7 Q398.935 1440.43 398.935 1447.53 Q398.935 1454.62 396.433 1458.37 Q393.95 1462.09 389.23 1462.09 Q384.509 1462.09 382.008 1458.37 Q379.525 1454.62 379.525 1447.53 Q379.525 1440.43 382.008 1436.7 Q384.509 1432.96 389.23 1432.96 Z" fill="#000000" fill-rule="nonzero" fill-opacity="1" /><path clip-path="url(#clip760)" d="M1303.72 1485.02 L1311.35 1485.02 L1311.35 1458.66 L1303.04 1460.32 L1303.04 1456.06 L1311.31 1454.4 L1315.98 1454.4 L1315.98 1485.02 L1323.62 1485.02 L1323.62 1488.96 L1303.72 1488.96 L1303.72 1485.02 Z" fill="#000000" fill-rule="nonzero" fill-opacity="1" /><path clip-path="url(#clip760)" d="M1343.07 1457.48 Q1339.46 1457.48 1337.63 1461.04 Q1335.82 1464.58 1335.82 1471.71 Q1335.82 1478.82 1337.63 1482.38 Q1339.46 1485.92 1343.07 1485.92 Q1346.7 1485.92 1348.51 1482.38 Q1350.34 1478.82 1350.34 1471.71 Q1350.34 1464.58 1348.51 1461.04 Q1346.7 1457.48 1343.07 1457.48 M1343.07 1453.77 Q1348.88 1453.77 1351.93 1458.38 Q1355.01 1462.96 1355.01 1471.71 Q1355.01 1480.44 1351.93 1485.04 Q1348.88 1489.63 1343.07 1489.63 Q1337.26 1489.63 1334.18 1485.04 Q1331.12 1480.44 1331.12 1471.71 Q1331.12 1462.96 1334.18 1458.38 Q1337.26 1453.77 1343.07 1453.77 Z" fill="#000000" fill-rule="nonzero" fill-opacity="1" /><path clip-path="url(#clip760)" d="M1355.01 1447.87 L1379.12 1447.87 L1379.12 1451.07 L1355.01 1451.07 L1355.01 1447.87 Z" fill="#000000" fill-rule="nonzero" fill-opacity="1" /><path clip-path="url(#clip760)" d="M1387.98 1458.35 L1394.19 1458.35 L1394.19 1436.93 L1387.44 1438.28 L1387.44 1434.82 L1394.15 1433.47 L1397.95 1433.47 L1397.95 1458.35 L1404.16 1458.35 L1404.16 1461.55 L1387.98 1461.55 L1387.98 1458.35 Z" fill="#000000" fill-rule="nonzero" fill-opacity="1" /><path clip-path="url(#clip760)" d="M1419.95 1435.97 Q1417.02 1435.97 1415.54 1438.86 Q1414.07 1441.74 1414.07 1447.53 Q1414.07 1453.31 1415.54 1456.2 Q1417.02 1459.08 1419.95 1459.08 Q1422.91 1459.08 1424.37 1456.2 Q1425.86 1453.31 1425.86 1447.53 Q1425.86 1441.74 1424.37 1438.86 Q1422.91 1435.97 1419.95 1435.97 M1419.95 1432.96 Q1424.68 1432.96 1427.16 1436.7 Q1429.66 1440.43 1429.66 1447.53 Q1429.66 1454.62 1427.16 1458.37 Q1424.68 1462.09 1419.95 1462.09 Q1415.23 1462.09 1412.73 1458.37 Q1410.25 1454.62 1410.25 1447.53 Q1410.25 1440.43 1412.73 1436.7 Q1415.23 1432.96 1419.95 1432.96 Z" fill="#000000" fill-rule="nonzero" fill-opacity="1" /><path clip-path="url(#clip760)" d="M1326.82 1532.9 Q1323.57 1530.68 1315.96 1530.68 Q1307.91 1530.68 1307.91 1534.4 Q1307.91 1537.33 1316.31 1538.86 Q1322.93 1540.03 1326.66 1543.6 Q1331.18 1547.9 1331.18 1556.71 Q1331.18 1565.15 1326.82 1570.11 Q1322.45 1575.11 1314.82 1575.11 Q1307.21 1575.11 1302.82 1570.11 Q1298.46 1565.15 1298.46 1556.39 Q1298.46 1549.9 1302.82 1544.65 Q1304.5 1542.61 1306.89 1541.47 Q1301.93 1538.95 1301.93 1534.46 Q1301.93 1525.81 1315.96 1525.81 Q1323 1525.81 1326.82 1528.03 L1326.82 1532.9 M1311.28 1543.06 Q1309.12 1543.98 1307.37 1546.3 Q1304.63 1549.9 1304.63 1556.39 Q1304.63 1562.85 1307.34 1566.48 Q1310.07 1570.14 1314.82 1570.14 Q1319.49 1570.14 1322.23 1566.45 Q1324.97 1562.76 1324.97 1556.71 Q1324.97 1550.38 1322.07 1547.32 Q1318.99 1544.04 1314.97 1543.69 Q1312.94 1543.5 1311.28 1543.06 Z" fill="#000000" fill-rule="nonzero" fill-opacity="1" /><polyline clip-path="url(#clip762)" style="stroke:#000000; stroke-linecap:round; stroke-linejoin:round; stroke-width:2; stroke-opacity:0.1; fill:none" points="276.876,1374.75 2352.76,1374.75 "/>
<polyline clip-path="url(#clip762)" style="stroke:#000000; stroke-linecap:round; stroke-linejoin:round; stroke-width:2; stroke-opacity:0.1; fill:none" points="276.876,730.295 2352.76,730.295 "/>
<polyline clip-path="url(#clip762)" style="stroke:#000000; stroke-linecap:round; stroke-linejoin:round; stroke-width:2; stroke-opacity:0.1; fill:none" points="276.876,85.838 2352.76,85.838 "/>
<polyline clip-path="url(#clip760)" style="stroke:#000000; stroke-linecap:round; stroke-linejoin:round; stroke-width:4; stroke-opacity:1; fill:none" points="276.876,1410.9 276.876,47.2441 "/>
<polyline clip-path="url(#clip760)" style="stroke:#000000; stroke-linecap:round; stroke-linejoin:round; stroke-width:4; stroke-opacity:1; fill:none" points="276.876,1374.75 295.773,1374.75 "/>
<polyline clip-path="url(#clip760)" style="stroke:#000000; stroke-linecap:round; stroke-linejoin:round; stroke-width:4; stroke-opacity:1; fill:none" points="276.876,730.295 295.773,730.295 "/>
<polyline clip-path="url(#clip760)" style="stroke:#000000; stroke-linecap:round; stroke-linejoin:round; stroke-width:4; stroke-opacity:1; fill:none" points="276.876,85.838 295.773,85.838 "/>
<path clip-path="url(#clip760)" d="M114.931 1394.54 L122.57 1394.54 L122.57 1368.18 L114.26 1369.84 L114.26 1365.59 L122.524 1363.92 L127.2 1363.92 L127.2 1394.54 L134.839 1394.54 L134.839 1398.48 L114.931 1398.48 L114.931 1394.54 Z" fill="#000000" fill-rule="nonzero" fill-opacity="1" /><path clip-path="url(#clip760)" d="M154.283 1367 Q150.672 1367 148.843 1370.56 Q147.038 1374.1 147.038 1381.23 Q147.038 1388.34 148.843 1391.9 Q150.672 1395.45 154.283 1395.45 Q157.917 1395.45 159.723 1391.9 Q161.552 1388.34 161.552 1381.23 Q161.552 1374.1 159.723 1370.56 Q157.917 1367 154.283 1367 M154.283 1363.29 Q160.093 1363.29 163.149 1367.9 Q166.227 1372.48 166.227 1381.23 Q166.227 1389.96 163.149 1394.57 Q160.093 1399.15 154.283 1399.15 Q148.473 1399.15 145.394 1394.57 Q142.339 1389.96 142.339 1381.23 Q142.339 1372.48 145.394 1367.9 Q148.473 1363.29 154.283 1363.29 Z" fill="#000000" fill-rule="nonzero" fill-opacity="1" /><path clip-path="url(#clip760)" d="M166.227 1357.4 L190.339 1357.4 L190.339 1360.59 L166.227 1360.59 L166.227 1357.4 Z" fill="#000000" fill-rule="nonzero" fill-opacity="1" /><path clip-path="url(#clip760)" d="M199.197 1367.87 L205.404 1367.87 L205.404 1346.45 L198.652 1347.8 L198.652 1344.34 L205.366 1342.99 L209.166 1342.99 L209.166 1367.87 L215.372 1367.87 L215.372 1371.07 L199.197 1371.07 L199.197 1367.87 Z" fill="#000000" fill-rule="nonzero" fill-opacity="1" /><path clip-path="url(#clip760)" d="M231.171 1345.49 Q228.237 1345.49 226.751 1348.39 Q225.284 1351.26 225.284 1357.06 Q225.284 1362.83 226.751 1365.73 Q228.237 1368.6 231.171 1368.6 Q234.124 1368.6 235.591 1365.73 Q237.076 1362.83 237.076 1357.06 Q237.076 1351.26 235.591 1348.39 Q234.124 1345.49 231.171 1345.49 M231.171 1342.48 Q235.891 1342.48 238.374 1346.22 Q240.876 1349.95 240.876 1357.06 Q240.876 1364.15 238.374 1367.89 Q235.891 1371.61 231.171 1371.61 Q226.45 1371.61 223.949 1367.89 Q221.466 1364.15 221.466 1357.06 Q221.466 1349.95 223.949 1346.22 Q226.45 1342.48 231.171 1342.48 Z" fill="#000000" fill-rule="nonzero" fill-opacity="1" /><path clip-path="url(#clip760)" d="M140.247 750.087 L147.886 750.087 L147.886 723.721 L139.575 725.388 L139.575 721.129 L147.839 719.462 L152.515 719.462 L152.515 750.087 L160.154 750.087 L160.154 754.022 L140.247 754.022 L140.247 750.087 Z" fill="#000000" fill-rule="nonzero" fill-opacity="1" /><path clip-path="url(#clip760)" d="M179.598 722.541 Q175.987 722.541 174.159 726.106 Q172.353 729.647 172.353 736.777 Q172.353 743.883 174.159 747.448 Q175.987 750.99 179.598 750.99 Q183.233 750.99 185.038 747.448 Q186.867 743.883 186.867 736.777 Q186.867 729.647 185.038 726.106 Q183.233 722.541 179.598 722.541 M179.598 718.837 Q185.409 718.837 188.464 723.444 Q191.543 728.027 191.543 736.777 Q191.543 745.504 188.464 750.11 Q185.409 754.694 179.598 754.694 Q173.788 754.694 170.71 750.11 Q167.654 745.504 167.654 736.777 Q167.654 728.027 170.71 723.444 Q173.788 718.837 179.598 718.837 Z" fill="#000000" fill-rule="nonzero" fill-opacity="1" /><path clip-path="url(#clip760)" d="M191.543 712.939 L215.654 712.939 L215.654 716.136 L191.543 716.136 L191.543 712.939 Z" fill="#000000" fill-rule="nonzero" fill-opacity="1" /><path clip-path="url(#clip760)" d="M223.892 698.532 L238.807 698.532 L238.807 701.729 L227.372 701.729 L227.372 708.613 Q228.199 708.331 229.027 708.199 Q229.854 708.049 230.682 708.049 Q235.384 708.049 238.13 710.625 Q240.876 713.202 240.876 717.603 Q240.876 722.136 238.054 724.656 Q235.233 727.157 230.099 727.157 Q228.331 727.157 226.488 726.856 Q224.663 726.555 222.707 725.954 L222.707 722.136 Q224.4 723.057 226.205 723.509 Q228.011 723.96 230.023 723.96 Q233.277 723.96 235.177 722.248 Q237.076 720.537 237.076 717.603 Q237.076 714.669 235.177 712.957 Q233.277 711.246 230.023 711.246 Q228.5 711.246 226.977 711.584 Q225.472 711.923 223.892 712.638 L223.892 698.532 Z" fill="#000000" fill-rule="nonzero" fill-opacity="1" /><path clip-path="url(#clip760)" d="M170.17 105.63 L177.809 105.63 L177.809 79.2649 L169.499 80.9315 L169.499 76.6723 L177.762 75.0056 L182.438 75.0056 L182.438 105.63 L190.077 105.63 L190.077 109.566 L170.17 109.566 L170.17 105.63 Z" fill="#000000" fill-rule="nonzero" fill-opacity="1" /><path clip-path="url(#clip760)" d="M209.522 78.0843 Q205.91 78.0843 204.082 81.6491 Q202.276 85.1908 202.276 92.3204 Q202.276 99.4268 204.082 102.992 Q205.91 106.533 209.522 106.533 Q213.156 106.533 214.961 102.992 Q216.79 99.4268 216.79 92.3204 Q216.79 85.1908 214.961 81.6491 Q213.156 78.0843 209.522 78.0843 M209.522 74.3806 Q215.332 74.3806 218.387 78.9871 Q221.466 83.5704 221.466 92.3204 Q221.466 101.047 218.387 105.654 Q215.332 110.237 209.522 110.237 Q203.711 110.237 200.633 105.654 Q197.577 101.047 197.577 92.3204 Q197.577 83.5704 200.633 78.9871 Q203.711 74.3806 209.522 74.3806 Z" fill="#000000" fill-rule="nonzero" fill-opacity="1" /><path clip-path="url(#clip760)" d="M231.171 56.5767 Q228.237 56.5767 226.751 59.4731 Q225.284 62.3507 225.284 68.1434 Q225.284 73.9174 226.751 76.8138 Q228.237 79.6914 231.171 79.6914 Q234.124 79.6914 235.591 76.8138 Q237.076 73.9174 237.076 68.1434 Q237.076 62.3507 235.591 59.4731 Q234.124 56.5767 231.171 56.5767 M231.171 53.5674 Q235.891 53.5674 238.374 57.3102 Q240.876 61.0341 240.876 68.1434 Q240.876 75.234 238.374 78.9767 Q235.891 82.7007 231.171 82.7007 Q226.45 82.7007 223.949 78.9767 Q221.466 75.234 221.466 68.1434 Q221.466 61.0341 223.949 57.3102 Q226.45 53.5674 231.171 53.5674 Z" fill="#000000" fill-rule="nonzero" fill-opacity="1" /><path clip-path="url(#clip760)" d="M44.7161 985.465 L47.5806 985.465 L47.5806 1012.39 Q53.6281 1012.01 56.8109 1008.76 Q59.9619 1005.49 59.9619 999.661 Q59.9619 996.287 59.1344 993.136 Q58.3069 989.953 56.6518 986.834 L62.1899 986.834 Q63.5267 989.985 64.227 993.295 Q64.9272 996.605 64.9272 1000.01 Q64.9272 1008.54 59.9619 1013.54 Q54.9967 1018.5 46.5303 1018.5 Q37.7774 1018.5 32.6531 1013.79 Q27.4968 1009.05 27.4968 1001.03 Q27.4968 993.836 32.1438 989.666 Q36.7589 985.465 44.7161 985.465 M42.9973 991.322 Q38.1912 991.385 35.3266 994.027 Q32.4621 996.637 32.4621 1000.97 Q32.4621 1005.87 35.2312 1008.83 Q38.0002 1011.76 43.0292 1012.2 L42.9973 991.322 Z" fill="#000000" fill-rule="nonzero" fill-opacity="1" /><path clip-path="url(#clip760)" d="M33.8307 955.196 Q33.2578 956.183 33.0032 957.361 Q32.7167 958.506 32.7167 959.907 Q32.7167 964.872 35.9632 967.546 Q39.1779 970.187 45.2253 970.187 L64.0042 970.187 L64.0042 976.076 L28.3562 976.076 L28.3562 970.187 L33.8944 970.187 Q30.6479 968.341 29.0883 965.381 Q27.4968 962.421 27.4968 958.188 Q27.4968 957.583 27.5923 956.851 Q27.656 956.119 27.8151 955.228 L33.8307 955.196 Z" fill="#000000" fill-rule="nonzero" fill-opacity="1" /><path clip-path="url(#clip760)" d="M33.8307 929.542 Q33.2578 930.529 33.0032 931.707 Q32.7167 932.853 32.7167 934.253 Q32.7167 939.218 35.9632 941.892 Q39.1779 944.534 45.2253 944.534 L64.0042 944.534 L64.0042 950.422 L28.3562 950.422 L28.3562 944.534 L33.8944 944.534 Q30.6479 942.688 29.0883 939.728 Q27.4968 936.767 27.4968 932.534 Q27.4968 931.93 27.5923 931.197 Q27.656 930.465 27.8151 929.574 L33.8307 929.542 Z" fill="#000000" fill-rule="nonzero" fill-opacity="1" /><path clip-path="url(#clip760)" d="M32.4621 911.018 Q32.4621 915.729 36.1542 918.466 Q39.8145 921.203 46.212 921.203 Q52.6095 921.203 56.3017 918.498 Q59.9619 915.761 59.9619 911.018 Q59.9619 906.339 56.2698 903.602 Q52.5777 900.865 46.212 900.865 Q39.8781 900.865 36.186 903.602 Q32.4621 906.339 32.4621 911.018 M27.4968 911.018 Q27.4968 903.379 32.4621 899.019 Q37.4273 894.658 46.212 894.658 Q54.9649 894.658 59.9619 899.019 Q64.9272 903.379 64.9272 911.018 Q64.9272 918.689 59.9619 923.049 Q54.9649 927.378 46.212 927.378 Q37.4273 927.378 32.4621 923.049 Q27.4968 918.689 27.4968 911.018 Z" fill="#000000" fill-rule="nonzero" fill-opacity="1" /><path clip-path="url(#clip760)" d="M33.8307 864.294 Q33.2578 865.281 33.0032 866.458 Q32.7167 867.604 32.7167 869.005 Q32.7167 873.97 35.9632 876.643 Q39.1779 879.285 45.2253 879.285 L64.0042 879.285 L64.0042 885.173 L28.3562 885.173 L28.3562 879.285 L33.8944 879.285 Q30.6479 877.439 29.0883 874.479 Q27.4968 871.519 27.4968 867.286 Q27.4968 866.681 27.5923 865.949 Q27.656 865.217 27.8151 864.326 L33.8307 864.294 Z" fill="#000000" fill-rule="nonzero" fill-opacity="1" /><path clip-path="url(#clip760)" d="M28.3562 837.431 L28.3562 831.574 L64.0042 831.574 L64.0042 837.431 L28.3562 837.431 M14.479 837.431 L14.479 831.574 L21.895 831.574 L21.895 837.431 L14.479 837.431 Z" fill="#000000" fill-rule="nonzero" fill-opacity="1" /><path clip-path="url(#clip760)" d="M42.4881 789.688 L64.0042 789.688 L64.0042 795.544 L42.679 795.544 Q37.6183 795.544 35.1038 797.518 Q32.5894 799.491 32.5894 803.438 Q32.5894 808.18 35.6131 810.917 Q38.6368 813.655 43.8567 813.655 L64.0042 813.655 L64.0042 819.543 L28.3562 819.543 L28.3562 813.655 L33.8944 813.655 Q30.6797 811.554 29.0883 808.721 Q27.4968 805.857 27.4968 802.133 Q27.4968 795.99 31.3163 792.839 Q35.1038 789.688 42.4881 789.688 Z" fill="#000000" fill-rule="nonzero" fill-opacity="1" /><path clip-path="url(#clip760)" d="M33.7671 733.829 L14.479 733.829 L14.479 727.972 L64.0042 727.972 L64.0042 733.829 L58.657 733.829 Q61.8398 735.675 63.3994 738.508 Q64.9272 741.308 64.9272 745.255 Q64.9272 751.716 59.771 755.79 Q54.6147 759.833 46.212 759.833 Q37.8093 759.833 32.6531 755.79 Q27.4968 751.716 27.4968 745.255 Q27.4968 741.308 29.0564 738.508 Q30.5842 735.675 33.7671 733.829 M46.212 753.785 Q52.6732 753.785 56.3653 751.143 Q60.0256 748.47 60.0256 743.823 Q60.0256 739.176 56.3653 736.502 Q52.6732 733.829 46.212 733.829 Q39.7508 733.829 36.0905 736.502 Q32.3984 739.176 32.3984 743.823 Q32.3984 748.47 36.0905 751.143 Q39.7508 753.785 46.212 753.785 Z" fill="#000000" fill-rule="nonzero" fill-opacity="1" /><path clip-path="url(#clip760)" d="M44.7161 685.418 L47.5806 685.418 L47.5806 712.344 Q53.6281 711.963 56.8109 708.716 Q59.9619 705.438 59.9619 699.613 Q59.9619 696.239 59.1344 693.088 Q58.3069 689.905 56.6518 686.786 L62.1899 686.786 Q63.5267 689.937 64.227 693.247 Q64.9272 696.558 64.9272 699.963 Q64.9272 708.493 59.9619 713.49 Q54.9967 718.456 46.5303 718.456 Q37.7774 718.456 32.6531 713.745 Q27.4968 709.002 27.4968 700.982 Q27.4968 693.788 32.1438 689.619 Q36.7589 685.418 44.7161 685.418 M42.9973 691.274 Q38.1912 691.338 35.3266 693.979 Q32.4621 696.589 32.4621 700.918 Q32.4621 705.82 35.2312 708.78 Q38.0002 711.708 43.0292 712.154 L42.9973 691.274 Z" fill="#000000" fill-rule="nonzero" fill-opacity="1" /><path clip-path="url(#clip760)" d="M33.8307 655.149 Q33.2578 656.135 33.0032 657.313 Q32.7167 658.459 32.7167 659.859 Q32.7167 664.824 35.9632 667.498 Q39.1779 670.14 45.2253 670.14 L64.0042 670.14 L64.0042 676.028 L28.3562 676.028 L28.3562 670.14 L33.8944 670.14 Q30.6479 668.294 29.0883 665.334 Q27.4968 662.374 27.4968 658.14 Q27.4968 657.536 27.5923 656.804 Q27.656 656.072 27.8151 655.18 L33.8307 655.149 Z" fill="#000000" fill-rule="nonzero" fill-opacity="1" /><path clip-path="url(#clip760)" d="M28.3562 649.006 L28.3562 643.149 L64.0042 643.149 L64.0042 649.006 L28.3562 649.006 M14.479 649.006 L14.479 643.149 L21.895 643.149 L21.895 649.006 L14.479 649.006 Z" fill="#000000" fill-rule="nonzero" fill-opacity="1" /><path clip-path="url(#clip760)" d="M28.3562 635.097 L28.3562 628.89 L58.275 617.75 L28.3562 606.61 L28.3562 600.404 L64.0042 613.772 L64.0042 621.729 L28.3562 635.097 Z" fill="#000000" fill-rule="nonzero" fill-opacity="1" /><path clip-path="url(#clip760)" d="M46.0847 576.118 Q46.0847 583.216 47.7079 585.953 Q49.3312 588.691 53.2461 588.691 Q56.3653 588.691 58.2114 586.654 Q60.0256 584.585 60.0256 581.052 Q60.0256 576.182 56.5881 573.254 Q53.1188 570.294 47.3897 570.294 L46.0847 570.294 L46.0847 576.118 M43.6657 564.437 L64.0042 564.437 L64.0042 570.294 L58.5933 570.294 Q61.8398 572.299 63.3994 575.291 Q64.9272 578.283 64.9272 582.611 Q64.9272 588.086 61.8716 591.332 Q58.7843 594.547 53.6281 594.547 Q47.6125 594.547 44.5569 590.537 Q41.5014 586.494 41.5014 578.505 L41.5014 570.294 L40.9285 570.294 Q36.8862 570.294 34.6901 572.967 Q32.4621 575.609 32.4621 580.415 Q32.4621 583.471 33.1941 586.367 Q33.9262 589.264 35.3903 591.937 L29.9795 591.937 Q28.7381 588.722 28.1334 585.699 Q27.4968 582.675 27.4968 579.81 Q27.4968 572.076 31.5072 568.257 Q35.5176 564.437 43.6657 564.437 Z" fill="#000000" fill-rule="nonzero" fill-opacity="1" /><path clip-path="url(#clip760)" d="M18.2347 546.581 L28.3562 546.581 L28.3562 534.518 L32.9077 534.518 L32.9077 546.581 L52.2594 546.581 Q56.6199 546.581 57.8613 545.404 Q59.1026 544.194 59.1026 540.534 L59.1026 534.518 L64.0042 534.518 L64.0042 540.534 Q64.0042 547.314 61.4897 549.892 Q58.9434 552.47 52.2594 552.47 L32.9077 552.47 L32.9077 556.767 L28.3562 556.767 L28.3562 552.47 L18.2347 552.47 L18.2347 546.581 Z" fill="#000000" fill-rule="nonzero" fill-opacity="1" /><path clip-path="url(#clip760)" d="M28.3562 526.816 L28.3562 520.96 L64.0042 520.96 L64.0042 526.816 L28.3562 526.816 M14.479 526.816 L14.479 520.96 L21.895 520.96 L21.895 526.816 L14.479 526.816 Z" fill="#000000" fill-rule="nonzero" fill-opacity="1" /><path clip-path="url(#clip760)" d="M28.3562 512.907 L28.3562 506.7 L58.275 495.56 L28.3562 484.42 L28.3562 478.214 L64.0042 491.582 L64.0042 499.539 L28.3562 512.907 Z" fill="#000000" fill-rule="nonzero" fill-opacity="1" /><path clip-path="url(#clip760)" d="M44.7161 439.638 L47.5806 439.638 L47.5806 466.565 Q53.6281 466.183 56.8109 462.936 Q59.9619 459.658 59.9619 453.833 Q59.9619 450.459 59.1344 447.308 Q58.3069 444.125 56.6518 441.006 L62.1899 441.006 Q63.5267 444.157 64.227 447.467 Q64.9272 450.778 64.9272 454.183 Q64.9272 462.713 59.9619 467.71 Q54.9967 472.676 46.5303 472.676 Q37.7774 472.676 32.6531 467.965 Q27.4968 463.223 27.4968 455.202 Q27.4968 448.009 32.1438 443.839 Q36.7589 439.638 44.7161 439.638 M42.9973 445.494 Q38.1912 445.558 35.3266 448.199 Q32.4621 450.809 32.4621 455.138 Q32.4621 460.04 35.2312 463 Q38.0002 465.928 43.0292 466.374 L42.9973 445.494 Z" fill="#000000" fill-rule="nonzero" fill-opacity="1" /><circle clip-path="url(#clip762)" cx="2294" cy="173.198" r="14.4" fill="#009af9" fill-rule="evenodd" fill-opacity="1" stroke="#000000" stroke-opacity="1" stroke-width="3.2"/>
<circle clip-path="url(#clip762)" cx="2190.93" cy="304.541" r="14.4" fill="#009af9" fill-rule="evenodd" fill-opacity="1" stroke="#000000" stroke-opacity="1" stroke-width="3.2"/>
<circle clip-path="url(#clip762)" cx="2087.86" cy="433.684" r="14.4" fill="#009af9" fill-rule="evenodd" fill-opacity="1" stroke="#000000" stroke-opacity="1" stroke-width="3.2"/>
<circle clip-path="url(#clip762)" cx="1984.79" cy="562.6" r="14.4" fill="#009af9" fill-rule="evenodd" fill-opacity="1" stroke="#000000" stroke-opacity="1" stroke-width="3.2"/>
<circle clip-path="url(#clip762)" cx="1881.71" cy="691.494" r="14.4" fill="#009af9" fill-rule="evenodd" fill-opacity="1" stroke="#000000" stroke-opacity="1" stroke-width="3.2"/>
<circle clip-path="url(#clip762)" cx="1778.64" cy="820.397" r="14.4" fill="#009af9" fill-rule="evenodd" fill-opacity="1" stroke="#000000" stroke-opacity="1" stroke-width="3.2"/>
<circle clip-path="url(#clip762)" cx="1675.57" cy="950.113" r="14.4" fill="#009af9" fill-rule="evenodd" fill-opacity="1" stroke="#000000" stroke-opacity="1" stroke-width="3.2"/>
<circle clip-path="url(#clip762)" cx="1572.5" cy="1026.34" r="14.4" fill="#009af9" fill-rule="evenodd" fill-opacity="1" stroke="#000000" stroke-opacity="1" stroke-width="3.2"/>
<circle clip-path="url(#clip762)" cx="1469.42" cy="998.683" r="14.4" fill="#009af9" fill-rule="evenodd" fill-opacity="1" stroke="#000000" stroke-opacity="1" stroke-width="3.2"/>
<circle clip-path="url(#clip762)" cx="1366.35" cy="998.683" r="14.4" fill="#009af9" fill-rule="evenodd" fill-opacity="1" stroke="#000000" stroke-opacity="1" stroke-width="3.2"/>
<circle clip-path="url(#clip762)" cx="1263.28" cy="998.683" r="14.4" fill="#009af9" fill-rule="evenodd" fill-opacity="1" stroke="#000000" stroke-opacity="1" stroke-width="3.2"/>
<circle clip-path="url(#clip762)" cx="1160.21" cy="607.989" r="14.4" fill="#009af9" fill-rule="evenodd" fill-opacity="1" stroke="#000000" stroke-opacity="1" stroke-width="3.2"/>
<circle clip-path="url(#clip762)" cx="1057.13" cy="485.053" r="14.4" fill="#009af9" fill-rule="evenodd" fill-opacity="1" stroke="#000000" stroke-opacity="1" stroke-width="3.2"/>
<circle clip-path="url(#clip762)" cx="954.062" cy="296.988" r="14.4" fill="#009af9" fill-rule="evenodd" fill-opacity="1" stroke="#000000" stroke-opacity="1" stroke-width="3.2"/>
<circle clip-path="url(#clip762)" cx="850.989" cy="208.475" r="14.4" fill="#009af9" fill-rule="evenodd" fill-opacity="1" stroke="#000000" stroke-opacity="1" stroke-width="3.2"/>
<circle clip-path="url(#clip762)" cx="747.917" cy="85.838" r="14.4" fill="#009af9" fill-rule="evenodd" fill-opacity="1" stroke="#000000" stroke-opacity="1" stroke-width="3.2"/>
<circle clip-path="url(#clip762)" cx="644.844" cy="85.838" r="14.4" fill="#009af9" fill-rule="evenodd" fill-opacity="1" stroke="#000000" stroke-opacity="1" stroke-width="3.2"/>
<circle clip-path="url(#clip762)" cx="541.772" cy="85.838" r="14.4" fill="#009af9" fill-rule="evenodd" fill-opacity="1" stroke="#000000" stroke-opacity="1" stroke-width="3.2"/>
<circle clip-path="url(#clip762)" cx="438.699" cy="85.838" r="14.4" fill="#009af9" fill-rule="evenodd" fill-opacity="1" stroke="#000000" stroke-opacity="1" stroke-width="3.2"/>
<circle clip-path="url(#clip762)" cx="335.627" cy="85.838" r="14.4" fill="#009af9" fill-rule="evenodd" fill-opacity="1" stroke="#000000" stroke-opacity="1" stroke-width="3.2"/>
<circle clip-path="url(#clip762)" cx="2294" cy="343.621" r="14.4" fill="#e26f46" fill-rule="evenodd" fill-opacity="1" stroke="#000000" stroke-opacity="1" stroke-width="3.2"/>
<circle clip-path="url(#clip762)" cx="2190.93" cy="601.403" r="14.4" fill="#e26f46" fill-rule="evenodd" fill-opacity="1" stroke="#000000" stroke-opacity="1" stroke-width="3.2"/>
<circle clip-path="url(#clip762)" cx="2087.86" cy="859.186" r="14.4" fill="#e26f46" fill-rule="evenodd" fill-opacity="1" stroke="#000000" stroke-opacity="1" stroke-width="3.2"/>
<circle clip-path="url(#clip762)" cx="1984.79" cy="1116.96" r="14.4" fill="#e26f46" fill-rule="evenodd" fill-opacity="1" stroke="#000000" stroke-opacity="1" stroke-width="3.2"/>
<circle clip-path="url(#clip762)" cx="1881.71" cy="1372.3" r="14.4" fill="#e26f46" fill-rule="evenodd" fill-opacity="1" stroke="#000000" stroke-opacity="1" stroke-width="3.2"/>
<circle clip-path="url(#clip762)" cx="1778.64" cy="1356.01" r="14.4" fill="#e26f46" fill-rule="evenodd" fill-opacity="1" stroke="#000000" stroke-opacity="1" stroke-width="3.2"/>
<circle clip-path="url(#clip762)" cx="1675.57" cy="1216.35" r="14.4" fill="#e26f46" fill-rule="evenodd" fill-opacity="1" stroke="#000000" stroke-opacity="1" stroke-width="3.2"/>
<circle clip-path="url(#clip762)" cx="1572.5" cy="1144.84" r="14.4" fill="#e26f46" fill-rule="evenodd" fill-opacity="1" stroke="#000000" stroke-opacity="1" stroke-width="3.2"/>
<circle clip-path="url(#clip762)" cx="1469.42" cy="1058.77" r="14.4" fill="#e26f46" fill-rule="evenodd" fill-opacity="1" stroke="#000000" stroke-opacity="1" stroke-width="3.2"/>
<circle clip-path="url(#clip762)" cx="1366.35" cy="998.683" r="14.4" fill="#e26f46" fill-rule="evenodd" fill-opacity="1" stroke="#000000" stroke-opacity="1" stroke-width="3.2"/>
<circle clip-path="url(#clip762)" cx="1263.28" cy="998.683" r="14.4" fill="#e26f46" fill-rule="evenodd" fill-opacity="1" stroke="#000000" stroke-opacity="1" stroke-width="3.2"/>
<circle clip-path="url(#clip762)" cx="1160.21" cy="685.85" r="14.4" fill="#e26f46" fill-rule="evenodd" fill-opacity="1" stroke="#000000" stroke-opacity="1" stroke-width="3.2"/>
<circle clip-path="url(#clip762)" cx="1057.13" cy="537.901" r="14.4" fill="#e26f46" fill-rule="evenodd" fill-opacity="1" stroke="#000000" stroke-opacity="1" stroke-width="3.2"/>
<circle clip-path="url(#clip762)" cx="954.062" cy="333.876" r="14.4" fill="#e26f46" fill-rule="evenodd" fill-opacity="1" stroke="#000000" stroke-opacity="1" stroke-width="3.2"/>
<circle clip-path="url(#clip762)" cx="850.989" cy="485.053" r="14.4" fill="#e26f46" fill-rule="evenodd" fill-opacity="1" stroke="#000000" stroke-opacity="1" stroke-width="3.2"/>
<circle clip-path="url(#clip762)" cx="747.917" cy="209.281" r="14.4" fill="#e26f46" fill-rule="evenodd" fill-opacity="1" stroke="#000000" stroke-opacity="1" stroke-width="3.2"/>
<circle clip-path="url(#clip762)" cx="644.844" cy="85.838" r="14.4" fill="#e26f46" fill-rule="evenodd" fill-opacity="1" stroke="#000000" stroke-opacity="1" stroke-width="3.2"/>
<circle clip-path="url(#clip762)" cx="541.772" cy="85.838" r="14.4" fill="#e26f46" fill-rule="evenodd" fill-opacity="1" stroke="#000000" stroke-opacity="1" stroke-width="3.2"/>
<circle clip-path="url(#clip762)" cx="438.699" cy="85.838" r="14.4" fill="#e26f46" fill-rule="evenodd" fill-opacity="1" stroke="#000000" stroke-opacity="1" stroke-width="3.2"/>
<circle clip-path="url(#clip762)" cx="335.627" cy="85.838" r="14.4" fill="#e26f46" fill-rule="evenodd" fill-opacity="1" stroke="#000000" stroke-opacity="1" stroke-width="3.2"/>
<path clip-path="url(#clip760)" d="M1829.89 248.219 L2283.56 248.219 L2283.56 92.6992 L1829.89 92.6992  Z" fill="#ffffff" fill-rule="evenodd" fill-opacity="1"/>
<polyline clip-path="url(#clip760)" style="stroke:#000000; stroke-linecap:round; stroke-linejoin:round; stroke-width:4; stroke-opacity:1; fill:none" points="1829.89,248.219 2283.56,248.219 2283.56,92.6992 1829.89,92.6992 1829.89,248.219 "/>
<circle clip-path="url(#clip760)" cx="1922.15" cy="144.539" r="20.48" fill="#009af9" fill-rule="evenodd" fill-opacity="1" stroke="#000000" stroke-opacity="1" stroke-width="4.55111"/>
<path clip-path="url(#clip760)" d="M2030.91 125.801 L2030.91 129.343 L2026.84 129.343 Q2024.55 129.343 2023.64 130.268 Q2022.76 131.194 2022.76 133.602 L2022.76 135.893 L2029.78 135.893 L2029.78 139.204 L2022.76 139.204 L2022.76 161.819 L2018.48 161.819 L2018.48 139.204 L2014.41 139.204 L2014.41 135.893 L2018.48 135.893 L2018.48 134.088 Q2018.48 129.759 2020.5 127.792 Q2022.51 125.801 2026.88 125.801 L2030.91 125.801 Z" fill="#000000" fill-rule="nonzero" fill-opacity="1" /><path clip-path="url(#clip760)" d="M2044.52 138.879 Q2041.1 138.879 2039.11 141.565 Q2037.12 144.227 2037.12 148.879 Q2037.12 153.532 2039.08 156.217 Q2041.07 158.879 2044.52 158.879 Q2047.93 158.879 2049.92 156.194 Q2051.91 153.509 2051.91 148.879 Q2051.91 144.273 2049.92 141.588 Q2047.93 138.879 2044.52 138.879 M2044.52 135.268 Q2050.08 135.268 2053.25 138.879 Q2056.42 142.491 2056.42 148.879 Q2056.42 155.245 2053.25 158.879 Q2050.08 162.49 2044.52 162.49 Q2038.94 162.49 2035.77 158.879 Q2032.63 155.245 2032.63 148.879 Q2032.63 142.491 2035.77 138.879 Q2038.94 135.268 2044.52 135.268 Z" fill="#000000" fill-rule="nonzero" fill-opacity="1" /><path clip-path="url(#clip760)" d="M2078.5 139.875 Q2077.79 139.458 2076.93 139.273 Q2076.1 139.065 2075.08 139.065 Q2071.47 139.065 2069.52 141.426 Q2067.6 143.764 2067.6 148.162 L2067.6 161.819 L2063.32 161.819 L2063.32 135.893 L2067.6 135.893 L2067.6 139.921 Q2068.94 137.56 2071.1 136.426 Q2073.25 135.268 2076.33 135.268 Q2076.77 135.268 2077.3 135.338 Q2077.83 135.384 2078.48 135.5 L2078.5 139.875 Z" fill="#000000" fill-rule="nonzero" fill-opacity="1" /><path clip-path="url(#clip760)" d="M2080.5 135.893 L2084.75 135.893 L2090.08 156.125 L2095.38 135.893 L2100.4 135.893 L2105.73 156.125 L2111.03 135.893 L2115.29 135.893 L2108.5 161.819 L2103.48 161.819 L2097.9 140.569 L2092.3 161.819 L2087.28 161.819 L2080.5 135.893 Z" fill="#000000" fill-rule="nonzero" fill-opacity="1" /><path clip-path="url(#clip760)" d="M2133.53 148.787 Q2128.37 148.787 2126.37 149.967 Q2124.38 151.148 2124.38 153.995 Q2124.38 156.264 2125.87 157.606 Q2127.37 158.926 2129.94 158.926 Q2133.48 158.926 2135.61 156.426 Q2137.76 153.903 2137.76 149.736 L2137.76 148.787 L2133.53 148.787 M2142.02 147.028 L2142.02 161.819 L2137.76 161.819 L2137.76 157.884 Q2136.31 160.245 2134.13 161.379 Q2131.95 162.49 2128.81 162.49 Q2124.82 162.49 2122.46 160.268 Q2120.12 158.023 2120.12 154.273 Q2120.12 149.898 2123.04 147.676 Q2125.98 145.454 2131.79 145.454 L2137.76 145.454 L2137.76 145.037 Q2137.76 142.097 2135.82 140.5 Q2133.9 138.879 2130.4 138.879 Q2128.18 138.879 2126.07 139.412 Q2123.97 139.944 2122.02 141.009 L2122.02 137.074 Q2124.36 136.171 2126.56 135.731 Q2128.76 135.268 2130.84 135.268 Q2136.47 135.268 2139.25 138.185 Q2142.02 141.102 2142.02 147.028 Z" fill="#000000" fill-rule="nonzero" fill-opacity="1" /><path clip-path="url(#clip760)" d="M2165.82 139.875 Q2165.1 139.458 2164.25 139.273 Q2163.41 139.065 2162.39 139.065 Q2158.78 139.065 2156.84 141.426 Q2154.92 143.764 2154.92 148.162 L2154.92 161.819 L2150.63 161.819 L2150.63 135.893 L2154.92 135.893 L2154.92 139.921 Q2156.26 137.56 2158.41 136.426 Q2160.56 135.268 2163.64 135.268 Q2164.08 135.268 2164.62 135.338 Q2165.15 135.384 2165.8 135.5 L2165.82 139.875 Z" fill="#000000" fill-rule="nonzero" fill-opacity="1" /><path clip-path="url(#clip760)" d="M2186.51 139.829 L2186.51 125.801 L2190.77 125.801 L2190.77 161.819 L2186.51 161.819 L2186.51 157.93 Q2185.17 160.245 2183.11 161.379 Q2181.07 162.49 2178.2 162.49 Q2173.5 162.49 2170.54 158.74 Q2167.6 154.991 2167.6 148.879 Q2167.6 142.768 2170.54 139.018 Q2173.5 135.268 2178.2 135.268 Q2181.07 135.268 2183.11 136.403 Q2185.17 137.514 2186.51 139.829 M2172 148.879 Q2172 153.578 2173.92 156.264 Q2175.87 158.926 2179.24 158.926 Q2182.62 158.926 2184.57 156.264 Q2186.51 153.578 2186.51 148.879 Q2186.51 144.18 2184.57 141.518 Q2182.62 138.833 2179.24 138.833 Q2175.87 138.833 2173.92 141.518 Q2172 144.18 2172 148.879 Z" fill="#000000" fill-rule="nonzero" fill-opacity="1" /><circle clip-path="url(#clip760)" cx="1922.15" cy="196.379" r="20.48" fill="#e26f46" fill-rule="evenodd" fill-opacity="1" stroke="#000000" stroke-opacity="1" stroke-width="4.55111"/>
<path clip-path="url(#clip760)" d="M2032.83 188.497 L2032.83 192.525 Q2031.03 191.599 2029.08 191.136 Q2027.14 190.673 2025.06 190.673 Q2021.88 190.673 2020.29 191.645 Q2018.71 192.618 2018.71 194.562 Q2018.71 196.044 2019.85 196.9 Q2020.98 197.733 2024.41 198.497 L2025.87 198.821 Q2030.4 199.794 2032.3 201.576 Q2034.22 203.335 2034.22 206.506 Q2034.22 210.118 2031.35 212.224 Q2028.51 214.33 2023.51 214.33 Q2021.42 214.33 2019.15 213.914 Q2016.91 213.52 2014.41 212.71 L2014.41 208.312 Q2016.77 209.539 2019.06 210.164 Q2021.35 210.766 2023.6 210.766 Q2026.61 210.766 2028.23 209.747 Q2029.85 208.706 2029.85 206.831 Q2029.85 205.094 2028.67 204.168 Q2027.51 203.243 2023.55 202.386 L2022.07 202.039 Q2018.11 201.206 2016.35 199.493 Q2014.59 197.756 2014.59 194.747 Q2014.59 191.09 2017.19 189.099 Q2019.78 187.108 2024.55 187.108 Q2026.91 187.108 2028.99 187.456 Q2031.07 187.803 2032.83 188.497 Z" fill="#000000" fill-rule="nonzero" fill-opacity="1" /><path clip-path="url(#clip760)" d="M2051.79 216.067 Q2049.99 220.696 2048.27 222.108 Q2046.56 223.52 2043.69 223.52 L2040.29 223.52 L2040.29 219.955 L2042.79 219.955 Q2044.55 219.955 2045.52 219.122 Q2046.49 218.289 2047.67 215.187 L2048.44 213.243 L2037.95 187.733 L2042.46 187.733 L2050.57 208.011 L2058.67 187.733 L2063.18 187.733 L2051.79 216.067 Z" fill="#000000" fill-rule="nonzero" fill-opacity="1" /><path clip-path="url(#clip760)" d="M2089.25 192.71 Q2090.84 189.84 2093.06 188.474 Q2095.29 187.108 2098.3 187.108 Q2102.35 187.108 2104.55 189.956 Q2106.75 192.78 2106.75 198.011 L2106.75 213.659 L2102.46 213.659 L2102.46 198.15 Q2102.46 194.423 2101.14 192.618 Q2099.82 190.812 2097.12 190.812 Q2093.81 190.812 2091.88 193.011 Q2089.96 195.21 2089.96 199.006 L2089.96 213.659 L2085.68 213.659 L2085.68 198.15 Q2085.68 194.4 2084.36 192.618 Q2083.04 190.812 2080.29 190.812 Q2077.02 190.812 2075.1 193.034 Q2073.18 195.233 2073.18 199.006 L2073.18 213.659 L2068.9 213.659 L2068.9 187.733 L2073.18 187.733 L2073.18 191.761 Q2074.64 189.377 2076.68 188.243 Q2078.71 187.108 2081.51 187.108 Q2084.34 187.108 2086.31 188.544 Q2088.3 189.979 2089.25 192.71 Z" fill="#000000" fill-rule="nonzero" fill-opacity="1" /><path clip-path="url(#clip760)" d="M2135.43 192.71 Q2137.02 189.84 2139.25 188.474 Q2141.47 187.108 2144.48 187.108 Q2148.53 187.108 2150.73 189.956 Q2152.93 192.78 2152.93 198.011 L2152.93 213.659 L2148.64 213.659 L2148.64 198.15 Q2148.64 194.423 2147.32 192.618 Q2146 190.812 2143.3 190.812 Q2139.99 190.812 2138.06 193.011 Q2136.14 195.21 2136.14 199.006 L2136.14 213.659 L2131.86 213.659 L2131.86 198.15 Q2131.86 194.4 2130.54 192.618 Q2129.22 190.812 2126.47 190.812 Q2123.2 190.812 2121.28 193.034 Q2119.36 195.233 2119.36 199.006 L2119.36 213.659 L2115.08 213.659 L2115.08 187.733 L2119.36 187.733 L2119.36 191.761 Q2120.82 189.377 2122.86 188.243 Q2124.89 187.108 2127.69 187.108 Q2130.52 187.108 2132.49 188.544 Q2134.48 189.979 2135.43 192.71 Z" fill="#000000" fill-rule="nonzero" fill-opacity="1" /><path clip-path="url(#clip760)" d="M2183.6 199.631 L2183.6 201.715 L2164.01 201.715 Q2164.29 206.113 2166.65 208.428 Q2169.04 210.719 2173.27 210.719 Q2175.73 210.719 2178.02 210.118 Q2180.33 209.516 2182.6 208.312 L2182.6 212.34 Q2180.31 213.312 2177.9 213.821 Q2175.5 214.33 2173.02 214.33 Q2166.81 214.33 2163.18 210.719 Q2159.57 207.108 2159.57 200.951 Q2159.57 194.585 2163 190.858 Q2166.44 187.108 2172.28 187.108 Q2177.51 187.108 2180.54 190.488 Q2183.6 193.844 2183.6 199.631 M2179.34 198.381 Q2179.29 194.886 2177.37 192.803 Q2175.47 190.719 2172.32 190.719 Q2168.76 190.719 2166.61 192.733 Q2164.48 194.747 2164.15 198.405 L2179.34 198.381 Z" fill="#000000" fill-rule="nonzero" fill-opacity="1" /><path clip-path="url(#clip760)" d="M2194.8 180.372 L2194.8 187.733 L2203.57 187.733 L2203.57 191.044 L2194.8 191.044 L2194.8 205.118 Q2194.8 208.289 2195.66 209.192 Q2196.54 210.094 2199.2 210.094 L2203.57 210.094 L2203.57 213.659 L2199.2 213.659 Q2194.27 213.659 2192.39 211.83 Q2190.52 209.979 2190.52 205.118 L2190.52 191.044 L2187.39 191.044 L2187.39 187.733 L2190.52 187.733 L2190.52 180.372 L2194.8 180.372 Z" fill="#000000" fill-rule="nonzero" fill-opacity="1" /><path clip-path="url(#clip760)" d="M2224.2 191.715 Q2223.48 191.298 2222.62 191.113 Q2221.79 190.905 2220.77 190.905 Q2217.16 190.905 2215.22 193.266 Q2213.3 195.604 2213.3 200.002 L2213.3 213.659 L2209.01 213.659 L2209.01 187.733 L2213.3 187.733 L2213.3 191.761 Q2214.64 189.4 2216.79 188.266 Q2218.94 187.108 2222.02 187.108 Q2222.46 187.108 2222.99 187.178 Q2223.53 187.224 2224.18 187.34 L2224.2 191.715 Z" fill="#000000" fill-rule="nonzero" fill-opacity="1" /><path clip-path="url(#clip760)" d="M2228.67 187.733 L2232.93 187.733 L2232.93 213.659 L2228.67 213.659 L2228.67 187.733 M2228.67 177.641 L2232.93 177.641 L2232.93 183.034 L2228.67 183.034 L2228.67 177.641 Z" fill="#000000" fill-rule="nonzero" fill-opacity="1" /><path clip-path="url(#clip760)" d="M2260.49 188.729 L2260.49 192.71 Q2258.69 191.715 2256.86 191.229 Q2255.05 190.719 2253.2 190.719 Q2249.06 190.719 2246.77 193.358 Q2244.48 195.974 2244.48 200.719 Q2244.48 205.465 2246.77 208.104 Q2249.06 210.719 2253.2 210.719 Q2255.05 210.719 2256.86 210.233 Q2258.69 209.724 2260.49 208.729 L2260.49 212.664 Q2258.71 213.497 2256.79 213.914 Q2254.89 214.33 2252.74 214.33 Q2246.88 214.33 2243.43 210.65 Q2239.99 206.969 2239.99 200.719 Q2239.99 194.377 2243.46 190.743 Q2246.95 187.108 2253.02 187.108 Q2254.99 187.108 2256.86 187.525 Q2258.74 187.919 2260.49 188.729 Z" fill="#000000" fill-rule="nonzero" fill-opacity="1" /></svg>