<?xml version="1.0" encoding="utf-8"?>
<svg xmlns="http://www.w3.org/2000/svg" xmlns:xlink="http://www.w3.org/1999/xlink" width="600" height="400" viewBox="0 0 2400 1600">
<defs>
  <clipPath id="clip330">
    <rect x="0" y="0" width="2400" height="1600"/>
  </clipPath>
</defs>
<path clip-path="url(#clip330)" d="M0 1600 L2400 1600 L2400 8.88178e-14 L0 8.88178e-14  Z" fill="#ffffff" fill-rule="evenodd" fill-opacity="1"/>
<defs>
  <clipPath id="clip331">
    <rect x="480" y="0" width="1681" height="1600"/>
  </clipPath>
</defs>
<path clip-path="url(#clip330)" d="M247.459 1423.18 L2352.76 1423.18 L2352.76 47.2441 L247.459 47.2441  Z" fill="#ffffff" fill-rule="evenodd" fill-opacity="1"/>
<defs>
  <clipPath id="clip332">
    <rect x="247" y="47" width="2106" height="1377"/>
  </clipPath>
</defs>
<polyline clip-path="url(#clip332)" style="stroke:#000000; stroke-linecap:round; stroke-linejoin:round; stroke-width:2; stroke-opacity:0.1; fill:none" points="307.043,1423.18 307.043,47.2441 "/>
<polyline clip-path="url(#clip332)" style="stroke:#000000; stroke-linecap:round; stroke-linejoin:round; stroke-width:2; stroke-opacity:0.1; fill:none" points="803.575,1423.18 803.575,47.2441 "/>
<polyline clip-path="url(#clip332)" style="stroke:#000000; stroke-linecap:round; stroke-linejoin:round; stroke-width:2; stroke-opacity:0.1; fill:none" points="1300.11,1423.18 1300.11,47.2441 "/>
<polyline clip-path="url(#clip332)" style="stroke:#000000; stroke-linecap:round; stroke-linejoin:round; stroke-width:2; stroke-opacity:0.1; fill:none" points="1796.64,1423.18 1796.64,47.2441 "/>
<polyline clip-path="url(#clip332)" style="stroke:#000000; stroke-linecap:round; stroke-linejoin:round; stroke-width:2; stroke-opacity:0.1; fill:none" points="2293.17,1423.18 2293.17,47.2441 "/>
<polyline clip-path="url(#clip330)" style="stroke:#000000; stroke-linecap:round; stroke-linejoin:round; stroke-width:4; stroke-opacity:1; fill:none" points="247.459,1423.18 2352.76,1423.18 "/>
<polyline clip-path="url(#clip330)" style="stroke:#000000; stroke-linecap:round; stroke-linejoin:round; stroke-width:4; stroke-opacity:1; fill:none" points="307.043,1423.18 307.043,1404.28 "/>
<polyline clip-path="url(#clip330)" style="stroke:#000000; stroke-linecap:round; stroke-linejoin:round; stroke-width:4; stroke-opacity:1; fill:none" points="803.575,1423.18 803.575,1404.28 "/>
<polyline clip-path="url(#clip330)" style="stroke:#000000; stroke-linecap:round; stroke-linejoin:round; stroke-width:4; stroke-opacity:1; fill:none" points="1300.11,1423.18 1300.11,1404.28 "/>
<polyline clip-path="url(#clip330)" style="stroke:#000000; stroke-linecap:round; stroke-linejoin:round; stroke-width:4; stroke-opacity:1; fill:none" points="1796.64,1423.18 1796.64,1404.28 "/>
<polyline clip-path="url(#clip330)" style="stroke:#000000; stroke-linecap:round; stroke-linejoin:round; stroke-width:4; stroke-opacity:1; fill:none" points="2293.17,1423.18 2293.17,1404.28 "/>
<path clip-path="url(#clip330)" d="M269.346 1454.1 Q265.735 1454.1 263.906 1457.66 Q262.101 1461.2 262.101 1468.33 Q262.101 1475.44 263.906 1479.01 Q265.735 1482.55 269.346 1482.55 Q272.98 1482.55 274.786 1479.01 Q276.615 1475.44 276.615 1468.33 Q276.615 1461.2 274.786 1457.66 Q272.98 1454.1 269.346 1454.1 M269.346 1450.39 Q275.156 1450.39 278.212 1455 Q281.29 1459.58 281.29 1468.33 Q281.29 1477.06 278.212 1481.67 Q275.156 1486.25 269.346 1486.25 Q263.536 1486.25 260.457 1481.67 Q257.402 1477.06 257.402 1468.33 Q257.402 1459.58 260.457 1455 Q263.536 1450.39 269.346 1450.39 Z" fill="#000000" fill-rule="nonzero" fill-opacity="1" /><path clip-path="url(#clip330)" d="M289.508 1479.7 L294.392 1479.7 L294.392 1485.58 L289.508 1485.58 L289.508 1479.7 Z" fill="#000000" fill-rule="nonzero" fill-opacity="1" /><path clip-path="url(#clip330)" d="M314.577 1454.1 Q310.966 1454.1 309.137 1457.66 Q307.332 1461.2 307.332 1468.33 Q307.332 1475.44 309.137 1479.01 Q310.966 1482.55 314.577 1482.55 Q318.212 1482.55 320.017 1479.01 Q321.846 1475.44 321.846 1468.33 Q321.846 1461.2 320.017 1457.66 Q318.212 1454.1 314.577 1454.1 M314.577 1450.39 Q320.387 1450.39 323.443 1455 Q326.522 1459.58 326.522 1468.33 Q326.522 1477.06 323.443 1481.67 Q320.387 1486.25 314.577 1486.25 Q308.767 1486.25 305.688 1481.67 Q302.633 1477.06 302.633 1468.33 Q302.633 1459.58 305.688 1455 Q308.767 1450.39 314.577 1450.39 Z" fill="#000000" fill-rule="nonzero" fill-opacity="1" /><path clip-path="url(#clip330)" d="M344.739 1454.1 Q341.128 1454.1 339.299 1457.66 Q337.494 1461.2 337.494 1468.33 Q337.494 1475.44 339.299 1479.01 Q341.128 1482.55 344.739 1482.55 Q348.373 1482.55 350.179 1479.01 Q352.008 1475.44 352.008 1468.33 Q352.008 1461.2 350.179 1457.66 Q348.373 1454.1 344.739 1454.1 M344.739 1450.39 Q350.549 1450.39 353.605 1455 Q356.684 1459.58 356.684 1468.33 Q356.684 1477.06 353.605 1481.67 Q350.549 1486.25 344.739 1486.25 Q338.929 1486.25 335.85 1481.67 Q332.795 1477.06 332.795 1468.33 Q332.795 1459.58 335.85 1455 Q338.929 1450.39 344.739 1450.39 Z" fill="#000000" fill-rule="nonzero" fill-opacity="1" /><path clip-path="url(#clip330)" d="M766.376 1454.1 Q762.765 1454.1 760.936 1457.66 Q759.131 1461.2 759.131 1468.33 Q759.131 1475.44 760.936 1479.01 Q762.765 1482.55 766.376 1482.55 Q770.01 1482.55 771.816 1479.01 Q773.645 1475.44 773.645 1468.33 Q773.645 1461.2 771.816 1457.66 Q770.01 1454.1 766.376 1454.1 M766.376 1450.39 Q772.186 1450.39 775.242 1455 Q778.32 1459.58 778.32 1468.33 Q778.32 1477.06 775.242 1481.67 Q772.186 1486.25 766.376 1486.25 Q760.566 1486.25 757.487 1481.67 Q754.432 1477.06 754.432 1468.33 Q754.432 1459.58 757.487 1455 Q760.566 1450.39 766.376 1450.39 Z" fill="#000000" fill-rule="nonzero" fill-opacity="1" /><path clip-path="url(#clip330)" d="M786.538 1479.7 L791.422 1479.7 L791.422 1485.58 L786.538 1485.58 L786.538 1479.7 Z" fill="#000000" fill-rule="nonzero" fill-opacity="1" /><path clip-path="url(#clip330)" d="M805.635 1481.64 L821.954 1481.64 L821.954 1485.58 L800.01 1485.58 L800.01 1481.64 Q802.672 1478.89 807.255 1474.26 Q811.862 1469.61 813.042 1468.27 Q815.288 1465.74 816.167 1464.01 Q817.07 1462.25 817.07 1460.56 Q817.07 1457.8 815.126 1456.07 Q813.205 1454.33 810.103 1454.33 Q807.904 1454.33 805.45 1455.09 Q803.019 1455.86 800.242 1457.41 L800.242 1452.69 Q803.066 1451.55 805.519 1450.97 Q807.973 1450.39 810.01 1450.39 Q815.38 1450.39 818.575 1453.08 Q821.769 1455.77 821.769 1460.26 Q821.769 1462.39 820.959 1464.31 Q820.172 1466.2 818.066 1468.8 Q817.487 1469.47 814.385 1472.69 Q811.283 1475.88 805.635 1481.64 Z" fill="#000000" fill-rule="nonzero" fill-opacity="1" /><path clip-path="url(#clip330)" d="M831.816 1451.02 L850.172 1451.02 L850.172 1454.96 L836.098 1454.96 L836.098 1463.43 Q837.116 1463.08 838.135 1462.92 Q839.153 1462.73 840.172 1462.73 Q845.959 1462.73 849.339 1465.9 Q852.718 1469.08 852.718 1474.49 Q852.718 1480.07 849.246 1483.17 Q845.774 1486.25 839.454 1486.25 Q837.278 1486.25 835.01 1485.88 Q832.765 1485.51 830.357 1484.77 L830.357 1480.07 Q832.441 1481.2 834.663 1481.76 Q836.885 1482.32 839.362 1482.32 Q843.366 1482.32 845.704 1480.21 Q848.042 1478.1 848.042 1474.49 Q848.042 1470.88 845.704 1468.77 Q843.366 1466.67 839.362 1466.67 Q837.487 1466.67 835.612 1467.08 Q833.76 1467.5 831.816 1468.38 L831.816 1451.02 Z" fill="#000000" fill-rule="nonzero" fill-opacity="1" /><path clip-path="url(#clip330)" d="M1262.41 1454.1 Q1258.8 1454.1 1256.97 1457.66 Q1255.17 1461.2 1255.17 1468.33 Q1255.17 1475.44 1256.97 1479.01 Q1258.8 1482.55 1262.41 1482.55 Q1266.04 1482.55 1267.85 1479.01 Q1269.68 1475.44 1269.68 1468.33 Q1269.68 1461.2 1267.85 1457.66 Q1266.04 1454.1 1262.41 1454.1 M1262.41 1450.39 Q1268.22 1450.39 1271.28 1455 Q1274.36 1459.58 1274.36 1468.33 Q1274.36 1477.06 1271.28 1481.67 Q1268.22 1486.25 1262.41 1486.25 Q1256.6 1486.25 1253.52 1481.67 Q1250.47 1477.06 1250.47 1468.33 Q1250.47 1459.58 1253.52 1455 Q1256.6 1450.39 1262.41 1450.39 Z" fill="#000000" fill-rule="nonzero" fill-opacity="1" /><path clip-path="url(#clip330)" d="M1282.57 1479.7 L1287.46 1479.7 L1287.46 1485.58 L1282.57 1485.58 L1282.57 1479.7 Z" fill="#000000" fill-rule="nonzero" fill-opacity="1" /><path clip-path="url(#clip330)" d="M1297.69 1451.02 L1316.04 1451.02 L1316.04 1454.96 L1301.97 1454.96 L1301.97 1463.43 Q1302.99 1463.08 1304.01 1462.92 Q1305.03 1462.73 1306.04 1462.73 Q1311.83 1462.73 1315.21 1465.9 Q1318.59 1469.08 1318.59 1474.49 Q1318.59 1480.07 1315.12 1483.17 Q1311.65 1486.25 1305.33 1486.25 Q1303.15 1486.25 1300.88 1485.88 Q1298.64 1485.51 1296.23 1484.77 L1296.23 1480.07 Q1298.31 1481.2 1300.54 1481.76 Q1302.76 1482.32 1305.23 1482.32 Q1309.24 1482.32 1311.58 1480.21 Q1313.92 1478.1 1313.92 1474.49 Q1313.92 1470.88 1311.58 1468.77 Q1309.24 1466.67 1305.23 1466.67 Q1303.36 1466.67 1301.48 1467.08 Q1299.63 1467.5 1297.69 1468.38 L1297.69 1451.02 Z" fill="#000000" fill-rule="nonzero" fill-opacity="1" /><path clip-path="url(#clip330)" d="M1337.8 1454.1 Q1334.19 1454.1 1332.36 1457.66 Q1330.56 1461.2 1330.56 1468.33 Q1330.56 1475.44 1332.36 1479.01 Q1334.19 1482.55 1337.8 1482.55 Q1341.44 1482.55 1343.24 1479.01 Q1345.07 1475.44 1345.07 1468.33 Q1345.07 1461.2 1343.24 1457.66 Q1341.44 1454.1 1337.8 1454.1 M1337.8 1450.39 Q1343.61 1450.39 1346.67 1455 Q1349.75 1459.58 1349.75 1468.33 Q1349.75 1477.06 1346.67 1481.67 Q1343.61 1486.25 1337.8 1486.25 Q1331.99 1486.25 1328.92 1481.67 Q1325.86 1477.06 1325.86 1468.33 Q1325.86 1459.58 1328.92 1455 Q1331.99 1450.39 1337.8 1450.39 Z" fill="#000000" fill-rule="nonzero" fill-opacity="1" /><path clip-path="url(#clip330)" d="M1759.44 1454.1 Q1755.83 1454.1 1754 1457.66 Q1752.2 1461.2 1752.2 1468.33 Q1752.2 1475.44 1754 1479.01 Q1755.83 1482.55 1759.44 1482.55 Q1763.08 1482.55 1764.88 1479.01 Q1766.71 1475.44 1766.71 1468.33 Q1766.71 1461.2 1764.88 1457.66 Q1763.08 1454.1 1759.44 1454.1 M1759.44 1450.39 Q1765.25 1450.39 1768.31 1455 Q1771.39 1459.58 1771.39 1468.33 Q1771.39 1477.06 1768.31 1481.67 Q1765.25 1486.25 1759.44 1486.25 Q1753.63 1486.25 1750.55 1481.67 Q1747.5 1477.06 1747.5 1468.33 Q1747.5 1459.58 1750.55 1455 Q1753.63 1450.39 1759.44 1450.39 Z" fill="#000000" fill-rule="nonzero" fill-opacity="1" /><path clip-path="url(#clip330)" d="M1779.6 1479.7 L1784.49 1479.7 L1784.49 1485.58 L1779.6 1485.58 L1779.6 1479.7 Z" fill="#000000" fill-rule="nonzero" fill-opacity="1" /><path clip-path="url(#clip330)" d="M1793.49 1451.02 L1815.71 1451.02 L1815.71 1453.01 L1803.17 1485.58 L1798.28 1485.58 L1810.09 1454.96 L1793.49 1454.96 L1793.49 1451.02 Z" fill="#000000" fill-rule="nonzero" fill-opacity="1" /><path clip-path="url(#clip330)" d="M1824.88 1451.02 L1843.24 1451.02 L1843.24 1454.96 L1829.16 1454.96 L1829.16 1463.43 Q1830.18 1463.08 1831.2 1462.92 Q1832.22 1462.73 1833.24 1462.73 Q1839.02 1462.73 1842.4 1465.9 Q1845.78 1469.08 1845.78 1474.49 Q1845.78 1480.07 1842.31 1483.17 Q1838.84 1486.25 1832.52 1486.25 Q1830.34 1486.25 1828.07 1485.88 Q1825.83 1485.51 1823.42 1484.77 L1823.42 1480.07 Q1825.51 1481.2 1827.73 1481.76 Q1829.95 1482.32 1832.43 1482.32 Q1836.43 1482.32 1838.77 1480.21 Q1841.11 1478.1 1841.11 1474.49 Q1841.11 1470.88 1838.77 1468.77 Q1836.43 1466.67 1832.43 1466.67 Q1830.55 1466.67 1828.68 1467.08 Q1826.82 1467.5 1824.88 1468.38 L1824.88 1451.02 Z" fill="#000000" fill-rule="nonzero" fill-opacity="1" /><path clip-path="url(#clip330)" d="M2245.24 1481.64 L2252.88 1481.64 L2252.88 1455.28 L2244.57 1456.95 L2244.57 1452.69 L2252.84 1451.02 L2257.51 1451.02 L2257.51 1481.64 L2265.15 1481.64 L2265.15 1485.58 L2245.24 1485.58 L2245.24 1481.64 Z" fill="#000000" fill-rule="nonzero" fill-opacity="1" /><path clip-path="url(#clip330)" d="M2274.6 1479.7 L2279.48 1479.7 L2279.48 1485.58 L2274.6 1485.58 L2274.6 1479.7 Z" fill="#000000" fill-rule="nonzero" fill-opacity="1" /><path clip-path="url(#clip330)" d="M2299.67 1454.1 Q2296.05 1454.1 2294.23 1457.66 Q2292.42 1461.2 2292.42 1468.33 Q2292.42 1475.44 2294.23 1479.01 Q2296.05 1482.55 2299.67 1482.55 Q2303.3 1482.55 2305.1 1479.01 Q2306.93 1475.44 2306.93 1468.33 Q2306.93 1461.2 2305.1 1457.66 Q2303.3 1454.1 2299.67 1454.1 M2299.67 1450.39 Q2305.48 1450.39 2308.53 1455 Q2311.61 1459.58 2311.61 1468.33 Q2311.61 1477.06 2308.53 1481.67 Q2305.48 1486.25 2299.67 1486.25 Q2293.85 1486.25 2290.78 1481.67 Q2287.72 1477.06 2287.72 1468.33 Q2287.72 1459.58 2290.78 1455 Q2293.85 1450.39 2299.67 1450.39 Z" fill="#000000" fill-rule="nonzero" fill-opacity="1" /><path clip-path="url(#clip330)" d="M2329.83 1454.1 Q2326.22 1454.1 2324.39 1457.66 Q2322.58 1461.2 2322.58 1468.33 Q2322.58 1475.44 2324.39 1479.01 Q2326.22 1482.55 2329.83 1482.55 Q2333.46 1482.55 2335.27 1479.01 Q2337.1 1475.44 2337.1 1468.33 Q2337.1 1461.2 2335.27 1457.66 Q2333.46 1454.1 2329.83 1454.1 M2329.83 1450.39 Q2335.64 1450.39 2338.69 1455 Q2341.77 1459.58 2341.77 1468.33 Q2341.77 1477.06 2338.69 1481.67 Q2335.64 1486.25 2329.83 1486.25 Q2324.02 1486.25 2320.94 1481.67 Q2317.88 1477.06 2317.88 1468.33 Q2317.88 1459.58 2320.94 1455 Q2324.02 1450.39 2329.83 1450.39 Z" fill="#000000" fill-rule="nonzero" fill-opacity="1" /><path clip-path="url(#clip330)" d="M1316.72 1532.4 L1303.83 1549.74 L1317.39 1568.04 L1310.48 1568.04 L1300.11 1554.04 L1289.73 1568.04 L1282.82 1568.04 L1296.67 1549.39 L1284 1532.4 L1290.91 1532.4 L1300.36 1545.1 L1309.82 1532.4 L1316.72 1532.4 Z" fill="#000000" fill-rule="nonzero" fill-opacity="1" /><polyline clip-path="url(#clip332)" style="stroke:#000000; stroke-linecap:round; stroke-linejoin:round; stroke-width:2; stroke-opacity:0.1; fill:none" points="247.459,1384.24 2352.76,1384.24 "/>
<polyline clip-path="url(#clip332)" style="stroke:#000000; stroke-linecap:round; stroke-linejoin:round; stroke-width:2; stroke-opacity:0.1; fill:none" points="247.459,1059.73 2352.76,1059.73 "/>
<polyline clip-path="url(#clip332)" style="stroke:#000000; stroke-linecap:round; stroke-linejoin:round; stroke-width:2; stroke-opacity:0.1; fill:none" points="247.459,735.212 2352.76,735.212 "/>
<polyline clip-path="url(#clip332)" style="stroke:#000000; stroke-linecap:round; stroke-linejoin:round; stroke-width:2; stroke-opacity:0.1; fill:none" points="247.459,410.699 2352.76,410.699 "/>
<polyline clip-path="url(#clip332)" style="stroke:#000000; stroke-linecap:round; stroke-linejoin:round; stroke-width:2; stroke-opacity:0.1; fill:none" points="247.459,86.1857 2352.76,86.1857 "/>
<polyline clip-path="url(#clip330)" style="stroke:#000000; stroke-linecap:round; stroke-linejoin:round; stroke-width:4; stroke-opacity:1; fill:none" points="247.459,1423.18 247.459,47.2441 "/>
<polyline clip-path="url(#clip330)" style="stroke:#000000; stroke-linecap:round; stroke-linejoin:round; stroke-width:4; stroke-opacity:1; fill:none" points="247.459,1384.24 266.356,1384.24 "/>
<polyline clip-path="url(#clip330)" style="stroke:#000000; stroke-linecap:round; stroke-linejoin:round; stroke-width:4; stroke-opacity:1; fill:none" points="247.459,1059.73 266.356,1059.73 "/>
<polyline clip-path="url(#clip330)" style="stroke:#000000; stroke-linecap:round; stroke-linejoin:round; stroke-width:4; stroke-opacity:1; fill:none" points="247.459,735.212 266.356,735.212 "/>
<polyline clip-path="url(#clip330)" style="stroke:#000000; stroke-linecap:round; stroke-linejoin:round; stroke-width:4; stroke-opacity:1; fill:none" points="247.459,410.699 266.356,410.699 "/>
<polyline clip-path="url(#clip330)" style="stroke:#000000; stroke-linecap:round; stroke-linejoin:round; stroke-width:4; stroke-opacity:1; fill:none" points="247.459,86.1857 266.356,86.1857 "/>
<path clip-path="url(#clip330)" d="M154.283 1370.04 Q150.672 1370.04 148.843 1373.6 Q147.038 1377.14 147.038 1384.27 Q147.038 1391.38 148.843 1394.94 Q150.672 1398.49 154.283 1398.49 Q157.917 1398.49 159.723 1394.94 Q161.552 1391.38 161.552 1384.27 Q161.552 1377.14 159.723 1373.6 Q157.917 1370.04 154.283 1370.04 M154.283 1366.33 Q160.093 1366.33 163.149 1370.94 Q166.227 1375.52 166.227 1384.27 Q166.227 1393 163.149 1397.61 Q160.093 1402.19 154.283 1402.19 Q148.473 1402.19 145.394 1397.61 Q142.339 1393 142.339 1384.27 Q142.339 1375.52 145.394 1370.94 Q148.473 1366.33 154.283 1366.33 Z" fill="#000000" fill-rule="nonzero" fill-opacity="1" /><path clip-path="url(#clip330)" d="M174.445 1395.64 L179.329 1395.64 L179.329 1401.52 L174.445 1401.52 L174.445 1395.64 Z" fill="#000000" fill-rule="nonzero" fill-opacity="1" /><path clip-path="url(#clip330)" d="M199.514 1370.04 Q195.903 1370.04 194.075 1373.6 Q192.269 1377.14 192.269 1384.27 Q192.269 1391.38 194.075 1394.94 Q195.903 1398.49 199.514 1398.49 Q203.149 1398.49 204.954 1394.94 Q206.783 1391.38 206.783 1384.27 Q206.783 1377.14 204.954 1373.6 Q203.149 1370.04 199.514 1370.04 M199.514 1366.33 Q205.324 1366.33 208.38 1370.94 Q211.459 1375.52 211.459 1384.27 Q211.459 1393 208.38 1397.61 Q205.324 1402.19 199.514 1402.19 Q193.704 1402.19 190.625 1397.61 Q187.57 1393 187.57 1384.27 Q187.57 1375.52 190.625 1370.94 Q193.704 1366.33 199.514 1366.33 Z" fill="#000000" fill-rule="nonzero" fill-opacity="1" /><path clip-path="url(#clip330)" d="M149.306 1073.07 L165.626 1073.07 L165.626 1077.01 L143.681 1077.01 L143.681 1073.07 Q146.343 1070.32 150.927 1065.69 Q155.533 1061.03 156.714 1059.69 Q158.959 1057.17 159.839 1055.43 Q160.741 1053.67 160.741 1051.98 Q160.741 1049.23 158.797 1047.49 Q156.876 1045.76 153.774 1045.76 Q151.575 1045.76 149.121 1046.52 Q146.691 1047.28 143.913 1048.83 L143.913 1044.11 Q146.737 1042.98 149.191 1042.4 Q151.644 1041.82 153.681 1041.82 Q159.052 1041.82 162.246 1044.51 Q165.44 1047.19 165.44 1051.68 Q165.44 1053.81 164.63 1055.73 Q163.843 1057.63 161.737 1060.22 Q161.158 1060.89 158.056 1064.11 Q154.954 1067.31 149.306 1073.07 Z" fill="#000000" fill-rule="nonzero" fill-opacity="1" /><path clip-path="url(#clip330)" d="M175.44 1071.13 L180.325 1071.13 L180.325 1077.01 L175.44 1077.01 L175.44 1071.13 Z" fill="#000000" fill-rule="nonzero" fill-opacity="1" /><path clip-path="url(#clip330)" d="M190.556 1042.45 L208.912 1042.45 L208.912 1046.38 L194.838 1046.38 L194.838 1054.85 Q195.857 1054.51 196.875 1054.34 Q197.894 1054.16 198.912 1054.16 Q204.699 1054.16 208.079 1057.33 Q211.459 1060.5 211.459 1065.92 Q211.459 1071.5 207.987 1074.6 Q204.514 1077.68 198.195 1077.68 Q196.019 1077.68 193.75 1077.31 Q191.505 1076.94 189.098 1076.19 L189.098 1071.5 Q191.181 1072.63 193.403 1073.19 Q195.625 1073.74 198.102 1073.74 Q202.107 1073.74 204.445 1071.63 Q206.783 1069.53 206.783 1065.92 Q206.783 1062.31 204.445 1060.2 Q202.107 1058.09 198.102 1058.09 Q196.227 1058.09 194.352 1058.51 Q192.5 1058.93 190.556 1059.81 L190.556 1042.45 Z" fill="#000000" fill-rule="nonzero" fill-opacity="1" /><path clip-path="url(#clip330)" d="M144.329 717.932 L162.686 717.932 L162.686 721.867 L148.612 721.867 L148.612 730.339 Q149.63 729.992 150.649 729.83 Q151.667 729.645 152.686 729.645 Q158.473 729.645 161.852 732.816 Q165.232 735.987 165.232 741.404 Q165.232 746.983 161.76 750.085 Q158.288 753.163 151.968 753.163 Q149.792 753.163 147.524 752.793 Q145.279 752.423 142.871 751.682 L142.871 746.983 Q144.954 748.117 147.177 748.673 Q149.399 749.228 151.876 749.228 Q155.88 749.228 158.218 747.122 Q160.556 745.015 160.556 741.404 Q160.556 737.793 158.218 735.687 Q155.88 733.58 151.876 733.58 Q150.001 733.58 148.126 733.997 Q146.274 734.413 144.329 735.293 L144.329 717.932 Z" fill="#000000" fill-rule="nonzero" fill-opacity="1" /><path clip-path="url(#clip330)" d="M174.445 746.612 L179.329 746.612 L179.329 752.492 L174.445 752.492 L174.445 746.612 Z" fill="#000000" fill-rule="nonzero" fill-opacity="1" /><path clip-path="url(#clip330)" d="M199.514 721.011 Q195.903 721.011 194.075 724.575 Q192.269 728.117 192.269 735.247 Q192.269 742.353 194.075 745.918 Q195.903 749.46 199.514 749.46 Q203.149 749.46 204.954 745.918 Q206.783 742.353 206.783 735.247 Q206.783 728.117 204.954 724.575 Q203.149 721.011 199.514 721.011 M199.514 717.307 Q205.324 717.307 208.38 721.913 Q211.459 726.497 211.459 735.247 Q211.459 743.973 208.38 748.58 Q205.324 753.163 199.514 753.163 Q193.704 753.163 190.625 748.58 Q187.57 743.973 187.57 735.247 Q187.57 726.497 190.625 721.913 Q193.704 717.307 199.514 717.307 Z" fill="#000000" fill-rule="nonzero" fill-opacity="1" /><path clip-path="url(#clip330)" d="M144.098 393.419 L166.32 393.419 L166.32 395.41 L153.774 427.979 L148.89 427.979 L160.695 397.354 L144.098 397.354 L144.098 393.419 Z" fill="#000000" fill-rule="nonzero" fill-opacity="1" /><path clip-path="url(#clip330)" d="M175.44 422.099 L180.325 422.099 L180.325 427.979 L175.44 427.979 L175.44 422.099 Z" fill="#000000" fill-rule="nonzero" fill-opacity="1" /><path clip-path="url(#clip330)" d="M190.556 393.419 L208.912 393.419 L208.912 397.354 L194.838 397.354 L194.838 405.826 Q195.857 405.479 196.875 405.317 Q197.894 405.132 198.912 405.132 Q204.699 405.132 208.079 408.303 Q211.459 411.474 211.459 416.891 Q211.459 422.47 207.987 425.571 Q204.514 428.65 198.195 428.65 Q196.019 428.65 193.75 428.28 Q191.505 427.909 189.098 427.169 L189.098 422.47 Q191.181 423.604 193.403 424.159 Q195.625 424.715 198.102 424.715 Q202.107 424.715 204.445 422.608 Q206.783 420.502 206.783 416.891 Q206.783 413.28 204.445 411.173 Q202.107 409.067 198.102 409.067 Q196.227 409.067 194.352 409.484 Q192.5 409.9 190.556 410.78 L190.556 393.419 Z" fill="#000000" fill-rule="nonzero" fill-opacity="1" /><path clip-path="url(#clip330)" d="M114.931 99.5305 L122.57 99.5305 L122.57 73.1649 L114.26 74.8316 L114.26 70.5723 L122.524 68.9057 L127.2 68.9057 L127.2 99.5305 L134.839 99.5305 L134.839 103.466 L114.931 103.466 L114.931 99.5305 Z" fill="#000000" fill-rule="nonzero" fill-opacity="1" /><path clip-path="url(#clip330)" d="M154.283 71.9844 Q150.672 71.9844 148.843 75.5492 Q147.038 79.0908 147.038 86.2204 Q147.038 93.3268 148.843 96.8916 Q150.672 100.433 154.283 100.433 Q157.917 100.433 159.723 96.8916 Q161.552 93.3268 161.552 86.2204 Q161.552 79.0908 159.723 75.5492 Q157.917 71.9844 154.283 71.9844 M154.283 68.2807 Q160.093 68.2807 163.149 72.8871 Q166.227 77.4704 166.227 86.2204 Q166.227 94.9472 163.149 99.5537 Q160.093 104.137 154.283 104.137 Q148.473 104.137 145.394 99.5537 Q142.339 94.9472 142.339 86.2204 Q142.339 77.4704 145.394 72.8871 Q148.473 68.2807 154.283 68.2807 Z" fill="#000000" fill-rule="nonzero" fill-opacity="1" /><path clip-path="url(#clip330)" d="M174.445 97.5861 L179.329 97.5861 L179.329 103.466 L174.445 103.466 L174.445 97.5861 Z" fill="#000000" fill-rule="nonzero" fill-opacity="1" /><path clip-path="url(#clip330)" d="M199.514 71.9844 Q195.903 71.9844 194.075 75.5492 Q192.269 79.0908 192.269 86.2204 Q192.269 93.3268 194.075 96.8916 Q195.903 100.433 199.514 100.433 Q203.149 100.433 204.954 96.8916 Q206.783 93.3268 206.783 86.2204 Q206.783 79.0908 204.954 75.5492 Q203.149 71.9844 199.514 71.9844 M199.514 68.2807 Q205.324 68.2807 208.38 72.8871 Q211.459 77.4704 211.459 86.2204 Q211.459 94.9472 208.38 99.5537 Q205.324 104.137 199.514 104.137 Q193.704 104.137 190.625 99.5537 Q187.57 94.9472 187.57 86.2204 Q187.57 77.4704 190.625 72.8871 Q193.704 68.2807 199.514 68.2807 Z" fill="#000000" fill-rule="nonzero" fill-opacity="1" /><path clip-path="url(#clip330)" d="M14.479 723.865 L19.3487 723.865 L19.3487 729.467 Q19.3487 732.618 20.6219 733.859 Q21.895 735.069 25.2052 735.069 L28.3562 735.069 L28.3562 725.425 L32.9077 725.425 L32.9077 735.069 L64.0042 735.069 L64.0042 740.957 L32.9077 740.957 L32.9077 746.559 L28.3562 746.559 L28.3562 740.957 L25.8736 740.957 Q19.9216 740.957 17.2162 738.188 Q14.479 735.419 14.479 729.403 L14.479 723.865 Z" fill="#000000" fill-rule="nonzero" fill-opacity="1" /><polyline clip-path="url(#clip332)" style="stroke:#009af9; stroke-linecap:round; stroke-linejoin:round; stroke-width:4; stroke-opacity:1; fill:none" points="307.043,1384.24 319.973,1383.39 439.537,1375.58 511.39,1370.88 572.141,1366.91 638.133,1362.6 698.972,1358.62 764.198,1354.36 839.768,1349.42 906.927,1345.03 965.818,1341.18 1030.03,1336.99 1094.62,1332.77 1166.03,1328.1 1233.97,1323.66 1304.62,1319.04 1364.09,1315.15 1436.7,1310.41 1503.21,1306.06 1564.64,1302.05 1626.87,1297.98 1696.61,1293.42 1759.8,1289.29 1832.16,1284.56 1899.15,1280.18 1965.2,1275.87 2029.32,1271.68 2095.06,1267.38 2167.08,1262.67 2271.71,1255.84 2293.17,1254.43 "/>
<polyline clip-path="url(#clip332)" style="stroke:#e26f46; stroke-linecap:round; stroke-linejoin:round; stroke-width:4; stroke-opacity:1; fill:none" points="307.043,1384.24 319.973,1382.55 439.537,1366.92 511.39,1357.53 572.141,1349.59 638.133,1340.96 698.972,1333.01 764.198,1324.48 839.768,1314.6 906.927,1305.83 965.818,1298.13 1030.03,1289.74 1094.62,1281.29 1166.03,1271.96 1233.97,1263.08 1304.62,1253.84 1364.09,1246.07 1436.7,1236.58 1503.21,1227.88 1564.64,1219.85 1626.87,1211.72 1696.61,1202.61 1759.8,1194.35 1832.16,1184.89 1899.15,1176.13 1965.2,1167.5 2029.32,1159.12 2095.06,1150.52 2167.08,1141.11 2271.71,1127.43 2293.17,1124.63 "/>
<polyline clip-path="url(#clip332)" style="stroke:#3da44d; stroke-linecap:round; stroke-linejoin:round; stroke-width:4; stroke-opacity:1; fill:none" points="307.043,1384.24 319.973,1381.7 439.537,1358.26 511.39,1344.17 572.141,1332.26 638.133,1319.32 698.972,1307.39 764.198,1294.6 839.768,1279.79 906.927,1266.62 965.818,1255.07 1030.03,1242.48 1094.62,1229.82 1166.03,1215.82 1233.97,1202.5 1304.62,1188.65 1364.09,1176.98 1436.7,1162.75 1503.21,1149.71 1564.64,1137.66 1626.87,1125.46 1696.61,1111.79 1759.8,1099.4 1832.16,1085.21 1899.15,1072.08 1965.2,1059.13 2029.32,1046.55 2095.06,1033.67 2167.08,1019.54 2271.71,999.031 2293.17,994.822 "/>
<polyline clip-path="url(#clip332)" style="stroke:#c271d2; stroke-linecap:round; stroke-linejoin:round; stroke-width:4; stroke-opacity:1; fill:none" points="307.043,1384.24 319.973,1380.86 439.537,1349.6 511.39,1330.82 572.141,1314.94 638.133,1297.68 698.972,1281.78 764.198,1264.73 839.768,1244.97 906.927,1227.41 965.818,1212.02 1030.03,1195.23 1094.62,1178.35 1166.03,1159.68 1233.97,1141.92 1304.62,1123.45 1364.09,1107.9 1436.7,1088.92 1503.21,1071.53 1564.64,1055.47 1626.87,1039.2 1696.61,1020.97 1759.8,1004.45 1832.16,985.538 1899.15,968.024 1965.2,950.758 2029.32,933.994 2095.06,916.808 2167.08,897.98 2271.71,870.628 2293.17,865.017 "/>
<polyline clip-path="url(#clip332)" style="stroke:#ac8d18; stroke-linecap:round; stroke-linejoin:round; stroke-width:4; stroke-opacity:1; fill:none" points="307.043,1384.24 319.973,1380.01 439.537,1340.94 511.39,1317.46 572.141,1297.61 638.133,1276.04 698.972,1256.16 764.198,1234.85 839.768,1210.15 906.927,1188.21 965.818,1168.96 1030.03,1147.98 1094.62,1126.88 1166.03,1103.54 1233.97,1081.34 1304.62,1058.25 1364.09,1038.82 1436.7,1015.09 1503.21,993.354 1564.64,973.28 1626.87,952.946 1696.61,930.157 1759.8,909.506 1832.16,885.862 1899.15,863.971 1965.2,842.388 2029.32,821.433 2095.06,799.951 2167.08,776.415 2271.71,742.226 2293.17,735.212 "/>
<polyline clip-path="url(#clip332)" style="stroke:#00a9ad; stroke-linecap:round; stroke-linejoin:round; stroke-width:4; stroke-opacity:1; fill:none" points="307.043,1384.24 319.973,1379.17 439.537,1332.28 511.39,1304.11 572.141,1280.28 638.133,1254.41 698.972,1230.55 764.198,1204.97 839.768,1175.34 906.927,1149 965.818,1125.91 1030.03,1100.73 1094.62,1075.4 1166.03,1047.4 1233.97,1020.76 1304.62,993.052 1364.09,969.731 1436.7,941.259 1503.21,915.177 1564.64,891.088 1626.87,866.687 1696.61,839.34 1759.8,814.559 1832.16,786.187 1899.15,759.917 1965.2,734.018 2029.32,708.872 2095.06,683.094 2167.08,654.851 2271.71,613.824 2293.17,605.407 "/>
<polyline clip-path="url(#clip332)" style="stroke:#ed5d92; stroke-linecap:round; stroke-linejoin:round; stroke-width:4; stroke-opacity:1; fill:none" points="307.043,1384.24 319.973,1378.32 439.537,1323.62 511.39,1290.75 572.141,1262.96 638.133,1232.77 698.972,1204.93 764.198,1175.09 839.768,1140.52 906.927,1109.8 965.818,1082.85 1030.03,1053.48 1094.62,1023.93 1166.03,991.26 1233.97,960.175 1304.62,927.854 1364.09,900.647 1436.7,867.429 1503.21,837 1564.64,808.897 1626.87,780.429 1696.61,748.524 1759.8,719.613 1832.16,686.512 1899.15,655.863 1965.2,625.648 2029.32,596.31 2095.06,566.236 2167.08,533.286 2271.71,485.421 2293.17,475.601 "/>
<polyline clip-path="url(#clip332)" style="stroke:#c68125; stroke-linecap:round; stroke-linejoin:round; stroke-width:4; stroke-opacity:1; fill:none" points="307.043,1384.24 319.973,1377.48 439.537,1314.96 511.39,1277.4 572.141,1245.63 638.133,1211.13 698.972,1179.32 764.198,1145.22 839.768,1105.7 906.927,1070.59 965.818,1039.8 1030.03,1006.23 1094.62,972.458 1166.03,935.121 1233.97,899.595 1304.62,862.657 1364.09,831.562 1436.7,793.6 1503.21,758.824 1564.64,726.705 1626.87,694.17 1696.61,657.707 1759.8,624.666 1832.16,586.837 1899.15,551.81 1965.2,517.277 2029.32,483.749 2095.06,449.379 2167.08,411.722 2271.71,357.019 2293.17,345.796 "/>
<polyline clip-path="url(#clip332)" style="stroke:#00a98d; stroke-linecap:round; stroke-linejoin:round; stroke-width:4; stroke-opacity:1; fill:none" points="307.043,1384.24 319.973,1376.63 439.537,1306.3 511.39,1264.04 572.141,1228.31 638.133,1189.49 698.972,1153.7 764.198,1115.34 839.768,1070.89 906.927,1031.38 965.818,996.744 1030.03,958.977 1094.62,920.986 1166.03,878.981 1233.97,839.015 1304.62,797.459 1364.09,762.478 1436.7,719.77 1503.21,680.647 1564.64,644.513 1626.87,607.912 1696.61,566.891 1759.8,529.72 1832.16,487.162 1899.15,447.756 1965.2,408.907 2029.32,371.188 2095.06,332.521 2167.08,290.157 2271.71,228.616 2293.17,215.991 "/>
<polyline clip-path="url(#clip332)" style="stroke:#8e971d; stroke-linecap:round; stroke-linejoin:round; stroke-width:4; stroke-opacity:1; fill:none" points="307.043,1384.24 319.973,1375.79 439.537,1297.65 511.39,1250.69 572.141,1210.98 638.133,1167.85 698.972,1128.09 764.198,1085.46 839.768,1036.07 906.927,992.179 965.818,953.69 1030.03,911.726 1094.62,869.513 1166.03,822.841 1233.97,778.434 1304.62,732.261 1364.09,693.393 1436.7,645.94 1503.21,602.47 1564.64,562.322 1626.87,521.653 1696.61,476.075 1759.8,434.773 1832.16,387.486 1899.15,343.703 1965.2,300.537 2029.32,258.627 2095.06,215.664 2167.08,168.592 2271.71,100.214 2293.17,86.1857 "/>
<path clip-path="url(#clip330)" d="M317.635 663.349 L639.09 663.349 L639.09 93.1086 L317.635 93.1086  Z" fill="#ffffff" fill-rule="evenodd" fill-opacity="1"/>
<polyline clip-path="url(#clip330)" style="stroke:#000000; stroke-linecap:round; stroke-linejoin:round; stroke-width:4; stroke-opacity:1; fill:none" points="317.635,663.349 639.09,663.349 639.09,93.1086 317.635,93.1086 317.635,663.349 "/>
<polyline clip-path="url(#clip330)" style="stroke:#009af9; stroke-linecap:round; stroke-linejoin:round; stroke-width:4; stroke-opacity:1; fill:none" points="341.027,144.949 481.381,144.949 "/>
<path clip-path="url(#clip330)" d="M510.097 136.303 L514.356 136.303 L514.356 162.692 Q514.356 167.645 512.458 169.867 Q510.583 172.09 506.393 172.09 L504.773 172.09 L504.773 168.479 L505.907 168.479 Q508.338 168.479 509.217 167.344 Q510.097 166.233 510.097 162.692 L510.097 136.303 M510.097 126.21 L514.356 126.21 L514.356 131.604 L510.097 131.604 L510.097 126.21 Z" fill="#000000" fill-rule="nonzero" fill-opacity="1" /><path clip-path="url(#clip330)" d="M523.824 140.701 L553.499 140.701 L553.499 144.59 L523.824 144.59 L523.824 140.701 M523.824 150.145 L553.499 150.145 L553.499 154.081 L523.824 154.081 L523.824 150.145 Z" fill="#000000" fill-rule="nonzero" fill-opacity="1" /><path clip-path="url(#clip330)" d="M564.402 158.293 L572.041 158.293 L572.041 131.928 L563.731 133.595 L563.731 129.335 L571.995 127.669 L576.671 127.669 L576.671 158.293 L584.309 158.293 L584.309 162.229 L564.402 162.229 L564.402 158.293 Z" fill="#000000" fill-rule="nonzero" fill-opacity="1" /><polyline clip-path="url(#clip330)" style="stroke:#e26f46; stroke-linecap:round; stroke-linejoin:round; stroke-width:4; stroke-opacity:1; fill:none" points="341.027,196.789 481.381,196.789 "/>
<path clip-path="url(#clip330)" d="M510.097 188.143 L514.356 188.143 L514.356 214.532 Q514.356 219.485 512.458 221.707 Q510.583 223.93 506.393 223.93 L504.773 223.93 L504.773 220.319 L505.907 220.319 Q508.338 220.319 509.217 219.184 Q510.097 218.073 510.097 214.532 L510.097 188.143 M510.097 178.05 L514.356 178.05 L514.356 183.444 L510.097 183.444 L510.097 178.05 Z" fill="#000000" fill-rule="nonzero" fill-opacity="1" /><path clip-path="url(#clip330)" d="M523.824 192.541 L553.499 192.541 L553.499 196.43 L523.824 196.43 L523.824 192.541 M523.824 201.985 L553.499 201.985 L553.499 205.921 L523.824 205.921 L523.824 201.985 Z" fill="#000000" fill-rule="nonzero" fill-opacity="1" /><path clip-path="url(#clip330)" d="M567.62 210.133 L583.939 210.133 L583.939 214.069 L561.995 214.069 L561.995 210.133 Q564.657 207.379 569.24 202.749 Q573.847 198.096 575.027 196.754 Q577.272 194.231 578.152 192.495 Q579.055 190.735 579.055 189.046 Q579.055 186.291 577.11 184.555 Q575.189 182.819 572.087 182.819 Q569.888 182.819 567.435 183.583 Q565.004 184.347 562.226 185.897 L562.226 181.175 Q565.05 180.041 567.504 179.462 Q569.958 178.884 571.995 178.884 Q577.365 178.884 580.559 181.569 Q583.754 184.254 583.754 188.745 Q583.754 190.874 582.944 192.796 Q582.157 194.694 580.05 197.286 Q579.471 197.958 576.37 201.175 Q573.268 204.37 567.62 210.133 Z" fill="#000000" fill-rule="nonzero" fill-opacity="1" /><polyline clip-path="url(#clip330)" style="stroke:#3da44d; stroke-linecap:round; stroke-linejoin:round; stroke-width:4; stroke-opacity:1; fill:none" points="341.027,248.629 481.381,248.629 "/>
<path clip-path="url(#clip330)" d="M510.097 239.983 L514.356 239.983 L514.356 266.372 Q514.356 271.325 512.458 273.547 Q510.583 275.77 506.393 275.77 L504.773 275.77 L504.773 272.159 L505.907 272.159 Q508.338 272.159 509.217 271.024 Q510.097 269.913 510.097 266.372 L510.097 239.983 M510.097 229.89 L514.356 229.89 L514.356 235.284 L510.097 235.284 L510.097 229.89 Z" fill="#000000" fill-rule="nonzero" fill-opacity="1" /><path clip-path="url(#clip330)" d="M523.824 244.381 L553.499 244.381 L553.499 248.27 L523.824 248.27 L523.824 244.381 M523.824 253.825 L553.499 253.825 L553.499 257.761 L523.824 257.761 L523.824 253.825 Z" fill="#000000" fill-rule="nonzero" fill-opacity="1" /><path clip-path="url(#clip330)" d="M577.759 247.274 Q581.115 247.992 582.99 250.261 Q584.888 252.529 584.888 255.862 Q584.888 260.978 581.37 263.779 Q577.851 266.58 571.37 266.58 Q569.194 266.58 566.879 266.14 Q564.587 265.723 562.134 264.867 L562.134 260.353 Q564.078 261.487 566.393 262.066 Q568.708 262.645 571.231 262.645 Q575.629 262.645 577.921 260.909 Q580.235 259.173 580.235 255.862 Q580.235 252.807 578.083 251.094 Q575.953 249.358 572.134 249.358 L568.106 249.358 L568.106 245.515 L572.319 245.515 Q575.768 245.515 577.596 244.149 Q579.425 242.761 579.425 240.168 Q579.425 237.506 577.527 236.094 Q575.652 234.659 572.134 234.659 Q570.212 234.659 568.013 235.075 Q565.814 235.492 563.175 236.372 L563.175 232.205 Q565.837 231.464 568.152 231.094 Q570.49 230.724 572.55 230.724 Q577.874 230.724 580.976 233.154 Q584.078 235.562 584.078 239.682 Q584.078 242.552 582.434 244.543 Q580.791 246.511 577.759 247.274 Z" fill="#000000" fill-rule="nonzero" fill-opacity="1" /><polyline clip-path="url(#clip330)" style="stroke:#c271d2; stroke-linecap:round; stroke-linejoin:round; stroke-width:4; stroke-opacity:1; fill:none" points="341.027,300.469 481.381,300.469 "/>
<path clip-path="url(#clip330)" d="M510.097 291.823 L514.356 291.823 L514.356 318.212 Q514.356 323.165 512.458 325.387 Q510.583 327.61 506.393 327.61 L504.773 327.61 L504.773 323.999 L505.907 323.999 Q508.338 323.999 509.217 322.864 Q510.097 321.753 510.097 318.212 L510.097 291.823 M510.097 281.73 L514.356 281.73 L514.356 287.124 L510.097 287.124 L510.097 281.73 Z" fill="#000000" fill-rule="nonzero" fill-opacity="1" /><path clip-path="url(#clip330)" d="M523.824 296.221 L553.499 296.221 L553.499 300.11 L523.824 300.11 L523.824 296.221 M523.824 305.665 L553.499 305.665 L553.499 309.601 L523.824 309.601 L523.824 305.665 Z" fill="#000000" fill-rule="nonzero" fill-opacity="1" /><path clip-path="url(#clip330)" d="M576.439 287.263 L564.634 305.712 L576.439 305.712 L576.439 287.263 M575.212 283.189 L581.092 283.189 L581.092 305.712 L586.022 305.712 L586.022 309.601 L581.092 309.601 L581.092 317.749 L576.439 317.749 L576.439 309.601 L560.837 309.601 L560.837 305.087 L575.212 283.189 Z" fill="#000000" fill-rule="nonzero" fill-opacity="1" /><polyline clip-path="url(#clip330)" style="stroke:#ac8d18; stroke-linecap:round; stroke-linejoin:round; stroke-width:4; stroke-opacity:1; fill:none" points="341.027,352.309 481.381,352.309 "/>
<path clip-path="url(#clip330)" d="M510.097 343.663 L514.356 343.663 L514.356 370.052 Q514.356 375.005 512.458 377.227 Q510.583 379.45 506.393 379.45 L504.773 379.45 L504.773 375.839 L505.907 375.839 Q508.338 375.839 509.217 374.704 Q510.097 373.593 510.097 370.052 L510.097 343.663 M510.097 333.57 L514.356 333.57 L514.356 338.964 L510.097 338.964 L510.097 333.57 Z" fill="#000000" fill-rule="nonzero" fill-opacity="1" /><path clip-path="url(#clip330)" d="M523.824 348.061 L553.499 348.061 L553.499 351.95 L523.824 351.95 L523.824 348.061 M523.824 357.505 L553.499 357.505 L553.499 361.441 L523.824 361.441 L523.824 357.505 Z" fill="#000000" fill-rule="nonzero" fill-opacity="1" /><path clip-path="url(#clip330)" d="M563.638 335.029 L581.995 335.029 L581.995 338.964 L567.921 338.964 L567.921 347.436 Q568.939 347.089 569.958 346.927 Q570.976 346.742 571.995 346.742 Q577.782 346.742 581.161 349.913 Q584.541 353.084 584.541 358.501 Q584.541 364.079 581.069 367.181 Q577.596 370.26 571.277 370.26 Q569.101 370.26 566.833 369.89 Q564.587 369.519 562.18 368.778 L562.18 364.079 Q564.263 365.214 566.485 365.769 Q568.708 366.325 571.184 366.325 Q575.189 366.325 577.527 364.218 Q579.865 362.112 579.865 358.501 Q579.865 354.89 577.527 352.783 Q575.189 350.677 571.184 350.677 Q569.31 350.677 567.435 351.093 Q565.583 351.51 563.638 352.39 L563.638 335.029 Z" fill="#000000" fill-rule="nonzero" fill-opacity="1" /><polyline clip-path="url(#clip330)" style="stroke:#00a9ad; stroke-linecap:round; stroke-linejoin:round; stroke-width:4; stroke-opacity:1; fill:none" points="341.027,404.149 481.381,404.149 "/>
<path clip-path="url(#clip330)" d="M510.097 395.503 L514.356 395.503 L514.356 421.892 Q514.356 426.845 512.458 429.067 Q510.583 431.29 506.393 431.29 L504.773 431.29 L504.773 427.679 L505.907 427.679 Q508.338 427.679 509.217 426.544 Q510.097 425.433 510.097 421.892 L510.097 395.503 M510.097 385.41 L514.356 385.41 L514.356 390.804 L510.097 390.804 L510.097 385.41 Z" fill="#000000" fill-rule="nonzero" fill-opacity="1" /><path clip-path="url(#clip330)" d="M523.824 399.901 L553.499 399.901 L553.499 403.79 L523.824 403.79 L523.824 399.901 M523.824 409.345 L553.499 409.345 L553.499 413.281 L523.824 413.281 L523.824 409.345 Z" fill="#000000" fill-rule="nonzero" fill-opacity="1" /><path clip-path="url(#clip330)" d="M574.171 402.285 Q571.022 402.285 569.171 404.438 Q567.342 406.591 567.342 410.341 Q567.342 414.068 569.171 416.243 Q571.022 418.396 574.171 418.396 Q577.319 418.396 579.147 416.243 Q580.999 414.068 580.999 410.341 Q580.999 406.591 579.147 404.438 Q577.319 402.285 574.171 402.285 M583.453 387.633 L583.453 391.892 Q581.694 391.058 579.888 390.619 Q578.106 390.179 576.347 390.179 Q571.717 390.179 569.263 393.304 Q566.833 396.429 566.485 402.748 Q567.851 400.734 569.911 399.669 Q571.972 398.582 574.448 398.582 Q579.657 398.582 582.666 401.753 Q585.698 404.901 585.698 410.341 Q585.698 415.665 582.55 418.882 Q579.402 422.1 574.171 422.1 Q568.175 422.1 565.004 417.517 Q561.833 412.91 561.833 404.183 Q561.833 395.989 565.722 391.128 Q569.61 386.244 576.161 386.244 Q577.921 386.244 579.703 386.591 Q581.509 386.938 583.453 387.633 Z" fill="#000000" fill-rule="nonzero" fill-opacity="1" /><polyline clip-path="url(#clip330)" style="stroke:#ed5d92; stroke-linecap:round; stroke-linejoin:round; stroke-width:4; stroke-opacity:1; fill:none" points="341.027,455.989 481.381,455.989 "/>
<path clip-path="url(#clip330)" d="M510.097 447.343 L514.356 447.343 L514.356 473.732 Q514.356 478.685 512.458 480.907 Q510.583 483.13 506.393 483.13 L504.773 483.13 L504.773 479.519 L505.907 479.519 Q508.338 479.519 509.217 478.384 Q510.097 477.273 510.097 473.732 L510.097 447.343 M510.097 437.25 L514.356 437.25 L514.356 442.644 L510.097 442.644 L510.097 437.25 Z" fill="#000000" fill-rule="nonzero" fill-opacity="1" /><path clip-path="url(#clip330)" d="M523.824 451.741 L553.499 451.741 L553.499 455.63 L523.824 455.63 L523.824 451.741 M523.824 461.185 L553.499 461.185 L553.499 465.121 L523.824 465.121 L523.824 461.185 Z" fill="#000000" fill-rule="nonzero" fill-opacity="1" /><path clip-path="url(#clip330)" d="M562.411 438.709 L584.633 438.709 L584.633 440.699 L572.087 473.269 L567.203 473.269 L579.009 442.644 L562.411 442.644 L562.411 438.709 Z" fill="#000000" fill-rule="nonzero" fill-opacity="1" /><polyline clip-path="url(#clip330)" style="stroke:#c68125; stroke-linecap:round; stroke-linejoin:round; stroke-width:4; stroke-opacity:1; fill:none" points="341.027,507.829 481.381,507.829 "/>
<path clip-path="url(#clip330)" d="M510.097 499.183 L514.356 499.183 L514.356 525.572 Q514.356 530.525 512.458 532.747 Q510.583 534.97 506.393 534.97 L504.773 534.97 L504.773 531.359 L505.907 531.359 Q508.338 531.359 509.217 530.224 Q510.097 529.113 510.097 525.572 L510.097 499.183 M510.097 489.09 L514.356 489.09 L514.356 494.484 L510.097 494.484 L510.097 489.09 Z" fill="#000000" fill-rule="nonzero" fill-opacity="1" /><path clip-path="url(#clip330)" d="M523.824 503.581 L553.499 503.581 L553.499 507.47 L523.824 507.47 L523.824 503.581 M523.824 513.025 L553.499 513.025 L553.499 516.961 L523.824 516.961 L523.824 513.025 Z" fill="#000000" fill-rule="nonzero" fill-opacity="1" /><path clip-path="url(#clip330)" d="M573.592 508.697 Q570.259 508.697 568.337 510.479 Q566.439 512.261 566.439 515.386 Q566.439 518.511 568.337 520.294 Q570.259 522.076 573.592 522.076 Q576.925 522.076 578.846 520.294 Q580.768 518.488 580.768 515.386 Q580.768 512.261 578.846 510.479 Q576.948 508.697 573.592 508.697 M568.916 506.706 Q565.907 505.965 564.217 503.905 Q562.55 501.845 562.55 498.882 Q562.55 494.738 565.49 492.331 Q568.453 489.924 573.592 489.924 Q578.754 489.924 581.694 492.331 Q584.633 494.738 584.633 498.882 Q584.633 501.845 582.944 503.905 Q581.277 505.965 578.291 506.706 Q581.671 507.493 583.546 509.785 Q585.444 512.076 585.444 515.386 Q585.444 520.41 582.365 523.095 Q579.309 525.78 573.592 525.78 Q567.874 525.78 564.796 523.095 Q561.74 520.41 561.74 515.386 Q561.74 512.076 563.638 509.785 Q565.536 507.493 568.916 506.706 M567.203 499.322 Q567.203 502.007 568.87 503.512 Q570.559 505.016 573.592 505.016 Q576.601 505.016 578.291 503.512 Q580.004 502.007 580.004 499.322 Q580.004 496.637 578.291 495.132 Q576.601 493.627 573.592 493.627 Q570.559 493.627 568.87 495.132 Q567.203 496.637 567.203 499.322 Z" fill="#000000" fill-rule="nonzero" fill-opacity="1" /><polyline clip-path="url(#clip330)" style="stroke:#00a98d; stroke-linecap:round; stroke-linejoin:round; stroke-width:4; stroke-opacity:1; fill:none" points="341.027,559.669 481.381,559.669 "/>
<path clip-path="url(#clip330)" d="M510.097 551.023 L514.356 551.023 L514.356 577.412 Q514.356 582.365 512.458 584.587 Q510.583 586.81 506.393 586.81 L504.773 586.81 L504.773 583.199 L505.907 583.199 Q508.338 583.199 509.217 582.064 Q510.097 580.953 510.097 577.412 L510.097 551.023 M510.097 540.93 L514.356 540.93 L514.356 546.324 L510.097 546.324 L510.097 540.93 Z" fill="#000000" fill-rule="nonzero" fill-opacity="1" /><path clip-path="url(#clip330)" d="M523.824 555.421 L553.499 555.421 L553.499 559.31 L523.824 559.31 L523.824 555.421 M523.824 564.865 L553.499 564.865 L553.499 568.801 L523.824 568.801 L523.824 564.865 Z" fill="#000000" fill-rule="nonzero" fill-opacity="1" /><path clip-path="url(#clip330)" d="M563.731 576.231 L563.731 571.972 Q565.49 572.805 567.296 573.245 Q569.101 573.685 570.837 573.685 Q575.467 573.685 577.897 570.583 Q580.351 567.458 580.698 561.115 Q579.356 563.106 577.296 564.171 Q575.235 565.236 572.735 565.236 Q567.55 565.236 564.518 562.111 Q561.509 558.963 561.509 553.523 Q561.509 548.199 564.657 544.981 Q567.805 541.764 573.036 541.764 Q579.032 541.764 582.18 546.37 Q585.351 550.953 585.351 559.703 Q585.351 567.875 581.462 572.759 Q577.596 577.62 571.046 577.62 Q569.286 577.62 567.481 577.273 Q565.675 576.925 563.731 576.231 M573.036 561.578 Q576.184 561.578 578.013 559.426 Q579.865 557.273 579.865 553.523 Q579.865 549.796 578.013 547.643 Q576.184 545.467 573.036 545.467 Q569.888 545.467 568.036 547.643 Q566.208 549.796 566.208 553.523 Q566.208 557.273 568.036 559.426 Q569.888 561.578 573.036 561.578 Z" fill="#000000" fill-rule="nonzero" fill-opacity="1" /><polyline clip-path="url(#clip330)" style="stroke:#8e971d; stroke-linecap:round; stroke-linejoin:round; stroke-width:4; stroke-opacity:1; fill:none" points="341.027,611.509 481.381,611.509 "/>
<path clip-path="url(#clip330)" d="M510.097 602.863 L514.356 602.863 L514.356 629.252 Q514.356 634.205 512.458 636.427 Q510.583 638.65 506.393 638.65 L504.773 638.65 L504.773 635.039 L505.907 635.039 Q508.338 635.039 509.217 633.904 Q510.097 632.793 510.097 629.252 L510.097 602.863 M510.097 592.77 L514.356 592.77 L514.356 598.164 L510.097 598.164 L510.097 592.77 Z" fill="#000000" fill-rule="nonzero" fill-opacity="1" /><path clip-path="url(#clip330)" d="M523.824 607.261 L553.499 607.261 L553.499 611.15 L523.824 611.15 L523.824 607.261 M523.824 616.705 L553.499 616.705 L553.499 620.641 L523.824 620.641 L523.824 616.705 Z" fill="#000000" fill-rule="nonzero" fill-opacity="1" /><path clip-path="url(#clip330)" d="M564.402 624.853 L572.041 624.853 L572.041 598.488 L563.731 600.155 L563.731 595.895 L571.995 594.229 L576.671 594.229 L576.671 624.853 L584.309 624.853 L584.309 628.789 L564.402 628.789 L564.402 624.853 Z" fill="#000000" fill-rule="nonzero" fill-opacity="1" /><path clip-path="url(#clip330)" d="M603.754 597.307 Q600.143 597.307 598.314 600.872 Q596.508 604.414 596.508 611.543 Q596.508 618.65 598.314 622.215 Q600.143 625.756 603.754 625.756 Q607.388 625.756 609.194 622.215 Q611.022 618.65 611.022 611.543 Q611.022 604.414 609.194 600.872 Q607.388 597.307 603.754 597.307 M603.754 593.604 Q609.564 593.604 612.619 598.21 Q615.698 602.793 615.698 611.543 Q615.698 620.27 612.619 624.877 Q609.564 629.46 603.754 629.46 Q597.944 629.46 594.865 624.877 Q591.809 620.27 591.809 611.543 Q591.809 602.793 594.865 598.21 Q597.944 593.604 603.754 593.604 Z" fill="#000000" fill-rule="nonzero" fill-opacity="1" /></svg>