<?xml version="1.0" encoding="utf-8"?>
<svg xmlns="http://www.w3.org/2000/svg" xmlns:xlink="http://www.w3.org/1999/xlink" width="600" height="400" viewBox="0 0 2400 1600">
<defs>
  <clipPath id="clip100">
    <rect x="0" y="0" width="2400" height="1600"/>
  </clipPath>
</defs>
<path clip-path="url(#clip100)" d="M0 1600 L2400 1600 L2400 0 L0 0  Z" fill="#ffffff" fill-rule="evenodd" fill-opacity="1"/>
<defs>
  <clipPath id="clip101">
    <rect x="480" y="0" width="1681" height="1600"/>
  </clipPath>
</defs>
<path clip-path="url(#clip100)" d="M369.703 1423.18 L2352.76 1423.18 L2352.76 47.2441 L369.703 47.2441  Z" fill="#ffffff" fill-rule="evenodd" fill-opacity="1"/>
<defs>
  <clipPath id="clip102">
    <rect x="369" y="47" width="1984" height="1377"/>
  </clipPath>
</defs>
<polyline clip-path="url(#clip102)" style="stroke:#000000; stroke-linecap:round; stroke-linejoin:round; stroke-width:2; stroke-opacity:0.1; fill:none" points="425.828,1423.18 425.828,47.2441 "/>
<polyline clip-path="url(#clip102)" style="stroke:#000000; stroke-linecap:round; stroke-linejoin:round; stroke-width:2; stroke-opacity:0.1; fill:none" points="893.529,1423.18 893.529,47.2441 "/>
<polyline clip-path="url(#clip102)" style="stroke:#000000; stroke-linecap:round; stroke-linejoin:round; stroke-width:2; stroke-opacity:0.1; fill:none" points="1361.23,1423.18 1361.23,47.2441 "/>
<polyline clip-path="url(#clip102)" style="stroke:#000000; stroke-linecap:round; stroke-linejoin:round; stroke-width:2; stroke-opacity:0.1; fill:none" points="1828.93,1423.18 1828.93,47.2441 "/>
<polyline clip-path="url(#clip102)" style="stroke:#000000; stroke-linecap:round; stroke-linejoin:round; stroke-width:2; stroke-opacity:0.1; fill:none" points="2296.63,1423.18 2296.63,47.2441 "/>
<polyline clip-path="url(#clip100)" style="stroke:#000000; stroke-linecap:round; stroke-linejoin:round; stroke-width:4; stroke-opacity:1; fill:none" points="369.703,1423.18 2352.76,1423.18 "/>
<polyline clip-path="url(#clip100)" style="stroke:#000000; stroke-linecap:round; stroke-linejoin:round; stroke-width:4; stroke-opacity:1; fill:none" points="425.828,1423.18 425.828,1404.28 "/>
<polyline clip-path="url(#clip100)" style="stroke:#000000; stroke-linecap:round; stroke-linejoin:round; stroke-width:4; stroke-opacity:1; fill:none" points="893.529,1423.18 893.529,1404.28 "/>
<polyline clip-path="url(#clip100)" style="stroke:#000000; stroke-linecap:round; stroke-linejoin:round; stroke-width:4; stroke-opacity:1; fill:none" points="1361.23,1423.18 1361.23,1404.28 "/>
<polyline clip-path="url(#clip100)" style="stroke:#000000; stroke-linecap:round; stroke-linejoin:round; stroke-width:4; stroke-opacity:1; fill:none" points="1828.93,1423.18 1828.93,1404.28 "/>
<polyline clip-path="url(#clip100)" style="stroke:#000000; stroke-linecap:round; stroke-linejoin:round; stroke-width:4; stroke-opacity:1; fill:none" points="2296.63,1423.18 2296.63,1404.28 "/>
<path clip-path="url(#clip100)" d="M342.888 1454.1 Q339.277 1454.1 337.448 1457.66 Q335.643 1461.2 335.643 1468.33 Q335.643 1475.44 337.448 1479.01 Q339.277 1482.55 342.888 1482.55 Q346.522 1482.55 348.328 1479.01 Q350.157 1475.44 350.157 1468.33 Q350.157 1461.2 348.328 1457.66 Q346.522 1454.1 342.888 1454.1 M342.888 1450.39 Q348.698 1450.39 351.754 1455 Q354.833 1459.58 354.833 1468.33 Q354.833 1477.06 351.754 1481.67 Q348.698 1486.25 342.888 1486.25 Q337.078 1486.25 333.999 1481.67 Q330.944 1477.06 330.944 1468.33 Q330.944 1459.58 333.999 1455 Q337.078 1450.39 342.888 1450.39 Z" fill="#000000" fill-rule="nonzero" fill-opacity="1" /><path clip-path="url(#clip100)" d="M363.05 1479.7 L367.934 1479.7 L367.934 1485.58 L363.05 1485.58 L363.05 1479.7 Z" fill="#000000" fill-rule="nonzero" fill-opacity="1" /><path clip-path="url(#clip100)" d="M388.119 1454.1 Q384.508 1454.1 382.68 1457.66 Q380.874 1461.2 380.874 1468.33 Q380.874 1475.44 382.68 1479.01 Q384.508 1482.55 388.119 1482.55 Q391.754 1482.55 393.559 1479.01 Q395.388 1475.44 395.388 1468.33 Q395.388 1461.2 393.559 1457.66 Q391.754 1454.1 388.119 1454.1 M388.119 1450.39 Q393.93 1450.39 396.985 1455 Q400.064 1459.58 400.064 1468.33 Q400.064 1477.06 396.985 1481.67 Q393.93 1486.25 388.119 1486.25 Q382.309 1486.25 379.231 1481.67 Q376.175 1477.06 376.175 1468.33 Q376.175 1459.58 379.231 1455 Q382.309 1450.39 388.119 1450.39 Z" fill="#000000" fill-rule="nonzero" fill-opacity="1" /><path clip-path="url(#clip100)" d="M418.281 1454.1 Q414.67 1454.1 412.842 1457.66 Q411.036 1461.2 411.036 1468.33 Q411.036 1475.44 412.842 1479.01 Q414.67 1482.55 418.281 1482.55 Q421.916 1482.55 423.721 1479.01 Q425.55 1475.44 425.55 1468.33 Q425.55 1461.2 423.721 1457.66 Q421.916 1454.1 418.281 1454.1 M418.281 1450.39 Q424.091 1450.39 427.147 1455 Q430.226 1459.58 430.226 1468.33 Q430.226 1477.06 427.147 1481.67 Q424.091 1486.25 418.281 1486.25 Q412.471 1486.25 409.392 1481.67 Q406.337 1477.06 406.337 1468.33 Q406.337 1459.58 409.392 1455 Q412.471 1450.39 418.281 1450.39 Z" fill="#000000" fill-rule="nonzero" fill-opacity="1" /><path clip-path="url(#clip100)" d="M448.443 1454.1 Q444.832 1454.1 443.003 1457.66 Q441.198 1461.2 441.198 1468.33 Q441.198 1475.44 443.003 1479.01 Q444.832 1482.55 448.443 1482.55 Q452.077 1482.55 453.883 1479.01 Q455.712 1475.44 455.712 1468.33 Q455.712 1461.2 453.883 1457.66 Q452.077 1454.1 448.443 1454.1 M448.443 1450.39 Q454.253 1450.39 457.309 1455 Q460.388 1459.58 460.388 1468.33 Q460.388 1477.06 457.309 1481.67 Q454.253 1486.25 448.443 1486.25 Q442.633 1486.25 439.554 1481.67 Q436.499 1477.06 436.499 1468.33 Q436.499 1459.58 439.554 1455 Q442.633 1450.39 448.443 1450.39 Z" fill="#000000" fill-rule="nonzero" fill-opacity="1" /><path clip-path="url(#clip100)" d="M478.605 1454.1 Q474.994 1454.1 473.165 1457.66 Q471.36 1461.2 471.36 1468.33 Q471.36 1475.44 473.165 1479.01 Q474.994 1482.55 478.605 1482.55 Q482.239 1482.55 484.045 1479.01 Q485.874 1475.44 485.874 1468.33 Q485.874 1461.2 484.045 1457.66 Q482.239 1454.1 478.605 1454.1 M478.605 1450.39 Q484.415 1450.39 487.471 1455 Q490.549 1459.58 490.549 1468.33 Q490.549 1477.06 487.471 1481.67 Q484.415 1486.25 478.605 1486.25 Q472.795 1486.25 469.716 1481.67 Q466.661 1477.06 466.661 1468.33 Q466.661 1459.58 469.716 1455 Q472.795 1450.39 478.605 1450.39 Z" fill="#000000" fill-rule="nonzero" fill-opacity="1" /><path clip-path="url(#clip100)" d="M508.767 1454.1 Q505.156 1454.1 503.327 1457.66 Q501.522 1461.2 501.522 1468.33 Q501.522 1475.44 503.327 1479.01 Q505.156 1482.55 508.767 1482.55 Q512.401 1482.55 514.207 1479.01 Q516.035 1475.44 516.035 1468.33 Q516.035 1461.2 514.207 1457.66 Q512.401 1454.1 508.767 1454.1 M508.767 1450.39 Q514.577 1450.39 517.633 1455 Q520.711 1459.58 520.711 1468.33 Q520.711 1477.06 517.633 1481.67 Q514.577 1486.25 508.767 1486.25 Q502.957 1486.25 499.878 1481.67 Q496.823 1477.06 496.823 1468.33 Q496.823 1459.58 499.878 1455 Q502.957 1450.39 508.767 1450.39 Z" fill="#000000" fill-rule="nonzero" fill-opacity="1" /><path clip-path="url(#clip100)" d="M811.087 1454.1 Q807.476 1454.1 805.647 1457.66 Q803.842 1461.2 803.842 1468.33 Q803.842 1475.44 805.647 1479.01 Q807.476 1482.55 811.087 1482.55 Q814.721 1482.55 816.527 1479.01 Q818.355 1475.44 818.355 1468.33 Q818.355 1461.2 816.527 1457.66 Q814.721 1454.1 811.087 1454.1 M811.087 1450.39 Q816.897 1450.39 819.953 1455 Q823.031 1459.58 823.031 1468.33 Q823.031 1477.06 819.953 1481.67 Q816.897 1486.25 811.087 1486.25 Q805.277 1486.25 802.198 1481.67 Q799.143 1477.06 799.143 1468.33 Q799.143 1459.58 802.198 1455 Q805.277 1450.39 811.087 1450.39 Z" fill="#000000" fill-rule="nonzero" fill-opacity="1" /><path clip-path="url(#clip100)" d="M831.249 1479.7 L836.133 1479.7 L836.133 1485.58 L831.249 1485.58 L831.249 1479.7 Z" fill="#000000" fill-rule="nonzero" fill-opacity="1" /><path clip-path="url(#clip100)" d="M856.318 1454.1 Q852.707 1454.1 850.878 1457.66 Q849.073 1461.2 849.073 1468.33 Q849.073 1475.44 850.878 1479.01 Q852.707 1482.55 856.318 1482.55 Q859.952 1482.55 861.758 1479.01 Q863.587 1475.44 863.587 1468.33 Q863.587 1461.2 861.758 1457.66 Q859.952 1454.1 856.318 1454.1 M856.318 1450.39 Q862.128 1450.39 865.184 1455 Q868.263 1459.58 868.263 1468.33 Q868.263 1477.06 865.184 1481.67 Q862.128 1486.25 856.318 1486.25 Q850.508 1486.25 847.429 1481.67 Q844.374 1477.06 844.374 1468.33 Q844.374 1459.58 847.429 1455 Q850.508 1450.39 856.318 1450.39 Z" fill="#000000" fill-rule="nonzero" fill-opacity="1" /><path clip-path="url(#clip100)" d="M886.48 1454.1 Q882.869 1454.1 881.04 1457.66 Q879.235 1461.2 879.235 1468.33 Q879.235 1475.44 881.04 1479.01 Q882.869 1482.55 886.48 1482.55 Q890.114 1482.55 891.92 1479.01 Q893.749 1475.44 893.749 1468.33 Q893.749 1461.2 891.92 1457.66 Q890.114 1454.1 886.48 1454.1 M886.48 1450.39 Q892.29 1450.39 895.346 1455 Q898.424 1459.58 898.424 1468.33 Q898.424 1477.06 895.346 1481.67 Q892.29 1486.25 886.48 1486.25 Q880.67 1486.25 877.591 1481.67 Q874.536 1477.06 874.536 1468.33 Q874.536 1459.58 877.591 1455 Q880.67 1450.39 886.48 1450.39 Z" fill="#000000" fill-rule="nonzero" fill-opacity="1" /><path clip-path="url(#clip100)" d="M916.642 1454.1 Q913.031 1454.1 911.202 1457.66 Q909.397 1461.2 909.397 1468.33 Q909.397 1475.44 911.202 1479.01 Q913.031 1482.55 916.642 1482.55 Q920.276 1482.55 922.082 1479.01 Q923.91 1475.44 923.91 1468.33 Q923.91 1461.2 922.082 1457.66 Q920.276 1454.1 916.642 1454.1 M916.642 1450.39 Q922.452 1450.39 925.508 1455 Q928.586 1459.58 928.586 1468.33 Q928.586 1477.06 925.508 1481.67 Q922.452 1486.25 916.642 1486.25 Q910.832 1486.25 907.753 1481.67 Q904.698 1477.06 904.698 1468.33 Q904.698 1459.58 907.753 1455 Q910.832 1450.39 916.642 1450.39 Z" fill="#000000" fill-rule="nonzero" fill-opacity="1" /><path clip-path="url(#clip100)" d="M940.832 1481.64 L957.151 1481.64 L957.151 1485.58 L935.207 1485.58 L935.207 1481.64 Q937.869 1478.89 942.452 1474.26 Q947.058 1469.61 948.239 1468.27 Q950.484 1465.74 951.364 1464.01 Q952.267 1462.25 952.267 1460.56 Q952.267 1457.8 950.322 1456.07 Q948.401 1454.33 945.299 1454.33 Q943.1 1454.33 940.646 1455.09 Q938.216 1455.86 935.438 1457.41 L935.438 1452.69 Q938.262 1451.55 940.716 1450.97 Q943.17 1450.39 945.207 1450.39 Q950.577 1450.39 953.771 1453.08 Q956.966 1455.77 956.966 1460.26 Q956.966 1462.39 956.156 1464.31 Q955.369 1466.2 953.262 1468.8 Q952.683 1469.47 949.582 1472.69 Q946.48 1475.88 940.832 1481.64 Z" fill="#000000" fill-rule="nonzero" fill-opacity="1" /><path clip-path="url(#clip100)" d="M967.012 1451.02 L985.368 1451.02 L985.368 1454.96 L971.294 1454.96 L971.294 1463.43 Q972.313 1463.08 973.331 1462.92 Q974.35 1462.73 975.368 1462.73 Q981.155 1462.73 984.535 1465.9 Q987.915 1469.08 987.915 1474.49 Q987.915 1480.07 984.442 1483.17 Q980.97 1486.25 974.651 1486.25 Q972.475 1486.25 970.206 1485.88 Q967.961 1485.51 965.554 1484.77 L965.554 1480.07 Q967.637 1481.2 969.859 1481.76 Q972.081 1482.32 974.558 1482.32 Q978.563 1482.32 980.901 1480.21 Q983.239 1478.1 983.239 1474.49 Q983.239 1470.88 980.901 1468.77 Q978.563 1466.67 974.558 1466.67 Q972.683 1466.67 970.808 1467.08 Q968.956 1467.5 967.012 1468.38 L967.012 1451.02 Z" fill="#000000" fill-rule="nonzero" fill-opacity="1" /><path clip-path="url(#clip100)" d="M1278.29 1454.1 Q1274.68 1454.1 1272.85 1457.66 Q1271.04 1461.2 1271.04 1468.33 Q1271.04 1475.44 1272.85 1479.01 Q1274.68 1482.55 1278.29 1482.55 Q1281.92 1482.55 1283.73 1479.01 Q1285.56 1475.44 1285.56 1468.33 Q1285.56 1461.2 1283.73 1457.66 Q1281.92 1454.1 1278.29 1454.1 M1278.29 1450.39 Q1284.1 1450.39 1287.16 1455 Q1290.23 1459.58 1290.23 1468.33 Q1290.23 1477.06 1287.16 1481.67 Q1284.1 1486.25 1278.29 1486.25 Q1272.48 1486.25 1269.4 1481.67 Q1266.35 1477.06 1266.35 1468.33 Q1266.35 1459.58 1269.4 1455 Q1272.48 1450.39 1278.29 1450.39 Z" fill="#000000" fill-rule="nonzero" fill-opacity="1" /><path clip-path="url(#clip100)" d="M1298.45 1479.7 L1303.34 1479.7 L1303.34 1485.58 L1298.45 1485.58 L1298.45 1479.7 Z" fill="#000000" fill-rule="nonzero" fill-opacity="1" /><path clip-path="url(#clip100)" d="M1323.52 1454.1 Q1319.91 1454.1 1318.08 1457.66 Q1316.28 1461.2 1316.28 1468.33 Q1316.28 1475.44 1318.08 1479.01 Q1319.91 1482.55 1323.52 1482.55 Q1327.16 1482.55 1328.96 1479.01 Q1330.79 1475.44 1330.79 1468.33 Q1330.79 1461.2 1328.96 1457.66 Q1327.16 1454.1 1323.52 1454.1 M1323.52 1450.39 Q1329.33 1450.39 1332.39 1455 Q1335.47 1459.58 1335.47 1468.33 Q1335.47 1477.06 1332.39 1481.67 Q1329.33 1486.25 1323.52 1486.25 Q1317.71 1486.25 1314.63 1481.67 Q1311.58 1477.06 1311.58 1468.33 Q1311.58 1459.58 1314.63 1455 Q1317.71 1450.39 1323.52 1450.39 Z" fill="#000000" fill-rule="nonzero" fill-opacity="1" /><path clip-path="url(#clip100)" d="M1353.68 1454.1 Q1350.07 1454.1 1348.24 1457.66 Q1346.44 1461.2 1346.44 1468.33 Q1346.44 1475.44 1348.24 1479.01 Q1350.07 1482.55 1353.68 1482.55 Q1357.32 1482.55 1359.12 1479.01 Q1360.95 1475.44 1360.95 1468.33 Q1360.95 1461.2 1359.12 1457.66 Q1357.32 1454.1 1353.68 1454.1 M1353.68 1450.39 Q1359.49 1450.39 1362.55 1455 Q1365.63 1459.58 1365.63 1468.33 Q1365.63 1477.06 1362.55 1481.67 Q1359.49 1486.25 1353.68 1486.25 Q1347.87 1486.25 1344.79 1481.67 Q1341.74 1477.06 1341.74 1468.33 Q1341.74 1459.58 1344.79 1455 Q1347.87 1450.39 1353.68 1450.39 Z" fill="#000000" fill-rule="nonzero" fill-opacity="1" /><path clip-path="url(#clip100)" d="M1383.85 1454.1 Q1380.23 1454.1 1378.41 1457.66 Q1376.6 1461.2 1376.6 1468.33 Q1376.6 1475.44 1378.41 1479.01 Q1380.23 1482.55 1383.85 1482.55 Q1387.48 1482.55 1389.29 1479.01 Q1391.11 1475.44 1391.11 1468.33 Q1391.11 1461.2 1389.29 1457.66 Q1387.48 1454.1 1383.85 1454.1 M1383.85 1450.39 Q1389.66 1450.39 1392.71 1455 Q1395.79 1459.58 1395.79 1468.33 Q1395.79 1477.06 1392.71 1481.67 Q1389.66 1486.25 1383.85 1486.25 Q1378.04 1486.25 1374.96 1481.67 Q1371.9 1477.06 1371.9 1468.33 Q1371.9 1459.58 1374.96 1455 Q1378.04 1450.39 1383.85 1450.39 Z" fill="#000000" fill-rule="nonzero" fill-opacity="1" /><path clip-path="url(#clip100)" d="M1404.05 1451.02 L1422.41 1451.02 L1422.41 1454.96 L1408.34 1454.96 L1408.34 1463.43 Q1409.35 1463.08 1410.37 1462.92 Q1411.39 1462.73 1412.41 1462.73 Q1418.2 1462.73 1421.58 1465.9 Q1424.96 1469.08 1424.96 1474.49 Q1424.96 1480.07 1421.48 1483.17 Q1418.01 1486.25 1411.69 1486.25 Q1409.52 1486.25 1407.25 1485.88 Q1405 1485.51 1402.6 1484.77 L1402.6 1480.07 Q1404.68 1481.2 1406.9 1481.76 Q1409.12 1482.32 1411.6 1482.32 Q1415.6 1482.32 1417.94 1480.21 Q1420.28 1478.1 1420.28 1474.49 Q1420.28 1470.88 1417.94 1468.77 Q1415.6 1466.67 1411.6 1466.67 Q1409.72 1466.67 1407.85 1467.08 Q1406 1467.5 1404.05 1468.38 L1404.05 1451.02 Z" fill="#000000" fill-rule="nonzero" fill-opacity="1" /><path clip-path="url(#clip100)" d="M1444.17 1454.1 Q1440.56 1454.1 1438.73 1457.66 Q1436.92 1461.2 1436.92 1468.33 Q1436.92 1475.44 1438.73 1479.01 Q1440.56 1482.55 1444.17 1482.55 Q1447.8 1482.55 1449.61 1479.01 Q1451.44 1475.44 1451.44 1468.33 Q1451.44 1461.2 1449.61 1457.66 Q1447.8 1454.1 1444.17 1454.1 M1444.17 1450.39 Q1449.98 1450.39 1453.03 1455 Q1456.11 1459.58 1456.11 1468.33 Q1456.11 1477.06 1453.03 1481.67 Q1449.98 1486.25 1444.17 1486.25 Q1438.36 1486.25 1435.28 1481.67 Q1432.22 1477.06 1432.22 1468.33 Q1432.22 1459.58 1435.28 1455 Q1438.36 1450.39 1444.17 1450.39 Z" fill="#000000" fill-rule="nonzero" fill-opacity="1" /><path clip-path="url(#clip100)" d="M1746.49 1454.1 Q1742.88 1454.1 1741.05 1457.66 Q1739.24 1461.2 1739.24 1468.33 Q1739.24 1475.44 1741.05 1479.01 Q1742.88 1482.55 1746.49 1482.55 Q1750.12 1482.55 1751.93 1479.01 Q1753.76 1475.44 1753.76 1468.33 Q1753.76 1461.2 1751.93 1457.66 Q1750.12 1454.1 1746.49 1454.1 M1746.49 1450.39 Q1752.3 1450.39 1755.35 1455 Q1758.43 1459.58 1758.43 1468.33 Q1758.43 1477.06 1755.35 1481.67 Q1752.3 1486.25 1746.49 1486.25 Q1740.68 1486.25 1737.6 1481.67 Q1734.54 1477.06 1734.54 1468.33 Q1734.54 1459.58 1737.6 1455 Q1740.68 1450.39 1746.49 1450.39 Z" fill="#000000" fill-rule="nonzero" fill-opacity="1" /><path clip-path="url(#clip100)" d="M1766.65 1479.7 L1771.54 1479.7 L1771.54 1485.58 L1766.65 1485.58 L1766.65 1479.7 Z" fill="#000000" fill-rule="nonzero" fill-opacity="1" /><path clip-path="url(#clip100)" d="M1791.72 1454.1 Q1788.11 1454.1 1786.28 1457.66 Q1784.47 1461.2 1784.47 1468.33 Q1784.47 1475.44 1786.28 1479.01 Q1788.11 1482.55 1791.72 1482.55 Q1795.35 1482.55 1797.16 1479.01 Q1798.99 1475.44 1798.99 1468.33 Q1798.99 1461.2 1797.16 1457.66 Q1795.35 1454.1 1791.72 1454.1 M1791.72 1450.39 Q1797.53 1450.39 1800.59 1455 Q1803.66 1459.58 1803.66 1468.33 Q1803.66 1477.06 1800.59 1481.67 Q1797.53 1486.25 1791.72 1486.25 Q1785.91 1486.25 1782.83 1481.67 Q1779.78 1477.06 1779.78 1468.33 Q1779.78 1459.58 1782.83 1455 Q1785.91 1450.39 1791.72 1450.39 Z" fill="#000000" fill-rule="nonzero" fill-opacity="1" /><path clip-path="url(#clip100)" d="M1821.88 1454.1 Q1818.27 1454.1 1816.44 1457.66 Q1814.64 1461.2 1814.64 1468.33 Q1814.64 1475.44 1816.44 1479.01 Q1818.27 1482.55 1821.88 1482.55 Q1825.52 1482.55 1827.32 1479.01 Q1829.15 1475.44 1829.15 1468.33 Q1829.15 1461.2 1827.32 1457.66 Q1825.52 1454.1 1821.88 1454.1 M1821.88 1450.39 Q1827.69 1450.39 1830.75 1455 Q1833.83 1459.58 1833.83 1468.33 Q1833.83 1477.06 1830.75 1481.67 Q1827.69 1486.25 1821.88 1486.25 Q1816.07 1486.25 1812.99 1481.67 Q1809.94 1477.06 1809.94 1468.33 Q1809.94 1459.58 1812.99 1455 Q1816.07 1450.39 1821.88 1450.39 Z" fill="#000000" fill-rule="nonzero" fill-opacity="1" /><path clip-path="url(#clip100)" d="M1852.04 1454.1 Q1848.43 1454.1 1846.6 1457.66 Q1844.8 1461.2 1844.8 1468.33 Q1844.8 1475.44 1846.6 1479.01 Q1848.43 1482.55 1852.04 1482.55 Q1855.68 1482.55 1857.48 1479.01 Q1859.31 1475.44 1859.31 1468.33 Q1859.31 1461.2 1857.48 1457.66 Q1855.68 1454.1 1852.04 1454.1 M1852.04 1450.39 Q1857.85 1450.39 1860.91 1455 Q1863.99 1459.58 1863.99 1468.33 Q1863.99 1477.06 1860.91 1481.67 Q1857.85 1486.25 1852.04 1486.25 Q1846.23 1486.25 1843.16 1481.67 Q1840.1 1477.06 1840.1 1468.33 Q1840.1 1459.58 1843.16 1455 Q1846.23 1450.39 1852.04 1450.39 Z" fill="#000000" fill-rule="nonzero" fill-opacity="1" /><path clip-path="url(#clip100)" d="M1871.03 1451.02 L1893.25 1451.02 L1893.25 1453.01 L1880.7 1485.58 L1875.82 1485.58 L1887.62 1454.96 L1871.03 1454.96 L1871.03 1451.02 Z" fill="#000000" fill-rule="nonzero" fill-opacity="1" /><path clip-path="url(#clip100)" d="M1902.41 1451.02 L1920.77 1451.02 L1920.77 1454.96 L1906.7 1454.96 L1906.7 1463.43 Q1907.72 1463.08 1908.73 1462.92 Q1909.75 1462.73 1910.77 1462.73 Q1916.56 1462.73 1919.94 1465.9 Q1923.32 1469.08 1923.32 1474.49 Q1923.32 1480.07 1919.84 1483.17 Q1916.37 1486.25 1910.05 1486.25 Q1907.88 1486.25 1905.61 1485.88 Q1903.36 1485.51 1900.96 1484.77 L1900.96 1480.07 Q1903.04 1481.2 1905.26 1481.76 Q1907.48 1482.32 1909.96 1482.32 Q1913.96 1482.32 1916.3 1480.21 Q1918.64 1478.1 1918.64 1474.49 Q1918.64 1470.88 1916.3 1468.77 Q1913.96 1466.67 1909.96 1466.67 Q1908.09 1466.67 1906.21 1467.08 Q1904.36 1467.5 1902.41 1468.38 L1902.41 1451.02 Z" fill="#000000" fill-rule="nonzero" fill-opacity="1" /><path clip-path="url(#clip100)" d="M2213.69 1454.1 Q2210.08 1454.1 2208.25 1457.66 Q2206.45 1461.2 2206.45 1468.33 Q2206.45 1475.44 2208.25 1479.01 Q2210.08 1482.55 2213.69 1482.55 Q2217.33 1482.55 2219.13 1479.01 Q2220.96 1475.44 2220.96 1468.33 Q2220.96 1461.2 2219.13 1457.66 Q2217.33 1454.1 2213.69 1454.1 M2213.69 1450.39 Q2219.5 1450.39 2222.56 1455 Q2225.64 1459.58 2225.64 1468.33 Q2225.64 1477.06 2222.56 1481.67 Q2219.5 1486.25 2213.69 1486.25 Q2207.88 1486.25 2204.8 1481.67 Q2201.75 1477.06 2201.75 1468.33 Q2201.75 1459.58 2204.8 1455 Q2207.88 1450.39 2213.69 1450.39 Z" fill="#000000" fill-rule="nonzero" fill-opacity="1" /><path clip-path="url(#clip100)" d="M2233.85 1479.7 L2238.74 1479.7 L2238.74 1485.58 L2233.85 1485.58 L2233.85 1479.7 Z" fill="#000000" fill-rule="nonzero" fill-opacity="1" /><path clip-path="url(#clip100)" d="M2258.92 1454.1 Q2255.31 1454.1 2253.48 1457.66 Q2251.68 1461.2 2251.68 1468.33 Q2251.68 1475.44 2253.48 1479.01 Q2255.31 1482.55 2258.92 1482.55 Q2262.56 1482.55 2264.36 1479.01 Q2266.19 1475.44 2266.19 1468.33 Q2266.19 1461.2 2264.36 1457.66 Q2262.56 1454.1 2258.92 1454.1 M2258.92 1450.39 Q2264.73 1450.39 2267.79 1455 Q2270.87 1459.58 2270.87 1468.33 Q2270.87 1477.06 2267.79 1481.67 Q2264.73 1486.25 2258.92 1486.25 Q2253.11 1486.25 2250.03 1481.67 Q2246.98 1477.06 2246.98 1468.33 Q2246.98 1459.58 2250.03 1455 Q2253.11 1450.39 2258.92 1450.39 Z" fill="#000000" fill-rule="nonzero" fill-opacity="1" /><path clip-path="url(#clip100)" d="M2289.09 1454.1 Q2285.47 1454.1 2283.65 1457.66 Q2281.84 1461.2 2281.84 1468.33 Q2281.84 1475.44 2283.65 1479.01 Q2285.47 1482.55 2289.09 1482.55 Q2292.72 1482.55 2294.53 1479.01 Q2296.35 1475.44 2296.35 1468.33 Q2296.35 1461.2 2294.53 1457.66 Q2292.72 1454.1 2289.09 1454.1 M2289.09 1450.39 Q2294.9 1450.39 2297.95 1455 Q2301.03 1459.58 2301.03 1468.33 Q2301.03 1477.06 2297.95 1481.67 Q2294.9 1486.25 2289.09 1486.25 Q2283.28 1486.25 2280.2 1481.67 Q2277.14 1477.06 2277.14 1468.33 Q2277.14 1459.58 2280.2 1455 Q2283.28 1450.39 2289.09 1450.39 Z" fill="#000000" fill-rule="nonzero" fill-opacity="1" /><path clip-path="url(#clip100)" d="M2310.06 1481.64 L2317.7 1481.64 L2317.7 1455.28 L2309.39 1456.95 L2309.39 1452.69 L2317.65 1451.02 L2322.33 1451.02 L2322.33 1481.64 L2329.96 1481.64 L2329.96 1485.58 L2310.06 1485.58 L2310.06 1481.64 Z" fill="#000000" fill-rule="nonzero" fill-opacity="1" /><path clip-path="url(#clip100)" d="M2349.41 1454.1 Q2345.8 1454.1 2343.97 1457.66 Q2342.16 1461.2 2342.16 1468.33 Q2342.16 1475.44 2343.97 1479.01 Q2345.8 1482.55 2349.41 1482.55 Q2353.04 1482.55 2354.85 1479.01 Q2356.68 1475.44 2356.68 1468.33 Q2356.68 1461.2 2354.85 1457.66 Q2353.04 1454.1 2349.41 1454.1 M2349.41 1450.39 Q2355.22 1450.39 2358.27 1455 Q2361.35 1459.58 2361.35 1468.33 Q2361.35 1477.06 2358.27 1481.67 Q2355.22 1486.25 2349.41 1486.25 Q2343.6 1486.25 2340.52 1481.67 Q2337.46 1477.06 2337.46 1468.33 Q2337.46 1459.58 2340.52 1455 Q2343.6 1450.39 2349.41 1450.39 Z" fill="#000000" fill-rule="nonzero" fill-opacity="1" /><path clip-path="url(#clip100)" d="M2379.57 1454.1 Q2375.96 1454.1 2374.13 1457.66 Q2372.33 1461.2 2372.33 1468.33 Q2372.33 1475.44 2374.13 1479.01 Q2375.96 1482.55 2379.57 1482.55 Q2383.21 1482.55 2385.01 1479.01 Q2386.84 1475.44 2386.84 1468.33 Q2386.84 1461.2 2385.01 1457.66 Q2383.21 1454.1 2379.57 1454.1 M2379.57 1450.39 Q2385.38 1450.39 2388.44 1455 Q2391.52 1459.58 2391.52 1468.33 Q2391.52 1477.06 2388.44 1481.67 Q2385.38 1486.25 2379.57 1486.25 Q2373.76 1486.25 2370.68 1481.67 Q2367.63 1477.06 2367.63 1468.33 Q2367.63 1459.58 2370.68 1455 Q2373.76 1450.39 2379.57 1450.39 Z" fill="#000000" fill-rule="nonzero" fill-opacity="1" /><path clip-path="url(#clip100)" d="M1371.35 1545.45 L1351.08 1545.45 Q1351.55 1554.96 1353.75 1559 Q1356.49 1563.97 1361.23 1563.97 Q1366 1563.97 1368.65 1558.97 Q1370.97 1554.58 1371.35 1545.45 M1371.26 1540.03 Q1370.36 1531 1368.65 1527.81 Q1365.91 1522.78 1361.23 1522.78 Q1356.36 1522.78 1353.78 1527.75 Q1351.74 1531.76 1351.14 1540.03 L1371.26 1540.03 M1361.23 1518.01 Q1368.87 1518.01 1373.23 1524.76 Q1377.59 1531.47 1377.59 1543.38 Q1377.59 1555.25 1373.23 1562 Q1368.87 1568.78 1361.23 1568.78 Q1353.56 1568.78 1349.23 1562 Q1344.87 1555.25 1344.87 1543.38 Q1344.87 1531.47 1349.23 1524.76 Q1353.56 1518.01 1361.23 1518.01 Z" fill="#000000" fill-rule="nonzero" fill-opacity="1" /><polyline clip-path="url(#clip102)" style="stroke:#000000; stroke-linecap:round; stroke-linejoin:round; stroke-width:2; stroke-opacity:0.1; fill:none" points="369.703,1401.33 2352.76,1401.33 "/>
<polyline clip-path="url(#clip102)" style="stroke:#000000; stroke-linecap:round; stroke-linejoin:round; stroke-width:2; stroke-opacity:0.1; fill:none" points="369.703,1099.23 2352.76,1099.23 "/>
<polyline clip-path="url(#clip102)" style="stroke:#000000; stroke-linecap:round; stroke-linejoin:round; stroke-width:2; stroke-opacity:0.1; fill:none" points="369.703,797.127 2352.76,797.127 "/>
<polyline clip-path="url(#clip102)" style="stroke:#000000; stroke-linecap:round; stroke-linejoin:round; stroke-width:2; stroke-opacity:0.1; fill:none" points="369.703,495.026 2352.76,495.026 "/>
<polyline clip-path="url(#clip102)" style="stroke:#000000; stroke-linecap:round; stroke-linejoin:round; stroke-width:2; stroke-opacity:0.1; fill:none" points="369.703,192.926 2352.76,192.926 "/>
<polyline clip-path="url(#clip100)" style="stroke:#000000; stroke-linecap:round; stroke-linejoin:round; stroke-width:4; stroke-opacity:1; fill:none" points="369.703,1423.18 369.703,47.2441 "/>
<polyline clip-path="url(#clip100)" style="stroke:#000000; stroke-linecap:round; stroke-linejoin:round; stroke-width:4; stroke-opacity:1; fill:none" points="369.703,1401.33 388.601,1401.33 "/>
<polyline clip-path="url(#clip100)" style="stroke:#000000; stroke-linecap:round; stroke-linejoin:round; stroke-width:4; stroke-opacity:1; fill:none" points="369.703,1099.23 388.601,1099.23 "/>
<polyline clip-path="url(#clip100)" style="stroke:#000000; stroke-linecap:round; stroke-linejoin:round; stroke-width:4; stroke-opacity:1; fill:none" points="369.703,797.127 388.601,797.127 "/>
<polyline clip-path="url(#clip100)" style="stroke:#000000; stroke-linecap:round; stroke-linejoin:round; stroke-width:4; stroke-opacity:1; fill:none" points="369.703,495.026 388.601,495.026 "/>
<polyline clip-path="url(#clip100)" style="stroke:#000000; stroke-linecap:round; stroke-linejoin:round; stroke-width:4; stroke-opacity:1; fill:none" points="369.703,192.926 388.601,192.926 "/>
<path clip-path="url(#clip100)" d="M321.759 1387.13 Q318.148 1387.13 316.319 1390.69 Q314.514 1394.23 314.514 1401.36 Q314.514 1408.47 316.319 1412.03 Q318.148 1415.58 321.759 1415.58 Q325.393 1415.58 327.199 1412.03 Q329.028 1408.47 329.028 1401.36 Q329.028 1394.23 327.199 1390.69 Q325.393 1387.13 321.759 1387.13 M321.759 1383.42 Q327.569 1383.42 330.625 1388.03 Q333.703 1392.61 333.703 1401.36 Q333.703 1410.09 330.625 1414.7 Q327.569 1419.28 321.759 1419.28 Q315.949 1419.28 312.87 1414.7 Q309.815 1410.09 309.815 1401.36 Q309.815 1392.61 312.87 1388.03 Q315.949 1383.42 321.759 1383.42 Z" fill="#000000" fill-rule="nonzero" fill-opacity="1" /><path clip-path="url(#clip100)" d="M119.885 1119.02 L136.204 1119.02 L136.204 1122.95 L114.26 1122.95 L114.26 1119.02 Q116.922 1116.27 121.505 1111.64 Q126.112 1106.98 127.292 1105.64 Q129.538 1103.12 130.417 1101.38 Q131.32 1099.62 131.32 1097.93 Q131.32 1095.18 129.376 1093.44 Q127.455 1091.7 124.353 1091.7 Q122.154 1091.7 119.7 1092.47 Q117.269 1093.23 114.492 1094.78 L114.492 1090.06 Q117.316 1088.93 119.769 1088.35 Q122.223 1087.77 124.26 1087.77 Q129.63 1087.77 132.825 1090.45 Q136.019 1093.14 136.019 1097.63 Q136.019 1099.76 135.209 1101.68 Q134.422 1103.58 132.316 1106.17 Q131.737 1106.84 128.635 1110.06 Q125.533 1113.26 119.885 1119.02 Z" fill="#000000" fill-rule="nonzero" fill-opacity="1" /><path clip-path="url(#clip100)" d="M146.019 1117.08 L150.903 1117.08 L150.903 1122.95 L146.019 1122.95 L146.019 1117.08 Z" fill="#000000" fill-rule="nonzero" fill-opacity="1" /><path clip-path="url(#clip100)" d="M161.135 1088.39 L179.491 1088.39 L179.491 1092.33 L165.417 1092.33 L165.417 1100.8 Q166.436 1100.45 167.454 1100.29 Q168.473 1100.11 169.491 1100.11 Q175.278 1100.11 178.658 1103.28 Q182.038 1106.45 182.038 1111.87 Q182.038 1117.45 178.565 1120.55 Q175.093 1123.63 168.774 1123.63 Q166.598 1123.63 164.329 1123.26 Q162.084 1122.89 159.677 1122.14 L159.677 1117.45 Q161.76 1118.58 163.982 1119.14 Q166.204 1119.69 168.681 1119.69 Q172.686 1119.69 175.024 1117.58 Q177.362 1115.48 177.362 1111.87 Q177.362 1108.26 175.024 1106.15 Q172.686 1104.04 168.681 1104.04 Q166.806 1104.04 164.931 1104.46 Q163.079 1104.88 161.135 1105.76 L161.135 1088.39 Z" fill="#000000" fill-rule="nonzero" fill-opacity="1" /><path clip-path="url(#clip100)" d="M201.25 1091.47 Q197.639 1091.47 195.811 1095.04 Q194.005 1098.58 194.005 1105.71 Q194.005 1112.82 195.811 1116.38 Q197.639 1119.92 201.25 1119.92 Q204.885 1119.92 206.69 1116.38 Q208.519 1112.82 208.519 1105.71 Q208.519 1098.58 206.69 1095.04 Q204.885 1091.47 201.25 1091.47 M201.25 1087.77 Q207.061 1087.77 210.116 1092.38 Q213.195 1096.96 213.195 1105.71 Q213.195 1114.44 210.116 1119.04 Q207.061 1123.63 201.25 1123.63 Q195.44 1123.63 192.362 1119.04 Q189.306 1114.44 189.306 1105.71 Q189.306 1096.96 192.362 1092.38 Q195.44 1087.77 201.25 1087.77 Z" fill="#000000" fill-rule="nonzero" fill-opacity="1" /><path clip-path="url(#clip100)" d="M249.584 1097.49 L239.005 1108.12 L249.584 1118.7 L246.829 1121.5 L236.204 1110.87 L225.579 1121.5 L222.848 1118.7 L233.403 1108.12 L222.848 1097.49 L225.579 1094.69 L236.204 1105.32 L246.829 1094.69 L249.584 1097.49 Z" fill="#000000" fill-rule="nonzero" fill-opacity="1" /><path clip-path="url(#clip100)" d="M261.945 1119.02 L269.583 1119.02 L269.583 1092.65 L261.273 1094.32 L261.273 1090.06 L269.537 1088.39 L274.213 1088.39 L274.213 1119.02 L281.852 1119.02 L281.852 1122.95 L261.945 1122.95 L261.945 1119.02 Z" fill="#000000" fill-rule="nonzero" fill-opacity="1" /><path clip-path="url(#clip100)" d="M301.296 1091.47 Q297.685 1091.47 295.856 1095.04 Q294.051 1098.58 294.051 1105.71 Q294.051 1112.82 295.856 1116.38 Q297.685 1119.92 301.296 1119.92 Q304.93 1119.92 306.736 1116.38 Q308.565 1112.82 308.565 1105.71 Q308.565 1098.58 306.736 1095.04 Q304.93 1091.47 301.296 1091.47 M301.296 1087.77 Q307.106 1087.77 310.162 1092.38 Q313.241 1096.96 313.241 1105.71 Q313.241 1114.44 310.162 1119.04 Q307.106 1123.63 301.296 1123.63 Q295.486 1123.63 292.407 1119.04 Q289.352 1114.44 289.352 1105.71 Q289.352 1096.96 292.407 1092.38 Q295.486 1087.77 301.296 1087.77 Z" fill="#000000" fill-rule="nonzero" fill-opacity="1" /><path clip-path="url(#clip100)" d="M325.917 1070.77 L316.325 1085.76 L325.917 1085.76 L325.917 1070.77 M324.92 1067.46 L329.697 1067.46 L329.697 1085.76 L333.703 1085.76 L333.703 1088.92 L329.697 1088.92 L329.697 1095.54 L325.917 1095.54 L325.917 1088.92 L313.241 1088.92 L313.241 1085.26 L324.92 1067.46 Z" fill="#000000" fill-rule="nonzero" fill-opacity="1" /><path clip-path="url(#clip100)" d="M115.904 786.294 L134.26 786.294 L134.26 790.229 L120.186 790.229 L120.186 798.702 Q121.205 798.354 122.223 798.192 Q123.242 798.007 124.26 798.007 Q130.047 798.007 133.427 801.179 Q136.806 804.35 136.806 809.766 Q136.806 815.345 133.334 818.447 Q129.862 821.526 123.543 821.526 Q121.367 821.526 119.098 821.155 Q116.853 820.785 114.445 820.044 L114.445 815.345 Q116.529 816.479 118.751 817.035 Q120.973 817.59 123.45 817.59 Q127.455 817.59 129.792 815.484 Q132.13 813.378 132.13 809.766 Q132.13 806.155 129.792 804.049 Q127.455 801.942 123.45 801.942 Q121.575 801.942 119.7 802.359 Q117.848 802.776 115.904 803.655 L115.904 786.294 Z" fill="#000000" fill-rule="nonzero" fill-opacity="1" /><path clip-path="url(#clip100)" d="M146.019 814.975 L150.903 814.975 L150.903 820.854 L146.019 820.854 L146.019 814.975 Z" fill="#000000" fill-rule="nonzero" fill-opacity="1" /><path clip-path="url(#clip100)" d="M171.089 789.373 Q167.477 789.373 165.649 792.938 Q163.843 796.479 163.843 803.609 Q163.843 810.715 165.649 814.28 Q167.477 817.822 171.089 817.822 Q174.723 817.822 176.528 814.28 Q178.357 810.715 178.357 803.609 Q178.357 796.479 176.528 792.938 Q174.723 789.373 171.089 789.373 M171.089 785.669 Q176.899 785.669 179.954 790.276 Q183.033 794.859 183.033 803.609 Q183.033 812.336 179.954 816.942 Q176.899 821.526 171.089 821.526 Q165.278 821.526 162.2 816.942 Q159.144 812.336 159.144 803.609 Q159.144 794.859 162.2 790.276 Q165.278 785.669 171.089 785.669 Z" fill="#000000" fill-rule="nonzero" fill-opacity="1" /><path clip-path="url(#clip100)" d="M201.25 789.373 Q197.639 789.373 195.811 792.938 Q194.005 796.479 194.005 803.609 Q194.005 810.715 195.811 814.28 Q197.639 817.822 201.25 817.822 Q204.885 817.822 206.69 814.28 Q208.519 810.715 208.519 803.609 Q208.519 796.479 206.69 792.938 Q204.885 789.373 201.25 789.373 M201.25 785.669 Q207.061 785.669 210.116 790.276 Q213.195 794.859 213.195 803.609 Q213.195 812.336 210.116 816.942 Q207.061 821.526 201.25 821.526 Q195.44 821.526 192.362 816.942 Q189.306 812.336 189.306 803.609 Q189.306 794.859 192.362 790.276 Q195.44 785.669 201.25 785.669 Z" fill="#000000" fill-rule="nonzero" fill-opacity="1" /><path clip-path="url(#clip100)" d="M249.584 795.392 L239.005 806.016 L249.584 816.595 L246.829 819.396 L236.204 808.771 L225.579 819.396 L222.848 816.595 L233.403 806.016 L222.848 795.392 L225.579 792.591 L236.204 803.216 L246.829 792.591 L249.584 795.392 Z" fill="#000000" fill-rule="nonzero" fill-opacity="1" /><path clip-path="url(#clip100)" d="M261.945 816.919 L269.583 816.919 L269.583 790.554 L261.273 792.22 L261.273 787.961 L269.537 786.294 L274.213 786.294 L274.213 816.919 L281.852 816.919 L281.852 820.854 L261.945 820.854 L261.945 816.919 Z" fill="#000000" fill-rule="nonzero" fill-opacity="1" /><path clip-path="url(#clip100)" d="M301.296 789.373 Q297.685 789.373 295.856 792.938 Q294.051 796.479 294.051 803.609 Q294.051 810.715 295.856 814.28 Q297.685 817.822 301.296 817.822 Q304.93 817.822 306.736 814.28 Q308.565 810.715 308.565 803.609 Q308.565 796.479 306.736 792.938 Q304.93 789.373 301.296 789.373 M301.296 785.669 Q307.106 785.669 310.162 790.276 Q313.241 794.859 313.241 803.609 Q313.241 812.336 310.162 816.942 Q307.106 821.526 301.296 821.526 Q295.486 821.526 292.407 816.942 Q289.352 812.336 289.352 803.609 Q289.352 794.859 292.407 790.276 Q295.486 785.669 301.296 785.669 Z" fill="#000000" fill-rule="nonzero" fill-opacity="1" /><path clip-path="url(#clip100)" d="M325.917 768.674 L316.325 783.664 L325.917 783.664 L325.917 768.674 M324.92 765.364 L329.697 765.364 L329.697 783.664 L333.703 783.664 L333.703 786.824 L329.697 786.824 L329.697 793.444 L325.917 793.444 L325.917 786.824 L313.241 786.824 L313.241 783.156 L324.92 765.364 Z" fill="#000000" fill-rule="nonzero" fill-opacity="1" /><path clip-path="url(#clip100)" d="M114.677 484.194 L136.899 484.194 L136.899 486.185 L124.353 518.754 L119.468 518.754 L131.274 488.129 L114.677 488.129 L114.677 484.194 Z" fill="#000000" fill-rule="nonzero" fill-opacity="1" /><path clip-path="url(#clip100)" d="M146.019 512.874 L150.903 512.874 L150.903 518.754 L146.019 518.754 L146.019 512.874 Z" fill="#000000" fill-rule="nonzero" fill-opacity="1" /><path clip-path="url(#clip100)" d="M161.135 484.194 L179.491 484.194 L179.491 488.129 L165.417 488.129 L165.417 496.601 Q166.436 496.254 167.454 496.092 Q168.473 495.907 169.491 495.907 Q175.278 495.907 178.658 499.078 Q182.038 502.249 182.038 507.666 Q182.038 513.245 178.565 516.346 Q175.093 519.425 168.774 519.425 Q166.598 519.425 164.329 519.055 Q162.084 518.684 159.677 517.944 L159.677 513.245 Q161.76 514.379 163.982 514.934 Q166.204 515.49 168.681 515.49 Q172.686 515.49 175.024 513.384 Q177.362 511.277 177.362 507.666 Q177.362 504.055 175.024 501.948 Q172.686 499.842 168.681 499.842 Q166.806 499.842 164.931 500.259 Q163.079 500.675 161.135 501.555 L161.135 484.194 Z" fill="#000000" fill-rule="nonzero" fill-opacity="1" /><path clip-path="url(#clip100)" d="M201.25 487.273 Q197.639 487.273 195.811 490.837 Q194.005 494.379 194.005 501.509 Q194.005 508.615 195.811 512.18 Q197.639 515.721 201.25 515.721 Q204.885 515.721 206.69 512.18 Q208.519 508.615 208.519 501.509 Q208.519 494.379 206.69 490.837 Q204.885 487.273 201.25 487.273 M201.25 483.569 Q207.061 483.569 210.116 488.175 Q213.195 492.759 213.195 501.509 Q213.195 510.235 210.116 514.842 Q207.061 519.425 201.25 519.425 Q195.44 519.425 192.362 514.842 Q189.306 510.235 189.306 501.509 Q189.306 492.759 192.362 488.175 Q195.44 483.569 201.25 483.569 Z" fill="#000000" fill-rule="nonzero" fill-opacity="1" /><path clip-path="url(#clip100)" d="M249.584 493.291 L239.005 503.916 L249.584 514.495 L246.829 517.296 L236.204 506.671 L225.579 517.296 L222.848 514.495 L233.403 503.916 L222.848 493.291 L225.579 490.49 L236.204 501.115 L246.829 490.49 L249.584 493.291 Z" fill="#000000" fill-rule="nonzero" fill-opacity="1" /><path clip-path="url(#clip100)" d="M261.945 514.819 L269.583 514.819 L269.583 488.453 L261.273 490.12 L261.273 485.861 L269.537 484.194 L274.213 484.194 L274.213 514.819 L281.852 514.819 L281.852 518.754 L261.945 518.754 L261.945 514.819 Z" fill="#000000" fill-rule="nonzero" fill-opacity="1" /><path clip-path="url(#clip100)" d="M301.296 487.273 Q297.685 487.273 295.856 490.837 Q294.051 494.379 294.051 501.509 Q294.051 508.615 295.856 512.18 Q297.685 515.721 301.296 515.721 Q304.93 515.721 306.736 512.18 Q308.565 508.615 308.565 501.509 Q308.565 494.379 306.736 490.837 Q304.93 487.273 301.296 487.273 M301.296 483.569 Q307.106 483.569 310.162 488.175 Q313.241 492.759 313.241 501.509 Q313.241 510.235 310.162 514.842 Q307.106 519.425 301.296 519.425 Q295.486 519.425 292.407 514.842 Q289.352 510.235 289.352 501.509 Q289.352 492.759 292.407 488.175 Q295.486 483.569 301.296 483.569 Z" fill="#000000" fill-rule="nonzero" fill-opacity="1" /><path clip-path="url(#clip100)" d="M325.917 466.574 L316.325 481.563 L325.917 481.563 L325.917 466.574 M324.92 463.263 L329.697 463.263 L329.697 481.563 L333.703 481.563 L333.703 484.723 L329.697 484.723 L329.697 491.343 L325.917 491.343 L325.917 484.723 L313.241 484.723 L313.241 481.056 L324.92 463.263 Z" fill="#000000" fill-rule="nonzero" fill-opacity="1" /><path clip-path="url(#clip100)" d="M118.962 212.718 L126.601 212.718 L126.601 186.353 L118.291 188.019 L118.291 183.76 L126.555 182.093 L131.231 182.093 L131.231 212.718 L138.869 212.718 L138.869 216.653 L118.962 216.653 L118.962 212.718 Z" fill="#000000" fill-rule="nonzero" fill-opacity="1" /><path clip-path="url(#clip100)" d="M148.314 210.774 L153.198 210.774 L153.198 216.653 L148.314 216.653 L148.314 210.774 Z" fill="#000000" fill-rule="nonzero" fill-opacity="1" /><path clip-path="url(#clip100)" d="M173.383 185.172 Q169.772 185.172 167.943 188.737 Q166.138 192.279 166.138 199.408 Q166.138 206.515 167.943 210.079 Q169.772 213.621 173.383 213.621 Q177.017 213.621 178.823 210.079 Q180.652 206.515 180.652 199.408 Q180.652 192.279 178.823 188.737 Q177.017 185.172 173.383 185.172 M173.383 181.468 Q179.193 181.468 182.249 186.075 Q185.327 190.658 185.327 199.408 Q185.327 208.135 182.249 212.741 Q179.193 217.325 173.383 217.325 Q167.573 217.325 164.494 212.741 Q161.439 208.135 161.439 199.408 Q161.439 190.658 164.494 186.075 Q167.573 181.468 173.383 181.468 Z" fill="#000000" fill-rule="nonzero" fill-opacity="1" /><path clip-path="url(#clip100)" d="M203.545 185.172 Q199.934 185.172 198.105 188.737 Q196.3 192.279 196.3 199.408 Q196.3 206.515 198.105 210.079 Q199.934 213.621 203.545 213.621 Q207.179 213.621 208.985 210.079 Q210.813 206.515 210.813 199.408 Q210.813 192.279 208.985 188.737 Q207.179 185.172 203.545 185.172 M203.545 181.468 Q209.355 181.468 212.411 186.075 Q215.489 190.658 215.489 199.408 Q215.489 208.135 212.411 212.741 Q209.355 217.325 203.545 217.325 Q197.735 217.325 194.656 212.741 Q191.601 208.135 191.601 199.408 Q191.601 190.658 194.656 186.075 Q197.735 181.468 203.545 181.468 Z" fill="#000000" fill-rule="nonzero" fill-opacity="1" /><path clip-path="url(#clip100)" d="M251.878 191.191 L241.299 201.816 L251.878 212.394 L249.123 215.195 L238.498 204.57 L227.874 215.195 L225.142 212.394 L235.698 201.816 L225.142 191.191 L227.874 188.39 L238.498 199.015 L249.123 188.39 L251.878 191.191 Z" fill="#000000" fill-rule="nonzero" fill-opacity="1" /><path clip-path="url(#clip100)" d="M264.239 212.718 L271.878 212.718 L271.878 186.353 L263.568 188.019 L263.568 183.76 L271.832 182.093 L276.508 182.093 L276.508 212.718 L284.146 212.718 L284.146 216.653 L264.239 216.653 L264.239 212.718 Z" fill="#000000" fill-rule="nonzero" fill-opacity="1" /><path clip-path="url(#clip100)" d="M303.591 185.172 Q299.98 185.172 298.151 188.737 Q296.345 192.279 296.345 199.408 Q296.345 206.515 298.151 210.079 Q299.98 213.621 303.591 213.621 Q307.225 213.621 309.031 210.079 Q310.859 206.515 310.859 199.408 Q310.859 192.279 309.031 188.737 Q307.225 185.172 303.591 185.172 M303.591 181.468 Q309.401 181.468 312.456 186.075 Q315.535 190.658 315.535 199.408 Q315.535 208.135 312.456 212.741 Q309.401 217.325 303.591 217.325 Q297.781 217.325 294.702 212.741 Q291.646 208.135 291.646 199.408 Q291.646 190.658 294.702 186.075 Q297.781 181.468 303.591 181.468 Z" fill="#000000" fill-rule="nonzero" fill-opacity="1" /><path clip-path="url(#clip100)" d="M316.72 161.163 L331.635 161.163 L331.635 164.36 L320.199 164.36 L320.199 171.244 Q321.027 170.962 321.855 170.83 Q322.682 170.68 323.51 170.68 Q328.212 170.68 330.957 173.256 Q333.703 175.833 333.703 180.234 Q333.703 184.767 330.882 187.287 Q328.061 189.788 322.927 189.788 Q321.159 189.788 319.315 189.488 Q317.491 189.187 315.535 188.585 L315.535 184.767 Q317.228 185.688 319.033 186.14 Q320.839 186.591 322.851 186.591 Q326.105 186.591 328.005 184.88 Q329.904 183.168 329.904 180.234 Q329.904 177.3 328.005 175.589 Q326.105 173.877 322.851 173.877 Q321.328 173.877 319.804 174.216 Q318.3 174.554 316.72 175.269 L316.72 161.163 Z" fill="#000000" fill-rule="nonzero" fill-opacity="1" /><path clip-path="url(#clip100)" d="M16.4842 887.559 L16.4842 881.13 L64.0042 881.13 L64.0042 887.559 L16.4842 887.559 Z" fill="#000000" fill-rule="nonzero" fill-opacity="1" /><path clip-path="url(#clip100)" d="M42.4881 838.957 L64.0042 838.957 L64.0042 844.814 L42.679 844.814 Q37.6183 844.814 35.1038 846.787 Q32.5894 848.76 32.5894 852.707 Q32.5894 857.449 35.6131 860.187 Q38.6368 862.924 43.8567 862.924 L64.0042 862.924 L64.0042 868.812 L28.3562 868.812 L28.3562 862.924 L33.8944 862.924 Q30.6797 860.823 29.0883 857.991 Q27.4968 855.126 27.4968 851.402 Q27.4968 845.259 31.3163 842.108 Q35.1038 838.957 42.4881 838.957 Z" fill="#000000" fill-rule="nonzero" fill-opacity="1" /><path clip-path="url(#clip100)" d="M18.2347 821.483 L28.3562 821.483 L28.3562 809.42 L32.9077 809.42 L32.9077 821.483 L52.2594 821.483 Q56.6199 821.483 57.8613 820.306 Q59.1026 819.096 59.1026 815.436 L59.1026 809.42 L64.0042 809.42 L64.0042 815.436 Q64.0042 822.215 61.4897 824.793 Q58.9434 827.371 52.2594 827.371 L32.9077 827.371 L32.9077 831.668 L28.3562 831.668 L28.3562 827.371 L18.2347 827.371 L18.2347 821.483 Z" fill="#000000" fill-rule="nonzero" fill-opacity="1" /><path clip-path="url(#clip100)" d="M44.7161 771.226 L47.5806 771.226 L47.5806 798.153 Q53.6281 797.771 56.8109 794.524 Q59.9619 791.246 59.9619 785.421 Q59.9619 782.048 59.1344 778.897 Q58.3069 775.714 56.6518 772.595 L62.1899 772.595 Q63.5267 775.746 64.227 779.056 Q64.9272 782.366 64.9272 785.772 Q64.9272 794.302 59.9619 799.299 Q54.9967 804.264 46.5303 804.264 Q37.7774 804.264 32.6531 799.553 Q27.4968 794.811 27.4968 786.79 Q27.4968 779.597 32.1438 775.427 Q36.7589 771.226 44.7161 771.226 M42.9973 777.082 Q38.1912 777.146 35.3266 779.788 Q32.4621 782.398 32.4621 786.726 Q32.4621 791.628 35.2312 794.588 Q38.0002 797.516 43.0292 797.962 L42.9973 777.082 Z" fill="#000000" fill-rule="nonzero" fill-opacity="1" /><path clip-path="url(#clip100)" d="M45.7664 738.156 Q39.4007 738.156 35.8996 740.798 Q32.3984 743.408 32.3984 748.15 Q32.3984 752.861 35.8996 755.503 Q39.4007 758.113 45.7664 758.113 Q52.1003 758.113 55.6014 755.503 Q59.1026 752.861 59.1026 748.15 Q59.1026 743.408 55.6014 740.798 Q52.1003 738.156 45.7664 738.156 M59.58 732.3 Q68.683 732.3 73.1071 736.342 Q77.5631 740.384 77.5631 748.723 Q77.5631 751.811 77.0857 754.548 Q76.6401 757.285 75.6852 759.863 L69.9879 759.863 Q71.3884 757.285 72.0568 754.771 Q72.7252 752.256 72.7252 749.646 Q72.7252 743.885 69.7015 741.021 Q66.7096 738.156 60.6303 738.156 L57.7339 738.156 Q60.885 739.97 62.4446 742.803 Q64.0042 745.636 64.0042 749.583 Q64.0042 756.139 59.0071 760.15 Q54.01 764.16 45.7664 764.16 Q37.491 764.16 32.4939 760.15 Q27.4968 756.139 27.4968 749.583 Q27.4968 745.636 29.0564 742.803 Q30.616 739.97 33.7671 738.156 L28.3562 738.156 L28.3562 732.3 L59.58 732.3 Z" fill="#000000" fill-rule="nonzero" fill-opacity="1" /><path clip-path="url(#clip100)" d="M33.8307 699.58 Q33.2578 700.567 33.0032 701.744 Q32.7167 702.89 32.7167 704.291 Q32.7167 709.256 35.9632 711.929 Q39.1779 714.571 45.2253 714.571 L64.0042 714.571 L64.0042 720.459 L28.3562 720.459 L28.3562 714.571 L33.8944 714.571 Q30.6479 712.725 29.0883 709.765 Q27.4968 706.805 27.4968 702.572 Q27.4968 701.967 27.5923 701.235 Q27.656 700.503 27.8151 699.612 L33.8307 699.58 Z" fill="#000000" fill-rule="nonzero" fill-opacity="1" /><path clip-path="url(#clip100)" d="M46.0847 677.236 Q46.0847 684.334 47.7079 687.071 Q49.3312 689.809 53.2461 689.809 Q56.3653 689.809 58.2114 687.772 Q60.0256 685.703 60.0256 682.17 Q60.0256 677.3 56.5881 674.372 Q53.1188 671.412 47.3897 671.412 L46.0847 671.412 L46.0847 677.236 M43.6657 665.555 L64.0042 665.555 L64.0042 671.412 L58.5933 671.412 Q61.8398 673.417 63.3994 676.409 Q64.9272 679.401 64.9272 683.729 Q64.9272 689.204 61.8716 692.45 Q58.7843 695.665 53.6281 695.665 Q47.6125 695.665 44.5569 691.655 Q41.5014 687.612 41.5014 679.623 L41.5014 671.412 L40.9285 671.412 Q36.8862 671.412 34.6901 674.085 Q32.4621 676.727 32.4621 681.533 Q32.4621 684.589 33.1941 687.485 Q33.9262 690.381 35.3903 693.055 L29.9795 693.055 Q28.7381 689.84 28.1334 686.817 Q27.4968 683.793 27.4968 680.928 Q27.4968 673.194 31.5072 669.375 Q35.5176 665.555 43.6657 665.555 Z" fill="#000000" fill-rule="nonzero" fill-opacity="1" /><path clip-path="url(#clip100)" d="M42.4881 623.86 L64.0042 623.86 L64.0042 629.716 L42.679 629.716 Q37.6183 629.716 35.1038 631.69 Q32.5894 633.663 32.5894 637.61 Q32.5894 642.352 35.6131 645.089 Q38.6368 647.827 43.8567 647.827 L64.0042 647.827 L64.0042 653.715 L28.3562 653.715 L28.3562 647.827 L33.8944 647.827 Q30.6797 645.726 29.0883 642.893 Q27.4968 640.029 27.4968 636.305 Q27.4968 630.162 31.3163 627.011 Q35.1038 623.86 42.4881 623.86 Z" fill="#000000" fill-rule="nonzero" fill-opacity="1" /><path clip-path="url(#clip100)" d="M33.7671 588.721 L14.479 588.721 L14.479 582.865 L64.0042 582.865 L64.0042 588.721 L58.657 588.721 Q61.8398 590.567 63.3994 593.4 Q64.9272 596.201 64.9272 600.148 Q64.9272 606.609 59.771 610.683 Q54.6147 614.725 46.212 614.725 Q37.8093 614.725 32.6531 610.683 Q27.4968 606.609 27.4968 600.148 Q27.4968 596.201 29.0564 593.4 Q30.5842 590.567 33.7671 588.721 M46.212 608.678 Q52.6732 608.678 56.3653 606.036 Q60.0256 603.362 60.0256 598.715 Q60.0256 594.068 56.3653 591.395 Q52.6732 588.721 46.212 588.721 Q39.7508 588.721 36.0905 591.395 Q32.3984 594.068 32.3984 598.715 Q32.3984 603.362 36.0905 606.036 Q39.7508 608.678 46.212 608.678 Z" fill="#000000" fill-rule="nonzero" fill-opacity="1" /><polyline clip-path="url(#clip102)" style="stroke:#009af9; stroke-linecap:round; stroke-linejoin:round; stroke-width:4; stroke-opacity:1; fill:none" points="425.828,1384.24 438.008,1384.24 550.629,1384.2 618.31,1384.15 675.533,1384.08 737.693,1384 794.999,1383.9 856.438,1383.77 927.621,1383.59 990.879,1383.4 1046.35,1383.21 1106.83,1382.98 1167.67,1382.71 1234.93,1382.37 1298.94,1382 1365.48,1381.56 1421.5,1381.14 1489.89,1380.55 1552.54,1379.92 1610.41,1379.25 1669.02,1378.46 1734.71,1377.41 1794.23,1376.27 1828.31,1375.51 1862.39,1374.65 1893.94,1373.76 1925.49,1372.74 1956.59,1371.6 1987.7,1370.28 2017.9,1368.79 2048.1,1367.01 2063.58,1365.97 2079.06,1364.82 2094.54,1363.53 2110.02,1362.08 2126.98,1360.26 2143.94,1358.14 2152.42,1356.94 2160.9,1355.63 2169.38,1354.19 2177.86,1352.59 2190.18,1349.93 2202.5,1346.77 2208.66,1344.94 2214.82,1342.9 2220.98,1340.62 2227.14,1338.04 2233.3,1335.09 2239.46,1331.67 2245.62,1327.65 2251.78,1322.82 2254.86,1320.01 2257.94,1316.87 2261.02,1313.33 2264.1,1309.3 2267.17,1304.65 2270.25,1299.2 2273.33,1292.7 2276.41,1284.77 2277.68,1280.97 2278.94,1276.77 2280.2,1272.09 2281.47,1266.83 2282.73,1260.87 2284,1254.04 2284.63,1250.23 2285.26,1246.1 2285.89,1241.62 2286.52,1236.72 2287.15,1231.33 2287.79,1225.38 2288.42,1218.75 2289.05,1211.31 2289.68,1202.88 2290.31,1193.21 2290.63,1187.82 2290.95,1181.98 2291.26,1175.63 2291.58,1168.69 2291.89,1161.07 2292.21,1152.65 2292.53,1143.27 2292.84,1132.74 2293.16,1120.81 2293.47,1107.13 2293.63,1099.5 2293.79,1091.23 2293.95,1082.25 2294.1,1072.44 2294.26,1061.66 2294.42,1049.74 2294.58,1036.48 2294.74,1021.59 2294.89,1004.71 2295.05,985.364 2295.21,962.873 2295.37,936.286 2295.53,904.188 2295.68,864.367 2295.84,813.129 2296,743.715 2296.16,641.998 2296.32,471.362 2296.47,86.1857 "/>
</svg>